<svg width="1116" height="163" viewBox="0 0 1116 163" fill="none" xmlns="http://www.w3.org/2000/svg">
<rect width="1116" height="163" fill="black"/>
<path d="M809.707 85.7071C810.098 85.3166 810.098 84.6834 809.707 84.2929L803.343 77.9289C802.953 77.5384 802.319 77.5384 801.929 77.9289C801.538 78.3195 801.538 78.9526 801.929 79.3431L807.586 85L801.929 90.6569C801.538 91.0474 801.538 91.6805 801.929 92.0711C802.319 92.4616 802.953 92.4616 803.343 92.0711L809.707 85.7071ZM328 86H329.768V84H328V86ZM333.305 86H336.842V84H333.305V86ZM340.379 86H343.915V84H340.379V86ZM347.452 86H350.989V84H347.452V86ZM354.526 86H358.062V84H354.526V86ZM361.599 86H365.136V84H361.599V86ZM368.673 86H372.21V84H368.673V86ZM375.746 86H379.283V84H375.746V86ZM382.82 86H386.357V84H382.82V86ZM389.893 86H393.43V84H389.893V86ZM396.967 86H400.504V84H396.967V86ZM404.04 86H407.577V84H404.04V86ZM411.114 86H414.651V84H411.114V86ZM418.188 86H421.724V84H418.188V86ZM425.261 86H428.798V84H425.261V86ZM432.335 86H435.871V84H432.335V86ZM439.408 86H442.945V84H439.408V86ZM446.482 86H450.018V84H446.482V86ZM453.555 86H457.092V84H453.555V86ZM460.629 86H464.165V84H460.629V86ZM467.702 86H471.239V84H467.702V86ZM474.776 86H478.312V84H474.776V86ZM481.849 86H485.386V84H481.849V86ZM488.923 86H492.46V84H488.923V86ZM495.996 86H499.533V84H495.996V86ZM503.07 86H506.607V84H503.07V86ZM510.143 86H513.68V84H510.143V86ZM517.217 86H520.754V84H517.217V86ZM524.29 86H527.827V84H524.29V86ZM531.364 86H534.901V84H531.364V86ZM538.437 86H541.974V84H538.437V86ZM545.511 86H549.048V84H545.511V86ZM552.584 86H556.121V84H552.584V86ZM559.658 86H563.195V84H559.658V86ZM566.731 86H570.268V84H566.731V86ZM573.805 86H577.342V84H573.805V86ZM580.878 86H584.415V84H580.878V86ZM587.952 86H591.489V84H587.952V86ZM595.026 86H598.562V84H595.026V86ZM602.099 86H605.636V84H602.099V86ZM609.173 86H612.709V84H609.173V86ZM616.246 86H619.783V84H616.246V86ZM623.32 86H626.857V84H623.32V86ZM630.393 86H633.93V84H630.393V86ZM637.467 86H641.004V84H637.467V86ZM644.54 86H648.077V84H644.54V86ZM651.614 86H655.151V84H651.614V86ZM658.688 86H662.224V84H658.688V86ZM665.761 86H669.298V84H665.761V86ZM672.835 86H676.371V84H672.835V86ZM679.908 86H683.445V84H679.908V86ZM686.982 86H690.518V84H686.982V86ZM694.055 86H697.592V84H694.055V86ZM701.129 86H704.666V84H701.129V86ZM708.202 86H711.739V84H708.202V86ZM715.276 86H718.813V84H715.276V86ZM722.349 86H725.886V84H722.349V86ZM729.423 86H732.96V84H729.423V86ZM736.497 86H740.033V84H736.497V86ZM743.57 86H747.107V84H743.57V86ZM750.644 86H754.18V84H750.644V86ZM757.717 86H761.254V84H757.717V86ZM764.791 86H768.327V84H764.791V86ZM771.864 86H775.401V84H771.864V86ZM778.938 86H782.475V84H778.938V86ZM786.011 86H789.548V84H786.011V86ZM793.085 86H796.622V84H793.085V86ZM800.158 86H803.695V84H800.158V86ZM807.232 86H809V84H807.232V86Z" fill="#404040"/>
<path d="M121.81 76C121.81 70.4772 126.287 66 131.81 66H333.81C339.332 66 343.81 70.4772 343.81 76V94C343.81 99.5228 339.332 104 333.81 104H131.81C126.287 104 121.81 99.5228 121.81 94V76Z" fill="#171717"/>
<path d="M137.519 93.288C136.111 93.288 134.927 92.96 133.967 92.304C133.007 91.632 132.287 90.656 131.807 89.376C131.327 88.08 131.087 86.488 131.087 84.6C131.087 82.84 131.327 81.312 131.807 80.016C132.287 78.72 133.015 77.712 133.991 76.992C134.967 76.272 136.175 75.912 137.615 75.912C139.151 75.912 140.399 76.328 141.359 77.16C142.319 77.976 142.991 79.2 143.375 80.832L141.047 81.288C140.823 80.168 140.455 79.312 139.943 78.72C139.431 78.112 138.671 77.808 137.663 77.808C136.975 77.808 136.375 77.92 135.863 78.144C135.367 78.368 134.959 78.712 134.639 79.176C134.239 79.736 133.951 80.472 133.775 81.384C133.599 82.296 133.511 83.368 133.511 84.6C133.511 85.912 133.575 87.008 133.703 87.888C133.831 88.752 134.079 89.44 134.447 89.952C134.847 90.496 135.295 90.88 135.791 91.104C136.303 91.328 136.959 91.44 137.759 91.44C138.943 91.44 139.863 90.936 140.519 89.928C141.191 88.92 141.527 87.512 141.527 85.704L142.391 86.136H137.807V84.096H143.519V93H141.791L141.455 89.664L142.031 90C141.807 90.704 141.471 91.304 141.023 91.8C140.591 92.296 140.071 92.672 139.463 92.928C138.871 93.168 138.223 93.288 137.519 93.288ZM151.217 81H153.377V93H151.217V81ZM146.441 91.176H157.769V93H146.441V91.176ZM147.137 81H152.297V82.824H147.137V81ZM150.929 76.152H153.209V78.792H150.929V76.152ZM169.067 93.12C168.075 93.12 167.267 93.008 166.643 92.784C166.035 92.56 165.579 92.208 165.275 91.728C164.987 91.232 164.843 90.584 164.843 89.784V82.824H161.531V81H164.843V77.664H166.979V81H171.347V82.824H166.979V89.712C166.979 90.272 167.139 90.656 167.459 90.864C167.795 91.072 168.387 91.176 169.235 91.176C169.923 91.176 170.595 91.08 171.251 90.888L171.299 92.88C171.027 92.944 170.683 93 170.267 93.048C169.867 93.096 169.467 93.12 169.067 93.12ZM176.381 76.2H178.541V83.832L178.277 83.52C178.533 82.576 179.005 81.872 179.693 81.408C180.381 80.944 181.229 80.712 182.237 80.712C183.021 80.712 183.701 80.824 184.277 81.048C184.869 81.256 185.381 81.592 185.813 82.056C186.213 82.488 186.469 83.024 186.581 83.664C186.693 84.304 186.749 85.024 186.749 85.824V93H184.517V85.944C184.517 85.24 184.477 84.688 184.397 84.288C184.317 83.888 184.117 83.528 183.797 83.208C183.493 82.904 183.173 82.712 182.837 82.632C182.501 82.552 182.109 82.512 181.661 82.512C180.845 82.512 180.117 82.76 179.477 83.256C178.853 83.736 178.541 84.736 178.541 86.256V93H176.381V76.2ZM195.383 93.288C194.599 93.288 193.919 93.184 193.343 92.976C192.767 92.752 192.263 92.408 191.831 91.944C191.415 91.496 191.151 90.968 191.039 90.36C190.927 89.752 190.871 89.024 190.871 88.176V81H193.103V88.056C193.103 88.072 193.103 88.088 193.103 88.104C193.103 88.12 193.103 88.136 193.103 88.152C193.103 88.824 193.143 89.36 193.223 89.76C193.303 90.144 193.495 90.488 193.799 90.792C194.103 91.096 194.423 91.288 194.759 91.368C195.111 91.448 195.519 91.488 195.983 91.488C196.799 91.488 197.519 91.248 198.143 90.768C198.767 90.272 199.079 89.264 199.079 87.744V81H201.239V93H199.079V90.168L199.319 90.528C199.159 91.12 198.895 91.624 198.527 92.04C198.159 92.456 197.703 92.768 197.159 92.976C196.631 93.184 196.039 93.288 195.383 93.288ZM211.601 93.288C210.977 93.288 210.401 93.192 209.873 93C209.361 92.792 208.897 92.488 208.481 92.088C208.065 91.688 207.713 91.184 207.425 90.576L207.809 90.216V93H205.649V76.2H207.809V83.592L207.425 83.184C207.873 82.336 208.449 81.712 209.153 81.312C209.857 80.896 210.697 80.688 211.673 80.688C212.745 80.688 213.689 80.952 214.505 81.48C215.337 82.008 215.977 82.752 216.425 83.712C216.889 84.656 217.121 85.752 217.121 87C217.121 88.28 216.881 89.4 216.401 90.36C215.937 91.304 215.289 92.032 214.457 92.544C213.625 93.04 212.673 93.288 211.601 93.288ZM211.217 91.632C211.857 91.632 212.401 91.536 212.849 91.344C213.297 91.152 213.665 90.864 213.953 90.48C214.241 90.096 214.441 89.616 214.553 89.04C214.681 88.464 214.745 87.784 214.745 87C214.745 85.48 214.473 84.336 213.929 83.568C213.385 82.784 212.465 82.392 211.169 82.392C210.545 82.392 210.017 82.496 209.585 82.704C209.153 82.896 208.809 83.184 208.553 83.568C208.249 83.984 208.033 84.488 207.905 85.08C207.793 85.672 207.737 86.32 207.737 87.024C207.737 88.544 208.025 89.696 208.601 90.48C209.193 91.248 210.065 91.632 211.217 91.632ZM233.477 76.2H235.733L236.501 86.304C236.549 86.832 236.581 87.232 236.597 87.504C236.613 87.76 236.645 88.144 236.693 88.656C236.725 88.944 236.749 89.224 236.765 89.496C236.797 89.768 236.821 90.032 236.837 90.288H236.909C236.957 90.016 236.997 89.744 237.029 89.472C237.109 89.008 237.189 88.512 237.269 87.984C237.365 87.456 237.469 86.896 237.581 86.304L238.901 79.56H241.445L242.741 86.304C242.853 86.88 242.957 87.408 243.053 87.888C243.149 88.368 243.229 88.816 243.293 89.232C243.341 89.424 243.397 89.776 243.461 90.288H243.533C243.565 89.856 243.589 89.432 243.605 89.016C243.653 88.408 243.685 87.952 243.701 87.648C243.717 87.344 243.749 86.896 243.797 86.304L244.565 76.2H246.821L244.901 93H242.189L240.869 85.92C240.709 84.976 240.541 84.04 240.365 83.112C240.301 82.664 240.237 82.216 240.173 81.768H240.101C240.069 82.024 240.037 82.28 240.005 82.536C239.973 82.776 239.941 83.024 239.909 83.28C239.765 84.16 239.613 85.048 239.453 85.944L238.205 93H235.421L233.477 76.2ZM254.903 93.288C253.975 93.288 253.151 93.144 252.431 92.856C251.711 92.568 251.095 92.128 250.583 91.536C250.087 90.976 249.719 90.32 249.479 89.568C249.239 88.8 249.119 87.936 249.119 86.976C249.119 86.08 249.247 85.256 249.503 84.504C249.759 83.736 250.135 83.072 250.631 82.512C251.159 81.92 251.783 81.472 252.503 81.168C253.223 80.864 254.015 80.712 254.879 80.712C255.855 80.712 256.759 80.92 257.591 81.336C258.423 81.736 259.079 82.32 259.559 83.088C259.927 83.664 260.199 84.36 260.375 85.176C260.551 85.976 260.615 86.8 260.567 87.648H251.471C251.503 88.976 251.799 89.96 252.359 90.6C252.919 91.24 253.759 91.56 254.879 91.56C255.903 91.56 256.695 91.344 257.255 90.912C257.815 90.464 258.167 89.784 258.311 88.872L260.399 89.04C260.143 90.432 259.543 91.488 258.599 92.208C257.671 92.928 256.439 93.288 254.903 93.288ZM251.183 85.896H258.503L258.359 85.968C258.359 85.632 258.295 85.256 258.167 84.84C258.055 84.408 257.903 84.048 257.711 83.76C257.407 83.312 257.023 82.984 256.559 82.776C256.111 82.568 255.559 82.464 254.903 82.464C254.247 82.464 253.671 82.584 253.175 82.824C252.679 83.048 252.311 83.36 252.071 83.76C251.719 84.336 251.527 85.016 251.495 85.8V85.968L251.183 85.896ZM270.329 93.288C269.705 93.288 269.129 93.192 268.601 93C268.089 92.792 267.625 92.488 267.209 92.088C266.793 91.688 266.441 91.184 266.153 90.576L266.537 90.216V93H264.377V76.2H266.537V83.592L266.153 83.184C266.601 82.336 267.177 81.712 267.881 81.312C268.585 80.896 269.425 80.688 270.401 80.688C271.473 80.688 272.417 80.952 273.233 81.48C274.065 82.008 274.705 82.752 275.153 83.712C275.617 84.656 275.849 85.752 275.849 87C275.849 88.28 275.609 89.4 275.129 90.36C274.665 91.304 274.017 92.032 273.185 92.544C272.353 93.04 271.401 93.288 270.329 93.288ZM269.945 91.632C270.585 91.632 271.129 91.536 271.577 91.344C272.025 91.152 272.393 90.864 272.681 90.48C272.969 90.096 273.169 89.616 273.281 89.04C273.409 88.464 273.473 87.784 273.473 87C273.473 85.48 273.201 84.336 272.657 83.568C272.113 82.784 271.193 82.392 269.897 82.392C269.273 82.392 268.745 82.496 268.313 82.704C267.881 82.896 267.537 83.184 267.281 83.568C266.977 83.984 266.761 84.488 266.633 85.08C266.521 85.672 266.465 86.32 266.465 87.024C266.465 88.544 266.753 89.696 267.329 90.48C267.921 91.248 268.793 91.632 269.945 91.632ZM279.155 76.2H281.315V83.832L281.051 83.52C281.307 82.576 281.779 81.872 282.467 81.408C283.155 80.944 284.003 80.712 285.011 80.712C285.795 80.712 286.475 80.824 287.051 81.048C287.643 81.256 288.155 81.592 288.587 82.056C288.987 82.488 289.243 83.024 289.355 83.664C289.467 84.304 289.523 85.024 289.523 85.824V93H287.291V85.944C287.291 85.24 287.251 84.688 287.171 84.288C287.091 83.888 286.891 83.528 286.571 83.208C286.267 82.904 285.947 82.712 285.611 82.632C285.275 82.552 284.883 82.512 284.435 82.512C283.619 82.512 282.891 82.76 282.251 83.256C281.627 83.736 281.315 84.736 281.315 86.256V93H279.155V76.2ZM298.901 93.288C297.669 93.288 296.597 93.04 295.685 92.544C294.789 92.032 294.101 91.304 293.621 90.36C293.141 89.416 292.901 88.296 292.901 87C292.901 85.784 293.141 84.704 293.621 83.76C294.117 82.8 294.813 82.056 295.709 81.528C296.621 80.984 297.685 80.712 298.901 80.712C300.101 80.712 301.149 80.984 302.045 81.528C302.957 82.056 303.653 82.8 304.133 83.76C304.629 84.72 304.877 85.8 304.877 87C304.877 88.248 304.629 89.352 304.133 90.312C303.637 91.256 302.933 91.992 302.021 92.52C301.125 93.032 300.085 93.288 298.901 93.288ZM298.901 91.584C300.085 91.584 300.973 91.248 301.565 90.576C301.901 90.192 302.149 89.704 302.309 89.112C302.469 88.52 302.549 87.824 302.549 87.024V87C302.549 86.184 302.469 85.48 302.309 84.888C302.149 84.28 301.893 83.784 301.541 83.4C301.237 83.08 300.869 82.84 300.437 82.68C300.005 82.504 299.493 82.416 298.901 82.416C297.733 82.416 296.861 82.72 296.285 83.328C295.917 83.712 295.645 84.216 295.469 84.84C295.309 85.448 295.229 86.168 295.229 87C295.229 87.832 295.309 88.56 295.469 89.184C295.645 89.792 295.917 90.288 296.285 90.672C296.861 91.28 297.733 91.584 298.901 91.584ZM313.583 93.288C312.351 93.288 311.279 93.04 310.367 92.544C309.471 92.032 308.783 91.304 308.303 90.36C307.823 89.416 307.583 88.296 307.583 87C307.583 85.784 307.823 84.704 308.303 83.76C308.799 82.8 309.495 82.056 310.391 81.528C311.303 80.984 312.367 80.712 313.583 80.712C314.783 80.712 315.831 80.984 316.727 81.528C317.639 82.056 318.335 82.8 318.815 83.76C319.311 84.72 319.559 85.8 319.559 87C319.559 88.248 319.311 89.352 318.815 90.312C318.319 91.256 317.615 91.992 316.703 92.52C315.807 93.032 314.767 93.288 313.583 93.288ZM313.583 91.584C314.767 91.584 315.655 91.248 316.247 90.576C316.583 90.192 316.831 89.704 316.991 89.112C317.151 88.52 317.231 87.824 317.231 87.024V87C317.231 86.184 317.151 85.48 316.991 84.888C316.831 84.28 316.575 83.784 316.223 83.4C315.919 83.08 315.551 82.84 315.119 82.68C314.687 82.504 314.175 82.416 313.583 82.416C312.415 82.416 311.543 82.72 310.967 83.328C310.599 83.712 310.327 84.216 310.151 84.84C309.991 85.448 309.911 86.168 309.911 87C309.911 87.832 309.991 88.56 310.151 89.184C310.327 89.792 310.599 90.288 310.967 90.672C311.543 91.28 312.415 91.584 313.583 91.584ZM323.561 76.2H325.721V93H323.561V76.2ZM325.457 86.232L330.737 81H333.665L328.481 85.8L327.905 86.352L325.433 88.68L325.457 86.232ZM327.209 86.52L328.721 85.104L333.881 93H331.361L327.209 86.52Z" fill="#A1A1AA"/>
<path d="M811.952 76C811.952 70.4772 816.429 66 821.952 66H965.952C971.475 66 975.952 70.4772 975.952 76V94C975.952 99.5228 971.475 104 965.952 104H821.952C816.429 104 811.952 99.5228 811.952 94V76Z" fill="#171717"/>
<path d="M826.658 76.2H829.13L834.53 93H832.298L828.674 81C828.418 80.088 828.162 79.184 827.906 78.288H827.858C827.762 78.656 827.658 79.024 827.546 79.392C827.45 79.76 827.37 80.032 827.306 80.208C827.258 80.384 827.186 80.648 827.09 81L823.514 93H821.234L826.658 76.2ZM825.026 86.064H830.762L831.458 87.984H824.33L825.026 86.064ZM837.476 76.2H842.564C843.732 76.2 844.764 76.32 845.66 76.56C846.572 76.8 847.324 77.296 847.916 78.048C848.524 78.784 848.828 79.864 848.828 81.288C848.828 82.664 848.524 83.712 847.916 84.432C847.308 85.152 846.556 85.624 845.66 85.848C844.764 86.072 843.724 86.184 842.54 86.184H839.636V93H837.476V76.2ZM842.54 84.336C843.372 84.336 844.076 84.28 844.652 84.168C845.228 84.04 845.716 83.752 846.116 83.304C846.516 82.856 846.716 82.184 846.716 81.288C846.716 80.312 846.516 79.592 846.116 79.128C845.732 78.648 845.26 78.352 844.7 78.24C844.14 78.128 843.428 78.072 842.564 78.072H839.636V84.336H842.54ZM856.166 76.2H858.35V93H856.166V76.2ZM852.182 91.104H862.334V93H852.182V91.104ZM852.182 76.2H862.334V78.096H852.182V76.2ZM886.994 93.288C885.586 93.288 884.402 92.96 883.442 92.304C882.482 91.632 881.754 90.656 881.258 89.376C880.778 88.08 880.538 86.488 880.538 84.6C880.538 82.872 880.778 81.36 881.258 80.064C881.738 78.752 882.466 77.736 883.442 77.016C884.434 76.28 885.65 75.912 887.09 75.912C888.562 75.912 889.81 76.344 890.834 77.208C891.858 78.056 892.554 79.296 892.922 80.928L890.57 81.384C890.362 80.248 889.986 79.368 889.442 78.744C888.898 78.12 888.122 77.808 887.114 77.808C886.49 77.808 885.946 77.904 885.482 78.096C885.018 78.288 884.602 78.608 884.234 79.056C883.93 79.44 883.682 79.912 883.49 80.472C883.314 81.016 883.186 81.632 883.106 82.32C883.042 82.992 883.01 83.752 883.01 84.6C883.01 85.864 883.082 86.936 883.226 87.816C883.386 88.696 883.666 89.416 884.066 89.976C884.418 90.456 884.834 90.824 885.314 91.08C885.794 91.32 886.37 91.44 887.042 91.44C887.954 91.44 888.69 91.152 889.25 90.576C889.81 90 890.25 89.176 890.57 88.104L892.97 88.728C892.41 90.28 891.642 91.432 890.666 92.184C889.69 92.92 888.466 93.288 886.994 93.288ZM900.548 76.2H902.708V93H900.548V76.2ZM895.772 91.176H907.1V93H895.772V91.176ZM896.564 76.2H902.012V78.024H896.564V76.2ZM915.134 81H917.294V93H915.134V81ZM910.358 91.176H921.686V93H910.358V91.176ZM911.054 81H916.214V82.824H911.054V81ZM914.846 76.152H917.126V78.792H914.846V76.152ZM930.728 93.288C929.8 93.288 928.976 93.144 928.256 92.856C927.536 92.568 926.92 92.128 926.408 91.536C925.912 90.976 925.544 90.32 925.304 89.568C925.064 88.8 924.944 87.936 924.944 86.976C924.944 86.08 925.072 85.256 925.328 84.504C925.584 83.736 925.96 83.072 926.456 82.512C926.984 81.92 927.608 81.472 928.328 81.168C929.048 80.864 929.84 80.712 930.704 80.712C931.68 80.712 932.584 80.92 933.416 81.336C934.248 81.736 934.904 82.32 935.384 83.088C935.752 83.664 936.024 84.36 936.2 85.176C936.376 85.976 936.44 86.8 936.392 87.648H927.296C927.328 88.976 927.624 89.96 928.184 90.6C928.744 91.24 929.584 91.56 930.704 91.56C931.728 91.56 932.52 91.344 933.08 90.912C933.64 90.464 933.992 89.784 934.136 88.872L936.224 89.04C935.968 90.432 935.368 91.488 934.424 92.208C933.496 92.928 932.264 93.288 930.728 93.288ZM927.008 85.896H934.328L934.184 85.968C934.184 85.632 934.12 85.256 933.992 84.84C933.88 84.408 933.728 84.048 933.536 83.76C933.232 83.312 932.848 82.984 932.384 82.776C931.936 82.568 931.384 82.464 930.728 82.464C930.072 82.464 929.496 82.584 929 82.824C928.504 83.048 928.136 83.36 927.896 83.76C927.544 84.336 927.352 85.016 927.32 85.8V85.968L927.008 85.896ZM940.298 81H942.458V83.88L942.218 83.496C942.474 82.584 942.922 81.896 943.562 81.432C944.218 80.952 945.082 80.712 946.154 80.712C946.938 80.712 947.618 80.824 948.194 81.048C948.786 81.256 949.298 81.592 949.73 82.056C950.146 82.488 950.402 83.032 950.498 83.688C950.61 84.328 950.666 85.056 950.666 85.872V93H948.434V85.992C948.434 85.272 948.394 84.712 948.314 84.312C948.234 83.896 948.034 83.528 947.714 83.208C947.41 82.904 947.09 82.712 946.754 82.632C946.418 82.552 946.026 82.512 945.578 82.512C944.794 82.512 944.074 82.784 943.418 83.328C942.778 83.856 942.458 84.872 942.458 86.376V93H940.298V81ZM962.348 93.12C961.356 93.12 960.548 93.008 959.924 92.784C959.316 92.56 958.86 92.208 958.556 91.728C958.268 91.232 958.124 90.584 958.124 89.784V82.824H954.812V81H958.124V77.664H960.26V81H964.628V82.824H960.26V89.712C960.26 90.272 960.42 90.656 960.74 90.864C961.076 91.072 961.668 91.176 962.516 91.176C963.204 91.176 963.876 91.08 964.532 90.888L964.58 92.88C964.308 92.944 963.964 93 963.548 93.048C963.148 93.096 962.748 93.12 962.348 93.12Z" fill="#A1A1AA"/>
<path d="M408.453 63H746.453C751.424 63 755.453 67.0294 755.453 72V98C755.453 102.971 751.424 107 746.453 107H408.453C403.483 107 399.453 102.971 399.453 98V72C399.453 67.0294 403.483 63 408.453 63Z" fill="#3B0764"/>
<path d="M408.453 63H746.453C751.424 63 755.453 67.0294 755.453 72V98C755.453 102.971 751.424 107 746.453 107H408.453C403.483 107 399.453 102.971 399.453 98V72C399.453 67.0294 403.483 63 408.453 63Z" stroke="#6B21A8" stroke-width="2"/>
<path d="M410.67 76.2H415.806C417.23 76.2 418.438 76.544 419.43 77.232C420.422 77.904 421.166 78.872 421.662 80.136C422.174 81.4 422.43 82.888 422.43 84.6C422.43 87.272 421.846 89.344 420.678 90.816C419.526 92.272 417.894 93 415.782 93H410.67V76.2ZM415.59 91.128C417.158 91.128 418.286 90.584 418.974 89.496C419.374 88.872 419.638 88.184 419.766 87.432C419.91 86.664 419.982 85.72 419.982 84.6C419.982 83.512 419.91 82.56 419.766 81.744C419.622 80.928 419.374 80.224 419.022 79.632C418.686 79.072 418.23 78.672 417.654 78.432C417.094 78.192 416.406 78.072 415.59 78.072H412.83V91.128H415.59ZM429.36 93.288C428.656 93.288 427.992 93.16 427.368 92.904C426.76 92.648 426.264 92.264 425.88 91.752C425.512 91.224 425.328 90.584 425.328 89.832C425.328 89.032 425.52 88.384 425.904 87.888C426.304 87.376 426.792 87 427.368 86.76C427.96 86.504 428.64 86.304 429.408 86.16L433.368 85.392C433.368 85.296 433.368 85.208 433.368 85.128C433.368 84.648 433.336 84.264 433.272 83.976C433.224 83.688 433.12 83.432 432.96 83.208C432.784 82.968 432.504 82.776 432.12 82.632C431.736 82.488 431.288 82.416 430.776 82.416C429.736 82.416 428.984 82.624 428.52 83.04C428.072 83.44 427.848 84.096 427.848 85.008L425.736 84.72C425.752 84 425.888 83.384 426.144 82.872C426.4 82.344 426.76 81.92 427.224 81.6C427.656 81.312 428.184 81.096 428.808 80.952C429.432 80.792 430.128 80.712 430.896 80.712C431.904 80.712 432.744 80.864 433.416 81.168C434.088 81.456 434.592 81.896 434.928 82.488C435.28 83.08 435.456 83.808 435.456 84.672V90.408C435.456 90.76 435.488 91 435.552 91.128C435.632 91.256 435.832 91.32 436.152 91.32C436.344 91.32 436.576 91.288 436.848 91.224L436.896 93C436.496 93.064 436.048 93.096 435.552 93.096C434.848 93.096 434.312 92.912 433.944 92.544C433.576 92.176 433.392 91.632 433.392 90.912L433.656 90.576C433.384 91.472 432.888 92.152 432.168 92.616C431.464 93.064 430.528 93.288 429.36 93.288ZM429.696 91.56C430.944 91.56 431.864 91.28 432.456 90.72C433.064 90.144 433.368 89.392 433.368 88.464V85.968L434.376 86.784L429.744 87.792C428.992 87.968 428.432 88.192 428.064 88.464C427.712 88.736 427.536 89.184 427.536 89.808C427.536 90.352 427.744 90.784 428.16 91.104C428.576 91.408 429.088 91.56 429.696 91.56ZM447.642 93.12C446.65 93.12 445.842 93.008 445.218 92.784C444.61 92.56 444.154 92.208 443.85 91.728C443.562 91.232 443.418 90.584 443.418 89.784V82.824H440.106V81H443.418V77.664H445.554V81H449.922V82.824H445.554V89.712C445.554 90.272 445.714 90.656 446.034 90.864C446.37 91.072 446.962 91.176 447.81 91.176C448.498 91.176 449.17 91.08 449.826 90.888L449.874 92.88C449.602 92.944 449.258 93 448.842 93.048C448.442 93.096 448.042 93.12 447.642 93.12ZM458.724 93.288C458.02 93.288 457.356 93.16 456.732 92.904C456.124 92.648 455.628 92.264 455.244 91.752C454.876 91.224 454.692 90.584 454.692 89.832C454.692 89.032 454.884 88.384 455.268 87.888C455.668 87.376 456.156 87 456.732 86.76C457.324 86.504 458.004 86.304 458.772 86.16L462.732 85.392C462.732 85.296 462.732 85.208 462.732 85.128C462.732 84.648 462.7 84.264 462.636 83.976C462.588 83.688 462.484 83.432 462.324 83.208C462.148 82.968 461.868 82.776 461.484 82.632C461.1 82.488 460.652 82.416 460.14 82.416C459.1 82.416 458.348 82.624 457.884 83.04C457.436 83.44 457.212 84.096 457.212 85.008L455.1 84.72C455.116 84 455.252 83.384 455.508 82.872C455.764 82.344 456.124 81.92 456.588 81.6C457.02 81.312 457.548 81.096 458.172 80.952C458.796 80.792 459.492 80.712 460.26 80.712C461.268 80.712 462.108 80.864 462.78 81.168C463.452 81.456 463.956 81.896 464.292 82.488C464.644 83.08 464.82 83.808 464.82 84.672V90.408C464.82 90.76 464.852 91 464.916 91.128C464.996 91.256 465.196 91.32 465.516 91.32C465.708 91.32 465.94 91.288 466.212 91.224L466.26 93C465.86 93.064 465.412 93.096 464.916 93.096C464.212 93.096 463.676 92.912 463.308 92.544C462.94 92.176 462.756 91.632 462.756 90.912L463.02 90.576C462.748 91.472 462.252 92.152 461.532 92.616C460.828 93.064 459.892 93.288 458.724 93.288ZM459.06 91.56C460.308 91.56 461.228 91.28 461.82 90.72C462.428 90.144 462.732 89.392 462.732 88.464V85.968L463.74 86.784L459.108 87.792C458.356 87.968 457.796 88.192 457.428 88.464C457.076 88.736 456.9 89.184 456.9 89.808C456.9 90.352 457.108 90.784 457.524 91.104C457.94 91.408 458.452 91.56 459.06 91.56ZM484.272 76.2H489.36C490.528 76.2 491.56 76.32 492.456 76.56C493.368 76.8 494.12 77.296 494.712 78.048C495.32 78.784 495.624 79.864 495.624 81.288C495.624 82.664 495.32 83.712 494.712 84.432C494.104 85.152 493.352 85.624 492.456 85.848C491.56 86.072 490.52 86.184 489.336 86.184H486.432V93H484.272V76.2ZM489.336 84.336C490.168 84.336 490.872 84.28 491.448 84.168C492.024 84.04 492.512 83.752 492.912 83.304C493.312 82.856 493.512 82.184 493.512 81.288C493.512 80.312 493.312 79.592 492.912 79.128C492.528 78.648 492.056 78.352 491.496 78.24C490.936 78.128 490.224 78.072 489.36 78.072H486.432V84.336H489.336ZM503.202 81H505.362V93H503.202V81ZM498.426 91.176H509.754V93H498.426V91.176ZM499.122 81H504.282V82.824H499.122V81ZM502.914 76.152H505.194V78.792H502.914V76.152ZM513.588 81H515.748V83.784L515.364 83.424C515.796 82.528 516.364 81.856 517.068 81.408C517.788 80.944 518.612 80.712 519.54 80.712C520.612 80.712 521.564 80.968 522.396 81.48C523.228 81.976 523.876 82.704 524.34 83.664C524.82 84.608 525.06 85.72 525.06 87C525.06 88.248 524.828 89.352 524.364 90.312C523.916 91.256 523.276 91.992 522.444 92.52C521.628 93.032 520.684 93.288 519.612 93.288C518.636 93.288 517.796 93.088 517.092 92.688C516.388 92.288 515.812 91.664 515.364 90.816L515.748 90.408V97.8H513.588V81ZM519.108 91.56C519.78 91.56 520.34 91.464 520.788 91.272C521.252 91.064 521.628 90.752 521.916 90.336C522.188 89.984 522.38 89.528 522.492 88.968C522.62 88.392 522.684 87.736 522.684 87C522.684 85.48 522.428 84.336 521.916 83.568C521.404 82.8 520.484 82.416 519.156 82.416C518.596 82.416 518.1 82.512 517.668 82.704C517.252 82.88 516.9 83.144 516.612 83.496C516.292 83.88 516.052 84.36 515.892 84.936C515.748 85.512 515.676 86.192 515.676 86.976C515.676 88.336 515.916 89.44 516.396 90.288C516.876 91.136 517.78 91.56 519.108 91.56ZM533.478 93.288C532.55 93.288 531.726 93.144 531.006 92.856C530.286 92.568 529.67 92.128 529.158 91.536C528.662 90.976 528.294 90.32 528.054 89.568C527.814 88.8 527.694 87.936 527.694 86.976C527.694 86.08 527.822 85.256 528.078 84.504C528.334 83.736 528.71 83.072 529.206 82.512C529.734 81.92 530.358 81.472 531.078 81.168C531.798 80.864 532.59 80.712 533.454 80.712C534.43 80.712 535.334 80.92 536.166 81.336C536.998 81.736 537.654 82.32 538.134 83.088C538.502 83.664 538.774 84.36 538.95 85.176C539.126 85.976 539.19 86.8 539.142 87.648H530.046C530.078 88.976 530.374 89.96 530.934 90.6C531.494 91.24 532.334 91.56 533.454 91.56C534.478 91.56 535.27 91.344 535.83 90.912C536.39 90.464 536.742 89.784 536.886 88.872L538.974 89.04C538.718 90.432 538.118 91.488 537.174 92.208C536.246 92.928 535.014 93.288 533.478 93.288ZM529.758 85.896H537.078L536.934 85.968C536.934 85.632 536.87 85.256 536.742 84.84C536.63 84.408 536.478 84.048 536.286 83.76C535.982 83.312 535.598 82.984 535.134 82.776C534.686 82.568 534.134 82.464 533.478 82.464C532.822 82.464 532.246 82.584 531.75 82.824C531.254 83.048 530.886 83.36 530.646 83.76C530.294 84.336 530.102 85.016 530.07 85.8V85.968L529.758 85.896ZM547.344 76.2H549.504V93H547.344V76.2ZM542.568 91.176H553.896V93H542.568V91.176ZM543.36 76.2H548.808V78.024H543.36V76.2ZM561.93 81H564.09V93H561.93V81ZM557.154 91.176H568.482V93H557.154V91.176ZM557.85 81H563.01V82.824H557.85V81ZM561.642 76.152H563.922V78.792H561.642V76.152ZM572.412 81H574.572V83.88L574.332 83.496C574.588 82.584 575.036 81.896 575.676 81.432C576.332 80.952 577.196 80.712 578.268 80.712C579.052 80.712 579.732 80.824 580.308 81.048C580.9 81.256 581.412 81.592 581.844 82.056C582.26 82.488 582.516 83.032 582.612 83.688C582.724 84.328 582.78 85.056 582.78 85.872V93H580.548V85.992C580.548 85.272 580.508 84.712 580.428 84.312C580.348 83.896 580.148 83.528 579.828 83.208C579.524 82.904 579.204 82.712 578.868 82.632C578.532 82.552 578.14 82.512 577.692 82.512C576.908 82.512 576.188 82.784 575.532 83.328C574.892 83.856 574.572 84.872 574.572 86.376V93H572.412V81ZM592.206 93.288C591.278 93.288 590.454 93.144 589.734 92.856C589.014 92.568 588.398 92.128 587.886 91.536C587.39 90.976 587.022 90.32 586.782 89.568C586.542 88.8 586.422 87.936 586.422 86.976C586.422 86.08 586.55 85.256 586.806 84.504C587.062 83.736 587.438 83.072 587.934 82.512C588.462 81.92 589.086 81.472 589.806 81.168C590.526 80.864 591.318 80.712 592.182 80.712C593.158 80.712 594.062 80.92 594.894 81.336C595.726 81.736 596.382 82.32 596.862 83.088C597.23 83.664 597.502 84.36 597.678 85.176C597.854 85.976 597.918 86.8 597.87 87.648H588.774C588.806 88.976 589.102 89.96 589.662 90.6C590.222 91.24 591.062 91.56 592.182 91.56C593.206 91.56 593.998 91.344 594.558 90.912C595.118 90.464 595.47 89.784 595.614 88.872L597.702 89.04C597.446 90.432 596.846 91.488 595.902 92.208C594.974 92.928 593.742 93.288 592.206 93.288ZM588.486 85.896H595.806L595.662 85.968C595.662 85.632 595.598 85.256 595.47 84.84C595.358 84.408 595.206 84.048 595.014 83.76C594.71 83.312 594.326 82.984 593.862 82.776C593.414 82.568 592.862 82.464 592.206 82.464C591.55 82.464 590.974 82.584 590.478 82.824C589.982 83.048 589.614 83.36 589.374 83.76C589.022 84.336 588.83 85.016 588.798 85.8V85.968L588.486 85.896ZM619.938 93.288C618.738 93.288 617.754 93.032 616.986 92.52C616.218 91.992 615.658 91.36 615.306 90.624C614.954 89.872 614.778 89.168 614.778 88.512C614.778 87.664 614.938 86.928 615.258 86.304C615.594 85.664 616.042 85.112 616.602 84.648C617.162 84.184 617.858 83.728 618.69 83.28L619.146 83.04L619.05 84.144C618.826 83.856 618.602 83.576 618.378 83.304C617.77 82.504 617.33 81.824 617.058 81.264C616.802 80.704 616.674 80.104 616.674 79.464C616.674 78.84 616.834 78.256 617.154 77.712C617.49 77.168 617.962 76.736 618.57 76.416C619.178 76.08 619.882 75.912 620.682 75.912C621.45 75.912 622.13 76.056 622.722 76.344C623.33 76.632 623.802 77.048 624.138 77.592C624.49 78.12 624.666 78.752 624.666 79.488C624.666 80.208 624.482 80.872 624.114 81.48C623.746 82.088 623.274 82.616 622.698 83.064C622.138 83.512 621.514 83.912 620.826 84.264L620.778 83.136L624.786 88.272L623.97 87.936C624.146 87.568 624.306 87.08 624.45 86.472C624.61 85.864 624.698 85.296 624.714 84.768L626.778 85.056C626.714 85.936 626.586 86.68 626.394 87.288C626.202 87.88 625.946 88.536 625.626 89.256C625.562 89.4 625.49 89.552 625.41 89.712L624.954 88.488L628.578 93H625.986L623.778 90.216L624.882 90.384C624.274 91.328 623.53 92.048 622.65 92.544C621.786 93.04 620.882 93.288 619.938 93.288ZM620.01 91.416C620.762 91.416 621.442 91.192 622.05 90.744C622.658 90.28 623.194 89.648 623.658 88.848L623.874 90.312L618.978 84.048L620.25 84.456C620.122 84.536 619.994 84.616 619.866 84.696C619.194 85.096 618.674 85.44 618.306 85.728C617.954 86.016 617.658 86.376 617.418 86.808C617.178 87.224 617.058 87.736 617.058 88.344C617.058 88.968 617.194 89.512 617.466 89.976C617.738 90.44 618.098 90.8 618.546 91.056C619.01 91.296 619.498 91.416 620.01 91.416ZM619.842 82.776C619.97 82.68 620.098 82.592 620.226 82.512C620.93 82.064 621.498 81.616 621.93 81.168C622.378 80.704 622.602 80.168 622.602 79.56C622.602 79.048 622.442 78.6 622.122 78.216C621.818 77.832 621.338 77.64 620.682 77.64C620.074 77.64 619.602 77.816 619.266 78.168C618.946 78.504 618.786 78.968 618.786 79.56C618.786 79.848 618.858 80.168 619.002 80.52C619.146 80.856 619.386 81.256 619.722 81.72C620.058 82.184 620.514 82.744 621.09 83.4L619.842 82.776ZM651.15 93.288C649.95 93.288 648.854 93.088 647.862 92.688C646.886 92.272 646.094 91.656 645.486 90.84C644.878 90.008 644.55 88.984 644.502 87.768L646.806 87.528C646.87 88.776 647.286 89.744 648.054 90.432C648.838 91.12 649.846 91.464 651.078 91.464C651.83 91.464 652.502 91.36 653.094 91.152C653.702 90.928 654.19 90.584 654.558 90.12C654.926 89.64 655.11 89.032 655.11 88.296C655.11 87.704 654.942 87.24 654.606 86.904C654.286 86.552 653.878 86.296 653.382 86.136C652.886 85.976 652.214 85.808 651.366 85.632C651.03 85.568 650.606 85.48 650.094 85.368C649.102 85.128 648.246 84.84 647.526 84.504C646.806 84.168 646.206 83.688 645.726 83.064C645.246 82.424 645.006 81.616 645.006 80.64C645.006 79.584 645.278 78.704 645.822 78C646.382 77.28 647.094 76.752 647.958 76.416C648.822 76.08 649.726 75.912 650.67 75.912C652.382 75.912 653.798 76.32 654.918 77.136C656.038 77.952 656.702 79.256 656.91 81.048L654.63 81.456C654.566 80.288 654.19 79.376 653.502 78.72C652.814 78.048 651.902 77.712 650.766 77.712C650.11 77.712 649.51 77.824 648.966 78.048C648.438 78.272 648.014 78.6 647.694 79.032C647.39 79.464 647.238 79.976 647.238 80.568C647.238 81.096 647.398 81.536 647.718 81.888C648.038 82.224 648.454 82.496 648.966 82.704C649.478 82.912 650.086 83.088 650.79 83.232C651.078 83.28 651.366 83.336 651.654 83.4C651.878 83.432 652.03 83.464 652.11 83.496C653.246 83.72 654.182 83.984 654.918 84.288C655.654 84.576 656.246 85.032 656.694 85.656C657.142 86.264 657.366 87.088 657.366 88.128C657.366 89.392 657.062 90.408 656.454 91.176C655.862 91.944 655.102 92.488 654.174 92.808C653.246 93.128 652.238 93.288 651.15 93.288ZM667.872 93.12C666.88 93.12 666.072 93.008 665.448 92.784C664.84 92.56 664.384 92.208 664.08 91.728C663.792 91.232 663.648 90.584 663.648 89.784V82.824H660.336V81H663.648V77.664H665.784V81H670.152V82.824H665.784V89.712C665.784 90.272 665.944 90.656 666.264 90.864C666.6 91.072 667.192 91.176 668.04 91.176C668.728 91.176 669.4 91.08 670.056 90.888L670.104 92.88C669.832 92.944 669.488 93 669.072 93.048C668.672 93.096 668.272 93.12 667.872 93.12ZM680.249 93.288C679.017 93.288 677.945 93.04 677.033 92.544C676.137 92.032 675.449 91.304 674.969 90.36C674.489 89.416 674.249 88.296 674.249 87C674.249 85.784 674.489 84.704 674.969 83.76C675.465 82.8 676.161 82.056 677.057 81.528C677.969 80.984 679.033 80.712 680.249 80.712C681.449 80.712 682.497 80.984 683.393 81.528C684.305 82.056 685.001 82.8 685.481 83.76C685.977 84.72 686.225 85.8 686.225 87C686.225 88.248 685.977 89.352 685.481 90.312C684.985 91.256 684.281 91.992 683.369 92.52C682.473 93.032 681.433 93.288 680.249 93.288ZM680.249 91.584C681.433 91.584 682.321 91.248 682.913 90.576C683.249 90.192 683.497 89.704 683.657 89.112C683.817 88.52 683.897 87.824 683.897 87.024V87C683.897 86.184 683.817 85.48 683.657 84.888C683.497 84.28 683.241 83.784 682.889 83.4C682.585 83.08 682.217 82.84 681.785 82.68C681.353 82.504 680.841 82.416 680.249 82.416C679.081 82.416 678.209 82.72 677.633 83.328C677.265 83.712 676.993 84.216 676.817 84.84C676.657 85.448 676.577 86.168 676.577 87C676.577 87.832 676.657 88.56 676.817 89.184C676.993 89.792 677.265 90.288 677.633 90.672C678.209 91.28 679.081 91.584 680.249 91.584ZM691.859 81H694.019V84.168L693.875 84.024C693.955 83.4 694.211 82.856 694.643 82.392C695.091 81.928 695.667 81.56 696.371 81.288C697.075 81.016 697.867 80.832 698.747 80.736C698.907 80.72 699.291 80.712 699.899 80.712L699.851 82.752C699.691 82.736 699.379 82.728 698.915 82.728C697.939 82.728 697.091 82.872 696.371 83.16C695.651 83.448 695.075 83.96 694.643 84.696C694.227 85.432 694.019 86.44 694.019 87.72V93H691.859V81ZM708.317 93.288C707.613 93.288 706.949 93.16 706.325 92.904C705.717 92.648 705.221 92.264 704.837 91.752C704.469 91.224 704.285 90.584 704.285 89.832C704.285 89.032 704.477 88.384 704.861 87.888C705.261 87.376 705.749 87 706.325 86.76C706.917 86.504 707.597 86.304 708.365 86.16L712.325 85.392C712.325 85.296 712.325 85.208 712.325 85.128C712.325 84.648 712.293 84.264 712.229 83.976C712.181 83.688 712.077 83.432 711.917 83.208C711.741 82.968 711.461 82.776 711.077 82.632C710.693 82.488 710.245 82.416 709.733 82.416C708.693 82.416 707.941 82.624 707.477 83.04C707.029 83.44 706.805 84.096 706.805 85.008L704.693 84.72C704.709 84 704.845 83.384 705.101 82.872C705.357 82.344 705.717 81.92 706.181 81.6C706.613 81.312 707.141 81.096 707.765 80.952C708.389 80.792 709.085 80.712 709.853 80.712C710.861 80.712 711.701 80.864 712.373 81.168C713.045 81.456 713.549 81.896 713.885 82.488C714.237 83.08 714.413 83.808 714.413 84.672V90.408C714.413 90.76 714.445 91 714.509 91.128C714.589 91.256 714.789 91.32 715.109 91.32C715.301 91.32 715.533 91.288 715.805 91.224L715.853 93C715.453 93.064 715.005 93.096 714.509 93.096C713.805 93.096 713.269 92.912 712.901 92.544C712.533 92.176 712.349 91.632 712.349 90.912L712.613 90.576C712.341 91.472 711.845 92.152 711.125 92.616C710.421 93.064 709.485 93.288 708.317 93.288ZM708.653 91.56C709.901 91.56 710.821 91.28 711.413 90.72C712.021 90.144 712.325 89.392 712.325 88.464V85.968L713.333 86.784L708.701 87.792C707.949 87.968 707.389 88.192 707.021 88.464C706.669 88.736 706.493 89.184 706.493 89.808C706.493 90.352 706.701 90.784 707.117 91.104C707.533 91.408 708.045 91.56 708.653 91.56ZM724.031 97.92C722.671 97.92 721.487 97.592 720.479 96.936C719.487 96.28 718.967 95.256 718.919 93.864L720.983 93.72C721.031 94.664 721.327 95.32 721.871 95.688C722.431 96.056 723.231 96.24 724.271 96.24C725.279 96.24 726.087 95.944 726.695 95.352C727.319 94.76 727.631 93.936 727.631 92.88V89.808L728.015 90.168C727.711 90.776 727.351 91.288 726.935 91.704C726.535 92.104 726.079 92.408 725.567 92.616C725.055 92.808 724.479 92.904 723.839 92.904C722.751 92.904 721.791 92.648 720.959 92.136C720.127 91.624 719.479 90.896 719.015 89.952C718.567 89.008 718.343 87.92 718.343 86.688C718.343 85.52 718.567 84.488 719.015 83.592C719.479 82.68 720.119 81.976 720.935 81.48C721.767 80.968 722.711 80.712 723.767 80.712C724.775 80.712 725.623 80.928 726.311 81.36C726.999 81.792 727.559 82.44 727.991 83.304L727.631 83.712V81H729.791V92.736C729.791 94.336 729.271 95.6 728.231 96.528C727.207 97.456 725.807 97.92 724.031 97.92ZM724.175 91.176C724.719 91.176 725.191 91.096 725.591 90.936C726.007 90.76 726.359 90.512 726.647 90.192C727.015 89.776 727.287 89.264 727.463 88.656C727.639 88.048 727.727 87.392 727.727 86.688C727.727 85.28 727.423 84.224 726.815 83.52C726.223 82.8 725.359 82.44 724.223 82.44C723.615 82.44 723.095 82.528 722.663 82.704C722.231 82.864 721.879 83.104 721.607 83.424C721.287 83.776 721.055 84.224 720.911 84.768C720.767 85.312 720.695 85.952 720.695 86.688C720.695 87.68 720.799 88.504 721.007 89.16C721.215 89.8 721.567 90.296 722.063 90.648C722.575 91 723.279 91.176 724.175 91.176ZM739.025 93.288C738.097 93.288 737.273 93.144 736.553 92.856C735.833 92.568 735.217 92.128 734.705 91.536C734.209 90.976 733.841 90.32 733.601 89.568C733.361 88.8 733.241 87.936 733.241 86.976C733.241 86.08 733.369 85.256 733.625 84.504C733.881 83.736 734.257 83.072 734.753 82.512C735.281 81.92 735.905 81.472 736.625 81.168C737.345 80.864 738.137 80.712 739.001 80.712C739.977 80.712 740.881 80.92 741.713 81.336C742.545 81.736 743.201 82.32 743.681 83.088C744.049 83.664 744.321 84.36 744.497 85.176C744.673 85.976 744.737 86.8 744.689 87.648H735.593C735.625 88.976 735.921 89.96 736.481 90.6C737.041 91.24 737.881 91.56 739.001 91.56C740.025 91.56 740.817 91.344 741.377 90.912C741.937 90.464 742.289 89.784 742.433 88.872L744.521 89.04C744.265 90.432 743.665 91.488 742.721 92.208C741.793 92.928 740.561 93.288 739.025 93.288ZM735.305 85.896H742.625L742.481 85.968C742.481 85.632 742.417 85.256 742.289 84.84C742.177 84.408 742.025 84.048 741.833 83.76C741.529 83.312 741.145 82.984 740.681 82.776C740.233 82.568 739.681 82.464 739.025 82.464C738.369 82.464 737.793 82.584 737.297 82.824C736.801 83.048 736.433 83.36 736.193 83.76C735.841 84.336 735.649 85.016 735.617 85.8V85.968L735.305 85.896Z" fill="white"/>
</svg>
