<svg width="537" height="549" viewBox="0 0 537 549" fill="none" xmlns="http://www.w3.org/2000/svg">
<rect width="537" height="549" fill="black"/>
<rect width="537" height="549" fill="black"/>
<path d="M21.55 39V25.928H25.9571C26.9157 25.928 27.7623 26.0214 28.4968 26.2081C29.2437 26.3949 29.8662 26.7808 30.3642 27.366C30.8622 27.9511 31.1112 28.7914 31.1112 29.887C31.1112 30.9576 30.8622 31.7731 30.3642 32.3333C29.8662 32.8935 29.2437 33.2608 28.4968 33.4351C27.7498 33.6094 26.897 33.6965 25.9384 33.6965H23.2306V39H21.55ZM25.9384 32.2586C26.6356 32.2586 27.2269 32.215 27.7125 32.1279C28.198 32.0283 28.6088 31.8042 28.945 31.4556C29.2935 31.107 29.4678 30.5841 29.4678 29.887C29.4678 29.1276 29.2998 28.5673 28.9636 28.2063C28.6275 27.8328 28.2167 27.6025 27.7311 27.5153C27.2581 27.4282 26.6667 27.3846 25.9571 27.3846H23.2306V32.2586H25.9384ZM32.7376 39V29.6629H34.4183V32.1279L34.3622 31.717C34.3498 31.3685 34.4681 31.0323 34.717 30.7086C34.9785 30.3725 35.3333 30.0924 35.7815 29.8683C36.2421 29.6318 36.7525 29.4948 37.3128 29.4575C37.375 29.445 37.4497 29.4388 37.5369 29.4388C37.6365 29.4388 37.7298 29.4388 37.817 29.4388C37.8419 29.4388 37.8605 29.4388 37.873 29.4388C37.8979 29.4388 37.9228 29.4388 37.9477 29.4388L37.9103 31.0261C37.8356 31.0137 37.6925 31.0074 37.4808 31.0074C36.821 31.0074 36.2732 31.1008 35.8375 31.2875C35.4018 31.4743 35.0532 31.8291 34.7917 32.352C34.5428 32.8749 34.4183 33.6156 34.4183 34.5742V39H32.7376ZM42.9712 39.2241C42.0126 39.2241 41.1785 39.0311 40.4689 38.6452C39.7717 38.2468 39.2364 37.6804 38.8629 36.9458C38.4894 36.2113 38.3026 35.3398 38.3026 34.3314C38.3026 33.3853 38.4894 32.5449 38.8629 31.8104C39.2488 31.0634 39.7904 30.4845 40.4875 30.0737C41.1972 29.6504 42.025 29.4388 42.9712 29.4388C43.9049 29.4388 44.7204 29.6504 45.4175 30.0737C46.1272 30.4845 46.6687 31.0634 47.0422 31.8104C47.4281 32.5574 47.6211 33.3977 47.6211 34.3314C47.6211 35.3025 47.4281 36.1615 47.0422 36.9085C46.6563 37.643 46.1085 38.2157 45.3989 38.6265C44.7017 39.0249 43.8925 39.2241 42.9712 39.2241ZM42.9712 37.8982C43.8925 37.8982 44.5834 37.6368 45.044 37.1139C45.3055 36.8151 45.4985 36.4354 45.6229 35.9748C45.7474 35.5017 45.8097 34.9539 45.8097 34.3314C45.8097 33.0367 45.5483 32.103 45.0254 31.5303C44.5523 31.0199 43.8676 30.7647 42.9712 30.7647C42.5106 30.7647 42.1122 30.8269 41.7761 30.9514C41.4399 31.0634 41.1598 31.2377 40.9357 31.4743C40.6494 31.7731 40.4377 32.1652 40.3008 32.6508C40.1763 33.1238 40.114 33.6841 40.114 34.3314C40.114 34.9788 40.1763 35.5453 40.3008 36.0308C40.4377 36.5039 40.6494 36.8898 40.9357 37.1886C41.3839 37.6617 42.0624 37.8982 42.9712 37.8982ZM53.1914 39.2241C52.3573 39.2241 51.6165 39.0311 50.9692 38.6452C50.3218 38.2468 49.8114 37.6804 49.4379 36.9458C49.0769 36.1989 48.8963 35.3274 48.8963 34.3314C48.8963 33.3604 49.0706 32.5076 49.4192 31.7731C49.7802 31.0261 50.2782 30.4534 50.9132 30.055C51.5605 29.6442 52.3013 29.4388 53.1354 29.4388C53.8948 29.4388 54.5484 29.5944 55.0962 29.9056C55.644 30.2169 56.0921 30.7024 56.4407 31.3622L56.1419 31.6797V25.928H57.8226V39H56.1419V36.8338L56.4407 37.1139C56.1046 37.8111 55.6564 38.3402 55.0962 38.7012C54.5484 39.0498 53.9135 39.2241 53.1914 39.2241ZM53.4902 37.8982C53.8761 37.8982 54.2185 37.8422 54.5173 37.7302C54.8285 37.6181 55.0962 37.45 55.3203 37.2259C55.6066 36.9396 55.8245 36.5537 55.9739 36.0681C56.1233 35.5826 56.198 35.0099 56.198 34.3501C56.198 33.2919 56.0112 32.4329 55.6377 31.7731C55.2643 31.1132 54.5609 30.7833 53.5275 30.7833C53.0545 30.7833 52.6499 30.8518 52.3137 30.9888C51.9776 31.1132 51.6975 31.3062 51.4734 31.5677C51.2244 31.8664 51.0376 32.2462 50.9132 32.7068C50.8011 33.1674 50.7451 33.709 50.7451 34.3314C50.7451 35.1033 50.826 35.7507 50.9879 36.2736C51.1497 36.7964 51.4298 37.201 51.8282 37.4874C52.2266 37.7613 52.7806 37.8982 53.4902 37.8982ZM63.6127 39.2241C63.0026 39.2241 62.4735 39.1432 62.0253 38.9813C61.5772 38.807 61.185 38.5394 60.8489 38.1783C60.5252 37.8422 60.3198 37.4376 60.2326 36.9645C60.1455 36.4914 60.1019 35.9188 60.1019 35.2465V29.6629H61.8386V35.1531C61.8386 35.1656 61.8386 35.178 61.8386 35.1905C61.8386 35.2029 61.8386 35.2154 61.8386 35.2278C61.8386 35.7507 61.8697 36.1677 61.932 36.479C61.9942 36.7778 62.1436 37.0454 62.3802 37.282C62.6167 37.5185 62.8657 37.6679 63.1271 37.7302C63.401 37.7924 63.7185 37.8235 64.0795 37.8235C64.7144 37.8235 65.2747 37.6368 65.7602 37.2633C66.2457 36.8774 66.4885 36.093 66.4885 34.9103V29.6629H68.1692V39H66.4885V36.7964L66.6752 37.0766C66.4885 37.7613 66.1212 38.2904 65.5734 38.6639C65.0381 39.0373 64.3845 39.2241 63.6127 39.2241ZM74.6042 39.2241C73.658 39.2241 72.8364 39.0311 72.1392 38.6452C71.442 38.2468 70.9067 37.6804 70.5332 36.9458C70.1597 36.2113 69.973 35.3398 69.973 34.3314C69.973 33.3728 70.1597 32.5263 70.5332 31.7917C70.9067 31.0448 71.442 30.4659 72.1392 30.055C72.8488 29.6442 73.6705 29.4388 74.6042 29.4388C75.7371 29.4388 76.6521 29.7376 77.3493 30.3352C78.0465 30.9203 78.4947 31.6859 78.6938 32.6321L77.1252 32.9309C76.9509 32.2835 76.677 31.7668 76.3035 31.3809C75.9301 30.9825 75.3636 30.7833 74.6042 30.7833C74.0813 30.7833 73.6456 30.858 73.297 31.0074C72.9484 31.1568 72.6621 31.3747 72.438 31.661C72.2139 31.9598 72.052 32.3333 71.9525 32.7815C71.8653 33.2297 71.8217 33.7463 71.8217 34.3314C71.8217 35.4892 72.0209 36.3732 72.4193 36.9832C72.8177 37.5808 73.546 37.8795 74.6042 37.8795C75.3263 37.8795 75.8865 37.7302 76.2849 37.4314C76.6833 37.1326 76.9696 36.647 77.1439 35.9748L78.7312 36.1428C78.6192 36.7653 78.3702 37.3131 77.9842 37.7862C77.6107 38.2468 77.1314 38.6016 76.5463 38.8506C75.9736 39.0996 75.3263 39.2241 74.6042 39.2241ZM83.3858 39.0934C82.5143 39.0934 81.8794 38.9191 81.481 38.5705C81.0826 38.2219 80.8834 37.6679 80.8834 36.9085V31.0635H79.5389V29.6629H80.8834V27.0672H82.5454V29.6629H84.4502V31.0635H82.5454V36.8525C82.5454 37.1513 82.6139 37.3504 82.7508 37.45C82.9002 37.5372 83.1554 37.5808 83.5165 37.5808C83.753 37.5808 84.0393 37.5496 84.3755 37.4874L84.4128 39C84.0767 39.0622 83.7343 39.0934 83.3858 39.0934ZM85.9934 27.9075V25.928H87.6741V27.9075H85.9934ZM85.9934 39V29.6629H87.6741V39H85.9934ZM85.9934 39V37.5808H87.6741V39H85.9934ZM85.9934 31.0821V29.6629H87.6741V31.0821H85.9934ZM94.1481 39.2241C93.1895 39.2241 92.3554 39.0311 91.6457 38.6452C90.9486 38.2468 90.4132 37.6804 90.0398 36.9458C89.6663 36.2113 89.4795 35.3398 89.4795 34.3314C89.4795 33.3853 89.6663 32.5449 90.0398 31.8104C90.4257 31.0634 90.9672 30.4845 91.6644 30.0737C92.374 29.6504 93.2019 29.4388 94.1481 29.4388C95.0818 29.4388 95.8972 29.6504 96.5944 30.0737C97.304 30.4845 97.8456 31.0634 98.2191 31.8104C98.605 32.5574 98.798 33.3977 98.798 34.3314C98.798 35.3025 98.605 36.1615 98.2191 36.9085C97.8331 37.643 97.2854 38.2157 96.5757 38.6265C95.8786 39.0249 95.0694 39.2241 94.1481 39.2241ZM94.1481 37.8982C95.0694 37.8982 95.7603 37.6368 96.2209 37.1139C96.4824 36.8151 96.6753 36.4354 96.7998 35.9748C96.9243 35.5017 96.9866 34.9539 96.9866 34.3314C96.9866 33.0367 96.7251 32.103 96.2023 31.5303C95.7292 31.0199 95.0445 30.7647 94.1481 30.7647C93.6875 30.7647 93.2891 30.8269 92.9529 30.9514C92.6168 31.0634 92.3367 31.2377 92.1126 31.4743C91.8263 31.7731 91.6146 32.1652 91.4777 32.6508C91.3532 33.1238 91.2909 33.6841 91.2909 34.3314C91.2909 34.9788 91.3532 35.5453 91.4777 36.0308C91.6146 36.5039 91.8263 36.8898 92.1126 37.1886C92.5608 37.6617 93.2393 37.8982 94.1481 37.8982ZM100.615 39V29.6629H102.295V31.9038L102.109 31.605C102.308 30.8954 102.656 30.3601 103.154 29.999C103.665 29.6255 104.337 29.4388 105.171 29.4388C105.781 29.4388 106.31 29.5259 106.759 29.7002C107.219 29.8621 107.618 30.1235 107.954 30.4845C108.265 30.8207 108.464 31.2315 108.551 31.717C108.638 32.1901 108.682 32.769 108.682 33.4538V39H106.945V33.5471C106.945 33.5347 106.945 33.5222 106.945 33.5098C106.945 33.4973 106.945 33.4849 106.945 33.4724C106.945 32.9371 106.914 32.5138 106.852 32.2026C106.79 31.8913 106.634 31.6175 106.385 31.3809C106.149 31.1444 105.9 30.995 105.638 30.9327C105.377 30.8705 105.072 30.8394 104.723 30.8394C104.113 30.8394 103.553 31.051 103.042 31.4743C102.544 31.8851 102.295 32.6757 102.295 33.8459V39H100.615ZM113.33 39L118.446 25.928H120.239L125.337 39H123.563L120.071 29.6629C120.021 29.5384 119.972 29.4139 119.922 29.2894C119.884 29.1649 119.841 29.0404 119.791 28.9159C119.704 28.6669 119.623 28.4304 119.548 28.2063C119.474 27.9698 119.399 27.7519 119.324 27.5527H119.305C119.243 27.7394 119.181 27.9262 119.119 28.1129C119.057 28.2872 118.994 28.4677 118.932 28.6545C118.87 28.8163 118.808 28.9844 118.745 29.1587C118.695 29.3205 118.639 29.4886 118.577 29.6629L115.122 39H113.33ZM115.72 35.0971L116.262 33.6031H122.405L122.947 35.0971H115.72ZM126.541 39V29.6629H128.221V32.1279L128.165 31.717C128.153 31.3685 128.271 31.0323 128.52 30.7086C128.781 30.3725 129.136 30.0924 129.584 29.8683C130.045 29.6318 130.556 29.4948 131.116 29.4575C131.178 29.445 131.253 29.4388 131.34 29.4388C131.439 29.4388 131.533 29.4388 131.62 29.4388C131.645 29.4388 131.664 29.4388 131.676 29.4388C131.701 29.4388 131.726 29.4388 131.751 29.4388L131.713 31.0261C131.639 31.0137 131.495 31.0074 131.284 31.0074C130.624 31.0074 130.076 31.1008 129.641 31.2875C129.205 31.4743 128.856 31.8291 128.595 32.352C128.346 32.8749 128.221 33.6156 128.221 34.5742V39H126.541ZM136.737 39.2241C135.791 39.2241 134.969 39.0311 134.272 38.6452C133.575 38.2468 133.039 37.6804 132.666 36.9458C132.292 36.2113 132.106 35.3398 132.106 34.3314C132.106 33.3728 132.292 32.5263 132.666 31.7917C133.039 31.0448 133.575 30.4659 134.272 30.055C134.981 29.6442 135.803 29.4388 136.737 29.4388C137.87 29.4388 138.785 29.7376 139.482 30.3352C140.179 30.9203 140.627 31.6859 140.827 32.6321L139.258 32.9309C139.084 32.2835 138.81 31.7668 138.436 31.3809C138.063 30.9825 137.496 30.7833 136.737 30.7833C136.214 30.7833 135.778 30.858 135.43 31.0074C135.081 31.1568 134.795 31.3747 134.571 31.661C134.347 31.9598 134.185 32.3333 134.085 32.7815C133.998 33.2297 133.954 33.7463 133.954 34.3314C133.954 35.4892 134.154 36.3732 134.552 36.9832C134.95 37.5808 135.679 37.8795 136.737 37.8795C137.459 37.8795 138.019 37.7302 138.418 37.4314C138.816 37.1326 139.102 36.647 139.277 35.9748L140.864 36.1428C140.752 36.7653 140.503 37.3131 140.117 37.7862C139.743 38.2468 139.264 38.6016 138.679 38.8506C138.106 39.0996 137.459 39.2241 136.737 39.2241ZM142.493 39V25.928H144.174V31.8664L143.968 31.6237C144.168 30.8892 144.535 30.3414 145.07 29.9803C145.606 29.6193 146.265 29.4388 147.05 29.4388C147.66 29.4388 148.189 29.5259 148.637 29.7002C149.098 29.8621 149.496 30.1235 149.832 30.4845C150.143 30.8207 150.343 31.2253 150.43 31.6984C150.517 32.1715 150.56 32.7441 150.56 33.4164V39H148.824V33.5098C148.824 33.4973 148.824 33.4849 148.824 33.4724C148.824 33.46 148.824 33.4475 148.824 33.4351C148.824 32.8997 148.793 32.4827 148.73 32.1839C148.668 31.8851 148.513 31.6175 148.264 31.3809C148.027 31.1444 147.778 30.995 147.517 30.9327C147.255 30.8705 146.95 30.8394 146.602 30.8394C145.967 30.8394 145.4 31.0323 144.902 31.4183C144.417 31.7917 144.174 32.5698 144.174 33.7525V39H142.493ZM152.831 27.9075V25.928H154.512V27.9075H152.831ZM152.831 39V29.6629H154.512V39H152.831ZM152.831 39V37.5808H154.512V39H152.831ZM152.831 31.0821V29.6629H154.512V31.0821H152.831ZM159.903 39.0934C159.031 39.0934 158.396 38.9191 157.998 38.5705C157.6 38.2219 157.4 37.6679 157.4 36.9085V31.0635H156.056V29.6629H157.4V27.0672H159.062V29.6629H160.967V31.0635H159.062V36.8525C159.062 37.1513 159.131 37.3504 159.268 37.45C159.417 37.5372 159.672 37.5808 160.033 37.5808C160.27 37.5808 160.556 37.5496 160.892 37.4874L160.93 39C160.594 39.0622 160.251 39.0934 159.903 39.0934ZM166.342 39.2241C165.62 39.2241 164.978 39.112 164.418 38.888C163.858 38.6639 163.379 38.3215 162.98 37.8609C162.594 37.4251 162.308 36.9147 162.121 36.3296C161.935 35.732 161.841 35.0597 161.841 34.3128C161.841 33.6156 161.941 32.9744 162.14 32.3893C162.339 31.7917 162.632 31.2751 163.018 30.8394C163.428 30.3787 163.914 30.0301 164.474 29.7936C165.034 29.5571 165.651 29.4388 166.323 29.4388C167.082 29.4388 167.786 29.6006 168.433 29.9243C169.081 30.2356 169.591 30.69 169.964 31.2875C170.251 31.7357 170.462 32.2773 170.599 32.9122C170.736 33.5347 170.786 34.1758 170.749 34.8356H163.671C163.696 35.869 163.926 36.6346 164.362 37.1326C164.798 37.6306 165.452 37.8795 166.323 37.8795C167.12 37.8795 167.736 37.7115 168.172 37.3753C168.607 37.0268 168.881 36.4977 168.993 35.788L170.618 35.9188C170.419 37.0019 169.952 37.8235 169.217 38.3838C168.495 38.944 167.537 39.2241 166.342 39.2241ZM163.69 33.5284L163.447 33.4724H169.143L169.031 33.5284C169.031 33.267 168.981 32.9744 168.881 32.6508C168.794 32.3146 168.676 32.0345 168.527 31.8104C168.29 31.4618 167.991 31.2066 167.63 31.0448C167.282 30.8829 166.852 30.802 166.342 30.802C165.831 30.802 165.383 30.8954 164.997 31.0821C164.611 31.2564 164.325 31.4992 164.138 31.8104C163.864 32.2586 163.715 32.7877 163.69 33.3977V33.5284ZM176.628 39.2241C175.681 39.2241 174.86 39.0311 174.163 38.6452C173.465 38.2468 172.93 37.6804 172.557 36.9458C172.183 36.2113 171.996 35.3398 171.996 34.3314C171.996 33.3728 172.183 32.5263 172.557 31.7917C172.93 31.0448 173.465 30.4659 174.163 30.055C174.872 29.6442 175.694 29.4388 176.628 29.4388C177.76 29.4388 178.675 29.7376 179.373 30.3352C180.07 30.9203 180.518 31.6859 180.717 32.6321L179.149 32.9309C178.974 32.2835 178.7 31.7668 178.327 31.3809C177.953 30.9825 177.387 30.7833 176.628 30.7833C176.105 30.7833 175.669 30.858 175.32 31.0074C174.972 31.1568 174.685 31.3747 174.461 31.661C174.237 31.9598 174.075 32.3333 173.976 32.7815C173.889 33.2297 173.845 33.7463 173.845 34.3314C173.845 35.4892 174.044 36.3732 174.443 36.9832C174.841 37.5808 175.569 37.8795 176.628 37.8795C177.35 37.8795 177.91 37.7302 178.308 37.4314C178.707 37.1326 178.993 36.647 179.167 35.9748L180.755 36.1428C180.642 36.7653 180.393 37.3131 180.008 37.7862C179.634 38.2468 179.155 38.6016 178.57 38.8506C177.997 39.0996 177.35 39.2241 176.628 39.2241ZM185.409 39.0934C184.538 39.0934 183.903 38.9191 183.504 38.5705C183.106 38.2219 182.907 37.6679 182.907 36.9085V31.0635H181.562V29.6629H182.907V27.0672H184.569V29.6629H186.474V31.0635H184.569V36.8525C184.569 37.1513 184.637 37.3504 184.774 37.45C184.924 37.5372 185.179 37.5808 185.54 37.5808C185.776 37.5808 186.063 37.5496 186.399 37.4874L186.436 39C186.1 39.0622 185.758 39.0934 185.409 39.0934ZM191.434 39.2241C190.824 39.2241 190.295 39.1432 189.847 38.9813C189.399 38.807 189.006 38.5394 188.67 38.1783C188.347 37.8422 188.141 37.4376 188.054 36.9645C187.967 36.4914 187.923 35.9188 187.923 35.2465V29.6629H189.66V35.1531C189.66 35.1656 189.66 35.178 189.66 35.1905C189.66 35.2029 189.66 35.2154 189.66 35.2278C189.66 35.7507 189.691 36.1677 189.753 36.479C189.816 36.7778 189.965 37.0454 190.202 37.282C190.438 37.5185 190.687 37.6679 190.949 37.7302C191.222 37.7924 191.54 37.8235 191.901 37.8235C192.536 37.8235 193.096 37.6368 193.582 37.2633C194.067 36.8774 194.31 36.093 194.31 34.9103V29.6629H195.991V39H194.31V36.7964L194.497 37.0766C194.31 37.7613 193.943 38.2904 193.395 38.6639C192.86 39.0373 192.206 39.2241 191.434 39.2241ZM198.355 39V29.6629H200.035V32.1279L199.979 31.717C199.967 31.3685 200.085 31.0323 200.334 30.7086C200.596 30.3725 200.95 30.0924 201.399 29.8683C201.859 29.6318 202.37 29.4948 202.93 29.4575C202.992 29.445 203.067 29.4388 203.154 29.4388C203.254 29.4388 203.347 29.4388 203.434 29.4388C203.459 29.4388 203.478 29.4388 203.49 29.4388C203.515 29.4388 203.54 29.4388 203.565 29.4388L203.527 31.0261C203.453 31.0137 203.31 31.0074 203.098 31.0074C202.438 31.0074 201.89 31.1008 201.455 31.2875C201.019 31.4743 200.67 31.8291 200.409 32.352C200.16 32.8749 200.035 33.6156 200.035 34.5742V39H198.355ZM208.439 39.2241C207.717 39.2241 207.076 39.112 206.515 38.888C205.955 38.6639 205.476 38.3215 205.078 37.8609C204.692 37.4251 204.405 36.9147 204.219 36.3296C204.032 35.732 203.938 35.0597 203.938 34.3128C203.938 33.6156 204.038 32.9744 204.237 32.3893C204.436 31.7917 204.729 31.2751 205.115 30.8394C205.526 30.3787 206.011 30.0301 206.571 29.7936C207.132 29.5571 207.748 29.4388 208.42 29.4388C209.18 29.4388 209.883 29.6006 210.53 29.9243C211.178 30.2356 211.688 30.69 212.062 31.2875C212.348 31.7357 212.56 32.2773 212.697 32.9122C212.834 33.5347 212.883 34.1758 212.846 34.8356H205.769C205.793 35.869 206.024 36.6346 206.459 37.1326C206.895 37.6306 207.549 37.8795 208.42 37.8795C209.217 37.8795 209.833 37.7115 210.269 37.3753C210.705 37.0268 210.979 36.4977 211.091 35.788L212.715 35.9188C212.516 37.0019 212.049 37.8235 211.315 38.3838C210.593 38.944 209.634 39.2241 208.439 39.2241ZM205.787 33.5284L205.544 33.4724H211.24L211.128 33.5284C211.128 33.267 211.078 32.9744 210.979 32.6508C210.891 32.3146 210.773 32.0345 210.624 31.8104C210.387 31.4618 210.088 31.2066 209.727 31.0448C209.379 30.8829 208.949 30.802 208.439 30.802C207.928 30.802 207.48 30.8954 207.094 31.0821C206.708 31.2564 206.422 31.4992 206.235 31.8104C205.961 32.2586 205.812 32.7877 205.787 33.3977V33.5284Z" fill="white"/>
<rect x="20" y="66" width="497" height="221.5" rx="20" fill="white" fill-opacity="0.1"/>
<path d="M40.2238 103.674V90.6019H42.6701L45.4339 97.9969C45.5584 98.3205 45.6767 98.638 45.7887 98.9492C45.9008 99.2605 46.0066 99.5593 46.1062 99.8456C46.2431 100.219 46.3676 100.568 46.4797 100.891C46.5917 101.215 46.6913 101.514 46.7784 101.788H46.7971C46.8718 101.564 46.9527 101.315 47.0399 101.041C47.1395 100.754 47.2453 100.449 47.3573 100.126C47.4818 99.7771 47.6063 99.4223 47.7308 99.0613C47.8553 98.7003 47.986 98.3454 48.123 97.9969L50.8868 90.6019H53.3331V103.674H51.6711V95.7746C51.6711 94.9654 51.7022 93.9695 51.7645 92.7867H51.7458C51.5964 93.2225 51.4532 93.6271 51.3163 94.0006C51.1918 94.3741 51.0735 94.7102 50.9615 95.009C50.9117 95.1459 50.8619 95.2829 50.8121 95.4198C50.7623 95.5443 50.7187 95.6626 50.6814 95.7746L47.6375 103.674H45.9194L42.8755 95.7746C42.8008 95.6003 42.7261 95.4074 42.6514 95.1957C42.5767 94.9716 42.4958 94.7351 42.4087 94.4861C42.3091 94.2122 42.2095 93.9321 42.1099 93.6458C42.0103 93.3594 41.9107 93.0731 41.8111 92.7867H41.7924C41.8049 93.0357 41.8111 93.2972 41.8111 93.5711C41.8235 93.8325 41.836 94.0939 41.8484 94.3554C41.8733 95.202 41.8858 95.675 41.8858 95.7746V103.674H40.2238ZM60.0059 103.898C59.0473 103.898 58.2132 103.705 57.5036 103.319C56.8064 102.921 56.2711 102.354 55.8976 101.62C55.5241 100.885 55.3374 100.014 55.3374 99.0053C55.3374 98.0591 55.5241 97.2188 55.8976 96.4842C56.2835 95.7373 56.8251 95.1584 57.5223 94.7475C58.2319 94.3243 59.0598 94.1126 60.0059 94.1126C60.9396 94.1126 61.7551 94.3243 62.4523 94.7475C63.1619 95.1584 63.7034 95.7373 64.0769 96.4842C64.4628 97.2312 64.6558 98.0716 64.6558 99.0053C64.6558 99.9763 64.4628 100.835 64.0769 101.582C63.691 102.317 63.1432 102.89 62.4336 103.3C61.7364 103.699 60.9272 103.898 60.0059 103.898ZM60.0059 102.572C60.9272 102.572 61.6181 102.311 62.0788 101.788C62.3402 101.489 62.5332 101.109 62.6577 100.649C62.7822 100.176 62.8444 99.6277 62.8444 99.0053C62.8444 97.7105 62.583 96.7768 62.0601 96.2041C61.587 95.6937 60.9023 95.4385 60.0059 95.4385C59.5453 95.4385 59.1469 95.5007 58.8108 95.6252C58.4746 95.7373 58.1945 95.9116 57.9704 96.1481C57.6841 96.4469 57.4725 96.8391 57.3355 97.3246C57.211 97.7977 57.1488 98.3579 57.1488 99.0053C57.1488 99.6526 57.211 100.219 57.3355 100.705C57.4725 101.178 57.6841 101.564 57.9704 101.862C58.4186 102.336 59.0971 102.572 60.0059 102.572ZM70.5809 103.898C69.6223 103.898 68.7882 103.705 68.0786 103.319C67.3814 102.921 66.8461 102.354 66.4726 101.62C66.0991 100.885 65.9124 100.014 65.9124 99.0053C65.9124 98.0591 66.0991 97.2188 66.4726 96.4842C66.8585 95.7373 67.4001 95.1584 68.0973 94.7475C68.8069 94.3243 69.6348 94.1126 70.5809 94.1126C71.5147 94.1126 72.3301 94.3243 73.0273 94.7475C73.7369 95.1584 74.2784 95.7373 74.6519 96.4842C75.0379 97.2312 75.2308 98.0716 75.2308 99.0053C75.2308 99.9763 75.0379 100.835 74.6519 101.582C74.266 102.317 73.7182 102.89 73.0086 103.3C72.3114 103.699 71.5022 103.898 70.5809 103.898ZM70.5809 102.572C71.5022 102.572 72.1932 102.311 72.6538 101.788C72.9152 101.489 73.1082 101.109 73.2327 100.649C73.3572 100.176 73.4194 99.6277 73.4194 99.0053C73.4194 97.7105 73.158 96.7768 72.6351 96.2041C72.162 95.6937 71.4773 95.4385 70.5809 95.4385C70.1203 95.4385 69.7219 95.5007 69.3858 95.6252C69.0497 95.7373 68.7695 95.9116 68.5455 96.1481C68.2591 96.4469 68.0475 96.8391 67.9105 97.3246C67.786 97.7977 67.7238 98.3579 67.7238 99.0053C67.7238 99.6526 67.786 100.219 67.9105 100.705C68.0475 101.178 68.2591 101.564 68.5455 101.862C68.9936 102.336 69.6721 102.572 70.5809 102.572ZM80.409 103.898C79.2761 103.898 78.3299 103.624 77.5705 103.076C76.8111 102.528 76.4376 101.707 76.4501 100.611L77.9813 100.462C77.9689 101.109 78.1805 101.626 78.6163 102.012C79.052 102.385 79.6371 102.572 80.3716 102.572C81.1311 102.572 81.7037 102.448 82.0897 102.199C82.4756 101.937 82.6686 101.557 82.6686 101.059C82.6686 100.798 82.5628 100.58 82.3511 100.406C82.1519 100.232 81.8967 100.101 81.5855 100.014C81.2867 99.9141 80.8945 99.8083 80.409 99.6962C80.2845 99.6713 80.16 99.6464 80.0355 99.6215C79.911 99.5842 79.7865 99.553 79.662 99.5281C79.0146 99.3663 78.4855 99.1982 78.0747 99.0239C77.6763 98.8372 77.3402 98.5695 77.0663 98.221C76.7924 97.8724 76.6555 97.4117 76.6555 96.8391C76.6555 96.229 76.8173 95.7186 77.141 95.3078C77.4771 94.8969 77.9066 94.5981 78.4295 94.4114C78.9648 94.2122 79.5251 94.1126 80.1102 94.1126C81.1933 94.1126 82.0897 94.3554 82.7993 94.8409C83.5089 95.3264 83.9135 96.1045 84.0131 97.1752L82.4445 97.418C82.432 96.7706 82.2204 96.2788 81.8096 95.9427C81.3987 95.6066 80.826 95.4385 80.0915 95.4385C79.5935 95.4385 79.1578 95.5568 78.7843 95.7933C78.4108 96.0174 78.2241 96.3286 78.2241 96.727C78.2241 97.088 78.3984 97.3557 78.747 97.53C79.0956 97.7043 79.606 97.8724 80.2783 98.0342C80.3032 98.0467 80.3343 98.0529 80.3716 98.0529C80.409 98.0529 80.4401 98.0591 80.465 98.0716C80.5024 98.084 80.5335 98.0965 80.5584 98.1089C80.5957 98.1089 80.6331 98.1089 80.6704 98.1089C81.4672 98.2707 82.1021 98.4388 82.5752 98.6131C83.0483 98.775 83.4467 99.0426 83.7704 99.4161C84.094 99.7896 84.2559 100.306 84.2559 100.966C84.2559 102.012 83.8886 102.765 83.1541 103.226C82.4196 103.674 81.5045 103.898 80.409 103.898ZM90.0132 103.898C89.2912 103.898 88.65 103.786 88.0898 103.562C87.5296 103.338 87.0503 102.995 86.6519 102.535C86.2659 102.099 85.9796 101.589 85.7929 101.003C85.6061 100.406 85.5127 99.7336 85.5127 98.9866C85.5127 98.2894 85.6123 97.6483 85.8115 97.0631C86.0107 96.4656 86.3033 95.9489 86.6892 95.5132C87.1001 95.0526 87.5856 94.704 88.1458 94.4674C88.706 94.2309 89.3223 94.1126 89.9946 94.1126C90.754 94.1126 91.4574 94.2745 92.1048 94.5981C92.7521 94.9094 93.2626 95.3638 93.636 95.9614C93.9224 96.4096 94.134 96.9511 94.271 97.586C94.4079 98.2085 94.4577 98.8497 94.4204 99.5095H87.3428C87.3677 100.543 87.598 101.308 88.0338 101.806C88.4695 102.304 89.1231 102.553 89.9946 102.553C90.7913 102.553 91.4076 102.385 91.8433 102.049C92.279 101.701 92.5529 101.171 92.665 100.462L94.2896 100.593C94.0904 101.676 93.6236 102.497 92.8891 103.058C92.167 103.618 91.2084 103.898 90.0132 103.898ZM87.3615 98.2023L87.1187 98.1463H92.8144L92.7023 98.2023C92.7023 97.9408 92.6525 97.6483 92.5529 97.3246C92.4658 96.9885 92.3475 96.7083 92.1981 96.4842C91.9616 96.1357 91.6628 95.8804 91.3018 95.7186C90.9532 95.5568 90.5237 95.4758 90.0132 95.4758C89.5028 95.4758 89.0546 95.5692 88.6687 95.756C88.2828 95.9302 87.9964 96.173 87.8097 96.4842C87.5358 96.9324 87.3864 97.4615 87.3615 98.0716V98.2023ZM98.6051 103.674L103.722 90.6019H105.515L110.613 103.674H108.839L105.347 94.3367C105.297 94.2122 105.247 94.0877 105.197 93.9632C105.16 93.8387 105.116 93.7142 105.066 93.5897C104.979 93.3408 104.898 93.1042 104.824 92.8801C104.749 92.6436 104.674 92.4257 104.6 92.2265H104.581C104.519 92.4133 104.456 92.6 104.394 92.7867C104.332 92.961 104.27 93.1416 104.207 93.3283C104.145 93.4901 104.083 93.6582 104.021 93.8325C103.971 93.9943 103.915 94.1624 103.853 94.3367L100.398 103.674H98.6051ZM100.995 99.7709L101.537 98.277H107.681L108.222 99.7709H100.995ZM111.816 107.409V94.3367H113.497V96.5029L113.198 96.2228C113.534 95.5256 113.976 95.0028 114.524 94.6542C115.084 94.2931 115.725 94.1126 116.447 94.1126C117.281 94.1126 118.022 94.3118 118.669 94.7102C119.317 95.0961 119.821 95.6626 120.182 96.4096C120.556 97.1441 120.742 98.0093 120.742 99.0053C120.742 99.9763 120.562 100.835 120.201 101.582C119.852 102.317 119.354 102.89 118.707 103.3C118.072 103.699 117.337 103.898 116.503 103.898C115.744 103.898 115.09 103.742 114.542 103.431C113.995 103.12 113.546 102.634 113.198 101.974L113.497 101.657V107.409H111.816ZM116.111 102.553C116.534 102.553 116.908 102.504 117.232 102.404C117.555 102.292 117.823 102.13 118.035 101.918C118.333 101.632 118.551 101.246 118.688 100.761C118.825 100.275 118.894 99.69 118.894 99.0053C118.894 97.8226 118.694 96.9324 118.296 96.3349C117.898 95.7373 117.182 95.4385 116.148 95.4385C115.713 95.4385 115.327 95.5132 114.991 95.6626C114.654 95.7995 114.374 96.0112 114.15 96.2975C113.914 96.5963 113.733 96.9698 113.609 97.418C113.497 97.8661 113.441 98.389 113.441 98.9866C113.441 100.045 113.627 100.904 114.001 101.564C114.374 102.223 115.078 102.553 116.111 102.553ZM122.573 107.409V94.3367H124.254V96.5029L123.955 96.2228C124.291 95.5256 124.733 95.0028 125.281 94.6542C125.841 94.2931 126.483 94.1126 127.205 94.1126C128.039 94.1126 128.779 94.3118 129.427 94.7102C130.074 95.0961 130.578 95.6626 130.939 96.4096C131.313 97.1441 131.5 98.0093 131.5 99.0053C131.5 99.9763 131.319 100.835 130.958 101.582C130.61 102.317 130.112 102.89 129.464 103.3C128.829 103.699 128.095 103.898 127.261 103.898C126.501 103.898 125.848 103.742 125.3 103.431C124.752 103.12 124.304 102.634 123.955 101.974L124.254 101.657V107.409H122.573ZM126.868 102.553C127.292 102.553 127.665 102.504 127.989 102.404C128.313 102.292 128.58 102.13 128.792 101.918C129.091 101.632 129.309 101.246 129.445 100.761C129.582 100.275 129.651 99.69 129.651 99.0053C129.651 97.8226 129.452 96.9324 129.053 96.3349C128.655 95.7373 127.939 95.4385 126.906 95.4385C126.47 95.4385 126.084 95.5132 125.748 95.6626C125.412 95.7995 125.132 96.0112 124.908 96.2975C124.671 96.5963 124.491 96.9698 124.366 97.418C124.254 97.8661 124.198 98.389 124.198 98.9866C124.198 100.045 124.385 100.904 124.758 101.564C125.132 102.223 125.835 102.553 126.868 102.553Z" fill="white"/>
<path d="M373.5 148.162V243.79C373.5 257.065 326.49 267.826 268.5 267.826C210.51 267.826 163.5 257.065 163.5 243.79V148.162C164.999 135.312 242.964 133.826 268.5 133.826C298.939 133.826 373.5 136.555 373.5 148.162Z" fill="white" fill-opacity="0.1"/>
<path d="M373.5 146.826C373.5 152.857 326.49 159.826 268.5 159.826C210.51 159.826 163.5 152.857 163.5 146.826C163.5 140.795 210.51 133.826 268.5 133.826C326.49 133.826 373.5 140.795 373.5 146.826Z" fill="white" fill-opacity="0.05"/>
<path d="M222.81 188.826V175.526H227.294C228.269 175.526 229.13 175.621 229.878 175.811C230.638 176.001 231.271 176.394 231.778 176.989C232.284 177.585 232.538 178.44 232.538 179.554C232.538 180.644 232.284 181.473 231.778 182.043C231.271 182.613 230.638 182.987 229.878 183.164C229.118 183.342 228.25 183.43 227.275 183.43H224.52V188.826H222.81ZM227.275 181.967C227.984 181.967 228.586 181.923 229.08 181.834C229.574 181.733 229.992 181.505 230.334 181.15C230.688 180.796 230.866 180.264 230.866 179.554C230.866 178.782 230.695 178.212 230.353 177.844C230.011 177.464 229.593 177.23 229.099 177.141C228.617 177.053 228.016 177.008 227.294 177.008H224.52V181.967H227.275ZM234.193 188.826V179.326H235.903V181.834L235.846 181.416C235.833 181.062 235.953 180.72 236.207 180.39C236.473 180.048 236.834 179.763 237.29 179.535C237.758 179.295 238.278 179.155 238.848 179.117C238.911 179.105 238.987 179.098 239.076 179.098C239.177 179.098 239.272 179.098 239.361 179.098C239.386 179.098 239.405 179.098 239.418 179.098C239.443 179.098 239.468 179.098 239.494 179.098L239.456 180.713C239.38 180.701 239.234 180.694 239.019 180.694C238.347 180.694 237.79 180.789 237.347 180.979C236.903 181.169 236.549 181.53 236.283 182.062C236.029 182.594 235.903 183.348 235.903 184.323V188.826H234.193ZM244.605 189.054C243.629 189.054 242.781 188.858 242.059 188.465C241.349 188.06 240.805 187.484 240.425 186.736C240.045 185.989 239.855 185.102 239.855 184.076C239.855 183.114 240.045 182.259 240.425 181.511C240.817 180.751 241.368 180.162 242.078 179.744C242.8 179.314 243.642 179.098 244.605 179.098C245.555 179.098 246.384 179.314 247.094 179.744C247.816 180.162 248.367 180.751 248.747 181.511C249.139 182.271 249.336 183.126 249.336 184.076C249.336 185.064 249.139 185.938 248.747 186.698C248.354 187.446 247.797 188.028 247.075 188.446C246.365 188.852 245.542 189.054 244.605 189.054ZM244.605 187.705C245.542 187.705 246.245 187.439 246.714 186.907C246.98 186.603 247.176 186.217 247.303 185.748C247.429 185.267 247.493 184.71 247.493 184.076C247.493 182.759 247.227 181.809 246.695 181.226C246.213 180.707 245.517 180.447 244.605 180.447C244.136 180.447 243.731 180.511 243.389 180.637C243.047 180.751 242.762 180.929 242.534 181.169C242.242 181.473 242.027 181.872 241.888 182.366C241.761 182.848 241.698 183.418 241.698 184.076C241.698 184.735 241.761 185.311 241.888 185.805C242.027 186.287 242.242 186.679 242.534 186.983C242.99 187.465 243.68 187.705 244.605 187.705ZM255.003 189.054C254.155 189.054 253.401 188.858 252.742 188.465C252.084 188.06 251.564 187.484 251.184 186.736C250.817 185.976 250.633 185.09 250.633 184.076C250.633 183.088 250.811 182.221 251.165 181.473C251.533 180.713 252.039 180.131 252.685 179.725C253.344 179.307 254.098 179.098 254.946 179.098C255.719 179.098 256.384 179.257 256.941 179.573C257.499 179.89 257.955 180.384 258.309 181.055L258.005 181.378V175.526H259.715V188.826H258.005V186.622L258.309 186.907C257.967 187.617 257.511 188.155 256.941 188.522C256.384 188.877 255.738 189.054 255.003 189.054ZM255.307 187.705C255.7 187.705 256.048 187.648 256.352 187.534C256.669 187.42 256.941 187.249 257.169 187.021C257.461 186.73 257.682 186.337 257.834 185.843C257.986 185.349 258.062 184.767 258.062 184.095C258.062 183.019 257.872 182.145 257.492 181.473C257.112 180.802 256.397 180.466 255.345 180.466C254.864 180.466 254.452 180.536 254.11 180.675C253.768 180.802 253.483 180.998 253.255 181.264C253.002 181.568 252.812 181.955 252.685 182.423C252.571 182.892 252.514 183.443 252.514 184.076C252.514 184.862 252.597 185.52 252.761 186.052C252.926 186.584 253.211 186.996 253.616 187.287C254.022 187.566 254.585 187.705 255.307 187.705ZM265.606 189.054C264.986 189.054 264.447 188.972 263.991 188.807C263.535 188.63 263.136 188.358 262.794 187.99C262.465 187.648 262.256 187.237 262.167 186.755C262.079 186.274 262.034 185.691 262.034 185.007V179.326H263.801V184.912C263.801 184.925 263.801 184.938 263.801 184.95C263.801 184.963 263.801 184.976 263.801 184.988C263.801 185.52 263.833 185.945 263.896 186.261C263.96 186.565 264.112 186.838 264.352 187.078C264.593 187.319 264.846 187.471 265.112 187.534C265.391 187.598 265.714 187.629 266.081 187.629C266.727 187.629 267.297 187.439 267.791 187.059C268.285 186.667 268.532 185.869 268.532 184.665V179.326H270.242V188.826H268.532V186.584L268.722 186.869C268.532 187.566 268.159 188.104 267.601 188.484C267.057 188.864 266.392 189.054 265.606 189.054ZM276.79 189.054C275.827 189.054 274.991 188.858 274.282 188.465C273.572 188.06 273.028 187.484 272.648 186.736C272.268 185.989 272.078 185.102 272.078 184.076C272.078 183.101 272.268 182.24 272.648 181.492C273.028 180.732 273.572 180.143 274.282 179.725C275.004 179.307 275.84 179.098 276.79 179.098C277.942 179.098 278.873 179.402 279.583 180.01C280.292 180.606 280.748 181.385 280.951 182.347L279.355 182.651C279.177 181.993 278.899 181.467 278.519 181.074C278.139 180.669 277.562 180.466 276.79 180.466C276.258 180.466 275.814 180.542 275.46 180.694C275.105 180.846 274.814 181.068 274.586 181.359C274.358 181.663 274.193 182.043 274.092 182.499C274.003 182.955 273.959 183.481 273.959 184.076C273.959 185.254 274.161 186.154 274.567 186.774C274.972 187.382 275.713 187.686 276.79 187.686C277.524 187.686 278.094 187.534 278.5 187.23C278.905 186.926 279.196 186.432 279.374 185.748L280.989 185.919C280.875 186.553 280.621 187.11 280.229 187.591C279.849 188.06 279.361 188.421 278.766 188.674C278.183 188.928 277.524 189.054 276.79 189.054ZM285.724 188.921C284.838 188.921 284.192 188.744 283.786 188.389C283.381 188.035 283.178 187.471 283.178 186.698V180.751H281.81V179.326H283.178V176.685H284.869V179.326H286.807V180.751H284.869V186.641C284.869 186.945 284.939 187.148 285.078 187.249C285.23 187.338 285.49 187.382 285.857 187.382C286.098 187.382 286.389 187.351 286.731 187.287L286.769 188.826C286.427 188.89 286.079 188.921 285.724 188.921ZM288.377 177.54V175.526H290.087V177.54H288.377ZM288.377 188.826V179.326H290.087V188.826H288.377ZM288.377 188.826V187.382H290.087V188.826H288.377ZM288.377 180.77V179.326H290.087V180.77H288.377ZM296.674 189.054C295.699 189.054 294.85 188.858 294.128 188.465C293.419 188.06 292.874 187.484 292.494 186.736C292.114 185.989 291.924 185.102 291.924 184.076C291.924 183.114 292.114 182.259 292.494 181.511C292.887 180.751 293.438 180.162 294.147 179.744C294.869 179.314 295.712 179.098 296.674 179.098C297.624 179.098 298.454 179.314 299.163 179.744C299.885 180.162 300.436 180.751 300.816 181.511C301.209 182.271 301.405 183.126 301.405 184.076C301.405 185.064 301.209 185.938 300.816 186.698C300.424 187.446 299.866 188.028 299.144 188.446C298.435 188.852 297.612 189.054 296.674 189.054ZM296.674 187.705C297.612 187.705 298.315 187.439 298.783 186.907C299.049 186.603 299.246 186.217 299.372 185.748C299.499 185.267 299.562 184.71 299.562 184.076C299.562 182.759 299.296 181.809 298.764 181.226C298.283 180.707 297.586 180.447 296.674 180.447C296.206 180.447 295.8 180.511 295.458 180.637C295.116 180.751 294.831 180.929 294.603 181.169C294.312 181.473 294.097 181.872 293.957 182.366C293.831 182.848 293.767 183.418 293.767 184.076C293.767 184.735 293.831 185.311 293.957 185.805C294.097 186.287 294.312 186.679 294.603 186.983C295.059 187.465 295.75 187.705 296.674 187.705ZM303.254 188.826V179.326H304.964V181.606L304.774 181.302C304.977 180.58 305.331 180.036 305.838 179.668C306.357 179.288 307.041 179.098 307.89 179.098C308.511 179.098 309.049 179.187 309.505 179.364C309.974 179.529 310.379 179.795 310.721 180.162C311.038 180.504 311.24 180.922 311.329 181.416C311.418 181.898 311.462 182.487 311.462 183.183V188.826H309.695V183.278C309.695 183.266 309.695 183.253 309.695 183.24C309.695 183.228 309.695 183.215 309.695 183.202C309.695 182.658 309.663 182.227 309.6 181.91C309.537 181.594 309.378 181.315 309.125 181.074C308.884 180.834 308.631 180.682 308.365 180.618C308.099 180.555 307.789 180.523 307.434 180.523C306.813 180.523 306.243 180.739 305.724 181.169C305.217 181.587 304.964 182.392 304.964 183.582V188.826H303.254ZM235.09 215.054C233.748 215.054 232.608 214.788 231.67 214.256C230.733 213.724 230.017 212.945 229.523 211.919C229.029 210.893 228.782 209.646 228.782 208.176C228.782 206.821 229.023 205.624 229.504 204.585C229.998 203.547 230.72 202.742 231.67 202.172C232.62 201.59 233.76 201.298 235.09 201.298C236.015 201.298 236.864 201.457 237.636 201.773C238.422 202.077 239.093 202.546 239.65 203.179C240.208 203.8 240.607 204.56 240.847 205.459L238.966 205.82C238.751 204.959 238.308 204.237 237.636 203.654C236.978 203.072 236.142 202.78 235.128 202.78C234.356 202.78 233.672 202.907 233.076 203.16C232.494 203.414 232.025 203.787 231.67 204.281C231.354 204.737 231.113 205.288 230.948 205.934C230.796 206.568 230.72 207.315 230.72 208.176C230.72 209.038 230.796 209.791 230.948 210.437C231.113 211.071 231.354 211.622 231.67 212.09C232.012 212.572 232.475 212.939 233.057 213.192C233.653 213.446 234.33 213.572 235.09 213.572C236.104 213.572 236.933 213.313 237.579 212.793C238.238 212.274 238.713 211.596 239.004 210.76L240.961 211.273C240.429 212.502 239.663 213.439 238.662 214.085C237.662 214.731 236.471 215.054 235.09 215.054ZM246.683 215.054C245.708 215.054 244.859 214.858 244.137 214.465C243.428 214.06 242.883 213.484 242.503 212.736C242.123 211.989 241.933 211.102 241.933 210.076C241.933 209.114 242.123 208.259 242.503 207.511C242.896 206.751 243.447 206.162 244.156 205.744C244.878 205.314 245.72 205.098 246.683 205.098C247.633 205.098 248.463 205.314 249.172 205.744C249.894 206.162 250.445 206.751 250.825 207.511C251.218 208.271 251.414 209.126 251.414 210.076C251.414 211.064 251.218 211.938 250.825 212.698C250.432 213.446 249.875 214.028 249.153 214.446C248.444 214.852 247.62 215.054 246.683 215.054ZM246.683 213.705C247.62 213.705 248.323 213.439 248.792 212.907C249.058 212.603 249.254 212.217 249.381 211.748C249.508 211.267 249.571 210.71 249.571 210.076C249.571 208.759 249.305 207.809 248.773 207.226C248.292 206.707 247.595 206.447 246.683 206.447C246.214 206.447 245.809 206.511 245.467 206.637C245.125 206.751 244.84 206.929 244.612 207.169C244.321 207.473 244.105 207.872 243.966 208.366C243.839 208.848 243.776 209.418 243.776 210.076C243.776 210.735 243.839 211.311 243.966 211.805C244.105 212.287 244.321 212.679 244.612 212.983C245.068 213.465 245.758 213.705 246.683 213.705ZM253.262 214.826V205.326H254.972V207.606L254.782 207.302C254.985 206.58 255.34 206.036 255.846 205.668C256.366 205.288 257.05 205.098 257.898 205.098C258.519 205.098 259.057 205.187 259.513 205.364C259.982 205.529 260.387 205.795 260.729 206.162C261.046 206.504 261.249 206.922 261.337 207.416C261.426 207.898 261.47 208.487 261.47 209.183V214.826H259.703V209.278C259.703 209.266 259.703 209.253 259.703 209.24C259.703 209.228 259.703 209.215 259.703 209.202C259.703 208.658 259.672 208.227 259.608 207.91C259.545 207.594 259.387 207.315 259.133 207.074C258.893 206.834 258.639 206.682 258.373 206.618C258.107 206.555 257.797 206.523 257.442 206.523C256.822 206.523 256.252 206.739 255.732 207.169C255.226 207.587 254.972 208.392 254.972 209.582V214.826H253.262ZM266.766 214.921C265.879 214.921 265.233 214.744 264.828 214.389C264.423 214.035 264.22 213.471 264.22 212.698V206.751H262.852V205.326H264.22V202.685H265.911V205.326H267.849V206.751H265.911V212.641C265.911 212.945 265.981 213.148 266.12 213.249C266.272 213.338 266.532 213.382 266.899 213.382C267.14 213.382 267.431 213.351 267.773 213.287L267.811 214.826C267.469 214.89 267.121 214.921 266.766 214.921ZM272.117 215.054C271.243 215.054 270.489 214.82 269.856 214.351C269.235 213.87 268.925 213.192 268.925 212.318C268.925 211.685 269.077 211.172 269.381 210.779C269.698 210.374 270.084 210.076 270.54 209.886C271.009 209.684 271.547 209.525 272.155 209.411L275.29 208.803C275.29 208.778 275.29 208.753 275.29 208.727C275.29 208.689 275.29 208.658 275.29 208.632C275.29 208.24 275.265 207.929 275.214 207.701C275.176 207.461 275.094 207.252 274.967 207.074C274.828 206.884 274.606 206.732 274.302 206.618C273.998 206.504 273.643 206.447 273.238 206.447C272.415 206.447 271.819 206.612 271.452 206.941C271.097 207.258 270.92 207.777 270.92 208.499L269.248 208.271C269.261 207.701 269.368 207.214 269.571 206.808C269.774 206.39 270.059 206.055 270.426 205.801C270.768 205.573 271.186 205.402 271.68 205.288C272.174 205.162 272.725 205.098 273.333 205.098C274.131 205.098 274.796 205.219 275.328 205.459C275.86 205.687 276.259 206.036 276.525 206.504C276.804 206.973 276.943 207.549 276.943 208.233V212.774C276.943 213.053 276.968 213.243 277.019 213.344C277.082 213.446 277.241 213.496 277.494 213.496C277.646 213.496 277.83 213.471 278.045 213.42L278.083 214.826C277.766 214.877 277.412 214.902 277.019 214.902C276.462 214.902 276.037 214.757 275.746 214.465C275.455 214.174 275.309 213.743 275.309 213.173L275.518 212.907C275.303 213.617 274.91 214.155 274.34 214.522C273.783 214.877 273.042 215.054 272.117 215.054ZM272.383 213.686C273.371 213.686 274.099 213.465 274.568 213.021C275.049 212.565 275.29 211.97 275.29 211.235V209.259L276.088 209.905L272.421 210.703L272.288 210.741C271.743 210.868 271.338 211.045 271.072 211.273C270.806 211.489 270.673 211.831 270.673 212.299C270.673 212.73 270.838 213.072 271.167 213.325C271.496 213.566 271.902 213.686 272.383 213.686ZM279.585 203.54V201.526H281.295V203.54H279.585ZM279.585 214.826V205.326H281.295V214.826H279.585ZM279.585 214.826V213.382H281.295V214.826H279.585ZM279.585 206.77V205.326H281.295V206.77H279.585ZM283.702 214.826V205.326H285.412V207.606L285.222 207.302C285.424 206.58 285.779 206.036 286.286 205.668C286.805 205.288 287.489 205.098 288.338 205.098C288.958 205.098 289.497 205.187 289.953 205.364C290.421 205.529 290.827 205.795 291.169 206.162C291.485 206.504 291.688 206.922 291.777 207.416C291.865 207.898 291.91 208.487 291.91 209.183V214.826H290.143V209.278C290.143 209.266 290.143 209.253 290.143 209.24C290.143 209.228 290.143 209.215 290.143 209.202C290.143 208.658 290.111 208.227 290.048 207.91C289.984 207.594 289.826 207.315 289.573 207.074C289.332 206.834 289.079 206.682 288.813 206.618C288.547 206.555 288.236 206.523 287.882 206.523C287.261 206.523 286.691 206.739 286.172 207.169C285.665 207.587 285.412 208.392 285.412 209.582V214.826H283.702ZM298.248 215.054C297.513 215.054 296.861 214.94 296.291 214.712C295.721 214.484 295.233 214.136 294.828 213.667C294.435 213.224 294.144 212.705 293.954 212.109C293.764 211.501 293.669 210.817 293.669 210.057C293.669 209.348 293.77 208.696 293.973 208.1C294.176 207.492 294.473 206.967 294.866 206.523C295.284 206.055 295.778 205.7 296.348 205.459C296.918 205.219 297.545 205.098 298.229 205.098C299.002 205.098 299.717 205.263 300.376 205.592C301.035 205.909 301.554 206.371 301.934 206.979C302.225 207.435 302.441 207.986 302.58 208.632C302.719 209.266 302.77 209.918 302.732 210.589H295.531C295.556 211.641 295.791 212.42 296.234 212.926C296.677 213.433 297.342 213.686 298.229 213.686C299.04 213.686 299.667 213.515 300.11 213.173C300.553 212.819 300.832 212.28 300.946 211.558L302.599 211.691C302.396 212.793 301.921 213.629 301.174 214.199C300.439 214.769 299.464 215.054 298.248 215.054ZM295.55 209.259L295.303 209.202H301.098L300.984 209.259C300.984 208.993 300.933 208.696 300.832 208.366C300.743 208.024 300.623 207.739 300.471 207.511C300.23 207.157 299.926 206.897 299.559 206.732C299.204 206.568 298.767 206.485 298.248 206.485C297.729 206.485 297.273 206.58 296.88 206.77C296.487 206.948 296.196 207.195 296.006 207.511C295.727 207.967 295.575 208.506 295.55 209.126V209.259ZM304.571 214.826V205.326H306.281V207.834L306.224 207.416C306.212 207.062 306.332 206.72 306.585 206.39C306.851 206.048 307.212 205.763 307.668 205.535C308.137 205.295 308.656 205.155 309.226 205.117C309.29 205.105 309.366 205.098 309.454 205.098C309.556 205.098 309.651 205.098 309.739 205.098C309.765 205.098 309.784 205.098 309.796 205.098C309.822 205.098 309.847 205.098 309.872 205.098L309.834 206.713C309.758 206.701 309.613 206.694 309.397 206.694C308.726 206.694 308.169 206.789 307.725 206.979C307.282 207.169 306.927 207.53 306.661 208.062C306.408 208.594 306.281 209.348 306.281 210.323V214.826H304.571Z" fill="white"/>
<path d="M219.065 241.054C217.722 241.054 216.582 240.788 215.645 240.256C214.707 239.724 213.992 238.945 213.498 237.919C213.004 236.893 212.757 235.646 212.757 234.176C212.757 232.821 212.997 231.624 213.479 230.585C213.973 229.547 214.695 228.742 215.645 228.172C216.595 227.59 217.735 227.298 219.065 227.298C219.989 227.298 220.838 227.457 221.611 227.773C222.396 228.077 223.067 228.546 223.625 229.179C224.182 229.8 224.581 230.56 224.822 231.459L222.941 231.82C222.725 230.959 222.282 230.237 221.611 229.654C220.952 229.072 220.116 228.78 219.103 228.78C218.33 228.78 217.646 228.907 217.051 229.16C216.468 229.414 215.999 229.787 215.645 230.281C215.328 230.737 215.087 231.288 214.923 231.934C214.771 232.568 214.695 233.315 214.695 234.176C214.695 235.038 214.771 235.791 214.923 236.437C215.087 237.071 215.328 237.622 215.645 238.09C215.987 238.572 216.449 238.939 217.032 239.192C217.627 239.446 218.305 239.572 219.065 239.572C220.078 239.572 220.908 239.313 221.554 238.793C222.212 238.274 222.687 237.596 222.979 236.76L224.936 237.273C224.404 238.502 223.637 239.439 222.637 240.085C221.636 240.731 220.445 241.054 219.065 241.054ZM226.8 240.826V227.526H228.51V239.325H235.388V240.826H226.8ZM237.059 240.826V227.526H238.788V240.826H237.059ZM237.059 240.826V239.325H238.788V240.826H237.059ZM237.059 229.027V227.526H238.788V229.027H237.059ZM241.426 242.365C241.679 242.277 241.882 242.112 242.034 241.871C242.198 241.643 242.287 241.295 242.3 240.826H241.407V238.774H243.326V240.864C243.326 241.536 243.161 242.08 242.832 242.498C242.502 242.929 242.034 243.201 241.426 243.315V242.365ZM249.558 240.826V227.526H254.08C255.397 227.526 256.531 227.805 257.481 228.362C258.431 228.907 259.153 229.68 259.647 230.68C260.141 231.681 260.388 232.846 260.388 234.176C260.388 235.557 260.135 236.748 259.628 237.748C259.134 238.736 258.412 239.496 257.462 240.028C256.512 240.56 255.385 240.826 254.08 240.826H249.558ZM253.89 239.344C254.751 239.344 255.492 239.224 256.113 238.983C256.734 238.73 257.196 238.382 257.5 237.938C257.829 237.457 258.07 236.925 258.222 236.342C258.374 235.76 258.45 235.038 258.45 234.176C258.45 233.315 258.374 232.599 258.222 232.029C258.083 231.447 257.842 230.915 257.5 230.433C257.183 229.977 256.708 229.629 256.075 229.388C255.454 229.135 254.726 229.008 253.89 229.008H251.268V239.344H253.89ZM266.379 241.054C265.644 241.054 264.992 240.94 264.422 240.712C263.852 240.484 263.364 240.136 262.959 239.667C262.566 239.224 262.275 238.705 262.085 238.109C261.895 237.501 261.8 236.817 261.8 236.057C261.8 235.348 261.901 234.696 262.104 234.1C262.306 233.492 262.604 232.967 262.997 232.523C263.415 232.055 263.909 231.7 264.479 231.459C265.049 231.219 265.676 231.098 266.36 231.098C267.132 231.098 267.848 231.263 268.507 231.592C269.165 231.909 269.685 232.371 270.065 232.979C270.356 233.435 270.571 233.986 270.711 234.632C270.85 235.266 270.901 235.918 270.863 236.589H263.662C263.687 237.641 263.921 238.42 264.365 238.926C264.808 239.433 265.473 239.686 266.36 239.686C267.17 239.686 267.797 239.515 268.241 239.173C268.684 238.819 268.963 238.28 269.077 237.558L270.73 237.691C270.527 238.793 270.052 239.629 269.305 240.199C268.57 240.769 267.595 241.054 266.379 241.054ZM263.681 235.259L263.434 235.202H269.229L269.115 235.259C269.115 234.993 269.064 234.696 268.963 234.366C268.874 234.024 268.754 233.739 268.602 233.511C268.361 233.157 268.057 232.897 267.69 232.732C267.335 232.568 266.898 232.485 266.379 232.485C265.859 232.485 265.403 232.58 265.011 232.77C264.618 232.948 264.327 233.195 264.137 233.511C263.858 233.967 263.706 234.506 263.681 235.126V235.259ZM272.702 240.826V231.326H274.412V233.606L274.222 233.302C274.425 232.58 274.779 232.036 275.286 231.668C275.805 231.288 276.489 231.098 277.338 231.098C277.959 231.098 278.497 231.187 278.953 231.364C279.422 231.529 279.827 231.795 280.169 232.162C280.486 232.504 280.688 232.922 280.777 233.416C280.866 233.898 280.91 234.487 280.91 235.183V240.826H279.143V235.278C279.143 235.266 279.143 235.253 279.143 235.24C279.143 235.228 279.143 235.215 279.143 235.202C279.143 234.658 279.111 234.227 279.048 233.91C278.985 233.594 278.826 233.315 278.573 233.074C278.332 232.834 278.079 232.682 277.813 232.618C277.547 232.555 277.237 232.523 276.882 232.523C276.261 232.523 275.691 232.739 275.172 233.169C274.665 233.587 274.412 234.392 274.412 235.582V240.826H272.702ZM287.4 241.054C286.425 241.054 285.576 240.858 284.854 240.465C284.145 240.06 283.6 239.484 283.22 238.736C282.84 237.989 282.65 237.102 282.65 236.076C282.65 235.114 282.84 234.259 283.22 233.511C283.613 232.751 284.164 232.162 284.873 231.744C285.595 231.314 286.438 231.098 287.4 231.098C288.35 231.098 289.18 231.314 289.889 231.744C290.611 232.162 291.162 232.751 291.542 233.511C291.935 234.271 292.131 235.126 292.131 236.076C292.131 237.064 291.935 237.938 291.542 238.698C291.15 239.446 290.592 240.028 289.87 240.446C289.161 240.852 288.338 241.054 287.4 241.054ZM287.4 239.705C288.338 239.705 289.041 239.439 289.509 238.907C289.775 238.603 289.972 238.217 290.098 237.748C290.225 237.267 290.288 236.71 290.288 236.076C290.288 234.759 290.022 233.809 289.49 233.226C289.009 232.707 288.312 232.447 287.4 232.447C286.932 232.447 286.526 232.511 286.184 232.637C285.842 232.751 285.557 232.929 285.329 233.169C285.038 233.473 284.823 233.872 284.683 234.366C284.557 234.848 284.493 235.418 284.493 236.076C284.493 236.735 284.557 237.311 284.683 237.805C284.823 238.287 285.038 238.679 285.329 238.983C285.785 239.465 286.476 239.705 287.4 239.705ZM293.588 242.365C293.841 242.277 294.044 242.112 294.196 241.871C294.361 241.643 294.449 241.295 294.462 240.826H293.569V238.774H295.488V240.864C295.488 241.536 295.323 242.08 294.994 242.498C294.665 242.929 294.196 243.201 293.588 243.315V242.365ZM305.425 241.054C304.691 241.054 304.038 240.94 303.468 240.712C302.898 240.484 302.411 240.136 302.005 239.667C301.613 239.224 301.321 238.705 301.131 238.109C300.941 237.501 300.846 236.817 300.846 236.057C300.846 235.348 300.948 234.696 301.15 234.1C301.353 233.492 301.651 232.967 302.043 232.523C302.461 232.055 302.955 231.7 303.525 231.459C304.095 231.219 304.722 231.098 305.406 231.098C306.179 231.098 306.895 231.263 307.553 231.592C308.212 231.909 308.731 232.371 309.111 232.979C309.403 233.435 309.618 233.986 309.757 234.632C309.897 235.266 309.947 235.918 309.909 236.589H302.708C302.734 237.641 302.968 238.42 303.411 238.926C303.855 239.433 304.52 239.686 305.406 239.686C306.217 239.686 306.844 239.515 307.287 239.173C307.731 238.819 308.009 238.28 308.123 237.558L309.776 237.691C309.574 238.793 309.099 239.629 308.351 240.199C307.617 240.769 306.641 241.054 305.425 241.054ZM302.727 235.259L302.48 235.202H308.275L308.161 235.259C308.161 234.993 308.111 234.696 308.009 234.366C307.921 234.024 307.8 233.739 307.648 233.511C307.408 233.157 307.104 232.897 306.736 232.732C306.382 232.568 305.945 232.485 305.425 232.485C304.906 232.485 304.45 232.58 304.057 232.77C303.665 232.948 303.373 233.195 303.183 233.511C302.905 233.967 302.753 234.506 302.727 235.126V235.259ZM314.678 240.921C313.791 240.921 313.145 240.744 312.74 240.389C312.335 240.035 312.132 239.471 312.132 238.698V232.751H310.764V231.326H312.132V228.685H313.823V231.326H315.761V232.751H313.823V238.641C313.823 238.945 313.893 239.148 314.032 239.249C314.184 239.338 314.444 239.382 314.811 239.382C315.052 239.382 315.343 239.351 315.685 239.287L315.723 240.826C315.381 240.89 315.033 240.921 314.678 240.921ZM321.343 241.054C320.381 241.054 319.545 240.858 318.835 240.465C318.126 240.06 317.581 239.484 317.201 238.736C316.821 237.989 316.631 237.102 316.631 236.076C316.631 235.101 316.821 234.24 317.201 233.492C317.581 232.732 318.126 232.143 318.835 231.725C319.557 231.307 320.393 231.098 321.343 231.098C322.496 231.098 323.427 231.402 324.136 232.01C324.846 232.606 325.302 233.385 325.504 234.347L323.908 234.651C323.731 233.993 323.452 233.467 323.072 233.074C322.692 232.669 322.116 232.466 321.343 232.466C320.811 232.466 320.368 232.542 320.013 232.694C319.659 232.846 319.367 233.068 319.139 233.359C318.911 233.663 318.747 234.043 318.645 234.499C318.557 234.955 318.512 235.481 318.512 236.076C318.512 237.254 318.715 238.154 319.12 238.774C319.526 239.382 320.267 239.686 321.343 239.686C322.078 239.686 322.648 239.534 323.053 239.23C323.459 238.926 323.75 238.432 323.927 237.748L325.542 237.919C325.428 238.553 325.175 239.11 324.782 239.591C324.402 240.06 323.915 240.421 323.319 240.674C322.737 240.928 322.078 241.054 321.343 241.054Z" fill="#7F7F7F"/>
<path d="M258.5 332.478V488.224C258.5 509.845 205.11 527.372 139.25 527.372C73.3901 527.372 20 509.845 20 488.224V332.478C21.7028 311.549 110.248 309.129 139.25 309.129C173.82 309.129 258.5 313.573 258.5 332.478Z" fill="white" fill-opacity="0.1"/>
<path d="M258.5 330.302C258.5 340.124 205.11 351.474 139.25 351.474C73.39 351.474 20 340.124 20 330.302C20 320.479 73.39 309.129 139.25 309.129C205.11 309.129 258.5 320.479 258.5 330.302Z" fill="white" fill-opacity="0.05"/>
<path d="M95.7754 419.5V406.2H100.278C101.266 406.2 102.128 406.289 102.862 406.466C103.61 406.631 104.237 407.004 104.743 407.587C105.263 408.157 105.522 408.999 105.522 410.114C105.522 411.013 105.282 411.773 104.8 412.394C104.319 413.002 103.717 413.363 102.995 413.477L102.843 413.173C103.679 413.363 104.281 413.705 104.648 414.199C105.016 414.693 105.199 415.352 105.199 416.175C105.199 416.2 105.199 416.226 105.199 416.251C105.199 416.264 105.199 416.283 105.199 416.308C105.199 417.081 105.25 417.701 105.351 418.17C105.453 418.639 105.655 419.063 105.959 419.443L105.94 419.5H104.059C103.831 419.158 103.679 418.784 103.603 418.379C103.527 417.961 103.489 417.315 103.489 416.441V416.365C103.489 415.757 103.394 415.288 103.204 414.959C103.027 414.617 102.717 414.37 102.273 414.218C101.843 414.066 101.235 413.99 100.449 413.99H97.4854V419.5H95.7754ZM100.259 412.527C100.956 412.527 101.551 412.483 102.045 412.394C102.552 412.293 102.976 412.071 103.318 411.729C103.66 411.387 103.831 410.874 103.831 410.19C103.831 409.417 103.66 408.847 103.318 408.48C102.976 408.113 102.571 407.891 102.102 407.815C101.634 407.726 101.026 407.682 100.278 407.682H97.4854V412.527H100.259ZM111.798 419.728C111.064 419.728 110.411 419.614 109.841 419.386C109.271 419.158 108.784 418.81 108.378 418.341C107.986 417.898 107.694 417.378 107.504 416.783C107.314 416.175 107.219 415.491 107.219 414.731C107.219 414.022 107.321 413.369 107.523 412.774C107.726 412.166 108.024 411.64 108.416 411.197C108.834 410.728 109.328 410.374 109.898 410.133C110.468 409.892 111.095 409.772 111.779 409.772C112.552 409.772 113.268 409.937 113.926 410.266C114.585 410.583 115.104 411.045 115.484 411.653C115.776 412.109 115.991 412.66 116.13 413.306C116.27 413.939 116.32 414.592 116.282 415.263H109.081C109.107 416.314 109.341 417.093 109.784 417.6C110.228 418.107 110.893 418.36 111.779 418.36C112.59 418.36 113.217 418.189 113.66 417.847C114.104 417.492 114.382 416.954 114.496 416.232L116.149 416.365C115.947 417.467 115.472 418.303 114.724 418.873C113.99 419.443 113.014 419.728 111.798 419.728ZM109.1 413.933L108.853 413.876H114.648L114.534 413.933C114.534 413.667 114.484 413.369 114.382 413.04C114.294 412.698 114.173 412.413 114.021 412.185C113.781 411.83 113.477 411.571 113.109 411.406C112.755 411.241 112.318 411.159 111.798 411.159C111.279 411.159 110.823 411.254 110.43 411.444C110.038 411.621 109.746 411.868 109.556 412.185C109.278 412.641 109.126 413.179 109.1 413.8V413.933ZM121.941 419.728C121.092 419.728 120.338 419.532 119.68 419.139C119.021 418.734 118.502 418.157 118.122 417.41C117.754 416.65 117.571 415.763 117.571 414.75C117.571 413.762 117.748 412.894 118.103 412.147C118.47 411.387 118.977 410.804 119.623 410.399C120.281 409.981 121.035 409.772 121.884 409.772C122.656 409.772 123.321 409.93 123.879 410.247C124.436 410.564 124.892 411.058 125.247 411.729L124.943 412.052V406.2H126.653V419.5H124.943V417.296L125.247 417.581C124.905 418.29 124.449 418.829 123.879 419.196C123.321 419.551 122.675 419.728 121.941 419.728ZM122.245 418.379C122.637 418.379 122.986 418.322 123.29 418.208C123.606 418.094 123.879 417.923 124.107 417.695C124.398 417.404 124.62 417.011 124.772 416.517C124.924 416.023 125 415.44 125 414.769C125 413.692 124.81 412.818 124.43 412.147C124.05 411.476 123.334 411.14 122.283 411.14C121.801 411.14 121.39 411.21 121.048 411.349C120.706 411.476 120.421 411.672 120.193 411.938C119.939 412.242 119.749 412.628 119.623 413.097C119.509 413.566 119.452 414.117 119.452 414.75C119.452 415.535 119.534 416.194 119.699 416.726C119.863 417.258 120.148 417.67 120.554 417.961C120.959 418.24 121.523 418.379 122.245 418.379ZM129.067 423.3V410H130.777V412.204L130.473 411.919C130.815 411.21 131.264 410.678 131.822 410.323C132.392 409.956 133.044 409.772 133.779 409.772C134.627 409.772 135.381 409.975 136.04 410.38C136.698 410.773 137.211 411.349 137.579 412.109C137.959 412.856 138.149 413.737 138.149 414.75C138.149 415.738 137.965 416.612 137.598 417.372C137.243 418.119 136.736 418.702 136.078 419.12C135.432 419.525 134.684 419.728 133.836 419.728C133.063 419.728 132.398 419.57 131.841 419.253C131.283 418.936 130.827 418.442 130.473 417.771L130.777 417.448V423.3H129.067ZM133.437 418.36C133.867 418.36 134.247 418.309 134.577 418.208C134.906 418.094 135.178 417.929 135.394 417.714C135.698 417.423 135.919 417.03 136.059 416.536C136.198 416.042 136.268 415.447 136.268 414.75C136.268 413.547 136.065 412.641 135.66 412.033C135.254 411.425 134.526 411.121 133.475 411.121C133.031 411.121 132.639 411.197 132.297 411.349C131.955 411.488 131.67 411.704 131.442 411.995C131.201 412.299 131.017 412.679 130.891 413.135C130.777 413.591 130.72 414.123 130.72 414.731C130.72 415.808 130.91 416.682 131.29 417.353C131.67 418.024 132.385 418.36 133.437 418.36ZM142.71 419.728C141.836 419.728 141.082 419.494 140.449 419.025C139.828 418.544 139.518 417.866 139.518 416.992C139.518 416.359 139.67 415.846 139.974 415.453C140.29 415.048 140.677 414.75 141.133 414.56C141.601 414.357 142.14 414.199 142.748 414.085L145.883 413.477C145.883 413.452 145.883 413.426 145.883 413.401C145.883 413.363 145.883 413.331 145.883 413.306C145.883 412.913 145.857 412.603 145.807 412.375C145.769 412.134 145.686 411.925 145.56 411.748C145.42 411.558 145.199 411.406 144.895 411.292C144.591 411.178 144.236 411.121 143.831 411.121C143.007 411.121 142.412 411.286 142.045 411.615C141.69 411.932 141.513 412.451 141.513 413.173L139.841 412.945C139.853 412.375 139.961 411.887 140.164 411.482C140.366 411.064 140.651 410.728 141.019 410.475C141.361 410.247 141.779 410.076 142.273 409.962C142.767 409.835 143.318 409.772 143.926 409.772C144.724 409.772 145.389 409.892 145.921 410.133C146.453 410.361 146.852 410.709 147.118 411.178C147.396 411.647 147.536 412.223 147.536 412.907V417.448C147.536 417.727 147.561 417.917 147.612 418.018C147.675 418.119 147.833 418.17 148.087 418.17C148.239 418.17 148.422 418.145 148.638 418.094L148.676 419.5C148.359 419.551 148.004 419.576 147.612 419.576C147.054 419.576 146.63 419.43 146.339 419.139C146.047 418.848 145.902 418.417 145.902 417.847L146.111 417.581C145.895 418.29 145.503 418.829 144.933 419.196C144.375 419.551 143.634 419.728 142.71 419.728ZM142.976 418.36C143.964 418.36 144.692 418.138 145.161 417.695C145.642 417.239 145.883 416.644 145.883 415.909V413.933L146.681 414.579L143.014 415.377L142.881 415.415C142.336 415.542 141.931 415.719 141.665 415.947C141.399 416.162 141.266 416.504 141.266 416.973C141.266 417.404 141.43 417.746 141.76 417.999C142.089 418.24 142.494 418.36 142.976 418.36ZM150.178 419.5V410H151.888V412.28L151.698 411.976C151.9 411.254 152.255 410.709 152.762 410.342C153.281 409.962 153.965 409.772 154.814 409.772C155.434 409.772 155.973 409.861 156.429 410.038C156.897 410.203 157.303 410.469 157.645 410.836C157.961 411.178 158.164 411.596 158.253 412.09C158.341 412.571 158.386 413.16 158.386 413.857V419.5H156.619V413.952C156.619 413.939 156.619 413.927 156.619 413.914C156.619 413.901 156.619 413.889 156.619 413.876C156.619 413.331 156.587 412.901 156.524 412.584C156.46 412.267 156.302 411.989 156.049 411.748C155.808 411.507 155.555 411.355 155.289 411.292C155.023 411.229 154.712 411.197 154.358 411.197C153.737 411.197 153.167 411.412 152.648 411.843C152.141 412.261 151.888 413.065 151.888 414.256V419.5H150.178ZM164.515 419.728C163.666 419.728 162.913 419.532 162.254 419.139C161.595 418.734 161.076 418.157 160.696 417.41C160.329 416.65 160.145 415.763 160.145 414.75C160.145 413.762 160.322 412.894 160.677 412.147C161.044 411.387 161.551 410.804 162.197 410.399C162.856 409.981 163.609 409.772 164.458 409.772C165.231 409.772 165.896 409.93 166.453 410.247C167.01 410.564 167.466 411.058 167.821 411.729L167.517 412.052V406.2H169.227V419.5H167.517V417.296L167.821 417.581C167.479 418.29 167.023 418.829 166.453 419.196C165.896 419.551 165.25 419.728 164.515 419.728ZM164.819 418.379C165.212 418.379 165.56 418.322 165.864 418.208C166.181 418.094 166.453 417.923 166.681 417.695C166.972 417.404 167.194 417.011 167.346 416.517C167.498 416.023 167.574 415.44 167.574 414.769C167.574 413.692 167.384 412.818 167.004 412.147C166.624 411.476 165.908 411.14 164.857 411.14C164.376 411.14 163.964 411.21 163.622 411.349C163.28 411.476 162.995 411.672 162.767 411.938C162.514 412.242 162.324 412.628 162.197 413.097C162.083 413.566 162.026 414.117 162.026 414.75C162.026 415.535 162.108 416.194 162.273 416.726C162.438 417.258 162.723 417.67 163.128 417.961C163.533 418.24 164.097 418.379 164.819 418.379ZM174.339 419.728C173.465 419.728 172.711 419.494 172.078 419.025C171.457 418.544 171.147 417.866 171.147 416.992C171.147 416.359 171.299 415.846 171.603 415.453C171.92 415.048 172.306 414.75 172.762 414.56C173.231 414.357 173.769 414.199 174.377 414.085L177.512 413.477C177.512 413.452 177.512 413.426 177.512 413.401C177.512 413.363 177.512 413.331 177.512 413.306C177.512 412.913 177.487 412.603 177.436 412.375C177.398 412.134 177.316 411.925 177.189 411.748C177.05 411.558 176.828 411.406 176.524 411.292C176.22 411.178 175.865 411.121 175.46 411.121C174.637 411.121 174.041 411.286 173.674 411.615C173.319 411.932 173.142 412.451 173.142 413.173L171.47 412.945C171.483 412.375 171.59 411.887 171.793 411.482C171.996 411.064 172.281 410.728 172.648 410.475C172.99 410.247 173.408 410.076 173.902 409.962C174.396 409.835 174.947 409.772 175.555 409.772C176.353 409.772 177.018 409.892 177.55 410.133C178.082 410.361 178.481 410.709 178.747 411.178C179.026 411.647 179.165 412.223 179.165 412.907V417.448C179.165 417.727 179.19 417.917 179.241 418.018C179.304 418.119 179.463 418.17 179.716 418.17C179.868 418.17 180.052 418.145 180.267 418.094L180.305 419.5C179.988 419.551 179.634 419.576 179.241 419.576C178.684 419.576 178.259 419.43 177.968 419.139C177.677 418.848 177.531 418.417 177.531 417.847L177.74 417.581C177.525 418.29 177.132 418.829 176.562 419.196C176.005 419.551 175.264 419.728 174.339 419.728ZM174.605 418.36C175.593 418.36 176.321 418.138 176.79 417.695C177.271 417.239 177.512 416.644 177.512 415.909V413.933L178.31 414.579L174.643 415.377L174.51 415.415C173.965 415.542 173.56 415.719 173.294 415.947C173.028 416.162 172.895 416.504 172.895 416.973C172.895 417.404 173.06 417.746 173.389 417.999C173.718 418.24 174.124 418.36 174.605 418.36ZM116.795 445.728C115.453 445.728 114.313 445.462 113.375 444.93C112.438 444.398 111.722 443.619 111.228 442.593C110.734 441.567 110.487 440.319 110.487 438.85C110.487 437.495 110.728 436.298 111.209 435.259C111.703 434.22 112.425 433.416 113.375 432.846C114.325 432.263 115.465 431.972 116.795 431.972C117.72 431.972 118.569 432.13 119.341 432.447C120.127 432.751 120.798 433.22 121.355 433.853C121.913 434.474 122.312 435.234 122.552 436.133L120.671 436.494C120.456 435.633 120.013 434.911 119.341 434.328C118.683 433.745 117.847 433.454 116.833 433.454C116.061 433.454 115.377 433.581 114.781 433.834C114.199 434.087 113.73 434.461 113.375 434.955C113.059 435.411 112.818 435.962 112.653 436.608C112.501 437.241 112.425 437.989 112.425 438.85C112.425 439.711 112.501 440.465 112.653 441.111C112.818 441.744 113.059 442.295 113.375 442.764C113.717 443.245 114.18 443.613 114.762 443.866C115.358 444.119 116.035 444.246 116.795 444.246C117.809 444.246 118.638 443.986 119.284 443.467C119.943 442.948 120.418 442.27 120.709 441.434L122.666 441.947C122.134 443.176 121.368 444.113 120.367 444.759C119.367 445.405 118.176 445.728 116.795 445.728ZM124.208 445.5V432.2H125.918V445.5H124.208ZM124.208 445.5V444.056H125.918V445.5H124.208ZM124.208 433.644V432.2H125.12V433.644H124.208ZM131.802 445.728C131.181 445.728 130.643 445.646 130.187 445.481C129.731 445.304 129.332 445.031 128.99 444.664C128.66 444.322 128.451 443.91 128.363 443.429C128.274 442.948 128.23 442.365 128.23 441.681V436H129.997V441.586C129.997 441.599 129.997 441.611 129.997 441.624C129.997 441.637 129.997 441.649 129.997 441.662C129.997 442.194 130.028 442.618 130.092 442.935C130.155 443.239 130.307 443.511 130.548 443.752C130.788 443.993 131.042 444.145 131.308 444.208C131.586 444.271 131.909 444.303 132.277 444.303C132.923 444.303 133.493 444.113 133.987 443.733C134.481 443.34 134.728 442.542 134.728 441.339V436H136.438V445.5H134.728V443.258L134.918 443.543C134.728 444.24 134.354 444.778 133.797 445.158C133.252 445.538 132.587 445.728 131.802 445.728ZM142.263 445.728C141.11 445.728 140.148 445.449 139.375 444.892C138.602 444.335 138.222 443.499 138.235 442.384L139.793 442.232C139.78 442.891 139.996 443.416 140.439 443.809C140.882 444.189 141.478 444.379 142.225 444.379C142.998 444.379 143.58 444.252 143.973 443.999C144.366 443.733 144.562 443.347 144.562 442.84C144.562 442.574 144.454 442.352 144.239 442.175C144.036 441.998 143.777 441.865 143.46 441.776C143.156 441.675 142.757 441.567 142.263 441.453C142.136 441.428 142.01 441.402 141.883 441.377C141.756 441.339 141.63 441.307 141.503 441.282C140.844 441.117 140.306 440.946 139.888 440.769C139.483 440.579 139.141 440.307 138.862 439.952C138.583 439.597 138.444 439.129 138.444 438.546C138.444 437.925 138.609 437.406 138.938 436.988C139.28 436.57 139.717 436.266 140.249 436.076C140.794 435.873 141.364 435.772 141.959 435.772C143.061 435.772 143.973 436.019 144.695 436.513C145.417 437.007 145.829 437.799 145.93 438.888L144.334 439.135C144.321 438.476 144.106 437.976 143.688 437.634C143.27 437.292 142.687 437.121 141.94 437.121C141.433 437.121 140.99 437.241 140.61 437.482C140.23 437.71 140.04 438.027 140.04 438.432C140.04 438.799 140.217 439.072 140.572 439.249C140.927 439.426 141.446 439.597 142.13 439.762C142.155 439.775 142.187 439.781 142.225 439.781C142.263 439.781 142.295 439.787 142.32 439.8C142.358 439.813 142.39 439.825 142.415 439.838C142.453 439.838 142.491 439.838 142.529 439.838C143.34 440.003 143.986 440.174 144.467 440.351C144.948 440.516 145.354 440.788 145.683 441.168C146.012 441.548 146.177 442.074 146.177 442.745C146.177 443.809 145.803 444.575 145.056 445.044C144.309 445.5 143.378 445.728 142.263 445.728ZM150.992 445.595C150.105 445.595 149.459 445.418 149.054 445.063C148.649 444.708 148.446 444.145 148.446 443.372V437.425H147.078V436H148.446V433.359H150.137V436H152.075V437.425H150.137V443.315C150.137 443.619 150.207 443.822 150.346 443.923C150.498 444.012 150.758 444.056 151.125 444.056C151.366 444.056 151.657 444.024 151.999 443.961L152.037 445.5C151.695 445.563 151.347 445.595 150.992 445.595ZM157.543 445.728C156.809 445.728 156.156 445.614 155.586 445.386C155.016 445.158 154.529 444.81 154.123 444.341C153.731 443.898 153.439 443.378 153.249 442.783C153.059 442.175 152.964 441.491 152.964 440.731C152.964 440.022 153.066 439.369 153.268 438.774C153.471 438.166 153.769 437.64 154.161 437.197C154.579 436.728 155.073 436.374 155.643 436.133C156.213 435.892 156.84 435.772 157.524 435.772C158.297 435.772 159.013 435.937 159.671 436.266C160.33 436.583 160.849 437.045 161.229 437.653C161.521 438.109 161.736 438.66 161.875 439.306C162.015 439.939 162.065 440.592 162.027 441.263H154.826C154.852 442.314 155.086 443.093 155.529 443.6C155.973 444.107 156.638 444.36 157.524 444.36C158.335 444.36 158.962 444.189 159.405 443.847C159.849 443.492 160.127 442.954 160.241 442.232L161.894 442.365C161.692 443.467 161.217 444.303 160.469 444.873C159.735 445.443 158.759 445.728 157.543 445.728ZM154.845 439.933L154.598 439.876H160.393L160.279 439.933C160.279 439.667 160.229 439.369 160.127 439.04C160.039 438.698 159.918 438.413 159.766 438.185C159.526 437.83 159.222 437.571 158.854 437.406C158.5 437.241 158.063 437.159 157.543 437.159C157.024 437.159 156.568 437.254 156.175 437.444C155.783 437.621 155.491 437.868 155.301 438.185C155.023 438.641 154.871 439.179 154.845 439.8V439.933ZM163.866 445.5V436H165.576V438.508L165.519 438.09C165.507 437.735 165.627 437.393 165.88 437.064C166.146 436.722 166.507 436.437 166.963 436.209C167.432 435.968 167.951 435.829 168.521 435.791C168.585 435.778 168.661 435.772 168.749 435.772C168.851 435.772 168.946 435.772 169.034 435.772C169.06 435.772 169.079 435.772 169.091 435.772C169.117 435.772 169.142 435.772 169.167 435.772L169.129 437.387C169.053 437.374 168.908 437.368 168.692 437.368C168.021 437.368 167.464 437.463 167.02 437.653C166.577 437.843 166.222 438.204 165.956 438.736C165.703 439.268 165.576 440.022 165.576 440.997V445.5H163.866Z" fill="white"/>
<path d="M517 332.478V488.224C517 509.845 463.61 527.372 397.75 527.372C331.89 527.372 278.5 509.845 278.5 488.224V332.478C280.203 311.549 368.748 309.129 397.75 309.129C432.32 309.129 517 313.573 517 332.478Z" fill="white" fill-opacity="0.1"/>
<path d="M517 330.302C517 340.124 463.61 351.474 397.75 351.474C331.89 351.474 278.5 340.124 278.5 330.302C278.5 320.479 331.89 309.129 397.75 309.129C463.61 309.129 517 320.479 517 330.302Z" fill="white" fill-opacity="0.05"/>
<path d="M356.903 419.728C355.56 419.728 354.42 419.462 353.483 418.93C352.545 418.398 351.83 417.619 351.336 416.593C350.842 415.567 350.595 414.319 350.595 412.85C350.595 411.495 350.835 410.298 351.317 409.259C351.811 408.22 352.533 407.416 353.483 406.846C354.433 406.263 355.573 405.972 356.903 405.972C357.827 405.972 358.676 406.13 359.449 406.447C360.234 406.751 360.905 407.22 361.463 407.853C362.02 408.474 362.419 409.234 362.66 410.133L360.779 410.494C360.563 409.633 360.12 408.911 359.449 408.328C358.79 407.745 357.954 407.454 356.941 407.454C356.168 407.454 355.484 407.581 354.889 407.834C354.306 408.087 353.837 408.461 353.483 408.955C353.166 409.411 352.925 409.962 352.761 410.608C352.609 411.241 352.533 411.989 352.533 412.85C352.533 413.711 352.609 414.465 352.761 415.111C352.925 415.744 353.166 416.295 353.483 416.764C353.825 417.245 354.287 417.613 354.87 417.866C355.465 418.119 356.143 418.246 356.903 418.246C357.916 418.246 358.746 417.986 359.392 417.467C360.05 416.948 360.525 416.27 360.817 415.434L362.774 415.947C362.242 417.176 361.475 418.113 360.475 418.759C359.474 419.405 358.283 419.728 356.903 419.728ZM364.315 419.5V406.2H366.025V419.5H364.315ZM364.315 419.5V418.056H366.025V419.5H364.315ZM364.315 407.644V406.2H365.227V407.644H364.315ZM368.432 408.214V406.2H370.142V408.214H368.432ZM368.432 419.5V410H370.142V419.5H368.432ZM368.432 419.5V418.056H370.142V419.5H368.432ZM368.432 411.444V410H370.142V411.444H368.432ZM376.691 419.728C375.728 419.728 374.892 419.532 374.183 419.139C373.474 418.734 372.929 418.157 372.549 417.41C372.169 416.663 371.979 415.776 371.979 414.75C371.979 413.775 372.169 412.913 372.549 412.166C372.929 411.406 373.474 410.817 374.183 410.399C374.905 409.981 375.741 409.772 376.691 409.772C377.844 409.772 378.775 410.076 379.484 410.684C380.193 411.279 380.649 412.058 380.852 413.021L379.256 413.325C379.079 412.666 378.8 412.141 378.42 411.748C378.04 411.343 377.464 411.14 376.691 411.14C376.159 411.14 375.716 411.216 375.361 411.368C375.006 411.52 374.715 411.742 374.487 412.033C374.259 412.337 374.094 412.717 373.993 413.173C373.904 413.629 373.86 414.155 373.86 414.75C373.86 415.928 374.063 416.827 374.468 417.448C374.873 418.056 375.614 418.36 376.691 418.36C377.426 418.36 377.996 418.208 378.401 417.904C378.806 417.6 379.098 417.106 379.275 416.422L380.89 416.593C380.776 417.226 380.523 417.784 380.13 418.265C379.75 418.734 379.262 419.095 378.667 419.348C378.084 419.601 377.426 419.728 376.691 419.728ZM382.548 419.5V406.2H384.258V419.5H382.548ZM384.03 416.08L384.049 414.142L388.229 410H390.547L386.443 413.8L385.987 414.237L384.03 416.08ZM388.723 419.5L385.436 414.37L386.633 413.249L390.718 419.5H388.723ZM391.897 419.5V406.2H393.607V412.242L393.398 411.995C393.601 411.248 393.974 410.69 394.519 410.323C395.064 409.956 395.735 409.772 396.533 409.772C397.154 409.772 397.692 409.861 398.148 410.038C398.617 410.203 399.022 410.469 399.364 410.836C399.681 411.178 399.883 411.59 399.972 412.071C400.061 412.552 400.105 413.135 400.105 413.819V419.5H398.338V413.914C398.338 413.901 398.338 413.889 398.338 413.876C398.338 413.863 398.338 413.851 398.338 413.838C398.338 413.293 398.306 412.869 398.243 412.565C398.18 412.261 398.021 411.989 397.768 411.748C397.527 411.507 397.274 411.355 397.008 411.292C396.742 411.229 396.432 411.197 396.077 411.197C395.431 411.197 394.855 411.393 394.348 411.786C393.854 412.166 393.607 412.958 393.607 414.161V419.5H391.897ZM406.595 419.728C405.62 419.728 404.771 419.532 404.049 419.139C403.34 418.734 402.795 418.157 402.415 417.41C402.035 416.663 401.845 415.776 401.845 414.75C401.845 413.787 402.035 412.932 402.415 412.185C402.808 411.425 403.359 410.836 404.068 410.418C404.79 409.987 405.633 409.772 406.595 409.772C407.545 409.772 408.375 409.987 409.084 410.418C409.806 410.836 410.357 411.425 410.737 412.185C411.13 412.945 411.326 413.8 411.326 414.75C411.326 415.738 411.13 416.612 410.737 417.372C410.345 418.119 409.787 418.702 409.065 419.12C408.356 419.525 407.533 419.728 406.595 419.728ZM406.595 418.379C407.533 418.379 408.236 418.113 408.704 417.581C408.97 417.277 409.167 416.891 409.293 416.422C409.42 415.941 409.483 415.383 409.483 414.75C409.483 413.433 409.217 412.483 408.685 411.9C408.204 411.381 407.507 411.121 406.595 411.121C406.127 411.121 405.721 411.184 405.379 411.311C405.037 411.425 404.752 411.602 404.524 411.843C404.233 412.147 404.018 412.546 403.878 413.04C403.752 413.521 403.688 414.091 403.688 414.75C403.688 415.409 403.752 415.985 403.878 416.479C404.018 416.96 404.233 417.353 404.524 417.657C404.98 418.138 405.671 418.379 406.595 418.379ZM416.652 419.728C416.031 419.728 415.493 419.646 415.037 419.481C414.581 419.304 414.182 419.031 413.84 418.664C413.511 418.322 413.302 417.91 413.213 417.429C413.124 416.948 413.08 416.365 413.08 415.681V410H414.847V415.586C414.847 415.599 414.847 415.611 414.847 415.624C414.847 415.637 414.847 415.649 414.847 415.662C414.847 416.194 414.879 416.618 414.942 416.935C415.005 417.239 415.157 417.511 415.398 417.752C415.639 417.993 415.892 418.145 416.158 418.208C416.437 418.271 416.76 418.303 417.127 418.303C417.773 418.303 418.343 418.113 418.837 417.733C419.331 417.34 419.578 416.542 419.578 415.339V410H421.288V419.5H419.578V417.258L419.768 417.543C419.578 418.24 419.204 418.778 418.647 419.158C418.102 419.538 417.437 419.728 416.652 419.728ZM427.113 419.728C425.96 419.728 424.998 419.449 424.225 418.892C423.452 418.335 423.072 417.499 423.085 416.384L424.643 416.232C424.63 416.891 424.846 417.416 425.289 417.809C425.732 418.189 426.328 418.379 427.075 418.379C427.848 418.379 428.43 418.252 428.823 417.999C429.216 417.733 429.412 417.347 429.412 416.84C429.412 416.574 429.304 416.352 429.089 416.175C428.886 415.998 428.627 415.865 428.31 415.776C428.006 415.675 427.607 415.567 427.113 415.453C426.986 415.428 426.86 415.402 426.733 415.377C426.606 415.339 426.48 415.307 426.353 415.282C425.694 415.117 425.156 414.946 424.738 414.769C424.333 414.579 423.991 414.307 423.712 413.952C423.433 413.597 423.294 413.129 423.294 412.546C423.294 411.925 423.459 411.406 423.788 410.988C424.13 410.57 424.567 410.266 425.099 410.076C425.644 409.873 426.214 409.772 426.809 409.772C427.911 409.772 428.823 410.019 429.545 410.513C430.267 411.007 430.679 411.799 430.78 412.888L429.184 413.135C429.171 412.476 428.956 411.976 428.538 411.634C428.12 411.292 427.537 411.121 426.79 411.121C426.283 411.121 425.84 411.241 425.46 411.482C425.08 411.71 424.89 412.027 424.89 412.432C424.89 412.799 425.067 413.072 425.422 413.249C425.777 413.426 426.296 413.597 426.98 413.762C427.005 413.775 427.037 413.781 427.075 413.781C427.113 413.781 427.145 413.787 427.17 413.8C427.208 413.813 427.24 413.825 427.265 413.838C427.303 413.838 427.341 413.838 427.379 413.838C428.19 414.003 428.836 414.174 429.317 414.351C429.798 414.516 430.204 414.788 430.533 415.168C430.862 415.548 431.027 416.074 431.027 416.745C431.027 417.809 430.653 418.575 429.906 419.044C429.159 419.5 428.228 419.728 427.113 419.728ZM436.885 419.728C436.15 419.728 435.498 419.614 434.928 419.386C434.358 419.158 433.87 418.81 433.465 418.341C433.072 417.898 432.781 417.378 432.591 416.783C432.401 416.175 432.306 415.491 432.306 414.731C432.306 414.022 432.407 413.369 432.61 412.774C432.813 412.166 433.11 411.64 433.503 411.197C433.921 410.728 434.415 410.374 434.985 410.133C435.555 409.892 436.182 409.772 436.866 409.772C437.639 409.772 438.354 409.937 439.013 410.266C439.672 410.583 440.191 411.045 440.571 411.653C440.862 412.109 441.078 412.66 441.217 413.306C441.356 413.939 441.407 414.592 441.369 415.263H434.168C434.193 416.314 434.428 417.093 434.871 417.6C435.314 418.107 435.979 418.36 436.866 418.36C437.677 418.36 438.304 418.189 438.747 417.847C439.19 417.492 439.469 416.954 439.583 416.232L441.236 416.365C441.033 417.467 440.558 418.303 439.811 418.873C439.076 419.443 438.101 419.728 436.885 419.728ZM434.187 413.933L433.94 413.876H439.735L439.621 413.933C439.621 413.667 439.57 413.369 439.469 413.04C439.38 412.698 439.26 412.413 439.108 412.185C438.867 411.83 438.563 411.571 438.196 411.406C437.841 411.241 437.404 411.159 436.885 411.159C436.366 411.159 435.91 411.254 435.517 411.444C435.124 411.621 434.833 411.868 434.643 412.185C434.364 412.641 434.212 413.179 434.187 413.8V413.933ZM375.295 445.728C373.953 445.728 372.813 445.462 371.875 444.93C370.938 444.398 370.222 443.619 369.728 442.593C369.234 441.567 368.987 440.319 368.987 438.85C368.987 437.495 369.228 436.298 369.709 435.259C370.203 434.22 370.925 433.416 371.875 432.846C372.825 432.263 373.965 431.972 375.295 431.972C376.22 431.972 377.069 432.13 377.841 432.447C378.627 432.751 379.298 433.22 379.855 433.853C380.413 434.474 380.812 435.234 381.052 436.133L379.171 436.494C378.956 435.633 378.513 434.911 377.841 434.328C377.183 433.745 376.347 433.454 375.333 433.454C374.561 433.454 373.877 433.581 373.281 433.834C372.699 434.087 372.23 434.461 371.875 434.955C371.559 435.411 371.318 435.962 371.153 436.608C371.001 437.241 370.925 437.989 370.925 438.85C370.925 439.711 371.001 440.465 371.153 441.111C371.318 441.744 371.559 442.295 371.875 442.764C372.217 443.245 372.68 443.613 373.262 443.866C373.858 444.119 374.535 444.246 375.295 444.246C376.309 444.246 377.138 443.986 377.784 443.467C378.443 442.948 378.918 442.27 379.209 441.434L381.166 441.947C380.634 443.176 379.868 444.113 378.867 444.759C377.867 445.405 376.676 445.728 375.295 445.728ZM382.708 445.5V432.2H384.418V445.5H382.708ZM382.708 445.5V444.056H384.418V445.5H382.708ZM382.708 433.644V432.2H383.62V433.644H382.708ZM390.302 445.728C389.681 445.728 389.143 445.646 388.687 445.481C388.231 445.304 387.832 445.031 387.49 444.664C387.16 444.322 386.951 443.91 386.863 443.429C386.774 442.948 386.73 442.365 386.73 441.681V436H388.497V441.586C388.497 441.599 388.497 441.611 388.497 441.624C388.497 441.637 388.497 441.649 388.497 441.662C388.497 442.194 388.528 442.618 388.592 442.935C388.655 443.239 388.807 443.511 389.048 443.752C389.288 443.993 389.542 444.145 389.808 444.208C390.086 444.271 390.409 444.303 390.777 444.303C391.423 444.303 391.993 444.113 392.487 443.733C392.981 443.34 393.228 442.542 393.228 441.339V436H394.938V445.5H393.228V443.258L393.418 443.543C393.228 444.24 392.854 444.778 392.297 445.158C391.752 445.538 391.087 445.728 390.302 445.728ZM400.763 445.728C399.61 445.728 398.648 445.449 397.875 444.892C397.102 444.335 396.722 443.499 396.735 442.384L398.293 442.232C398.28 442.891 398.496 443.416 398.939 443.809C399.382 444.189 399.978 444.379 400.725 444.379C401.498 444.379 402.08 444.252 402.473 443.999C402.866 443.733 403.062 443.347 403.062 442.84C403.062 442.574 402.954 442.352 402.739 442.175C402.536 441.998 402.277 441.865 401.96 441.776C401.656 441.675 401.257 441.567 400.763 441.453C400.636 441.428 400.51 441.402 400.383 441.377C400.256 441.339 400.13 441.307 400.003 441.282C399.344 441.117 398.806 440.946 398.388 440.769C397.983 440.579 397.641 440.307 397.362 439.952C397.083 439.597 396.944 439.129 396.944 438.546C396.944 437.925 397.109 437.406 397.438 436.988C397.78 436.57 398.217 436.266 398.749 436.076C399.294 435.873 399.864 435.772 400.459 435.772C401.561 435.772 402.473 436.019 403.195 436.513C403.917 437.007 404.329 437.799 404.43 438.888L402.834 439.135C402.821 438.476 402.606 437.976 402.188 437.634C401.77 437.292 401.187 437.121 400.44 437.121C399.933 437.121 399.49 437.241 399.11 437.482C398.73 437.71 398.54 438.027 398.54 438.432C398.54 438.799 398.717 439.072 399.072 439.249C399.427 439.426 399.946 439.597 400.63 439.762C400.655 439.775 400.687 439.781 400.725 439.781C400.763 439.781 400.795 439.787 400.82 439.8C400.858 439.813 400.89 439.825 400.915 439.838C400.953 439.838 400.991 439.838 401.029 439.838C401.84 440.003 402.486 440.174 402.967 440.351C403.448 440.516 403.854 440.788 404.183 441.168C404.512 441.548 404.677 442.074 404.677 442.745C404.677 443.809 404.303 444.575 403.556 445.044C402.809 445.5 401.878 445.728 400.763 445.728ZM409.492 445.595C408.605 445.595 407.959 445.418 407.554 445.063C407.149 444.708 406.946 444.145 406.946 443.372V437.425H405.578V436H406.946V433.359H408.637V436H410.575V437.425H408.637V443.315C408.637 443.619 408.707 443.822 408.846 443.923C408.998 444.012 409.258 444.056 409.625 444.056C409.866 444.056 410.157 444.024 410.499 443.961L410.537 445.5C410.195 445.563 409.847 445.595 409.492 445.595ZM416.043 445.728C415.309 445.728 414.656 445.614 414.086 445.386C413.516 445.158 413.029 444.81 412.623 444.341C412.231 443.898 411.939 443.378 411.749 442.783C411.559 442.175 411.464 441.491 411.464 440.731C411.464 440.022 411.566 439.369 411.768 438.774C411.971 438.166 412.269 437.64 412.661 437.197C413.079 436.728 413.573 436.374 414.143 436.133C414.713 435.892 415.34 435.772 416.024 435.772C416.797 435.772 417.513 435.937 418.171 436.266C418.83 436.583 419.349 437.045 419.729 437.653C420.021 438.109 420.236 438.66 420.375 439.306C420.515 439.939 420.565 440.592 420.527 441.263H413.326C413.352 442.314 413.586 443.093 414.029 443.6C414.473 444.107 415.138 444.36 416.024 444.36C416.835 444.36 417.462 444.189 417.905 443.847C418.349 443.492 418.627 442.954 418.741 442.232L420.394 442.365C420.192 443.467 419.717 444.303 418.969 444.873C418.235 445.443 417.259 445.728 416.043 445.728ZM413.345 439.933L413.098 439.876H418.893L418.779 439.933C418.779 439.667 418.729 439.369 418.627 439.04C418.539 438.698 418.418 438.413 418.266 438.185C418.026 437.83 417.722 437.571 417.354 437.406C417 437.241 416.563 437.159 416.043 437.159C415.524 437.159 415.068 437.254 414.675 437.444C414.283 437.621 413.991 437.868 413.801 438.185C413.523 438.641 413.371 439.179 413.345 439.8V439.933ZM422.366 445.5V436H424.076V438.508L424.019 438.09C424.007 437.735 424.127 437.393 424.38 437.064C424.646 436.722 425.007 436.437 425.463 436.209C425.932 435.968 426.451 435.829 427.021 435.791C427.085 435.778 427.161 435.772 427.249 435.772C427.351 435.772 427.446 435.772 427.534 435.772C427.56 435.772 427.579 435.772 427.591 435.772C427.617 435.772 427.642 435.772 427.667 435.772L427.629 437.387C427.553 437.374 427.408 437.368 427.192 437.368C426.521 437.368 425.964 437.463 425.52 437.653C425.077 437.843 424.722 438.204 424.456 438.736C424.203 439.268 424.076 440.022 424.076 440.997V445.5H422.366Z" fill="white"/>
</svg>
