<svg width="418" height="386" viewBox="0 0 418 386" fill="none" xmlns="http://www.w3.org/2000/svg">
<rect x="0.83895" width="236.945" height="236.945" rx="77.0128" transform="matrix(0.866044 -0.499967 0.866044 0.499967 15.5264 260.123)" fill="black" stroke="white" stroke-width="0.968715"/>
<rect x="0.83895" width="236.945" height="236.945" rx="77.0128" transform="matrix(0.866044 -0.499967 0.866044 0.499967 15.5264 193.175)" fill="black" stroke="white" stroke-width="0.968715"/>
<rect x="0.83895" width="236.945" height="236.945" rx="77.0128" transform="matrix(0.866044 -0.499967 0.866044 0.499967 15.5255 125.144)" fill="black" stroke="white" stroke-width="0.968715"/>
<path d="M26.7026 124.658C25.3232 124.658 24.2744 124.145 23.5562 123.119C22.838 122.093 22.4789 120.583 22.4789 118.588C22.4789 117.38 22.6328 116.325 22.9406 115.424C23.2598 114.512 23.7329 113.806 24.3599 113.304C24.9983 112.791 25.7792 112.535 26.7026 112.535C27.626 112.535 28.4069 112.791 29.0453 113.304C29.6837 113.806 30.1568 114.512 30.4646 115.424C30.7838 116.336 30.9434 117.391 30.9434 118.588C30.9434 119.808 30.7838 120.874 30.4646 121.786C30.1568 122.686 29.6837 123.393 29.0453 123.906C28.4183 124.408 27.6374 124.658 26.7026 124.658ZM26.7026 123.376C27.0902 123.376 27.4265 123.319 27.7115 123.205C27.9965 123.08 28.2416 122.897 28.4468 122.658C28.7546 122.282 28.9712 121.763 29.0966 121.102C29.2334 120.429 29.3018 119.591 29.3018 118.588C29.3018 117.505 29.2277 116.627 29.0795 115.955C28.9313 115.271 28.6691 114.752 28.2929 114.398C27.9167 114.034 27.3866 113.851 26.7026 113.851C26.201 113.851 25.7849 113.954 25.4543 114.159C25.1237 114.353 24.8558 114.644 24.6506 115.031C24.4568 115.419 24.32 115.909 24.2402 116.502C24.1604 117.083 24.1205 117.779 24.1205 118.588C24.1205 119.694 24.1946 120.594 24.3428 121.29C24.491 121.974 24.7532 122.492 25.1294 122.846C25.5056 123.199 26.03 123.376 26.7026 123.376ZM34.7723 124.453V114.723L34.9775 115.117C34.8293 115.504 34.5101 115.789 34.0199 115.972C33.5411 116.154 32.9654 116.245 32.2928 116.245C32.1674 116.245 32.0135 116.234 31.8311 116.211V114.894C32.8001 114.894 33.5525 114.718 34.0883 114.364C34.6355 114.011 34.9718 113.469 35.0972 112.74H36.2942V124.453H34.7723ZM34.7723 124.453V123.102H36.2942V124.453H34.7723Z" fill="#7F7F7F"/>
<path d="M22.4085 198.175C21.0291 198.175 19.9803 197.662 19.2621 196.636C18.5439 195.61 18.1848 194.1 18.1848 192.105C18.1848 190.896 18.3387 189.842 18.6465 188.941C18.9657 188.029 19.4388 187.322 20.0658 186.821C20.7042 186.308 21.4851 186.051 22.4085 186.051C23.3319 186.051 24.1128 186.308 24.7512 186.821C25.3896 187.322 25.8627 188.029 26.1705 188.941C26.4897 189.853 26.6493 190.908 26.6493 192.105C26.6493 193.325 26.4897 194.39 26.1705 195.302C25.8627 196.203 25.3896 196.91 24.7512 197.423C24.1242 197.924 23.3433 198.175 22.4085 198.175ZM22.4085 196.893C22.7961 196.893 23.1324 196.836 23.4174 196.722C23.7024 196.596 23.9475 196.414 24.1527 196.175C24.4605 195.798 24.6771 195.28 24.8025 194.618C24.9393 193.946 25.0077 193.108 25.0077 192.105C25.0077 191.022 24.9336 190.144 24.7854 189.471C24.6372 188.787 24.375 188.269 23.9988 187.915C23.6226 187.55 23.0925 187.368 22.4085 187.368C21.9069 187.368 21.4908 187.471 21.1602 187.676C20.8296 187.87 20.5617 188.16 20.3565 188.548C20.1627 188.936 20.0259 189.426 19.9461 190.019C19.8663 190.6 19.8264 191.295 19.8264 192.105C19.8264 193.211 19.9005 194.111 20.0487 194.807C20.1969 195.491 20.4591 196.009 20.8353 196.363C21.2115 196.716 21.7359 196.893 22.4085 196.893ZM27.6909 197.97C27.7593 197.069 27.9474 196.3 28.2552 195.662C28.5744 195.012 28.962 194.476 29.418 194.054C29.874 193.621 30.4155 193.205 31.0425 192.806C31.1223 192.76 31.2021 192.715 31.2819 192.669C31.3617 192.612 31.4415 192.561 31.5213 192.515C32.0229 192.207 32.4333 191.934 32.7525 191.694C33.0831 191.444 33.3681 191.136 33.6075 190.771C33.8469 190.406 33.9666 189.996 33.9666 189.54C33.9666 188.822 33.7899 188.274 33.4365 187.898C33.0945 187.522 32.5929 187.334 31.9317 187.334C31.0425 187.334 30.444 187.602 30.1362 188.138C29.8284 188.662 29.6745 189.255 29.6745 189.916L28.1526 189.677C28.1412 189.118 28.2552 188.565 28.4946 188.018C28.734 187.459 29.1387 186.992 29.7087 186.616C30.2901 186.239 31.0539 186.051 32.0001 186.051C32.6955 186.051 33.3054 186.194 33.8298 186.479C34.3656 186.764 34.776 187.174 35.061 187.71C35.346 188.234 35.4885 188.85 35.4885 189.557C35.4885 190.172 35.3517 190.72 35.0781 191.198C34.8045 191.677 34.4682 192.088 34.0692 192.43C33.6702 192.76 33.18 193.108 32.5986 193.473L32.5644 193.49C32.5302 193.513 32.496 193.535 32.4618 193.558C32.4276 193.57 32.3934 193.587 32.3592 193.61C31.7436 193.986 31.2306 194.333 30.8202 194.653C30.4212 194.96 30.0792 195.32 29.7942 195.73C29.5206 196.14 29.3781 196.591 29.3667 197.081L28.6827 196.619H35.5056V197.97H27.6909Z" fill="#7F7F7F"/>
<path d="M23.2081 261.185C21.8287 261.185 20.7799 260.672 20.0617 259.646C19.3435 258.62 18.9844 257.11 18.9844 255.115C18.9844 253.906 19.1383 252.852 19.4461 251.951C19.7653 251.039 20.2384 250.333 20.8654 249.831C21.5038 249.318 22.2847 249.061 23.2081 249.061C24.1315 249.061 24.9124 249.318 25.5508 249.831C26.1892 250.333 26.6623 251.039 26.9701 251.951C27.2893 252.863 27.4489 253.918 27.4489 255.115C27.4489 256.335 27.2893 257.401 26.9701 258.313C26.6623 259.213 26.1892 259.92 25.5508 260.433C24.9238 260.935 24.1429 261.185 23.2081 261.185ZM23.2081 259.903C23.5957 259.903 23.932 259.846 24.217 259.732C24.502 259.606 24.7471 259.424 24.9523 259.185C25.2601 258.808 25.4767 258.29 25.6021 257.629C25.7389 256.956 25.8073 256.118 25.8073 255.115C25.8073 254.032 25.7332 253.154 25.585 252.481C25.4368 251.797 25.1746 251.279 24.7984 250.925C24.4222 250.561 23.8921 250.378 23.2081 250.378C22.7065 250.378 22.2904 250.481 21.9598 250.686C21.6292 250.88 21.3613 251.17 21.1561 251.558C20.9623 251.946 20.8255 252.436 20.7457 253.029C20.6659 253.61 20.626 254.305 20.626 255.115C20.626 256.221 20.7001 257.121 20.8483 257.817C20.9965 258.501 21.2587 259.019 21.6349 259.373C22.0111 259.726 22.5355 259.903 23.2081 259.903ZM32.5774 261.185C31.7566 261.185 31.0498 261.026 30.457 260.707C29.8756 260.376 29.431 259.926 29.1232 259.356C28.8268 258.774 28.6843 258.119 28.6957 257.389L30.1834 257.167C30.172 257.965 30.3715 258.62 30.7819 259.133C31.1923 259.646 31.7908 259.903 32.5774 259.903C33.364 259.903 33.9682 259.703 34.39 259.304C34.8232 258.905 35.0398 258.341 35.0398 257.611C35.0398 256.893 34.8232 256.369 34.39 256.038C33.9682 255.708 33.3982 255.542 32.68 255.542H31.7224V254.174H32.4748C32.8624 254.174 33.2158 254.106 33.535 253.969C33.8542 253.821 34.105 253.61 34.2874 253.336C34.4812 253.051 34.5781 252.715 34.5781 252.328C34.5781 251.712 34.4014 251.227 34.048 250.874C33.6946 250.509 33.1987 250.327 32.5603 250.327C31.9675 250.327 31.5058 250.481 31.1752 250.789C30.856 251.085 30.6394 251.427 30.5254 251.815C30.4228 252.202 30.3772 252.55 30.3886 252.858L28.8496 252.618C28.861 251.934 29.0263 251.324 29.3455 250.789C29.6647 250.241 30.1036 249.82 30.6622 249.523C31.2208 249.215 31.8535 249.061 32.5603 249.061C33.2101 249.061 33.7972 249.181 34.3216 249.421C34.8574 249.66 35.2849 250.025 35.6041 250.515C35.9233 251.005 36.0829 251.615 36.0829 252.345C36.0829 252.915 35.9062 253.439 35.5528 253.918C35.2108 254.385 34.7491 254.704 34.1677 254.875L34.0993 254.568C34.9087 254.636 35.5186 254.967 35.929 255.559C36.3508 256.141 36.5617 256.819 36.5617 257.594C36.5617 258.37 36.385 259.025 36.0316 259.561C35.6782 260.097 35.1994 260.501 34.5952 260.775C33.991 261.049 33.3184 261.185 32.5774 261.185Z" fill="#7F7F7F"/>
</svg>
