<svg width="1387" height="1133" viewBox="0 0 1387 1133" fill="none" xmlns="http://www.w3.org/2000/svg">
<g clip-path="url(#clip0_1_858)">
<g clip-path="url(#clip1_1_858)">
<path d="M633.896 396.496C662.594 379.928 709.123 379.928 737.821 396.496L1276.5 707.476C1305.2 724.043 1305.2 750.904 1276.5 767.472L756.874 1067.45C728.176 1084.02 681.647 1084.02 652.949 1067.45L114.269 756.472C85.5709 739.905 85.5709 713.044 114.269 696.476L633.896 396.496Z" fill="black"/>
<rect width="132.4" height="42" transform="matrix(0.866044 0.499967 -0.866044 0.499967 157.571 711.475)" fill="black"/>
<rect width="132.4" height="42" transform="matrix(0.866044 0.499967 -0.866044 0.499967 272.236 777.671)" fill="black"/>
<rect width="132.4" height="42" transform="matrix(0.866044 0.499967 -0.866044 0.499967 386.9 843.867)" fill="black"/>
<rect width="132.4" height="42" transform="matrix(0.866044 0.499967 -0.866044 0.499967 501.564 910.062)" fill="black"/>
<g clip-path="url(#clip2_1_858)">
<rect width="132.4" height="70" transform="matrix(0.866044 0.499967 -0.866044 0.499967 640.478 962.259)" fill="black"/>
<g clip-path="url(#clip3_1_858)">
<rect width="132.4" height="50" transform="matrix(0.866044 0.499967 -0.866044 0.499967 631.817 967.259)" fill="black"/>
<path d="M689.242 1036.84C686.727 1035.39 685.75 1033.74 686.311 1031.91C686.872 1030.07 688.972 1028.1 692.609 1026C694.812 1024.73 697.016 1023.78 699.219 1023.16C701.464 1022.54 703.615 1022.29 705.673 1022.42C707.772 1022.55 709.663 1023.11 711.347 1024.08C713.03 1025.05 713.987 1026.14 714.215 1027.35C714.465 1028.55 714.039 1029.8 712.937 1031.08C711.856 1032.38 710.224 1033.65 708.042 1034.91C705.818 1036.2 703.584 1037.15 701.339 1037.78C699.136 1038.4 696.984 1038.65 694.885 1038.51C692.827 1038.38 690.946 1037.82 689.242 1036.84ZM691.58 1035.49C692.287 1035.9 693.004 1036.19 693.732 1036.37C694.48 1036.54 695.259 1036.61 696.07 1036.57C697.317 1036.5 698.658 1036.18 700.092 1035.62C701.567 1035.05 703.22 1034.24 705.049 1033.19C707.024 1032.05 708.489 1031.04 709.445 1030.18C710.422 1029.3 710.89 1028.48 710.848 1027.71C710.827 1026.93 710.193 1026.18 708.946 1025.46C708.032 1024.94 707.086 1024.61 706.109 1024.47C705.153 1024.33 704.134 1024.35 703.054 1024.55C701.994 1024.75 700.85 1025.12 699.624 1025.66C698.419 1026.19 697.078 1026.88 695.602 1027.73C693.586 1028.9 692.079 1029.92 691.081 1030.81C690.105 1031.69 689.637 1032.51 689.678 1033.28C689.72 1034.04 690.354 1034.78 691.58 1035.49ZM706.325 1046.7C704.828 1045.84 703.83 1044.93 703.332 1043.97C702.874 1043.01 702.885 1042.06 703.363 1041.14C703.882 1040.22 704.818 1039.38 706.169 1038.62L709.286 1039.95C707.811 1040.78 706.979 1041.68 706.792 1042.65C706.605 1043.62 707.229 1044.52 708.663 1045.35C710.097 1046.18 711.562 1046.61 713.059 1046.63C714.576 1046.67 716 1046.3 717.33 1045.53C718.64 1044.78 719.201 1044 719.014 1043.19C718.848 1042.4 718.11 1041.63 716.8 1040.87L715.054 1039.86L717.549 1038.42L718.92 1039.21C719.627 1039.62 720.396 1039.92 721.227 1040.11C722.08 1040.29 722.921 1040.34 723.753 1040.24C724.626 1040.14 725.416 1039.89 726.122 1039.48C727.245 1038.84 727.806 1038.14 727.806 1037.4C727.827 1036.64 727.255 1035.93 726.091 1035.25C725.01 1034.63 723.888 1034.31 722.724 1034.28C721.602 1034.26 720.583 1034.39 719.669 1034.68C718.775 1034.98 718.058 1035.3 717.517 1035.63L715.148 1033.76C716.416 1033.05 717.829 1032.58 719.388 1032.36C720.968 1032.12 722.537 1032.13 724.096 1032.41C725.675 1032.67 727.11 1033.18 728.398 1033.92C729.583 1034.61 730.435 1035.35 730.955 1036.15C731.495 1036.97 731.61 1037.8 731.298 1038.66C730.986 1039.51 730.165 1040.32 728.835 1041.09C727.796 1041.69 726.517 1042.05 725 1042.18C723.524 1042.32 722.1 1042.17 720.729 1041.73L721.165 1041.34C722.516 1042.26 723.025 1043.25 722.693 1044.31C722.402 1045.36 721.55 1046.3 720.136 1047.12C718.723 1047.93 717.206 1048.44 715.584 1048.63C713.963 1048.82 712.352 1048.74 710.752 1048.39C709.151 1048.05 707.676 1047.48 706.325 1046.7Z" fill="white"/>
</g>
</g>
</g>
<path d="M1277.37 706.976L738.687 395.996C709.511 379.152 662.206 379.152 633.03 395.996L113.403 695.976C84.2266 712.82 84.2266 740.129 113.403 756.972L652.083 1067.95C681.259 1084.8 728.564 1084.8 757.74 1067.95L1277.37 767.972C1306.54 751.128 1306.54 723.819 1277.37 706.976Z" stroke="white" stroke-width="2"/>
</g>
<g clip-path="url(#clip4_1_858)">
<g clip-path="url(#clip5_1_858)">
<path d="M633.896 234.496C662.594 217.928 709.123 217.928 737.822 234.496L1276.5 545.476C1305.2 562.043 1305.2 588.904 1276.5 605.472L756.875 905.452C728.176 922.02 681.647 922.02 652.949 905.452L114.27 594.472C85.5714 577.905 85.5714 551.044 114.27 534.476L633.896 234.496Z" fill="black"/>
<rect width="132.4" height="42" transform="matrix(0.866044 0.499967 -0.866044 0.499967 157.572 549.475)" fill="black"/>
<rect width="132.4" height="42" transform="matrix(0.866044 0.499967 -0.866044 0.499967 272.236 615.671)" fill="black"/>
<rect width="132.4" height="42" transform="matrix(0.866044 0.499967 -0.866044 0.499967 386.9 681.867)" fill="black"/>
<rect width="132.4" height="42" transform="matrix(0.866044 0.499967 -0.866044 0.499967 501.564 748.062)" fill="black"/>
<g clip-path="url(#clip6_1_858)">
<rect width="132.4" height="70" transform="matrix(0.866044 0.499967 -0.866044 0.499967 640.478 800.259)" fill="black"/>
<g clip-path="url(#clip7_1_858)">
<rect width="132.4" height="50" transform="matrix(0.866044 0.499967 -0.866044 0.499967 631.817 805.259)" fill="black"/>
<path d="M689.608 875.051C687.093 873.599 686.116 871.955 686.677 870.119C687.238 868.283 689.338 866.315 692.975 864.215C695.178 862.943 697.381 861.995 699.585 861.371C701.829 860.747 703.981 860.501 706.038 860.633C708.138 860.765 710.029 861.317 711.713 862.289C713.396 863.261 714.352 864.353 714.581 865.565C714.83 866.765 714.404 868.007 713.303 869.291C712.222 870.587 710.59 871.865 708.408 873.125C706.184 874.409 703.949 875.363 701.705 875.986C699.501 876.61 697.35 876.856 695.251 876.724C693.193 876.592 691.312 876.034 689.608 875.051ZM691.946 873.701C692.653 874.109 693.37 874.403 694.097 874.583C694.846 874.751 695.625 874.817 696.436 874.781C697.683 874.709 699.023 874.391 700.458 873.827C701.933 873.263 703.586 872.453 705.415 871.397C707.389 870.257 708.855 869.255 709.811 868.391C710.788 867.515 711.255 866.693 711.214 865.925C711.193 865.145 710.559 864.395 709.312 863.675C708.397 863.147 707.452 862.817 706.475 862.685C705.519 862.541 704.5 862.565 703.419 862.757C702.359 862.961 701.216 863.333 699.99 863.873C698.784 864.401 697.444 865.091 695.968 865.943C693.952 867.107 692.445 868.133 691.447 869.021C690.47 869.897 690.003 870.719 690.044 871.487C690.086 872.255 690.72 872.993 691.946 873.701ZM699.613 880.395C701.38 879.519 703.126 878.907 704.851 878.559C706.618 878.211 708.301 878.055 709.902 878.091C711.523 878.115 713.269 878.247 715.14 878.487C715.368 878.523 715.597 878.559 715.825 878.595C716.075 878.619 716.314 878.649 716.543 878.685C718.018 878.889 719.265 879.033 720.284 879.117C721.344 879.201 722.425 879.177 723.526 879.045C724.628 878.913 725.594 878.607 726.426 878.127C727.735 877.371 728.411 876.609 728.452 875.841C728.515 875.085 727.943 874.359 726.738 873.663C725.116 872.727 723.537 872.379 721.999 872.619C720.481 872.847 719.12 873.309 717.914 874.005L715.576 872.151C716.574 871.551 717.79 871.089 719.224 870.765C720.679 870.429 722.269 870.363 723.994 870.567C725.74 870.783 727.475 871.389 729.201 872.385C730.469 873.117 731.321 873.909 731.757 874.761C732.214 875.625 732.214 876.489 731.757 877.353C731.321 878.205 730.458 879.003 729.169 879.747C728.047 880.395 726.8 880.827 725.428 881.043C724.056 881.259 722.695 881.337 721.344 881.277C720.014 881.205 718.486 881.055 716.761 880.827L716.667 880.809C716.563 880.797 716.459 880.785 716.355 880.773C716.272 880.749 716.179 880.731 716.075 880.719C714.267 880.467 712.697 880.293 711.367 880.197C710.078 880.101 708.8 880.119 707.532 880.251C706.285 880.395 705.204 880.719 704.29 881.223L703.884 880.017L716.324 887.198L713.861 888.62L699.613 880.395Z" fill="white"/>
</g>
</g>
</g>
<path d="M1277.37 544.976L738.688 233.996C709.511 217.152 662.207 217.152 633.03 233.996L113.404 533.976C84.2271 550.82 84.2271 578.129 113.404 594.972L652.083 905.952C681.26 922.796 728.564 922.796 757.741 905.952L1277.37 605.972C1306.54 589.128 1306.54 561.819 1277.37 544.976Z" stroke="white" stroke-width="2"/>
</g>
<g clip-path="url(#clip8_1_858)">
<g clip-path="url(#clip9_1_858)">
<path d="M633.896 63.4958C662.594 46.9284 709.123 46.9284 737.821 63.4958L1276.5 374.476C1305.2 391.043 1305.2 417.904 1276.5 434.472L756.874 734.452C728.176 751.02 681.647 751.02 652.949 734.452L114.269 423.472C85.5709 406.905 85.5709 380.044 114.269 363.476L633.896 63.4958Z" fill="black"/>
<rect width="132.4" height="42" transform="matrix(0.866044 0.499967 -0.866044 0.499967 157.571 378.475)" fill="black"/>
<rect width="132.4" height="42" transform="matrix(0.866044 0.499967 -0.866044 0.499967 272.236 444.671)" fill="black"/>
<rect width="132.4" height="42" transform="matrix(0.866044 0.499967 -0.866044 0.499967 386.9 510.867)" fill="black"/>
<rect width="132.4" height="42" transform="matrix(0.866044 0.499967 -0.866044 0.499967 501.564 577.062)" fill="black"/>
<g clip-path="url(#clip10_1_858)">
<rect width="132.4" height="70" transform="matrix(0.866044 0.499967 -0.866044 0.499967 640.478 629.259)" fill="black"/>
<g clip-path="url(#clip11_1_858)">
<rect width="132.4" height="50" transform="matrix(0.866044 0.499967 -0.866044 0.499967 631.817 634.259)" fill="black"/>
<path d="M694.844 707.074C692.329 705.622 691.352 703.978 691.913 702.142C692.475 700.306 694.574 698.338 698.211 696.238C700.415 694.967 702.618 694.019 704.821 693.395C707.066 692.771 709.217 692.525 711.275 692.657C713.374 692.789 715.265 693.341 716.949 694.313C718.633 695.285 719.589 696.376 719.817 697.588C720.067 698.788 719.641 700.03 718.539 701.314C717.458 702.61 715.827 703.888 713.644 705.148C711.42 706.432 709.186 707.386 706.941 708.01C704.738 708.634 702.587 708.88 700.487 708.748C698.43 708.616 696.549 708.058 694.844 707.074ZM697.182 705.724C697.889 706.132 698.606 706.426 699.334 706.606C700.082 706.774 700.861 706.84 701.672 706.804C702.919 706.732 704.26 706.414 705.694 705.85C707.17 705.286 708.822 704.476 710.651 703.42C712.626 702.28 714.091 701.278 715.047 700.414C716.024 699.538 716.492 698.716 716.45 697.948C716.429 697.168 715.795 696.418 714.548 695.699C713.634 695.171 712.688 694.841 711.711 694.709C710.755 694.565 709.737 694.589 708.656 694.781C707.596 694.985 706.453 695.357 705.226 695.897C704.021 696.424 702.68 697.114 701.204 697.966C699.188 699.13 697.681 700.156 696.684 701.044C695.707 701.92 695.239 702.742 695.281 703.51C695.322 704.278 695.956 705.016 697.182 705.724ZM709.931 715.352L727.671 705.11L727.329 705.74C726.352 705.992 725.25 705.956 724.024 705.632C722.818 705.32 721.602 704.81 720.376 704.102C720.147 703.97 719.887 703.796 719.596 703.58L721.997 702.195C723.764 703.214 725.458 703.82 727.079 704.012C728.721 704.216 730.322 704 731.88 703.364L734.063 704.624L712.706 716.954L709.931 715.352ZM709.931 715.352L712.394 713.93L715.169 715.532L712.706 716.954L709.931 715.352Z" fill="white"/>
</g>
</g>
</g>
<path d="M1277.37 373.976L738.687 62.9959C709.511 46.1523 662.206 46.1523 633.03 62.9959L113.403 362.976C84.2266 379.82 84.2266 407.129 113.403 423.972L652.083 734.952C681.259 751.796 728.564 751.796 757.74 734.952L1277.37 434.972C1306.54 418.128 1306.54 390.819 1277.37 373.976Z" stroke="white" stroke-width="2"/>
</g>
<defs>
<clipPath id="clip0_1_858">
<rect width="800" height="800" fill="white" transform="matrix(0.866044 0.499967 -0.866044 0.499967 693.653 333)"/>
</clipPath>
<clipPath id="clip1_1_858">
<path d="M633.896 396.496C662.594 379.928 709.123 379.928 737.821 396.496L1276.5 707.476C1305.2 724.043 1305.2 750.904 1276.5 767.472L756.874 1067.45C728.176 1084.02 681.647 1084.02 652.949 1067.45L114.269 756.472C85.5709 739.905 85.5709 713.044 114.269 696.476L633.896 396.496Z" fill="white"/>
</clipPath>
<clipPath id="clip2_1_858">
<rect width="132.4" height="70" fill="white" transform="matrix(0.866044 0.499967 -0.866044 0.499967 640.478 962.259)"/>
</clipPath>
<clipPath id="clip3_1_858">
<rect width="132.4" height="50" fill="white" transform="matrix(0.866044 0.499967 -0.866044 0.499967 631.817 967.259)"/>
</clipPath>
<clipPath id="clip4_1_858">
<rect width="800" height="800" fill="white" transform="matrix(0.866044 0.499967 -0.866044 0.499967 693.653 171)"/>
</clipPath>
<clipPath id="clip5_1_858">
<path d="M633.896 234.496C662.594 217.928 709.123 217.928 737.822 234.496L1276.5 545.476C1305.2 562.043 1305.2 588.904 1276.5 605.472L756.875 905.452C728.176 922.02 681.647 922.02 652.949 905.452L114.27 594.472C85.5714 577.905 85.5714 551.044 114.27 534.476L633.896 234.496Z" fill="white"/>
</clipPath>
<clipPath id="clip6_1_858">
<rect width="132.4" height="70" fill="white" transform="matrix(0.866044 0.499967 -0.866044 0.499967 640.478 800.259)"/>
</clipPath>
<clipPath id="clip7_1_858">
<rect width="132.4" height="50" fill="white" transform="matrix(0.866044 0.499967 -0.866044 0.499967 631.817 805.259)"/>
</clipPath>
<clipPath id="clip8_1_858">
<rect width="800" height="800" fill="white" transform="matrix(0.866044 0.499967 -0.866044 0.499967 693.653 0)"/>
</clipPath>
<clipPath id="clip9_1_858">
<path d="M633.896 63.4958C662.594 46.9284 709.123 46.9284 737.821 63.4958L1276.5 374.476C1305.2 391.043 1305.2 417.904 1276.5 434.472L756.874 734.452C728.176 751.02 681.647 751.02 652.949 734.452L114.269 423.472C85.5709 406.905 85.5709 380.044 114.269 363.476L633.896 63.4958Z" fill="white"/>
</clipPath>
<clipPath id="clip10_1_858">
<rect width="132.4" height="70" fill="white" transform="matrix(0.866044 0.499967 -0.866044 0.499967 640.478 629.259)"/>
</clipPath>
<clipPath id="clip11_1_858">
<rect width="132.4" height="50" fill="white" transform="matrix(0.866044 0.499967 -0.866044 0.499967 631.817 634.259)"/>
</clipPath>
</defs>
</svg>
