<svg width="1408" height="1146" viewBox="0 0 1408 1146" fill="none" xmlns="http://www.w3.org/2000/svg">
<g clip-path="url(#clip0_7654_2104336)">
<g clip-path="url(#clip1_7654_2104336)">
<rect width="767" height="720" rx="60" transform="matrix(0.866044 0.499967 -0.866044 0.499967 684.859 366.498)" fill="black"/>
<rect width="134.2" height="42" transform="matrix(0.866044 0.499967 -0.866044 0.499967 187.749 701.476)" fill="black"/>
<rect width="134.2" height="42" transform="matrix(0.866044 0.499967 -0.866044 0.499967 303.972 768.572)" fill="black"/>
<rect width="134.2" height="42" transform="matrix(0.866044 0.499967 -0.866044 0.499967 420.196 835.667)" fill="black"/>
<rect width="134.2" height="42" transform="matrix(0.866044 0.499967 -0.866044 0.499967 536.419 902.763)" fill="black"/>
<g clip-path="url(#clip2_7654_2104336)">
<rect width="134.2" height="70" transform="matrix(0.866044 0.499967 -0.866044 0.499967 652.642 969.859)" fill="black"/>
<g clip-path="url(#clip3_7654_2104336)">
<rect width="134.2" height="50" transform="matrix(0.866044 0.499967 -0.866044 0.499967 643.981 974.858)" fill="black"/>
<circle cx="20" cy="20" r="20" transform="matrix(0.866044 0.499967 -0.866044 0.499967 661.302 984.858)" fill="black"/>
<path d="M702.965 1045.34C700.45 1043.89 699.473 1042.24 700.035 1040.41C700.596 1038.57 702.695 1036.6 706.333 1034.5C708.536 1033.23 710.739 1032.28 712.942 1031.66C715.187 1031.04 717.338 1030.79 719.396 1030.92C721.495 1031.05 723.387 1031.61 725.07 1032.58C726.754 1033.55 727.71 1034.64 727.939 1035.85C728.188 1037.05 727.762 1038.3 726.66 1039.58C725.579 1040.88 723.948 1042.15 721.765 1043.41C719.541 1044.7 717.307 1045.65 715.062 1046.28C712.859 1046.9 710.708 1047.15 708.608 1047.01C706.551 1046.88 704.67 1046.32 702.965 1045.34ZM705.304 1043.99C706.01 1044.4 706.727 1044.69 707.455 1044.87C708.203 1045.04 708.983 1045.11 709.793 1045.07C711.04 1045 712.381 1044.68 713.815 1044.12C715.291 1043.55 716.943 1042.74 718.772 1041.69C720.747 1040.55 722.212 1039.54 723.168 1038.68C724.145 1037.8 724.613 1036.98 724.571 1036.21C724.551 1035.43 723.917 1034.68 722.67 1033.96C721.755 1033.44 720.809 1033.11 719.832 1032.97C718.876 1032.83 717.858 1032.85 716.777 1033.05C715.717 1033.25 714.574 1033.62 713.347 1034.16C712.142 1034.69 710.801 1035.38 709.326 1036.23C707.309 1037.4 705.802 1038.42 704.805 1039.31C703.828 1040.19 703.36 1041.01 703.402 1041.78C703.443 1042.54 704.077 1043.28 705.304 1043.99ZM720.048 1055.2C718.551 1054.34 717.554 1053.43 717.055 1052.47C716.598 1051.51 716.608 1050.56 717.086 1049.64C717.606 1048.72 718.541 1047.88 719.892 1047.12L723.01 1048.45C721.534 1049.28 720.703 1050.18 720.516 1051.15C720.329 1052.12 720.952 1053.02 722.386 1053.85C723.82 1054.68 725.286 1055.11 726.782 1055.13C728.3 1055.17 729.723 1054.8 731.054 1054.03C732.363 1053.28 732.924 1052.5 732.737 1051.69C732.571 1050.9 731.833 1050.13 730.524 1049.37L728.778 1048.36L731.272 1046.92L732.644 1047.71C733.35 1048.12 734.119 1048.42 734.951 1048.61C735.803 1048.79 736.645 1048.84 737.476 1048.74C738.349 1048.64 739.139 1048.39 739.846 1047.98C740.968 1047.34 741.529 1046.64 741.529 1045.9C741.55 1045.14 740.979 1044.43 739.815 1043.75C738.734 1043.13 737.611 1042.81 736.447 1042.78C735.325 1042.76 734.307 1042.89 733.392 1043.18C732.498 1043.48 731.781 1043.8 731.241 1044.13L728.871 1042.26C730.139 1041.55 731.553 1041.08 733.111 1040.86C734.691 1040.62 736.26 1040.63 737.819 1040.91C739.399 1041.17 740.833 1041.68 742.122 1042.42C743.306 1043.11 744.159 1043.85 744.678 1044.65C745.219 1045.47 745.333 1046.3 745.021 1047.16C744.709 1048.01 743.888 1048.82 742.558 1049.59C741.519 1050.19 740.241 1050.55 738.723 1050.68C737.248 1050.82 735.824 1050.67 734.452 1050.23L734.889 1049.84C736.24 1050.76 736.749 1051.75 736.416 1052.81C736.125 1053.86 735.273 1054.8 733.86 1055.62C732.446 1056.43 730.929 1056.94 729.308 1057.13C727.686 1057.32 726.076 1057.24 724.475 1056.89C722.875 1056.55 721.399 1055.98 720.048 1055.2Z" fill="white"/>
</g>
</g>
</g>
<rect y="-0.499967" width="768" height="721" rx="60.5" transform="matrix(0.866044 0.499967 -0.866044 0.499967 684.426 366.248)" stroke="white"/>
</g>
<g clip-path="url(#clip4_7654_2104336)">
<g clip-path="url(#clip5_7654_2104336)">
<rect width="767" height="720" rx="60" transform="matrix(0.866044 0.499967 -0.866044 0.499967 684.859 204.498)" fill="black"/>
<rect width="134.2" height="42" transform="matrix(0.866044 0.499967 -0.866044 0.499967 187.749 539.476)" fill="black"/>
<rect width="134.2" height="42" transform="matrix(0.866044 0.499967 -0.866044 0.499967 303.972 606.571)" fill="black"/>
<rect width="134.2" height="42" transform="matrix(0.866044 0.499967 -0.866044 0.499967 420.196 673.667)" fill="black"/>
<rect width="134.2" height="42" transform="matrix(0.866044 0.499967 -0.866044 0.499967 536.419 740.763)" fill="black"/>
<g clip-path="url(#clip6_7654_2104336)">
<rect width="134.2" height="70" transform="matrix(0.866044 0.499967 -0.866044 0.499967 652.642 807.858)" fill="black"/>
<g clip-path="url(#clip7_7654_2104336)">
<rect width="134.2" height="50" transform="matrix(0.866044 0.499967 -0.866044 0.499967 643.981 812.858)" fill="black"/>
<path d="M703.331 883.55C700.816 882.098 699.839 880.454 700.4 878.618C700.961 876.783 703.061 874.815 706.698 872.715C708.901 871.443 711.104 870.495 713.308 869.871C715.552 869.247 717.704 869.001 719.761 869.133C721.861 869.265 723.752 869.817 725.436 870.789C727.119 871.761 728.075 872.853 728.304 874.065C728.553 875.265 728.127 876.507 727.026 877.79C725.945 879.086 724.313 880.364 722.131 881.624C719.907 882.908 717.672 883.862 715.428 884.486C713.224 885.11 711.073 885.356 708.974 885.224C706.916 885.092 705.035 884.534 703.331 883.55ZM705.669 882.2C706.376 882.608 707.093 882.902 707.82 883.082C708.569 883.25 709.348 883.316 710.159 883.28C711.406 883.208 712.746 882.89 714.181 882.326C715.656 881.762 717.309 880.952 719.138 879.896C721.112 878.756 722.578 877.754 723.534 876.891C724.511 876.015 724.978 875.193 724.937 874.425C724.916 873.645 724.282 872.895 723.035 872.175C722.12 871.647 721.175 871.317 720.198 871.185C719.242 871.041 718.223 871.065 717.142 871.257C716.082 871.461 714.939 871.833 713.713 872.373C712.507 872.901 711.167 873.591 709.691 874.443C707.675 875.607 706.168 876.633 705.17 877.52C704.193 878.396 703.726 879.218 703.767 879.986C703.809 880.754 704.443 881.492 705.669 882.2ZM713.336 888.894C715.103 888.018 716.849 887.406 718.574 887.058C720.341 886.71 722.024 886.554 723.625 886.59C725.246 886.614 726.992 886.746 728.862 886.986C729.091 887.022 729.32 887.058 729.548 887.094C729.798 887.118 730.037 887.148 730.265 887.184C731.741 887.388 732.988 887.532 734.007 887.616C735.067 887.7 736.148 887.676 737.249 887.544C738.351 887.412 739.317 887.106 740.149 886.626C741.458 885.87 742.134 885.108 742.175 884.34C742.238 883.585 741.666 882.859 740.461 882.163C738.839 881.227 737.26 880.879 735.722 881.119C734.204 881.347 732.843 881.809 731.637 882.505L729.299 880.651C730.297 880.051 731.513 879.589 732.947 879.265C734.402 878.929 735.992 878.863 737.717 879.067C739.463 879.283 741.198 879.889 742.924 880.885C744.191 881.617 745.044 882.409 745.48 883.261C745.937 884.124 745.937 884.988 745.48 885.852C745.044 886.704 744.181 887.502 742.892 888.246C741.77 888.894 740.523 889.326 739.151 889.542C737.779 889.758 736.418 889.836 735.067 889.776C733.737 889.704 732.209 889.554 730.484 889.326L730.39 889.308C730.286 889.296 730.182 889.284 730.078 889.272C729.995 889.248 729.902 889.23 729.798 889.218C727.99 888.966 726.42 888.792 725.09 888.696C723.801 888.6 722.523 888.618 721.255 888.75C720.008 888.894 718.927 889.218 718.013 889.722L717.607 888.516L730.047 895.698L727.584 897.12L713.336 888.894Z" fill="white"/>
</g>
</g>
</g>
<rect y="-0.499967" width="768" height="721" rx="60.5" transform="matrix(0.866044 0.499967 -0.866044 0.499967 684.426 204.248)" stroke="white"/>
</g>
<g clip-path="url(#clip8_7654_2104336)">
<g clip-path="url(#clip9_7654_2104336)">
<rect width="767" height="720" rx="60" transform="matrix(0.866044 0.499967 -0.866044 0.499967 684.859 33.4978)" fill="black"/>
<rect width="134.2" height="42" transform="matrix(0.866044 0.499967 -0.866044 0.499967 187.749 368.476)" fill="black"/>
<rect width="134.2" height="42" transform="matrix(0.866044 0.499967 -0.866044 0.499967 303.972 435.572)" fill="black"/>
<rect width="134.2" height="42" transform="matrix(0.866044 0.499967 -0.866044 0.499967 420.196 502.667)" fill="black"/>
<rect width="134.2" height="42" transform="matrix(0.866044 0.499967 -0.866044 0.499967 536.419 569.763)" fill="black"/>
<g clip-path="url(#clip10_7654_2104336)">
<rect width="134.2" height="70" transform="matrix(0.866044 0.499967 -0.866044 0.499967 652.642 636.858)" fill="black"/>
<g clip-path="url(#clip11_7654_2104336)">
<rect width="134.2" height="50" transform="matrix(0.866044 0.499967 -0.866044 0.499967 643.981 641.858)" fill="black"/>
<path d="M708.568 715.573C706.053 714.121 705.076 712.478 705.637 710.642C706.198 708.806 708.297 706.838 711.935 704.738C714.138 703.466 716.341 702.518 718.544 701.894C720.789 701.27 722.94 701.024 724.998 701.156C727.097 701.288 728.989 701.84 730.672 702.812C732.356 703.784 733.312 704.876 733.541 706.088C733.79 707.288 733.364 708.53 732.263 709.814C731.182 711.11 729.55 712.388 727.368 713.647C725.144 714.931 722.909 715.885 720.664 716.509C718.461 717.133 716.31 717.379 714.211 717.247C712.153 717.115 710.272 716.557 708.568 715.573ZM710.906 714.223C711.613 714.631 712.33 714.925 713.057 715.105C713.805 715.273 714.585 715.339 715.395 715.303C716.643 715.231 717.983 714.913 719.417 714.349C720.893 713.785 722.546 712.975 724.375 711.92C726.349 710.78 727.815 709.778 728.771 708.914C729.748 708.038 730.215 707.216 730.174 706.448C730.153 705.668 729.519 704.918 728.272 704.198C727.357 703.67 726.412 703.34 725.435 703.208C724.479 703.064 723.46 703.088 722.379 703.28C721.319 703.484 720.176 703.856 718.95 704.396C717.744 704.924 716.404 705.614 714.928 706.466C712.912 707.63 711.405 708.656 710.407 709.544C709.43 710.42 708.962 711.242 709.004 712.01C709.046 712.777 709.68 713.515 710.906 714.223ZM723.655 723.851L741.395 713.61L741.052 714.24C740.075 714.492 738.973 714.456 737.747 714.132C736.542 713.82 735.326 713.31 734.099 712.602C733.871 712.47 733.611 712.296 733.32 712.08L735.721 710.694C737.487 711.714 739.181 712.32 740.803 712.512C742.445 712.716 744.045 712.5 745.604 711.864L747.786 713.124L726.43 725.453L723.655 723.851ZM723.655 723.851L726.118 722.429L728.893 724.031L726.43 725.453L723.655 723.851Z" fill="white"/>
</g>
</g>
</g>
<rect y="-0.499967" width="768" height="721" rx="60.5" transform="matrix(0.866044 0.499967 -0.866044 0.499967 684.426 33.2478)" stroke="white"/>
</g>
<defs>
<clipPath id="clip0_7654_2104336">
<rect width="824.955" height="799.789" fill="white" transform="matrix(0.866044 0.499967 -0.866044 0.499967 692.653 333)"/>
</clipPath>
<clipPath id="clip1_7654_2104336">
<rect width="767" height="720" rx="60" transform="matrix(0.866044 0.499967 -0.866044 0.499967 684.859 366.498)" fill="white"/>
</clipPath>
<clipPath id="clip2_7654_2104336">
<rect width="134.2" height="70" fill="white" transform="matrix(0.866044 0.499967 -0.866044 0.499967 652.642 969.859)"/>
</clipPath>
<clipPath id="clip3_7654_2104336">
<rect width="134.2" height="50" fill="white" transform="matrix(0.866044 0.499967 -0.866044 0.499967 643.981 974.858)"/>
</clipPath>
<clipPath id="clip4_7654_2104336">
<rect width="824.955" height="799.789" fill="white" transform="matrix(0.866044 0.499967 -0.866044 0.499967 692.653 171)"/>
</clipPath>
<clipPath id="clip5_7654_2104336">
<rect width="767" height="720" rx="60" transform="matrix(0.866044 0.499967 -0.866044 0.499967 684.859 204.498)" fill="white"/>
</clipPath>
<clipPath id="clip6_7654_2104336">
<rect width="134.2" height="70" fill="white" transform="matrix(0.866044 0.499967 -0.866044 0.499967 652.642 807.858)"/>
</clipPath>
<clipPath id="clip7_7654_2104336">
<rect width="134.2" height="50" fill="white" transform="matrix(0.866044 0.499967 -0.866044 0.499967 643.981 812.858)"/>
</clipPath>
<clipPath id="clip8_7654_2104336">
<rect width="824.955" height="799.789" fill="white" transform="matrix(0.866044 0.499967 -0.866044 0.499967 692.653 0)"/>
</clipPath>
<clipPath id="clip9_7654_2104336">
<rect width="767" height="720" rx="60" transform="matrix(0.866044 0.499967 -0.866044 0.499967 684.859 33.4978)" fill="white"/>
</clipPath>
<clipPath id="clip10_7654_2104336">
<rect width="134.2" height="70" fill="white" transform="matrix(0.866044 0.499967 -0.866044 0.499967 652.642 636.858)"/>
</clipPath>
<clipPath id="clip11_7654_2104336">
<rect width="134.2" height="50" fill="white" transform="matrix(0.866044 0.499967 -0.866044 0.499967 643.981 641.858)"/>
</clipPath>
</defs>
</svg>
