<svg width="1408" height="1146" viewBox="0 0 1408 1146" fill="none" xmlns="http://www.w3.org/2000/svg">
<g clip-path="url(#clip0_7654_2102822)">
<g clip-path="url(#clip1_7654_2102822)">
<rect width="767" height="720" rx="60" transform="matrix(0.866044 0.499967 -0.866044 0.499967 685.213 366.498)" fill="white"/>
<rect width="134.2" height="42" transform="matrix(0.866044 0.499967 -0.866044 0.499967 188.104 701.476)" fill="white"/>
<rect width="134.2" height="42" transform="matrix(0.866044 0.499967 -0.866044 0.499967 304.327 768.572)" fill="white"/>
<rect width="134.2" height="42" transform="matrix(0.866044 0.499967 -0.866044 0.499967 420.55 835.667)" fill="white"/>
<rect width="134.2" height="42" transform="matrix(0.866044 0.499967 -0.866044 0.499967 536.773 902.763)" fill="white"/>
<g clip-path="url(#clip2_7654_2102822)">
<rect width="134.2" height="70" transform="matrix(0.866044 0.499967 -0.866044 0.499967 652.996 969.859)" fill="white"/>
<g clip-path="url(#clip3_7654_2102822)">
<rect width="134.2" height="50" transform="matrix(0.866044 0.499967 -0.866044 0.499967 644.336 974.858)" fill="white"/>
<circle cx="20" cy="20" r="20" transform="matrix(0.866044 0.499967 -0.866044 0.499967 661.657 984.858)" fill="white"/>
<path d="M703.32 1045.34C700.805 1043.89 699.828 1042.24 700.389 1040.41C700.95 1038.57 703.05 1036.6 706.687 1034.5C708.89 1033.23 711.093 1032.28 713.297 1031.66C715.541 1031.04 717.693 1030.79 719.75 1030.92C721.85 1031.05 723.741 1031.61 725.425 1032.58C727.108 1033.55 728.064 1034.64 728.293 1035.85C728.543 1037.05 728.116 1038.3 727.015 1039.58C725.934 1040.88 724.302 1042.15 722.12 1043.41C719.896 1044.7 717.662 1045.65 715.417 1046.28C713.214 1046.9 711.062 1047.15 708.963 1047.01C706.905 1046.88 705.024 1046.32 703.32 1045.34ZM705.658 1043.99C706.365 1044.4 707.082 1044.69 707.809 1044.87C708.558 1045.04 709.337 1045.11 710.148 1045.07C711.395 1045 712.735 1044.68 714.17 1044.12C715.645 1043.55 717.298 1042.74 719.127 1041.69C721.101 1040.55 722.567 1039.54 723.523 1038.68C724.5 1037.8 724.968 1036.98 724.926 1036.21C724.905 1035.43 724.271 1034.68 723.024 1033.96C722.11 1033.44 721.164 1033.11 720.187 1032.97C719.231 1032.83 718.212 1032.85 717.132 1033.05C716.071 1033.25 714.928 1033.62 713.702 1034.16C712.496 1034.69 711.156 1035.38 709.68 1036.23C707.664 1037.4 706.157 1038.42 705.159 1039.31C704.182 1040.19 703.715 1041.01 703.756 1041.78C703.798 1042.54 704.432 1043.28 705.658 1043.99ZM720.403 1055.2C718.906 1054.34 717.908 1053.43 717.409 1052.47C716.952 1051.51 716.963 1050.56 717.441 1049.64C717.96 1048.72 718.896 1047.88 720.247 1047.12L723.364 1048.45C721.889 1049.28 721.057 1050.18 720.87 1051.15C720.683 1052.12 721.307 1053.02 722.741 1053.85C724.175 1054.68 725.64 1055.11 727.137 1055.13C728.654 1055.17 730.078 1054.8 731.408 1054.03C732.718 1053.28 733.279 1052.5 733.092 1051.69C732.926 1050.9 732.188 1050.13 730.878 1049.37L729.132 1048.36L731.626 1046.92L732.998 1047.71C733.705 1048.12 734.474 1048.42 735.305 1048.61C736.158 1048.79 736.999 1048.84 737.831 1048.74C738.704 1048.64 739.494 1048.39 740.2 1047.98C741.323 1047.34 741.884 1046.64 741.884 1045.9C741.905 1045.14 741.333 1044.43 740.169 1043.75C739.088 1043.13 737.966 1042.81 736.802 1042.78C735.68 1042.76 734.661 1042.89 733.747 1043.18C732.853 1043.48 732.136 1043.8 731.595 1044.13L729.226 1042.26C730.494 1041.55 731.907 1041.08 733.466 1040.86C735.046 1040.62 736.615 1040.63 738.174 1040.91C739.753 1041.17 741.188 1041.68 742.476 1042.42C743.661 1043.11 744.513 1043.85 745.033 1044.65C745.573 1045.47 745.688 1046.3 745.376 1047.16C745.064 1048.01 744.243 1048.82 742.913 1049.59C741.873 1050.19 740.595 1050.55 739.078 1050.68C737.602 1050.82 736.178 1050.67 734.807 1050.23L735.243 1049.84C736.594 1050.76 737.103 1051.75 736.771 1052.81C736.48 1053.86 735.628 1054.8 734.214 1055.62C732.801 1056.43 731.283 1056.94 729.662 1057.13C728.041 1057.32 726.43 1057.24 724.83 1056.89C723.229 1056.55 721.754 1055.98 720.403 1055.2Z" fill="black"/>
</g>
</g>
</g>
<rect y="-0.499967" width="768" height="721" rx="60.5" transform="matrix(0.866044 0.499967 -0.866044 0.499967 684.78 366.248)" stroke="black"/>
</g>
<g clip-path="url(#clip4_7654_2102822)">
<g clip-path="url(#clip5_7654_2102822)">
<rect width="767" height="720" rx="60" transform="matrix(0.866044 0.499967 -0.866044 0.499967 685.213 204.498)" fill="white"/>
<rect width="134.2" height="42" transform="matrix(0.866044 0.499967 -0.866044 0.499967 188.104 539.476)" fill="white"/>
<rect width="134.2" height="42" transform="matrix(0.866044 0.499967 -0.866044 0.499967 304.327 606.571)" fill="white"/>
<rect width="134.2" height="42" transform="matrix(0.866044 0.499967 -0.866044 0.499967 420.55 673.667)" fill="white"/>
<rect width="134.2" height="42" transform="matrix(0.866044 0.499967 -0.866044 0.499967 536.773 740.763)" fill="white"/>
<g clip-path="url(#clip6_7654_2102822)">
<rect width="134.2" height="70" transform="matrix(0.866044 0.499967 -0.866044 0.499967 652.996 807.858)" fill="white"/>
<g clip-path="url(#clip7_7654_2102822)">
<rect width="134.2" height="50" transform="matrix(0.866044 0.499967 -0.866044 0.499967 644.336 812.858)" fill="white"/>
<path d="M703.685 883.55C701.17 882.098 700.193 880.454 700.755 878.618C701.316 876.783 703.415 874.815 707.052 872.715C709.256 871.443 711.459 870.495 713.662 869.871C715.907 869.247 718.058 869.001 720.116 869.133C722.215 869.265 724.107 869.817 725.79 870.789C727.474 871.761 728.43 872.853 728.658 874.065C728.908 875.265 728.482 876.507 727.38 877.79C726.299 879.086 724.668 880.364 722.485 881.624C720.261 882.908 718.027 883.862 715.782 884.486C713.579 885.11 711.428 885.356 709.328 885.224C707.271 885.092 705.39 884.534 703.685 883.55ZM706.024 882.2C706.73 882.608 707.447 882.902 708.175 883.082C708.923 883.25 709.703 883.316 710.513 883.28C711.76 883.208 713.101 882.89 714.535 882.326C716.011 881.762 717.663 880.952 719.492 879.896C721.467 878.756 722.932 877.754 723.888 876.891C724.865 876.015 725.333 875.193 725.291 874.425C725.271 873.645 724.637 872.895 723.389 872.175C722.475 871.647 721.529 871.317 720.552 871.185C719.596 871.041 718.578 871.065 717.497 871.257C716.437 871.461 715.294 871.833 714.067 872.373C712.862 872.901 711.521 873.591 710.045 874.443C708.029 875.607 706.522 876.633 705.525 877.52C704.548 878.396 704.08 879.218 704.122 879.986C704.163 880.754 704.797 881.492 706.024 882.2ZM713.691 888.894C715.457 888.018 717.203 887.406 718.928 887.058C720.695 886.71 722.379 886.554 723.979 886.59C725.6 886.614 727.346 886.746 729.217 886.986C729.446 887.022 729.674 887.058 729.903 887.094C730.152 887.118 730.391 887.148 730.62 887.184C732.096 887.388 733.343 887.532 734.361 887.616C735.421 887.7 736.502 887.676 737.604 887.544C738.705 887.412 739.672 887.106 740.503 886.626C741.813 885.87 742.488 885.108 742.53 884.34C742.592 883.585 742.021 882.859 740.815 882.163C739.194 881.227 737.614 880.879 736.076 881.119C734.559 881.347 733.197 881.809 731.992 882.505L729.653 880.651C730.651 880.051 731.867 879.589 733.301 879.265C734.756 878.929 736.346 878.863 738.071 879.067C739.817 879.283 741.553 879.889 743.278 880.885C744.546 881.617 745.398 882.409 745.835 883.261C746.292 884.124 746.292 884.988 745.835 885.852C745.398 886.704 744.536 887.502 743.247 888.246C742.125 888.894 740.877 889.326 739.506 889.542C738.134 889.758 736.772 889.836 735.421 889.776C734.091 889.704 732.563 889.554 730.838 889.326L730.745 889.308C730.641 889.296 730.537 889.284 730.433 889.272C730.35 889.248 730.256 889.23 730.152 889.218C728.344 888.966 726.775 888.792 725.445 888.696C724.156 888.6 722.878 888.618 721.61 888.75C720.363 888.894 719.282 889.218 718.367 889.722L717.962 888.516L730.402 895.698L727.939 897.12L713.691 888.894Z" fill="black"/>
</g>
</g>
</g>
<rect y="-0.499967" width="768" height="721" rx="60.5" transform="matrix(0.866044 0.499967 -0.866044 0.499967 684.78 204.248)" stroke="black"/>
</g>
<g clip-path="url(#clip8_7654_2102822)">
<g clip-path="url(#clip9_7654_2102822)">
<rect width="767" height="720" rx="60" transform="matrix(0.866044 0.499967 -0.866044 0.499967 685.213 33.4978)" fill="white"/>
<rect width="134.2" height="42" transform="matrix(0.866044 0.499967 -0.866044 0.499967 188.104 368.476)" fill="white"/>
<rect width="134.2" height="42" transform="matrix(0.866044 0.499967 -0.866044 0.499967 304.327 435.572)" fill="white"/>
<rect width="134.2" height="42" transform="matrix(0.866044 0.499967 -0.866044 0.499967 420.55 502.667)" fill="white"/>
<rect width="134.2" height="42" transform="matrix(0.866044 0.499967 -0.866044 0.499967 536.773 569.763)" fill="white"/>
<g clip-path="url(#clip10_7654_2102822)">
<rect width="134.2" height="70" transform="matrix(0.866044 0.499967 -0.866044 0.499967 652.996 636.858)" fill="white"/>
<g clip-path="url(#clip11_7654_2102822)">
<rect width="134.2" height="50" transform="matrix(0.866044 0.499967 -0.866044 0.499967 644.336 641.858)" fill="white"/>
<path d="M708.922 715.573C706.407 714.121 705.43 712.478 705.991 710.642C706.553 708.806 708.652 706.838 712.289 704.738C714.492 703.466 716.696 702.518 718.899 701.894C721.144 701.27 723.295 701.024 725.353 701.156C727.452 701.288 729.343 701.84 731.027 702.812C732.711 703.784 733.667 704.876 733.895 706.088C734.145 707.288 733.719 708.53 732.617 709.814C731.536 711.11 729.905 712.388 727.722 713.647C725.498 714.931 723.264 715.885 721.019 716.509C718.816 717.133 716.665 717.379 714.565 717.247C712.508 717.115 710.626 716.557 708.922 715.573ZM711.26 714.223C711.967 714.631 712.684 714.925 713.412 715.105C714.16 715.273 714.939 715.339 715.75 715.303C716.997 715.231 718.338 714.913 719.772 714.349C721.248 713.785 722.9 712.975 724.729 711.92C726.704 710.78 728.169 709.778 729.125 708.914C730.102 708.038 730.57 707.216 730.528 706.448C730.507 705.668 729.873 704.918 728.626 704.198C727.712 703.67 726.766 703.34 725.789 703.208C724.833 703.064 723.815 703.088 722.734 703.28C721.674 703.484 720.531 703.856 719.304 704.396C718.099 704.924 716.758 705.614 715.282 706.466C713.266 707.63 711.759 708.656 710.762 709.544C709.785 710.42 709.317 711.242 709.359 712.01C709.4 712.777 710.034 713.515 711.26 714.223ZM724.009 723.851L741.749 713.61L741.406 714.24C740.43 714.492 739.328 714.456 738.102 714.132C736.896 713.82 735.68 713.31 734.454 712.602C734.225 712.47 733.965 712.296 733.674 712.08L736.075 710.694C737.842 711.714 739.536 712.32 741.157 712.512C742.799 712.716 744.4 712.5 745.958 711.864L748.141 713.124L726.784 725.453L724.009 723.851ZM724.009 723.851L726.472 722.429L729.247 724.031L726.784 725.453L724.009 723.851Z" fill="black"/>
</g>
</g>
</g>
<rect y="-0.499967" width="768" height="721" rx="60.5" transform="matrix(0.866044 0.499967 -0.866044 0.499967 684.78 33.2478)" stroke="black"/>
</g>
<defs>
<clipPath id="clip0_7654_2102822">
<rect width="824.955" height="799.789" fill="white" transform="matrix(0.866044 0.499967 -0.866044 0.499967 693.008 333)"/>
</clipPath>
<clipPath id="clip1_7654_2102822">
<rect width="767" height="720" rx="60" transform="matrix(0.866044 0.499967 -0.866044 0.499967 685.213 366.498)" fill="white"/>
</clipPath>
<clipPath id="clip2_7654_2102822">
<rect width="134.2" height="70" fill="white" transform="matrix(0.866044 0.499967 -0.866044 0.499967 652.996 969.859)"/>
</clipPath>
<clipPath id="clip3_7654_2102822">
<rect width="134.2" height="50" fill="white" transform="matrix(0.866044 0.499967 -0.866044 0.499967 644.336 974.858)"/>
</clipPath>
<clipPath id="clip4_7654_2102822">
<rect width="824.955" height="799.789" fill="white" transform="matrix(0.866044 0.499967 -0.866044 0.499967 693.008 171)"/>
</clipPath>
<clipPath id="clip5_7654_2102822">
<rect width="767" height="720" rx="60" transform="matrix(0.866044 0.499967 -0.866044 0.499967 685.213 204.498)" fill="white"/>
</clipPath>
<clipPath id="clip6_7654_2102822">
<rect width="134.2" height="70" fill="white" transform="matrix(0.866044 0.499967 -0.866044 0.499967 652.996 807.858)"/>
</clipPath>
<clipPath id="clip7_7654_2102822">
<rect width="134.2" height="50" fill="white" transform="matrix(0.866044 0.499967 -0.866044 0.499967 644.336 812.858)"/>
</clipPath>
<clipPath id="clip8_7654_2102822">
<rect width="824.955" height="799.789" fill="white" transform="matrix(0.866044 0.499967 -0.866044 0.499967 693.008 0)"/>
</clipPath>
<clipPath id="clip9_7654_2102822">
<rect width="767" height="720" rx="60" transform="matrix(0.866044 0.499967 -0.866044 0.499967 685.213 33.4978)" fill="white"/>
</clipPath>
<clipPath id="clip10_7654_2102822">
<rect width="134.2" height="70" fill="white" transform="matrix(0.866044 0.499967 -0.866044 0.499967 652.996 636.858)"/>
</clipPath>
<clipPath id="clip11_7654_2102822">
<rect width="134.2" height="50" fill="white" transform="matrix(0.866044 0.499967 -0.866044 0.499967 644.336 641.858)"/>
</clipPath>
</defs>
</svg>
