<svg width="1488" height="681" viewBox="0 0 1488 681" fill="none" xmlns="http://www.w3.org/2000/svg">
<rect width="1487.5" height="680.355" fill="white"/>
<path d="M59.7319 124.178V89.6916H65.8704V97.8304L65.4565 96.175C65.6865 95.2554 66.0083 94.4277 66.4222 93.692C66.836 92.9563 67.5027 92.2206 68.4223 91.4849C69.342 90.7032 70.4455 90.0825 71.733 89.6227C73.0665 89.1169 74.6528 88.864 76.4921 88.864C79.5729 88.864 82.1248 89.6916 84.148 91.347C86.1712 93.0023 87.4817 95.2784 88.0794 98.1752L86.9069 98.2442C87.2747 96.7728 87.7576 95.5083 88.3553 94.4507C88.9531 93.3931 89.7807 92.4045 90.8383 91.4849C91.8039 90.6572 92.9075 90.0135 94.149 89.5537C95.3905 89.0939 96.9768 88.864 98.9081 88.864C101.483 88.864 103.644 89.3468 105.391 90.3124C107.185 91.278 108.541 92.7264 109.461 94.6576C110.38 96.5889 110.84 98.9799 110.84 101.831V124.178H104.495V103.9C104.495 101.785 104.38 100.152 104.15 99.0029C103.92 97.8074 103.345 96.7728 102.426 95.8991C101.598 95.0715 100.678 94.5427 99.6668 94.3128C98.6552 94.0829 97.6436 93.9679 96.632 93.9679C94.6088 93.9679 92.9075 94.5887 91.528 95.8302C90.5624 96.7498 89.7807 97.8993 89.183 99.2788C88.6312 100.658 88.3553 102.612 88.3553 105.141V124.178H82.0099V103.9V103.624C82.0099 101.647 81.8949 100.083 81.665 98.9339C81.4351 97.7384 80.8603 96.7268 79.9407 95.8991C79.113 95.0715 78.1934 94.5427 77.1818 94.3128C76.1702 94.0829 75.1586 93.9679 74.147 93.9679C73.1354 93.9679 72.1928 94.1288 71.3192 94.4507C70.4455 94.7726 69.6868 95.2324 69.0431 95.8302C68.0775 96.7498 67.2958 97.8993 66.698 99.2788C66.1463 100.658 65.8704 102.612 65.8704 105.141V124.178H59.7319ZM123.002 138.317C122.128 138.317 121.232 138.248 120.312 138.11C119.438 138.018 118.588 137.857 117.76 137.627L117.898 131.834C118.588 132.064 119.277 132.247 119.967 132.385C120.703 132.523 121.439 132.592 122.174 132.592C123.002 132.592 123.715 132.27 124.312 131.627C124.956 130.983 125.554 130.063 126.106 128.868C126.658 127.718 127.439 125.856 128.451 123.281C128.589 122.821 128.75 122.361 128.934 121.902C129.118 121.442 129.301 120.982 129.485 120.522L129.278 126.661L114.725 89.6916H121.347L127.899 108.314C128.175 109.05 128.428 109.832 128.658 110.659C128.934 111.487 129.232 112.36 129.554 113.28C129.922 114.338 130.267 115.395 130.589 116.453C130.957 117.51 131.302 118.568 131.624 119.626L130.037 120.315C130.589 118.66 131.072 117.189 131.486 115.901C131.899 114.614 132.29 113.441 132.658 112.383C132.888 111.694 133.118 111.027 133.348 110.383C133.578 109.694 133.808 109.004 134.038 108.314L140.659 89.6916H147.142L133.072 127.35C132.106 130.017 131.141 132.133 130.175 133.696C129.255 135.259 128.221 136.409 127.071 137.145C125.922 137.926 124.565 138.317 123.002 138.317ZM150.363 107.417V101.9H169.676V107.417H150.363ZM187.711 125.005C184.538 125.005 181.802 124.155 179.503 122.453C177.25 120.706 176.124 118.246 176.124 115.073C176.124 112.774 176.675 110.912 177.779 109.487C178.928 108.015 180.331 106.935 181.986 106.245C183.687 105.509 185.642 104.934 187.849 104.521L199.229 102.314C199.229 102.222 199.229 102.13 199.229 102.038C199.229 101.9 199.229 101.785 199.229 101.693C199.229 100.267 199.137 99.1408 198.953 98.3132C198.815 97.4395 198.516 96.6808 198.057 96.0371C197.551 95.3474 196.746 94.7956 195.643 94.3817C194.539 93.9679 193.252 93.761 191.78 93.761C188.791 93.761 186.63 94.3588 185.297 95.5543C184.009 96.7038 183.366 98.5891 183.366 101.21L177.296 100.382C177.342 98.3132 177.733 96.5429 178.469 95.0715C179.204 93.5541 180.239 92.3356 181.572 91.4159C182.814 90.5883 184.331 89.9675 186.124 89.5537C187.918 89.0939 189.918 88.864 192.125 88.864C195.022 88.864 197.436 89.3008 199.367 90.1744C201.298 91.0021 202.747 92.2666 203.712 93.9679C204.724 95.6692 205.23 97.7614 205.23 100.244V116.729C205.23 117.74 205.322 118.43 205.506 118.798C205.736 119.166 206.31 119.35 207.23 119.35C207.782 119.35 208.448 119.258 209.23 119.074L209.368 124.178C208.219 124.362 206.931 124.454 205.506 124.454C203.482 124.454 201.942 123.925 200.885 122.867C199.827 121.81 199.298 120.246 199.298 118.177L200.057 117.212C199.275 119.787 197.85 121.741 195.781 123.074C193.757 124.362 191.067 125.005 187.711 125.005ZM188.676 120.039C192.263 120.039 194.907 119.235 196.608 117.625C198.356 115.97 199.229 113.809 199.229 111.142V103.969L202.126 106.314L188.814 109.211L188.332 109.349C186.354 109.809 184.883 110.452 183.917 111.28C182.952 112.062 182.469 113.303 182.469 115.004C182.469 116.568 183.067 117.809 184.262 118.729C185.458 119.603 186.929 120.039 188.676 120.039ZM214.82 137.972V89.6916H221.027V97.6924L219.924 96.6578C221.165 94.0829 222.797 92.1516 224.821 90.8642C226.89 89.5307 229.258 88.864 231.925 88.864C235.005 88.864 237.741 89.5997 240.132 91.0711C242.523 92.4965 244.386 94.5887 245.719 97.3476C247.099 100.06 247.788 103.256 247.788 106.935C247.788 110.521 247.122 113.694 245.788 116.453C244.501 119.166 242.661 121.281 240.27 122.798C237.925 124.27 235.212 125.005 232.132 125.005C229.327 125.005 226.913 124.431 224.89 123.281C222.866 122.132 221.211 120.338 219.924 117.901L221.027 116.729V137.972H214.82ZM230.683 120.039C232.247 120.039 233.626 119.855 234.822 119.488C236.017 119.074 237.006 118.476 237.787 117.694C238.891 116.637 239.696 115.211 240.201 113.418C240.707 111.625 240.96 109.464 240.96 106.935C240.96 102.566 240.224 99.2788 238.753 97.0717C237.282 94.8646 234.638 93.761 230.821 93.761C229.212 93.761 227.786 94.0369 226.545 94.5887C225.303 95.0945 224.269 95.8761 223.441 96.9337C222.567 98.0373 221.901 99.4167 221.441 101.072C221.027 102.727 220.82 104.659 220.82 106.866C220.82 110.774 221.51 113.947 222.889 116.384C224.269 118.821 226.867 120.039 230.683 120.039ZM254.551 137.972V89.6916H260.759V97.6924L259.655 96.6578C260.897 94.0829 262.529 92.1516 264.552 90.8642C266.621 89.5307 268.99 88.864 271.656 88.864C274.737 88.864 277.473 89.5997 279.864 91.0711C282.255 92.4965 284.117 94.5887 285.451 97.3476C286.83 100.06 287.52 103.256 287.52 106.935C287.52 110.521 286.853 113.694 285.52 116.453C284.232 119.166 282.393 121.281 280.002 122.798C277.657 124.27 274.944 125.005 271.863 125.005C269.059 125.005 266.644 124.431 264.621 123.281C262.598 122.132 260.943 120.338 259.655 117.901L260.759 116.729V137.972H254.551ZM270.415 120.039C271.978 120.039 273.358 119.855 274.553 119.488C275.749 119.074 276.737 118.476 277.519 117.694C278.623 116.637 279.427 115.211 279.933 113.418C280.439 111.625 280.692 109.464 280.692 106.935C280.692 102.566 279.956 99.2788 278.485 97.0717C277.013 94.8646 274.369 93.761 270.553 93.761C268.944 93.761 267.518 94.0369 266.277 94.5887C265.035 95.0945 264.001 95.8761 263.173 96.9337C262.299 98.0373 261.633 99.4167 261.173 101.072C260.759 102.727 260.552 104.659 260.552 106.866C260.552 110.774 261.242 113.947 262.621 116.384C264.001 118.821 266.598 120.039 270.415 120.039ZM99.6851 315.005C96.5124 315.005 93.7765 314.155 91.4774 312.453C89.2243 310.706 88.0977 308.246 88.0977 305.073C88.0977 302.774 88.6495 300.912 89.7531 299.487C90.9026 298.015 92.305 296.935 93.9604 296.245C95.6617 295.509 97.6159 294.934 99.823 294.521L111.203 292.314C111.203 292.222 111.203 292.13 111.203 292.038C111.203 291.9 111.203 291.785 111.203 291.693C111.203 290.267 111.111 289.141 110.928 288.313C110.79 287.44 110.491 286.681 110.031 286.037C109.525 285.347 108.72 284.796 107.617 284.382C106.513 283.968 105.226 283.761 103.754 283.761C100.766 283.761 98.6045 284.359 97.271 285.554C95.9836 286.704 95.3398 288.589 95.3398 291.21L89.2703 290.382C89.3163 288.313 89.7071 286.543 90.4428 285.071C91.1785 283.554 92.2131 282.336 93.5465 281.416C94.788 280.588 96.3054 279.968 98.0987 279.554C99.892 279.094 101.892 278.864 104.099 278.864C106.996 278.864 109.41 279.301 111.341 280.174C113.273 281.002 114.721 282.267 115.687 283.968C116.698 285.669 117.204 287.761 117.204 290.244V306.729C117.204 307.74 117.296 308.43 117.48 308.798C117.71 309.166 118.285 309.35 119.204 309.35C119.756 309.35 120.423 309.258 121.204 309.074L121.342 314.178C120.193 314.362 118.905 314.454 117.48 314.454C115.457 314.454 113.916 313.925 112.859 312.867C111.801 311.81 111.272 310.246 111.272 308.177L112.031 307.212C111.249 309.787 109.824 311.741 107.755 313.074C105.732 314.362 103.042 315.005 99.6851 315.005ZM100.651 310.039C104.237 310.039 106.881 309.235 108.582 307.625C110.33 305.97 111.203 303.809 111.203 301.142V293.969L114.1 296.314L100.789 299.211L100.306 299.349C98.3286 299.809 96.8572 300.452 95.8916 301.28C94.926 302.062 94.4432 303.303 94.4432 305.004C94.4432 306.568 95.0409 307.809 96.2365 308.729C97.432 309.603 98.9034 310.039 100.651 310.039ZM126.794 327.972V279.692H133.001V287.692L131.898 286.658C133.139 284.083 134.772 282.152 136.795 280.864C138.864 279.531 141.232 278.864 143.899 278.864C146.98 278.864 149.716 279.6 152.107 281.071C154.498 282.497 156.36 284.589 157.693 287.348C159.073 290.06 159.763 293.256 159.763 296.935C159.763 300.521 159.096 303.694 157.762 306.453C156.475 309.166 154.636 311.281 152.245 312.798C149.9 314.27 147.187 315.005 144.106 315.005C141.301 315.005 138.887 314.431 136.864 313.281C134.841 312.132 133.185 310.338 131.898 307.901L133.001 306.729V327.972H126.794ZM142.657 310.039C144.221 310.039 145.6 309.855 146.796 309.488C147.991 309.074 148.98 308.476 149.762 307.694C150.865 306.637 151.67 305.211 152.176 303.418C152.681 301.625 152.934 299.464 152.934 296.935C152.934 292.566 152.199 289.279 150.727 287.072C149.256 284.865 146.612 283.761 142.795 283.761C141.186 283.761 139.761 284.037 138.519 284.589C137.278 285.094 136.243 285.876 135.415 286.934C134.542 288.037 133.875 289.417 133.415 291.072C133.001 292.727 132.794 294.659 132.794 296.866C132.794 300.774 133.484 303.947 134.864 306.384C136.243 308.821 138.841 310.039 142.657 310.039ZM166.526 327.972V279.692H172.733V287.692L171.63 286.658C172.871 284.083 174.503 282.152 176.527 280.864C178.596 279.531 180.964 278.864 183.631 278.864C186.711 278.864 189.447 279.6 191.838 281.071C194.229 282.497 196.092 284.589 197.425 287.348C198.805 290.06 199.494 293.256 199.494 296.935C199.494 300.521 198.828 303.694 197.494 306.453C196.207 309.166 194.367 311.281 191.976 312.798C189.631 314.27 186.918 315.005 183.838 315.005C181.033 315.005 178.619 314.431 176.596 313.281C174.572 312.132 172.917 310.338 171.63 307.901L172.733 306.729V327.972H166.526ZM182.389 310.039C183.953 310.039 185.332 309.855 186.528 309.488C187.723 309.074 188.712 308.476 189.493 307.694C190.597 306.637 191.402 305.211 191.907 303.418C192.413 301.625 192.666 299.464 192.666 296.935C192.666 292.566 191.93 289.279 190.459 287.072C188.988 284.865 186.344 283.761 182.527 283.761C180.918 283.761 179.492 284.037 178.251 284.589C177.009 285.094 175.975 285.876 175.147 286.934C174.273 288.037 173.607 289.417 173.147 291.072C172.733 292.727 172.526 294.659 172.526 296.866C172.526 300.774 173.216 303.947 174.595 306.384C175.975 308.821 178.573 310.039 182.389 310.039Z" fill="black"/>
<path d="M87.248 219.178V211.867H94.2142V219.178H87.248ZM102.276 219.178V184.692H108.415V192.83L108.001 191.175C108.231 190.255 108.553 189.428 108.967 188.692C109.381 187.956 110.047 187.221 110.967 186.485C111.887 185.703 112.99 185.082 114.278 184.623C115.611 184.117 117.197 183.864 119.037 183.864C122.117 183.864 124.669 184.692 126.693 186.347C128.716 188.002 130.026 190.278 130.624 193.175L129.451 193.244C129.819 191.773 130.302 190.508 130.9 189.451C131.498 188.393 132.325 187.405 133.383 186.485C134.348 185.657 135.452 185.014 136.694 184.554C137.935 184.094 139.521 183.864 141.453 183.864C144.028 183.864 146.189 184.347 147.936 185.312C149.729 186.278 151.086 187.726 152.005 189.658C152.925 191.589 153.385 193.98 153.385 196.831V219.178H147.039V198.9C147.039 196.785 146.924 195.152 146.694 194.003C146.465 192.807 145.89 191.773 144.97 190.899C144.143 190.071 143.223 189.543 142.211 189.313C141.2 189.083 140.188 188.968 139.177 188.968C137.153 188.968 135.452 189.589 134.073 190.83C133.107 191.75 132.325 192.899 131.728 194.279C131.176 195.658 130.9 197.612 130.9 200.141V219.178H124.554V198.9V198.624C124.554 196.647 124.439 195.083 124.21 193.934C123.98 192.738 123.405 191.727 122.485 190.899C121.658 190.071 120.738 189.543 119.726 189.313C118.715 189.083 117.703 188.968 116.692 188.968C115.68 188.968 114.737 189.129 113.864 189.451C112.99 189.773 112.231 190.232 111.588 190.83C110.622 191.75 109.84 192.899 109.243 194.279C108.691 195.658 108.415 197.612 108.415 200.141V219.178H102.276ZM176.985 220.005C173.444 220.005 170.363 219.293 167.742 217.867C165.167 216.396 163.19 214.304 161.811 211.591C160.431 208.878 159.742 205.659 159.742 201.935C159.742 198.44 160.431 195.336 161.811 192.623C163.236 189.865 165.236 187.726 167.811 186.209C170.432 184.646 173.49 183.864 176.985 183.864C180.433 183.864 183.445 184.646 186.02 186.209C188.641 187.726 190.641 189.865 192.021 192.623C193.446 195.382 194.159 198.486 194.159 201.935C194.159 205.521 193.446 208.694 192.021 211.453C190.595 214.166 188.572 216.281 185.951 217.798C183.376 219.27 180.387 220.005 176.985 220.005ZM176.985 215.108C180.387 215.108 182.939 214.143 184.64 212.212C185.606 211.108 186.319 209.706 186.779 208.004C187.238 206.257 187.468 204.234 187.468 201.935C187.468 197.153 186.503 193.704 184.572 191.589C182.824 189.704 180.295 188.761 176.985 188.761C175.283 188.761 173.812 188.991 172.57 189.451C171.329 189.865 170.294 190.508 169.467 191.382C168.409 192.485 167.627 193.934 167.122 195.727C166.662 197.474 166.432 199.544 166.432 201.935C166.432 204.326 166.662 206.418 167.122 208.211C167.627 209.958 168.409 211.384 169.467 212.487C171.122 214.235 173.628 215.108 176.985 215.108ZM216.043 220.005C212.502 220.005 209.421 219.293 206.801 217.867C204.226 216.396 202.248 214.304 200.869 211.591C199.489 208.878 198.8 205.659 198.8 201.935C198.8 198.44 199.489 195.336 200.869 192.623C202.294 189.865 204.295 187.726 206.869 186.209C209.49 184.646 212.548 183.864 216.043 183.864C219.491 183.864 222.503 184.646 225.078 186.209C227.699 187.726 229.699 189.865 231.079 192.623C232.504 195.382 233.217 198.486 233.217 201.935C233.217 205.521 232.504 208.694 231.079 211.453C229.653 214.166 227.63 216.281 225.009 217.798C222.434 219.27 219.445 220.005 216.043 220.005ZM216.043 215.108C219.445 215.108 221.997 214.143 223.699 212.212C224.664 211.108 225.377 209.706 225.837 208.004C226.297 206.257 226.527 204.234 226.527 201.935C226.527 197.153 225.561 193.704 223.63 191.589C221.882 189.704 219.353 188.761 216.043 188.761C214.341 188.761 212.87 188.991 211.629 189.451C210.387 189.865 209.352 190.508 208.525 191.382C207.467 192.485 206.686 193.934 206.18 195.727C205.72 197.474 205.49 199.544 205.49 201.935C205.49 204.326 205.72 206.418 206.18 208.211C206.686 209.958 207.467 211.384 208.525 212.487C210.18 214.235 212.686 215.108 216.043 215.108ZM252.342 220.005C248.158 220.005 244.663 218.994 241.858 216.971C239.053 214.947 237.674 211.913 237.72 207.866L243.376 207.315C243.33 209.706 244.111 211.614 245.721 213.039C247.33 214.419 249.491 215.108 252.204 215.108C255.009 215.108 257.124 214.649 258.55 213.729C259.975 212.763 260.688 211.361 260.688 209.522C260.688 208.556 260.297 207.751 259.515 207.108C258.779 206.464 257.837 205.981 256.687 205.659C255.584 205.291 254.135 204.9 252.342 204.487C251.882 204.395 251.422 204.303 250.963 204.211C250.503 204.073 250.043 203.958 249.583 203.866C247.192 203.268 245.238 202.647 243.721 202.004C242.249 201.314 241.008 200.325 239.996 199.038C238.984 197.75 238.479 196.049 238.479 193.934C238.479 191.681 239.076 189.796 240.272 188.278C241.513 186.761 243.1 185.657 245.031 184.968C247.008 184.232 249.077 183.864 251.239 183.864C255.239 183.864 258.55 184.761 261.171 186.554C263.791 188.347 265.286 191.221 265.654 195.175L259.86 196.072C259.814 193.681 259.032 191.865 257.515 190.623C255.998 189.382 253.882 188.761 251.17 188.761C249.33 188.761 247.721 189.198 246.342 190.071C244.962 190.899 244.272 192.049 244.272 193.52C244.272 194.854 244.916 195.842 246.204 196.486C247.491 197.13 249.376 197.75 251.859 198.348C251.951 198.394 252.066 198.417 252.204 198.417C252.342 198.417 252.457 198.44 252.549 198.486C252.687 198.532 252.802 198.578 252.894 198.624C253.032 198.624 253.17 198.624 253.308 198.624C256.251 199.222 258.596 199.843 260.343 200.486C262.09 201.084 263.562 202.073 264.757 203.452C265.953 204.832 266.55 206.74 266.55 209.177C266.55 213.039 265.194 215.821 262.481 217.522C259.768 219.178 256.388 220.005 252.342 220.005ZM287.815 220.005C285.148 220.005 282.78 219.592 280.711 218.764C278.642 217.936 276.871 216.672 275.4 214.97C273.974 213.361 272.917 211.476 272.227 209.315C271.537 207.108 271.193 204.625 271.193 201.866C271.193 199.291 271.56 196.923 272.296 194.762C273.032 192.554 274.112 190.646 275.538 189.037C277.055 187.336 278.848 186.048 280.918 185.174C282.987 184.301 285.263 183.864 287.746 183.864C290.551 183.864 293.149 184.462 295.54 185.657C297.931 186.807 299.816 188.485 301.195 190.692C302.253 192.348 303.035 194.348 303.54 196.693C304.046 198.992 304.23 201.36 304.092 203.797H277.952C278.044 207.613 278.894 210.441 280.504 212.281C282.113 214.12 284.527 215.039 287.746 215.039C290.689 215.039 292.965 214.419 294.574 213.177C296.183 211.89 297.195 209.935 297.609 207.315L303.609 207.797C302.874 211.798 301.149 214.832 298.437 216.902C295.77 218.971 292.229 220.005 287.815 220.005ZM278.021 198.969L277.124 198.762H298.161L297.747 198.969C297.747 198.003 297.563 196.923 297.195 195.727C296.873 194.486 296.436 193.451 295.885 192.623C295.011 191.336 293.907 190.393 292.574 189.796C291.286 189.198 289.7 188.899 287.815 188.899C285.93 188.899 284.274 189.244 282.849 189.934C281.423 190.577 280.366 191.474 279.676 192.623C278.664 194.279 278.113 196.233 278.021 198.486V198.969ZM133.914 410.005C130.833 410.005 128.097 409.293 125.706 407.867C123.315 406.396 121.43 404.304 120.05 401.591C118.717 398.832 118.05 395.613 118.05 391.935C118.05 388.348 118.694 385.198 119.981 382.485C121.315 379.727 123.154 377.611 125.499 376.14C127.89 374.623 130.626 373.864 133.707 373.864C136.512 373.864 138.926 374.439 140.949 375.588C142.972 376.738 144.627 378.531 145.915 380.968L144.811 382.141V360.897H151.019V409.178H144.811V401.177L145.915 402.212C144.673 404.787 143.018 406.741 140.949 408.074C138.926 409.362 136.581 410.005 133.914 410.005ZM135.017 405.108C136.443 405.108 137.707 404.901 138.811 404.488C139.96 404.074 140.949 403.453 141.776 402.625C142.834 401.568 143.639 400.142 144.19 398.349C144.742 396.556 145.018 394.441 145.018 392.004C145.018 388.095 144.328 384.923 142.949 382.485C141.57 380.048 138.972 378.83 135.155 378.83C133.408 378.83 131.913 379.083 130.672 379.589C129.43 380.048 128.396 380.761 127.568 381.727C126.649 382.83 125.959 384.233 125.499 385.934C125.085 387.635 124.878 389.636 124.878 391.935C124.878 394.786 125.177 397.177 125.775 399.108C126.373 401.039 127.407 402.533 128.879 403.591C130.35 404.603 132.396 405.108 135.017 405.108ZM169.576 410.005C166.403 410.005 163.667 409.155 161.368 407.453C159.115 405.706 157.989 403.246 157.989 400.073C157.989 397.774 158.54 395.912 159.644 394.487C160.794 393.015 162.196 391.935 163.851 391.245C165.553 390.509 167.507 389.934 169.714 389.521L181.094 387.314C181.094 387.222 181.094 387.13 181.094 387.038C181.094 386.9 181.094 386.785 181.094 386.693C181.094 385.267 181.002 384.141 180.818 383.313C180.681 382.44 180.382 381.681 179.922 381.037C179.416 380.347 178.611 379.796 177.508 379.382C176.404 378.968 175.117 378.761 173.645 378.761C170.657 378.761 168.495 379.359 167.162 380.554C165.874 381.704 165.231 383.589 165.231 386.21L159.161 385.382C159.207 383.313 159.598 381.543 160.334 380.071C161.069 378.554 162.104 377.336 163.437 376.416C164.679 375.588 166.196 374.968 167.99 374.554C169.783 374.094 171.783 373.864 173.99 373.864C176.887 373.864 179.301 374.301 181.232 375.174C183.164 376.002 184.612 377.267 185.578 378.968C186.589 380.669 187.095 382.761 187.095 385.244V401.729C187.095 402.74 187.187 403.43 187.371 403.798C187.601 404.166 188.175 404.35 189.095 404.35C189.647 404.35 190.314 404.258 191.095 404.074L191.233 409.178C190.084 409.362 188.796 409.454 187.371 409.454C185.348 409.454 183.807 408.925 182.75 407.867C181.692 406.81 181.163 405.246 181.163 403.177L181.922 402.212C181.14 404.787 179.715 406.741 177.646 408.074C175.623 409.362 172.933 410.005 169.576 410.005ZM170.542 405.039C174.128 405.039 176.772 404.235 178.473 402.625C180.221 400.97 181.094 398.809 181.094 396.142V388.969L183.991 391.314L170.68 394.211L170.197 394.349C168.22 394.809 166.748 395.452 165.783 396.28C164.817 397.062 164.334 398.303 164.334 400.004C164.334 401.568 164.932 402.809 166.127 403.729C167.323 404.603 168.794 405.039 170.542 405.039ZM207.454 409.523C204.235 409.523 201.89 408.879 200.419 407.591C198.948 406.304 198.212 404.258 198.212 401.453V379.865H193.246V374.692H198.212V365.105H204.35V374.692H211.386V379.865H204.35V401.246C204.35 402.349 204.603 403.085 205.109 403.453C205.661 403.775 206.603 403.936 207.937 403.936C208.811 403.936 209.868 403.821 211.11 403.591L211.248 409.178C210.006 409.408 208.742 409.523 207.454 409.523ZM226.879 410.005C223.707 410.005 220.971 409.155 218.672 407.453C216.419 405.706 215.292 403.246 215.292 400.073C215.292 397.774 215.844 395.912 216.947 394.487C218.097 393.015 219.499 391.935 221.155 391.245C222.856 390.509 224.81 389.934 227.017 389.521L238.398 387.314C238.398 387.222 238.398 387.13 238.398 387.038C238.398 386.9 238.398 386.785 238.398 386.693C238.398 385.267 238.306 384.141 238.122 383.313C237.984 382.44 237.685 381.681 237.225 381.037C236.72 380.347 235.915 379.796 234.811 379.382C233.708 378.968 232.42 378.761 230.949 378.761C227.96 378.761 225.799 379.359 224.465 380.554C223.178 381.704 222.534 383.589 222.534 386.21L216.465 385.382C216.511 383.313 216.902 381.543 217.637 380.071C218.373 378.554 219.408 377.336 220.741 376.416C221.982 375.588 223.5 374.968 225.293 374.554C227.086 374.094 229.087 373.864 231.294 373.864C234.191 373.864 236.605 374.301 238.536 375.174C240.467 376.002 241.915 377.267 242.881 378.968C243.893 380.669 244.398 382.761 244.398 385.244V401.729C244.398 402.74 244.49 403.43 244.674 403.798C244.904 404.166 245.479 404.35 246.399 404.35C246.95 404.35 247.617 404.258 248.399 404.074L248.537 409.178C247.387 409.362 246.1 409.454 244.674 409.454C242.651 409.454 241.111 408.925 240.053 407.867C238.996 406.81 238.467 405.246 238.467 403.177L239.226 402.212C238.444 404.787 237.018 406.741 234.949 408.074C232.926 409.362 230.236 410.005 226.879 410.005ZM227.845 405.039C231.432 405.039 234.076 404.235 235.777 402.625C237.524 400.97 238.398 398.809 238.398 396.142V388.969L241.295 391.314L227.983 394.211L227.5 394.349C225.523 394.809 224.052 395.452 223.086 396.28C222.12 397.062 221.638 398.303 221.638 400.004C221.638 401.568 222.235 402.809 223.431 403.729C224.626 404.603 226.098 405.039 227.845 405.039ZM253.988 409.178V374.692H260.127V382.83L259.713 381.175C259.943 380.255 260.265 379.428 260.679 378.692C261.092 377.956 261.759 377.221 262.679 376.485C263.598 375.703 264.702 375.082 265.989 374.623C267.323 374.117 268.909 373.864 270.749 373.864C273.829 373.864 276.381 374.692 278.404 376.347C280.428 378.002 281.738 380.278 282.336 383.175L281.163 383.244C281.531 381.773 282.014 380.508 282.612 379.451C283.209 378.393 284.037 377.405 285.095 376.485C286.06 375.657 287.164 375.014 288.405 374.554C289.647 374.094 291.233 373.864 293.164 373.864C295.739 373.864 297.901 374.347 299.648 375.312C301.441 376.278 302.798 377.726 303.717 379.658C304.637 381.589 305.097 383.98 305.097 386.831V409.178H298.751V388.9C298.751 386.785 298.636 385.152 298.406 384.003C298.176 382.807 297.602 381.773 296.682 380.899C295.854 380.071 294.935 379.543 293.923 379.313C292.912 379.083 291.9 378.968 290.888 378.968C288.865 378.968 287.164 379.589 285.784 380.83C284.819 381.75 284.037 382.899 283.439 384.279C282.888 385.658 282.612 387.612 282.612 390.141V409.178H276.266V388.9V388.624C276.266 386.647 276.151 385.083 275.921 383.934C275.692 382.738 275.117 381.727 274.197 380.899C273.369 380.071 272.45 379.543 271.438 379.313C270.427 379.083 269.415 378.968 268.403 378.968C267.392 378.968 266.449 379.129 265.576 379.451C264.702 379.773 263.943 380.232 263.3 380.83C262.334 381.75 261.552 382.899 260.954 384.279C260.403 385.658 260.127 387.612 260.127 390.141V409.178H253.988ZM328.696 410.005C325.156 410.005 322.075 409.293 319.454 407.867C316.879 406.396 314.902 404.304 313.523 401.591C312.143 398.878 311.453 395.659 311.453 391.935C311.453 388.44 312.143 385.336 313.523 382.623C314.948 379.865 316.948 377.726 319.523 376.209C322.144 374.646 325.202 373.864 328.696 373.864C332.145 373.864 335.157 374.646 337.732 376.209C340.353 377.726 342.353 379.865 343.732 382.623C345.158 385.382 345.871 388.486 345.871 391.935C345.871 395.521 345.158 398.694 343.732 401.453C342.307 404.166 340.284 406.281 337.663 407.798C335.088 409.27 332.099 410.005 328.696 410.005ZM328.696 405.108C332.099 405.108 334.651 404.143 336.352 402.212C337.318 401.108 338.031 399.706 338.491 398.004C338.95 396.257 339.18 394.234 339.18 391.935C339.18 387.153 338.215 383.704 336.283 381.589C334.536 379.704 332.007 378.761 328.696 378.761C326.995 378.761 325.524 378.991 324.282 379.451C323.041 379.865 322.006 380.508 321.178 381.382C320.121 382.485 319.339 383.934 318.833 385.727C318.374 387.474 318.144 389.544 318.144 391.935C318.144 394.326 318.374 396.418 318.833 398.211C319.339 399.958 320.121 401.384 321.178 402.487C322.834 404.235 325.34 405.108 328.696 405.108ZM366.444 410.005C363.363 410.005 360.628 409.293 358.236 407.867C355.845 406.396 353.96 404.304 352.581 401.591C351.247 398.832 350.581 395.613 350.581 391.935C350.581 388.348 351.224 385.198 352.512 382.485C353.845 379.727 355.685 377.611 358.03 376.14C360.421 374.623 363.156 373.864 366.237 373.864C369.042 373.864 371.456 374.439 373.479 375.588C375.503 376.738 377.158 378.531 378.445 380.968L377.342 382.141V360.897H383.549V409.178H377.342V401.177L378.445 402.212C377.204 404.787 375.549 406.741 373.479 408.074C371.456 409.362 369.111 410.005 366.444 410.005ZM367.548 405.108C368.973 405.108 370.238 404.901 371.341 404.488C372.491 404.074 373.479 403.453 374.307 402.625C375.365 401.568 376.169 400.142 376.721 398.349C377.273 396.556 377.549 394.441 377.549 392.004C377.549 388.095 376.859 384.923 375.48 382.485C374.1 380.048 371.502 378.83 367.686 378.83C365.938 378.83 364.444 379.083 363.202 379.589C361.961 380.048 360.926 380.761 360.099 381.727C359.179 382.83 358.489 384.233 358.03 385.934C357.616 387.635 357.409 389.636 357.409 391.935C357.409 394.786 357.708 397.177 358.305 399.108C358.903 401.039 359.938 402.533 361.409 403.591C362.881 404.603 364.927 405.108 367.548 405.108ZM406.935 410.005C404.268 410.005 401.9 409.592 399.83 408.764C397.761 407.936 395.991 406.672 394.52 404.97C393.094 403.361 392.037 401.476 391.347 399.315C390.657 397.108 390.312 394.625 390.312 391.866C390.312 389.291 390.68 386.923 391.416 384.762C392.152 382.554 393.232 380.646 394.658 379.037C396.175 377.336 397.968 376.048 400.037 375.174C402.107 374.301 404.383 373.864 406.866 373.864C409.671 373.864 412.268 374.462 414.66 375.657C417.051 376.807 418.936 378.485 420.315 380.692C421.373 382.348 422.154 384.348 422.66 386.693C423.166 388.992 423.35 391.36 423.212 393.797H397.072C397.164 397.613 398.014 400.441 399.624 402.281C401.233 404.12 403.647 405.039 406.866 405.039C409.808 405.039 412.085 404.419 413.694 403.177C415.303 401.89 416.315 399.935 416.729 397.315L422.729 397.797C421.994 401.798 420.269 404.832 417.556 406.902C414.889 408.971 411.349 410.005 406.935 410.005ZM397.141 388.969L396.244 388.762H417.28L416.867 388.969C416.867 388.003 416.683 386.923 416.315 385.727C415.993 384.486 415.556 383.451 415.004 382.623C414.131 381.336 413.027 380.393 411.694 379.796C410.406 379.198 408.82 378.899 406.935 378.899C405.049 378.899 403.394 379.244 401.969 379.934C400.543 380.577 399.486 381.474 398.796 382.623C397.784 384.279 397.233 386.233 397.141 388.486V388.969ZM429.889 409.178V360.897H436.096V409.178H429.889ZM429.889 409.178V403.936H436.096V409.178H429.889ZM429.889 366.139V360.897H433.2V366.139H429.889ZM457.249 410.005C453.064 410.005 449.57 408.994 446.765 406.971C443.96 404.947 442.581 401.913 442.627 397.866L448.282 397.315C448.236 399.706 449.018 401.614 450.627 403.039C452.237 404.419 454.398 405.108 457.111 405.108C459.916 405.108 462.031 404.649 463.456 403.729C464.882 402.763 465.594 401.361 465.594 399.522C465.594 398.556 465.204 397.751 464.422 397.108C463.686 396.464 462.744 395.981 461.594 395.659C460.49 395.291 459.042 394.9 457.249 394.487C456.789 394.395 456.329 394.303 455.869 394.211C455.41 394.073 454.95 393.958 454.49 393.866C452.099 393.268 450.145 392.647 448.627 392.004C447.156 391.314 445.914 390.325 444.903 389.038C443.891 387.75 443.385 386.049 443.385 383.934C443.385 381.681 443.983 379.796 445.179 378.278C446.42 376.761 448.007 375.657 449.938 374.968C451.915 374.232 453.984 373.864 456.145 373.864C460.146 373.864 463.456 374.761 466.077 376.554C468.698 378.347 470.193 381.221 470.56 385.175L464.767 386.072C464.721 383.681 463.939 381.865 462.422 380.623C460.904 379.382 458.789 378.761 456.076 378.761C454.237 378.761 452.628 379.198 451.248 380.071C449.869 380.899 449.179 382.049 449.179 383.52C449.179 384.854 449.823 385.842 451.11 386.486C452.398 387.13 454.283 387.75 456.766 388.348C456.858 388.394 456.973 388.417 457.111 388.417C457.249 388.417 457.364 388.44 457.456 388.486C457.594 388.532 457.709 388.578 457.801 388.624C457.938 388.624 458.076 388.624 458.214 388.624C461.157 389.222 463.502 389.843 465.25 390.486C466.997 391.084 468.468 392.073 469.664 393.452C470.859 394.832 471.457 396.74 471.457 399.177C471.457 403.039 470.101 405.821 467.388 407.522C464.675 409.178 461.295 410.005 457.249 410.005ZM122.257 504.178V474.865H117.291V469.692H122.257V463.622C122.257 461.737 122.579 460.219 123.223 459.07C123.867 457.874 124.855 457.001 126.189 456.449C127.568 455.851 129.338 455.552 131.5 455.552C132.235 455.552 132.925 455.598 133.569 455.69C134.258 455.736 134.833 455.805 135.293 455.897L135.155 461.415C133.914 461.185 132.81 461.07 131.844 461.07C130.603 461.07 129.706 461.254 129.155 461.622C128.649 461.944 128.396 462.656 128.396 463.76V469.692H135.431V474.865H128.396V504.178H122.257ZM140.742 504.178V455.897H146.949V504.178H140.742ZM140.742 504.178V498.936H146.949V504.178H140.742ZM140.742 461.139V455.897H144.053V461.139H140.742ZM170.914 505.005C167.374 505.005 164.293 504.293 161.672 502.867C159.097 501.396 157.12 499.304 155.741 496.591C154.361 493.878 153.671 490.659 153.671 486.935C153.671 483.44 154.361 480.336 155.741 477.623C157.166 474.865 159.166 472.726 161.741 471.209C164.362 469.646 167.42 468.864 170.914 468.864C174.363 468.864 177.375 469.646 179.95 471.209C182.571 472.726 184.571 474.865 185.95 477.623C187.376 480.382 188.089 483.486 188.089 486.935C188.089 490.521 187.376 493.694 185.95 496.453C184.525 499.166 182.502 501.281 179.881 502.798C177.306 504.27 174.317 505.005 170.914 505.005ZM170.914 500.108C174.317 500.108 176.869 499.143 178.57 497.212C179.536 496.108 180.249 494.706 180.709 493.004C181.168 491.257 181.398 489.234 181.398 486.935C181.398 482.153 180.433 478.704 178.501 476.589C176.754 474.704 174.225 473.761 170.914 473.761C169.213 473.761 167.742 473.991 166.5 474.451C165.259 474.865 164.224 475.508 163.397 476.382C162.339 477.485 161.557 478.934 161.051 480.727C160.592 482.474 160.362 484.544 160.362 486.935C160.362 489.326 160.592 491.418 161.051 493.211C161.557 494.958 162.339 496.384 163.397 497.487C165.052 499.235 167.558 500.108 170.914 500.108ZM201.844 504.178L190.325 469.692H197.016L202.395 488.107C202.441 488.291 202.51 488.544 202.602 488.866C202.694 489.142 202.809 489.51 202.947 489.969C203.269 491.165 203.614 492.475 203.982 493.901C204.35 495.326 204.74 496.775 205.154 498.246C205.384 497.235 205.637 496.177 205.913 495.073C206.189 493.924 206.442 492.797 206.672 491.694C206.856 490.958 206.994 490.291 207.086 489.694C207.223 489.05 207.361 488.521 207.499 488.107L212.121 469.692H217.914L222.466 488.107C222.604 488.705 222.742 489.372 222.88 490.107C223.064 490.843 223.248 491.625 223.432 492.452C223.662 493.418 223.869 494.384 224.053 495.349C224.283 496.315 224.513 497.281 224.742 498.246C224.972 497.372 225.179 496.545 225.363 495.763C225.593 494.935 225.823 494.131 226.053 493.349C226.283 492.383 226.513 491.464 226.743 490.59C227.019 489.717 227.271 488.889 227.501 488.107L233.019 469.692H239.709L228.191 504.178H221.501L216.88 486.383C216.558 485.049 215.914 482.038 214.948 477.348C214.121 481.624 213.5 484.636 213.086 486.383L208.603 504.178H201.844ZM256.577 505.005C252.393 505.005 248.898 503.994 246.094 501.971C243.289 499.947 241.909 496.913 241.955 492.866L247.611 492.315C247.565 494.706 248.347 496.614 249.956 498.039C251.565 499.419 253.727 500.108 256.439 500.108C259.244 500.108 261.359 499.649 262.785 498.729C264.21 497.763 264.923 496.361 264.923 494.522C264.923 493.556 264.532 492.751 263.751 492.108C263.015 491.464 262.072 490.981 260.923 490.659C259.819 490.291 258.371 489.9 256.577 489.487C256.118 489.395 255.658 489.303 255.198 489.211C254.738 489.073 254.278 488.958 253.819 488.866C251.427 488.268 249.473 487.647 247.956 487.004C246.484 486.314 245.243 485.325 244.231 484.038C243.22 482.75 242.714 481.049 242.714 478.934C242.714 476.681 243.312 474.796 244.507 473.278C245.749 471.761 247.335 470.657 249.266 469.968C251.244 469.232 253.313 468.864 255.474 468.864C259.474 468.864 262.785 469.761 265.406 471.554C268.027 473.347 269.521 476.221 269.889 480.175L264.095 481.072C264.049 478.681 263.268 476.865 261.75 475.623C260.233 474.382 258.118 473.761 255.405 473.761C253.566 473.761 251.956 474.198 250.577 475.071C249.197 475.899 248.508 477.049 248.508 478.52C248.508 479.854 249.151 480.842 250.439 481.486C251.726 482.13 253.612 482.75 256.095 483.348C256.187 483.394 256.302 483.417 256.439 483.417C256.577 483.417 256.692 483.44 256.784 483.486C256.922 483.532 257.037 483.578 257.129 483.624C257.267 483.624 257.405 483.624 257.543 483.624C260.486 484.222 262.831 484.843 264.578 485.486C266.325 486.084 267.797 487.073 268.992 488.452C270.188 489.832 270.786 491.74 270.786 494.177C270.786 498.039 269.429 500.821 266.716 502.522C264.003 504.178 260.624 505.005 256.577 505.005ZM120.05 558.208V550.897H126.258V558.208H120.05ZM120.05 599.178V564.692H126.258V599.178H120.05ZM120.05 599.178V593.936H126.258V599.178H120.05ZM120.05 569.934V564.692H126.258V569.934H120.05ZM134.995 599.178V564.692H141.203V572.968L140.513 571.865C141.249 569.244 142.536 567.267 144.375 565.933C146.261 564.554 148.744 563.864 151.824 563.864C154.077 563.864 156.032 564.186 157.687 564.83C159.388 565.427 160.86 566.393 162.101 567.726C163.251 568.968 163.986 570.485 164.308 572.279C164.63 574.026 164.791 576.164 164.791 578.693V599.178H158.377V579.038C158.377 578.992 158.377 578.946 158.377 578.9C158.377 578.854 158.377 578.808 158.377 578.762C158.377 576.785 158.262 575.221 158.032 574.072C157.802 572.922 157.227 571.911 156.307 571.037C155.434 570.163 154.514 569.612 153.549 569.382C152.583 569.152 151.456 569.037 150.169 569.037C147.916 569.037 145.847 569.819 143.961 571.382C142.122 572.899 141.203 575.819 141.203 580.141V599.178H134.995ZM185.593 600.005C181.408 600.005 177.914 598.994 175.109 596.971C172.304 594.947 170.925 591.913 170.971 587.866L176.626 587.315C176.58 589.706 177.362 591.614 178.971 593.039C180.581 594.419 182.742 595.108 185.455 595.108C188.26 595.108 190.375 594.649 191.8 593.729C193.226 592.763 193.938 591.361 193.938 589.522C193.938 588.556 193.547 587.751 192.766 587.108C192.03 586.464 191.087 585.981 189.938 585.659C188.834 585.291 187.386 584.9 185.593 584.487C185.133 584.395 184.673 584.303 184.213 584.211C183.753 584.073 183.294 583.958 182.834 583.866C180.443 583.268 178.488 582.647 176.971 582.004C175.5 581.314 174.258 580.325 173.247 579.038C172.235 577.75 171.729 576.049 171.729 573.934C171.729 571.681 172.327 569.796 173.522 568.278C174.764 566.761 176.35 565.657 178.282 564.968C180.259 564.232 182.328 563.864 184.489 563.864C188.489 563.864 191.8 564.761 194.421 566.554C197.042 568.347 198.536 571.221 198.904 575.175L193.111 576.072C193.065 573.681 192.283 571.865 190.766 570.623C189.248 569.382 187.133 568.761 184.42 568.761C182.581 568.761 180.971 569.198 179.592 570.071C178.213 570.899 177.523 572.049 177.523 573.52C177.523 574.854 178.167 575.842 179.454 576.486C180.742 577.13 182.627 577.75 185.11 578.348C185.202 578.394 185.317 578.417 185.455 578.417C185.593 578.417 185.708 578.44 185.8 578.486C185.937 578.532 186.052 578.578 186.144 578.624C186.282 578.624 186.42 578.624 186.558 578.624C189.501 579.222 191.846 579.843 193.593 580.486C195.341 581.084 196.812 582.073 198.008 583.452C199.203 584.832 199.801 586.74 199.801 589.177C199.801 593.039 198.444 595.821 195.732 597.522C193.019 599.178 189.639 600.005 185.593 600.005ZM206.443 558.208V550.897H212.651V558.208H206.443ZM206.443 599.178V564.692H212.651V599.178H206.443ZM206.443 599.178V593.936H212.651V599.178H206.443ZM206.443 569.934V564.692H212.651V569.934H206.443ZM235.734 613.317C231.826 613.317 228.423 612.374 225.526 610.489C222.676 608.604 221.181 605.661 221.043 601.661L226.975 601.247C227.113 603.96 227.963 605.845 229.527 606.903C231.136 607.96 233.435 608.489 236.424 608.489C239.321 608.489 241.643 607.638 243.39 605.937C245.184 604.236 246.08 601.868 246.08 598.833V590.004L247.184 591.039C245.896 593.706 244.241 595.683 242.218 596.971C240.241 598.258 237.895 598.902 235.183 598.902C232.056 598.902 229.297 598.166 226.906 596.695C224.515 595.223 222.653 593.131 221.319 590.418C220.032 587.705 219.388 584.579 219.388 581.038C219.388 577.681 220.032 574.716 221.319 572.141C222.653 569.52 224.492 567.497 226.837 566.071C229.228 564.6 231.941 563.864 234.976 563.864C237.872 563.864 240.309 564.485 242.287 565.726C244.264 566.968 245.873 568.83 247.115 571.313L246.08 572.485V564.692H252.288V598.419C252.288 603.017 250.793 606.65 247.804 609.317C244.862 611.984 240.838 613.317 235.734 613.317ZM236.148 593.936C237.712 593.936 239.068 593.706 240.218 593.246C241.413 592.74 242.425 592.028 243.252 591.108C244.31 589.912 245.092 588.441 245.597 586.694C246.103 584.946 246.356 583.061 246.356 581.038C246.356 576.992 245.482 573.957 243.735 571.934C242.034 569.865 239.551 568.83 236.286 568.83C234.539 568.83 233.044 569.083 231.803 569.589C230.561 570.048 229.55 570.738 228.768 571.658C227.849 572.669 227.182 573.957 226.768 575.52C226.354 577.084 226.147 578.923 226.147 581.038C226.147 583.889 226.446 586.257 227.044 588.142C227.642 589.981 228.653 591.407 230.079 592.418C231.55 593.43 233.573 593.936 236.148 593.936ZM261.053 599.178V550.897H267.26V572.83L266.501 571.934C267.237 569.221 268.593 567.198 270.571 565.864C272.548 564.531 274.985 563.864 277.882 563.864C280.135 563.864 282.089 564.186 283.744 564.83C285.446 565.427 286.917 566.393 288.159 567.726C289.308 568.968 290.044 570.462 290.366 572.21C290.688 573.957 290.849 576.072 290.849 578.555V599.178H284.434V578.9C284.434 578.854 284.434 578.808 284.434 578.762C284.434 578.716 284.434 578.67 284.434 578.624C284.434 576.647 284.319 575.106 284.089 574.003C283.859 572.899 283.285 571.911 282.365 571.037C281.491 570.163 280.572 569.612 279.606 569.382C278.64 569.152 277.514 569.037 276.226 569.037C273.881 569.037 271.789 569.75 269.95 571.175C268.157 572.554 267.26 575.428 267.26 579.797V599.178H261.053ZM310.072 599.523C306.853 599.523 304.508 598.879 303.037 597.591C301.565 596.304 300.83 594.258 300.83 591.453V569.865H295.864V564.692H300.83V555.105H306.968V564.692H314.003V569.865H306.968V591.246C306.968 592.349 307.221 593.085 307.727 593.453C308.279 593.775 309.221 593.936 310.555 593.936C311.428 593.936 312.486 593.821 313.727 593.591L313.865 599.178C312.624 599.408 311.359 599.523 310.072 599.523ZM332.118 600.005C327.934 600.005 324.439 598.994 321.634 596.971C318.829 594.947 317.45 591.913 317.496 587.866L323.152 587.315C323.106 589.706 323.887 591.614 325.497 593.039C327.106 594.419 329.267 595.108 331.98 595.108C334.785 595.108 336.9 594.649 338.326 593.729C339.751 592.763 340.464 591.361 340.464 589.522C340.464 588.556 340.073 587.751 339.291 587.108C338.556 586.464 337.613 585.981 336.463 585.659C335.36 585.291 333.911 584.9 332.118 584.487C331.658 584.395 331.199 584.303 330.739 584.211C330.279 584.073 329.819 583.958 329.359 583.866C326.968 583.268 325.014 582.647 323.497 582.004C322.025 581.314 320.784 580.325 319.772 579.038C318.761 577.75 318.255 576.049 318.255 573.934C318.255 571.681 318.852 569.796 320.048 568.278C321.289 566.761 322.876 565.657 324.807 564.968C326.784 564.232 328.853 563.864 331.015 563.864C335.015 563.864 338.326 564.761 340.947 566.554C343.568 568.347 345.062 571.221 345.43 575.175L339.636 576.072C339.59 573.681 338.808 571.865 337.291 570.623C335.774 569.382 333.659 568.761 330.946 568.761C329.106 568.761 327.497 569.198 326.118 570.071C324.738 570.899 324.048 572.049 324.048 573.52C324.048 574.854 324.692 575.842 325.98 576.486C327.267 577.13 329.152 577.75 331.635 578.348C331.727 578.394 331.842 578.417 331.98 578.417C332.118 578.417 332.233 578.44 332.325 578.486C332.463 578.532 332.578 578.578 332.67 578.624C332.808 578.624 332.946 578.624 333.084 578.624C336.027 579.222 338.372 579.843 340.119 580.486C341.866 581.084 343.338 582.073 344.533 583.452C345.729 584.832 346.326 586.74 346.326 589.177C346.326 593.039 344.97 595.821 342.257 597.522C339.544 599.178 336.164 600.005 332.118 600.005Z" fill="#7F7F7F"/>
</svg>
