<svg width="108" height="109" viewBox="0 0 108 109" fill="none" xmlns="http://www.w3.org/2000/svg">
<path fill-rule="evenodd" clip-rule="evenodd" d="M67.9919 0.0801124V27.1454L80.9903 27.1454V54.1707V54.2107V81.0148V81.236V108.08L107.907 108.08V81.236V54.2107L107.907 54.1707V27.1454L108 27.1454L108 0.0801128L81.0832 0.0800781L67.9919 0.0801124ZM-1.52588e-05 0.0802281V27.0651V27.1455V54.1304V81.1957L27.07 81.1957V54.1304V54.1304V27.1455L40.4975 27.1456L40.3719 0.0802035L27.07 0.0801905L26.4274 0.0802038L-1.52588e-05 0.0802281ZM27.3172 81.0148L27.3172 108.08L54.7234 108.08V81.0148L27.3172 81.0148ZM40.6087 27.0527V54.118L67.6787 54.118L67.6787 27.0526L40.6087 27.0527Z" fill="black"/>
</svg>
