<svg width="506" height="348" viewBox="0 0 506 348" fill="none" xmlns="http://www.w3.org/2000/svg">
<rect width="289.856" height="221.703" rx="16.4225" transform="matrix(0.855613 0.517616 -0.855613 0.517616 233.219 74.0781)" fill="black"/>
<rect y="-0.212513" width="277.95" height="209.797" rx="24.6435" transform="matrix(0.855613 0.517616 -0.855613 0.517616 233.037 80.3506)" fill="black"/>
<rect y="-0.212513" width="277.95" height="209.797" rx="24.6435" transform="matrix(0.855613 0.517616 -0.855613 0.517616 233.037 80.3506)" stroke="#FAFAFA" stroke-width="0.410561"/>
<path d="M138.756 212.48L150.559 205.339L151.992 206.206L147.17 212.98C147.046 213.15 146.917 213.316 146.782 213.479C146.669 213.643 146.557 213.806 146.445 213.969C146.276 214.207 146.107 214.432 145.939 214.642C145.781 214.86 145.63 215.067 145.484 215.265C145.731 215.197 146.001 215.122 146.293 215.04C146.585 214.959 146.889 214.877 147.203 214.795C147.529 214.707 147.855 214.619 148.181 214.53C148.519 214.435 148.845 214.347 149.159 214.265L160.507 211.358L161.907 212.204L150.104 219.345L149.126 218.753L157.152 213.898C157.781 213.517 158.636 213.02 159.715 212.408C159.265 212.531 158.832 212.65 158.416 212.765C158.012 212.874 157.618 212.976 157.236 213.071C157.056 213.126 156.876 213.173 156.696 213.214C156.517 213.255 156.342 213.299 156.174 213.347L144.944 216.223L143.865 215.571L148.704 208.706C148.794 208.556 148.901 208.403 149.024 208.247C149.159 208.083 149.294 207.913 149.429 207.737C149.553 207.553 149.682 207.373 149.817 207.196C149.974 207.019 150.109 206.842 150.222 206.665L150.205 206.655C150.025 206.778 149.834 206.9 149.631 207.022C149.452 207.145 149.266 207.271 149.075 207.4C148.603 207.699 148.187 207.958 147.827 208.175L139.734 213.071L138.756 212.48ZM155.881 223.064C155.038 222.554 154.487 222.01 154.228 221.432C153.981 220.847 154.021 220.259 154.347 219.668C154.684 219.083 155.302 218.518 156.201 217.974C157.033 217.471 157.944 217.117 158.933 216.913C159.922 216.709 160.911 216.675 161.9 216.811C162.901 216.954 163.811 217.274 164.632 217.77C165.475 218.28 166.015 218.831 166.251 219.423C166.498 220.008 166.447 220.596 166.099 221.187C165.762 221.786 165.16 222.347 164.295 222.871C163.44 223.387 162.519 223.748 161.53 223.952C160.552 224.149 159.568 224.173 158.579 224.023C157.601 223.88 156.701 223.561 155.881 223.064ZM156.673 222.564C157.651 223.156 158.663 223.428 159.708 223.381C160.304 223.347 160.894 223.234 161.479 223.044C162.086 222.854 162.676 222.585 163.249 222.238C164.486 221.49 165.115 220.756 165.138 220.035C165.172 219.402 164.744 218.817 163.856 218.28C163.373 217.988 162.873 217.774 162.356 217.638C161.85 217.508 161.338 217.451 160.821 217.464C160.226 217.485 159.624 217.59 159.017 217.78C158.433 217.971 157.842 218.246 157.247 218.607C156.662 218.96 156.201 219.321 155.864 219.688C155.549 220.055 155.369 220.416 155.324 220.769C155.268 221.388 155.718 221.986 156.673 222.564ZM165.18 228.69C164.337 228.18 163.786 227.636 163.527 227.058C163.28 226.473 163.319 225.885 163.645 225.293C163.982 224.708 164.601 224.144 165.5 223.6C166.332 223.096 167.242 222.743 168.232 222.539C169.221 222.335 170.21 222.301 171.199 222.437C172.2 222.58 173.11 222.899 173.931 223.396C174.774 223.906 175.313 224.456 175.549 225.048C175.797 225.633 175.746 226.221 175.398 226.813C175.06 227.411 174.459 227.972 173.594 228.496C172.739 229.013 171.817 229.373 170.828 229.577C169.85 229.774 168.867 229.798 167.877 229.649C166.9 229.506 166 229.186 165.18 228.69ZM165.972 228.19C166.95 228.782 167.962 229.054 169.007 229.006C169.603 228.972 170.193 228.86 170.778 228.669C171.385 228.479 171.975 228.21 172.548 227.863C173.785 227.115 174.414 226.381 174.437 225.66C174.47 225.028 174.043 224.443 173.155 223.906C172.672 223.613 172.172 223.399 171.654 223.263C171.149 223.134 170.637 223.076 170.12 223.09C169.524 223.11 168.923 223.215 168.316 223.406C167.731 223.596 167.141 223.872 166.545 224.232C165.961 224.586 165.5 224.946 165.163 225.313C164.848 225.681 164.668 226.041 164.623 226.395C164.567 227.013 165.017 227.612 165.972 228.19ZM173.888 233.958C172.832 233.319 172.23 232.649 172.084 231.949C171.96 231.248 172.371 230.619 173.315 230.061L174.327 230.571C173.607 230.993 173.298 231.466 173.399 231.989C173.512 232.52 173.956 233.02 174.731 233.489C175.473 233.938 176.187 234.2 176.873 234.274C177.57 234.356 178.182 234.237 178.711 233.917C179.059 233.706 179.228 233.468 179.216 233.203C179.205 232.938 179.082 232.673 178.846 232.408C178.621 232.149 178.283 231.816 177.834 231.408C177.778 231.347 177.721 231.292 177.665 231.245C177.609 231.197 177.553 231.143 177.497 231.082C177.013 230.626 176.665 230.231 176.451 229.898C176.238 229.565 176.165 229.242 176.232 228.929C176.311 228.623 176.575 228.334 177.024 228.062C177.485 227.783 178.019 227.617 178.626 227.562C179.245 227.501 179.868 227.552 180.498 227.715C181.15 227.879 181.768 228.137 182.353 228.491C183.286 229.055 183.825 229.653 183.971 230.286C184.129 230.912 183.82 231.52 183.044 232.112L181.965 231.643C182.561 231.214 182.825 230.769 182.757 230.306C182.701 229.837 182.302 229.378 181.56 228.929C180.964 228.569 180.346 228.351 179.705 228.276C179.065 228.202 178.52 228.3 178.07 228.572C177.643 228.831 177.485 229.123 177.598 229.449C177.733 229.776 178.092 230.218 178.677 230.776C178.711 230.81 178.75 230.84 178.795 230.867C178.84 230.895 178.874 230.922 178.896 230.949C178.907 230.969 178.924 230.993 178.947 231.02C178.98 231.041 179.008 231.058 179.031 231.071C179.571 231.561 179.97 231.979 180.228 232.326C180.509 232.673 180.622 233.026 180.565 233.387C180.532 233.747 180.245 234.091 179.705 234.417C178.885 234.914 177.952 235.111 176.906 235.009C175.883 234.907 174.877 234.557 173.888 233.958ZM182.276 239.053C181.691 238.699 181.247 238.322 180.944 237.92C180.652 237.526 180.517 237.118 180.539 236.696C180.55 236.241 180.73 235.792 181.079 235.35C181.45 234.908 182 234.466 182.731 234.024C183.428 233.602 184.153 233.279 184.906 233.055C185.671 232.837 186.441 232.725 187.216 232.718C187.913 232.718 188.582 232.803 189.223 232.973C189.875 233.15 190.465 233.398 190.993 233.718C191.623 234.099 192.067 234.524 192.325 234.993C192.584 235.462 192.634 235.948 192.477 236.452C192.365 236.846 192.106 237.247 191.701 237.655C191.308 238.056 190.813 238.424 190.218 238.757L183.608 234.758C182.428 235.486 181.821 236.166 181.787 236.798C181.764 237.438 182.208 238.033 183.119 238.584C183.895 239.053 184.693 239.311 185.513 239.359C186.345 239.4 187.16 239.253 187.958 238.92L188.784 239.542C187.717 239.984 186.609 240.165 185.463 240.083C184.339 240.001 183.276 239.658 182.276 239.053ZM184.266 234.381L184.164 234.136L190.235 237.808L189.897 237.767C190.235 237.55 190.527 237.298 190.774 237.013C191.021 236.727 191.196 236.452 191.297 236.186C191.42 235.812 191.376 235.459 191.162 235.126C190.971 234.792 190.639 234.483 190.167 234.197C189.74 233.939 189.279 233.748 188.784 233.626C188.312 233.504 187.835 233.453 187.351 233.473C186.396 233.507 185.44 233.765 184.485 234.248L184.266 234.381ZM192.144 244.778L203.947 237.637L208.163 240.188C208.983 240.684 209.579 241.16 209.95 241.616C210.332 242.078 210.461 242.551 210.338 243.034C210.225 243.51 209.77 243.989 208.972 244.472C208.275 244.893 207.499 245.138 206.645 245.206C205.802 245.267 204.964 245.148 204.133 244.849L204.284 244.676C205.015 245.322 205.352 245.92 205.296 246.471C205.24 247.022 204.79 247.552 203.947 248.062C203.149 248.545 202.34 248.824 201.519 248.899C200.71 248.967 199.889 248.872 199.057 248.613C198.237 248.348 197.343 247.923 196.376 247.338L192.144 244.778ZM197.236 246.838C198.023 247.314 198.709 247.654 199.293 247.858C199.889 248.069 200.485 248.151 201.081 248.103C201.699 248.056 202.323 247.841 202.952 247.461C203.638 247.046 203.998 246.638 204.031 246.237C204.076 245.829 203.908 245.448 203.526 245.094C203.155 244.734 202.615 244.339 201.907 243.911L198.737 241.993L193.982 244.87L197.236 246.838ZM202.598 243.289C203.374 243.758 204.048 244.084 204.622 244.268C205.217 244.451 205.785 244.516 206.325 244.462C206.875 244.4 207.432 244.2 207.994 243.86C208.59 243.499 208.927 243.146 209.006 242.799C209.096 242.445 208.989 242.102 208.685 241.769C208.382 241.435 207.898 241.068 207.235 240.667L204.082 238.759L199.597 241.473L202.598 243.289ZM204.712 252.626C203.892 252.129 203.431 251.592 203.329 251.014C203.24 250.443 203.554 249.94 204.274 249.504C204.78 249.198 205.308 249.015 205.859 248.954C206.421 248.899 206.983 248.933 207.545 249.056C208.107 249.178 208.697 249.365 209.315 249.617L213.16 251.188C213.193 251.167 213.227 251.147 213.261 251.126C213.295 251.106 213.323 251.089 213.345 251.075C213.806 250.797 214.143 250.552 214.357 250.341C214.593 250.13 214.705 249.913 214.694 249.688C214.694 249.47 214.587 249.243 214.374 249.005C214.171 248.773 213.874 248.539 213.48 248.301C212.648 247.798 211.884 247.532 211.187 247.505C210.501 247.471 209.782 247.682 209.029 248.138L208.202 247.475C208.641 247.196 209.119 246.995 209.636 246.873C210.175 246.75 210.704 246.71 211.221 246.75C211.738 246.791 212.255 246.907 212.772 247.097C213.312 247.288 213.829 247.532 214.323 247.832C215.009 248.246 215.481 248.654 215.74 249.056C216.021 249.457 216.071 249.855 215.891 250.249C215.723 250.637 215.318 251.024 214.677 251.412L210.26 254.085C210.012 254.234 209.872 254.353 209.838 254.442C209.827 254.53 209.934 254.642 210.158 254.778C210.349 254.894 210.591 255.006 210.883 255.115L210.091 255.615C209.754 255.479 209.456 255.332 209.197 255.176C208.736 254.897 208.523 254.618 208.557 254.34C208.59 254.061 208.922 253.745 209.551 253.391L209.754 253.391C208.978 253.615 208.152 253.673 207.275 253.564C206.41 253.449 205.555 253.136 204.712 252.626ZM205.69 252.238C206.601 252.789 207.528 253.078 208.472 253.105C209.428 253.139 210.293 252.922 211.069 252.452L212.89 251.351L212.991 251.861L208.658 250.157L208.489 250.096C207.826 249.845 207.247 249.712 206.752 249.698C206.269 249.678 205.797 249.807 205.336 250.086C204.819 250.399 204.6 250.749 204.678 251.137C204.768 251.517 205.106 251.885 205.69 252.238ZM214.599 258.587C213.733 258.063 213.177 257.509 212.929 256.924C212.693 256.346 212.75 255.768 213.098 255.19C213.458 254.605 214.076 254.047 214.953 253.517C215.796 253.007 216.706 252.646 217.684 252.436C218.674 252.232 219.657 252.201 220.635 252.344C221.624 252.48 222.529 252.796 223.35 253.292C224.328 253.884 224.856 254.516 224.935 255.19C225.025 255.856 224.733 256.509 224.058 257.148L222.928 256.689C223.468 256.172 223.726 255.676 223.704 255.2C223.682 254.724 223.282 254.251 222.507 253.782C221.978 253.462 221.433 253.241 220.871 253.119C220.332 252.997 219.781 252.963 219.219 253.017C218.702 253.058 218.168 253.177 217.617 253.374C217.077 253.578 216.543 253.84 216.015 254.159C214.891 254.84 214.25 255.506 214.093 256.159C213.936 256.812 214.38 257.454 215.425 258.087C216.178 258.542 216.937 258.804 217.701 258.872C218.466 258.94 219.286 258.804 220.163 258.464L220.989 259.086C220.315 259.358 219.607 259.522 218.865 259.576C218.134 259.637 217.398 259.586 216.656 259.423C215.925 259.253 215.24 258.974 214.599 258.587ZM219.983 261.62L231.786 254.479L232.764 255.071L220.961 262.211L219.983 261.62ZM224.013 260.243L225.143 259.58L233.675 259.763L234.973 260.549L228.313 260.355H227.639L224.013 260.243ZM225.632 265.037L227.301 260.253L228.633 260.263L226.762 265.72L225.632 265.037ZM230.774 268.392C230.189 268.039 229.745 267.661 229.442 267.26C229.149 266.866 229.014 266.457 229.037 266.036C229.048 265.58 229.228 265.131 229.577 264.689C229.948 264.247 230.498 263.805 231.229 263.363C231.926 262.942 232.651 262.619 233.404 262.394C234.169 262.177 234.939 262.064 235.714 262.058C236.411 262.058 237.08 262.143 237.721 262.313C238.373 262.489 238.963 262.738 239.491 263.057C240.121 263.438 240.565 263.863 240.823 264.332C241.082 264.802 241.132 265.288 240.975 265.791C240.863 266.185 240.604 266.587 240.199 266.995C239.806 267.396 239.311 267.763 238.715 268.096L232.106 264.098C230.925 264.825 230.318 265.505 230.285 266.138C230.262 266.777 230.706 267.372 231.617 267.923C232.392 268.392 233.191 268.651 234.011 268.698C234.843 268.739 235.658 268.593 236.456 268.26L237.282 268.882C236.214 269.324 235.107 269.504 233.961 269.422C232.836 269.341 231.774 268.997 230.774 268.392ZM232.763 263.72L232.662 263.476L238.732 267.148L238.395 267.107C238.732 266.889 239.025 266.638 239.272 266.352C239.519 266.066 239.693 265.791 239.795 265.526C239.918 265.152 239.873 264.798 239.66 264.465C239.469 264.132 239.137 263.822 238.665 263.537C238.238 263.278 237.777 263.088 237.282 262.965C236.81 262.843 236.332 262.792 235.849 262.812C234.894 262.846 233.938 263.105 232.983 263.588L232.763 263.72ZM236.44 271.575L244.82 266.506L245.798 267.097L243.741 268.342L243.826 268.168C244.646 267.876 245.484 267.771 246.338 267.852C247.192 267.934 248.013 268.213 248.8 268.689C249.317 269.001 249.693 269.324 249.929 269.658C250.188 269.991 250.317 270.328 250.317 270.668C250.306 271.028 250.126 271.368 249.778 271.688C249.44 272 248.985 272.33 248.412 272.677L243.337 275.747L242.325 275.135L247.232 272.167C247.243 272.16 247.254 272.153 247.265 272.147C247.277 272.14 247.288 272.133 247.299 272.126C247.805 271.82 248.193 271.552 248.463 271.32C248.732 271.089 248.878 270.831 248.901 270.545C248.935 270.266 248.845 270.008 248.631 269.77C248.418 269.532 248.108 269.29 247.704 269.046C247.063 268.658 246.254 268.434 245.276 268.372C244.32 268.311 243.264 268.631 242.106 269.331L237.418 272.167L236.44 271.575ZM248.645 279.183C247.914 278.741 247.425 278.241 247.178 277.684C246.942 277.133 246.981 276.558 247.296 275.96C247.611 275.361 248.234 274.78 249.167 274.215C250.078 273.665 251.039 273.294 252.051 273.104C253.062 272.913 254.029 272.893 254.951 273.042C255.884 273.185 256.699 273.467 257.396 273.889C258.149 274.345 258.615 274.831 258.795 275.348C258.986 275.871 258.919 276.388 258.593 276.898L258.239 276.929L263.567 273.705L264.562 274.307L252.759 281.448L251.764 280.846L253.821 279.601L253.804 279.795C252.894 280.033 251.989 280.105 251.09 280.009C250.202 279.907 249.387 279.632 248.645 279.183ZM249.572 278.765C249.999 279.023 250.438 279.214 250.887 279.336C251.348 279.465 251.82 279.527 252.304 279.52C252.899 279.513 253.506 279.404 254.125 279.193C254.754 278.989 255.395 278.69 256.047 278.296C257.193 277.602 257.829 276.932 257.952 276.286C258.087 275.647 257.682 275.042 256.738 274.47C256.289 274.198 255.811 273.998 255.305 273.869C254.81 273.746 254.299 273.695 253.771 273.716C253.186 273.743 252.596 273.855 252 274.052C251.404 274.249 250.82 274.521 250.247 274.868C249.482 275.331 248.943 275.786 248.628 276.235C248.324 276.691 248.246 277.133 248.392 277.561C248.56 277.99 248.954 278.391 249.572 278.765Z" fill="#FAFAFA"/>
<rect width="303.878" height="232.428" rx="25.6204" transform="matrix(0.855611 0.517619 -0.855611 0.517619 241.023 1.64844)" fill="black"/>
<rect y="-0.25881" width="140.603" height="107.03" rx="18.1843" transform="matrix(0.855611 0.517619 -0.855611 0.517619 242.644 9.32047)" fill="black"/>
<rect y="-0.25881" width="140.603" height="107.03" rx="18.1843" transform="matrix(0.855611 0.517619 -0.855611 0.517619 242.644 9.32047)" stroke="#FAFAFA" stroke-width="0.5"/>
<rect y="-0.222795" width="140.533" height="106.96" rx="18.1495" transform="matrix(0.855611 0.517619 -0.855611 0.517619 368.072 85.1972)" fill="black"/>
<rect y="-0.222795" width="140.533" height="106.96" rx="18.1495" transform="matrix(0.855611 0.517619 -0.855611 0.517619 368.072 85.1972)" stroke="#FAFAFA" stroke-width="0.430423"/>
<line y1="-0.215211" x2="9.89972" y2="-0.215211" transform="matrix(0.855611 -0.517619 0.855611 0.517619 298.417 144.422)" stroke="#FAFAFA" stroke-width="0.430423"/>
<line y1="-0.215211" x2="20.2299" y2="-0.215211" transform="matrix(0.855611 -0.517619 0.855611 0.517619 311.56 152.375)" stroke="#FAFAFA" stroke-width="0.430423"/>
<line y1="-0.215211" x2="20.2299" y2="-0.215211" transform="matrix(0.855611 -0.517619 0.855611 0.517619 324.703 160.32)" stroke="#FAFAFA" stroke-width="0.430423"/>
<line y1="-0.215211" x2="37.8793" y2="-0.215211" transform="matrix(0.846448 -0.523104 0.864677 0.512076 338.019 168.383)" stroke="#FAFAFA" stroke-width="0.430423"/>
<line y1="-0.215211" x2="49.929" y2="-0.215211" transform="matrix(0.855611 -0.517619 0.855611 0.517619 350.988 176.227)" stroke="#FAFAFA" stroke-width="0.430423"/>
<line y1="-0.215211" x2="33.1425" y2="-0.215211" transform="matrix(0.855611 -0.517619 0.855611 0.517619 364.131 184.18)" stroke="#FAFAFA" stroke-width="0.430423"/>
<line y1="-0.215211" x2="63.2721" y2="-0.215211" transform="matrix(0.855611 -0.517619 0.855611 0.517619 377.273 192.125)" stroke="#FAFAFA" stroke-width="0.430423"/>
<line y1="-0.215211" x2="64.133" y2="-0.215211" transform="matrix(0.855611 -0.517619 0.855611 0.517619 390.417 200.078)" stroke="#FAFAFA" stroke-width="0.430423"/>
<rect y="-0.25881" width="287.161" height="107.03" rx="18.1843" transform="matrix(0.855611 0.517619 -0.855611 0.517619 145.972 67.8048)" fill="black"/>
<rect y="-0.25881" width="287.161" height="107.03" rx="18.1843" transform="matrix(0.855611 0.517619 -0.855611 0.517619 145.972 67.8048)" stroke="#FAFAFA" stroke-width="0.5"/>
</svg>
