<svg width="466" height="335" viewBox="0 0 466 335" fill="none" xmlns="http://www.w3.org/2000/svg">
<g clip-path="url(#clip0_4788_242019)">
<rect width="303.878" height="232.428" rx="25" transform="matrix(0.866136 0.499808 -0.866136 0.499808 202.246 66.3047)" fill="black"/>
<rect y="-0.215129" width="291.396" height="219.946" rx="25.8356" transform="matrix(0.866136 0.499808 -0.866136 0.499808 202.06 72.6502)" fill="black"/>
<rect y="-0.215129" width="291.396" height="219.946" rx="25.8356" transform="matrix(0.866136 0.499808 -0.866136 0.499808 202.06 72.6502)" stroke="#FAFAFA" stroke-width="0.430423"/>
<path d="M101.967 206.429L114.493 199.2L116.014 200.078L110.896 206.935C110.765 207.107 110.628 207.275 110.485 207.441C110.366 207.606 110.246 207.771 110.127 207.936C109.948 208.177 109.769 208.404 109.59 208.618C109.423 208.838 109.262 209.048 109.107 209.248C109.369 209.179 109.656 209.103 109.966 209.02C110.276 208.938 110.598 208.855 110.932 208.773C111.278 208.683 111.624 208.594 111.97 208.504C112.328 208.408 112.674 208.318 113.008 208.236L125.051 205.293L126.536 206.15L114.01 213.378L112.972 212.779L121.49 207.864C122.158 207.478 123.065 206.976 124.21 206.356C123.733 206.48 123.274 206.601 122.832 206.718C122.403 206.828 121.985 206.931 121.58 207.027C121.389 207.083 121.198 207.131 121.007 207.172C120.816 207.213 120.631 207.258 120.452 207.306L108.534 210.218L107.389 209.557L112.525 202.608C112.62 202.456 112.734 202.302 112.865 202.143C113.008 201.978 113.151 201.806 113.294 201.627C113.426 201.441 113.563 201.259 113.706 201.08C113.873 200.901 114.016 200.722 114.135 200.543L114.117 200.532C113.927 200.656 113.724 200.78 113.509 200.904C113.318 201.028 113.121 201.155 112.919 201.286C112.417 201.589 111.976 201.851 111.594 202.071L103.005 207.027L101.967 206.429ZM120.141 217.143C119.247 216.627 118.662 216.076 118.388 215.491C118.125 214.899 118.167 214.304 118.513 213.705C118.871 213.113 119.527 212.541 120.481 211.991C121.364 211.481 122.33 211.123 123.38 210.917C124.43 210.71 125.48 210.676 126.53 210.813C127.592 210.958 128.558 211.282 129.429 211.784C130.323 212.3 130.896 212.858 131.147 213.457C131.409 214.049 131.355 214.644 130.986 215.243C130.628 215.849 129.989 216.417 129.071 216.947C128.164 217.47 127.186 217.835 126.136 218.042C125.098 218.241 124.054 218.265 123.005 218.114C121.967 217.969 121.012 217.646 120.141 217.143ZM120.982 216.637C122.02 217.236 123.094 217.512 124.203 217.463C124.836 217.429 125.462 217.315 126.082 217.123C126.727 216.93 127.353 216.658 127.961 216.307C129.274 215.55 129.942 214.806 129.966 214.076C130.001 213.436 129.548 212.844 128.606 212.3C128.093 212.004 127.562 211.788 127.013 211.65C126.476 211.519 125.933 211.461 125.385 211.474C124.752 211.495 124.114 211.602 123.47 211.794C122.849 211.987 122.223 212.266 121.591 212.631C120.97 212.989 120.481 213.354 120.123 213.725C119.789 214.097 119.599 214.462 119.551 214.82C119.491 215.446 119.968 216.052 120.982 216.637ZM130.01 222.838C129.115 222.322 128.531 221.771 128.256 221.186C127.994 220.594 128.035 219.998 128.381 219.399C128.739 218.807 129.395 218.236 130.35 217.685C131.233 217.176 132.199 216.818 133.249 216.611C134.299 216.405 135.348 216.37 136.398 216.508C137.46 216.653 138.426 216.976 139.297 217.479C140.192 217.995 140.765 218.553 141.015 219.152C141.277 219.744 141.224 220.339 140.854 220.938C140.496 221.544 139.858 222.112 138.939 222.642C138.033 223.165 137.054 223.53 136.005 223.736C134.967 223.936 133.923 223.96 132.873 223.809C131.835 223.664 130.881 223.341 130.01 222.838ZM130.851 222.332C131.889 222.931 132.962 223.206 134.072 223.158C134.704 223.124 135.331 223.01 135.951 222.817C136.595 222.625 137.221 222.353 137.83 222.002C139.142 221.244 139.81 220.501 139.834 219.771C139.87 219.131 139.416 218.539 138.474 217.995C137.961 217.699 137.43 217.482 136.881 217.344C136.345 217.214 135.802 217.155 135.253 217.169C134.621 217.19 133.982 217.296 133.338 217.489C132.718 217.682 132.092 217.961 131.459 218.325C130.839 218.683 130.35 219.048 129.992 219.42C129.658 219.792 129.467 220.157 129.419 220.515C129.36 221.141 129.837 221.747 130.851 222.332ZM139.252 228.171C138.131 227.524 137.492 226.846 137.337 226.137C137.206 225.428 137.641 224.791 138.644 224.227L139.717 224.743C138.954 225.17 138.626 225.648 138.733 226.178C138.852 226.715 139.324 227.221 140.147 227.696C140.934 228.151 141.692 228.416 142.419 228.491C143.159 228.574 143.809 228.453 144.37 228.13C144.74 227.917 144.919 227.676 144.907 227.407C144.895 227.139 144.764 226.87 144.513 226.602C144.274 226.34 143.917 226.003 143.439 225.59C143.38 225.528 143.32 225.473 143.26 225.424C143.201 225.376 143.141 225.321 143.081 225.259C142.568 224.798 142.199 224.399 141.972 224.061C141.745 223.724 141.668 223.397 141.739 223.08C141.823 222.771 142.103 222.478 142.58 222.203C143.07 221.92 143.636 221.752 144.28 221.697C144.937 221.635 145.599 221.686 146.267 221.852C146.959 222.017 147.615 222.278 148.235 222.636C149.225 223.208 149.798 223.814 149.953 224.454C150.12 225.087 149.792 225.703 148.969 226.302L147.824 225.827C148.456 225.393 148.736 224.943 148.665 224.474C148.605 223.999 148.181 223.535 147.394 223.08C146.762 222.716 146.106 222.495 145.426 222.42C144.746 222.344 144.167 222.444 143.69 222.719C143.237 222.981 143.07 223.277 143.189 223.607C143.332 223.937 143.714 224.385 144.334 224.949C144.37 224.984 144.412 225.015 144.459 225.042C144.507 225.07 144.543 225.097 144.567 225.125C144.579 225.146 144.597 225.17 144.62 225.197C144.656 225.218 144.686 225.235 144.71 225.249C145.282 225.745 145.706 226.168 145.98 226.519C146.279 226.87 146.398 227.228 146.338 227.593C146.302 227.958 145.998 228.305 145.426 228.636C144.555 229.138 143.565 229.338 142.455 229.235C141.37 229.132 140.302 228.777 139.252 228.171ZM148.154 233.329C147.533 232.971 147.062 232.589 146.74 232.182C146.43 231.783 146.287 231.37 146.31 230.943C146.322 230.482 146.513 230.028 146.883 229.58C147.277 229.133 147.861 228.685 148.637 228.238C149.376 227.811 150.146 227.484 150.945 227.257C151.756 227.036 152.574 226.923 153.397 226.916C154.136 226.916 154.846 227.002 155.526 227.174C156.218 227.353 156.844 227.604 157.405 227.928C158.073 228.313 158.544 228.744 158.819 229.219C159.093 229.694 159.147 230.186 158.98 230.695C158.861 231.095 158.586 231.501 158.157 231.914C157.739 232.32 157.214 232.692 156.582 233.029L149.567 228.981C148.315 229.718 147.67 230.406 147.635 231.046C147.611 231.694 148.082 232.296 149.048 232.854C149.871 233.329 150.719 233.59 151.589 233.638C152.472 233.68 153.337 233.532 154.184 233.194L155.061 233.824C153.928 234.272 152.753 234.454 151.536 234.372C150.343 234.289 149.215 233.941 148.154 233.329ZM150.265 228.599L150.158 228.351L156.6 232.069L156.242 232.027C156.6 231.807 156.91 231.552 157.173 231.263C157.435 230.974 157.62 230.695 157.727 230.427C157.858 230.048 157.811 229.69 157.584 229.353C157.381 229.016 157.029 228.702 156.528 228.413C156.075 228.152 155.586 227.959 155.061 227.835C154.56 227.711 154.053 227.66 153.54 227.68C152.526 227.715 151.512 227.976 150.498 228.465L150.265 228.599ZM158.626 239.124L171.153 231.896L175.626 234.477C176.497 234.98 177.129 235.462 177.523 235.923C177.929 236.391 178.066 236.87 177.935 237.358C177.815 237.84 177.332 238.326 176.485 238.814C175.746 239.241 174.922 239.489 174.016 239.558C173.121 239.62 172.232 239.499 171.35 239.196L171.511 239.021C172.286 239.675 172.644 240.281 172.584 240.838C172.525 241.396 172.047 241.933 171.153 242.449C170.306 242.938 169.447 243.22 168.576 243.296C167.717 243.365 166.846 243.268 165.963 243.007C165.092 242.738 164.144 242.308 163.118 241.716L158.626 239.124ZM164.031 241.21C164.866 241.692 165.593 242.036 166.214 242.243C166.846 242.456 167.478 242.539 168.111 242.49C168.767 242.442 169.429 242.225 170.097 241.84C170.825 241.42 171.206 241.007 171.242 240.601C171.29 240.188 171.111 239.802 170.705 239.444C170.312 239.079 169.739 238.68 168.987 238.246L165.623 236.305L160.577 239.217L164.031 241.21ZM169.721 237.617C170.544 238.092 171.26 238.422 171.868 238.608C172.501 238.794 173.103 238.859 173.676 238.804C174.26 238.742 174.851 238.539 175.447 238.195C176.08 237.83 176.438 237.472 176.521 237.121C176.617 236.763 176.503 236.415 176.181 236.078C175.859 235.741 175.346 235.369 174.642 234.963L171.296 233.032L166.536 235.778L169.721 237.617ZM171.965 247.069C171.094 246.566 170.605 246.022 170.497 245.437C170.402 244.859 170.736 244.35 171.499 243.909C172.036 243.599 172.597 243.413 173.181 243.351C173.778 243.296 174.374 243.331 174.971 243.455C175.567 243.579 176.194 243.768 176.85 244.023L180.93 245.613C180.966 245.592 181.001 245.571 181.037 245.551C181.073 245.53 181.103 245.513 181.127 245.499C181.616 245.217 181.974 244.969 182.2 244.756C182.451 244.542 182.57 244.322 182.558 244.095C182.558 243.875 182.445 243.644 182.218 243.403C182.003 243.169 181.687 242.931 181.27 242.69C180.387 242.181 179.576 241.913 178.836 241.885C178.108 241.851 177.345 242.064 176.546 242.525L175.669 241.854C176.134 241.572 176.641 241.369 177.19 241.245C177.762 241.121 178.323 241.08 178.872 241.121C179.421 241.162 179.969 241.279 180.518 241.472C181.091 241.665 181.64 241.913 182.164 242.215C182.892 242.635 183.393 243.048 183.668 243.455C183.966 243.861 184.02 244.263 183.829 244.663C183.65 245.055 183.22 245.448 182.54 245.84L177.852 248.545C177.589 248.697 177.44 248.817 177.404 248.907C177.393 248.996 177.506 249.11 177.744 249.248C177.947 249.365 178.204 249.478 178.514 249.588L177.673 250.094C177.315 249.957 176.999 249.809 176.724 249.65C176.235 249.368 176.009 249.086 176.044 248.804C176.08 248.521 176.432 248.201 177.1 247.843L177.315 247.843C176.492 248.07 175.615 248.129 174.684 248.019C173.766 247.902 172.859 247.585 171.965 247.069ZM173.002 246.676C173.969 247.234 174.953 247.527 175.955 247.554C176.969 247.589 177.888 247.368 178.711 246.893L180.643 245.778L180.751 246.294L176.152 244.57L175.973 244.508C175.269 244.253 174.655 244.119 174.13 244.105C173.617 244.084 173.116 244.215 172.627 244.498C172.078 244.814 171.845 245.169 171.929 245.561C172.024 245.947 172.382 246.318 173.002 246.676ZM182.457 253.103C181.538 252.573 180.948 252.012 180.685 251.42C180.435 250.834 180.494 250.249 180.864 249.664C181.246 249.072 181.902 248.508 182.833 247.971C183.727 247.454 184.694 247.09 185.732 246.876C186.781 246.67 187.825 246.639 188.863 246.783C189.913 246.921 190.873 247.241 191.744 247.744C192.782 248.342 193.343 248.983 193.426 249.664C193.522 250.339 193.212 251 192.496 251.647L191.297 251.182C191.869 250.659 192.144 250.156 192.12 249.674C192.096 249.193 191.673 248.714 190.849 248.239C190.289 247.916 189.71 247.692 189.114 247.568C188.541 247.444 187.957 247.41 187.36 247.465C186.811 247.506 186.245 247.626 185.66 247.826C185.087 248.033 184.521 248.298 183.96 248.621C182.767 249.31 182.087 249.984 181.92 250.645C181.753 251.306 182.224 251.957 183.334 252.597C184.133 253.058 184.938 253.323 185.75 253.392C186.561 253.461 187.432 253.323 188.362 252.979L189.239 253.609C188.523 253.884 187.772 254.049 186.984 254.104C186.209 254.166 185.427 254.115 184.64 253.95C183.865 253.777 183.137 253.495 182.457 253.103ZM188.171 256.173L200.698 248.945L201.736 249.544L189.209 256.772L188.171 256.173ZM192.448 254.779L193.647 254.108L202.702 254.294L204.08 255.089L197.011 254.893H196.296L192.448 254.779ZM194.166 259.632L195.938 254.789L197.351 254.8L195.365 260.324L194.166 259.632ZM199.623 263.029C199.003 262.671 198.531 262.289 198.209 261.883C197.899 261.484 197.756 261.071 197.78 260.644C197.792 260.183 197.983 259.728 198.352 259.281C198.746 258.833 199.331 258.386 200.106 257.938C200.846 257.512 201.615 257.185 202.414 256.957C203.226 256.737 204.043 256.623 204.866 256.617C205.606 256.617 206.315 256.703 206.995 256.875C207.687 257.054 208.314 257.305 208.874 257.629C209.542 258.014 210.014 258.444 210.288 258.919C210.562 259.394 210.616 259.887 210.449 260.396C210.33 260.795 210.055 261.201 209.626 261.614C209.208 262.021 208.684 262.392 208.051 262.73L201.037 258.682C199.784 259.418 199.14 260.107 199.104 260.747C199.08 261.394 199.551 261.997 200.518 262.554C201.341 263.029 202.188 263.291 203.059 263.339C203.941 263.38 204.806 263.232 205.653 262.895L206.53 263.525C205.397 263.972 204.222 264.155 203.005 264.072C201.812 263.989 200.685 263.642 199.623 263.029ZM201.734 258.3L201.627 258.052L208.069 261.769L207.711 261.728C208.069 261.508 208.379 261.253 208.642 260.964C208.904 260.675 209.089 260.396 209.197 260.127C209.328 259.749 209.28 259.391 209.053 259.054C208.851 258.716 208.499 258.403 207.998 258.114C207.544 257.852 207.055 257.66 206.53 257.536C206.029 257.412 205.522 257.36 205.009 257.381C203.995 257.415 202.981 257.677 201.967 258.166L201.734 258.3ZM205.637 266.252L214.53 261.119L215.568 261.718L213.385 262.978L213.474 262.803C214.345 262.507 215.234 262.4 216.141 262.482C217.047 262.565 217.918 262.847 218.753 263.329C219.302 263.646 219.702 263.973 219.952 264.31C220.227 264.648 220.364 264.988 220.364 265.333C220.352 265.697 220.161 266.042 219.791 266.365C219.433 266.682 218.95 267.016 218.342 267.367L212.956 270.475L211.882 269.855L217.089 266.85C217.101 266.844 217.113 266.837 217.125 266.83C217.137 266.823 217.149 266.816 217.161 266.809C217.698 266.499 218.109 266.227 218.395 265.993C218.682 265.759 218.837 265.498 218.861 265.209C218.897 264.926 218.801 264.665 218.574 264.424C218.348 264.183 218.02 263.938 217.59 263.691C216.91 263.298 216.051 263.071 215.013 263.009C213.999 262.947 212.878 263.271 211.649 263.98L206.674 266.85L205.637 266.252ZM218.589 273.953C217.813 273.505 217.294 272.999 217.032 272.435C216.781 271.877 216.823 271.296 217.157 270.69C217.491 270.084 218.153 269.495 219.144 268.924C220.11 268.366 221.13 267.991 222.204 267.798C223.277 267.606 224.303 267.585 225.281 267.737C226.272 267.881 227.136 268.167 227.876 268.594C228.675 269.055 229.171 269.547 229.361 270.07C229.564 270.6 229.493 271.123 229.147 271.64L228.771 271.671L234.426 268.408L235.481 269.017L222.955 276.245L221.899 275.636L224.082 274.376L224.065 274.572C223.098 274.813 222.138 274.886 221.184 274.789C220.241 274.686 219.376 274.407 218.589 273.953ZM219.573 273.529C220.026 273.791 220.492 273.984 220.969 274.108C221.458 274.239 221.959 274.301 222.472 274.294C223.104 274.287 223.748 274.177 224.405 273.963C225.073 273.757 225.753 273.454 226.445 273.054C227.661 272.352 228.335 271.674 228.467 271.02C228.61 270.373 228.18 269.76 227.178 269.182C226.701 268.907 226.194 268.704 225.657 268.573C225.132 268.449 224.589 268.397 224.029 268.418C223.408 268.446 222.782 268.559 222.15 268.759C221.518 268.958 220.897 269.234 220.289 269.585C219.478 270.053 218.905 270.514 218.571 270.969C218.249 271.43 218.165 271.877 218.32 272.311C218.499 272.745 218.917 273.151 219.573 273.529Z" fill="#FAFAFA"/>
</g>
<rect width="303.878" height="232.428" rx="25.6204" transform="matrix(0.866042 0.499971 -0.866042 0.499971 202.242 0.382812)" fill="black"/>
<rect y="-0.249986" width="91.7496" height="107.03" rx="18.1843" transform="matrix(0.866042 0.499971 -0.866042 0.499971 203.889 7.78906)" fill="black"/>
<rect y="-0.249986" width="91.7496" height="107.03" rx="18.1843" transform="matrix(0.866042 0.499971 -0.866042 0.499971 203.889 7.78906)" stroke="#FAFAFA" stroke-width="0.5"/>
<path d="M160.209 41.868L159.428 42.9681C158.647 44.0682 157.086 46.2684 157.183 47.5108C157.281 48.7532 159.037 49.0379 161.99 48.6319C164.943 48.226 169.092 47.1294 170.512 47.6088C171.931 48.0882 170.62 50.1435 170.251 51.6554C169.882 53.1672 170.454 54.1355 171.808 54.6526C173.162 55.1697 175.298 55.2357 178.271 54.8177C181.245 54.3998 185.057 53.498 188.404 52.8645C191.75 52.2311 194.632 51.866 194.839 53.0454C195.046 54.2247 192.578 56.9484 193.919 57.4727C195.261 57.997 200.412 56.3219 201.937 56.7404C203.462 57.1589 201.36 59.671 201.109 61.1145C200.858 62.5581 202.458 62.9331 205.02 62.7531C207.581 62.5732 211.104 61.8383 215 60.8876C218.896 59.937 223.166 58.7707 226.278 58.2728C229.391 57.7749 231.345 57.9454 232.945 58.3202C234.546 58.695 235.792 59.2742 235.481 60.7526C235.17 62.231 233.301 64.6085 234.487 65.2225C235.673 65.8365 239.914 64.6869 242.862 64.2841C245.809 63.8812 247.463 64.225 248.29 64.397L249.117 64.5689" stroke="#FAFAFA" stroke-width="0.430423"/>
<rect y="-0.215199" width="91.68" height="106.96" rx="18.1495" transform="matrix(0.866042 0.499971 -0.866042 0.499971 288.536 56.658)" fill="black"/>
<rect y="-0.215199" width="91.68" height="106.96" rx="18.1495" transform="matrix(0.866042 0.499971 -0.866042 0.499971 288.536 56.658)" stroke="#FAFAFA" stroke-width="0.430423"/>
<path d="M296.029 120.533C290.321 121.709 284.134 121.871 278.265 120.998C272.397 120.124 267.117 118.255 263.106 115.632C259.096 113.008 256.54 109.751 255.769 106.281C254.997 102.811 256.045 99.2866 258.777 96.1635C261.509 93.0405 265.8 90.4619 271.096 88.7608C276.392 87.0597 282.45 86.3141 288.487 86.6203C294.524 86.9265 300.264 88.2705 304.965 90.4786C309.666 92.6868 313.112 95.6578 314.859 99.008" stroke="#FAFAFA" stroke-width="0.430423"/>
<rect y="-0.215199" width="91.68" height="106.96" rx="18.1495" transform="matrix(0.866042 0.499971 -0.866042 0.499971 373.153 105.51)" fill="black"/>
<rect y="-0.215199" width="91.68" height="106.96" rx="18.1495" transform="matrix(0.866042 0.499971 -0.866042 0.499971 373.153 105.51)" stroke="#FAFAFA" stroke-width="0.430423"/>
<line y1="-0.215211" x2="20.2299" y2="-0.215211" transform="matrix(0.866042 -0.499971 0.866042 0.499971 300.57 161.523)" stroke="#FAFAFA" stroke-width="0.430423"/>
<line y1="-0.215211" x2="20.2299" y2="-0.215211" transform="matrix(0.866042 -0.499971 0.866042 0.499971 309.73 166.812)" stroke="#FAFAFA" stroke-width="0.430423"/>
<line y1="-0.215211" x2="37.8793" y2="-0.215211" transform="matrix(0.856767 -0.505269 0.875219 0.494617 319.064 172.195)" stroke="#FAFAFA" stroke-width="0.430423"/>
<line y1="-0.215211" x2="49.929" y2="-0.215211" transform="matrix(0.866042 -0.499971 0.866042 0.499971 328.049 177.383)" stroke="#FAFAFA" stroke-width="0.430423"/>
<line y1="-0.215211" x2="33.1425" y2="-0.215211" transform="matrix(0.866042 -0.499971 0.866042 0.499971 337.209 182.672)" stroke="#FAFAFA" stroke-width="0.430423"/>
<line y1="-0.215211" x2="63.2721" y2="-0.215211" transform="matrix(0.866042 -0.499971 0.866042 0.499971 346.367 187.961)" stroke="#FAFAFA" stroke-width="0.430423"/>
<line y1="-0.215211" x2="64.133" y2="-0.215211" transform="matrix(0.866042 -0.499971 0.866042 0.499971 355.527 193.25)" stroke="#FAFAFA" stroke-width="0.430423"/>
<rect y="-0.249986" width="91.7496" height="107.03" rx="18.1843" transform="matrix(0.866042 0.499971 -0.866042 0.499971 106.039 64.2813)" fill="black"/>
<rect y="-0.249986" width="91.7496" height="107.03" rx="18.1843" transform="matrix(0.866042 0.499971 -0.866042 0.499971 106.039 64.2813)" stroke="#FAFAFA" stroke-width="0.5"/>
<line y1="-0.25" x2="9.89972" y2="-0.25" transform="matrix(0.866042 -0.499971 0.866042 0.499971 32.9141 119.984)" stroke="#FAFAFA" stroke-width="0.5"/>
<line y1="-0.25" x2="20.2299" y2="-0.25" transform="matrix(0.866042 -0.499971 0.866042 0.499971 40.9297 124.609)" stroke="#FAFAFA" stroke-width="0.5"/>
<line y1="-0.25" x2="20.2299" y2="-0.25" transform="matrix(0.866042 -0.499971 0.866042 0.499971 48.9434 129.234)" stroke="#FAFAFA" stroke-width="0.5"/>
<line y1="-0.25" x2="37.8793" y2="-0.25" transform="matrix(0.856767 -0.505269 0.875219 0.494617 57.1328 133.961)" stroke="#FAFAFA" stroke-width="0.5"/>
<line y1="-0.25" x2="33.1425" y2="-0.25" transform="matrix(0.866042 -0.499971 0.866042 0.499971 64.9727 138.492)" stroke="#FAFAFA" stroke-width="0.5"/>
<line y1="-0.25" x2="55.5245" y2="-0.25" transform="matrix(0.866042 -0.499971 0.866042 0.499971 72.9863 143.117)" stroke="#FAFAFA" stroke-width="0.5"/>
<line y1="-0.25" x2="46.9183" y2="-0.25" transform="matrix(0.85756 -0.504821 0.874443 0.495074 81.1992 147.859)" stroke="#FAFAFA" stroke-width="0.5"/>
<line y1="-0.25" x2="20.2299" y2="-0.25" transform="matrix(0.866042 -0.499971 0.866042 0.499971 89.0156 152.367)" stroke="#FAFAFA" stroke-width="0.5"/>
<rect y="-0.249986" width="91.7496" height="107.03" rx="18.1843" transform="matrix(0.866042 0.499971 -0.866042 0.499971 190.657 113.133)" fill="black"/>
<rect y="-0.249986" width="91.7496" height="107.03" rx="18.1843" transform="matrix(0.866042 0.499971 -0.866042 0.499971 190.657 113.133)" stroke="#FAFAFA" stroke-width="0.5"/>
<rect y="-0.249986" width="74.5327" height="16.4256" rx="8.21282" transform="matrix(0.866042 0.499971 -0.866042 0.499971 127.1 158.43)" fill="black" stroke="#FAFAFA" stroke-width="0.5"/>
<rect y="-0.249986" width="91.7496" height="107.03" rx="18.1843" transform="matrix(0.866042 0.499971 -0.866042 0.499971 275.274 161.984)" fill="black"/>
<rect y="-0.249986" width="91.7496" height="107.03" rx="18.1843" transform="matrix(0.866042 0.499971 -0.866042 0.499971 275.274 161.984)" stroke="#FAFAFA" stroke-width="0.5"/>
<line y1="-0.25" x2="9.89972" y2="-0.25" transform="matrix(0.866042 -0.499971 0.866042 0.499971 201.703 217.43)" stroke="#FAFAFA" stroke-width="0.5"/>
<line y1="-0.25" x2="20.2299" y2="-0.25" transform="matrix(0.866042 -0.499971 0.866042 0.499971 208.828 221.539)" stroke="#FAFAFA" stroke-width="0.5"/>
<line y1="-0.25" x2="20.2299" y2="-0.25" transform="matrix(0.866042 -0.499971 0.866042 0.499971 215.951 225.656)" stroke="#FAFAFA" stroke-width="0.5"/>
<line y1="-0.25" x2="33.1425" y2="-0.25" transform="matrix(0.866042 -0.499971 0.866042 0.499971 223.076 229.766)" stroke="#FAFAFA" stroke-width="0.5"/>
<line y1="-0.25" x2="64.133" y2="-0.25" transform="matrix(0.866042 -0.499971 0.866042 0.499971 230.199 233.875)" stroke="#FAFAFA" stroke-width="0.5"/>
<line y1="-0.25" x2="55.5245" y2="-0.25" transform="matrix(0.866042 -0.499971 0.866042 0.499971 237.324 237.992)" stroke="#FAFAFA" stroke-width="0.5"/>
<line y1="-0.25" x2="46.9183" y2="-0.25" transform="matrix(0.85756 -0.504821 0.874443 0.495074 244.645 242.219)" stroke="#FAFAFA" stroke-width="0.5"/>
<line y1="-0.25" x2="55.5245" y2="-0.25" transform="matrix(0.866042 -0.499971 0.866042 0.499971 251.57 246.219)" stroke="#FAFAFA" stroke-width="0.5"/>
<line y1="-0.25" x2="20.2299" y2="-0.25" transform="matrix(0.866042 -0.499971 0.866042 0.499971 258.695 250.328)" stroke="#FAFAFA" stroke-width="0.5"/>
<defs>
<clipPath id="clip0_4788_242019">
<rect width="303.845" height="232.403" rx="25" transform="matrix(0.866136 0.499808 -0.866136 0.499808 202.234 66.3125)" fill="white"/>
</clipPath>
</defs>
</svg>
