<svg width="466" height="342" viewBox="0 0 466 342" fill="none" xmlns="http://www.w3.org/2000/svg">
<g clip-path="url(#clip0_4788_242662)">
<rect width="289.856" height="221.703" rx="25" transform="matrix(0.855613 0.517616 -0.855613 0.517616 193.219 74.0781)" fill="white"/>
<rect y="-0.212513" width="277.95" height="209.797" rx="24.6435" transform="matrix(0.855613 0.517616 -0.855613 0.517616 193.037 80.3506)" fill="white"/>
<rect y="-0.212513" width="277.95" height="209.797" rx="24.6435" transform="matrix(0.855613 0.517616 -0.855613 0.517616 193.037 80.3506)" stroke="#0A0A0A" stroke-width="0.410561"/>
<path d="M98.7558 212.48L110.559 205.339L111.992 206.206L107.17 212.98C107.046 213.15 106.917 213.316 106.782 213.479C106.669 213.643 106.557 213.806 106.445 213.969C106.276 214.207 106.107 214.432 105.939 214.642C105.781 214.86 105.63 215.067 105.484 215.265C105.731 215.197 106.001 215.122 106.293 215.04C106.585 214.959 106.889 214.877 107.203 214.795C107.529 214.707 107.855 214.619 108.181 214.53C108.519 214.435 108.845 214.347 109.159 214.265L120.507 211.358L121.907 212.204L110.104 219.345L109.126 218.753L117.152 213.898C117.781 213.517 118.636 213.02 119.715 212.408C119.265 212.531 118.832 212.65 118.416 212.765C118.012 212.874 117.618 212.976 117.236 213.071C117.056 213.126 116.876 213.173 116.696 213.214C116.517 213.255 116.342 213.299 116.174 213.347L104.944 216.223L103.865 215.571L108.704 208.706C108.794 208.556 108.901 208.403 109.024 208.247C109.159 208.083 109.294 207.913 109.429 207.737C109.553 207.553 109.682 207.373 109.817 207.196C109.974 207.019 110.109 206.842 110.222 206.665L110.205 206.655C110.025 206.778 109.834 206.9 109.631 207.022C109.452 207.145 109.266 207.271 109.075 207.4C108.603 207.699 108.187 207.958 107.827 208.175L99.7338 213.071L98.7558 212.48ZM115.881 223.064C115.038 222.554 114.487 222.01 114.228 221.432C113.981 220.847 114.021 220.259 114.347 219.668C114.684 219.083 115.302 218.518 116.201 217.974C117.033 217.471 117.944 217.117 118.933 216.913C119.922 216.709 120.911 216.675 121.9 216.811C122.901 216.954 123.811 217.274 124.632 217.77C125.475 218.28 126.015 218.831 126.251 219.423C126.498 220.008 126.447 220.596 126.099 221.187C125.762 221.786 125.16 222.347 124.295 222.871C123.44 223.387 122.519 223.748 121.53 223.952C120.552 224.149 119.568 224.173 118.579 224.023C117.601 223.88 116.701 223.561 115.881 223.064ZM116.673 222.564C117.651 223.156 118.663 223.428 119.708 223.381C120.304 223.347 120.894 223.234 121.479 223.044C122.086 222.854 122.676 222.585 123.249 222.238C124.486 221.49 125.115 220.756 125.138 220.035C125.172 219.402 124.744 218.817 123.856 218.28C123.373 217.988 122.873 217.774 122.356 217.638C121.85 217.508 121.338 217.451 120.821 217.464C120.226 217.485 119.624 217.59 119.017 217.78C118.433 217.971 117.842 218.246 117.247 218.607C116.662 218.96 116.201 219.321 115.864 219.688C115.549 220.055 115.369 220.416 115.324 220.769C115.268 221.388 115.718 221.986 116.673 222.564ZM125.18 228.69C124.337 228.18 123.786 227.636 123.527 227.058C123.28 226.473 123.319 225.885 123.645 225.293C123.982 224.708 124.601 224.144 125.5 223.6C126.332 223.096 127.242 222.743 128.232 222.539C129.221 222.335 130.21 222.301 131.199 222.437C132.2 222.58 133.11 222.899 133.931 223.396C134.774 223.906 135.313 224.456 135.549 225.048C135.797 225.633 135.746 226.221 135.398 226.813C135.06 227.411 134.459 227.972 133.594 228.496C132.739 229.013 131.817 229.373 130.828 229.577C129.85 229.774 128.867 229.798 127.877 229.649C126.9 229.506 126 229.186 125.18 228.69ZM125.972 228.19C126.95 228.782 127.962 229.054 129.007 229.006C129.603 228.972 130.193 228.86 130.778 228.669C131.385 228.479 131.975 228.21 132.548 227.863C133.785 227.115 134.414 226.381 134.437 225.66C134.47 225.028 134.043 224.443 133.155 223.906C132.672 223.613 132.172 223.399 131.654 223.263C131.149 223.134 130.637 223.076 130.12 223.09C129.524 223.11 128.923 223.215 128.316 223.406C127.731 223.596 127.141 223.872 126.545 224.232C125.961 224.586 125.5 224.946 125.163 225.313C124.848 225.681 124.668 226.041 124.623 226.395C124.567 227.013 125.017 227.612 125.972 228.19ZM133.888 233.958C132.832 233.319 132.23 232.649 132.084 231.949C131.96 231.248 132.371 230.619 133.315 230.061L134.327 230.571C133.607 230.993 133.298 231.466 133.399 231.989C133.512 232.52 133.956 233.02 134.731 233.489C135.473 233.938 136.187 234.2 136.873 234.274C137.57 234.356 138.182 234.237 138.711 233.917C139.059 233.706 139.228 233.468 139.216 233.203C139.205 232.938 139.082 232.673 138.846 232.408C138.621 232.149 138.283 231.816 137.834 231.408C137.778 231.347 137.721 231.292 137.665 231.245C137.609 231.197 137.553 231.143 137.497 231.082C137.013 230.626 136.665 230.231 136.451 229.898C136.238 229.565 136.165 229.242 136.232 228.929C136.311 228.623 136.575 228.334 137.024 228.062C137.485 227.783 138.019 227.617 138.626 227.562C139.245 227.501 139.868 227.552 140.498 227.715C141.15 227.879 141.768 228.137 142.353 228.491C143.286 229.055 143.825 229.653 143.971 230.286C144.129 230.912 143.82 231.52 143.044 232.112L141.965 231.643C142.561 231.214 142.825 230.769 142.757 230.306C142.701 229.837 142.302 229.378 141.56 228.929C140.964 228.569 140.346 228.351 139.705 228.276C139.065 228.202 138.52 228.3 138.07 228.572C137.643 228.831 137.485 229.123 137.598 229.449C137.733 229.776 138.092 230.218 138.677 230.776C138.711 230.81 138.75 230.84 138.795 230.867C138.84 230.895 138.874 230.922 138.896 230.949C138.907 230.969 138.924 230.993 138.947 231.02C138.98 231.041 139.008 231.058 139.031 231.071C139.571 231.561 139.97 231.979 140.228 232.326C140.509 232.673 140.622 233.026 140.565 233.387C140.532 233.747 140.245 234.091 139.705 234.417C138.885 234.914 137.952 235.111 136.906 235.009C135.883 234.907 134.877 234.557 133.888 233.958ZM142.276 239.053C141.691 238.699 141.247 238.322 140.944 237.92C140.652 237.526 140.517 237.118 140.539 236.696C140.55 236.241 140.73 235.792 141.079 235.35C141.45 234.908 142 234.466 142.731 234.024C143.428 233.602 144.153 233.279 144.906 233.055C145.671 232.837 146.441 232.725 147.216 232.718C147.913 232.718 148.582 232.803 149.223 232.973C149.875 233.15 150.465 233.398 150.993 233.718C151.623 234.099 152.067 234.524 152.325 234.993C152.584 235.462 152.634 235.948 152.477 236.452C152.365 236.846 152.106 237.247 151.701 237.655C151.308 238.056 150.813 238.424 150.218 238.757L143.608 234.758C142.428 235.486 141.821 236.166 141.787 236.798C141.764 237.438 142.208 238.033 143.119 238.584C143.895 239.053 144.693 239.311 145.513 239.359C146.345 239.4 147.16 239.253 147.958 238.92L148.784 239.542C147.717 239.984 146.609 240.165 145.463 240.083C144.339 240.001 143.276 239.658 142.276 239.053ZM144.266 234.381L144.164 234.136L150.235 237.808L149.897 237.767C150.235 237.55 150.527 237.298 150.774 237.013C151.021 236.727 151.196 236.452 151.297 236.186C151.42 235.812 151.376 235.459 151.162 235.126C150.971 234.792 150.639 234.483 150.167 234.197C149.74 233.939 149.279 233.748 148.784 233.626C148.312 233.504 147.835 233.453 147.351 233.473C146.396 233.507 145.44 233.765 144.485 234.248L144.266 234.381ZM152.144 244.778L163.947 237.637L168.163 240.188C168.983 240.684 169.579 241.16 169.95 241.616C170.332 242.078 170.461 242.551 170.338 243.034C170.225 243.51 169.77 243.989 168.972 244.472C168.275 244.893 167.499 245.138 166.645 245.206C165.802 245.267 164.964 245.148 164.133 244.849L164.284 244.676C165.015 245.322 165.352 245.92 165.296 246.471C165.24 247.022 164.79 247.552 163.947 248.062C163.149 248.545 162.34 248.824 161.519 248.899C160.71 248.967 159.889 248.872 159.057 248.613C158.237 248.348 157.343 247.923 156.376 247.338L152.144 244.778ZM157.236 246.838C158.023 247.314 158.709 247.654 159.293 247.858C159.889 248.069 160.485 248.151 161.081 248.103C161.699 248.056 162.323 247.841 162.952 247.461C163.638 247.046 163.998 246.638 164.031 246.237C164.076 245.829 163.908 245.448 163.526 245.094C163.155 244.734 162.615 244.339 161.907 243.911L158.737 241.993L153.982 244.87L157.236 246.838ZM162.598 243.289C163.374 243.758 164.048 244.084 164.622 244.268C165.217 244.451 165.785 244.516 166.325 244.462C166.875 244.4 167.432 244.2 167.994 243.86C168.59 243.499 168.927 243.146 169.006 242.799C169.096 242.445 168.989 242.102 168.685 241.769C168.382 241.435 167.898 241.068 167.235 240.667L164.082 238.759L159.597 241.473L162.598 243.289ZM164.712 252.626C163.892 252.129 163.431 251.592 163.329 251.014C163.24 250.443 163.554 249.94 164.274 249.504C164.78 249.198 165.308 249.015 165.859 248.954C166.421 248.899 166.983 248.933 167.545 249.056C168.107 249.178 168.697 249.365 169.315 249.617L173.16 251.188C173.193 251.167 173.227 251.147 173.261 251.126C173.295 251.106 173.323 251.089 173.345 251.075C173.806 250.797 174.143 250.552 174.357 250.341C174.593 250.13 174.705 249.913 174.694 249.688C174.694 249.47 174.587 249.243 174.374 249.005C174.171 248.773 173.874 248.539 173.48 248.301C172.648 247.798 171.884 247.532 171.187 247.505C170.501 247.471 169.782 247.682 169.029 248.138L168.202 247.475C168.641 247.196 169.119 246.995 169.636 246.873C170.175 246.75 170.704 246.71 171.221 246.75C171.738 246.791 172.255 246.907 172.772 247.097C173.312 247.288 173.829 247.532 174.323 247.832C175.009 248.246 175.481 248.654 175.74 249.056C176.021 249.457 176.071 249.855 175.891 250.249C175.723 250.637 175.318 251.024 174.677 251.412L170.26 254.085C170.012 254.234 169.872 254.353 169.838 254.442C169.827 254.53 169.934 254.642 170.158 254.778C170.349 254.894 170.591 255.006 170.883 255.115L170.091 255.615C169.754 255.479 169.456 255.332 169.197 255.176C168.736 254.897 168.523 254.618 168.557 254.34C168.59 254.061 168.922 253.745 169.551 253.391L169.754 253.391C168.978 253.615 168.152 253.673 167.275 253.564C166.41 253.449 165.555 253.136 164.712 252.626ZM165.69 252.238C166.601 252.789 167.528 253.078 168.472 253.105C169.428 253.139 170.293 252.922 171.069 252.452L172.89 251.351L172.991 251.861L168.658 250.157L168.489 250.096C167.826 249.845 167.247 249.712 166.752 249.698C166.269 249.678 165.797 249.807 165.336 250.086C164.819 250.399 164.6 250.749 164.678 251.137C164.768 251.517 165.106 251.885 165.69 252.238ZM174.599 258.587C173.733 258.063 173.177 257.509 172.929 256.924C172.693 256.346 172.75 255.768 173.098 255.19C173.458 254.605 174.076 254.047 174.953 253.517C175.796 253.007 176.706 252.646 177.684 252.436C178.674 252.232 179.657 252.201 180.635 252.344C181.624 252.48 182.529 252.796 183.35 253.292C184.328 253.884 184.856 254.516 184.935 255.19C185.025 255.856 184.733 256.509 184.058 257.148L182.928 256.689C183.468 256.172 183.726 255.676 183.704 255.2C183.682 254.724 183.282 254.251 182.507 253.782C181.978 253.462 181.433 253.241 180.871 253.119C180.332 252.997 179.781 252.963 179.219 253.017C178.702 253.058 178.168 253.177 177.617 253.374C177.077 253.578 176.543 253.84 176.015 254.159C174.891 254.84 174.25 255.506 174.093 256.159C173.936 256.812 174.38 257.454 175.425 258.087C176.178 258.542 176.937 258.804 177.701 258.872C178.466 258.94 179.286 258.804 180.163 258.464L180.989 259.086C180.315 259.358 179.607 259.522 178.865 259.576C178.134 259.637 177.398 259.586 176.656 259.423C175.925 259.253 175.24 258.974 174.599 258.587ZM179.983 261.62L191.786 254.479L192.764 255.071L180.961 262.211L179.983 261.62ZM184.013 260.243L185.143 259.58L193.675 259.763L194.973 260.549L188.313 260.355H187.639L184.013 260.243ZM185.632 265.037L187.301 260.253L188.633 260.263L186.762 265.72L185.632 265.037ZM190.774 268.392C190.189 268.039 189.745 267.661 189.442 267.26C189.149 266.866 189.014 266.457 189.037 266.036C189.048 265.58 189.228 265.131 189.577 264.689C189.948 264.247 190.498 263.805 191.229 263.363C191.926 262.942 192.651 262.619 193.404 262.394C194.169 262.177 194.939 262.064 195.714 262.058C196.411 262.058 197.08 262.143 197.721 262.313C198.373 262.489 198.963 262.738 199.491 263.057C200.121 263.438 200.565 263.863 200.823 264.332C201.082 264.802 201.132 265.288 200.975 265.791C200.863 266.185 200.604 266.587 200.199 266.995C199.806 267.396 199.311 267.763 198.715 268.096L192.106 264.098C190.925 264.825 190.318 265.505 190.285 266.138C190.262 266.777 190.706 267.372 191.617 267.923C192.392 268.392 193.191 268.651 194.011 268.698C194.843 268.739 195.658 268.593 196.456 268.26L197.282 268.882C196.214 269.324 195.107 269.504 193.961 269.422C192.836 269.341 191.774 268.997 190.774 268.392ZM192.763 263.72L192.662 263.476L198.732 267.148L198.395 267.107C198.732 266.889 199.025 266.638 199.272 266.352C199.519 266.066 199.693 265.791 199.795 265.526C199.918 265.152 199.873 264.798 199.66 264.465C199.469 264.132 199.137 263.822 198.665 263.537C198.238 263.278 197.777 263.088 197.282 262.965C196.81 262.843 196.332 262.792 195.849 262.812C194.894 262.846 193.938 263.105 192.983 263.588L192.763 263.72ZM196.44 271.575L204.82 266.506L205.798 267.097L203.741 268.342L203.826 268.168C204.646 267.876 205.484 267.771 206.338 267.852C207.192 267.934 208.013 268.213 208.8 268.689C209.317 269.001 209.693 269.324 209.929 269.658C210.188 269.991 210.317 270.328 210.317 270.668C210.306 271.028 210.126 271.368 209.778 271.688C209.44 272 208.985 272.33 208.412 272.677L203.337 275.747L202.325 275.135L207.232 272.167C207.243 272.16 207.254 272.153 207.265 272.147C207.277 272.14 207.288 272.133 207.299 272.126C207.805 271.82 208.193 271.552 208.463 271.32C208.732 271.089 208.878 270.831 208.901 270.545C208.935 270.266 208.845 270.008 208.631 269.77C208.418 269.532 208.108 269.29 207.704 269.046C207.063 268.658 206.254 268.434 205.276 268.372C204.32 268.311 203.264 268.631 202.106 269.331L197.418 272.167L196.44 271.575ZM208.645 279.183C207.914 278.741 207.425 278.241 207.178 277.684C206.942 277.133 206.981 276.558 207.296 275.96C207.611 275.361 208.234 274.78 209.167 274.215C210.078 273.665 211.039 273.294 212.051 273.104C213.062 272.913 214.029 272.893 214.951 273.042C215.884 273.185 216.699 273.467 217.396 273.889C218.149 274.345 218.615 274.831 218.795 275.348C218.986 275.871 218.919 276.388 218.593 276.898L218.239 276.929L223.567 273.705L224.562 274.307L212.759 281.448L211.764 280.846L213.821 279.601L213.804 279.795C212.894 280.033 211.989 280.105 211.09 280.009C210.202 279.907 209.387 279.632 208.645 279.183ZM209.572 278.765C209.999 279.023 210.438 279.214 210.887 279.336C211.348 279.465 211.82 279.527 212.304 279.52C212.899 279.513 213.506 279.404 214.125 279.193C214.754 278.989 215.395 278.69 216.047 278.296C217.193 277.602 217.829 276.932 217.952 276.286C218.087 275.647 217.682 275.042 216.738 274.47C216.289 274.198 215.811 273.998 215.305 273.869C214.81 273.746 214.299 273.695 213.771 273.716C213.186 273.743 212.596 273.855 212 274.052C211.404 274.249 210.82 274.521 210.247 274.868C209.482 275.331 208.943 275.786 208.628 276.235C208.324 276.691 208.246 277.133 208.392 277.561C208.56 277.99 208.954 278.391 209.572 278.765Z" fill="black"/>
</g>
<rect width="303.878" height="232.428" rx="25.6204" transform="matrix(0.855611 0.517619 -0.855611 0.517619 201.021 1.64844)" fill="white"/>
<rect y="-0.25881" width="140.603" height="107.03" rx="18.1843" transform="matrix(0.855611 0.517619 -0.855611 0.517619 202.642 9.32047)" fill="white"/>
<rect y="-0.25881" width="140.603" height="107.03" rx="18.1843" transform="matrix(0.855611 0.517619 -0.855611 0.517619 202.642 9.32047)" stroke="#0A0A0A" stroke-width="0.5"/>
<path d="M159.494 44.592L159.089 45.9527C158.684 47.3135 157.875 50.035 158.705 51.7649C159.534 53.4948 162.003 54.2331 165.654 54.2565C169.304 54.2798 174.137 53.5882 176.272 54.5281C178.408 55.4681 177.846 58.0396 178.215 60.0485C178.584 62.0573 179.882 63.5034 181.953 64.4824C184.024 65.4614 186.867 65.9733 190.538 65.9843C194.21 65.9952 198.709 65.5052 202.749 65.293C206.789 65.0809 210.369 65.1466 211.307 66.8112C212.244 68.4758 210.539 71.7393 212.598 72.7257C214.656 73.7122 220.479 72.4216 222.719 73.2985C224.958 74.1754 223.615 77.2197 224.101 79.1579C224.586 81.096 226.901 81.9279 230.164 82.1852C233.428 82.4426 237.642 82.1253 242.224 81.5848C246.807 81.0442 251.759 80.2804 255.567 80.2085C259.375 80.1367 262.039 80.7568 264.353 81.5885C266.668 82.4202 268.633 83.4635 269.059 85.4377C269.484 87.4119 268.372 90.317 270.277 91.3963C272.182 92.4756 277.105 91.7291 280.75 91.7556C284.396 91.7822 286.763 92.5818 287.947 92.9816L289.131 93.3814" stroke="black" stroke-width="0.430423"/>
<rect y="-0.222795" width="140.533" height="106.96" rx="18.1495" transform="matrix(0.855611 0.517619 -0.855611 0.517619 328.069 85.1972)" fill="white"/>
<rect y="-0.222795" width="140.533" height="106.96" rx="18.1495" transform="matrix(0.855611 0.517619 -0.855611 0.517619 328.069 85.1972)" stroke="#0A0A0A" stroke-width="0.430423"/>
<line y1="-0.215211" x2="9.89972" y2="-0.215211" transform="matrix(0.855611 -0.517619 0.855611 0.517619 258.414 144.422)" stroke="black" stroke-width="0.430423"/>
<line y1="-0.215211" x2="20.2299" y2="-0.215211" transform="matrix(0.855611 -0.517619 0.855611 0.517619 271.557 152.375)" stroke="black" stroke-width="0.430423"/>
<line y1="-0.215211" x2="20.2299" y2="-0.215211" transform="matrix(0.855611 -0.517619 0.855611 0.517619 284.699 160.32)" stroke="black" stroke-width="0.430423"/>
<line y1="-0.215211" x2="37.8793" y2="-0.215211" transform="matrix(0.846448 -0.523104 0.864677 0.512076 298.016 168.383)" stroke="black" stroke-width="0.430423"/>
<line y1="-0.215211" x2="49.929" y2="-0.215211" transform="matrix(0.855611 -0.517619 0.855611 0.517619 310.986 176.227)" stroke="black" stroke-width="0.430423"/>
<line y1="-0.215211" x2="33.1425" y2="-0.215211" transform="matrix(0.855611 -0.517619 0.855611 0.517619 324.129 184.18)" stroke="black" stroke-width="0.430423"/>
<line y1="-0.215211" x2="63.2721" y2="-0.215211" transform="matrix(0.855611 -0.517619 0.855611 0.517619 337.271 192.125)" stroke="black" stroke-width="0.430423"/>
<line y1="-0.215211" x2="64.133" y2="-0.215211" transform="matrix(0.855611 -0.517619 0.855611 0.517619 350.414 200.078)" stroke="black" stroke-width="0.430423"/>
<rect y="-0.25881" width="287.161" height="107.03" rx="18.1843" transform="matrix(0.855611 0.517619 -0.855611 0.517619 105.97 67.8048)" fill="white"/>
<rect y="-0.25881" width="287.161" height="107.03" rx="18.1843" transform="matrix(0.855611 0.517619 -0.855611 0.517619 105.97 67.8048)" stroke="#0A0A0A" stroke-width="0.5"/>
<defs>
<clipPath id="clip0_4788_242662">
<rect width="293.39" height="224.406" rx="25" transform="matrix(0.855613 0.517616 -0.855613 0.517616 194.375 73.375)" fill="white"/>
</clipPath>
</defs>
</svg>
