<svg width="465" height="335" viewBox="0 0 465 335" fill="none" xmlns="http://www.w3.org/2000/svg">
<g clip-path="url(#clip0_4788_242020)">
<rect width="303.878" height="232.428" rx="25" transform="matrix(0.866042 0.499971 -0.866042 0.499971 201.293 66.0078)" fill="black"/>
<rect y="-0.215199" width="291.396" height="219.946" rx="25.8356" transform="matrix(0.866042 0.499971 -0.866042 0.499971 201.107 72.3533)" fill="black"/>
<rect y="-0.215199" width="291.396" height="219.946" rx="25.8356" transform="matrix(0.866042 0.499971 -0.866042 0.499971 201.107 72.3533)" stroke="#FAFAFA" stroke-width="0.430423"/>
<path d="M80.2804 194.199L91.8927 187.495L87.7237 185.088L88.6363 184.562L98.0478 189.995L97.1353 190.522L92.9663 188.115L81.3539 194.819L80.2804 194.199ZM85.1486 197.009L94.0412 191.876L95.079 192.475L92.5561 193.931L92.6814 193.776C93.2182 193.521 93.7848 193.36 94.3812 193.291C94.9896 193.215 95.5919 193.232 96.1884 193.342C96.7967 193.446 97.3812 193.625 97.9418 193.88C98.0373 193.921 98.1267 193.966 98.2102 194.014C98.3057 194.069 98.3951 194.121 98.4786 194.169C98.5025 194.183 98.5263 194.196 98.5502 194.21C98.586 194.231 98.6218 194.251 98.6576 194.272L97.6198 194.83C97.5244 194.761 97.3574 194.658 97.1188 194.52C96.5462 194.189 95.9379 193.969 95.2937 193.859C94.6615 193.756 93.9458 193.797 93.1466 193.983C92.3593 194.176 91.4886 194.548 90.5343 195.098L86.1864 197.609L85.1486 197.009ZM92.8668 201.713C91.996 201.21 91.5069 200.666 91.3996 200.081C91.3041 199.503 91.6381 198.993 92.4015 198.552C92.9383 198.242 93.499 198.056 94.0835 197.994C94.6799 197.939 95.2763 197.974 95.8727 198.098C96.4691 198.222 97.0954 198.411 97.7515 198.666L101.831 200.257C101.867 200.236 101.903 200.215 101.938 200.195C101.974 200.174 102.004 200.157 102.028 200.143C102.517 199.861 102.875 199.613 103.101 199.399C103.352 199.186 103.471 198.965 103.459 198.738C103.459 198.518 103.346 198.287 103.119 198.046C102.905 197.812 102.588 197.574 102.171 197.333C101.288 196.824 100.477 196.555 99.7375 196.528C99.0099 196.493 98.2465 196.707 97.4473 197.168L96.5705 196.497C97.0357 196.214 97.5427 196.011 98.0914 195.887C98.664 195.763 99.2246 195.722 99.7733 195.763C100.322 195.805 100.871 195.922 101.419 196.114C101.992 196.307 102.541 196.555 103.066 196.858C103.793 197.278 104.294 197.691 104.569 198.098C104.867 198.504 104.92 198.907 104.73 199.306C104.551 199.699 104.121 200.091 103.441 200.484L98.7534 203.19C98.491 203.342 98.3419 203.462 98.3061 203.552C98.2942 203.641 98.4075 203.755 98.6461 203.893C98.8489 204.01 99.1053 204.123 99.4155 204.233L98.5745 204.74C98.2167 204.602 97.9006 204.454 97.6262 204.295C97.1371 204.013 96.9105 203.731 96.9463 203.448C96.9821 203.166 97.334 202.846 98.002 202.488L98.2167 202.488C97.3936 202.715 96.5169 202.774 95.5864 202.663C94.668 202.546 93.7614 202.23 92.8668 201.713ZM93.9045 201.321C94.8707 201.878 95.8548 202.171 96.8568 202.199C97.8707 202.233 98.7892 202.013 99.6123 201.537L101.545 200.422L101.652 200.938L97.0536 199.213L96.8747 199.151C96.1709 198.897 95.5566 198.762 95.0318 198.748C94.5188 198.728 94.0178 198.859 93.5288 199.141C92.9801 199.458 92.7475 199.812 92.831 200.205C92.9264 200.591 93.2842 200.962 93.9045 201.321ZM99.8511 205.497L108.744 200.363L109.781 200.963L107.599 202.223L107.688 202.047C108.559 201.751 109.447 201.644 110.354 201.727C111.261 201.81 112.131 202.092 112.966 202.574C113.515 202.891 113.915 203.218 114.165 203.555C114.44 203.893 114.577 204.234 114.577 204.578C114.565 204.943 114.374 205.287 114.004 205.611C113.646 205.928 113.163 206.262 112.555 206.613L107.169 209.722L106.096 209.102L111.302 206.096C111.314 206.089 111.326 206.083 111.338 206.076C111.35 206.069 111.362 206.062 111.374 206.055C111.911 205.745 112.322 205.473 112.609 205.239C112.895 205.005 113.05 204.743 113.074 204.454C113.11 204.172 113.014 203.91 112.787 203.669C112.561 203.428 112.233 203.183 111.803 202.936C111.123 202.543 110.265 202.316 109.227 202.254C108.213 202.192 107.092 202.515 105.863 203.225L100.889 206.096L99.8511 205.497ZM112.39 212.963C111.269 212.316 110.631 211.638 110.476 210.929C110.345 210.219 110.78 209.582 111.782 209.018L112.856 209.534C112.092 209.961 111.764 210.44 111.871 210.97C111.991 211.507 112.462 212.013 113.285 212.488C114.072 212.943 114.83 213.208 115.557 213.284C116.297 213.366 116.947 213.246 117.508 212.922C117.877 212.709 118.056 212.468 118.044 212.199C118.032 211.931 117.901 211.662 117.651 211.393C117.412 211.132 117.054 210.794 116.577 210.381C116.518 210.319 116.458 210.264 116.398 210.216C116.339 210.168 116.279 210.113 116.219 210.051C115.706 209.589 115.337 209.19 115.11 208.852C114.883 208.515 114.806 208.188 114.877 207.871C114.961 207.561 115.241 207.268 115.718 206.993C116.207 206.711 116.774 206.542 117.418 206.487C118.074 206.425 118.736 206.477 119.404 206.642C120.096 206.807 120.752 207.069 121.372 207.427C122.363 207.998 122.935 208.604 123.09 209.245C123.257 209.878 122.929 210.495 122.106 211.094L120.961 210.619C121.593 210.185 121.873 209.734 121.802 209.266C121.742 208.79 121.319 208.326 120.532 207.871C119.899 207.506 119.243 207.286 118.563 207.21C117.883 207.134 117.305 207.234 116.828 207.509C116.374 207.771 116.207 208.067 116.327 208.398C116.47 208.728 116.852 209.176 117.472 209.741C117.508 209.775 117.549 209.806 117.597 209.834C117.645 209.861 117.681 209.889 117.704 209.916C117.716 209.937 117.734 209.961 117.758 209.989C117.794 210.009 117.824 210.026 117.848 210.04C118.42 210.536 118.844 210.96 119.118 211.311C119.416 211.662 119.535 212.02 119.476 212.385C119.44 212.75 119.136 213.098 118.563 213.428C117.693 213.931 116.702 214.131 115.593 214.027C114.508 213.924 113.44 213.569 112.39 212.963ZM120.11 217.441C119.239 216.938 118.75 216.394 118.643 215.809C118.547 215.23 118.881 214.721 119.645 214.28C120.182 213.97 120.742 213.784 121.327 213.722C121.923 213.667 122.52 213.701 123.116 213.825C123.712 213.949 124.339 214.139 124.995 214.394L129.074 215.984C129.11 215.964 129.146 215.943 129.182 215.922C129.217 215.902 129.247 215.884 129.271 215.871C129.76 215.588 130.118 215.34 130.345 215.127C130.595 214.913 130.714 214.693 130.703 214.466C130.703 214.246 130.589 214.015 130.363 213.774C130.148 213.54 129.832 213.302 129.414 213.061C128.532 212.551 127.72 212.283 126.981 212.255C126.253 212.221 125.49 212.434 124.691 212.896L123.814 212.224C124.279 211.942 124.786 211.739 125.335 211.615C125.907 211.491 126.468 211.45 127.017 211.491C127.565 211.532 128.114 211.649 128.663 211.842C129.235 212.035 129.784 212.283 130.309 212.586C131.037 213.006 131.538 213.419 131.812 213.825C132.11 214.232 132.164 214.635 131.973 215.034C131.794 215.427 131.365 215.819 130.685 216.212L125.997 218.918C125.734 219.069 125.585 219.19 125.549 219.279C125.537 219.369 125.651 219.483 125.889 219.62C126.092 219.737 126.349 219.851 126.659 219.961L125.818 220.467C125.46 220.33 125.144 220.182 124.87 220.023C124.38 219.741 124.154 219.458 124.19 219.176C124.225 218.894 124.577 218.574 125.245 218.215L125.46 218.215C124.637 218.443 123.76 218.501 122.83 218.391C121.911 218.274 121.005 217.957 120.11 217.441ZM121.148 217.048C122.114 217.606 123.098 217.899 124.1 217.926C125.114 217.961 126.033 217.74 126.856 217.265L128.788 216.15L128.895 216.666L124.297 214.941L124.118 214.879C123.414 214.624 122.8 214.49 122.275 214.476C121.762 214.456 121.261 214.586 120.772 214.869C120.223 215.185 119.991 215.54 120.074 215.933C120.17 216.318 120.528 216.69 121.148 217.048ZM130.601 223.477C129.683 222.947 129.092 222.385 128.83 221.793C128.579 221.208 128.639 220.622 129.009 220.037C129.391 219.445 130.047 218.88 130.977 218.343C131.872 217.827 132.838 217.462 133.876 217.248C134.925 217.041 135.969 217.01 137.007 217.155C138.057 217.293 139.017 217.613 139.888 218.116C140.925 218.715 141.486 219.355 141.57 220.037C141.665 220.712 141.355 221.373 140.639 222.02L139.44 221.555C140.013 221.032 140.287 220.529 140.263 220.047C140.24 219.565 139.816 219.087 138.993 218.612C138.432 218.288 137.854 218.064 137.257 217.94C136.685 217.816 136.1 217.782 135.504 217.837C134.955 217.878 134.389 217.999 133.804 218.198C133.232 218.405 132.665 218.67 132.104 218.994C130.911 219.682 130.232 220.357 130.065 221.018C129.898 221.679 130.369 222.33 131.478 222.971C132.277 223.432 133.082 223.697 133.894 223.766C134.705 223.835 135.575 223.697 136.506 223.353L137.383 223.983C136.667 224.258 135.915 224.424 135.128 224.479C134.353 224.541 133.571 224.489 132.784 224.324C132.009 224.152 131.281 223.869 130.601 223.477ZM138.462 227.891C137.83 227.526 137.502 227.178 137.478 226.848C137.454 226.517 137.741 226.18 138.337 225.835L144.725 222.148L143.347 221.352L144.224 220.846L145.602 221.642L148.071 220.216L149.109 220.815L146.639 222.241L148.482 223.305L147.606 223.811L145.763 222.747L139.357 226.445C139.059 226.617 138.922 226.772 138.945 226.91C138.981 227.041 139.154 227.196 139.464 227.375C139.751 227.54 140.103 227.702 140.52 227.86L139.59 228.418C139.172 228.259 138.796 228.084 138.462 227.891ZM151.923 223.06L153.551 222.12L154.589 222.719L152.961 223.659L151.923 223.06ZM141.098 229.309L149.991 224.175L151.028 224.775L142.136 229.908L141.098 229.309ZM141.098 229.309L141.975 228.803L143.012 229.402L142.136 229.908L141.098 229.309ZM149.114 224.682L149.991 224.175L151.028 224.775L150.152 225.281L149.114 224.682ZM148.078 233.566C147.183 233.05 146.599 232.499 146.324 231.913C146.062 231.321 146.104 230.725 146.45 230.126C146.807 229.534 147.464 228.963 148.418 228.412C149.301 227.902 150.267 227.544 151.316 227.337C152.366 227.131 153.416 227.096 154.466 227.234C155.527 227.379 156.493 227.702 157.364 228.205C158.259 228.722 158.831 229.279 159.082 229.878C159.344 230.471 159.291 231.066 158.921 231.665C158.563 232.271 157.925 232.84 157.006 233.37C156.1 233.893 155.122 234.258 154.072 234.465C153.034 234.664 151.99 234.689 150.941 234.537C149.903 234.392 148.949 234.069 148.078 233.566ZM148.919 233.06C149.957 233.659 151.03 233.935 152.139 233.886C152.772 233.852 153.398 233.738 154.018 233.545C154.662 233.353 155.289 233.081 155.897 232.729C157.209 231.972 157.877 231.228 157.901 230.498C157.937 229.858 157.483 229.266 156.541 228.722C156.028 228.425 155.497 228.208 154.949 228.071C154.412 227.94 153.869 227.881 153.32 227.895C152.688 227.916 152.05 228.023 151.406 228.215C150.786 228.408 150.159 228.687 149.527 229.052C148.907 229.41 148.418 229.775 148.06 230.147C147.726 230.519 147.535 230.884 147.487 231.242C147.428 231.869 147.905 232.475 148.919 233.06ZM154.402 236.99L163.295 231.856L164.333 232.455L162.15 233.716L162.239 233.54C163.11 233.244 163.999 233.137 164.906 233.22C165.812 233.302 166.683 233.585 167.518 234.067C168.067 234.384 168.466 234.711 168.717 235.048C168.991 235.386 169.128 235.726 169.128 236.071C169.116 236.436 168.925 236.78 168.556 237.104C168.198 237.42 167.715 237.754 167.106 238.106L161.721 241.215L160.647 240.595L165.854 237.589C165.866 237.582 165.878 237.575 165.89 237.569C165.902 237.562 165.913 237.555 165.925 237.548C166.462 237.238 166.874 236.966 167.16 236.732C167.446 236.498 167.601 236.236 167.625 235.947C167.661 235.664 167.566 235.403 167.339 235.162C167.112 234.921 166.784 234.676 166.355 234.428C165.675 234.036 164.816 233.809 163.778 233.747C162.764 233.685 161.643 234.008 160.414 234.718L155.44 237.589L154.402 236.99ZM166.262 244.084C165.391 243.582 164.902 243.038 164.795 242.452C164.699 241.874 165.033 241.364 165.797 240.924C166.333 240.614 166.894 240.428 167.479 240.366C168.075 240.311 168.671 240.345 169.268 240.469C169.864 240.593 170.49 240.782 171.147 241.037L175.226 242.628C175.262 242.607 175.298 242.587 175.333 242.566C175.369 242.545 175.399 242.528 175.423 242.514C175.912 242.232 176.27 241.984 176.496 241.771C176.747 241.557 176.866 241.337 176.854 241.11C176.854 240.889 176.741 240.658 176.514 240.417C176.3 240.183 175.984 239.946 175.566 239.705C174.683 239.195 173.872 238.927 173.133 238.899C172.405 238.865 171.642 239.078 170.842 239.539L169.966 238.868C170.431 238.586 170.938 238.383 171.487 238.259C172.059 238.135 172.62 238.093 173.168 238.135C173.717 238.176 174.266 238.293 174.815 238.486C175.387 238.679 175.936 238.927 176.461 239.23C177.188 239.65 177.689 240.063 177.964 240.469C178.262 240.875 178.316 241.278 178.125 241.678C177.946 242.07 177.516 242.463 176.836 242.855L172.149 245.562C171.886 245.713 171.737 245.834 171.701 245.923C171.689 246.013 171.803 246.126 172.041 246.264C172.244 246.381 172.5 246.495 172.811 246.605L171.97 247.111C171.612 246.973 171.296 246.825 171.021 246.667C170.532 246.385 170.306 246.102 170.341 245.82C170.377 245.537 170.729 245.217 171.397 244.859L171.612 244.859C170.789 245.086 169.912 245.145 168.982 245.035C168.063 244.918 167.156 244.601 166.262 244.084ZM167.3 243.692C168.266 244.25 169.25 244.542 170.252 244.57C171.266 244.604 172.184 244.384 173.007 243.909L174.94 242.793L175.047 243.31L170.449 241.585L170.27 241.523C169.566 241.268 168.952 241.134 168.427 241.12C167.914 241.099 167.413 241.23 166.924 241.512C166.375 241.829 166.143 242.184 166.226 242.576C166.321 242.962 166.679 243.334 167.3 243.692ZM173.246 247.869L185.771 240.638L186.809 241.237L174.284 248.468L173.246 247.869ZM173.246 247.869L174.123 247.362L175.161 247.962L174.284 248.468L173.246 247.869ZM184.894 241.144L185.771 240.638L186.344 240.968L185.467 241.475L184.894 241.144ZM181.142 252.427L193.667 245.196L198.14 247.779C199.011 248.281 199.643 248.763 200.037 249.225C200.442 249.693 200.579 250.172 200.448 250.661C200.329 251.143 199.846 251.628 198.999 252.117C198.259 252.544 197.436 252.792 196.53 252.861C195.635 252.923 194.746 252.802 193.864 252.499L194.025 252.324C194.8 252.978 195.158 253.584 195.098 254.142C195.039 254.699 194.562 255.237 193.667 255.753C192.82 256.242 191.961 256.524 191.09 256.6C190.231 256.669 189.361 256.573 188.478 256.311C187.607 256.042 186.659 255.612 185.633 255.02L181.142 252.427ZM186.546 254.514C187.381 254.996 188.108 255.34 188.729 255.546C189.361 255.76 189.993 255.843 190.625 255.794C191.281 255.746 191.943 255.529 192.611 255.144C193.339 254.724 193.721 254.31 193.756 253.904C193.804 253.491 193.625 253.105 193.22 252.747C192.826 252.382 192.253 251.983 191.502 251.549L188.138 249.607L183.092 252.52L186.546 254.514ZM192.235 250.919C193.059 251.394 193.774 251.725 194.383 251.91C195.015 252.096 195.617 252.162 196.19 252.107C196.774 252.045 197.365 251.842 197.961 251.497C198.593 251.132 198.951 250.774 199.035 250.423C199.13 250.065 199.017 249.717 198.695 249.38C198.373 249.042 197.86 248.67 197.156 248.264L193.81 246.333L189.051 249.08L192.235 250.919ZM194.479 260.374C193.608 259.871 193.119 259.327 193.011 258.742C192.916 258.164 193.25 257.654 194.013 257.213C194.55 256.903 195.111 256.717 195.695 256.656C196.292 256.6 196.888 256.635 197.485 256.759C198.081 256.883 198.707 257.072 199.363 257.327L203.443 258.918C203.479 258.897 203.514 258.876 203.55 258.856C203.586 258.835 203.616 258.818 203.64 258.804C204.129 258.522 204.487 258.274 204.713 258.06C204.964 257.847 205.083 257.626 205.071 257.399C205.071 257.179 204.958 256.948 204.731 256.707C204.516 256.473 204.2 256.235 203.783 255.994C202.9 255.485 202.089 255.216 201.349 255.189C200.622 255.154 199.858 255.368 199.059 255.829L198.182 255.158C198.648 254.875 199.155 254.672 199.703 254.548C200.276 254.424 200.836 254.383 201.385 254.424C201.934 254.466 202.483 254.583 203.031 254.776C203.604 254.968 204.153 255.216 204.677 255.519C205.405 255.939 205.906 256.353 206.18 256.759C206.479 257.165 206.532 257.568 206.341 257.967C206.163 258.36 205.733 258.752 205.053 259.145L200.365 261.851C200.103 262.003 199.954 262.123 199.918 262.213C199.906 262.302 200.019 262.416 200.258 262.554C200.461 262.671 200.717 262.784 201.027 262.895L200.186 263.401C199.829 263.263 199.512 263.115 199.238 262.957C198.749 262.674 198.522 262.392 198.558 262.11C198.594 261.827 198.946 261.507 199.614 261.149L199.829 261.149C199.005 261.376 198.129 261.435 197.198 261.324C196.28 261.207 195.373 260.891 194.479 260.374ZM195.516 259.982C196.483 260.539 197.467 260.832 198.469 260.86C199.483 260.894 200.401 260.674 201.224 260.199L203.157 259.083L203.264 259.599L198.666 257.874L198.487 257.812C197.783 257.558 197.168 257.423 196.644 257.41C196.131 257.389 195.63 257.52 195.141 257.802C194.592 258.119 194.359 258.474 194.443 258.866C194.538 259.252 194.896 259.624 195.516 259.982ZM204.97 266.41C204.051 265.88 203.461 265.319 203.199 264.726C202.948 264.141 203.008 263.556 203.377 262.97C203.759 262.378 204.415 261.814 205.346 261.276C206.24 260.76 207.206 260.395 208.244 260.181C209.294 259.975 210.338 259.944 211.375 260.088C212.425 260.226 213.385 260.546 214.256 261.049C215.294 261.648 215.855 262.289 215.938 262.97C216.034 263.645 215.723 264.306 215.008 264.954L213.809 264.489C214.381 263.966 214.656 263.463 214.632 262.981C214.608 262.499 214.185 262.02 213.362 261.545C212.801 261.221 212.222 260.997 211.626 260.874C211.053 260.75 210.469 260.715 209.872 260.77C209.324 260.812 208.757 260.932 208.173 261.132C207.6 261.338 207.034 261.603 206.473 261.927C205.28 262.616 204.6 263.291 204.433 263.952C204.266 264.613 204.737 265.264 205.847 265.904C206.646 266.365 207.451 266.631 208.262 266.699C209.073 266.768 209.944 266.631 210.874 266.286L211.751 266.916C211.036 267.192 210.284 267.357 209.497 267.412C208.721 267.474 207.94 267.422 207.153 267.257C206.377 267.085 205.65 266.803 204.97 266.41ZM210.684 269.482L223.209 262.251L224.246 262.85L211.722 270.081L210.684 269.482ZM214.96 268.087L216.159 267.416L225.213 267.602L226.59 268.397L219.523 268.201H218.807L214.96 268.087ZM216.678 272.942L218.449 268.097L219.863 268.108L217.877 273.634L216.678 272.942ZM222.134 276.34C221.514 275.982 221.043 275.599 220.72 275.193C220.41 274.794 220.267 274.381 220.291 273.954C220.303 273.492 220.494 273.038 220.864 272.59C221.257 272.143 221.842 271.695 222.617 271.247C223.357 270.82 224.126 270.493 224.925 270.266C225.736 270.046 226.553 269.932 227.377 269.925C228.116 269.925 228.826 270.011 229.506 270.183C230.198 270.362 230.824 270.614 231.385 270.937C232.053 271.323 232.524 271.753 232.798 272.229C233.072 272.704 233.126 273.196 232.959 273.706C232.84 274.105 232.565 274.511 232.136 274.925C231.719 275.331 231.194 275.703 230.561 276.04L223.548 271.991C222.295 272.728 221.651 273.416 221.615 274.057C221.591 274.704 222.062 275.307 223.029 275.865C223.852 276.34 224.699 276.601 225.569 276.65C226.452 276.691 227.317 276.543 228.164 276.205L229.041 276.836C227.907 277.283 226.732 277.466 225.516 277.383C224.323 277.3 223.196 276.953 222.134 276.34ZM224.245 271.609L224.138 271.361L230.579 275.08L230.221 275.038C230.579 274.818 230.889 274.563 231.152 274.274C231.414 273.985 231.599 273.706 231.707 273.437C231.838 273.058 231.79 272.7 231.563 272.363C231.361 272.025 231.009 271.712 230.508 271.423C230.055 271.161 229.565 270.968 229.041 270.844C228.54 270.72 228.033 270.669 227.52 270.689C226.506 270.724 225.492 270.986 224.478 271.475L224.245 271.609ZM228.147 279.563L237.04 274.429L238.078 275.029L235.895 276.289L235.984 276.113C236.855 275.817 237.744 275.71 238.65 275.793C239.557 275.876 240.427 276.158 241.262 276.64C241.811 276.957 242.211 277.284 242.461 277.621C242.736 277.959 242.873 278.3 242.873 278.644C242.861 279.009 242.67 279.353 242.3 279.677C241.942 279.994 241.459 280.328 240.851 280.679L235.465 283.788L234.392 283.168L239.598 280.162C239.61 280.155 239.622 280.149 239.634 280.142C239.646 280.135 239.658 280.128 239.67 280.121C240.207 279.811 240.618 279.539 240.905 279.305C241.191 279.071 241.346 278.809 241.37 278.52C241.406 278.238 241.31 277.976 241.083 277.735C240.857 277.494 240.529 277.249 240.099 277.001C239.419 276.609 238.561 276.382 237.523 276.32C236.509 276.258 235.388 276.581 234.159 277.291L229.185 280.162L228.147 279.563ZM241.098 287.267C240.323 286.819 239.804 286.313 239.541 285.749C239.291 285.191 239.332 284.609 239.666 284.003C240 283.397 240.662 282.808 241.653 282.237C242.619 281.679 243.639 281.303 244.712 281.111C245.786 280.918 246.812 280.897 247.79 281.049C248.78 281.193 249.645 281.479 250.384 281.906C251.183 282.367 251.678 282.86 251.869 283.383C252.072 283.913 252 284.437 251.655 284.953L251.279 284.984L256.933 281.72L257.989 282.33L245.464 289.56L244.408 288.951L246.591 287.691L246.573 287.887C245.607 288.128 244.647 288.2 243.692 288.104C242.75 288 241.885 287.722 241.098 287.267ZM242.082 286.844C242.535 287.105 243 287.298 243.478 287.422C243.967 287.553 244.468 287.615 244.981 287.608C245.613 287.601 246.257 287.491 246.913 287.277C247.581 287.071 248.261 286.768 248.953 286.368C250.169 285.666 250.843 284.988 250.975 284.333C251.118 283.686 250.688 283.073 249.686 282.495C249.209 282.219 248.702 282.016 248.165 281.885C247.641 281.761 247.098 281.71 246.537 281.73C245.917 281.758 245.291 281.872 244.659 282.071C244.026 282.271 243.406 282.546 242.798 282.898C241.987 283.366 241.414 283.827 241.08 284.282C240.758 284.743 240.674 285.191 240.829 285.625C241.008 286.058 241.426 286.465 242.082 286.844Z" fill="#FAFAFA"/>
</g>
<rect width="303.878" height="232.428" rx="25.6204" transform="matrix(0.866042 0.499971 -0.866042 0.499971 201.293 0)" fill="black"/>
<rect y="-0.249985" width="287.162" height="18.5778" rx="9.28888" transform="matrix(0.866042 0.499971 -0.866042 0.499971 202.94 7.40625)" fill="black"/>
<rect y="-0.249985" width="287.162" height="18.5778" rx="9.28888" transform="matrix(0.866042 0.499971 -0.866042 0.499971 202.94 7.40625)" stroke="#FAFAFA" stroke-width="0.5"/>
<rect y="-0.249985" width="287.162" height="94.7626" rx="18.1843" transform="matrix(0.866042 0.499971 -0.866042 0.499971 181.692 19.6719)" fill="black"/>
<rect y="-0.249985" width="287.162" height="94.7626" rx="18.1843" transform="matrix(0.866042 0.499971 -0.866042 0.499971 181.692 19.6719)" stroke="#FAFAFA" stroke-width="0.5"/>
<rect y="-0.249985" width="91.7496" height="94.7626" rx="18.1843" transform="matrix(0.866042 0.499971 -0.866042 0.499971 94.4651 70.0313)" fill="black"/>
<rect y="-0.249985" width="91.7496" height="94.7626" rx="18.1843" transform="matrix(0.866042 0.499971 -0.866042 0.499971 94.4651 70.0313)" stroke="#FAFAFA" stroke-width="0.5"/>
<rect y="-0.249985" width="91.7496" height="94.7626" rx="18.1843" transform="matrix(0.866042 0.499971 -0.866042 0.499971 179.082 118.883)" fill="black"/>
<rect y="-0.249985" width="91.7496" height="94.7626" rx="18.1843" transform="matrix(0.866042 0.499971 -0.866042 0.499971 179.082 118.883)" stroke="#FAFAFA" stroke-width="0.5"/>
<rect y="-0.249985" width="91.7496" height="94.7626" rx="18.1843" transform="matrix(0.866042 0.499971 -0.866042 0.499971 263.7 167.734)" fill="black"/>
<rect y="-0.249985" width="91.7496" height="94.7626" rx="18.1843" transform="matrix(0.866042 0.499971 -0.866042 0.499971 263.7 167.734)" stroke="#FAFAFA" stroke-width="0.5"/>
<defs>
<clipPath id="clip0_4788_242020">
<rect width="303.878" height="232.428" rx="25" transform="matrix(0.866042 0.499971 -0.866042 0.499971 201.293 66.0078)" fill="white"/>
</clipPath>
</defs>
</svg>
