<svg width="506" height="336" viewBox="0 0 506 336" fill="none" xmlns="http://www.w3.org/2000/svg">
<rect width="303.878" height="232.428" rx="17.2169" transform="matrix(0.866136 0.499808 -0.866136 0.499808 242.245 66.3047)" fill="white"/>
<rect y="-0.215129" width="291.396" height="219.946" rx="25.8356" transform="matrix(0.866136 0.499808 -0.866136 0.499808 242.059 72.6502)" fill="white"/>
<rect y="-0.215129" width="291.396" height="219.946" rx="25.8356" transform="matrix(0.866136 0.499808 -0.866136 0.499808 242.059 72.6502)" stroke="#0A0A0A" stroke-width="0.430423"/>
<path d="M141.966 206.429L154.492 199.2L156.013 200.078L150.895 206.935C150.764 207.107 150.627 207.275 150.484 207.441C150.365 207.606 150.245 207.771 150.126 207.936C149.947 208.177 149.768 208.404 149.589 208.618C149.422 208.838 149.261 209.048 149.106 209.248C149.368 209.179 149.655 209.103 149.965 209.02C150.275 208.938 150.597 208.855 150.931 208.773C151.277 208.683 151.623 208.594 151.969 208.504C152.327 208.408 152.673 208.318 153.007 208.236L165.05 205.293L166.535 206.15L154.009 213.378L152.971 212.779L161.489 207.864C162.157 207.478 163.064 206.976 164.209 206.356C163.732 206.48 163.273 206.601 162.831 206.718C162.402 206.828 161.984 206.931 161.579 207.027C161.388 207.083 161.197 207.131 161.006 207.172C160.815 207.213 160.63 207.258 160.451 207.306L148.533 210.218L147.388 209.557L152.524 202.608C152.619 202.456 152.733 202.302 152.864 202.143C153.007 201.978 153.15 201.806 153.293 201.627C153.425 201.441 153.562 201.259 153.705 201.08C153.872 200.901 154.015 200.722 154.134 200.543L154.116 200.532C153.926 200.656 153.723 200.78 153.508 200.904C153.317 201.028 153.12 201.155 152.918 201.286C152.416 201.589 151.975 201.851 151.593 202.071L143.004 207.027L141.966 206.429ZM160.14 217.143C159.246 216.627 158.661 216.076 158.387 215.491C158.124 214.899 158.166 214.304 158.512 213.705C158.87 213.113 159.526 212.541 160.48 211.991C161.363 211.481 162.33 211.123 163.379 210.917C164.429 210.71 165.479 210.676 166.529 210.813C167.591 210.958 168.557 211.282 169.428 211.784C170.322 212.3 170.895 212.858 171.146 213.457C171.408 214.049 171.354 214.644 170.985 215.243C170.627 215.849 169.988 216.417 169.07 216.947C168.163 217.47 167.185 217.835 166.135 218.042C165.097 218.241 164.053 218.265 163.004 218.114C161.966 217.969 161.011 217.646 160.14 217.143ZM160.981 216.637C162.019 217.236 163.093 217.512 164.202 217.463C164.835 217.429 165.461 217.315 166.081 217.123C166.726 216.93 167.352 216.658 167.96 216.307C169.273 215.55 169.941 214.806 169.965 214.076C170 213.436 169.547 212.844 168.605 212.3C168.092 212.004 167.561 211.788 167.012 211.65C166.475 211.519 165.932 211.461 165.384 211.474C164.751 211.495 164.113 211.602 163.469 211.794C162.848 211.987 162.222 212.266 161.59 212.631C160.97 212.989 160.48 213.354 160.123 213.725C159.788 214.097 159.598 214.462 159.55 214.82C159.49 215.446 159.967 216.052 160.981 216.637ZM170.009 222.838C169.114 222.322 168.53 221.771 168.255 221.186C167.993 220.594 168.034 219.998 168.38 219.399C168.738 218.807 169.394 218.236 170.349 217.685C171.232 217.176 172.198 216.818 173.248 216.611C174.298 216.405 175.347 216.37 176.397 216.508C177.459 216.653 178.425 216.976 179.296 217.479C180.191 217.995 180.764 218.553 181.014 219.152C181.277 219.744 181.223 220.339 180.853 220.938C180.495 221.544 179.857 222.112 178.938 222.642C178.032 223.165 177.053 223.53 176.004 223.736C174.966 223.936 173.922 223.96 172.872 223.809C171.834 223.664 170.88 223.341 170.009 222.838ZM170.85 222.332C171.888 222.931 172.961 223.206 174.071 223.158C174.703 223.124 175.33 223.01 175.95 222.817C176.594 222.625 177.22 222.353 177.829 222.002C179.141 221.244 179.809 220.501 179.833 219.771C179.869 219.131 179.415 218.539 178.473 217.995C177.96 217.699 177.429 217.482 176.88 217.344C176.344 217.214 175.801 217.155 175.252 217.169C174.62 217.19 173.981 217.296 173.337 217.489C172.717 217.682 172.091 217.961 171.458 218.325C170.838 218.683 170.349 219.048 169.991 219.42C169.657 219.792 169.466 220.157 169.418 220.515C169.359 221.141 169.836 221.747 170.85 222.332ZM179.251 228.171C178.13 227.524 177.491 226.846 177.336 226.137C177.205 225.428 177.641 224.791 178.643 224.227L179.716 224.743C178.953 225.17 178.625 225.648 178.732 226.178C178.851 226.715 179.323 227.221 180.146 227.696C180.933 228.151 181.691 228.416 182.418 228.491C183.158 228.574 183.808 228.453 184.369 228.13C184.739 227.917 184.918 227.676 184.906 227.407C184.894 227.139 184.763 226.87 184.512 226.602C184.273 226.34 183.916 226.003 183.438 225.59C183.379 225.528 183.319 225.473 183.259 225.424C183.2 225.376 183.14 225.321 183.08 225.259C182.568 224.798 182.198 224.399 181.971 224.061C181.744 223.724 181.667 223.397 181.738 223.08C181.822 222.771 182.102 222.478 182.579 222.203C183.069 221.92 183.635 221.752 184.279 221.697C184.936 221.635 185.598 221.686 186.266 221.852C186.958 222.017 187.614 222.278 188.234 222.636C189.224 223.208 189.797 223.814 189.952 224.454C190.119 225.087 189.791 225.703 188.968 226.302L187.823 225.827C188.455 225.393 188.735 224.943 188.664 224.474C188.604 223.999 188.18 223.535 187.393 223.08C186.761 222.716 186.105 222.495 185.425 222.42C184.745 222.344 184.166 222.444 183.689 222.719C183.236 222.981 183.069 223.277 183.188 223.607C183.331 223.937 183.713 224.385 184.333 224.949C184.369 224.984 184.411 225.015 184.458 225.042C184.506 225.07 184.542 225.097 184.566 225.125C184.578 225.146 184.596 225.17 184.619 225.197C184.655 225.218 184.685 225.235 184.709 225.249C185.282 225.745 185.705 226.168 185.979 226.519C186.278 226.87 186.397 227.228 186.337 227.593C186.302 227.958 185.997 228.305 185.425 228.636C184.554 229.138 183.564 229.338 182.454 229.235C181.369 229.132 180.301 228.777 179.251 228.171ZM188.153 233.329C187.532 232.971 187.061 232.589 186.739 232.182C186.429 231.783 186.286 231.37 186.309 230.943C186.321 230.482 186.512 230.028 186.882 229.58C187.276 229.133 187.86 228.685 188.636 228.238C189.375 227.811 190.145 227.484 190.944 227.257C191.755 227.036 192.573 226.923 193.396 226.916C194.135 226.916 194.845 227.002 195.525 227.174C196.217 227.353 196.843 227.604 197.404 227.928C198.072 228.313 198.543 228.744 198.818 229.219C199.092 229.694 199.146 230.186 198.979 230.695C198.86 231.095 198.585 231.501 198.156 231.914C197.738 232.32 197.213 232.692 196.581 233.029L189.566 228.981C188.314 229.718 187.669 230.406 187.634 231.046C187.61 231.694 188.081 232.296 189.047 232.854C189.871 233.329 190.718 233.59 191.588 233.638C192.471 233.68 193.336 233.532 194.183 233.194L195.06 233.824C193.927 234.272 192.752 234.454 191.535 234.372C190.342 234.289 189.214 233.941 188.153 233.329ZM190.264 228.599L190.157 228.351L196.599 232.069L196.241 232.027C196.599 231.807 196.909 231.552 197.172 231.263C197.434 230.974 197.619 230.695 197.726 230.427C197.857 230.048 197.81 229.69 197.583 229.353C197.38 229.016 197.028 228.702 196.527 228.413C196.074 228.152 195.585 227.959 195.06 227.835C194.559 227.711 194.052 227.66 193.539 227.68C192.525 227.715 191.511 227.976 190.497 228.465L190.264 228.599ZM198.625 239.124L211.152 231.896L215.625 234.477C216.496 234.98 217.129 235.462 217.522 235.923C217.928 236.391 218.065 236.87 217.934 237.358C217.814 237.84 217.331 238.326 216.484 238.814C215.745 239.241 214.921 239.489 214.015 239.558C213.12 239.62 212.231 239.499 211.349 239.196L211.51 239.021C212.285 239.675 212.643 240.281 212.583 240.838C212.524 241.396 212.046 241.933 211.152 242.449C210.305 242.938 209.446 243.22 208.575 243.296C207.716 243.365 206.845 243.268 205.962 243.007C205.091 242.738 204.143 242.308 203.117 241.716L198.625 239.124ZM204.03 241.21C204.865 241.692 205.592 242.036 206.213 242.243C206.845 242.456 207.477 242.539 208.11 242.49C208.766 242.442 209.428 242.225 210.096 241.84C210.824 241.42 211.205 241.007 211.241 240.601C211.289 240.188 211.11 239.802 210.704 239.444C210.311 239.079 209.738 238.68 208.986 238.246L205.622 236.305L200.576 239.217L204.03 241.21ZM209.72 237.617C210.543 238.092 211.259 238.422 211.867 238.608C212.5 238.794 213.102 238.859 213.675 238.804C214.259 238.742 214.85 238.539 215.446 238.195C216.079 237.83 216.437 237.472 216.52 237.121C216.616 236.763 216.502 236.415 216.18 236.078C215.858 235.741 215.345 235.369 214.641 234.963L211.295 233.032L206.535 235.778L209.72 237.617ZM211.964 247.069C211.093 246.566 210.604 246.022 210.496 245.437C210.401 244.859 210.735 244.35 211.498 243.909C212.035 243.599 212.596 243.413 213.18 243.351C213.777 243.296 214.373 243.331 214.97 243.455C215.566 243.579 216.193 243.768 216.849 244.023L220.929 245.613C220.965 245.592 221 245.571 221.036 245.551C221.072 245.53 221.102 245.513 221.126 245.499C221.615 245.217 221.973 244.969 222.199 244.756C222.45 244.542 222.569 244.322 222.557 244.095C222.557 243.875 222.444 243.644 222.217 243.403C222.002 243.169 221.686 242.931 221.269 242.69C220.386 242.181 219.575 241.913 218.835 241.885C218.107 241.851 217.344 242.064 216.545 242.525L215.668 241.854C216.133 241.572 216.64 241.369 217.189 241.245C217.761 241.121 218.322 241.08 218.871 241.121C219.42 241.162 219.968 241.279 220.517 241.472C221.09 241.665 221.639 241.913 222.163 242.215C222.891 242.635 223.392 243.048 223.667 243.455C223.965 243.861 224.019 244.263 223.828 244.663C223.649 245.055 223.219 245.448 222.539 245.84L217.851 248.545C217.588 248.697 217.439 248.817 217.403 248.907C217.392 248.996 217.505 249.11 217.743 249.248C217.946 249.365 218.203 249.478 218.513 249.588L217.672 250.094C217.314 249.957 216.998 249.809 216.723 249.65C216.234 249.368 216.008 249.086 216.044 248.804C216.079 248.521 216.431 248.201 217.099 247.843L217.314 247.843C216.491 248.07 215.614 248.129 214.684 248.019C213.765 247.902 212.858 247.585 211.964 247.069ZM213.001 246.676C213.968 247.234 214.952 247.527 215.954 247.554C216.968 247.589 217.887 247.368 218.71 246.893L220.642 245.778L220.75 246.294L216.151 244.57L215.972 244.508C215.268 244.253 214.654 244.119 214.129 244.105C213.616 244.084 213.115 244.215 212.626 244.498C212.077 244.814 211.844 245.169 211.928 245.561C212.023 245.947 212.381 246.318 213.001 246.676ZM222.456 253.103C221.537 252.573 220.947 252.012 220.684 251.42C220.434 250.834 220.493 250.249 220.863 249.664C221.245 249.072 221.901 248.508 222.832 247.971C223.726 247.454 224.693 247.09 225.731 246.876C226.78 246.67 227.824 246.639 228.862 246.783C229.912 246.921 230.872 247.241 231.743 247.744C232.781 248.342 233.342 248.983 233.425 249.664C233.521 250.339 233.211 251 232.495 251.647L231.296 251.182C231.869 250.659 232.143 250.156 232.119 249.674C232.095 249.193 231.672 248.714 230.849 248.239C230.288 247.916 229.709 247.692 229.113 247.568C228.54 247.444 227.956 247.41 227.359 247.465C226.81 247.506 226.244 247.626 225.659 247.826C225.086 248.033 224.52 248.298 223.959 248.621C222.766 249.31 222.086 249.984 221.919 250.645C221.752 251.306 222.223 251.957 223.333 252.597C224.132 253.058 224.937 253.323 225.749 253.392C226.56 253.461 227.431 253.323 228.361 252.979L229.238 253.609C228.522 253.884 227.771 254.049 226.983 254.104C226.208 254.166 225.426 254.115 224.639 253.95C223.864 253.777 223.136 253.495 222.456 253.103ZM228.17 256.173L240.697 248.945L241.735 249.544L229.208 256.772L228.17 256.173ZM232.447 254.779L233.646 254.108L242.701 254.294L244.079 255.089L237.01 254.893H236.295L232.447 254.779ZM234.165 259.632L235.937 254.789L237.35 254.8L235.364 260.324L234.165 259.632ZM239.622 263.029C239.002 262.671 238.53 262.289 238.208 261.883C237.898 261.484 237.755 261.071 237.779 260.644C237.791 260.183 237.982 259.728 238.351 259.281C238.745 258.833 239.33 258.386 240.105 257.938C240.845 257.512 241.614 257.185 242.413 256.957C243.225 256.737 244.042 256.623 244.865 256.617C245.605 256.617 246.314 256.703 246.994 256.875C247.686 257.054 248.313 257.305 248.873 257.629C249.541 258.014 250.013 258.444 250.287 258.919C250.561 259.394 250.615 259.887 250.448 260.396C250.329 260.795 250.054 261.201 249.625 261.614C249.207 262.021 248.683 262.392 248.05 262.73L241.036 258.682C239.783 259.418 239.139 260.107 239.103 260.747C239.079 261.394 239.55 261.997 240.517 262.554C241.34 263.029 242.187 263.291 243.058 263.339C243.94 263.38 244.805 263.232 245.652 262.895L246.529 263.525C245.396 263.972 244.221 264.155 243.004 264.072C241.811 263.989 240.684 263.642 239.622 263.029ZM241.733 258.3L241.626 258.052L248.068 261.769L247.71 261.728C248.068 261.508 248.378 261.253 248.641 260.964C248.903 260.675 249.088 260.396 249.196 260.127C249.327 259.749 249.279 259.391 249.052 259.054C248.85 258.716 248.498 258.403 247.997 258.114C247.543 257.852 247.054 257.66 246.529 257.536C246.028 257.412 245.521 257.36 245.008 257.381C243.994 257.415 242.98 257.677 241.966 258.166L241.733 258.3ZM245.636 266.252L254.529 261.119L255.567 261.718L253.384 262.978L253.473 262.803C254.344 262.507 255.233 262.4 256.14 262.482C257.046 262.565 257.917 262.847 258.752 263.329C259.301 263.646 259.701 263.973 259.951 264.31C260.226 264.648 260.363 264.988 260.363 265.333C260.351 265.697 260.16 266.042 259.79 266.365C259.432 266.682 258.949 267.016 258.341 267.367L252.955 270.475L251.881 269.855L257.088 266.85C257.1 266.844 257.112 266.837 257.124 266.83C257.136 266.823 257.148 266.816 257.16 266.809C257.697 266.499 258.108 266.227 258.394 265.993C258.681 265.759 258.836 265.498 258.86 265.209C258.896 264.926 258.8 264.665 258.573 264.424C258.347 264.183 258.019 263.938 257.589 263.691C256.909 263.298 256.05 263.071 255.012 263.009C253.998 262.947 252.877 263.271 251.648 263.98L246.674 266.85L245.636 266.252ZM258.588 273.953C257.812 273.505 257.293 272.999 257.031 272.435C256.78 271.877 256.822 271.296 257.156 270.69C257.49 270.084 258.152 269.495 259.143 268.924C260.109 268.366 261.129 267.991 262.203 267.798C263.276 267.606 264.302 267.585 265.28 267.737C266.271 267.881 267.136 268.167 267.875 268.594C268.674 269.055 269.17 269.547 269.36 270.07C269.563 270.6 269.492 271.123 269.146 271.64L268.77 271.671L274.425 268.408L275.48 269.017L262.954 276.245L261.898 275.636L264.081 274.376L264.064 274.572C263.097 274.813 262.137 274.886 261.183 274.789C260.24 274.686 259.375 274.407 258.588 273.953ZM259.572 273.529C260.025 273.791 260.491 273.984 260.968 274.108C261.457 274.239 261.958 274.301 262.471 274.294C263.103 274.287 263.747 274.177 264.404 273.963C265.072 273.757 265.752 273.454 266.444 273.054C267.66 272.352 268.334 271.674 268.466 271.02C268.609 270.373 268.179 269.76 267.177 269.182C266.7 268.907 266.193 268.704 265.656 268.573C265.131 268.449 264.589 268.397 264.028 268.418C263.407 268.446 262.781 268.559 262.149 268.759C261.517 268.958 260.896 269.234 260.288 269.585C259.477 270.053 258.904 270.514 258.57 270.969C258.248 271.43 258.164 271.877 258.319 272.311C258.498 272.745 258.916 273.151 259.572 273.529Z" fill="black"/>
<rect width="303.878" height="232.428" rx="25.6204" transform="matrix(0.866042 0.499971 -0.866042 0.499971 242.241 0.382812)" fill="white"/>
<rect y="-0.249986" width="91.7496" height="107.03" rx="18.1843" transform="matrix(0.866042 0.499971 -0.866042 0.499971 243.889 7.78906)" fill="white"/>
<rect y="-0.249986" width="91.7496" height="107.03" rx="18.1843" transform="matrix(0.866042 0.499971 -0.866042 0.499971 243.889 7.78906)" stroke="#0A0A0A" stroke-width="0.5"/>
<path d="M200.208 41.868L199.427 42.9681C198.646 44.0682 197.085 46.2684 197.182 47.5108C197.28 48.7532 199.036 49.0379 201.989 48.6319C204.942 48.226 209.091 47.1294 210.511 47.6088C211.93 48.0882 210.619 50.1435 210.25 51.6554C209.881 53.1672 210.453 54.1355 211.807 54.6526C213.161 55.1697 215.297 55.2357 218.27 54.8177C221.244 54.3998 225.056 53.498 228.403 52.8645C231.749 52.2311 234.631 51.866 234.838 53.0454C235.045 54.2247 232.577 56.9484 233.918 57.4727C235.26 57.997 240.411 56.3219 241.936 56.7404C243.461 57.1589 241.359 59.671 241.108 61.1145C240.857 62.5581 242.457 62.9331 245.019 62.7531C247.58 62.5732 251.103 61.8383 254.999 60.8876C258.895 59.937 263.165 58.7707 266.277 58.2728C269.39 57.7749 271.344 57.9454 272.944 58.3202C274.545 58.695 275.791 59.2742 275.48 60.7526C275.169 62.231 273.3 64.6085 274.486 65.2225C275.672 65.8365 279.913 64.6869 282.861 64.2841C285.808 63.8812 287.462 64.225 288.289 64.397L289.116 64.5689" stroke="black" stroke-width="0.430423"/>
<rect y="-0.215199" width="91.68" height="106.96" rx="18.1495" transform="matrix(0.866042 0.499971 -0.866042 0.499971 328.536 56.658)" fill="white"/>
<rect y="-0.215199" width="91.68" height="106.96" rx="18.1495" transform="matrix(0.866042 0.499971 -0.866042 0.499971 328.536 56.658)" stroke="#0A0A0A" stroke-width="0.430423"/>
<path d="M336.029 120.533C330.321 121.709 324.134 121.871 318.265 120.998C312.397 120.124 307.117 118.255 303.106 115.632C299.096 113.008 296.54 109.751 295.769 106.281C294.997 102.811 296.045 99.2866 298.777 96.1635C301.509 93.0405 305.8 90.4619 311.096 88.7608C316.392 87.0597 322.45 86.3141 328.487 86.6203C334.524 86.9265 340.264 88.2705 344.965 90.4786C349.666 92.6868 353.112 95.6578 354.859 99.008" stroke="black" stroke-width="0.430423"/>
<rect y="-0.215199" width="91.68" height="106.96" rx="18.1495" transform="matrix(0.866042 0.499971 -0.866042 0.499971 413.154 105.51)" fill="white"/>
<rect y="-0.215199" width="91.68" height="106.96" rx="18.1495" transform="matrix(0.866042 0.499971 -0.866042 0.499971 413.154 105.51)" stroke="#0A0A0A" stroke-width="0.430423"/>
<line y1="-0.215211" x2="20.2299" y2="-0.215211" transform="matrix(0.866042 -0.499971 0.866042 0.499971 340.572 161.523)" stroke="black" stroke-width="0.430423"/>
<line y1="-0.215211" x2="20.2299" y2="-0.215211" transform="matrix(0.866042 -0.499971 0.866042 0.499971 349.731 166.812)" stroke="black" stroke-width="0.430423"/>
<line y1="-0.215211" x2="37.8793" y2="-0.215211" transform="matrix(0.856767 -0.505269 0.875219 0.494617 359.065 172.195)" stroke="black" stroke-width="0.430423"/>
<line y1="-0.215211" x2="49.929" y2="-0.215211" transform="matrix(0.866042 -0.499971 0.866042 0.499971 368.05 177.383)" stroke="black" stroke-width="0.430423"/>
<line y1="-0.215211" x2="33.1425" y2="-0.215211" transform="matrix(0.866042 -0.499971 0.866042 0.499971 377.209 182.672)" stroke="black" stroke-width="0.430423"/>
<line y1="-0.215211" x2="63.2721" y2="-0.215211" transform="matrix(0.866042 -0.499971 0.866042 0.499971 386.369 187.961)" stroke="black" stroke-width="0.430423"/>
<line y1="-0.215211" x2="64.133" y2="-0.215211" transform="matrix(0.866042 -0.499971 0.866042 0.499971 395.528 193.25)" stroke="black" stroke-width="0.430423"/>
<rect y="-0.249986" width="91.7496" height="107.03" rx="18.1843" transform="matrix(0.866042 0.499971 -0.866042 0.499971 146.038 64.2813)" fill="white"/>
<rect y="-0.249986" width="91.7496" height="107.03" rx="18.1843" transform="matrix(0.866042 0.499971 -0.866042 0.499971 146.038 64.2813)" stroke="#0A0A0A" stroke-width="0.5"/>
<line y1="-0.25" x2="9.89972" y2="-0.25" transform="matrix(0.866042 -0.499971 0.866042 0.499971 72.9131 119.984)" stroke="black" stroke-width="0.5"/>
<line y1="-0.25" x2="20.2299" y2="-0.25" transform="matrix(0.866042 -0.499971 0.866042 0.499971 80.9277 124.609)" stroke="black" stroke-width="0.5"/>
<line y1="-0.25" x2="20.2299" y2="-0.25" transform="matrix(0.866042 -0.499971 0.866042 0.499971 88.9424 129.234)" stroke="black" stroke-width="0.5"/>
<line y1="-0.25" x2="37.8793" y2="-0.25" transform="matrix(0.856767 -0.505269 0.875219 0.494617 97.1318 133.961)" stroke="black" stroke-width="0.5"/>
<line y1="-0.25" x2="33.1425" y2="-0.25" transform="matrix(0.866042 -0.499971 0.866042 0.499971 104.972 138.492)" stroke="black" stroke-width="0.5"/>
<line y1="-0.25" x2="55.5245" y2="-0.25" transform="matrix(0.866042 -0.499971 0.866042 0.499971 112.985 143.117)" stroke="black" stroke-width="0.5"/>
<line y1="-0.25" x2="46.9183" y2="-0.25" transform="matrix(0.85756 -0.504821 0.874443 0.495074 121.198 147.859)" stroke="black" stroke-width="0.5"/>
<line y1="-0.25" x2="20.2299" y2="-0.25" transform="matrix(0.866042 -0.499971 0.866042 0.499971 129.015 152.367)" stroke="black" stroke-width="0.5"/>
<rect y="-0.249986" width="91.7496" height="107.03" rx="18.1843" transform="matrix(0.866042 0.499971 -0.866042 0.499971 230.656 113.133)" fill="white"/>
<rect y="-0.249986" width="91.7496" height="107.03" rx="18.1843" transform="matrix(0.866042 0.499971 -0.866042 0.499971 230.656 113.133)" stroke="#0A0A0A" stroke-width="0.5"/>
<rect y="-0.249986" width="74.5327" height="16.4256" rx="8.21282" transform="matrix(0.866042 0.499971 -0.866042 0.499971 167.099 158.43)" fill="white" stroke="#0A0A0A" stroke-width="0.5"/>
<rect y="-0.249986" width="91.7496" height="107.03" rx="18.1843" transform="matrix(0.866042 0.499971 -0.866042 0.499971 315.274 161.984)" fill="white"/>
<rect y="-0.249986" width="91.7496" height="107.03" rx="18.1843" transform="matrix(0.866042 0.499971 -0.866042 0.499971 315.274 161.984)" stroke="#0A0A0A" stroke-width="0.5"/>
<line y1="-0.25" x2="9.89972" y2="-0.25" transform="matrix(0.866042 -0.499971 0.866042 0.499971 241.704 217.43)" stroke="black" stroke-width="0.5"/>
<line y1="-0.25" x2="20.2299" y2="-0.25" transform="matrix(0.866042 -0.499971 0.866042 0.499971 248.827 221.539)" stroke="black" stroke-width="0.5"/>
<line y1="-0.25" x2="20.2299" y2="-0.25" transform="matrix(0.866042 -0.499971 0.866042 0.499971 255.951 225.656)" stroke="black" stroke-width="0.5"/>
<line y1="-0.25" x2="33.1425" y2="-0.25" transform="matrix(0.866042 -0.499971 0.866042 0.499971 263.075 229.766)" stroke="black" stroke-width="0.5"/>
<line y1="-0.25" x2="64.133" y2="-0.25" transform="matrix(0.866042 -0.499971 0.866042 0.499971 270.199 233.875)" stroke="black" stroke-width="0.5"/>
<line y1="-0.25" x2="55.5245" y2="-0.25" transform="matrix(0.866042 -0.499971 0.866042 0.499971 277.323 237.992)" stroke="black" stroke-width="0.5"/>
<line y1="-0.25" x2="46.9183" y2="-0.25" transform="matrix(0.85756 -0.504821 0.874443 0.495074 284.646 242.219)" stroke="black" stroke-width="0.5"/>
<line y1="-0.25" x2="55.5245" y2="-0.25" transform="matrix(0.866042 -0.499971 0.866042 0.499971 291.571 246.219)" stroke="black" stroke-width="0.5"/>
<line y1="-0.25" x2="20.2299" y2="-0.25" transform="matrix(0.866042 -0.499971 0.866042 0.499971 298.695 250.328)" stroke="black" stroke-width="0.5"/>
</svg>
