<svg width="465" height="335" viewBox="0 0 465 335" fill="none" xmlns="http://www.w3.org/2000/svg">
<rect width="303.878" height="232.428" rx="17.2169" transform="matrix(0.866042 0.499971 -0.866042 0.499971 201.293 66.0078)" fill="black"/>
<rect y="-0.215199" width="291.396" height="219.946" rx="25.8356" transform="matrix(0.866042 0.499971 -0.866042 0.499971 201.107 72.3533)" fill="black"/>
<rect y="-0.215199" width="291.396" height="219.946" rx="25.8356" transform="matrix(0.866042 0.499971 -0.866042 0.499971 201.107 72.3533)" stroke="#FAFAFA" stroke-width="0.430423"/>
<path d="M101.025 206.175L113.55 198.944L115.07 199.822L109.953 206.681C109.822 206.853 109.685 207.022 109.542 207.187C109.422 207.352 109.303 207.518 109.184 207.683C109.005 207.924 108.826 208.151 108.647 208.365C108.48 208.585 108.319 208.795 108.164 208.995C108.426 208.926 108.713 208.85 109.023 208.768C109.333 208.685 109.655 208.602 109.989 208.52C110.335 208.43 110.681 208.341 111.027 208.251C111.385 208.155 111.73 208.065 112.064 207.982L124.106 205.039L125.591 205.896L113.066 213.127L112.029 212.527L120.546 207.611C121.214 207.225 122.12 206.722 123.265 206.102C122.788 206.226 122.329 206.347 121.888 206.464C121.458 206.574 121.041 206.678 120.635 206.774C120.444 206.829 120.253 206.877 120.062 206.919C119.872 206.96 119.687 207.005 119.508 207.053L107.591 209.966L106.446 209.305L111.581 202.353C111.677 202.201 111.79 202.046 111.921 201.888C112.064 201.723 112.208 201.551 112.351 201.372C112.482 201.186 112.619 201.003 112.762 200.824C112.929 200.645 113.072 200.466 113.192 200.287L113.174 200.277C112.983 200.401 112.78 200.525 112.565 200.648C112.375 200.772 112.178 200.9 111.975 201.031C111.474 201.334 111.033 201.595 110.651 201.816L102.062 206.774L101.025 206.175ZM119.197 216.893C118.302 216.377 117.718 215.826 117.444 215.24C117.181 214.648 117.223 214.052 117.569 213.453C117.927 212.861 118.583 212.29 119.537 211.739C120.42 211.229 121.386 210.871 122.436 210.664C123.485 210.458 124.535 210.423 125.585 210.561C126.646 210.706 127.613 211.029 128.483 211.532C129.378 212.049 129.951 212.606 130.201 213.205C130.463 213.798 130.41 214.393 130.04 214.992C129.682 215.598 129.044 216.167 128.126 216.697C127.219 217.22 126.241 217.585 125.191 217.792C124.153 217.991 123.11 218.016 122.06 217.864C121.022 217.719 120.068 217.396 119.197 216.893ZM120.038 216.387C121.076 216.986 122.149 217.261 123.259 217.213C123.891 217.179 124.517 217.065 125.137 216.872C125.782 216.68 126.408 216.408 127.016 216.056C128.328 215.299 128.996 214.555 129.02 213.825C129.056 213.185 128.603 212.593 127.66 212.049C127.147 211.752 126.617 211.535 126.068 211.398C125.531 211.267 124.988 211.208 124.44 211.222C123.807 211.243 123.169 211.35 122.525 211.542C121.905 211.735 121.279 212.014 120.646 212.379C120.026 212.737 119.537 213.102 119.179 213.474C118.845 213.846 118.654 214.211 118.607 214.569C118.547 215.196 119.024 215.802 120.038 216.387ZM129.064 222.59C128.17 222.073 127.585 221.522 127.311 220.937C127.049 220.345 127.09 219.749 127.436 219.15C127.794 218.558 128.45 217.986 129.404 217.435C130.287 216.926 131.253 216.567 132.303 216.361C133.353 216.154 134.402 216.12 135.452 216.258C136.514 216.402 137.48 216.726 138.351 217.229C139.245 217.745 139.818 218.303 140.068 218.902C140.331 219.494 140.277 220.09 139.907 220.689C139.55 221.295 138.911 221.863 137.993 222.393C137.086 222.917 136.108 223.282 135.059 223.488C134.021 223.688 132.977 223.712 131.927 223.561C130.89 223.416 129.935 223.092 129.064 222.59ZM129.905 222.083C130.943 222.683 132.017 222.958 133.126 222.91C133.758 222.875 134.385 222.762 135.005 222.569C135.649 222.376 136.275 222.104 136.884 221.753C138.196 220.995 138.864 220.252 138.888 219.522C138.923 218.881 138.47 218.289 137.528 217.745C137.015 217.449 136.484 217.232 135.935 217.094C135.398 216.963 134.856 216.905 134.307 216.919C133.675 216.939 133.037 217.046 132.393 217.239C131.772 217.432 131.146 217.711 130.514 218.076C129.893 218.434 129.404 218.799 129.047 219.17C128.713 219.542 128.522 219.907 128.474 220.265C128.414 220.892 128.891 221.498 129.905 222.083ZM138.306 227.925C137.184 227.277 136.546 226.599 136.391 225.89C136.26 225.18 136.695 224.543 137.697 223.979L138.771 224.495C138.007 224.922 137.679 225.401 137.787 225.931C137.906 226.468 138.377 226.974 139.2 227.449C139.988 227.904 140.745 228.169 141.473 228.245C142.212 228.327 142.862 228.207 143.423 227.883C143.793 227.67 143.972 227.429 143.96 227.16C143.948 226.892 143.817 226.623 143.566 226.354C143.327 226.093 142.97 225.755 142.493 225.342C142.433 225.28 142.373 225.225 142.314 225.177C142.254 225.129 142.194 225.074 142.135 225.012C141.622 224.55 141.252 224.151 141.025 223.813C140.799 223.476 140.721 223.149 140.793 222.832C140.876 222.522 141.157 222.23 141.634 221.954C142.123 221.672 142.689 221.503 143.333 221.448C143.99 221.386 144.652 221.438 145.32 221.603C146.011 221.768 146.667 222.03 147.288 222.388C148.278 222.959 148.85 223.565 149.005 224.206C149.172 224.839 148.844 225.456 148.021 226.055L146.876 225.58C147.508 225.146 147.789 224.695 147.717 224.227C147.658 223.751 147.234 223.287 146.447 222.832C145.815 222.467 145.159 222.247 144.479 222.171C143.799 222.095 143.22 222.195 142.743 222.471C142.29 222.732 142.123 223.028 142.242 223.359C142.385 223.689 142.767 224.137 143.387 224.702C143.423 224.736 143.465 224.767 143.512 224.795C143.56 224.822 143.596 224.85 143.62 224.877C143.632 224.898 143.65 224.922 143.673 224.95C143.709 224.97 143.739 224.988 143.763 225.001C144.335 225.497 144.759 225.921 145.033 226.272C145.331 226.623 145.451 226.981 145.391 227.346C145.355 227.711 145.051 228.059 144.479 228.389C143.608 228.892 142.618 229.092 141.508 228.988C140.423 228.885 139.355 228.531 138.306 227.925ZM147.206 233.084C146.586 232.726 146.115 232.343 145.793 231.937C145.483 231.538 145.339 231.124 145.363 230.697C145.375 230.236 145.566 229.782 145.936 229.334C146.33 228.886 146.914 228.439 147.689 227.991C148.429 227.564 149.198 227.237 149.998 227.01C150.809 226.789 151.626 226.676 152.449 226.669C153.188 226.669 153.898 226.755 154.578 226.927C155.27 227.106 155.896 227.358 156.457 227.681C157.125 228.067 157.596 228.497 157.87 228.972C158.145 229.448 158.198 229.94 158.031 230.45C157.912 230.849 157.638 231.255 157.208 231.668C156.791 232.075 156.266 232.447 155.634 232.784L148.62 228.735C147.367 229.472 146.723 230.16 146.687 230.801C146.664 231.448 147.135 232.051 148.101 232.608C148.924 233.084 149.771 233.345 150.642 233.393C151.524 233.435 152.389 233.287 153.236 232.949L154.113 233.579C152.98 234.027 151.805 234.21 150.588 234.127C149.395 234.044 148.268 233.696 147.206 233.084ZM149.318 228.353L149.21 228.105L155.652 231.823L155.294 231.782C155.652 231.562 155.962 231.307 156.224 231.018C156.487 230.728 156.671 230.45 156.779 230.181C156.91 229.802 156.862 229.444 156.636 229.107C156.433 228.769 156.081 228.456 155.58 228.167C155.127 227.905 154.638 227.712 154.113 227.588C153.612 227.464 153.105 227.413 152.592 227.433C151.578 227.468 150.564 227.729 149.55 228.218L149.318 228.353ZM157.678 238.881L170.203 231.65L174.676 234.233C175.547 234.735 176.179 235.218 176.573 235.679C176.978 236.147 177.115 236.626 176.984 237.115C176.865 237.597 176.382 238.082 175.535 238.571C174.795 238.998 173.972 239.246 173.066 239.315C172.171 239.377 171.282 239.256 170.4 238.953L170.561 238.778C171.336 239.432 171.694 240.038 171.634 240.596C171.575 241.154 171.097 241.691 170.203 242.207C169.356 242.696 168.497 242.978 167.626 243.054C166.767 243.123 165.897 243.027 165.014 242.765C164.143 242.496 163.195 242.066 162.169 241.474L157.678 238.881ZM163.082 240.968C163.917 241.45 164.644 241.794 165.264 242.001C165.897 242.214 166.529 242.297 167.161 242.248C167.817 242.2 168.479 241.983 169.147 241.598C169.875 241.178 170.256 240.764 170.292 240.358C170.34 239.945 170.161 239.559 169.755 239.201C169.362 238.836 168.789 238.437 168.038 238.003L164.674 236.061L159.628 238.974L163.082 240.968ZM168.771 237.373C169.594 237.848 170.31 238.179 170.919 238.365C171.551 238.551 172.153 238.616 172.726 238.561C173.31 238.499 173.901 238.296 174.497 237.951C175.129 237.586 175.487 237.228 175.571 236.877C175.666 236.519 175.553 236.171 175.231 235.834C174.909 235.496 174.396 235.125 173.692 234.718L170.346 232.787L165.586 235.534L168.771 237.373ZM171.015 246.828C170.144 246.326 169.655 245.782 169.547 245.196C169.452 244.618 169.786 244.108 170.549 243.667C171.086 243.358 171.647 243.172 172.231 243.11C172.828 243.055 173.424 243.089 174.021 243.213C174.617 243.337 175.243 243.526 175.899 243.781L179.979 245.372C180.015 245.351 180.05 245.33 180.086 245.31C180.122 245.289 180.152 245.272 180.176 245.258C180.665 244.976 181.023 244.728 181.249 244.514C181.5 244.301 181.619 244.081 181.607 243.853C181.607 243.633 181.494 243.402 181.267 243.161C181.052 242.927 180.736 242.69 180.319 242.449C179.436 241.939 178.625 241.67 177.885 241.643C177.158 241.608 176.394 241.822 175.595 242.283L174.718 241.612C175.184 241.33 175.691 241.126 176.239 241.002C176.812 240.878 177.372 240.837 177.921 240.878C178.47 240.92 179.019 241.037 179.567 241.23C180.14 241.422 180.689 241.67 181.213 241.973C181.941 242.393 182.442 242.807 182.716 243.213C183.015 243.619 183.068 244.022 182.877 244.421C182.698 244.814 182.269 245.207 181.589 245.599L176.901 248.305C176.639 248.457 176.49 248.577 176.454 248.667C176.442 248.756 176.555 248.87 176.794 249.008C176.997 249.125 177.253 249.238 177.563 249.349L176.722 249.855C176.364 249.717 176.048 249.569 175.774 249.411C175.285 249.128 175.058 248.846 175.094 248.564C175.13 248.281 175.482 247.961 176.15 247.603L176.364 247.603C175.541 247.83 174.665 247.889 173.734 247.779C172.816 247.662 171.909 247.345 171.015 246.828ZM172.052 246.436C173.019 246.994 174.003 247.286 175.005 247.314C176.019 247.348 176.937 247.128 177.76 246.653L179.692 245.537L179.8 246.054L175.201 244.329L175.023 244.267C174.319 244.012 173.704 243.877 173.18 243.864C172.667 243.843 172.166 243.974 171.677 244.256C171.128 244.573 170.895 244.928 170.979 245.32C171.074 245.706 171.432 246.078 172.052 246.436ZM181.506 252.864C180.587 252.334 179.997 251.773 179.734 251.181C179.484 250.595 179.544 250.01 179.913 249.425C180.295 248.832 180.951 248.268 181.882 247.73C182.776 247.214 183.742 246.849 184.78 246.636C185.83 246.429 186.874 246.398 187.911 246.543C188.961 246.68 189.921 247.001 190.792 247.503C191.83 248.102 192.391 248.743 192.474 249.425C192.569 250.099 192.259 250.76 191.544 251.408L190.345 250.943C190.917 250.42 191.192 249.917 191.168 249.435C191.144 248.953 190.721 248.474 189.897 247.999C189.337 247.675 188.758 247.452 188.162 247.328C187.589 247.204 187.005 247.169 186.408 247.224C185.86 247.266 185.293 247.386 184.709 247.586C184.136 247.792 183.569 248.058 183.009 248.381C181.816 249.07 181.136 249.745 180.969 250.406C180.802 251.067 181.273 251.718 182.383 252.358C183.182 252.82 183.987 253.085 184.798 253.153C185.609 253.222 186.48 253.085 187.41 252.74L188.287 253.37C187.571 253.646 186.82 253.811 186.033 253.866C185.257 253.928 184.476 253.877 183.689 253.711C182.913 253.539 182.186 253.257 181.506 252.864ZM187.22 255.936L199.745 248.705L200.782 249.304L188.257 256.535L187.22 255.936ZM191.496 254.541L192.695 253.87L201.749 254.056L203.126 254.851L196.059 254.655H195.343L191.496 254.541ZM193.214 259.396L194.985 254.552L196.399 254.562L194.413 260.088L193.214 259.396ZM198.67 262.794C198.05 262.436 197.578 262.054 197.256 261.647C196.946 261.248 196.803 260.835 196.827 260.408C196.839 259.946 197.03 259.492 197.4 259.044C197.793 258.597 198.378 258.149 199.153 257.701C199.893 257.274 200.662 256.947 201.461 256.72C202.272 256.5 203.089 256.386 203.912 256.379C204.652 256.379 205.362 256.465 206.042 256.637C206.734 256.817 207.36 257.068 207.92 257.392C208.588 257.777 209.06 258.208 209.334 258.683C209.608 259.158 209.662 259.65 209.495 260.16C209.376 260.559 209.101 260.966 208.672 261.379C208.254 261.785 207.73 262.157 207.097 262.494L200.083 258.445C198.831 259.182 198.187 259.871 198.151 260.511C198.127 261.158 198.598 261.761 199.565 262.319C200.388 262.794 201.235 263.056 202.105 263.104C202.988 263.145 203.853 262.997 204.7 262.66L205.576 263.29C204.443 263.737 203.268 263.92 202.052 263.837C200.859 263.755 199.732 263.407 198.67 262.794ZM200.781 258.063L200.674 257.815L207.115 261.534L206.757 261.492C207.115 261.272 207.425 261.017 207.688 260.728C207.95 260.439 208.135 260.16 208.243 259.891C208.374 259.513 208.326 259.154 208.099 258.817C207.897 258.48 207.545 258.166 207.044 257.877C206.59 257.615 206.101 257.423 205.576 257.299C205.075 257.175 204.569 257.123 204.056 257.144C203.042 257.178 202.028 257.44 201.014 257.929L200.781 258.063ZM204.683 266.017L213.576 260.884L214.613 261.483L212.431 262.743L212.52 262.567C213.391 262.271 214.279 262.164 215.186 262.247C216.093 262.33 216.963 262.612 217.798 263.094C218.347 263.411 218.747 263.738 218.997 264.075C219.271 264.413 219.409 264.754 219.409 265.098C219.397 265.463 219.206 265.807 218.836 266.131C218.478 266.448 217.995 266.782 217.387 267.133L212.001 270.242L210.928 269.622L216.134 266.616C216.146 266.61 216.158 266.603 216.17 266.596C216.182 266.589 216.194 266.582 216.206 266.575C216.743 266.265 217.154 265.993 217.44 265.759C217.727 265.525 217.882 265.263 217.906 264.974C217.941 264.692 217.846 264.43 217.619 264.189C217.393 263.948 217.065 263.704 216.635 263.456C215.955 263.063 215.097 262.836 214.059 262.774C213.045 262.712 211.924 263.036 210.695 263.745L205.721 266.616L204.683 266.017ZM217.634 273.721C216.858 273.274 216.34 272.767 216.077 272.203C215.827 271.645 215.868 271.063 216.202 270.457C216.536 269.851 217.198 269.262 218.188 268.691C219.155 268.133 220.175 267.758 221.248 267.565C222.322 267.372 223.348 267.351 224.326 267.503C225.316 267.647 226.181 267.933 226.92 268.36C227.719 268.822 228.214 269.314 228.405 269.837C228.608 270.368 228.536 270.891 228.19 271.407L227.815 271.438L233.469 268.174L234.524 268.784L222 276.014L220.944 275.405L223.127 274.145L223.109 274.341C222.143 274.582 221.183 274.654 220.228 274.558C219.286 274.455 218.421 274.176 217.634 273.721ZM218.618 273.298C219.071 273.559 219.536 273.752 220.014 273.876C220.503 274.007 221.004 274.069 221.517 274.062C222.149 274.055 222.793 273.945 223.449 273.731C224.117 273.525 224.797 273.222 225.489 272.822C226.705 272.12 227.379 271.442 227.511 270.788C227.654 270.14 227.224 269.527 226.222 268.949C225.745 268.673 225.238 268.47 224.701 268.339C224.177 268.216 223.634 268.164 223.073 268.185C222.453 268.212 221.827 268.326 221.194 268.525C220.562 268.725 219.942 269.001 219.334 269.352C218.522 269.82 217.95 270.281 217.616 270.736C217.294 271.197 217.21 271.645 217.365 272.079C217.544 272.513 217.962 272.919 218.618 273.298Z" fill="#FAFAFA"/>
<rect width="303.878" height="232.428" rx="25.6204" transform="matrix(0.866042 0.499971 -0.866042 0.499971 201.293 0)" fill="black"/>
<rect y="-0.249986" width="287.161" height="18.5777" rx="9.28887" transform="matrix(0.866042 0.499971 -0.866042 0.499971 202.941 7.40625)" fill="black"/>
<rect y="-0.249986" width="287.161" height="18.5777" rx="9.28887" transform="matrix(0.866042 0.499971 -0.866042 0.499971 202.941 7.40625)" stroke="#FAFAFA" stroke-width="0.5"/>
<rect y="-0.249986" width="140.603" height="94.7626" rx="18.1843" transform="matrix(0.866042 0.499971 -0.866042 0.499971 181.694 19.6719)" fill="black"/>
<rect y="-0.249986" width="140.603" height="94.7626" rx="18.1843" transform="matrix(0.866042 0.499971 -0.866042 0.499971 181.694 19.6719)" stroke="#FAFAFA" stroke-width="0.5"/>
<path d="M143.325 50.6805L142.915 51.9948C142.506 53.3092 141.686 55.9379 142.526 57.6088C143.366 59.2798 145.865 59.9929 149.56 60.0155C153.255 60.038 158.147 59.37 160.308 60.2779C162.47 61.1858 161.901 63.6697 162.274 65.61C162.648 67.5503 163.962 68.9471 166.058 69.8928C168.155 70.8384 171.032 71.3328 174.748 71.3434C178.464 71.354 183.018 70.8807 187.107 70.6757C191.196 70.4708 194.821 70.5343 195.77 72.1421C196.719 73.75 194.993 76.9022 197.077 77.855C199.16 78.8078 205.054 77.5612 207.321 78.4082C209.588 79.2552 208.228 82.1958 208.72 84.0679C209.211 85.9399 211.554 86.7434 214.857 86.992C218.161 87.2406 222.426 86.9341 227.064 86.412C231.703 85.8899 236.715 85.1521 240.57 85.0827C244.424 85.0133 247.121 85.6123 249.463 86.4156C251.806 87.219 253.794 88.2267 254.226 90.1336C254.657 92.0405 253.53 94.8465 255.459 95.889C257.387 96.9315 262.37 96.2105 266.06 96.2361C269.75 96.2617 272.146 97.0341 273.344 97.4203L274.542 97.8065" stroke="#FAFAFA" stroke-width="0.430423"/>
<rect y="-0.215199" width="140.533" height="94.693" rx="18.1495" transform="matrix(0.866042 0.499971 -0.866042 0.499971 308.65 92.9627)" fill="black"/>
<rect y="-0.215199" width="140.533" height="94.693" rx="18.1495" transform="matrix(0.866042 0.499971 -0.866042 0.499971 308.65 92.9627)" stroke="#FAFAFA" stroke-width="0.430423"/>
<path d="M342.608 165.986C336.9 167.162 330.713 167.324 324.844 166.451C318.976 165.577 313.696 163.708 309.686 161.085C305.675 158.461 303.119 155.204 302.348 151.734C301.576 148.264 302.624 144.74 305.356 141.617C308.088 138.494 312.379 135.915 317.675 134.214C322.971 132.513 329.029 131.767 335.066 132.073C341.103 132.38 346.843 133.724 351.544 135.932C356.245 138.14 359.691 141.111 361.438 144.461" stroke="#FAFAFA" stroke-width="0.430423"/>
<rect y="-0.249986" width="287.161" height="94.7626" rx="18.1843" transform="matrix(0.866042 0.499971 -0.866042 0.499971 94.4661 70.0313)" fill="black"/>
<rect y="-0.249986" width="287.161" height="94.7626" rx="18.1843" transform="matrix(0.866042 0.499971 -0.866042 0.499971 94.4661 70.0313)" stroke="#FAFAFA" stroke-width="0.5"/>
<line y1="-0.25" x2="9.89972" y2="-0.25" transform="matrix(0.866042 -0.499971 0.866042 0.499971 35.7363 121.773)" stroke="#FAFAFA" stroke-width="0.5"/>
<line y1="-0.25" x2="20.2299" y2="-0.25" transform="matrix(0.866042 -0.499971 0.866042 0.499971 51.293 130.758)" stroke="#FAFAFA" stroke-width="0.5"/>
<line y1="-0.25" x2="20.2299" y2="-0.25" transform="matrix(0.866042 -0.499971 0.866042 0.499971 66.8496 139.734)" stroke="#FAFAFA" stroke-width="0.5"/>
<line y1="-0.25" x2="37.8793" y2="-0.25" transform="matrix(0.856767 -0.505269 0.875219 0.494617 82.5811 148.82)" stroke="#FAFAFA" stroke-width="0.5"/>
<line y1="-0.25" x2="49.929" y2="-0.25" transform="matrix(0.866042 -0.499971 0.866042 0.499971 97.9629 157.695)" stroke="#FAFAFA" stroke-width="0.5"/>
<line y1="-0.25" x2="33.1425" y2="-0.25" transform="matrix(0.866042 -0.499971 0.866042 0.499971 113.52 166.68)" stroke="#FAFAFA" stroke-width="0.5"/>
<line y1="-0.25" x2="63.2721" y2="-0.25" transform="matrix(0.866042 -0.499971 0.866042 0.499971 129.076 175.664)" stroke="#FAFAFA" stroke-width="0.5"/>
<line y1="-0.25" x2="64.133" y2="-0.25" transform="matrix(0.866042 -0.499971 0.866042 0.499971 144.633 184.641)" stroke="#FAFAFA" stroke-width="0.5"/>
<line y1="-0.25" x2="55.5245" y2="-0.25" transform="matrix(0.866042 -0.499971 0.866042 0.499971 160.189 193.625)" stroke="#FAFAFA" stroke-width="0.5"/>
<line y1="-0.25" x2="46.9183" y2="-0.25" transform="matrix(0.85756 -0.504821 0.874443 0.495074 175.944 202.719)" stroke="#FAFAFA" stroke-width="0.5"/>
<line y1="-0.25" x2="20.2299" y2="-0.25" transform="matrix(0.866042 -0.499971 0.866042 0.499971 191.303 211.586)" stroke="#FAFAFA" stroke-width="0.5"/>
<line y1="-0.25" x2="64.133" y2="-0.25" transform="matrix(0.866042 -0.499971 0.866042 0.499971 206.859 220.562)" stroke="#FAFAFA" stroke-width="0.5"/>
<line y1="-0.25" x2="55.5245" y2="-0.25" transform="matrix(0.866042 -0.499971 0.866042 0.499971 222.416 229.547)" stroke="#FAFAFA" stroke-width="0.5"/>
<line y1="-0.25" x2="46.9183" y2="-0.25" transform="matrix(0.85756 -0.504821 0.874443 0.495074 238.171 238.641)" stroke="#FAFAFA" stroke-width="0.5"/>
<line y1="-0.25" x2="20.2299" y2="-0.25" transform="matrix(0.866042 -0.499971 0.866042 0.499971 253.53 247.508)" stroke="#FAFAFA" stroke-width="0.5"/>
</svg>
