<svg width="465" height="335" viewBox="0 0 465 335" fill="none" xmlns="http://www.w3.org/2000/svg">
<g clip-path="url(#clip0_4788_242018)">
<rect width="303.878" height="232.428" rx="25" transform="matrix(0.866042 0.499971 -0.866042 0.499971 201.293 66.0078)" fill="black"/>
<path d="M431.28 205.018L223.668 85.1628C211.31 78.0289 191.275 78.0289 178.918 85.1628L131.036 112.806C118.679 119.939 118.679 131.506 131.036 138.64L338.648 258.495C351.005 265.629 371.04 265.629 383.397 258.495L431.28 230.852C443.637 223.719 443.637 212.152 431.28 205.018Z" fill="black"/>
<path d="M431.28 205.018L223.668 85.1628C211.31 78.0289 191.275 78.0289 178.918 85.1628L131.036 112.806C118.679 119.939 118.679 131.506 131.036 138.64L338.648 258.495C351.005 265.629 371.04 265.629 383.397 258.495L431.28 230.852C443.637 223.719 443.637 212.152 431.28 205.018Z" stroke="#FAFAFA" stroke-width="0.430423"/>
<rect y="-0.215199" width="291.396" height="106.96" rx="25.8356" transform="matrix(0.866042 0.499971 -0.866042 0.499971 103.257 128.846)" fill="black"/>
<rect y="-0.215199" width="291.396" height="106.96" rx="25.8356" transform="matrix(0.866042 0.499971 -0.866042 0.499971 103.257 128.846)" stroke="#FAFAFA" stroke-width="0.430423"/>
<path d="M101.027 206.175L113.552 198.944L115.072 199.822L109.955 206.681C109.824 206.853 109.687 207.022 109.544 207.187C109.424 207.352 109.305 207.518 109.186 207.683C109.007 207.924 108.828 208.151 108.649 208.365C108.482 208.585 108.321 208.795 108.166 208.995C108.428 208.926 108.715 208.85 109.025 208.768C109.335 208.685 109.657 208.602 109.991 208.52C110.337 208.43 110.683 208.341 111.029 208.251C111.386 208.155 111.732 208.065 112.066 207.982L124.108 205.039L125.593 205.896L113.068 213.127L112.031 212.527L120.548 207.611C121.216 207.225 122.122 206.722 123.267 206.102C122.79 206.226 122.331 206.347 121.889 206.464C121.46 206.574 121.043 206.678 120.637 206.774C120.446 206.829 120.255 206.877 120.064 206.919C119.874 206.96 119.689 207.005 119.51 207.053L107.593 209.966L106.448 209.305L111.583 202.353C111.679 202.201 111.792 202.046 111.923 201.888C112.066 201.723 112.21 201.551 112.353 201.372C112.484 201.186 112.621 201.003 112.764 200.824C112.931 200.645 113.074 200.466 113.194 200.287L113.176 200.277C112.985 200.401 112.782 200.525 112.567 200.648C112.377 200.772 112.18 200.9 111.977 201.031C111.476 201.334 111.035 201.595 110.653 201.816L102.064 206.774L101.027 206.175ZM119.199 216.893C118.304 216.377 117.72 215.826 117.446 215.24C117.183 214.648 117.225 214.052 117.571 213.453C117.929 212.861 118.585 212.29 119.539 211.739C120.422 211.229 121.388 210.871 122.438 210.664C123.487 210.458 124.537 210.423 125.587 210.561C126.648 210.706 127.615 211.029 128.485 211.532C129.38 212.049 129.953 212.606 130.203 213.205C130.465 213.798 130.412 214.393 130.042 214.992C129.684 215.598 129.046 216.167 128.127 216.697C127.221 217.22 126.243 217.585 125.193 217.792C124.155 217.991 123.112 218.016 122.062 217.864C121.024 217.719 120.07 217.396 119.199 216.893ZM120.04 216.387C121.078 216.986 122.151 217.261 123.261 217.213C123.893 217.179 124.519 217.065 125.139 216.872C125.784 216.68 126.41 216.408 127.018 216.056C128.33 215.299 128.998 214.555 129.022 213.825C129.058 213.185 128.605 212.593 127.662 212.049C127.149 211.752 126.619 211.535 126.07 211.398C125.533 211.267 124.99 211.208 124.442 211.222C123.809 211.243 123.171 211.35 122.527 211.542C121.907 211.735 121.281 212.014 120.648 212.379C120.028 212.737 119.539 213.102 119.181 213.474C118.847 213.846 118.656 214.211 118.609 214.569C118.549 215.196 119.026 215.802 120.04 216.387ZM129.066 222.59C128.172 222.073 127.587 221.522 127.313 220.937C127.051 220.345 127.092 219.749 127.438 219.15C127.796 218.558 128.452 217.986 129.406 217.435C130.289 216.926 131.255 216.567 132.305 216.361C133.355 216.154 134.404 216.12 135.454 216.258C136.516 216.402 137.482 216.726 138.353 217.229C139.247 217.745 139.82 218.303 140.07 218.902C140.333 219.494 140.279 220.09 139.909 220.689C139.552 221.295 138.913 221.863 137.995 222.393C137.088 222.917 136.11 223.282 135.06 223.488C134.023 223.688 132.979 223.712 131.929 223.561C130.891 223.416 129.937 223.092 129.066 222.59ZM129.907 222.083C130.945 222.683 132.019 222.958 133.128 222.91C133.76 222.875 134.387 222.762 135.007 222.569C135.651 222.376 136.277 222.104 136.886 221.753C138.198 220.995 138.866 220.252 138.889 219.522C138.925 218.881 138.472 218.289 137.53 217.745C137.017 217.449 136.486 217.232 135.937 217.094C135.4 216.963 134.858 216.905 134.309 216.919C133.677 216.939 133.039 217.046 132.394 217.239C131.774 217.432 131.148 217.711 130.516 218.076C129.895 218.434 129.406 218.799 129.049 219.17C128.715 219.542 128.524 219.907 128.476 220.265C128.416 220.892 128.893 221.498 129.907 222.083ZM138.308 227.925C137.186 227.277 136.548 226.599 136.393 225.89C136.262 225.18 136.697 224.543 137.699 223.979L138.773 224.495C138.009 224.922 137.681 225.401 137.789 225.931C137.908 226.468 138.379 226.974 139.202 227.449C139.989 227.904 140.747 228.169 141.475 228.245C142.214 228.327 142.864 228.207 143.425 227.883C143.795 227.67 143.974 227.429 143.962 227.16C143.95 226.892 143.819 226.623 143.568 226.354C143.329 226.093 142.972 225.755 142.494 225.342C142.435 225.28 142.375 225.225 142.316 225.177C142.256 225.129 142.196 225.074 142.137 225.012C141.624 224.55 141.254 224.151 141.027 223.813C140.801 223.476 140.723 223.149 140.795 222.832C140.878 222.522 141.158 222.23 141.636 221.954C142.125 221.672 142.691 221.503 143.335 221.448C143.991 221.386 144.654 221.438 145.321 221.603C146.013 221.768 146.669 222.03 147.29 222.388C148.28 222.959 148.852 223.565 149.007 224.206C149.174 224.839 148.846 225.456 148.023 226.055L146.878 225.58C147.51 225.146 147.791 224.695 147.719 224.227C147.659 223.751 147.236 223.287 146.449 222.832C145.817 222.467 145.16 222.247 144.481 222.171C143.801 222.095 143.222 222.195 142.745 222.471C142.292 222.732 142.125 223.028 142.244 223.359C142.387 223.689 142.769 224.137 143.389 224.702C143.425 224.736 143.467 224.767 143.514 224.795C143.562 224.822 143.598 224.85 143.622 224.877C143.634 224.898 143.652 224.922 143.675 224.95C143.711 224.97 143.741 224.988 143.765 225.001C144.337 225.497 144.761 225.921 145.035 226.272C145.333 226.623 145.453 226.981 145.393 227.346C145.357 227.711 145.053 228.059 144.481 228.389C143.61 228.892 142.62 229.092 141.51 228.988C140.425 228.885 139.357 228.531 138.308 227.925ZM147.208 233.084C146.588 232.726 146.117 232.343 145.795 231.937C145.485 231.538 145.341 231.124 145.365 230.697C145.377 230.236 145.568 229.782 145.938 229.334C146.331 228.886 146.916 228.439 147.691 227.991C148.431 227.564 149.2 227.237 149.999 227.01C150.811 226.789 151.628 226.676 152.451 226.669C153.19 226.669 153.9 226.755 154.58 226.927C155.272 227.106 155.898 227.358 156.459 227.681C157.127 228.067 157.598 228.497 157.872 228.972C158.147 229.448 158.2 229.94 158.033 230.45C157.914 230.849 157.64 231.255 157.21 231.668C156.793 232.075 156.268 232.447 155.636 232.784L148.622 228.735C147.369 229.472 146.725 230.16 146.689 230.801C146.665 231.448 147.137 232.051 148.103 232.608C148.926 233.084 149.773 233.345 150.644 233.393C151.526 233.435 152.391 233.287 153.238 232.949L154.115 233.579C152.982 234.027 151.807 234.21 150.59 234.127C149.397 234.044 148.27 233.696 147.208 233.084ZM149.32 228.353L149.212 228.105L155.654 231.823L155.296 231.782C155.654 231.562 155.964 231.307 156.226 231.018C156.489 230.728 156.673 230.45 156.781 230.181C156.912 229.802 156.864 229.444 156.638 229.107C156.435 228.769 156.083 228.456 155.582 228.167C155.129 227.905 154.64 227.712 154.115 227.588C153.614 227.464 153.107 227.413 152.594 227.433C151.58 227.468 150.566 227.729 149.552 228.218L149.32 228.353ZM157.68 238.881L170.205 231.65L174.678 234.233C175.549 234.735 176.181 235.218 176.575 235.679C176.98 236.147 177.117 236.626 176.986 237.115C176.867 237.597 176.384 238.082 175.537 238.571C174.797 238.998 173.974 239.246 173.068 239.315C172.173 239.377 171.284 239.256 170.402 238.953L170.563 238.778C171.338 239.432 171.696 240.038 171.636 240.596C171.577 241.154 171.099 241.691 170.205 242.207C169.358 242.696 168.499 242.978 167.628 243.054C166.769 243.123 165.899 243.027 165.016 242.765C164.145 242.496 163.197 242.066 162.171 241.474L157.68 238.881ZM163.083 240.968C163.918 241.45 164.646 241.794 165.266 242.001C165.899 242.214 166.531 242.297 167.163 242.248C167.819 242.2 168.481 241.983 169.149 241.598C169.877 241.178 170.258 240.764 170.294 240.358C170.342 239.945 170.163 239.559 169.757 239.201C169.364 238.836 168.791 238.437 168.04 238.003L164.676 236.061L159.63 238.974L163.083 240.968ZM168.773 237.373C169.596 237.848 170.312 238.179 170.92 238.365C171.553 238.551 172.155 238.616 172.728 238.561C173.312 238.499 173.903 238.296 174.499 237.951C175.131 237.586 175.489 237.228 175.573 236.877C175.668 236.519 175.555 236.171 175.233 235.834C174.911 235.496 174.398 235.125 173.694 234.718L170.348 232.787L165.588 235.534L168.773 237.373ZM171.017 246.828C170.146 246.326 169.657 245.782 169.549 245.196C169.454 244.618 169.788 244.108 170.551 243.667C171.088 243.358 171.649 243.172 172.233 243.11C172.83 243.055 173.426 243.089 174.022 243.213C174.619 243.337 175.245 243.526 175.901 243.781L179.981 245.372C180.017 245.351 180.052 245.33 180.088 245.31C180.124 245.289 180.154 245.272 180.178 245.258C180.667 244.976 181.024 244.728 181.251 244.514C181.502 244.301 181.621 244.081 181.609 243.853C181.609 243.633 181.496 243.402 181.269 243.161C181.054 242.927 180.738 242.69 180.321 242.449C179.438 241.939 178.627 241.67 177.887 241.643C177.16 241.608 176.396 241.822 175.597 242.283L174.72 241.612C175.185 241.33 175.692 241.126 176.241 241.002C176.814 240.878 177.374 240.837 177.923 240.878C178.472 240.92 179.02 241.037 179.569 241.23C180.142 241.422 180.69 241.67 181.215 241.973C181.943 242.393 182.444 242.807 182.718 243.213C183.017 243.619 183.07 244.022 182.879 244.421C182.7 244.814 182.271 245.207 181.591 245.599L176.903 248.305C176.641 248.457 176.492 248.577 176.456 248.667C176.444 248.756 176.557 248.87 176.796 249.008C176.999 249.125 177.255 249.238 177.565 249.349L176.724 249.855C176.366 249.717 176.05 249.569 175.776 249.411C175.287 249.128 175.06 248.846 175.096 248.564C175.132 248.281 175.484 247.961 176.152 247.603L176.366 247.603C175.543 247.83 174.667 247.889 173.736 247.779C172.818 247.662 171.911 247.345 171.017 246.828ZM172.054 246.436C173.02 246.994 174.005 247.286 175.007 247.314C176.02 247.348 176.939 247.128 177.762 246.653L179.694 245.537L179.802 246.054L175.203 244.329L175.024 244.267C174.321 244.012 173.706 243.877 173.182 243.864C172.669 243.843 172.168 243.974 171.679 244.256C171.13 244.573 170.897 244.928 170.981 245.32C171.076 245.706 171.434 246.078 172.054 246.436ZM181.508 252.864C180.589 252.334 179.999 251.773 179.736 251.181C179.486 250.595 179.546 250.01 179.915 249.425C180.297 248.832 180.953 248.268 181.884 247.73C182.778 247.214 183.744 246.849 184.782 246.636C185.832 246.429 186.876 246.398 187.913 246.543C188.963 246.68 189.923 247.001 190.794 247.503C191.832 248.102 192.392 248.743 192.476 249.425C192.571 250.099 192.261 250.76 191.546 251.408L190.347 250.943C190.919 250.42 191.194 249.917 191.17 249.435C191.146 248.953 190.722 248.474 189.899 247.999C189.339 247.675 188.76 247.452 188.164 247.328C187.591 247.204 187.007 247.169 186.41 247.224C185.862 247.266 185.295 247.386 184.711 247.586C184.138 247.792 183.571 248.058 183.011 248.381C181.818 249.07 181.138 249.745 180.971 250.406C180.804 251.067 181.275 251.718 182.385 252.358C183.184 252.82 183.989 253.085 184.8 253.153C185.611 253.222 186.482 253.085 187.412 252.74L188.289 253.37C187.573 253.646 186.822 253.811 186.035 253.866C185.259 253.928 184.478 253.877 183.691 253.711C182.915 253.539 182.188 253.257 181.508 252.864ZM187.222 255.936L199.747 248.705L200.784 249.304L188.259 256.535L187.222 255.936ZM191.498 254.541L192.697 253.87L201.751 254.056L203.128 254.851L196.061 254.655H195.345L191.498 254.541ZM193.216 259.396L194.987 254.552L196.401 254.562L194.415 260.088L193.216 259.396ZM198.672 262.794C198.052 262.436 197.58 262.054 197.258 261.647C196.948 261.248 196.805 260.835 196.829 260.408C196.841 259.946 197.032 259.492 197.401 259.044C197.795 258.597 198.38 258.149 199.155 257.701C199.895 257.274 200.664 256.947 201.463 256.72C202.274 256.5 203.091 256.386 203.914 256.379C204.654 256.379 205.364 256.465 206.044 256.637C206.736 256.817 207.362 257.068 207.922 257.392C208.59 257.777 209.062 258.208 209.336 258.683C209.61 259.158 209.664 259.65 209.497 260.16C209.378 260.559 209.103 260.966 208.674 261.379C208.256 261.785 207.732 262.157 207.099 262.494L200.085 258.445C198.833 259.182 198.189 259.871 198.153 260.511C198.129 261.158 198.6 261.761 199.567 262.319C200.39 262.794 201.236 263.056 202.107 263.104C202.99 263.145 203.855 262.997 204.702 262.66L205.578 263.29C204.445 263.737 203.27 263.92 202.054 263.837C200.861 263.755 199.734 263.407 198.672 262.794ZM200.783 258.063L200.676 257.815L207.117 261.534L206.759 261.492C207.117 261.272 207.427 261.017 207.69 260.728C207.952 260.439 208.137 260.16 208.244 259.891C208.376 259.513 208.328 259.154 208.101 258.817C207.899 258.48 207.547 258.166 207.046 257.877C206.592 257.615 206.103 257.423 205.578 257.299C205.077 257.175 204.57 257.123 204.058 257.144C203.044 257.178 202.03 257.44 201.016 257.929L200.783 258.063ZM204.685 266.017L213.578 260.884L214.615 261.483L212.432 262.743L212.522 262.567C213.393 262.271 214.281 262.164 215.188 262.247C216.094 262.33 216.965 262.612 217.8 263.094C218.349 263.411 218.749 263.738 218.999 264.075C219.273 264.413 219.411 264.754 219.411 265.098C219.399 265.463 219.208 265.807 218.838 266.131C218.48 266.448 217.997 266.782 217.389 267.133L212.003 270.242L210.929 269.622L216.136 266.616C216.148 266.61 216.16 266.603 216.172 266.596C216.184 266.589 216.196 266.582 216.208 266.575C216.745 266.265 217.156 265.993 217.442 265.759C217.729 265.525 217.884 265.263 217.908 264.974C217.943 264.692 217.848 264.43 217.621 264.189C217.395 263.948 217.067 263.704 216.637 263.456C215.957 263.063 215.098 262.836 214.061 262.774C213.047 262.712 211.926 263.036 210.697 263.745L205.723 266.616L204.685 266.017ZM217.636 273.721C216.86 273.274 216.342 272.767 216.079 272.203C215.829 271.645 215.87 271.063 216.204 270.457C216.538 269.851 217.2 269.262 218.19 268.691C219.157 268.133 220.177 267.758 221.25 267.565C222.324 267.372 223.349 267.351 224.328 267.503C225.318 267.647 226.182 267.933 226.922 268.36C227.721 268.822 228.216 269.314 228.407 269.837C228.61 270.368 228.538 270.891 228.192 271.407L227.817 271.438L233.471 268.174L234.526 268.784L222.002 276.014L220.946 275.405L223.129 274.145L223.111 274.341C222.145 274.582 221.184 274.654 220.23 274.558C219.288 274.455 218.423 274.176 217.636 273.721ZM218.62 273.298C219.073 273.559 219.538 273.752 220.015 273.876C220.505 274.007 221.006 274.069 221.518 274.062C222.151 274.055 222.795 273.945 223.451 273.731C224.119 273.525 224.799 273.222 225.491 272.822C226.707 272.12 227.381 271.442 227.513 270.788C227.656 270.14 227.226 269.527 226.224 268.949C225.747 268.673 225.24 268.47 224.703 268.339C224.178 268.216 223.636 268.164 223.075 268.185C222.455 268.212 221.829 268.326 221.196 268.525C220.564 268.725 219.944 269.001 219.336 269.352C218.524 269.82 217.952 270.281 217.618 270.736C217.296 271.197 217.212 271.645 217.367 272.079C217.546 272.513 217.964 272.919 218.62 273.298Z" fill="#FAFAFA"/>
</g>
<rect width="303.878" height="232.428" rx="25.6204" transform="matrix(0.866042 0.499971 -0.866042 0.499971 201.293 0)" fill="black"/>
<rect y="-0.249986" width="287.161" height="18.5777" rx="9.28887" transform="matrix(0.866042 0.499971 -0.866042 0.499971 202.94 7.40625)" fill="black"/>
<rect y="-0.249986" width="287.161" height="18.5777" rx="9.28887" transform="matrix(0.866042 0.499971 -0.866042 0.499971 202.94 7.40625)" stroke="#FAFAFA" stroke-width="0.5"/>
<rect y="-0.249986" width="140.603" height="94.7626" rx="18.1843" transform="matrix(0.866042 0.499971 -0.866042 0.499971 181.692 19.6719)" fill="black"/>
<rect y="-0.249986" width="140.603" height="94.7626" rx="18.1843" transform="matrix(0.866042 0.499971 -0.866042 0.499971 181.692 19.6719)" stroke="#FAFAFA" stroke-width="0.5"/>
<path d="M143.322 50.6805L142.912 51.9948C142.503 53.3092 141.684 55.9379 142.523 57.6088C143.363 59.2798 145.862 59.9929 149.557 60.0155C153.252 60.038 158.144 59.37 160.305 60.2779C162.467 61.1858 161.898 63.6697 162.271 65.61C162.645 67.5503 163.959 68.9471 166.055 69.8928C168.152 70.8384 171.029 71.3328 174.745 71.3434C178.461 71.354 183.015 70.8807 187.104 70.6757C191.193 70.4708 194.818 70.5343 195.767 72.1421C196.716 73.75 194.99 76.9022 197.074 77.855C199.157 78.8078 205.051 77.5612 207.318 78.4082C209.585 79.2552 208.225 82.1958 208.717 84.0679C209.208 85.9399 211.551 86.7434 214.854 86.992C218.158 87.2406 222.423 86.9341 227.061 86.412C231.7 85.8899 236.712 85.1521 240.567 85.0827C244.421 85.0133 247.118 85.6123 249.46 86.4156C251.803 87.219 253.792 88.2267 254.223 90.1336C254.654 92.0405 253.527 94.8465 255.456 95.889C257.384 96.9315 262.367 96.2105 266.057 96.2361C269.747 96.2617 272.143 97.0341 273.341 97.4203L274.539 97.8065" stroke="#FAFAFA" stroke-width="0.430423"/>
<rect y="-0.215199" width="140.533" height="94.693" rx="18.1495" transform="matrix(0.866042 0.499971 -0.866042 0.499971 308.648 92.9627)" fill="black"/>
<rect y="-0.215199" width="140.533" height="94.693" rx="18.1495" transform="matrix(0.866042 0.499971 -0.866042 0.499971 308.648 92.9627)" stroke="#FAFAFA" stroke-width="0.430423"/>
<path d="M342.607 165.986C336.899 167.162 330.712 167.324 324.844 166.451C318.975 165.577 313.695 163.708 309.685 161.085C305.674 158.461 303.119 155.204 302.347 151.734C301.575 148.264 302.623 144.74 305.355 141.617C308.087 138.494 312.378 135.915 317.674 134.214C322.97 132.513 329.028 131.767 335.065 132.073C341.102 132.38 346.842 133.724 351.543 135.932C356.244 138.14 359.69 141.111 361.437 144.461" stroke="#FAFAFA" stroke-width="0.430423"/>
<rect y="-0.249986" width="287.161" height="94.7626" rx="18.1843" transform="matrix(0.866042 0.499971 -0.866042 0.499971 94.4651 70.0313)" fill="black"/>
<rect y="-0.249986" width="287.161" height="94.7626" rx="18.1843" transform="matrix(0.866042 0.499971 -0.866042 0.499971 94.4651 70.0313)" stroke="#FAFAFA" stroke-width="0.5"/>
<line y1="-0.25" x2="9.89972" y2="-0.25" transform="matrix(0.866042 -0.499971 0.866042 0.499971 35.7344 121.773)" stroke="#FAFAFA" stroke-width="0.5"/>
<line y1="-0.25" x2="20.2299" y2="-0.25" transform="matrix(0.866042 -0.499971 0.866042 0.499971 51.291 130.758)" stroke="#FAFAFA" stroke-width="0.5"/>
<line y1="-0.25" x2="20.2299" y2="-0.25" transform="matrix(0.866042 -0.499971 0.866042 0.499971 66.8477 139.734)" stroke="#FAFAFA" stroke-width="0.5"/>
<line y1="-0.25" x2="37.8793" y2="-0.25" transform="matrix(0.856767 -0.505269 0.875219 0.494617 82.5801 148.82)" stroke="#FAFAFA" stroke-width="0.5"/>
<line y1="-0.25" x2="49.929" y2="-0.25" transform="matrix(0.866042 -0.499971 0.866042 0.499971 97.9629 157.695)" stroke="#FAFAFA" stroke-width="0.5"/>
<line y1="-0.25" x2="33.1425" y2="-0.25" transform="matrix(0.866042 -0.499971 0.866042 0.499971 113.52 166.68)" stroke="#FAFAFA" stroke-width="0.5"/>
<line y1="-0.25" x2="63.2721" y2="-0.25" transform="matrix(0.866042 -0.499971 0.866042 0.499971 129.076 175.664)" stroke="#FAFAFA" stroke-width="0.5"/>
<line y1="-0.25" x2="64.133" y2="-0.25" transform="matrix(0.866042 -0.499971 0.866042 0.499971 144.633 184.641)" stroke="#FAFAFA" stroke-width="0.5"/>
<line y1="-0.25" x2="55.5245" y2="-0.25" transform="matrix(0.866042 -0.499971 0.866042 0.499971 160.189 193.625)" stroke="#FAFAFA" stroke-width="0.5"/>
<line y1="-0.25" x2="46.9183" y2="-0.25" transform="matrix(0.85756 -0.504821 0.874443 0.495074 175.943 202.719)" stroke="#FAFAFA" stroke-width="0.5"/>
<line y1="-0.25" x2="20.2299" y2="-0.25" transform="matrix(0.866042 -0.499971 0.866042 0.499971 191.303 211.586)" stroke="#FAFAFA" stroke-width="0.5"/>
<line y1="-0.25" x2="64.133" y2="-0.25" transform="matrix(0.866042 -0.499971 0.866042 0.499971 206.859 220.562)" stroke="#FAFAFA" stroke-width="0.5"/>
<line y1="-0.25" x2="55.5245" y2="-0.25" transform="matrix(0.866042 -0.499971 0.866042 0.499971 222.416 229.547)" stroke="#FAFAFA" stroke-width="0.5"/>
<line y1="-0.25" x2="46.9183" y2="-0.25" transform="matrix(0.85756 -0.504821 0.874443 0.495074 238.17 238.641)" stroke="#FAFAFA" stroke-width="0.5"/>
<line y1="-0.25" x2="20.2299" y2="-0.25" transform="matrix(0.866042 -0.499971 0.866042 0.499971 253.529 247.508)" stroke="#FAFAFA" stroke-width="0.5"/>
<defs>
<clipPath id="clip0_4788_242018">
<rect width="303.878" height="232.428" rx="25" transform="matrix(0.866042 0.499971 -0.866042 0.499971 201.293 66.0078)" fill="white"/>
</clipPath>
</defs>
</svg>
