<svg width="1080" height="733" viewBox="0 0 1080 733" fill="none" xmlns="http://www.w3.org/2000/svg">
<rect width="706" height="540" rx="40" transform="matrix(0.866044 0.499967 -0.866044 0.499967 467.838 110)" fill="white"/>
<rect y="-0.499967" width="677" height="248.5" rx="30.5" transform="matrix(0.866044 0.499967 -0.866044 0.499967 467.405 124.75)" fill="white"/>
<rect y="-0.499967" width="677" height="248.5" rx="30.5" transform="matrix(0.866044 0.499967 -0.866044 0.499967 467.405 124.75)" stroke="#0A0A0A"/>
<path d="M447.33 251.905L473.145 237.002L463.46 231.411L466.744 229.515L489.898 242.882L486.614 244.778L476.928 239.186L451.113 254.089L447.33 251.905ZM459.449 258.901L480.234 246.902L483.975 249.062L478.488 252.23L479.278 251.63C480.026 251.166 481.037 250.886 482.312 250.79C483.642 250.694 485.056 250.79 486.552 251.078C488.104 251.366 489.545 251.846 490.876 252.518C491.042 252.582 491.222 252.67 491.416 252.782C491.638 252.91 491.846 253.03 492.04 253.142C492.095 253.174 492.137 253.198 492.164 253.214C492.22 253.246 492.275 253.278 492.331 253.31L488.714 255.302C488.575 255.19 488.271 254.998 487.799 254.726C486.331 253.878 484.903 253.294 483.518 252.974C482.132 252.654 480.566 252.662 478.82 252.998C477.102 253.35 475.176 254.142 473.042 255.374L463.19 261.061L459.449 258.901ZM478.4 270.418C476.488 269.314 475.352 268.066 474.991 266.674C474.686 265.282 475.49 264.034 477.402 262.93C478.788 262.131 480.243 261.675 481.767 261.563C483.347 261.451 484.843 261.563 486.257 261.899C487.726 262.235 489.25 262.714 490.83 263.338L499.019 266.53C499.074 266.498 499.13 266.466 499.185 266.434C499.268 266.386 499.338 266.346 499.393 266.314C500.252 265.818 500.876 265.394 501.264 265.042C501.707 264.69 501.984 264.322 502.095 263.938C502.206 263.522 502.053 263.05 501.638 262.522C501.222 261.995 500.571 261.475 499.684 260.963C497.883 259.923 496.22 259.379 494.696 259.331C493.227 259.283 491.703 259.715 490.123 260.627L486.964 258.227C488.238 257.523 489.541 257.043 490.871 256.787C492.229 256.515 493.587 256.451 494.945 256.595C496.192 256.739 497.481 257.051 498.811 257.531C500.169 257.995 501.513 258.611 502.843 259.379C504.589 260.387 505.781 261.379 506.418 262.354C507.083 263.314 507.194 264.258 506.751 265.186C506.335 266.13 505.379 267.034 503.883 267.898L493.947 273.634C493.338 273.986 492.977 274.258 492.866 274.45C492.783 274.658 493.019 274.922 493.573 275.242C493.906 275.434 494.363 275.634 494.945 275.842L491.952 277.665C491.148 277.33 490.317 276.914 489.458 276.418C488.238 275.714 487.629 274.994 487.629 274.258C487.629 273.522 488.252 272.794 489.499 272.074L490.539 272.002C488.515 272.626 486.479 272.81 484.428 272.554C482.432 272.298 480.423 271.586 478.4 270.418ZM481.975 269.026C484.137 270.274 486.215 270.914 488.211 270.946C490.261 270.978 492.09 270.53 493.698 269.602L498.021 267.106L498.354 268.93L488.585 265.306L488.211 265.186C486.742 264.658 485.467 264.37 484.386 264.322C483.333 264.258 482.294 264.522 481.268 265.114C480.326 265.658 479.938 266.298 480.104 267.034C480.298 267.754 480.922 268.418 481.975 269.026ZM494.947 279.394L515.732 267.395L519.473 269.555L514.485 272.435L514.734 271.811C516.757 271.155 518.725 270.915 520.637 271.091C522.605 271.267 524.517 271.891 526.374 272.963C527.732 273.747 528.715 274.539 529.325 275.339C529.99 276.139 530.295 276.986 530.24 277.882C530.184 278.714 529.713 279.498 528.826 280.234C527.967 280.954 526.775 281.754 525.251 282.634L512.905 289.762L509.039 287.53L521.177 280.522C521.205 280.506 521.233 280.49 521.26 280.474C521.288 280.458 521.316 280.442 521.344 280.426C522.535 279.738 523.408 279.154 523.963 278.674C524.517 278.194 524.78 277.642 524.752 277.018C524.752 276.411 524.531 275.899 524.087 275.483C523.644 275.067 523.034 274.635 522.258 274.187C520.9 273.403 519.182 272.955 517.103 272.843C515.08 272.731 512.766 273.427 510.161 274.931L498.688 281.554L494.947 279.394ZM524.652 297.119C522.13 295.664 520.634 294.096 520.163 292.416C519.692 290.736 520.689 289.2 523.156 287.808L526.897 289.584C525.428 290.4 524.749 291.336 524.86 292.392C524.999 293.432 525.886 294.424 527.521 295.368C529.211 296.343 530.763 296.919 532.177 297.095C533.618 297.255 534.892 297.015 536.001 296.375C536.583 296.039 536.832 295.624 536.749 295.128C536.694 294.648 536.417 294.152 535.918 293.64C535.474 293.128 534.837 292.488 534.006 291.72C533.784 291.528 533.562 291.336 533.341 291.144C533.147 290.936 532.939 290.736 532.717 290.544C531.636 289.504 530.832 288.608 530.306 287.856C529.835 287.104 529.682 286.328 529.849 285.528C530.015 284.728 530.735 283.96 532.01 283.224C533.368 282.44 534.865 281.992 536.5 281.88C538.163 281.784 539.784 281.952 541.364 282.384C542.999 282.816 544.467 283.408 545.77 284.16C548.181 285.552 549.636 287.016 550.135 288.552C550.634 290.088 549.802 291.608 547.641 293.112L543.608 291.408C545.022 290.56 545.645 289.656 545.479 288.696C545.313 287.736 544.412 286.784 542.777 285.84C541.668 285.2 540.435 284.792 539.077 284.616C537.747 284.424 536.638 284.584 535.752 285.096C534.948 285.56 534.74 286.128 535.128 286.8C535.516 287.472 536.278 288.344 537.414 289.416C537.442 289.464 537.498 289.512 537.581 289.56C537.664 289.608 537.719 289.656 537.747 289.704C537.802 289.768 537.844 289.824 537.872 289.872C537.955 289.92 538.038 289.968 538.121 290.016C539.534 291.248 540.574 292.28 541.239 293.112C541.932 293.928 542.223 294.784 542.112 295.68C542.001 296.575 541.211 297.447 539.742 298.295C537.414 299.639 534.92 300.135 532.26 299.783C529.627 299.415 527.091 298.527 524.652 297.119ZM542.831 307.614C540.919 306.51 539.783 305.262 539.422 303.87C539.118 302.478 539.921 301.23 541.833 300.127C543.219 299.327 544.674 298.871 546.198 298.759C547.778 298.647 549.275 298.759 550.688 299.095C552.157 299.431 553.681 299.911 555.261 300.535L563.45 303.726C563.505 303.694 563.561 303.662 563.616 303.63C563.699 303.582 563.769 303.542 563.824 303.51C564.683 303.014 565.307 302.59 565.695 302.238C566.138 301.886 566.415 301.518 566.526 301.134C566.637 300.718 566.485 300.247 566.069 299.719C565.653 299.191 565.002 298.671 564.115 298.159C562.314 297.119 560.651 296.575 559.127 296.527C557.658 296.479 556.134 296.911 554.554 297.823L551.395 295.423C552.669 294.719 553.972 294.239 555.302 293.983C556.66 293.711 558.018 293.647 559.376 293.791C560.623 293.935 561.912 294.247 563.242 294.727C564.6 295.191 565.944 295.807 567.274 296.575C569.02 297.583 570.212 298.575 570.849 299.551C571.515 300.511 571.625 301.454 571.182 302.382C570.766 303.326 569.81 304.23 568.314 305.094L558.378 310.83C557.769 311.182 557.408 311.454 557.298 311.646C557.214 311.854 557.45 312.118 558.004 312.438C558.337 312.63 558.794 312.83 559.376 313.038L556.383 314.862C555.579 314.526 554.748 314.11 553.889 313.614C552.669 312.91 552.06 312.19 552.06 311.454C552.06 310.718 552.683 309.99 553.93 309.27L554.97 309.198C552.947 309.822 550.91 310.006 548.859 309.75C546.863 309.494 544.854 308.782 542.831 307.614ZM546.406 306.222C548.568 307.47 550.646 308.11 552.642 308.142C554.693 308.174 556.522 307.726 558.129 306.798L562.452 304.302L562.785 306.126L553.016 302.502L552.642 302.382C551.173 301.854 549.898 301.566 548.817 301.518C547.764 301.454 546.725 301.718 545.7 302.31C544.757 302.854 544.369 303.494 544.536 304.23C544.73 304.95 545.353 305.614 546.406 306.222ZM567.941 322.11C565.835 320.894 564.435 319.59 563.743 318.198C563.077 316.79 563.147 315.374 563.95 313.951C564.754 312.527 566.278 311.167 568.523 309.871C570.657 308.639 572.957 307.791 575.424 307.327C577.918 306.847 580.398 306.791 582.865 307.159C585.359 307.543 587.645 308.335 589.724 309.535C592.246 310.991 593.618 312.551 593.839 314.215C594.089 315.862 593.382 317.422 591.719 318.894L587.562 317.262C588.615 316.206 589.156 315.19 589.183 314.215C589.239 313.223 588.421 312.239 586.731 311.263C585.567 310.591 584.431 310.127 583.322 309.871C582.214 309.615 581.091 309.527 579.955 309.607C578.791 309.703 577.599 309.975 576.38 310.423C575.188 310.887 573.941 311.495 572.639 312.247C570.061 313.735 568.537 315.126 568.066 316.422C567.622 317.702 568.579 319.022 570.934 320.382C572.542 321.31 574.121 321.838 575.673 321.966C577.225 322.094 578.943 321.838 580.828 321.198L583.987 323.454C582.352 324.11 580.578 324.494 578.666 324.606C576.809 324.718 574.953 324.558 573.096 324.126C571.267 323.71 569.549 323.038 567.941 322.11ZM587.49 333.059C585.55 331.939 584.524 330.899 584.413 329.94C584.302 328.98 585.092 328.012 586.783 327.036L599.794 319.524L596.801 317.796L599.919 315.996L602.912 317.724L608.69 314.389L612.39 316.524L606.612 319.86L610.852 322.308L607.734 324.108L603.494 321.66L590.607 329.1C589.942 329.484 589.651 329.828 589.734 330.132C589.873 330.435 590.344 330.819 591.148 331.283C591.674 331.587 592.381 331.915 593.268 332.267L589.984 334.259C589.097 333.907 588.265 333.507 587.49 333.059ZM617.904 321.867L622.31 319.324L626.052 321.483L621.645 324.027L617.904 321.867ZM593.211 336.122L613.996 324.123L617.738 326.283L596.953 338.282L593.211 336.122ZM593.211 336.122L596.371 334.299L600.112 336.458L596.953 338.282L593.211 336.122ZM610.837 325.947L613.996 324.123L617.738 326.283L614.578 328.107L610.837 325.947ZM610.574 346.722C608.44 345.49 607.013 344.17 606.293 342.762C605.627 341.354 605.697 339.939 606.5 338.515C607.304 337.091 608.828 335.731 611.073 334.435C613.179 333.219 615.466 332.379 617.932 331.915C620.454 331.451 622.948 331.403 625.415 331.771C627.937 332.139 630.251 332.931 632.357 334.147C634.435 335.347 635.78 336.667 636.389 338.107C637.054 339.547 636.971 340.986 636.14 342.426C635.336 343.882 633.895 345.21 631.817 346.41C629.655 347.658 627.313 348.514 624.791 348.978C622.297 349.426 619.803 349.458 617.309 349.074C614.87 348.69 612.625 347.906 610.574 346.722ZM613.526 345.018C615.577 346.202 617.697 346.754 619.886 346.674C621.133 346.626 622.408 346.386 623.71 345.954C625.041 345.506 626.399 344.882 627.784 344.082C630.666 342.418 632.163 340.882 632.274 339.475C632.357 338.211 631.401 337.003 629.406 335.851C628.38 335.259 627.355 334.827 626.329 334.555C625.332 334.267 624.32 334.131 623.295 334.147C621.992 334.163 620.648 334.395 619.262 334.843C617.932 335.291 616.546 335.931 615.105 336.763C613.664 337.595 612.542 338.403 611.738 339.187C610.99 339.971 610.602 340.739 610.574 341.49C610.519 342.674 611.503 343.85 613.526 345.018ZM625.177 354.577L645.962 342.577L649.704 344.737L644.715 347.617L644.965 346.993C646.988 346.337 648.955 346.097 650.868 346.273C652.835 346.449 654.748 347.073 656.604 348.145C657.962 348.929 658.946 349.721 659.556 350.521C660.221 351.321 660.526 352.169 660.47 353.065C660.415 353.897 659.944 354.681 659.057 355.416C658.198 356.136 657.006 356.936 655.482 357.816L643.136 364.944L639.27 362.712L651.408 355.704C651.436 355.688 651.464 355.672 651.491 355.656C651.519 355.64 651.547 355.624 651.574 355.608C652.766 354.921 653.639 354.337 654.193 353.857C654.748 353.377 655.011 352.825 654.983 352.201C654.983 351.593 654.761 351.081 654.318 350.665C653.875 350.249 653.265 349.817 652.489 349.369C651.131 348.585 649.413 348.137 647.334 348.025C645.311 347.913 642.997 348.609 640.392 350.113L628.919 356.736L625.177 354.577ZM653.303 371.39C651.391 370.286 650.255 369.038 649.895 367.646C649.59 366.254 650.394 365.006 652.306 363.902C653.691 363.102 655.146 362.646 656.671 362.534C658.25 362.422 659.747 362.534 661.16 362.87C662.629 363.206 664.153 363.686 665.733 364.31L673.922 367.502C673.978 367.47 674.033 367.438 674.089 367.406C674.172 367.358 674.241 367.318 674.296 367.286C675.156 366.79 675.779 366.366 676.167 366.014C676.61 365.662 676.888 365.294 676.998 364.91C677.109 364.494 676.957 364.022 676.541 363.494C676.125 362.966 675.474 362.446 674.587 361.934C672.786 360.894 671.123 360.35 669.599 360.302C668.13 360.254 666.606 360.686 665.026 361.598L661.867 359.198C663.142 358.495 664.444 358.015 665.775 357.759C667.132 357.487 668.49 357.423 669.848 357.567C671.095 357.711 672.384 358.023 673.714 358.503C675.072 358.967 676.416 359.582 677.747 360.35C679.493 361.358 680.684 362.35 681.322 363.326C681.987 364.286 682.098 365.23 681.654 366.158C681.239 367.102 680.282 368.006 678.786 368.87L668.851 374.605C668.241 374.957 667.881 375.229 667.77 375.421C667.687 375.629 667.922 375.893 668.477 376.213C668.809 376.405 669.266 376.605 669.848 376.813L666.855 378.637C666.052 378.301 665.22 377.885 664.361 377.389C663.142 376.685 662.532 375.965 662.532 375.229C662.532 374.494 663.156 373.766 664.403 373.046L665.442 372.974C663.419 373.598 661.382 373.782 659.331 373.526C657.336 373.27 655.327 372.558 653.303 371.39ZM656.879 369.998C659.04 371.246 661.119 371.886 663.114 371.918C665.165 371.95 666.994 371.502 668.601 370.574L672.925 368.078L673.257 369.902L663.488 366.278L663.114 366.158C661.645 365.63 660.37 365.342 659.29 365.294C658.236 365.23 657.197 365.494 656.172 366.086C655.23 366.63 654.842 367.27 655.008 368.006C655.202 368.726 655.825 369.39 656.879 369.998ZM669.85 380.366L698.949 363.567L702.69 365.727L673.591 382.526L669.85 380.366ZM669.85 380.366L673.009 378.542L676.751 380.702L673.591 382.526L669.85 380.366ZM695.79 365.391L698.949 363.567L700.944 364.719L697.785 366.543L695.79 365.391ZM688.071 390.885L717.17 374.086L727.313 379.942C729.419 381.157 731.054 382.309 732.218 383.397C733.438 384.485 733.978 385.661 733.839 386.925C733.729 388.205 732.523 389.509 730.223 390.837C728.615 391.765 726.786 392.325 724.736 392.517C722.712 392.693 720.717 392.517 718.749 391.989L719.373 391.293C720.953 392.845 721.659 394.229 721.493 395.445C721.355 396.676 720.274 397.876 718.251 399.044C715.895 400.404 713.581 401.1 711.308 401.132C709.036 401.164 706.916 400.804 704.948 400.052C702.981 399.3 700.833 398.252 698.505 396.908L688.071 390.885ZM701.706 395.061C703.535 396.117 705.045 396.908 706.237 397.436C707.456 397.948 708.773 398.212 710.186 398.228C711.627 398.228 713.096 397.796 714.592 396.932C716.2 396.005 716.976 395.093 716.92 394.197C716.865 393.301 716.394 392.501 715.507 391.797C714.648 391.077 713.456 390.277 711.932 389.397L705.031 385.413L695.013 391.197L701.706 395.061ZM714.343 387.045C715.95 387.973 717.336 388.677 718.5 389.157C719.692 389.653 720.967 389.909 722.324 389.925C723.71 389.957 725.124 389.557 726.565 388.725C728.033 387.877 728.74 387.053 728.685 386.253C728.685 385.453 728.255 384.709 727.396 384.021C726.565 383.349 725.359 382.557 723.779 381.645L717.669 378.118L708.274 383.541L714.343 387.045ZM719.671 409.704C717.759 408.6 716.623 407.352 716.263 405.96C715.958 404.568 716.762 403.32 718.674 402.216C720.059 401.416 721.514 400.961 723.039 400.849C724.618 400.737 726.115 400.849 727.528 401.185C728.997 401.52 730.521 402 732.101 402.624L740.29 405.816C740.346 405.784 740.401 405.752 740.457 405.72C740.54 405.672 740.609 405.632 740.664 405.6C741.524 405.104 742.147 404.68 742.535 404.328C742.978 403.976 743.256 403.608 743.366 403.224C743.477 402.808 743.325 402.336 742.909 401.808C742.493 401.28 741.842 400.761 740.955 400.249C739.154 399.209 737.491 398.665 735.967 398.617C734.498 398.569 732.974 399.001 731.394 399.913L728.235 397.513C729.51 396.809 730.812 396.329 732.143 396.073C733.5 395.801 734.858 395.737 736.216 395.881C737.463 396.025 738.752 396.337 740.082 396.817C741.44 397.281 742.784 397.897 744.115 398.665C745.861 399.673 747.052 400.665 747.69 401.64C748.355 402.6 748.466 403.544 748.022 404.472C747.607 405.416 746.65 406.32 745.154 407.184L735.219 412.92C734.609 413.272 734.249 413.544 734.138 413.736C734.055 413.944 734.29 414.208 734.845 414.528C735.177 414.72 735.634 414.92 736.216 415.128L733.223 416.951C732.42 416.615 731.588 416.2 730.729 415.704C729.51 415 728.9 414.28 728.9 413.544C728.9 412.808 729.524 412.08 730.771 411.36L731.81 411.288C729.787 411.912 727.75 412.096 725.699 411.84C723.704 411.584 721.695 410.872 719.671 409.704ZM723.247 408.312C725.408 409.56 727.487 410.2 729.482 410.232C731.533 410.264 733.362 409.816 734.969 408.888L739.293 406.392L739.625 408.216L729.856 404.592L729.482 404.472C728.013 403.944 726.738 403.656 725.658 403.608C724.604 403.544 723.565 403.808 722.54 404.4C721.598 404.944 721.21 405.584 721.376 406.32C721.57 407.04 722.193 407.704 723.247 408.312ZM744.781 424.2C742.675 422.984 741.276 421.68 740.583 420.288C739.918 418.88 739.987 417.464 740.791 416.04C741.594 414.617 743.119 413.257 745.363 411.961C747.497 410.729 749.798 409.881 752.264 409.417C754.758 408.937 757.239 408.881 759.705 409.249C762.199 409.633 764.486 410.425 766.564 411.625C769.086 413.081 770.458 414.641 770.68 416.304C770.929 417.952 770.222 419.512 768.56 420.984L764.403 419.352C765.456 418.296 765.996 417.28 766.024 416.304C766.079 415.313 765.262 414.329 763.571 413.353C762.407 412.681 761.271 412.217 760.162 411.961C759.054 411.705 757.931 411.617 756.795 411.697C755.631 411.793 754.44 412.065 753.22 412.513C752.029 412.977 750.781 413.585 749.479 414.337C746.902 415.824 745.377 417.216 744.906 418.512C744.463 419.792 745.419 421.112 747.775 422.472C749.382 423.4 750.962 423.928 752.514 424.056C754.065 424.184 755.784 423.928 757.668 423.288L760.828 425.544C759.192 426.2 757.419 426.584 755.507 426.696C753.65 426.808 751.793 426.648 749.936 426.216C748.107 425.8 746.389 425.128 744.781 424.2ZM757.803 431.141L786.902 414.343L790.644 416.502L761.545 433.301L757.803 431.141ZM768.528 428.694L772.81 426.27L791.018 426.318L796.089 429.246L778.796 428.862L776.842 428.838L768.528 428.694ZM771.314 438.941L775.346 428.31L780.417 428.406L775.678 441.461L771.314 438.941ZM785.307 447.596C783.7 446.668 782.522 445.7 781.774 444.692C781.026 443.684 780.721 442.628 780.859 441.524C780.97 440.468 781.469 439.444 782.356 438.452C783.27 437.444 784.559 436.46 786.222 435.5C787.774 434.604 789.423 433.908 791.169 433.413C792.942 432.901 794.744 432.613 796.573 432.549C798.513 432.485 800.37 432.661 802.143 433.077C803.917 433.493 805.552 434.132 807.049 434.996C808.739 435.972 809.945 437.084 810.665 438.332C811.413 439.564 811.538 440.804 811.039 442.052C810.679 442.996 809.945 443.964 808.836 444.956C807.755 445.932 806.439 446.82 804.887 447.62L789.132 438.524C786.887 439.884 785.695 441.164 785.557 442.364C785.418 443.564 786.319 444.724 788.259 445.844C790.033 446.868 791.779 447.444 793.497 447.572C795.243 447.684 797.03 447.356 798.859 446.588L802.185 448.844C799.33 449.979 796.462 450.435 793.58 450.211C790.725 450.003 787.968 449.131 785.307 447.596ZM792.083 436.868L791.668 436.484L804.347 443.804L803.972 443.732C804.554 443.396 805.095 442.956 805.594 442.412C806.148 441.868 806.508 441.356 806.674 440.876C806.924 440.124 806.827 439.412 806.383 438.74C805.968 438.084 805.192 437.428 804.056 436.772C802.919 436.116 801.714 435.66 800.439 435.404C799.192 435.132 798.014 435.076 796.905 435.236C795.298 435.46 793.788 435.948 792.374 436.7L792.083 436.868ZM799.35 455.126L820.135 443.127L823.876 445.287L818.888 448.167L819.137 447.543C821.16 446.887 823.128 446.647 825.04 446.823C827.008 446.999 828.92 447.623 830.777 448.695C832.135 449.479 833.119 450.271 833.729 451.071C834.394 451.871 834.698 452.719 834.643 453.615C834.588 454.446 834.117 455.23 833.23 455.966C832.371 456.686 831.179 457.486 829.655 458.366L817.308 465.494L813.442 463.262L825.581 456.254C825.608 456.238 825.636 456.222 825.664 456.206C825.692 456.19 825.719 456.174 825.747 456.158C826.939 455.47 827.812 454.886 828.366 454.406C828.92 453.926 829.184 453.375 829.156 452.751C829.156 452.143 828.934 451.631 828.491 451.215C828.047 450.799 827.438 450.367 826.662 449.919C825.304 449.135 823.585 448.687 821.507 448.575C819.484 448.463 817.17 449.159 814.565 450.663L803.091 457.286L799.35 455.126ZM829.929 473.355C828.072 472.284 826.853 471.084 826.271 469.756C825.716 468.412 825.841 467.028 826.645 465.604C827.504 464.18 829.042 462.828 831.259 461.548C833.421 460.3 835.707 459.428 838.118 458.932C840.585 458.436 842.968 458.34 845.268 458.644C847.624 458.948 849.73 459.636 851.587 460.708C853.277 461.684 854.386 462.724 854.912 463.828C855.439 464.932 855.356 466.132 854.663 467.428L853.291 467.452L866.095 460.06L869.836 462.22L840.737 479.019L836.996 476.859L841.818 474.075L841.859 474.819C839.559 475.283 837.384 475.387 835.333 475.131C833.338 474.875 831.536 474.283 829.929 473.355ZM833.545 472.036C834.404 472.532 835.291 472.9 836.206 473.139C837.148 473.395 838.118 473.523 839.116 473.523C840.391 473.523 841.735 473.307 843.148 472.876C844.561 472.444 846.003 471.804 847.471 470.956C849.827 469.596 851.324 468.252 851.961 466.924C852.598 465.596 851.767 464.268 849.467 462.94C848.414 462.332 847.361 461.9 846.307 461.644C845.282 461.372 844.229 461.26 843.148 461.308C841.929 461.372 840.668 461.62 839.365 462.052C838.09 462.5 836.76 463.124 835.374 463.924C833.656 464.916 832.395 465.852 831.592 466.732C830.788 467.612 830.511 468.492 830.76 469.372C831.037 470.236 831.966 471.124 833.545 472.036Z" fill="black"/>
<rect y="-0.167989" width="676.336" height="247.836" rx="14.168" transform="matrix(0.866044 0.499967 -0.866044 0.499967 240.355 256.158)" fill="#E5E5E5"/>
<rect y="-0.167989" width="676.336" height="247.836" rx="14.168" transform="matrix(0.866044 0.499967 -0.866044 0.499967 240.355 256.158)" stroke="#F5F5F5" stroke-width="0.336"/>
<path d="M202.122 454.569L231.221 437.77L234.754 439.81L222.865 455.745C222.561 456.145 222.242 456.537 221.909 456.921C221.632 457.305 221.355 457.689 221.078 458.073C220.662 458.633 220.246 459.161 219.831 459.657C219.443 460.169 219.069 460.657 218.708 461.121C219.318 460.961 219.983 460.785 220.704 460.593C221.424 460.401 222.173 460.209 222.949 460.017C223.752 459.809 224.556 459.601 225.36 459.393C226.191 459.169 226.995 458.961 227.771 458.769L255.747 451.929L259.198 453.921L230.099 470.72L227.688 469.328L247.475 457.905C249.027 457.009 251.133 455.841 253.794 454.401C252.685 454.689 251.618 454.969 250.593 455.241C249.595 455.497 248.625 455.737 247.683 455.961C247.239 456.089 246.796 456.201 246.353 456.297C245.909 456.393 245.48 456.497 245.064 456.609L217.378 463.377L214.718 461.841L226.648 445.69C226.87 445.338 227.133 444.978 227.438 444.61C227.771 444.226 228.103 443.826 228.436 443.41C228.741 442.978 229.059 442.554 229.392 442.138C229.78 441.722 230.112 441.306 230.39 440.89L230.348 440.866C229.905 441.154 229.433 441.442 228.935 441.73C228.491 442.018 228.034 442.314 227.563 442.618C226.399 443.322 225.373 443.93 224.487 444.442L204.533 455.961L202.122 454.569ZM244.342 479.471C242.263 478.271 240.905 476.991 240.268 475.631C239.658 474.255 239.755 472.871 240.559 471.479C241.39 470.103 242.915 468.775 245.132 467.496C247.183 466.312 249.427 465.48 251.866 465C254.305 464.52 256.744 464.44 259.182 464.76C261.649 465.096 263.894 465.848 265.917 467.016C267.995 468.215 269.326 469.511 269.908 470.903C270.517 472.279 270.392 473.663 269.533 475.055C268.702 476.463 267.219 477.783 265.085 479.015C262.979 480.231 260.707 481.079 258.268 481.559C255.857 482.023 253.432 482.079 250.993 481.727C248.582 481.391 246.365 480.639 244.342 479.471ZM246.296 478.295C248.707 479.687 251.201 480.327 253.778 480.215C255.247 480.135 256.702 479.871 258.143 479.423C259.64 478.975 261.095 478.343 262.508 477.527C265.556 475.767 267.108 474.039 267.164 472.343C267.247 470.855 266.194 469.479 264.005 468.215C262.813 467.528 261.58 467.024 260.305 466.704C259.058 466.4 257.797 466.264 256.522 466.296C255.053 466.344 253.57 466.592 252.074 467.04C250.633 467.488 249.178 468.135 247.709 468.983C246.268 469.815 245.132 470.663 244.3 471.527C243.524 472.391 243.081 473.239 242.97 474.071C242.831 475.527 243.94 476.935 246.296 478.295ZM267.267 492.705C265.188 491.505 263.83 490.225 263.193 488.866C262.583 487.49 262.68 486.106 263.484 484.714C264.315 483.338 265.84 482.01 268.057 480.73C270.107 479.546 272.352 478.714 274.791 478.234C277.23 477.754 279.669 477.674 282.107 477.994C284.574 478.33 286.819 479.082 288.842 480.25C290.92 481.45 292.25 482.746 292.832 484.138C293.442 485.514 293.317 486.898 292.458 488.29C291.627 489.698 290.144 491.017 288.01 492.249C285.904 493.465 283.632 494.313 281.193 494.793C278.782 495.257 276.357 495.313 273.918 494.961C271.507 494.625 269.29 493.873 267.267 492.705ZM269.221 491.529C271.632 492.921 274.126 493.561 276.703 493.449C278.172 493.369 279.627 493.105 281.068 492.657C282.565 492.209 284.02 491.577 285.433 490.761C288.481 489.002 290.033 487.274 290.089 485.578C290.172 484.09 289.119 482.714 286.929 481.45C285.738 480.762 284.505 480.258 283.23 479.938C281.983 479.634 280.722 479.498 279.447 479.53C277.978 479.578 276.495 479.826 274.999 480.274C273.558 480.722 272.103 481.37 270.634 482.218C269.193 483.05 268.057 483.898 267.225 484.762C266.449 485.626 266.006 486.474 265.895 487.306C265.756 488.762 266.865 490.169 269.221 491.529ZM288.737 505.1C286.132 503.596 284.649 502.02 284.289 500.372C283.984 498.724 284.996 497.244 287.323 495.933L289.818 497.132C288.044 498.124 287.282 499.236 287.531 500.468C287.808 501.716 288.903 502.892 290.815 503.996C292.644 505.052 294.404 505.668 296.095 505.844C297.813 506.036 299.323 505.756 300.626 505.004C301.485 504.508 301.901 503.948 301.873 503.324C301.845 502.7 301.54 502.076 300.958 501.452C300.404 500.844 299.573 500.06 298.464 499.1C298.326 498.956 298.187 498.828 298.049 498.716C297.91 498.604 297.771 498.476 297.633 498.332C296.441 497.26 295.582 496.333 295.055 495.549C294.529 494.765 294.349 494.005 294.515 493.269C294.709 492.549 295.36 491.869 296.469 491.229C297.605 490.573 298.922 490.181 300.418 490.053C301.942 489.909 303.48 490.029 305.032 490.413C306.64 490.797 308.164 491.405 309.605 492.237C311.905 493.565 313.235 494.973 313.596 496.461C313.984 497.932 313.222 499.364 311.309 500.756L308.649 499.652C310.118 498.644 310.769 497.596 310.603 496.509C310.464 495.405 309.48 494.325 307.651 493.269C306.182 492.421 304.658 491.909 303.079 491.733C301.499 491.557 300.155 491.789 299.046 492.429C297.993 493.037 297.605 493.725 297.882 494.493C298.215 495.261 299.102 496.301 300.543 497.612C300.626 497.692 300.723 497.764 300.834 497.828C300.945 497.892 301.028 497.956 301.083 498.02C301.111 498.068 301.152 498.124 301.208 498.188C301.291 498.236 301.36 498.276 301.416 498.308C302.746 499.46 303.73 500.444 304.367 501.26C305.06 502.076 305.337 502.908 305.199 503.756C305.115 504.604 304.409 505.412 303.079 506.18C301.055 507.348 298.755 507.812 296.178 507.572C293.656 507.332 291.176 506.508 288.737 505.1ZM309.416 517.086C307.975 516.254 306.88 515.366 306.132 514.422C305.411 513.494 305.079 512.534 305.134 511.542C305.162 510.47 305.605 509.414 306.464 508.374C307.379 507.335 308.737 506.295 310.538 505.255C312.256 504.263 314.044 503.503 315.901 502.975C317.785 502.463 319.684 502.199 321.596 502.183C323.314 502.183 324.963 502.383 326.543 502.783C328.15 503.199 329.605 503.783 330.907 504.535C332.459 505.431 333.554 506.431 334.192 507.535C334.829 508.638 334.954 509.782 334.566 510.966C334.289 511.894 333.651 512.838 332.653 513.798C331.683 514.742 330.464 515.606 328.995 516.39L312.7 506.983C309.79 508.694 308.293 510.294 308.21 511.782C308.155 513.286 309.249 514.686 311.494 515.982C313.406 517.086 315.374 517.694 317.397 517.806C319.448 517.902 321.457 517.558 323.425 516.774L325.462 518.238C322.829 519.278 320.099 519.702 317.272 519.51C314.501 519.318 311.882 518.51 309.416 517.086ZM314.321 506.095L314.072 505.519L329.037 514.158L328.205 514.062C329.037 513.55 329.757 512.958 330.367 512.286C330.977 511.614 331.406 510.966 331.656 510.342C331.961 509.462 331.85 508.63 331.323 507.846C330.852 507.063 330.034 506.335 328.871 505.663C327.817 505.055 326.681 504.607 325.462 504.319C324.298 504.031 323.12 503.911 321.928 503.959C319.573 504.039 317.217 504.647 314.861 505.783L314.321 506.095ZM333.745 530.555L362.844 513.756L373.236 519.756C375.259 520.924 376.728 522.044 377.643 523.115C378.585 524.203 378.904 525.315 378.599 526.451C378.322 527.571 377.199 528.699 375.232 529.835C373.513 530.827 371.601 531.403 369.495 531.563C367.416 531.707 365.352 531.427 363.301 530.723L363.675 530.315C365.476 531.835 366.308 533.243 366.169 534.539C366.031 535.835 364.922 537.083 362.844 538.282C360.876 539.418 358.881 540.074 356.858 540.25C354.862 540.41 352.839 540.186 350.788 539.578C348.765 538.954 346.562 537.955 344.179 536.579L333.745 530.555ZM346.299 535.403C348.239 536.523 349.929 537.323 351.37 537.803C352.839 538.298 354.308 538.49 355.777 538.378C357.301 538.266 358.839 537.763 360.391 536.867C362.082 535.891 362.968 534.931 363.052 533.987C363.162 533.027 362.747 532.131 361.804 531.299C360.89 530.451 359.56 529.523 357.814 528.515L349.999 524.003L338.276 530.771L346.299 535.403ZM359.518 527.051C361.43 528.155 363.093 528.923 364.507 529.355C365.975 529.787 367.375 529.939 368.705 529.811C370.063 529.667 371.435 529.195 372.821 528.395C374.289 527.547 375.121 526.715 375.315 525.899C375.536 525.067 375.273 524.259 374.525 523.475C373.777 522.692 372.585 521.828 370.95 520.884L363.176 516.396L352.119 522.78L359.518 527.051ZM364.73 549.019C362.707 547.851 361.57 546.587 361.321 545.227C361.099 543.883 361.875 542.699 363.649 541.675C364.896 540.955 366.198 540.523 367.556 540.379C368.942 540.251 370.328 540.331 371.713 540.619C373.099 540.907 374.554 541.347 376.078 541.939L385.556 545.635C385.639 545.587 385.723 545.539 385.806 545.491C385.889 545.443 385.958 545.403 386.014 545.371C387.15 544.715 387.981 544.139 388.508 543.643C389.09 543.147 389.367 542.635 389.339 542.107C389.339 541.595 389.076 541.059 388.549 540.499C388.05 539.955 387.316 539.403 386.346 538.843C384.295 537.659 382.411 537.035 380.693 536.971C379.002 536.891 377.228 537.387 375.372 538.459L373.335 536.899C374.415 536.243 375.593 535.771 376.868 535.483C378.198 535.195 379.501 535.1 380.776 535.195C382.05 535.291 383.325 535.563 384.6 536.011C385.93 536.459 387.205 537.035 388.425 537.739C390.115 538.715 391.279 539.675 391.916 540.619C392.609 541.563 392.734 542.499 392.291 543.427C391.875 544.339 390.877 545.251 389.298 546.163L378.406 552.45C377.796 552.802 377.45 553.082 377.367 553.29C377.339 553.498 377.602 553.762 378.157 554.082C378.628 554.354 379.224 554.618 379.944 554.874L377.99 556.05C377.159 555.73 376.425 555.386 375.787 555.018C374.651 554.362 374.124 553.706 374.208 553.05C374.291 552.394 375.108 551.65 376.66 550.818L377.159 550.818C375.247 551.346 373.21 551.482 371.048 551.226C368.914 550.954 366.808 550.219 364.73 549.019ZM367.141 548.107C369.385 549.403 371.672 550.083 374 550.147C376.355 550.227 378.489 549.715 380.402 548.611L384.891 546.019L385.141 547.219L374.457 543.211L374.041 543.067C372.406 542.475 370.979 542.163 369.76 542.131C368.568 542.083 367.404 542.387 366.268 543.043C364.993 543.779 364.452 544.603 364.646 545.515C364.868 546.411 365.7 547.275 367.141 548.107ZM389.104 563.042C386.97 561.81 385.598 560.506 384.989 559.13C384.407 557.77 384.545 556.41 385.404 555.05C386.291 553.675 387.815 552.363 389.977 551.115C392.055 549.915 394.3 549.067 396.711 548.571C399.15 548.091 401.575 548.019 403.986 548.355C406.425 548.675 408.656 549.419 410.679 550.587C413.09 551.979 414.393 553.467 414.586 555.05C414.808 556.618 414.088 558.154 412.425 559.658L409.64 558.578C410.97 557.362 411.607 556.194 411.552 555.074C411.496 553.955 410.513 552.843 408.6 551.739C407.298 550.987 405.954 550.467 404.568 550.179C403.238 549.891 401.88 549.811 400.494 549.939C399.219 550.035 397.903 550.315 396.545 550.779C395.215 551.259 393.898 551.875 392.596 552.627C389.825 554.227 388.245 555.794 387.857 557.33C387.469 558.866 388.564 560.378 391.141 561.866C392.998 562.938 394.868 563.554 396.753 563.714C398.637 563.874 400.661 563.554 402.822 562.754L404.859 564.218C403.196 564.858 401.45 565.242 399.621 565.37C397.82 565.514 396.005 565.394 394.176 565.01C392.374 564.61 390.684 563.954 389.104 563.042ZM402.379 570.178L431.478 553.379L433.889 554.771L404.79 571.57L402.379 570.178ZM412.314 566.938L415.1 565.378L436.134 565.81L439.335 567.658L422.915 567.202H421.252L412.314 566.938ZM416.305 578.217L420.421 566.962L423.705 566.986L419.09 579.825L416.305 578.217ZM428.981 586.111C427.54 585.279 426.446 584.391 425.697 583.447C424.977 582.519 424.644 581.559 424.7 580.568C424.727 579.496 425.171 578.44 426.03 577.4C426.945 576.36 428.302 575.32 430.104 574.28C431.822 573.288 433.61 572.528 435.466 572C437.351 571.488 439.249 571.224 441.162 571.208C442.88 571.208 444.529 571.408 446.108 571.808C447.716 572.224 449.171 572.808 450.473 573.56C452.025 574.456 453.12 575.456 453.757 576.56C454.395 577.664 454.519 578.808 454.131 579.992C453.854 580.92 453.217 581.863 452.219 582.823C451.249 583.767 450.03 584.631 448.561 585.415L432.266 576.008C429.356 577.72 427.859 579.32 427.776 580.808C427.721 582.311 428.815 583.711 431.06 585.007C432.972 586.111 434.94 586.719 436.963 586.831C439.014 586.927 441.023 586.583 442.991 585.799L445.028 587.263C442.395 588.303 439.665 588.727 436.838 588.535C434.067 588.343 431.448 587.535 428.981 586.111ZM433.887 575.12L433.637 574.544L448.603 583.183L447.771 583.087C448.603 582.575 449.323 581.983 449.933 581.312C450.543 580.64 450.972 579.992 451.221 579.368C451.526 578.488 451.415 577.656 450.889 576.872C450.418 576.088 449.6 575.36 448.436 574.688C447.383 574.08 446.247 573.632 445.028 573.344C443.864 573.056 442.686 572.936 441.494 572.984C439.138 573.064 436.783 573.672 434.427 574.808L433.887 575.12ZM442.952 593.6L463.612 581.673L466.023 583.065L460.951 585.993L461.159 585.585C463.182 584.897 465.247 584.649 467.353 584.841C469.46 585.033 471.483 585.689 473.423 586.809C474.697 587.545 475.626 588.305 476.208 589.088C476.845 589.872 477.164 590.664 477.164 591.464C477.136 592.312 476.693 593.112 475.834 593.864C475.002 594.6 473.88 595.376 472.466 596.192L459.954 603.416L457.46 601.976L469.556 594.992C469.584 594.976 469.612 594.96 469.64 594.944C469.667 594.928 469.695 594.912 469.723 594.896C470.97 594.176 471.926 593.544 472.591 593C473.256 592.456 473.617 591.848 473.672 591.176C473.755 590.52 473.533 589.912 473.007 589.352C472.48 588.793 471.718 588.225 470.72 587.649C469.141 586.737 467.145 586.209 464.734 586.065C462.379 585.921 459.774 586.673 456.919 588.321L445.363 594.992L442.952 593.6ZM473.04 611.498C471.239 610.458 470.033 609.282 469.424 607.971C468.842 606.675 468.939 605.323 469.715 603.915C470.491 602.507 472.029 601.139 474.329 599.811C476.574 598.515 478.943 597.643 481.437 597.195C483.932 596.747 486.315 596.699 488.588 597.051C490.888 597.387 492.897 598.051 494.615 599.043C496.472 600.115 497.622 601.259 498.065 602.475C498.537 603.707 498.37 604.923 497.567 606.123L496.694 606.195L509.83 598.611L512.282 600.027L483.183 616.826L480.731 615.41L485.802 612.482L485.761 612.938C483.516 613.498 481.285 613.666 479.068 613.442C476.879 613.202 474.869 612.554 473.04 611.498ZM475.327 610.514C476.38 611.122 477.461 611.57 478.569 611.858C479.705 612.162 480.869 612.306 482.061 612.29C483.53 612.274 485.026 612.018 486.551 611.522C488.103 611.042 489.682 610.338 491.29 609.41C494.116 607.779 495.682 606.203 495.987 604.683C496.32 603.179 495.322 601.755 492.994 600.411C491.885 599.771 490.708 599.299 489.46 598.995C488.241 598.707 486.98 598.587 485.678 598.635C484.236 598.699 482.782 598.963 481.313 599.427C479.844 599.891 478.403 600.531 476.989 601.347C475.105 602.435 473.775 603.507 472.999 604.563C472.25 605.635 472.056 606.675 472.417 607.683C472.832 608.691 473.802 609.634 475.327 610.514Z" fill="black"/>
<rect width="706" height="540" rx="40" transform="matrix(0.866044 0.499967 -0.866044 0.499967 467.838 0)" fill="white"/>
<rect y="-0.499967" width="677" height="43" rx="21.5" transform="matrix(0.866044 0.499967 -0.866044 0.499967 467.405 14.75)" fill="white"/>
<rect y="-0.499967" width="677" height="43" rx="21.5" transform="matrix(0.866044 0.499967 -0.866044 0.499967 467.405 14.75)" stroke="#0A0A0A"/>
<rect width="333" height="260" rx="24" transform="matrix(0.866044 0.499967 -0.866044 0.499967 418.474 43.5)" fill="#E5E5E5"/>
<path d="M303.712 134.754L302.734 137.792C301.756 140.83 299.799 146.907 301.697 150.758C303.595 154.61 309.348 156.236 317.879 156.257C326.411 156.279 337.722 154.696 342.691 156.775C347.659 158.854 346.286 164.594 347.099 169.071C347.913 173.548 350.914 176.763 355.731 178.929C360.548 181.095 367.181 182.213 375.761 182.207C384.341 182.201 394.868 181.071 404.315 180.564C413.762 180.057 422.129 180.174 424.281 183.878C426.433 187.583 422.37 194.876 427.158 197.059C431.946 199.242 445.585 196.315 450.799 198.252C456.012 200.189 452.801 206.99 453.889 211.309C454.978 215.628 460.367 217.464 467.989 218.01C475.611 218.557 485.467 217.815 496.19 216.571C506.914 215.327 518.506 213.582 527.408 213.39C536.309 213.198 542.521 214.559 547.911 216.395C553.3 218.231 557.867 220.541 558.816 224.941C559.764 229.34 557.094 235.829 561.521 238.22C565.948 240.612 577.472 238.906 585.991 238.935C594.511 238.963 600.025 240.727 602.782 241.609L605.539 242.491" stroke="black"/>
<rect width="333" height="260" rx="24" transform="matrix(0.866044 0.499967 -0.866044 0.499967 715.527 214.992)" fill="#E5E5E5"/>
<line y1="-0.5" x2="23" y2="-0.5" transform="matrix(0.866044 -0.499967 0.866044 0.499967 534.061 350.219)" stroke="black"/>
<line y1="-0.5" x2="47" y2="-0.5" transform="matrix(0.866044 -0.499967 0.866044 0.499967 552.186 360.68)" stroke="black"/>
<line y1="-0.5" x2="47" y2="-0.5" transform="matrix(0.866044 -0.499967 0.866044 0.499967 570.311 371.141)" stroke="black"/>
<line y1="-0.5" x2="88.005" y2="-0.5" transform="matrix(0.856769 -0.505265 0.875221 0.494613 588.842 381.844)" stroke="black"/>
<line y1="-0.5" x2="116" y2="-0.5" transform="matrix(0.866044 -0.499967 0.866044 0.499967 606.561 392.07)" stroke="black"/>
<line y1="-0.5" x2="77" y2="-0.5" transform="matrix(0.866044 -0.499967 0.866044 0.499967 624.686 402.531)" stroke="black"/>
<line y1="-0.5" x2="147" y2="-0.5" transform="matrix(0.866044 -0.499967 0.866044 0.499967 642.811 413)" stroke="black"/>
<line y1="-0.5" x2="149" y2="-0.5" transform="matrix(0.866044 -0.499967 0.866044 0.499967 660.936 423.461)" stroke="black"/>
<line y1="-0.5" x2="129" y2="-0.5" transform="matrix(0.866044 -0.499967 0.866044 0.499967 679.061 433.922)" stroke="black"/>
<line y1="-0.5" x2="109.005" y2="-0.5" transform="matrix(0.857562 -0.504817 0.874445 0.49507 697.646 444.656)" stroke="black"/>
<line y1="-0.5" x2="47" y2="-0.5" transform="matrix(0.866044 -0.499967 0.866044 0.499967 715.311 454.852)" stroke="black"/>
<line y1="-0.5" x2="47" y2="-0.5" transform="matrix(0.866044 -0.499967 0.866044 0.499967 733.436 465.312)" stroke="black"/>
<line y1="-0.5" x2="47" y2="-0.5" transform="matrix(0.866044 -0.499967 0.866044 0.499967 751.561 475.781)" stroke="black"/>
<line y1="-0.5" x2="26" y2="-0.5" transform="matrix(0.866044 -0.499967 0.866044 0.499967 769.686 486.242)" stroke="black"/>
<rect y="-0.499967" width="677" height="179" rx="30.5" transform="matrix(0.866044 0.499967 -0.866044 0.499967 179.879 180.742)" fill="white"/>
<rect y="-0.499967" width="677" height="179" rx="30.5" transform="matrix(0.866044 0.499967 -0.866044 0.499967 179.879 180.742)" stroke="#0A0A0A"/>
</svg>
