<svg width="1080" height="730" viewBox="0 0 1080 730" fill="none" xmlns="http://www.w3.org/2000/svg">
<g clip-path="url(#clip0_4532_226237)">
<rect width="706" height="540" rx="40" transform="matrix(0.866044 0.499967 -0.866044 0.499967 467.838 107)" fill="white"/>
<rect y="-0.167989" width="676.336" height="510.336" rx="14.168" transform="matrix(0.866044 0.499967 -0.866044 0.499967 467.692 121.916)" fill="black" fill-opacity="0.1"/>
<rect y="-0.167989" width="676.336" height="510.336" rx="14.168" transform="matrix(0.866044 0.499967 -0.866044 0.499967 467.692 121.916)" stroke="#F5F5F5" stroke-width="0.336"/>
<path d="M202.122 451.569L231.221 434.77L234.754 436.81L222.865 452.745C222.561 453.145 222.242 453.537 221.909 453.921C221.632 454.305 221.355 454.689 221.078 455.073C220.662 455.633 220.246 456.161 219.831 456.657C219.443 457.169 219.069 457.657 218.708 458.121C219.318 457.961 219.983 457.785 220.704 457.593C221.424 457.401 222.173 457.209 222.949 457.017C223.752 456.809 224.556 456.601 225.36 456.393C226.191 456.169 226.995 455.961 227.771 455.769L255.747 448.929L259.198 450.921L230.099 467.72L227.688 466.328L247.475 454.905C249.027 454.009 251.133 452.841 253.794 451.401C252.685 451.689 251.618 451.969 250.593 452.241C249.595 452.497 248.625 452.737 247.683 452.961C247.239 453.089 246.796 453.201 246.353 453.297C245.909 453.393 245.48 453.497 245.064 453.609L217.378 460.377L214.718 458.841L226.648 442.69C226.87 442.338 227.133 441.978 227.438 441.61C227.771 441.226 228.103 440.826 228.436 440.41C228.741 439.978 229.059 439.554 229.392 439.138C229.78 438.722 230.112 438.306 230.39 437.89L230.348 437.866C229.905 438.154 229.433 438.442 228.935 438.73C228.491 439.018 228.034 439.314 227.563 439.618C226.399 440.322 225.373 440.93 224.487 441.442L204.533 452.961L202.122 451.569ZM244.342 476.471C242.263 475.271 240.905 473.991 240.268 472.631C239.658 471.255 239.755 469.871 240.559 468.479C241.39 467.103 242.915 465.775 245.132 464.496C247.183 463.312 249.427 462.48 251.866 462C254.305 461.52 256.744 461.44 259.182 461.76C261.649 462.096 263.894 462.848 265.917 464.016C267.995 465.215 269.326 466.511 269.908 467.903C270.517 469.279 270.392 470.663 269.533 472.055C268.702 473.463 267.219 474.783 265.085 476.015C262.979 477.231 260.707 478.079 258.268 478.559C255.857 479.023 253.432 479.079 250.993 478.727C248.582 478.391 246.365 477.639 244.342 476.471ZM246.296 475.295C248.707 476.687 251.201 477.327 253.778 477.215C255.247 477.135 256.702 476.871 258.143 476.423C259.64 475.975 261.095 475.343 262.508 474.527C265.556 472.767 267.108 471.039 267.164 469.343C267.247 467.855 266.194 466.479 264.005 465.215C262.813 464.528 261.58 464.024 260.305 463.704C259.058 463.4 257.797 463.264 256.522 463.296C255.053 463.344 253.57 463.592 252.074 464.04C250.633 464.488 249.178 465.135 247.709 465.983C246.268 466.815 245.132 467.663 244.3 468.527C243.524 469.391 243.081 470.239 242.97 471.071C242.831 472.527 243.94 473.935 246.296 475.295ZM267.267 489.705C265.188 488.505 263.83 487.225 263.193 485.866C262.583 484.49 262.68 483.106 263.484 481.714C264.315 480.338 265.84 479.01 268.057 477.73C270.107 476.546 272.352 475.714 274.791 475.234C277.23 474.754 279.669 474.674 282.107 474.994C284.574 475.33 286.819 476.082 288.842 477.25C290.92 478.45 292.25 479.746 292.832 481.138C293.442 482.514 293.317 483.898 292.458 485.29C291.627 486.698 290.144 488.017 288.01 489.249C285.904 490.465 283.632 491.313 281.193 491.793C278.782 492.257 276.357 492.313 273.918 491.961C271.507 491.625 269.29 490.873 267.267 489.705ZM269.221 488.529C271.632 489.921 274.126 490.561 276.703 490.449C278.172 490.369 279.627 490.105 281.068 489.657C282.565 489.209 284.02 488.577 285.433 487.761C288.481 486.002 290.033 484.274 290.089 482.578C290.172 481.09 289.119 479.714 286.929 478.45C285.738 477.762 284.505 477.258 283.23 476.938C281.983 476.634 280.722 476.498 279.447 476.53C277.978 476.578 276.495 476.826 274.999 477.274C273.558 477.722 272.103 478.37 270.634 479.218C269.193 480.05 268.057 480.898 267.225 481.762C266.449 482.626 266.006 483.474 265.895 484.306C265.756 485.762 266.865 487.169 269.221 488.529ZM288.737 502.1C286.132 500.596 284.649 499.02 284.289 497.372C283.984 495.724 284.996 494.244 287.323 492.933L289.818 494.132C288.044 495.124 287.282 496.236 287.531 497.468C287.808 498.716 288.903 499.892 290.815 500.996C292.644 502.052 294.404 502.668 296.095 502.844C297.813 503.036 299.323 502.756 300.626 502.004C301.485 501.508 301.901 500.948 301.873 500.324C301.845 499.7 301.54 499.076 300.958 498.452C300.404 497.844 299.573 497.06 298.464 496.1C298.326 495.956 298.187 495.828 298.049 495.716C297.91 495.604 297.771 495.476 297.633 495.332C296.441 494.26 295.582 493.333 295.055 492.549C294.529 491.765 294.349 491.005 294.515 490.269C294.709 489.549 295.36 488.869 296.469 488.229C297.605 487.573 298.922 487.181 300.418 487.053C301.942 486.909 303.48 487.029 305.032 487.413C306.64 487.797 308.164 488.405 309.605 489.237C311.905 490.565 313.235 491.973 313.596 493.461C313.984 494.932 313.222 496.364 311.309 497.756L308.649 496.652C310.118 495.644 310.769 494.596 310.603 493.509C310.464 492.405 309.48 491.325 307.651 490.269C306.182 489.421 304.658 488.909 303.079 488.733C301.499 488.557 300.155 488.789 299.046 489.429C297.993 490.037 297.605 490.725 297.882 491.493C298.215 492.261 299.102 493.301 300.543 494.612C300.626 494.692 300.723 494.764 300.834 494.828C300.945 494.892 301.028 494.956 301.083 495.02C301.111 495.068 301.152 495.124 301.208 495.188C301.291 495.236 301.36 495.276 301.416 495.308C302.746 496.46 303.73 497.444 304.367 498.26C305.06 499.076 305.337 499.908 305.199 500.756C305.115 501.604 304.409 502.412 303.079 503.18C301.055 504.348 298.755 504.812 296.178 504.572C293.656 504.332 291.176 503.508 288.737 502.1ZM309.416 514.086C307.975 513.254 306.88 512.366 306.132 511.422C305.411 510.494 305.079 509.534 305.134 508.542C305.162 507.47 305.605 506.414 306.464 505.374C307.379 504.335 308.737 503.295 310.538 502.255C312.256 501.263 314.044 500.503 315.901 499.975C317.785 499.463 319.684 499.199 321.596 499.183C323.314 499.183 324.963 499.383 326.543 499.783C328.15 500.199 329.605 500.783 330.907 501.535C332.459 502.431 333.554 503.431 334.192 504.535C334.829 505.638 334.954 506.782 334.566 507.966C334.289 508.894 333.651 509.838 332.653 510.798C331.683 511.742 330.464 512.606 328.995 513.39L312.7 503.983C309.79 505.694 308.293 507.294 308.21 508.782C308.155 510.286 309.249 511.686 311.494 512.982C313.406 514.086 315.374 514.694 317.397 514.806C319.448 514.902 321.457 514.558 323.425 513.774L325.462 515.238C322.829 516.278 320.099 516.702 317.272 516.51C314.501 516.318 311.882 515.51 309.416 514.086ZM314.321 503.095L314.072 502.519L329.037 511.158L328.205 511.062C329.037 510.55 329.757 509.958 330.367 509.286C330.977 508.614 331.406 507.966 331.656 507.342C331.961 506.462 331.85 505.63 331.323 504.846C330.852 504.063 330.034 503.335 328.871 502.663C327.817 502.055 326.681 501.607 325.462 501.319C324.298 501.031 323.12 500.911 321.928 500.959C319.573 501.039 317.217 501.647 314.861 502.783L314.321 503.095ZM333.745 527.555L362.844 510.756L373.236 516.756C375.259 517.924 376.728 519.044 377.643 520.115C378.585 521.203 378.904 522.315 378.599 523.451C378.322 524.571 377.199 525.699 375.232 526.835C373.513 527.827 371.601 528.403 369.495 528.563C367.416 528.707 365.352 528.427 363.301 527.723L363.675 527.315C365.476 528.835 366.308 530.243 366.169 531.539C366.031 532.835 364.922 534.083 362.844 535.282C360.876 536.418 358.881 537.074 356.858 537.25C354.862 537.41 352.839 537.186 350.788 536.578C348.765 535.954 346.562 534.955 344.179 533.579L333.745 527.555ZM346.299 532.403C348.239 533.523 349.929 534.323 351.37 534.803C352.839 535.298 354.308 535.49 355.777 535.378C357.301 535.266 358.839 534.763 360.391 533.867C362.082 532.891 362.968 531.931 363.052 530.987C363.162 530.027 362.747 529.131 361.804 528.299C360.89 527.451 359.56 526.523 357.814 525.515L349.999 521.003L338.276 527.771L346.299 532.403ZM359.518 524.051C361.43 525.155 363.093 525.923 364.507 526.355C365.975 526.787 367.375 526.939 368.705 526.811C370.063 526.667 371.435 526.195 372.821 525.395C374.289 524.547 375.121 523.715 375.315 522.899C375.536 522.067 375.273 521.259 374.525 520.475C373.777 519.692 372.585 518.828 370.95 517.884L363.176 513.396L352.119 519.78L359.518 524.051ZM364.73 546.019C362.707 544.851 361.57 543.587 361.321 542.227C361.099 540.883 361.875 539.699 363.649 538.675C364.896 537.955 366.198 537.523 367.556 537.379C368.942 537.251 370.328 537.331 371.713 537.619C373.099 537.907 374.554 538.347 376.078 538.939L385.556 542.635C385.639 542.587 385.723 542.539 385.806 542.491C385.889 542.443 385.958 542.403 386.014 542.371C387.15 541.715 387.981 541.139 388.508 540.643C389.09 540.147 389.367 539.635 389.339 539.107C389.339 538.595 389.076 538.059 388.549 537.499C388.05 536.955 387.316 536.403 386.346 535.843C384.295 534.659 382.411 534.035 380.693 533.971C379.002 533.891 377.228 534.387 375.372 535.459L373.335 533.899C374.415 533.243 375.593 532.771 376.868 532.483C378.198 532.195 379.501 532.1 380.776 532.195C382.05 532.291 383.325 532.563 384.6 533.011C385.93 533.459 387.205 534.035 388.425 534.739C390.115 535.715 391.279 536.675 391.916 537.619C392.609 538.563 392.734 539.499 392.291 540.427C391.875 541.339 390.877 542.251 389.298 543.163L378.406 549.45C377.796 549.802 377.45 550.082 377.367 550.29C377.339 550.498 377.602 550.762 378.157 551.082C378.628 551.354 379.224 551.618 379.944 551.874L377.99 553.05C377.159 552.73 376.425 552.386 375.787 552.018C374.651 551.362 374.124 550.706 374.208 550.05C374.291 549.394 375.108 548.65 376.66 547.818L377.159 547.818C375.247 548.346 373.21 548.482 371.048 548.226C368.914 547.954 366.808 547.219 364.73 546.019ZM367.141 545.107C369.385 546.403 371.672 547.083 374 547.147C376.355 547.227 378.489 546.715 380.402 545.611L384.891 543.019L385.141 544.219L374.457 540.211L374.041 540.067C372.406 539.475 370.979 539.163 369.76 539.131C368.568 539.083 367.404 539.387 366.268 540.043C364.993 540.779 364.452 541.603 364.646 542.515C364.868 543.411 365.7 544.275 367.141 545.107ZM389.104 560.042C386.97 558.81 385.598 557.506 384.989 556.13C384.407 554.77 384.545 553.41 385.404 552.05C386.291 550.675 387.815 549.363 389.977 548.115C392.055 546.915 394.3 546.067 396.711 545.571C399.15 545.091 401.575 545.019 403.986 545.355C406.425 545.675 408.656 546.419 410.679 547.587C413.09 548.979 414.393 550.467 414.586 552.05C414.808 553.618 414.088 555.154 412.425 556.658L409.64 555.578C410.97 554.362 411.607 553.194 411.552 552.074C411.496 550.955 410.513 549.843 408.6 548.739C407.298 547.987 405.954 547.467 404.568 547.179C403.238 546.891 401.88 546.811 400.494 546.939C399.219 547.035 397.903 547.315 396.545 547.779C395.215 548.259 393.898 548.875 392.596 549.627C389.825 551.227 388.245 552.794 387.857 554.33C387.469 555.866 388.564 557.378 391.141 558.866C392.998 559.938 394.868 560.554 396.753 560.714C398.637 560.874 400.661 560.554 402.822 559.754L404.859 561.218C403.196 561.858 401.45 562.242 399.621 562.37C397.82 562.514 396.005 562.394 394.176 562.01C392.374 561.61 390.684 560.954 389.104 560.042ZM402.379 567.178L431.478 550.379L433.889 551.771L404.79 568.57L402.379 567.178ZM412.314 563.938L415.1 562.378L436.134 562.81L439.335 564.658L422.915 564.202H421.252L412.314 563.938ZM416.305 575.217L420.421 563.962L423.705 563.986L419.09 576.825L416.305 575.217ZM428.981 583.111C427.54 582.279 426.446 581.391 425.697 580.447C424.977 579.519 424.644 578.559 424.7 577.568C424.727 576.496 425.171 575.44 426.03 574.4C426.945 573.36 428.302 572.32 430.104 571.28C431.822 570.288 433.61 569.528 435.466 569C437.351 568.488 439.249 568.224 441.162 568.208C442.88 568.208 444.529 568.408 446.108 568.808C447.716 569.224 449.171 569.808 450.473 570.56C452.025 571.456 453.12 572.456 453.757 573.56C454.395 574.664 454.519 575.808 454.131 576.992C453.854 577.92 453.217 578.863 452.219 579.823C451.249 580.767 450.03 581.631 448.561 582.415L432.266 573.008C429.356 574.72 427.859 576.32 427.776 577.808C427.721 579.311 428.815 580.711 431.06 582.007C432.972 583.111 434.94 583.719 436.963 583.831C439.014 583.927 441.023 583.583 442.991 582.799L445.028 584.263C442.395 585.303 439.665 585.727 436.838 585.535C434.067 585.343 431.448 584.535 428.981 583.111ZM433.887 572.12L433.637 571.544L448.603 580.183L447.771 580.087C448.603 579.575 449.323 578.983 449.933 578.312C450.543 577.64 450.972 576.992 451.221 576.368C451.526 575.488 451.415 574.656 450.889 573.872C450.418 573.088 449.6 572.36 448.436 571.688C447.383 571.08 446.247 570.632 445.028 570.344C443.864 570.056 442.686 569.936 441.494 569.984C439.138 570.064 436.783 570.672 434.427 571.808L433.887 572.12ZM442.952 590.6L463.612 578.673L466.023 580.065L460.951 582.993L461.159 582.585C463.182 581.897 465.247 581.649 467.353 581.841C469.46 582.033 471.483 582.689 473.423 583.809C474.697 584.545 475.626 585.305 476.208 586.088C476.845 586.872 477.164 587.664 477.164 588.464C477.136 589.312 476.693 590.112 475.834 590.864C475.002 591.6 473.88 592.376 472.466 593.192L459.954 600.416L457.46 598.976L469.556 591.992C469.584 591.976 469.612 591.96 469.64 591.944C469.667 591.928 469.695 591.912 469.723 591.896C470.97 591.176 471.926 590.544 472.591 590C473.256 589.456 473.617 588.848 473.672 588.176C473.755 587.52 473.533 586.912 473.007 586.352C472.48 585.793 471.718 585.225 470.72 584.649C469.141 583.737 467.145 583.209 464.734 583.065C462.379 582.921 459.774 583.673 456.919 585.321L445.363 591.992L442.952 590.6ZM473.04 608.498C471.239 607.458 470.033 606.282 469.424 604.971C468.842 603.675 468.939 602.323 469.715 600.915C470.491 599.507 472.029 598.139 474.329 596.811C476.574 595.515 478.943 594.643 481.437 594.195C483.932 593.747 486.315 593.699 488.588 594.051C490.888 594.387 492.897 595.051 494.615 596.043C496.472 597.115 497.622 598.259 498.065 599.475C498.537 600.707 498.37 601.923 497.567 603.123L496.694 603.195L509.83 595.611L512.282 597.027L483.183 613.826L480.731 612.41L485.802 609.482L485.761 609.938C483.516 610.498 481.285 610.666 479.068 610.442C476.879 610.202 474.869 609.554 473.04 608.498ZM475.327 607.514C476.38 608.122 477.461 608.57 478.569 608.858C479.705 609.162 480.869 609.306 482.061 609.29C483.53 609.274 485.026 609.018 486.551 608.522C488.103 608.042 489.682 607.338 491.29 606.41C494.116 604.779 495.682 603.203 495.987 601.683C496.32 600.179 495.322 598.755 492.994 597.411C491.885 596.771 490.708 596.299 489.46 595.995C488.241 595.707 486.98 595.587 485.678 595.635C484.236 595.699 482.782 595.963 481.313 596.427C479.844 596.891 478.403 597.531 476.989 598.347C475.105 599.435 473.775 600.507 472.999 601.563C472.25 602.635 472.056 603.675 472.417 604.683C472.832 605.691 473.802 606.634 475.327 607.514Z" fill="black"/>
</g>
<rect width="706" height="540" rx="40" transform="matrix(0.866044 0.499967 -0.866044 0.499967 467.838 0)" fill="white"/>
<rect width="676" height="42" rx="21" transform="matrix(0.866044 0.499967 -0.866044 0.499967 467.838 15)" fill="black" fill-opacity="0.1"/>
<rect width="331" height="219" rx="24" transform="matrix(0.866044 0.499967 -0.866044 0.499967 418.473 43.5)" fill="black" fill-opacity="0.1"/>
<line y1="-0.5" x2="21" y2="-0.5" transform="matrix(0.866044 -0.499967 0.866044 0.499967 263.451 152.992)" stroke="black"/>
<line y1="-0.5" x2="50" y2="-0.5" transform="matrix(0.866044 -0.499967 0.866044 0.499967 284.453 165.117)" stroke="black"/>
<line y1="-0.5" x2="55" y2="-0.5" transform="matrix(0.866044 -0.499967 0.866044 0.499967 305.453 177.242)" stroke="black"/>
<line y1="-0.5" x2="79" y2="-0.5" transform="matrix(0.866044 -0.499967 0.866044 0.499967 326.455 189.367)" stroke="black"/>
<line y1="-0.5" x2="79" y2="-0.5" transform="matrix(0.866044 -0.499967 0.866044 0.499967 347.457 201.492)" stroke="black"/>
<line y1="-0.5" x2="79" y2="-0.5" transform="matrix(0.866044 -0.499967 0.866044 0.499967 368.459 213.617)" stroke="black"/>
<line y1="-0.5" x2="59" y2="-0.5" transform="matrix(0.866044 -0.499967 0.866044 0.499967 389.461 225.734)" stroke="black"/>
<line y1="-0.5" x2="70" y2="-0.5" transform="matrix(0.866044 -0.499967 0.866044 0.499967 410.461 237.859)" stroke="black"/>
<line y1="-0.5" x2="59" y2="-0.5" transform="matrix(0.866044 -0.499967 0.866044 0.499967 431.463 249.984)" stroke="black"/>
<line y1="-0.5" x2="101" y2="-0.5" transform="matrix(0.866044 -0.499967 0.866044 0.499967 452.465 262.109)" stroke="black"/>
<line y1="-0.5" x2="89" y2="-0.5" transform="matrix(0.866044 -0.499967 0.866044 0.499967 473.467 274.234)" stroke="black"/>
<line y1="-0.5" x2="70" y2="-0.5" transform="matrix(0.866044 -0.499967 0.866044 0.499967 494.469 286.359)" stroke="black"/>
<line y1="-0.5" x2="30" y2="-0.5" transform="matrix(0.866044 -0.499967 0.866044 0.499967 515.469 298.484)" stroke="black"/>
<rect width="331" height="219" rx="24" transform="matrix(0.866044 0.499967 -0.866044 0.499967 717.258 215.992)" fill="black" fill-opacity="0.1"/>
<path d="M608.56 300.746L607.658 303.828C606.755 306.91 604.951 313.074 607.001 317.014C609.051 320.953 614.955 322.667 623.638 322.776C632.322 322.885 643.785 321.39 648.906 323.557C654.026 325.723 652.805 331.551 653.77 336.116C654.736 340.681 657.889 343.983 662.858 346.237C667.827 348.491 674.611 349.696 683.343 349.778C692.075 349.86 702.754 348.817 712.353 348.398C721.952 347.979 730.471 348.183 732.775 351.976C735.079 355.768 731.168 363.149 736.108 365.419C741.048 367.69 754.839 364.851 760.204 366.876C765.57 368.901 762.511 375.789 763.751 380.196C764.992 384.602 770.532 386.526 778.306 387.16C786.08 387.795 796.088 387.14 806.964 385.984C817.839 384.828 829.583 383.171 838.637 383.067C847.69 382.962 854.054 384.411 859.595 386.334C865.137 388.258 869.856 390.656 870.956 395.143C872.057 399.63 869.538 406.207 874.117 408.686C878.696 411.165 890.372 409.547 899.044 409.663C907.715 409.78 913.381 411.631 916.214 412.557L919.047 413.483" stroke="black"/>
<rect width="331" height="219" rx="24" transform="matrix(0.866044 0.499967 -0.866044 0.499967 215.818 160.492)" fill="black" fill-opacity="0.1"/>
<path d="M288.002 336.268C274.742 339.002 260.367 339.379 246.732 337.349C233.098 335.319 220.83 330.977 211.514 324.882C202.197 318.787 196.258 311.22 194.465 303.158C192.672 295.096 195.107 286.908 201.454 279.652C207.802 272.396 217.772 266.406 230.076 262.454C242.38 258.501 256.453 256.769 270.48 257.481C284.506 258.192 297.841 261.314 308.763 266.445C319.685 271.575 327.692 278.477 331.751 286.261" stroke="black"/>
<rect width="219" height="331" rx="24" transform="matrix(-0.866044 0.499967 -0.866044 -0.499967 801.264 498.469)" fill="black" fill-opacity="0.1"/>
<line y1="-0.5" x2="39" y2="-0.5" transform="matrix(0.866044 0.499967 -0.866044 0.499967 514.604 352.977)" stroke="black"/>
<line y1="-0.5" x2="149" y2="-0.5" transform="matrix(0.866044 0.499967 -0.866044 0.499967 492.457 365.766)" stroke="black"/>
<line y1="-0.5" x2="111" y2="-0.5" transform="matrix(0.866044 0.499967 -0.866044 0.499967 470.311 378.547)" stroke="black"/>
<line y1="-0.5" x2="112" y2="-0.5" transform="matrix(0.866044 0.499967 -0.866044 0.499967 448.164 391.336)" stroke="black"/>
<line y1="-0.5" x2="191" y2="-0.5" transform="matrix(0.866044 0.499967 -0.866044 0.499967 426.02 404.117)" stroke="black"/>
<line y1="-0.5" x2="168" y2="-0.5" transform="matrix(0.866044 0.499967 -0.866044 0.499967 403.873 416.906)" stroke="black"/>
<line y1="-0.5" x2="132" y2="-0.5" transform="matrix(0.866044 0.499967 -0.866044 0.499967 381.727 429.688)" stroke="black"/>
<line y1="-0.5" x2="57" y2="-0.5" transform="matrix(0.866044 0.499967 -0.866044 0.499967 359.582 442.469)" stroke="black"/>
<defs>
<clipPath id="clip0_4532_226237">
<rect width="706" height="540" rx="40" transform="matrix(0.866044 0.499967 -0.866044 0.499967 467.838 107)" fill="white"/>
</clipPath>
</defs>
</svg>
