<svg width="1080" height="730" viewBox="0 0 1080 730" fill="none" xmlns="http://www.w3.org/2000/svg">
<g clip-path="url(#clip0_4532_225802)">
<rect width="706" height="540" rx="40" transform="matrix(0.866044 0.499967 -0.866044 0.499967 467.664 107)" fill="black"/>
<rect y="-0.167989" width="676.336" height="510.336" rx="14.168" transform="matrix(0.866044 0.499967 -0.866044 0.499967 467.519 121.916)" fill="white" fill-opacity="0.1"/>
<rect y="-0.167989" width="676.336" height="510.336" rx="14.168" transform="matrix(0.866044 0.499967 -0.866044 0.499967 467.519 121.916)" stroke="#262626" stroke-width="0.336"/>
<path d="M201.948 451.569L231.047 434.77L234.581 436.81L222.692 452.745C222.387 453.145 222.068 453.537 221.735 453.921C221.458 454.305 221.181 454.689 220.904 455.073C220.488 455.633 220.073 456.161 219.657 456.657C219.269 457.169 218.895 457.657 218.535 458.121C219.144 457.961 219.809 457.785 220.53 457.593C221.25 457.401 221.999 457.209 222.775 457.017C223.578 456.809 224.382 456.601 225.186 456.393C226.017 456.169 226.821 455.961 227.597 455.769L255.574 448.929L259.024 450.921L229.925 467.72L227.514 466.328L247.301 454.905C248.853 454.009 250.959 452.841 253.62 451.401C252.511 451.689 251.444 451.969 250.419 452.241C249.421 452.497 248.451 452.737 247.509 452.961C247.066 453.089 246.622 453.201 246.179 453.297C245.735 453.393 245.306 453.497 244.89 453.609L217.204 460.377L214.544 458.841L226.474 442.69C226.696 442.338 226.959 441.978 227.264 441.61C227.597 441.226 227.929 440.826 228.262 440.41C228.567 439.978 228.886 439.554 229.218 439.138C229.606 438.722 229.939 438.306 230.216 437.89L230.174 437.866C229.731 438.154 229.26 438.442 228.761 438.73C228.317 439.018 227.86 439.314 227.389 439.618C226.225 440.322 225.2 440.93 224.313 441.442L204.359 452.961L201.948 451.569ZM244.168 476.471C242.09 475.271 240.732 473.991 240.094 472.631C239.484 471.255 239.581 469.871 240.385 468.479C241.217 467.103 242.741 465.775 244.958 464.496C247.009 463.312 249.253 462.48 251.692 462C254.131 461.52 256.57 461.44 259.009 461.76C261.475 462.096 263.72 462.848 265.743 464.016C267.821 465.215 269.152 466.511 269.734 467.903C270.343 469.279 270.219 470.663 269.36 472.055C268.528 473.463 267.045 474.783 264.912 476.015C262.805 477.231 260.533 478.079 258.094 478.559C255.683 479.023 253.258 479.079 250.819 478.727C248.408 478.391 246.191 477.639 244.168 476.471ZM246.122 475.295C248.533 476.687 251.027 477.327 253.604 477.215C255.073 477.135 256.528 476.871 257.969 476.423C259.466 475.975 260.921 475.343 262.334 474.527C265.383 472.767 266.935 471.039 266.99 469.343C267.073 467.855 266.02 466.479 263.831 465.215C262.639 464.528 261.406 464.024 260.131 463.704C258.884 463.4 257.623 463.264 256.348 463.296C254.879 463.344 253.397 463.592 251.9 464.04C250.459 464.488 249.004 465.135 247.535 465.983C246.094 466.815 244.958 467.663 244.126 468.527C243.351 469.391 242.907 470.239 242.796 471.071C242.658 472.527 243.766 473.935 246.122 475.295ZM267.093 489.705C265.014 488.505 263.657 487.225 263.019 485.866C262.409 484.49 262.506 483.106 263.31 481.714C264.142 480.338 265.666 479.01 267.883 477.73C269.934 476.546 272.178 475.714 274.617 475.234C277.056 474.754 279.495 474.674 281.934 474.994C284.4 475.33 286.645 476.082 288.668 477.25C290.746 478.45 292.077 479.746 292.659 481.138C293.268 482.514 293.144 483.898 292.284 485.29C291.453 486.698 289.97 488.017 287.836 489.249C285.73 490.465 283.458 491.313 281.019 491.793C278.608 492.257 276.183 492.313 273.744 491.961C271.333 491.625 269.116 490.873 267.093 489.705ZM269.047 488.529C271.458 489.921 273.952 490.561 276.529 490.449C277.998 490.369 279.453 490.105 280.894 489.657C282.391 489.209 283.846 488.577 285.259 487.761C288.308 486.002 289.86 484.274 289.915 482.578C289.998 481.09 288.945 479.714 286.756 478.45C285.564 477.762 284.331 477.258 283.056 476.938C281.809 476.634 280.548 476.498 279.273 476.53C277.804 476.578 276.322 476.826 274.825 477.274C273.384 477.722 271.929 478.37 270.46 479.218C269.019 480.05 267.883 480.898 267.051 481.762C266.275 482.626 265.832 483.474 265.721 484.306C265.583 485.762 266.691 487.169 269.047 488.529ZM288.563 502.1C285.958 500.596 284.475 499.02 284.115 497.372C283.81 495.724 284.822 494.244 287.15 492.933L289.644 494.132C287.87 495.124 287.108 496.236 287.357 497.468C287.635 498.716 288.729 499.892 290.642 500.996C292.471 502.052 294.23 502.668 295.921 502.844C297.639 503.036 299.15 502.756 300.452 502.004C301.311 501.508 301.727 500.948 301.699 500.324C301.671 499.7 301.367 499.076 300.785 498.452C300.23 497.844 299.399 497.06 298.29 496.1C298.152 495.956 298.013 495.828 297.875 495.716C297.736 495.604 297.598 495.476 297.459 495.332C296.267 494.26 295.408 493.333 294.882 492.549C294.355 491.765 294.175 491.005 294.341 490.269C294.535 489.549 295.187 488.869 296.295 488.229C297.431 487.573 298.748 487.181 300.244 487.053C301.768 486.909 303.307 487.029 304.858 487.413C306.466 487.797 307.99 488.405 309.431 489.237C311.731 490.565 313.062 491.973 313.422 493.461C313.81 494.932 313.048 496.364 311.136 497.756L308.475 496.652C309.944 495.644 310.595 494.596 310.429 493.509C310.29 492.405 309.306 491.325 307.477 490.269C306.009 489.421 304.484 488.909 302.905 488.733C301.325 488.557 299.981 488.789 298.872 489.429C297.819 490.037 297.431 490.725 297.708 491.493C298.041 492.261 298.928 493.301 300.369 494.612C300.452 494.692 300.549 494.764 300.66 494.828C300.771 494.892 300.854 494.956 300.909 495.02C300.937 495.068 300.979 495.124 301.034 495.188C301.117 495.236 301.186 495.276 301.242 495.308C302.572 496.46 303.556 497.444 304.193 498.26C304.886 499.076 305.163 499.908 305.025 500.756C304.942 501.604 304.235 502.412 302.905 503.18C300.882 504.348 298.581 504.812 296.004 504.572C293.482 504.332 291.002 503.508 288.563 502.1ZM309.242 514.086C307.801 513.254 306.706 512.366 305.958 511.422C305.237 510.494 304.905 509.534 304.96 508.542C304.988 507.47 305.431 506.414 306.29 505.374C307.205 504.335 308.563 503.295 310.364 502.255C312.083 501.263 313.87 500.503 315.727 499.975C317.611 499.463 319.51 499.199 321.422 499.183C323.14 499.183 324.789 499.383 326.369 499.783C327.976 500.199 329.431 500.783 330.734 501.535C332.286 502.431 333.38 503.431 334.018 504.535C334.655 505.638 334.78 506.782 334.392 507.966C334.115 508.894 333.477 509.838 332.48 510.798C331.51 511.742 330.29 512.606 328.821 513.39L312.526 503.983C309.616 505.694 308.119 507.294 308.036 508.782C307.981 510.286 309.076 511.686 311.32 512.982C313.233 514.086 315.2 514.694 317.223 514.806C319.274 514.902 321.283 514.558 323.251 513.774L325.288 515.238C322.655 516.278 319.925 516.702 317.099 516.51C314.327 516.318 311.708 515.51 309.242 514.086ZM314.147 503.095L313.898 502.519L328.863 511.158L328.032 511.062C328.863 510.55 329.584 509.958 330.193 509.286C330.803 508.614 331.232 507.966 331.482 507.342C331.787 506.462 331.676 505.63 331.149 504.846C330.678 504.063 329.861 503.335 328.697 502.663C327.644 502.055 326.507 501.607 325.288 501.319C324.124 501.031 322.946 500.911 321.754 500.959C319.399 501.039 317.043 501.647 314.688 502.783L314.147 503.095ZM333.571 527.555L362.67 510.756L373.062 516.756C375.085 517.924 376.554 519.044 377.469 520.115C378.411 521.203 378.73 522.315 378.425 523.451C378.148 524.571 377.025 525.699 375.058 526.835C373.34 527.827 371.427 528.403 369.321 528.563C367.243 528.707 365.178 528.427 363.127 527.723L363.501 527.315C365.303 528.835 366.134 530.243 365.995 531.539C365.857 532.835 364.748 534.083 362.67 535.282C360.702 536.418 358.707 537.074 356.684 537.25C354.688 537.41 352.665 537.186 350.615 536.578C348.591 535.954 346.388 534.955 344.005 533.579L333.571 527.555ZM346.125 532.403C348.065 533.523 349.755 534.323 351.197 534.803C352.665 535.298 354.134 535.49 355.603 535.378C357.127 535.266 358.665 534.763 360.217 533.867C361.908 532.891 362.795 531.931 362.878 530.987C362.989 530.027 362.573 529.131 361.631 528.299C360.716 527.451 359.386 526.523 357.64 525.515L349.825 521.003L338.102 527.771L346.125 532.403ZM359.344 524.051C361.256 525.155 362.919 525.923 364.333 526.355C365.801 526.787 367.201 526.939 368.531 526.811C369.889 526.667 371.261 526.195 372.647 525.395C374.116 524.547 374.947 523.715 375.141 522.899C375.363 522.067 375.099 521.259 374.351 520.475C373.603 519.692 372.411 518.828 370.776 517.884L363.002 513.396L351.945 519.78L359.344 524.051ZM364.556 546.019C362.533 544.851 361.396 543.587 361.147 542.227C360.925 540.883 361.701 539.699 363.475 538.675C364.722 537.955 366.025 537.523 367.383 537.379C368.768 537.251 370.154 537.331 371.54 537.619C372.925 537.907 374.38 538.347 375.904 538.939L385.382 542.635C385.466 542.587 385.549 542.539 385.632 542.491C385.715 542.443 385.784 542.403 385.84 542.371C386.976 541.715 387.807 541.139 388.334 540.643C388.916 540.147 389.193 539.635 389.165 539.107C389.165 538.595 388.902 538.059 388.375 537.499C387.877 536.955 387.142 536.403 386.172 535.843C384.121 534.659 382.237 534.035 380.519 533.971C378.828 533.891 377.055 534.387 375.198 535.459L373.161 533.899C374.242 533.243 375.419 532.771 376.694 532.483C378.025 532.195 379.327 532.1 380.602 532.195C381.877 532.291 383.151 532.563 384.426 533.011C385.757 533.459 387.031 534.035 388.251 534.739C389.941 535.715 391.105 536.675 391.743 537.619C392.435 538.563 392.56 539.499 392.117 540.427C391.701 541.339 390.703 542.251 389.124 543.163L378.232 549.45C377.623 549.802 377.276 550.082 377.193 550.29C377.165 550.498 377.429 550.762 377.983 551.082C378.454 551.354 379.05 551.618 379.77 551.874L377.817 553.05C376.985 552.73 376.251 552.386 375.613 552.018C374.477 551.362 373.951 550.706 374.034 550.05C374.117 549.394 374.934 548.65 376.486 547.818L376.985 547.818C375.073 548.346 373.036 548.482 370.874 548.226C368.741 547.954 366.634 547.219 364.556 546.019ZM366.967 545.107C369.212 546.403 371.498 547.083 373.826 547.147C376.182 547.227 378.315 546.715 380.228 545.611L384.717 543.019L384.967 544.219L374.283 540.211L373.867 540.067C372.232 539.475 370.805 539.163 369.586 539.131C368.394 539.083 367.23 539.387 366.094 540.043C364.819 540.779 364.279 541.603 364.473 542.515C364.694 543.411 365.526 544.275 366.967 545.107ZM388.93 560.042C386.796 558.81 385.424 557.506 384.815 556.13C384.233 554.77 384.371 553.41 385.23 552.05C386.117 550.675 387.642 549.363 389.803 548.115C391.882 546.915 394.126 546.067 396.538 545.571C398.976 545.091 401.401 545.019 403.812 545.355C406.251 545.675 408.482 546.419 410.505 547.587C412.916 548.979 414.219 550.467 414.413 552.05C414.634 553.618 413.914 555.154 412.251 556.658L409.466 555.578C410.796 554.362 411.433 553.194 411.378 552.074C411.323 550.955 410.339 549.843 408.427 548.739C407.124 547.987 405.78 547.467 404.394 547.179C403.064 546.891 401.706 546.811 400.32 546.939C399.046 547.035 397.729 547.315 396.371 547.779C395.041 548.259 393.725 548.875 392.422 549.627C389.651 551.227 388.071 552.794 387.683 554.33C387.295 555.866 388.39 557.378 390.967 558.866C392.824 559.938 394.695 560.554 396.579 560.714C398.464 560.874 400.487 560.554 402.648 559.754L404.685 561.218C403.022 561.858 401.277 562.242 399.447 562.37C397.646 562.514 395.831 562.394 394.002 562.01C392.2 561.61 390.51 560.954 388.93 560.042ZM402.205 567.178L431.304 550.379L433.716 551.771L404.616 568.57L402.205 567.178ZM412.141 563.938L414.926 562.378L435.96 562.81L439.161 564.658L422.741 564.202H421.078L412.141 563.938ZM416.131 575.217L420.247 563.962L423.531 563.986L418.917 576.825L416.131 575.217ZM428.808 583.111C427.367 582.279 426.272 581.391 425.524 580.447C424.803 579.519 424.47 578.559 424.526 577.568C424.554 576.496 424.997 575.44 425.856 574.4C426.771 573.36 428.129 572.32 429.93 571.28C431.648 570.288 433.436 569.528 435.293 569C437.177 568.488 439.075 568.224 440.988 568.208C442.706 568.208 444.355 568.408 445.935 568.808C447.542 569.224 448.997 569.808 450.299 570.56C451.851 571.456 452.946 572.456 453.583 573.56C454.221 574.664 454.346 575.808 453.958 576.992C453.68 577.92 453.043 578.863 452.045 579.823C451.075 580.767 449.856 581.631 448.387 582.415L432.092 573.008C429.182 574.72 427.685 576.32 427.602 577.808C427.547 579.311 428.641 580.711 430.886 582.007C432.798 583.111 434.766 583.719 436.789 583.831C438.84 583.927 440.849 583.583 442.817 582.799L444.854 584.263C442.221 585.303 439.491 585.727 436.664 585.535C433.893 585.343 431.274 584.535 428.808 583.111ZM433.713 572.12L433.463 571.544L448.429 580.183L447.597 580.087C448.429 579.575 449.149 578.983 449.759 578.312C450.369 577.64 450.798 576.992 451.048 576.368C451.353 575.488 451.242 574.656 450.715 573.872C450.244 573.088 449.426 572.36 448.262 571.688C447.209 571.08 446.073 570.632 444.854 570.344C443.69 570.056 442.512 569.936 441.32 569.984C438.965 570.064 436.609 570.672 434.253 571.808L433.713 572.12ZM442.778 590.6L463.438 578.673L465.849 580.065L460.778 582.993L460.986 582.585C463.009 581.897 465.073 581.649 467.179 581.841C469.286 582.033 471.309 582.689 473.249 583.809C474.524 584.545 475.452 585.305 476.034 586.088C476.671 586.872 476.99 587.664 476.99 588.464C476.962 589.312 476.519 590.112 475.66 590.864C474.828 591.6 473.706 592.376 472.293 593.192L459.78 600.416L457.286 598.976L469.383 591.992C469.41 591.976 469.438 591.96 469.466 591.944C469.494 591.928 469.521 591.912 469.549 591.896C470.796 591.176 471.752 590.544 472.417 590C473.082 589.456 473.443 588.848 473.498 588.176C473.581 587.52 473.36 586.912 472.833 586.352C472.306 585.793 471.544 585.225 470.547 584.649C468.967 583.737 466.972 583.209 464.561 583.065C462.205 582.921 459.6 583.673 456.745 585.321L445.189 591.992L442.778 590.6ZM472.866 608.498C471.065 607.458 469.86 606.282 469.25 604.971C468.668 603.675 468.765 602.323 469.541 600.915C470.317 599.507 471.855 598.139 474.155 596.811C476.4 595.515 478.769 594.643 481.264 594.195C483.758 593.747 486.141 593.699 488.414 594.051C490.714 594.387 492.723 595.051 494.441 596.043C496.298 597.115 497.448 598.259 497.892 599.475C498.363 600.707 498.197 601.923 497.393 603.123L496.52 603.195L509.656 595.611L512.109 597.027L483.01 613.826L480.557 612.41L485.628 609.482L485.587 609.938C483.342 610.498 481.111 610.666 478.894 610.442C476.705 610.202 474.696 609.554 472.866 608.498ZM475.153 607.514C476.206 608.122 477.287 608.57 478.395 608.858C479.532 609.162 480.695 609.306 481.887 609.29C483.356 609.274 484.853 609.018 486.377 608.522C487.929 608.042 489.508 607.338 491.116 606.41C493.943 604.779 495.508 603.203 495.813 601.683C496.146 600.179 495.148 598.755 492.82 597.411C491.712 596.771 490.534 596.299 489.287 595.995C488.067 595.707 486.806 595.587 485.504 595.635C484.063 595.699 482.608 595.963 481.139 596.427C479.67 596.891 478.229 597.531 476.816 598.347C474.931 599.435 473.601 600.507 472.825 601.563C472.077 602.635 471.883 603.675 472.243 604.683C472.659 605.691 473.629 606.634 475.153 607.514Z" fill="#FAFAFA"/>
</g>
<rect width="706" height="540" rx="40" transform="matrix(0.866044 0.499967 -0.866044 0.499967 467.664 0)" fill="black"/>
<rect width="676" height="42" rx="21" transform="matrix(0.866044 0.499967 -0.866044 0.499967 467.664 15)" fill="white" fill-opacity="0.1"/>
<rect width="331" height="219" rx="24" transform="matrix(0.866044 0.499967 -0.866044 0.499967 418.3 43.5)" fill="white" fill-opacity="0.1"/>
<line y1="-0.5" x2="21" y2="-0.5" transform="matrix(0.866044 -0.499967 0.866044 0.499967 263.278 152.992)" stroke="#FAFAFA"/>
<line y1="-0.5" x2="50" y2="-0.5" transform="matrix(0.866044 -0.499967 0.866044 0.499967 284.279 165.117)" stroke="#FAFAFA"/>
<line y1="-0.5" x2="55" y2="-0.5" transform="matrix(0.866044 -0.499967 0.866044 0.499967 305.281 177.242)" stroke="#FAFAFA"/>
<line y1="-0.5" x2="79" y2="-0.5" transform="matrix(0.866044 -0.499967 0.866044 0.499967 326.282 189.367)" stroke="#FAFAFA"/>
<line y1="-0.5" x2="79" y2="-0.5" transform="matrix(0.866044 -0.499967 0.866044 0.499967 347.284 201.492)" stroke="#FAFAFA"/>
<line y1="-0.5" x2="79" y2="-0.5" transform="matrix(0.866044 -0.499967 0.866044 0.499967 368.286 213.617)" stroke="#FAFAFA"/>
<line y1="-0.5" x2="59" y2="-0.5" transform="matrix(0.866044 -0.499967 0.866044 0.499967 389.287 225.734)" stroke="#FAFAFA"/>
<line y1="-0.5" x2="70" y2="-0.5" transform="matrix(0.866044 -0.499967 0.866044 0.499967 410.289 237.859)" stroke="#FAFAFA"/>
<line y1="-0.5" x2="59" y2="-0.5" transform="matrix(0.866044 -0.499967 0.866044 0.499967 431.29 249.984)" stroke="#FAFAFA"/>
<line y1="-0.5" x2="101" y2="-0.5" transform="matrix(0.866044 -0.499967 0.866044 0.499967 452.292 262.109)" stroke="#FAFAFA"/>
<line y1="-0.5" x2="89" y2="-0.5" transform="matrix(0.866044 -0.499967 0.866044 0.499967 473.294 274.234)" stroke="#FAFAFA"/>
<line y1="-0.5" x2="70" y2="-0.5" transform="matrix(0.866044 -0.499967 0.866044 0.499967 494.295 286.359)" stroke="#FAFAFA"/>
<line y1="-0.5" x2="30" y2="-0.5" transform="matrix(0.866044 -0.499967 0.866044 0.499967 515.297 298.484)" stroke="#FAFAFA"/>
<rect width="331" height="219" rx="24" transform="matrix(0.866044 0.499967 -0.866044 0.499967 717.085 215.992)" fill="white" fill-opacity="0.1"/>
<path d="M608.386 300.746L607.484 303.828C606.581 306.91 604.777 313.074 606.827 317.014C608.877 320.953 614.781 322.667 623.465 322.776C632.148 322.885 643.611 321.39 648.732 323.557C653.853 325.723 652.631 331.551 653.597 336.116C654.562 340.681 657.715 343.983 662.684 346.237C667.653 348.491 674.438 349.696 683.169 349.778C691.901 349.86 702.58 348.817 712.18 348.398C721.779 347.979 730.298 348.183 732.601 351.976C734.905 355.768 730.994 363.149 735.934 365.419C740.874 367.69 754.665 364.851 760.031 366.876C765.396 368.901 762.337 375.789 763.577 380.196C764.818 384.602 770.358 386.526 778.133 387.16C785.907 387.795 795.914 387.14 806.79 385.984C817.665 384.828 829.409 383.171 838.463 383.067C847.516 382.962 853.88 384.411 859.422 386.334C864.963 388.258 869.682 390.656 870.782 395.143C871.883 399.63 869.364 406.207 873.943 408.686C878.522 411.165 890.199 409.547 898.87 409.663C907.541 409.78 913.207 411.631 916.04 412.557L918.873 413.483" stroke="#FAFAFA"/>
<rect width="676" height="219" rx="24" transform="matrix(0.866044 0.499967 -0.866044 0.499967 215.646 160.492)" fill="white" fill-opacity="0.1"/>
<defs>
<clipPath id="clip0_4532_225802">
<rect width="706" height="540" rx="40" transform="matrix(0.866044 0.499967 -0.866044 0.499967 467.664 107)" fill="white"/>
</clipPath>
</defs>
</svg>
