<svg width="1777" height="1175" viewBox="0 0 1777 1175" fill="none" xmlns="http://www.w3.org/2000/svg">
<g clip-path="url(#clip0_7654_2083931)">
<g clip-path="url(#clip1_7654_2083931)">
<rect width="1176" height="720" rx="60" transform="matrix(0.866044 0.499967 -0.866044 0.499967 691.215 186.498)" fill="black"/>
<rect width="216" height="42" transform="matrix(0.866044 0.499967 -0.866044 0.499967 194.105 521.476)" fill="black"/>
<rect width="216" height="42" transform="matrix(0.866044 0.499967 -0.866044 0.499967 381.172 629.469)" fill="black"/>
<rect width="216" height="42" transform="matrix(0.866044 0.499967 -0.866044 0.499967 568.238 737.462)" fill="black"/>
<rect width="216" height="42" transform="matrix(0.866044 0.499967 -0.866044 0.499967 755.301 845.455)" fill="black"/>
<g clip-path="url(#clip2_7654_2083931)">
<rect width="216" height="70" transform="matrix(0.866044 0.499967 -0.866044 0.499967 942.367 953.448)" fill="black"/>
<g clip-path="url(#clip3_7654_2083931)">
<rect width="216" height="50" transform="matrix(0.866044 0.499967 -0.866044 0.499967 933.707 958.447)" fill="black"/>
<path d="M998.124 1031.63L1013.71 1022.63L1016.49 1024.24L1012.81 1026.36L1013.37 1025.82C1013.89 1025.64 1014.41 1025.51 1014.93 1025.42C1015.45 1025.34 1016.08 1025.32 1016.83 1025.37C1017.6 1025.41 1018.38 1025.53 1019.17 1025.75C1020 1025.96 1020.83 1026.31 1021.66 1026.79C1023.06 1027.6 1023.84 1028.48 1024 1029.44C1024.17 1030.4 1023.73 1031.33 1022.69 1032.25L1022.13 1031.96C1022.96 1031.67 1023.75 1031.47 1024.5 1031.35C1025.25 1031.23 1026.07 1031.18 1026.96 1031.22C1027.77 1031.26 1028.56 1031.38 1029.33 1031.58C1030.1 1031.78 1030.92 1032.14 1031.8 1032.64C1032.96 1033.31 1033.72 1034 1034.07 1034.71C1034.45 1035.43 1034.4 1036.16 1033.95 1036.91C1033.49 1037.65 1032.62 1038.39 1031.33 1039.14L1021.23 1044.97L1018.36 1043.31L1027.52 1038.02C1028.48 1037.47 1029.17 1037.01 1029.58 1036.65C1030.02 1036.28 1030.23 1035.86 1030.21 1035.4C1030.21 1034.96 1030.03 1034.59 1029.68 1034.26C1029.32 1033.94 1028.92 1033.64 1028.46 1033.38C1027.55 1032.85 1026.5 1032.57 1025.31 1032.53C1024.46 1032.52 1023.59 1032.62 1022.69 1032.82C1021.82 1033.04 1020.81 1033.48 1019.67 1034.14L1011.06 1039.1L1008.19 1037.45L1017.36 1032.16L1017.49 1032.08C1018.38 1031.57 1019.03 1031.13 1019.45 1030.77C1019.89 1030.4 1020.08 1029.98 1020.04 1029.53C1020.04 1029.1 1019.87 1028.72 1019.51 1028.39C1019.16 1028.07 1018.75 1027.78 1018.3 1027.51C1017.84 1027.25 1017.34 1027.04 1016.8 1026.9C1016.26 1026.76 1015.71 1026.68 1015.15 1026.67C1014.29 1026.65 1013.42 1026.75 1012.53 1026.95C1011.66 1027.17 1010.65 1027.61 1009.5 1028.27L1000.9 1033.24L998.124 1031.63ZM1031.3 1051.22C1029.7 1050.3 1028.63 1049.31 1028.09 1048.25C1027.59 1047.19 1027.64 1046.13 1028.25 1045.06C1028.85 1044 1029.99 1042.98 1031.68 1042C1033.26 1041.09 1034.97 1040.46 1036.82 1040.11C1038.71 1039.77 1040.58 1039.73 1042.43 1040.01C1044.32 1040.28 1046.06 1040.88 1047.64 1041.79C1049.2 1042.69 1050.21 1043.68 1050.66 1044.76C1051.16 1045.84 1051.1 1046.92 1050.48 1048C1049.87 1049.09 1048.79 1050.09 1047.23 1050.99C1045.61 1051.92 1043.86 1052.56 1041.96 1052.91C1040.09 1053.25 1038.22 1053.27 1036.35 1052.98C1034.52 1052.69 1032.84 1052.11 1031.3 1051.22ZM1033.52 1049.94C1035.05 1050.83 1036.64 1051.24 1038.29 1051.18C1039.22 1051.15 1040.18 1050.97 1041.15 1050.64C1042.15 1050.31 1043.17 1049.84 1044.21 1049.24C1046.37 1047.99 1047.49 1046.84 1047.58 1045.78C1047.64 1044.84 1046.92 1043.93 1045.43 1043.07C1044.66 1042.62 1043.89 1042.3 1043.12 1042.09C1042.37 1041.88 1041.61 1041.78 1040.84 1041.79C1039.87 1041.8 1038.86 1041.97 1037.82 1042.31C1036.82 1042.65 1035.78 1043.13 1034.7 1043.75C1033.62 1044.37 1032.78 1044.98 1032.18 1045.57C1031.61 1046.16 1031.32 1046.73 1031.3 1047.3C1031.26 1048.18 1032 1049.07 1033.52 1049.94ZM1048.74 1061.29C1047.14 1060.36 1046.07 1059.37 1045.53 1058.32C1045.03 1057.26 1045.08 1056.2 1045.68 1055.13C1046.29 1054.06 1047.43 1053.04 1049.11 1052.07C1050.69 1051.16 1052.41 1050.53 1054.26 1050.18C1056.15 1049.83 1058.02 1049.8 1059.87 1050.07C1061.76 1050.35 1063.5 1050.94 1065.08 1051.85C1066.64 1052.75 1067.64 1053.74 1068.1 1054.82C1068.6 1055.9 1068.54 1056.98 1067.91 1058.06C1067.31 1059.16 1066.23 1060.15 1064.67 1061.05C1063.05 1061.99 1061.29 1062.63 1059.4 1062.98C1057.53 1063.31 1055.66 1063.34 1053.79 1063.05C1051.96 1062.76 1050.28 1062.17 1048.74 1061.29ZM1050.95 1060.01C1052.49 1060.9 1054.08 1061.31 1055.72 1061.25C1056.66 1061.21 1057.61 1061.03 1058.59 1060.71C1059.59 1060.37 1060.61 1059.91 1061.65 1059.31C1063.81 1058.06 1064.93 1056.91 1065.01 1055.85C1065.08 1054.9 1064.36 1054 1062.86 1053.13C1062.09 1052.69 1061.32 1052.36 1060.56 1052.16C1059.81 1051.94 1059.05 1051.84 1058.28 1051.85C1057.3 1051.87 1056.29 1052.04 1055.26 1052.38C1054.26 1052.71 1053.22 1053.19 1052.14 1053.82C1051.06 1054.44 1050.22 1055.05 1049.61 1055.63C1049.05 1056.22 1048.76 1056.8 1048.74 1057.36C1048.7 1058.25 1049.44 1059.13 1050.95 1060.01ZM1064.93 1070.63C1063.04 1069.54 1061.92 1068.36 1061.56 1067.1C1061.21 1065.84 1061.96 1064.69 1063.81 1063.65L1066.61 1064.98C1065.51 1065.59 1065 1066.29 1065.09 1067.09C1065.19 1067.87 1065.85 1068.61 1067.08 1069.32C1068.35 1070.05 1069.51 1070.48 1070.57 1070.61C1071.65 1070.73 1072.61 1070.55 1073.44 1070.07C1073.88 1069.82 1074.06 1069.51 1074 1069.14C1073.96 1068.78 1073.75 1068.41 1073.38 1068.02C1073.05 1067.64 1072.57 1067.16 1071.94 1066.58C1071.78 1066.44 1071.61 1066.29 1071.45 1066.15C1071.3 1065.99 1071.14 1065.84 1070.98 1065.7C1070.17 1064.92 1069.56 1064.25 1069.17 1063.68C1068.82 1063.12 1068.7 1062.54 1068.83 1061.94C1068.95 1061.34 1069.49 1060.76 1070.45 1060.21C1071.47 1059.62 1072.59 1059.29 1073.82 1059.2C1075.06 1059.13 1076.28 1059.26 1077.46 1059.58C1078.69 1059.9 1079.79 1060.35 1080.77 1060.91C1082.58 1061.96 1083.67 1063.05 1084.04 1064.21C1084.42 1065.36 1083.79 1066.5 1082.17 1067.63L1079.15 1066.35C1080.21 1065.71 1080.67 1065.03 1080.55 1064.31C1080.42 1063.59 1079.75 1062.88 1078.52 1062.17C1077.69 1061.69 1076.77 1061.39 1075.75 1061.25C1074.75 1061.11 1073.92 1061.23 1073.25 1061.61C1072.65 1061.96 1072.5 1062.39 1072.79 1062.89C1073.08 1063.4 1073.65 1064.05 1074.5 1064.85C1074.52 1064.89 1074.56 1064.93 1074.63 1064.96C1074.69 1065 1074.73 1065.03 1074.75 1065.07C1074.79 1065.12 1074.82 1065.16 1074.84 1065.2C1074.91 1065.23 1074.97 1065.27 1075.03 1065.3C1076.09 1066.23 1076.87 1067 1077.37 1067.63C1077.89 1068.24 1078.11 1068.88 1078.02 1069.55C1077.94 1070.22 1077.35 1070.88 1076.25 1071.51C1074.5 1072.52 1072.63 1072.89 1070.64 1072.63C1068.66 1072.35 1066.76 1071.69 1064.93 1070.63ZM1080.75 1079.76C1079.54 1079.07 1078.66 1078.34 1078.1 1077.59C1077.53 1076.83 1077.31 1076.04 1077.41 1075.21C1077.49 1074.42 1077.87 1073.65 1078.53 1072.91C1079.22 1072.15 1080.18 1071.41 1081.43 1070.69C1082.6 1070.02 1083.83 1069.5 1085.14 1069.13C1086.47 1068.74 1087.82 1068.53 1089.2 1068.48C1090.65 1068.43 1092.04 1068.56 1093.37 1068.87C1094.7 1069.19 1095.93 1069.67 1097.05 1070.31C1098.32 1071.05 1099.22 1071.88 1099.76 1072.82C1100.33 1073.74 1100.42 1074.67 1100.05 1075.61C1099.77 1076.31 1099.22 1077.04 1098.39 1077.78C1097.58 1078.52 1096.59 1079.18 1095.43 1079.78L1083.61 1072.96C1081.93 1073.98 1081.04 1074.94 1080.93 1075.84C1080.83 1076.74 1081.5 1077.61 1082.96 1078.45C1084.29 1079.22 1085.6 1079.65 1086.89 1079.75C1088.2 1079.83 1089.54 1079.58 1090.91 1079.01L1093.4 1080.7C1091.26 1081.55 1089.11 1081.89 1086.95 1081.72C1084.81 1081.57 1082.74 1080.91 1080.75 1079.76ZM1085.83 1071.72L1085.52 1071.43L1095.03 1076.92L1094.74 1076.87C1095.18 1076.61 1095.59 1076.28 1095.96 1075.88C1096.38 1075.47 1096.65 1075.08 1096.77 1074.72C1096.96 1074.16 1096.89 1073.63 1096.55 1073.12C1096.24 1072.63 1095.66 1072.14 1094.81 1071.65C1093.95 1071.15 1093.05 1070.81 1092.09 1070.62C1091.16 1070.42 1090.28 1070.37 1089.44 1070.49C1088.24 1070.66 1087.11 1071.03 1086.05 1071.59L1085.83 1071.72Z" fill="white"/>
</g>
</g>
</g>
<rect y="-0.499967" width="1177" height="721" rx="60.5" transform="matrix(0.866044 0.499967 -0.866044 0.499967 690.782 186.248)" stroke="white"/>
</g>
<g clip-path="url(#clip4_7654_2083931)">
<g clip-path="url(#clip5_7654_2083931)">
<rect width="571" height="354" rx="40" transform="matrix(0.863779 0.503871 -0.863779 0.503871 680.25 33.7594)" fill="black"/>
<mask id="path-7-inside-1_7654_2083931" fill="white">
<path d="M661.25 64.9994L752.983 118.51L716.705 139.673L624.971 86.162L661.25 64.9994Z"/>
</mask>
<path d="M661.25 64.9994L752.983 118.51L716.705 139.673L624.971 86.162L661.25 64.9994Z" fill="black"/>
<path d="M717.568 139.169L625.835 85.6581L624.108 86.6658L715.841 140.177L717.568 139.169Z" fill="#7F7F7F" mask="url(#path-7-inside-1_7654_2083931)"/>
<mask id="path-9-inside-2_7654_2083931" fill="white">
<path d="M752.984 118.51L844.718 172.022L808.439 193.184L716.706 139.673L752.984 118.51Z"/>
</mask>
<path d="M752.984 118.51L844.718 172.022L808.439 193.184L716.706 139.673L752.984 118.51Z" fill="black"/>
<path d="M809.303 192.68L717.569 139.169L715.842 140.177L807.575 193.688L809.303 192.68Z" fill="#7F7F7F" mask="url(#path-9-inside-2_7654_2083931)"/>
<mask id="path-11-inside-3_7654_2083931" fill="white">
<path d="M844.715 172.022L936.448 225.533L900.169 246.695L808.436 193.184L844.715 172.022Z"/>
</mask>
<path d="M844.715 172.022L936.448 225.533L900.169 246.695L808.436 193.184L844.715 172.022Z" fill="black"/>
<path d="M901.033 246.191L809.3 192.68L807.572 193.688L899.306 247.199L901.033 246.191Z" fill="#7F7F7F" mask="url(#path-11-inside-3_7654_2083931)"/>
<mask id="path-13-inside-4_7654_2083931" fill="white">
<path d="M936.449 225.533L1028.18 279.044L991.904 300.206L900.171 246.695L936.449 225.533Z"/>
</mask>
<path d="M936.449 225.533L1028.18 279.044L991.904 300.206L900.171 246.695L936.449 225.533Z" fill="black"/>
<path d="M992.768 299.703L901.034 246.191L899.307 247.199L991.04 300.71L992.768 299.703Z" fill="#7F7F7F" mask="url(#path-13-inside-4_7654_2083931)"/>
<mask id="path-15-inside-5_7654_2083931" fill="white">
<path d="M1028.18 279.044L1119.92 332.555L1083.64 353.718L991.905 300.206L1028.18 279.044Z"/>
</mask>
<path d="M1028.18 279.044L1119.92 332.555L1083.64 353.718L991.905 300.206L1028.18 279.044Z" fill="black"/>
<path d="M1084.5 353.214L992.769 299.703L991.041 300.71L1082.77 354.221L1084.5 353.214Z" fill="#7F7F7F" mask="url(#path-15-inside-5_7654_2083931)"/>
<mask id="path-17-inside-6_7654_2083931" fill="white">
<path d="M588.691 107.325L680.425 160.836L644.146 181.998L552.413 128.487L588.691 107.325Z"/>
</mask>
<path d="M588.691 107.325L680.425 160.836L644.146 181.998L552.413 128.487L588.691 107.325Z" fill="black"/>
<path d="M645.01 181.494L553.276 127.983L551.549 128.991L643.282 182.502L645.01 181.494Z" fill="#7F7F7F" mask="url(#path-17-inside-6_7654_2083931)"/>
<mask id="path-19-inside-7_7654_2083931" fill="white">
<path d="M680.426 160.836L772.159 214.347L735.88 235.509L644.147 181.998L680.426 160.836Z"/>
</mask>
<path d="M680.426 160.836L772.159 214.347L735.88 235.509L644.147 181.998L680.426 160.836Z" fill="black"/>
<path d="M736.744 235.006L645.011 181.494L643.283 182.502L735.017 236.013L736.744 235.006Z" fill="#7F7F7F" mask="url(#path-19-inside-7_7654_2083931)"/>
<mask id="path-21-inside-8_7654_2083931" fill="white">
<path d="M772.156 214.347L863.89 267.858L827.611 289.02L735.878 235.509L772.156 214.347Z"/>
</mask>
<path d="M772.156 214.347L863.89 267.858L827.611 289.02L735.878 235.509L772.156 214.347Z" fill="black"/>
<path d="M828.475 288.517L736.741 235.006L735.014 236.013L826.747 289.524L828.475 288.517Z" fill="#7F7F7F" mask="url(#path-21-inside-8_7654_2083931)"/>
<mask id="path-23-inside-9_7654_2083931" fill="white">
<path d="M863.891 267.858L955.624 321.369L919.345 342.532L827.612 289.02L863.891 267.858Z"/>
</mask>
<path d="M863.891 267.858L955.624 321.369L919.345 342.532L827.612 289.02L863.891 267.858Z" fill="black"/>
<path d="M920.209 342.028L828.476 288.517L826.748 289.524L918.481 343.035L920.209 342.028Z" fill="#7F7F7F" mask="url(#path-23-inside-9_7654_2083931)"/>
<mask id="path-25-inside-10_7654_2083931" fill="white">
<path d="M955.625 321.369L1047.36 374.88L1011.08 396.043L919.346 342.532L955.625 321.369Z"/>
</mask>
<path d="M955.625 321.369L1047.36 374.88L1011.08 396.043L919.346 342.532L955.625 321.369Z" fill="black"/>
<path d="M1011.94 395.539L920.21 342.028L918.483 343.035L1010.22 396.547L1011.94 395.539Z" fill="#7F7F7F" mask="url(#path-25-inside-10_7654_2083931)"/>
<mask id="path-27-inside-11_7654_2083931" fill="white">
<path d="M516.133 149.65L607.866 203.161L571.587 224.323L479.854 170.812L516.133 149.65Z"/>
</mask>
<path d="M516.133 149.65L607.866 203.161L571.587 224.323L479.854 170.812L516.133 149.65Z" fill="black"/>
<path d="M572.451 223.819L480.718 170.308L478.99 171.316L570.724 224.827L572.451 223.819Z" fill="#7F7F7F" mask="url(#path-27-inside-11_7654_2083931)"/>
<mask id="path-29-inside-12_7654_2083931" fill="white">
<path d="M607.867 203.161L699.601 256.672L663.322 277.834L571.588 224.323L607.867 203.161Z"/>
</mask>
<path d="M607.867 203.161L699.601 256.672L663.322 277.834L571.588 224.323L607.867 203.161Z" fill="black"/>
<path d="M664.186 277.331L572.452 223.819L570.725 224.827L662.458 278.338L664.186 277.331Z" fill="#7F7F7F" mask="url(#path-29-inside-12_7654_2083931)"/>
<mask id="path-31-inside-13_7654_2083931" fill="white">
<path d="M699.598 256.672L791.331 310.183L755.052 331.346L663.319 277.834L699.598 256.672Z"/>
</mask>
<path d="M699.598 256.672L791.331 310.183L755.052 331.346L663.319 277.834L699.598 256.672Z" fill="black"/>
<path d="M755.916 330.842L664.183 277.331L662.455 278.338L754.188 331.849L755.916 330.842Z" fill="#7F7F7F" mask="url(#path-31-inside-13_7654_2083931)"/>
<mask id="path-33-inside-14_7654_2083931" fill="white">
<path d="M791.332 310.183L883.065 363.694L846.787 384.857L755.053 331.346L791.332 310.183Z"/>
</mask>
<path d="M791.332 310.183L883.065 363.694L846.787 384.857L755.053 331.346L791.332 310.183Z" fill="black"/>
<path d="M847.65 384.353L755.917 330.842L754.19 331.849L845.923 385.361L847.65 384.353Z" fill="#7F7F7F" mask="url(#path-33-inside-14_7654_2083931)"/>
<mask id="path-35-inside-15_7654_2083931" fill="white">
<path d="M883.066 363.694L974.8 417.205L938.521 438.368L846.788 384.857L883.066 363.694Z"/>
</mask>
<path d="M883.066 363.694L974.8 417.205L938.521 438.368L846.788 384.857L883.066 363.694Z" fill="black"/>
<path d="M939.385 437.864L847.651 384.353L845.924 385.361L937.657 438.872L939.385 437.864Z" fill="#7F7F7F" mask="url(#path-35-inside-15_7654_2083931)"/>
</g>
<rect y="-0.503871" width="572" height="355" rx="40.5" transform="matrix(0.863779 0.503871 -0.863779 0.503871 679.815 33.5094)" stroke="white"/>
<g clip-path="url(#clip6_7654_2083931)">
<rect width="571" height="354" rx="40" transform="matrix(0.863779 0.503871 -0.863779 0.503871 1202.84 338.601)" fill="black"/>
<g clip-path="url(#clip7_7654_2083931)">
<path d="M1185.56 348.679C1195.1 343.113 1210.57 343.113 1220.11 348.679L1678.78 616.234C1688.32 621.8 1688.32 630.823 1678.78 636.389L1407.55 794.605C1398.01 800.17 1382.54 800.17 1373 794.605L914.334 527.049C904.793 521.483 904.793 512.46 914.334 506.894L1185.56 348.679Z" fill="black"/>
<mask id="path-41-inside-16_7654_2083931" fill="white">
<path d="M1212.34 353.214L1304.07 406.725L1267.79 427.887L1176.06 374.376L1212.34 353.214Z"/>
</mask>
<path d="M1212.34 353.214L1304.07 406.725L1267.79 427.887L1176.06 374.376L1212.34 353.214Z" fill="black"/>
<path d="M1268.66 427.383L1176.92 373.872L1175.2 374.88L1266.93 428.391L1268.66 427.383Z" fill="#7F7F7F" mask="url(#path-41-inside-16_7654_2083931)"/>
<mask id="path-43-inside-17_7654_2083931" fill="white">
<path d="M1304.07 406.725L1395.81 460.236L1359.53 481.398L1267.8 427.887L1304.07 406.725Z"/>
</mask>
<path d="M1304.07 406.725L1395.81 460.236L1359.53 481.398L1267.8 427.887L1304.07 406.725Z" fill="black"/>
<path d="M1360.39 480.894L1268.66 427.383L1266.93 428.391L1358.67 481.902L1360.39 480.894Z" fill="#7F7F7F" mask="url(#path-43-inside-17_7654_2083931)"/>
<mask id="path-45-inside-18_7654_2083931" fill="white">
<path d="M1395.8 460.236L1487.54 513.747L1451.26 534.909L1359.53 481.398L1395.8 460.236Z"/>
</mask>
<path d="M1395.8 460.236L1487.54 513.747L1451.26 534.909L1359.53 481.398L1395.8 460.236Z" fill="black"/>
<path d="M1452.12 534.406L1360.39 480.894L1358.66 481.902L1450.4 535.413L1452.12 534.406Z" fill="#7F7F7F" mask="url(#path-45-inside-18_7654_2083931)"/>
<mask id="path-47-inside-19_7654_2083931" fill="white">
<path d="M1487.54 513.747L1579.27 567.258L1542.99 588.421L1451.26 534.909L1487.54 513.747Z"/>
</mask>
<path d="M1487.54 513.747L1579.27 567.258L1542.99 588.421L1451.26 534.909L1487.54 513.747Z" fill="black"/>
<path d="M1543.86 587.917L1452.12 534.406L1450.4 535.413L1542.13 588.924L1543.86 587.917Z" fill="#7F7F7F" mask="url(#path-47-inside-19_7654_2083931)"/>
<mask id="path-49-inside-20_7654_2083931" fill="white">
<path d="M1579.27 567.258L1671.01 620.769L1634.73 641.932L1542.99 588.421L1579.27 567.258Z"/>
</mask>
<path d="M1579.27 567.258L1671.01 620.769L1634.73 641.932L1542.99 588.421L1579.27 567.258Z" fill="black"/>
<path d="M1635.59 641.428L1543.86 587.917L1542.13 588.924L1633.86 642.435L1635.59 641.428Z" fill="#7F7F7F" mask="url(#path-49-inside-20_7654_2083931)"/>
<mask id="path-51-inside-21_7654_2083931" fill="white">
<path d="M1176.06 374.376L1267.8 427.887L1231.52 449.05L1139.78 395.539L1176.06 374.376Z"/>
</mask>
<path d="M1176.06 374.376L1267.8 427.887L1231.52 449.05L1139.78 395.539L1176.06 374.376Z" fill="black"/>
<path d="M1232.38 448.546L1140.65 395.035L1138.92 396.043L1230.65 449.554L1232.38 448.546Z" fill="#7F7F7F" mask="url(#path-51-inside-21_7654_2083931)"/>
<mask id="path-53-inside-22_7654_2083931" fill="white">
<path d="M1267.8 427.887L1359.53 481.398L1323.25 502.561L1231.52 449.05L1267.8 427.887Z"/>
</mask>
<path d="M1267.8 427.887L1359.53 481.398L1323.25 502.561L1231.52 449.05L1267.8 427.887Z" fill="black"/>
<path d="M1324.12 502.057L1232.38 448.546L1230.65 449.554L1322.39 503.065L1324.12 502.057Z" fill="#7F7F7F" mask="url(#path-53-inside-22_7654_2083931)"/>
<mask id="path-55-inside-23_7654_2083931" fill="white">
<path d="M1359.53 481.398L1451.26 534.909L1414.98 556.072L1323.25 502.561L1359.53 481.398Z"/>
</mask>
<path d="M1359.53 481.398L1451.26 534.909L1414.98 556.072L1323.25 502.561L1359.53 481.398Z" fill="black"/>
<path d="M1415.85 555.568L1324.11 502.057L1322.38 503.065L1414.12 556.576L1415.85 555.568Z" fill="#7F7F7F" mask="url(#path-55-inside-23_7654_2083931)"/>
<mask id="path-57-inside-24_7654_2083931" fill="white">
<path d="M1451.26 534.909L1543 588.421L1506.72 609.583L1414.98 556.072L1451.26 534.909Z"/>
</mask>
<path d="M1451.26 534.909L1543 588.421L1506.72 609.583L1414.98 556.072L1451.26 534.909Z" fill="black"/>
<path d="M1507.58 609.079L1415.85 555.568L1414.12 556.576L1505.85 610.087L1507.58 609.079Z" fill="#7F7F7F" mask="url(#path-57-inside-24_7654_2083931)"/>
<mask id="path-59-inside-25_7654_2083931" fill="white">
<path d="M1543 588.421L1634.73 641.932L1598.45 663.094L1506.72 609.583L1543 588.421Z"/>
</mask>
<path d="M1543 588.421L1634.73 641.932L1598.45 663.094L1506.72 609.583L1543 588.421Z" fill="black"/>
<path d="M1599.31 662.59L1507.58 609.079L1505.85 610.087L1597.59 663.598L1599.31 662.59Z" fill="#7F7F7F" mask="url(#path-59-inside-25_7654_2083931)"/>
<mask id="path-61-inside-26_7654_2083931" fill="white">
<path d="M1139.78 395.539L1231.51 449.05L1195.24 470.212L1103.5 416.701L1139.78 395.539Z"/>
</mask>
<path d="M1139.78 395.539L1231.51 449.05L1195.24 470.212L1103.5 416.701L1139.78 395.539Z" fill="black"/>
<path d="M1196.1 469.709L1104.37 416.197L1102.64 417.205L1194.37 470.716L1196.1 469.709Z" fill="#7F7F7F" mask="url(#path-61-inside-26_7654_2083931)"/>
<mask id="path-63-inside-27_7654_2083931" fill="white">
<path d="M1231.52 449.05L1323.25 502.561L1286.97 523.723L1195.24 470.212L1231.52 449.05Z"/>
</mask>
<path d="M1231.52 449.05L1323.25 502.561L1286.97 523.723L1195.24 470.212L1231.52 449.05Z" fill="black"/>
<path d="M1287.83 523.22L1196.1 469.709L1194.37 470.716L1286.11 524.227L1287.83 523.22Z" fill="#7F7F7F" mask="url(#path-63-inside-27_7654_2083931)"/>
<mask id="path-65-inside-28_7654_2083931" fill="white">
<path d="M1323.25 502.561L1414.98 556.072L1378.7 577.235L1286.97 523.723L1323.25 502.561Z"/>
</mask>
<path d="M1323.25 502.561L1414.98 556.072L1378.7 577.235L1286.97 523.723L1323.25 502.561Z" fill="black"/>
<path d="M1379.56 576.731L1287.83 523.22L1286.1 524.227L1377.84 577.738L1379.56 576.731Z" fill="#7F7F7F" mask="url(#path-65-inside-28_7654_2083931)"/>
<mask id="path-67-inside-29_7654_2083931" fill="white">
<path d="M1414.98 556.072L1506.71 609.583L1470.44 630.746L1378.7 577.235L1414.98 556.072Z"/>
</mask>
<path d="M1414.98 556.072L1506.71 609.583L1470.44 630.746L1378.7 577.235L1414.98 556.072Z" fill="black"/>
<path d="M1471.3 630.242L1379.57 576.731L1377.84 577.738L1469.57 631.25L1471.3 630.242Z" fill="#7F7F7F" mask="url(#path-67-inside-29_7654_2083931)"/>
<mask id="path-69-inside-30_7654_2083931" fill="white">
<path d="M1506.71 609.583L1598.45 663.094L1562.17 684.257L1470.44 630.746L1506.71 609.583Z"/>
</mask>
<path d="M1506.71 609.583L1598.45 663.094L1562.17 684.257L1470.44 630.746L1506.71 609.583Z" fill="black"/>
<path d="M1563.03 683.753L1471.3 630.242L1469.57 631.25L1561.31 684.761L1563.03 683.753Z" fill="#7F7F7F" mask="url(#path-69-inside-30_7654_2083931)"/>
<mask id="path-71-inside-31_7654_2083931" fill="white">
<path d="M1103.5 416.701L1195.24 470.212L1158.96 491.375L1067.23 437.864L1103.5 416.701Z"/>
</mask>
<path d="M1103.5 416.701L1195.24 470.212L1158.96 491.375L1067.23 437.864L1103.5 416.701Z" fill="black"/>
<path d="M1159.82 490.871L1068.09 437.36L1066.36 438.368L1158.09 491.879L1159.82 490.871Z" fill="#7F7F7F" mask="url(#path-71-inside-31_7654_2083931)"/>
<mask id="path-73-inside-32_7654_2083931" fill="white">
<path d="M1195.24 470.212L1286.97 523.724L1250.69 544.886L1158.96 491.375L1195.24 470.212Z"/>
</mask>
<path d="M1195.24 470.212L1286.97 523.724L1250.69 544.886L1158.96 491.375L1195.24 470.212Z" fill="black"/>
<path d="M1251.56 544.382L1159.82 490.871L1158.1 491.879L1249.83 545.39L1251.56 544.382Z" fill="#7F7F7F" mask="url(#path-73-inside-32_7654_2083931)"/>
<mask id="path-75-inside-33_7654_2083931" fill="white">
<path d="M1286.97 523.724L1378.7 577.235L1342.42 598.397L1250.69 544.886L1286.97 523.724Z"/>
</mask>
<path d="M1286.97 523.724L1378.7 577.235L1342.42 598.397L1250.69 544.886L1286.97 523.724Z" fill="black"/>
<path d="M1343.29 597.893L1251.55 544.382L1249.83 545.39L1341.56 598.901L1343.29 597.893Z" fill="#7F7F7F" mask="url(#path-75-inside-33_7654_2083931)"/>
<mask id="path-77-inside-34_7654_2083931" fill="white">
<path d="M1378.7 577.235L1470.44 630.746L1434.16 651.908L1342.42 598.397L1378.7 577.235Z"/>
</mask>
<path d="M1378.7 577.235L1470.44 630.746L1434.16 651.908L1342.42 598.397L1378.7 577.235Z" fill="black"/>
<path d="M1435.02 651.404L1343.29 597.893L1341.56 598.901L1433.29 652.412L1435.02 651.404Z" fill="#7F7F7F" mask="url(#path-77-inside-34_7654_2083931)"/>
<mask id="path-79-inside-35_7654_2083931" fill="white">
<path d="M1470.44 630.746L1562.17 684.257L1525.89 705.419L1434.16 651.908L1470.44 630.746Z"/>
</mask>
<path d="M1470.44 630.746L1562.17 684.257L1525.89 705.419L1434.16 651.908L1470.44 630.746Z" fill="black"/>
<path d="M1526.76 704.916L1435.02 651.404L1433.3 652.412L1525.03 705.923L1526.76 704.916Z" fill="#7F7F7F" mask="url(#path-79-inside-35_7654_2083931)"/>
<mask id="path-81-inside-36_7654_2083931" fill="white">
<path d="M1067.22 437.864L1158.96 491.375L1122.68 512.538L1030.94 459.026L1067.22 437.864Z"/>
</mask>
<path d="M1067.22 437.864L1158.96 491.375L1122.68 512.538L1030.94 459.026L1067.22 437.864Z" fill="black"/>
<path d="M1123.54 512.034L1031.81 458.523L1030.08 459.53L1121.81 513.041L1123.54 512.034Z" fill="#7F7F7F" mask="url(#path-81-inside-36_7654_2083931)"/>
<mask id="path-83-inside-37_7654_2083931" fill="white">
<path d="M1158.96 491.375L1250.69 544.886L1214.41 566.049L1122.68 512.538L1158.96 491.375Z"/>
</mask>
<path d="M1158.96 491.375L1250.69 544.886L1214.41 566.049L1122.68 512.538L1158.96 491.375Z" fill="black"/>
<path d="M1215.28 565.545L1123.54 512.034L1121.81 513.041L1213.55 566.553L1215.28 565.545Z" fill="#7F7F7F" mask="url(#path-83-inside-37_7654_2083931)"/>
<mask id="path-85-inside-38_7654_2083931" fill="white">
<path d="M1250.69 544.886L1342.42 598.397L1306.14 619.56L1214.41 566.049L1250.69 544.886Z"/>
</mask>
<path d="M1250.69 544.886L1342.42 598.397L1306.14 619.56L1214.41 566.049L1250.69 544.886Z" fill="black"/>
<path d="M1307.01 619.056L1215.27 565.545L1213.55 566.553L1305.28 620.064L1307.01 619.056Z" fill="#7F7F7F" mask="url(#path-85-inside-38_7654_2083931)"/>
<mask id="path-87-inside-39_7654_2083931" fill="white">
<path d="M1342.42 598.397L1434.16 651.908L1397.88 673.071L1306.14 619.56L1342.42 598.397Z"/>
</mask>
<path d="M1342.42 598.397L1434.16 651.908L1397.88 673.071L1306.14 619.56L1342.42 598.397Z" fill="black"/>
<path d="M1398.74 672.567L1307.01 619.056L1305.28 620.064L1397.01 673.575L1398.74 672.567Z" fill="#7F7F7F" mask="url(#path-87-inside-39_7654_2083931)"/>
<mask id="path-89-inside-40_7654_2083931" fill="white">
<path d="M1434.16 651.908L1525.89 705.419L1489.61 726.582L1397.88 673.071L1434.16 651.908Z"/>
</mask>
<path d="M1434.16 651.908L1525.89 705.419L1489.61 726.582L1397.88 673.071L1434.16 651.908Z" fill="black"/>
<path d="M1490.47 726.078L1398.74 672.567L1397.01 673.575L1488.75 727.086L1490.47 726.078Z" fill="#7F7F7F" mask="url(#path-89-inside-40_7654_2083931)"/>
<mask id="path-91-inside-41_7654_2083931" fill="white">
<path d="M1030.95 459.026L1122.68 512.538L1086.4 533.7L994.667 480.189L1030.95 459.026Z"/>
</mask>
<path d="M1030.95 459.026L1122.68 512.538L1086.4 533.7L994.667 480.189L1030.95 459.026Z" fill="black"/>
<path d="M1087.26 533.196L995.53 479.685L993.803 480.693L1085.54 534.204L1087.26 533.196Z" fill="#7F7F7F" mask="url(#path-91-inside-41_7654_2083931)"/>
<mask id="path-93-inside-42_7654_2083931" fill="white">
<path d="M1122.68 512.538L1214.41 566.049L1178.13 587.211L1086.4 533.7L1122.68 512.538Z"/>
</mask>
<path d="M1122.68 512.538L1214.41 566.049L1178.13 587.211L1086.4 533.7L1122.68 512.538Z" fill="black"/>
<path d="M1179 586.707L1087.26 533.196L1085.54 534.204L1177.27 587.715L1179 586.707Z" fill="#7F7F7F" mask="url(#path-93-inside-42_7654_2083931)"/>
<mask id="path-95-inside-43_7654_2083931" fill="white">
<path d="M1214.41 566.049L1306.14 619.56L1269.86 640.722L1178.13 587.211L1214.41 566.049Z"/>
</mask>
<path d="M1214.41 566.049L1306.14 619.56L1269.86 640.722L1178.13 587.211L1214.41 566.049Z" fill="black"/>
<path d="M1270.73 640.219L1179 586.707L1177.27 587.715L1269 641.226L1270.73 640.219Z" fill="#7F7F7F" mask="url(#path-95-inside-43_7654_2083931)"/>
<mask id="path-97-inside-44_7654_2083931" fill="white">
<path d="M1306.14 619.56L1397.88 673.071L1361.6 694.233L1269.87 640.722L1306.14 619.56Z"/>
</mask>
<path d="M1306.14 619.56L1397.88 673.071L1361.6 694.233L1269.87 640.722L1306.14 619.56Z" fill="black"/>
<path d="M1362.46 693.73L1270.73 640.219L1269 641.226L1360.74 694.737L1362.46 693.73Z" fill="#7F7F7F" mask="url(#path-97-inside-44_7654_2083931)"/>
<mask id="path-99-inside-45_7654_2083931" fill="white">
<path d="M1397.88 673.071L1489.61 726.582L1453.33 747.745L1361.6 694.234L1397.88 673.071Z"/>
</mask>
<path d="M1397.88 673.071L1489.61 726.582L1453.33 747.745L1361.6 694.234L1397.88 673.071Z" fill="black"/>
<path d="M1454.2 747.241L1362.46 693.73L1360.74 694.737L1452.47 748.248L1454.2 747.241Z" fill="#7F7F7F" mask="url(#path-99-inside-45_7654_2083931)"/>
<mask id="path-101-inside-46_7654_2083931" fill="white">
<path d="M994.668 480.189L1086.4 533.7L1050.12 554.863L958.389 501.352L994.668 480.189Z"/>
</mask>
<path d="M994.668 480.189L1086.4 533.7L1050.12 554.863L958.389 501.352L994.668 480.189Z" fill="black"/>
<path d="M1050.99 554.359L959.253 500.848L957.525 501.856L1049.26 555.367L1050.99 554.359Z" fill="#7F7F7F" mask="url(#path-101-inside-46_7654_2083931)"/>
<mask id="path-103-inside-47_7654_2083931" fill="white">
<path d="M1086.4 533.7L1178.14 587.211L1141.86 608.374L1050.12 554.863L1086.4 533.7Z"/>
</mask>
<path d="M1086.4 533.7L1178.14 587.211L1141.86 608.374L1050.12 554.863L1086.4 533.7Z" fill="black"/>
<path d="M1142.72 607.87L1050.99 554.359L1049.26 555.367L1140.99 608.878L1142.72 607.87Z" fill="#7F7F7F" mask="url(#path-103-inside-47_7654_2083931)"/>
<mask id="path-105-inside-48_7654_2083931" fill="white">
<path d="M1178.13 587.211L1269.87 640.722L1233.59 661.885L1141.85 608.374L1178.13 587.211Z"/>
</mask>
<path d="M1178.13 587.211L1269.87 640.722L1233.59 661.885L1141.85 608.374L1178.13 587.211Z" fill="black"/>
<path d="M1234.45 661.381L1142.72 607.87L1140.99 608.878L1232.72 662.389L1234.45 661.381Z" fill="#7F7F7F" mask="url(#path-105-inside-48_7654_2083931)"/>
<mask id="path-107-inside-49_7654_2083931" fill="white">
<path d="M1269.87 640.722L1361.6 694.234L1325.32 715.396L1233.59 661.885L1269.87 640.722Z"/>
</mask>
<path d="M1269.87 640.722L1361.6 694.234L1325.32 715.396L1233.59 661.885L1269.87 640.722Z" fill="black"/>
<path d="M1326.19 714.892L1234.45 661.381L1232.72 662.389L1324.46 715.9L1326.19 714.892Z" fill="#7F7F7F" mask="url(#path-107-inside-49_7654_2083931)"/>
<mask id="path-109-inside-50_7654_2083931" fill="white">
<path d="M1361.6 694.234L1453.33 747.745L1417.06 768.907L1325.32 715.396L1361.6 694.234Z"/>
</mask>
<path d="M1361.6 694.234L1453.33 747.745L1417.06 768.907L1325.32 715.396L1361.6 694.234Z" fill="black"/>
<path d="M1417.92 768.403L1326.19 714.892L1324.46 715.9L1416.19 769.411L1417.92 768.403Z" fill="#7F7F7F" mask="url(#path-109-inside-50_7654_2083931)"/>
<rect width="106.2" height="42" transform="matrix(0.863779 0.503871 -0.863779 0.503871 958.387 501.352)" fill="black"/>
<rect width="106.2" height="42" transform="matrix(0.863779 0.503871 -0.863779 0.503871 1050.12 554.863)" fill="black"/>
<rect width="106.2" height="42" transform="matrix(0.863779 0.503871 -0.863779 0.503871 1141.85 608.374)" fill="black"/>
<rect width="106.2" height="42" transform="matrix(0.863779 0.503871 -0.863779 0.503871 1233.59 661.885)" fill="black"/>
<rect width="106.2" height="42" transform="matrix(0.863779 0.503871 -0.863779 0.503871 1325.32 715.396)" fill="black"/>
<rect y="0.503871" width="86" height="41" rx="9.5" transform="matrix(0.863779 0.503871 -0.863779 0.503871 1215.36 501.098)" fill="black"/>
<rect y="0.503871" width="86" height="41" rx="9.5" transform="matrix(0.863779 0.503871 -0.863779 0.503871 1215.36 501.098)" stroke="white"/>
<rect y="0.503871" width="86" height="41" rx="9.5" transform="matrix(0.863779 0.503871 -0.863779 0.503871 1343.2 575.671)" fill="black"/>
<rect y="0.503871" width="86" height="41" rx="9.5" transform="matrix(0.863779 0.503871 -0.863779 0.503871 1343.2 575.671)" stroke="white"/>
<rect width="87" height="42" transform="matrix(0.863779 0.503871 -0.863779 0.503871 1275.39 614.723)" fill="black"/>
<rect y="0.503871" width="86" height="41" rx="9.5" transform="matrix(0.863779 0.503871 -0.863779 0.503871 1275.83 614.973)" stroke="white"/>
<rect y="0.503871" width="86" height="41" rx="9.5" transform="matrix(0.863779 0.503871 -0.863779 0.503871 1410.58 536.369)" fill="black"/>
<rect y="0.503871" width="86" height="41" rx="9.5" transform="matrix(0.863779 0.503871 -0.863779 0.503871 1410.58 536.369)" stroke="white"/>
<line y1="-0.5" x2="61" y2="-0.5" transform="matrix(0.863779 0.503871 -0.863779 0.503871 1270.21 557.282)" stroke="white"/>
<path d="M1252.41 563.81C1243.82 571.373 1238.76 600.938 1268.14 620.791" stroke="white"/>
<path d="M1285.72 544.38C1298.69 539.366 1349.37 536.414 1383.41 553.556" stroke="white"/>
</g>
<path d="M1679.21 615.982L1220.54 348.427C1210.76 342.722 1194.91 342.722 1185.13 348.427L913.902 506.642C904.122 512.347 904.122 521.596 913.902 527.301L1372.57 794.857C1382.35 800.561 1398.2 800.561 1407.98 794.857L1679.21 636.641C1688.99 630.936 1688.99 621.687 1679.21 615.982Z" stroke="white"/>
</g>
<rect y="-0.503871" width="572" height="355" rx="40.5" transform="matrix(0.863779 0.503871 -0.863779 0.503871 1202.4 338.351)" stroke="white"/>
<g clip-path="url(#clip8_7654_2083931)">
<rect width="1176" height="336" rx="60" transform="matrix(0.863779 0.503871 -0.863779 0.503871 348.559 227.246)" fill="black"/>
<mask id="path-120-inside-51_7654_2083931" fill="white">
<path d="M365.836 237.323L562.087 351.803L525.808 372.965L329.557 258.486L365.836 237.323Z"/>
</mask>
<path d="M365.836 237.323L562.087 351.803L525.808 372.965L329.557 258.486L365.836 237.323Z" fill="black"/>
<path d="M526.672 372.461L330.421 257.982L328.693 258.99L524.944 373.469L526.672 372.461Z" fill="#7F7F7F" mask="url(#path-120-inside-51_7654_2083931)"/>
<mask id="path-122-inside-52_7654_2083931" fill="white">
<path d="M562.086 351.803L758.337 466.282L722.058 487.445L525.807 372.965L562.086 351.803Z"/>
</mask>
<path d="M562.086 351.803L758.337 466.282L722.058 487.445L525.807 372.965L562.086 351.803Z" fill="black"/>
<path d="M722.922 486.941L526.671 372.461L524.943 373.469L721.194 487.949L722.922 486.941Z" fill="#7F7F7F" mask="url(#path-122-inside-52_7654_2083931)"/>
<mask id="path-124-inside-53_7654_2083931" fill="white">
<path d="M758.336 466.282L954.587 580.762L918.308 601.924L722.057 487.445L758.336 466.282Z"/>
</mask>
<path d="M758.336 466.282L954.587 580.762L918.308 601.924L722.057 487.445L758.336 466.282Z" fill="black"/>
<path d="M919.172 601.42L722.921 486.941L721.193 487.949L917.444 602.428L919.172 601.42Z" fill="#7F7F7F" mask="url(#path-124-inside-53_7654_2083931)"/>
<mask id="path-126-inside-54_7654_2083931" fill="white">
<path d="M954.586 580.762L1150.84 695.241L1114.56 716.404L918.307 601.924L954.586 580.762Z"/>
</mask>
<path d="M954.586 580.762L1150.84 695.241L1114.56 716.404L918.307 601.924L954.586 580.762Z" fill="black"/>
<path d="M1115.42 715.9L919.171 601.42L917.443 602.428L1113.69 716.908L1115.42 715.9Z" fill="#7F7F7F" mask="url(#path-126-inside-54_7654_2083931)"/>
<mask id="path-128-inside-55_7654_2083931" fill="white">
<path d="M1150.84 695.241L1347.09 809.721L1310.81 830.883L1114.56 716.404L1150.84 695.241Z"/>
</mask>
<path d="M1150.84 695.241L1347.09 809.721L1310.81 830.883L1114.56 716.404L1150.84 695.241Z" fill="black"/>
<path d="M1311.68 830.379L1115.42 715.9L1113.7 716.908L1309.95 831.387L1311.68 830.379Z" fill="#7F7F7F" mask="url(#path-128-inside-55_7654_2083931)"/>
<mask id="path-130-inside-56_7654_2083931" fill="white">
<path d="M329.559 258.486L525.809 372.965L489.53 394.128L293.28 279.648L329.559 258.486Z"/>
</mask>
<path d="M329.559 258.486L525.809 372.965L489.53 394.128L293.28 279.648L329.559 258.486Z" fill="black"/>
<path d="M490.394 393.624L294.144 279.145L292.416 280.152L488.667 394.632L490.394 393.624Z" fill="#7F7F7F" mask="url(#path-130-inside-56_7654_2083931)"/>
<mask id="path-132-inside-57_7654_2083931" fill="white">
<path d="M525.809 372.965L722.059 487.445L685.78 508.607L489.53 394.128L525.809 372.965Z"/>
</mask>
<path d="M525.809 372.965L722.059 487.445L685.78 508.607L489.53 394.128L525.809 372.965Z" fill="black"/>
<path d="M686.644 508.104L490.394 393.624L488.666 394.632L684.917 509.111L686.644 508.104Z" fill="#7F7F7F" mask="url(#path-132-inside-57_7654_2083931)"/>
<mask id="path-134-inside-58_7654_2083931" fill="white">
<path d="M722.059 487.445L918.309 601.924L882.03 623.087L685.78 508.607L722.059 487.445Z"/>
</mask>
<path d="M722.059 487.445L918.309 601.924L882.03 623.087L685.78 508.607L722.059 487.445Z" fill="black"/>
<path d="M882.894 622.583L686.644 508.104L684.916 509.111L881.167 623.591L882.894 622.583Z" fill="#7F7F7F" mask="url(#path-134-inside-58_7654_2083931)"/>
<mask id="path-136-inside-59_7654_2083931" fill="white">
<path d="M918.309 601.924L1114.56 716.404L1078.28 737.566L882.03 623.087L918.309 601.924Z"/>
</mask>
<path d="M918.309 601.924L1114.56 716.404L1078.28 737.566L882.03 623.087L918.309 601.924Z" fill="black"/>
<path d="M1079.14 737.063L882.894 622.583L881.166 623.591L1077.42 738.07L1079.14 737.063Z" fill="#7F7F7F" mask="url(#path-136-inside-59_7654_2083931)"/>
<mask id="path-138-inside-60_7654_2083931" fill="white">
<path d="M1114.56 716.404L1310.81 830.883L1274.53 852.046L1078.28 737.566L1114.56 716.404Z"/>
</mask>
<path d="M1114.56 716.404L1310.81 830.883L1274.53 852.046L1078.28 737.566L1114.56 716.404Z" fill="black"/>
<path d="M1275.4 851.542L1079.15 737.063L1077.42 738.07L1273.67 852.55L1275.4 851.542Z" fill="#7F7F7F" mask="url(#path-138-inside-60_7654_2083931)"/>
<mask id="path-140-inside-61_7654_2083931" fill="white">
<path d="M293.277 279.648L489.528 394.128L453.249 415.291L256.999 300.811L293.277 279.648Z"/>
</mask>
<path d="M293.277 279.648L489.528 394.128L453.249 415.291L256.999 300.811L293.277 279.648Z" fill="black"/>
<path d="M454.113 414.787L257.862 300.307L256.135 301.315L452.385 415.794L454.113 414.787Z" fill="#7F7F7F" mask="url(#path-140-inside-61_7654_2083931)"/>
<mask id="path-142-inside-62_7654_2083931" fill="white">
<path d="M489.527 394.128L685.778 508.607L649.499 529.77L453.249 415.291L489.527 394.128Z"/>
</mask>
<path d="M489.527 394.128L685.778 508.607L649.499 529.77L453.249 415.291L489.527 394.128Z" fill="black"/>
<path d="M650.363 529.266L454.112 414.787L452.385 415.794L648.635 530.274L650.363 529.266Z" fill="#7F7F7F" mask="url(#path-142-inside-62_7654_2083931)"/>
<mask id="path-144-inside-63_7654_2083931" fill="white">
<path d="M685.777 508.607L882.028 623.087L845.749 644.249L649.499 529.77L685.777 508.607Z"/>
</mask>
<path d="M685.777 508.607L882.028 623.087L845.749 644.249L649.499 529.77L685.777 508.607Z" fill="black"/>
<path d="M846.613 643.746L650.362 529.266L648.635 530.274L844.885 644.753L846.613 643.746Z" fill="#7F7F7F" mask="url(#path-144-inside-63_7654_2083931)"/>
<mask id="path-146-inside-64_7654_2083931" fill="white">
<path d="M882.027 623.087L1078.28 737.566L1042 758.729L845.749 644.249L882.027 623.087Z"/>
</mask>
<path d="M882.027 623.087L1078.28 737.566L1042 758.729L845.749 644.249L882.027 623.087Z" fill="black"/>
<path d="M1042.86 758.225L846.612 643.746L844.885 644.753L1041.14 759.233L1042.86 758.225Z" fill="#7F7F7F" mask="url(#path-146-inside-64_7654_2083931)"/>
<mask id="path-148-inside-65_7654_2083931" fill="white">
<path d="M1078.28 737.566L1274.53 852.046L1238.25 873.208L1042 758.729L1078.28 737.566Z"/>
</mask>
<path d="M1078.28 737.566L1274.53 852.046L1238.25 873.208L1042 758.729L1078.28 737.566Z" fill="black"/>
<path d="M1239.12 872.705L1042.87 758.225L1041.14 759.233L1237.39 873.712L1239.12 872.705Z" fill="#7F7F7F" mask="url(#path-148-inside-65_7654_2083931)"/>
<mask id="path-150-inside-66_7654_2083931" fill="white">
<path d="M257 300.811L453.251 415.291L416.972 436.453L220.721 321.974L257 300.811Z"/>
</mask>
<path d="M257 300.811L453.251 415.291L416.972 436.453L220.721 321.974L257 300.811Z" fill="black"/>
<path d="M417.836 435.949L221.585 321.47L219.858 322.477L416.108 436.957L417.836 435.949Z" fill="#7F7F7F" mask="url(#path-150-inside-66_7654_2083931)"/>
<mask id="path-152-inside-67_7654_2083931" fill="white">
<path d="M453.25 415.291L649.501 529.77L613.222 550.933L416.971 436.453L453.25 415.291Z"/>
</mask>
<path d="M453.25 415.291L649.501 529.77L613.222 550.933L416.971 436.453L453.25 415.291Z" fill="black"/>
<path d="M614.086 550.429L417.835 435.949L416.108 436.957L612.358 551.436L614.086 550.429Z" fill="#7F7F7F" mask="url(#path-152-inside-67_7654_2083931)"/>
<mask id="path-154-inside-68_7654_2083931" fill="white">
<path d="M649.5 529.77L845.751 644.25L809.472 665.412L613.221 550.933L649.5 529.77Z"/>
</mask>
<path d="M649.5 529.77L845.751 644.25L809.472 665.412L613.221 550.933L649.5 529.77Z" fill="black"/>
<path d="M810.336 664.908L614.085 550.429L612.358 551.436L808.608 665.916L810.336 664.908Z" fill="#7F7F7F" mask="url(#path-154-inside-68_7654_2083931)"/>
<mask id="path-156-inside-69_7654_2083931" fill="white">
<path d="M845.75 644.25L1042 758.729L1005.72 779.892L809.471 665.412L845.75 644.25Z"/>
</mask>
<path d="M845.75 644.25L1042 758.729L1005.72 779.892L809.471 665.412L845.75 644.25Z" fill="black"/>
<path d="M1006.59 779.388L810.335 664.908L808.608 665.916L1004.86 780.395L1006.59 779.388Z" fill="#7F7F7F" mask="url(#path-156-inside-69_7654_2083931)"/>
<mask id="path-158-inside-70_7654_2083931" fill="white">
<path d="M1042 758.729L1238.25 873.208L1201.98 894.371L1005.73 779.892L1042 758.729Z"/>
</mask>
<path d="M1042 758.729L1238.25 873.208L1201.98 894.371L1005.73 779.892L1042 758.729Z" fill="black"/>
<path d="M1202.84 893.867L1006.59 779.388L1004.86 780.395L1201.11 894.875L1202.84 893.867Z" fill="#7F7F7F" mask="url(#path-158-inside-70_7654_2083931)"/>
<mask id="path-160-inside-71_7654_2083931" fill="white">
<path d="M220.723 321.974L416.973 436.453L380.695 457.616L184.444 343.136L220.723 321.974Z"/>
</mask>
<path d="M220.723 321.974L416.973 436.453L380.695 457.616L184.444 343.136L220.723 321.974Z" fill="black"/>
<path d="M381.558 457.112L185.308 342.632L183.58 343.64L379.831 458.12L381.558 457.112Z" fill="#7F7F7F" mask="url(#path-160-inside-71_7654_2083931)"/>
<mask id="path-162-inside-72_7654_2083931" fill="white">
<path d="M416.973 436.453L613.223 550.933L576.945 572.095L380.694 457.616L416.973 436.453Z"/>
</mask>
<path d="M416.973 436.453L613.223 550.933L576.945 572.095L380.694 457.616L416.973 436.453Z" fill="black"/>
<path d="M577.808 571.591L381.558 457.112L379.83 458.12L576.081 572.599L577.808 571.591Z" fill="#7F7F7F" mask="url(#path-162-inside-72_7654_2083931)"/>
<mask id="path-164-inside-73_7654_2083931" fill="white">
<path d="M613.223 550.933L809.473 665.412L773.195 686.575L576.944 572.095L613.223 550.933Z"/>
</mask>
<path d="M613.223 550.933L809.473 665.412L773.195 686.575L576.944 572.095L613.223 550.933Z" fill="black"/>
<path d="M774.058 686.071L577.808 571.591L576.08 572.599L772.331 687.079L774.058 686.071Z" fill="#7F7F7F" mask="url(#path-164-inside-73_7654_2083931)"/>
<mask id="path-166-inside-74_7654_2083931" fill="white">
<path d="M809.473 665.412L1005.72 779.892L969.445 801.054L773.194 686.575L809.473 665.412Z"/>
</mask>
<path d="M809.473 665.412L1005.72 779.892L969.445 801.054L773.194 686.575L809.473 665.412Z" fill="black"/>
<path d="M970.308 800.55L774.058 686.071L772.33 687.079L968.581 801.558L970.308 800.55Z" fill="#7F7F7F" mask="url(#path-166-inside-74_7654_2083931)"/>
<mask id="path-168-inside-75_7654_2083931" fill="white">
<path d="M1005.73 779.892L1201.98 894.371L1165.7 915.534L969.448 801.054L1005.73 779.892Z"/>
</mask>
<path d="M1005.73 779.892L1201.98 894.371L1165.7 915.534L969.448 801.054L1005.73 779.892Z" fill="black"/>
<path d="M1166.56 915.03L970.312 800.55L968.584 801.558L1164.83 916.038L1166.56 915.03Z" fill="#7F7F7F" mask="url(#path-168-inside-75_7654_2083931)"/>
<mask id="path-170-inside-76_7654_2083931" fill="white">
<path d="M184.441 343.136L380.692 457.616L344.413 478.778L148.163 364.299L184.441 343.136Z"/>
</mask>
<path d="M184.441 343.136L380.692 457.616L344.413 478.778L148.163 364.299L184.441 343.136Z" fill="black"/>
<path d="M345.277 478.274L149.026 363.795L147.299 364.803L343.549 479.282L345.277 478.274Z" fill="#7F7F7F" mask="url(#path-170-inside-76_7654_2083931)"/>
<mask id="path-172-inside-77_7654_2083931" fill="white">
<path d="M380.691 457.616L576.942 572.095L540.663 593.258L344.413 478.778L380.691 457.616Z"/>
</mask>
<path d="M380.691 457.616L576.942 572.095L540.663 593.258L344.413 478.778L380.691 457.616Z" fill="black"/>
<path d="M541.527 592.754L345.276 478.274L343.549 479.282L539.799 593.762L541.527 592.754Z" fill="#7F7F7F" mask="url(#path-172-inside-77_7654_2083931)"/>
<mask id="path-174-inside-78_7654_2083931" fill="white">
<path d="M576.941 572.095L773.192 686.575L736.913 707.737L540.663 593.258L576.941 572.095Z"/>
</mask>
<path d="M576.941 572.095L773.192 686.575L736.913 707.737L540.663 593.258L576.941 572.095Z" fill="black"/>
<path d="M737.777 707.233L541.526 592.754L539.799 593.762L736.049 708.241L737.777 707.233Z" fill="#7F7F7F" mask="url(#path-174-inside-78_7654_2083931)"/>
<mask id="path-176-inside-79_7654_2083931" fill="white">
<path d="M773.191 686.575L969.442 801.054L933.163 822.217L736.913 707.737L773.191 686.575Z"/>
</mask>
<path d="M773.191 686.575L969.442 801.054L933.163 822.217L736.913 707.737L773.191 686.575Z" fill="black"/>
<path d="M934.027 821.713L737.776 707.233L736.049 708.241L932.299 822.721L934.027 821.713Z" fill="#7F7F7F" mask="url(#path-176-inside-79_7654_2083931)"/>
<mask id="path-178-inside-80_7654_2083931" fill="white">
<path d="M969.445 801.054L1165.7 915.534L1129.42 936.696L933.167 822.217L969.445 801.054Z"/>
</mask>
<path d="M969.445 801.054L1165.7 915.534L1129.42 936.696L933.167 822.217L969.445 801.054Z" fill="black"/>
<path d="M1130.28 936.192L934.03 821.713L932.303 822.721L1128.55 937.2L1130.28 936.192Z" fill="#7F7F7F" mask="url(#path-178-inside-80_7654_2083931)"/>
<mask id="path-180-inside-81_7654_2083931" fill="white">
<path d="M148.164 364.299L344.415 478.778L308.136 499.941L111.885 385.461L148.164 364.299Z"/>
</mask>
<path d="M148.164 364.299L344.415 478.778L308.136 499.941L111.885 385.461L148.164 364.299Z" fill="black"/>
<path d="M309 499.437L112.749 384.957L111.022 385.965L307.272 500.445L309 499.437Z" fill="#7F7F7F" mask="url(#path-180-inside-81_7654_2083931)"/>
<mask id="path-182-inside-82_7654_2083931" fill="white">
<path d="M344.414 478.778L540.665 593.258L504.386 614.42L308.135 499.941L344.414 478.778Z"/>
</mask>
<path d="M344.414 478.778L540.665 593.258L504.386 614.42L308.135 499.941L344.414 478.778Z" fill="black"/>
<path d="M505.25 613.916L308.999 499.437L307.272 500.445L503.522 614.924L505.25 613.916Z" fill="#7F7F7F" mask="url(#path-182-inside-82_7654_2083931)"/>
<mask id="path-184-inside-83_7654_2083931" fill="white">
<path d="M540.664 593.258L736.915 707.737L700.636 728.9L504.385 614.42L540.664 593.258Z"/>
</mask>
<path d="M540.664 593.258L736.915 707.737L700.636 728.9L504.385 614.42L540.664 593.258Z" fill="black"/>
<path d="M701.5 728.396L505.249 613.916L503.522 614.924L699.772 729.404L701.5 728.396Z" fill="#7F7F7F" mask="url(#path-184-inside-83_7654_2083931)"/>
<mask id="path-186-inside-84_7654_2083931" fill="white">
<path d="M736.914 707.737L933.165 822.217L896.886 843.379L700.635 728.9L736.914 707.737Z"/>
</mask>
<path d="M736.914 707.737L933.165 822.217L896.886 843.379L700.635 728.9L736.914 707.737Z" fill="black"/>
<path d="M897.75 842.875L701.499 728.396L699.772 729.404L896.022 843.883L897.75 842.875Z" fill="#7F7F7F" mask="url(#path-186-inside-84_7654_2083931)"/>
<mask id="path-188-inside-85_7654_2083931" fill="white">
<path d="M933.168 822.217L1129.42 936.696L1093.14 957.859L896.889 843.379L933.168 822.217Z"/>
</mask>
<path d="M933.168 822.217L1129.42 936.696L1093.14 957.859L896.889 843.379L933.168 822.217Z" fill="black"/>
<path d="M1094 957.355L897.753 842.875L896.025 843.883L1092.28 958.363L1094 957.355Z" fill="#7F7F7F" mask="url(#path-188-inside-85_7654_2083931)"/>
<rect width="227.2" height="42" transform="matrix(0.863779 0.503871 -0.863779 0.503871 111.887 385.461)" fill="black"/>
<rect width="227.2" height="42" transform="matrix(0.863779 0.503871 -0.863779 0.503871 308.137 499.941)" fill="black"/>
<rect width="227.2" height="42" transform="matrix(0.863779 0.503871 -0.863779 0.503871 504.387 614.42)" fill="black"/>
<rect width="227.2" height="42" transform="matrix(0.863779 0.503871 -0.863779 0.503871 700.637 728.9)" fill="black"/>
<rect width="227.2" height="42" transform="matrix(0.863779 0.503871 -0.863779 0.503871 896.891 843.379)" fill="black"/>
</g>
<rect y="-0.503871" width="1177" height="337" rx="60.5" transform="matrix(0.863779 0.503871 -0.863779 0.503871 348.123 226.996)" stroke="white"/>
</g>
<defs>
<clipPath id="clip0_7654_2083931">
<rect width="1244.04" height="799.789" fill="white" transform="matrix(0.866044 0.499967 -0.866044 0.499967 699.008 153)"/>
</clipPath>
<clipPath id="clip1_7654_2083931">
<rect width="1176" height="720" rx="60" transform="matrix(0.866044 0.499967 -0.866044 0.499967 691.215 186.498)" fill="white"/>
</clipPath>
<clipPath id="clip2_7654_2083931">
<rect width="216" height="70" fill="white" transform="matrix(0.866044 0.499967 -0.866044 0.499967 942.367 953.448)"/>
</clipPath>
<clipPath id="clip3_7654_2083931">
<rect width="216" height="50" fill="white" transform="matrix(0.866044 0.499967 -0.866044 0.499967 933.707 958.447)"/>
</clipPath>
<clipPath id="clip4_7654_2083931">
<rect width="1259.85" height="796.117" fill="white" transform="matrix(0.863779 0.503871 -0.863779 0.503871 688.023 0)"/>
</clipPath>
<clipPath id="clip5_7654_2083931">
<rect width="571" height="354" rx="40" transform="matrix(0.863779 0.503871 -0.863779 0.503871 680.25 33.7594)" fill="white"/>
</clipPath>
<clipPath id="clip6_7654_2083931">
<rect width="571" height="354" rx="40" transform="matrix(0.863779 0.503871 -0.863779 0.503871 1202.84 338.601)" fill="white"/>
</clipPath>
<clipPath id="clip7_7654_2083931">
<path d="M1185.56 348.679C1195.1 343.113 1210.57 343.113 1220.11 348.679L1678.78 616.234C1688.32 621.8 1688.32 630.823 1678.78 636.389L1407.55 794.605C1398.01 800.17 1382.54 800.17 1373 794.605L914.334 527.049C904.793 521.483 904.793 512.46 914.334 506.894L1185.56 348.679Z" fill="white"/>
</clipPath>
<clipPath id="clip8_7654_2083931">
<rect width="1176" height="336" rx="60" transform="matrix(0.863779 0.503871 -0.863779 0.503871 348.559 227.246)" fill="white"/>
</clipPath>
</defs>
</svg>
