<svg width="1628" height="1093" viewBox="0 0 1628 1093" fill="none" xmlns="http://www.w3.org/2000/svg">
<g clip-path="url(#clip0_11_766430)">
<g clip-path="url(#clip1_11_766430)">
<path d="M633.251 216.496C661.949 199.928 708.478 199.928 737.176 216.496L1517.48 666.966C1546.18 683.534 1546.18 710.395 1517.48 726.963L997.855 1026.94C969.157 1043.51 922.628 1043.51 893.93 1026.94L113.624 576.472C84.9259 559.905 84.9259 533.044 113.624 516.476L633.251 216.496Z" fill="white"/>
<rect width="188.2" height="42" transform="matrix(0.866044 0.499967 -0.866044 0.499967 156.926 531.475)" fill="white"/>
<rect width="188.2" height="42" transform="matrix(0.866044 0.499967 -0.866044 0.499967 319.916 625.569)" fill="white"/>
<rect width="188.2" height="42" transform="matrix(0.866044 0.499967 -0.866044 0.499967 482.905 719.663)" fill="white"/>
<rect width="188.2" height="42" transform="matrix(0.866044 0.499967 -0.866044 0.499967 645.895 813.757)" fill="white"/>
<g clip-path="url(#clip2_11_766430)">
<rect width="188.2" height="70" transform="matrix(0.866044 0.499967 -0.866044 0.499967 833.134 893.852)" fill="white"/>
<g clip-path="url(#clip3_11_766430)">
<rect width="188.2" height="50" transform="matrix(0.866044 0.499967 -0.866044 0.499967 824.473 898.851)" fill="white"/>
<path d="M864.815 958.138L880.403 949.139L883.178 950.741L879.499 952.864L880.06 952.324C880.58 952.144 881.1 952.012 881.619 951.928C882.139 951.844 882.773 951.826 883.521 951.874C884.29 951.91 885.07 952.036 885.859 952.252C886.691 952.468 887.522 952.816 888.354 953.296C889.746 954.1 890.526 954.982 890.692 955.942C890.858 956.902 890.422 957.838 889.382 958.75L888.821 958.462C889.653 958.174 890.443 957.97 891.191 957.85C891.939 957.73 892.76 957.688 893.654 957.724C894.464 957.76 895.254 957.88 896.023 958.084C896.792 958.288 897.613 958.642 898.486 959.146C899.65 959.818 900.409 960.508 900.762 961.216C901.136 961.936 901.095 962.668 900.638 963.412C900.18 964.156 899.307 964.9 898.019 965.644L887.917 971.475L885.049 969.819L894.215 964.528C895.171 963.976 895.857 963.52 896.273 963.16C896.709 962.788 896.917 962.368 896.896 961.9C896.896 961.468 896.72 961.09 896.366 960.766C896.013 960.442 895.608 960.148 895.15 959.884C894.236 959.356 893.186 959.074 892.001 959.038C891.149 959.026 890.276 959.122 889.382 959.326C888.51 959.542 887.501 959.98 886.358 960.64L877.753 965.608L874.885 963.952L884.051 958.66L884.176 958.588C885.07 958.072 885.724 957.634 886.14 957.274C886.577 956.902 886.774 956.488 886.732 956.032C886.732 955.6 886.556 955.222 886.202 954.898C885.849 954.574 885.444 954.28 884.986 954.016C884.529 953.752 884.03 953.548 883.49 953.404C882.95 953.26 882.399 953.182 881.838 953.17C880.985 953.158 880.112 953.254 879.219 953.458C878.346 953.674 877.338 954.112 876.194 954.772L867.589 959.74L864.815 958.138ZM897.993 977.724C896.392 976.8 895.322 975.81 894.781 974.754C894.282 973.698 894.334 972.636 894.937 971.568C895.54 970.5 896.683 969.48 898.367 968.508C899.946 967.596 901.661 966.966 903.511 966.618C905.403 966.27 907.273 966.234 909.123 966.51C911.014 966.786 912.75 967.38 914.33 968.292C915.889 969.192 916.897 970.182 917.354 971.262C917.853 972.342 917.79 973.422 917.167 974.502C916.564 975.594 915.483 976.59 913.924 977.49C912.303 978.426 910.547 979.068 908.655 979.416C906.785 979.752 904.914 979.776 903.043 979.488C901.214 979.2 899.531 978.612 897.993 977.724ZM900.206 976.446C901.744 977.334 903.334 977.748 904.976 977.688C905.912 977.652 906.868 977.472 907.845 977.148C908.842 976.812 909.861 976.344 910.9 975.744C913.062 974.496 914.184 973.344 914.267 972.288C914.33 971.34 913.613 970.434 912.116 969.57C911.347 969.126 910.578 968.802 909.809 968.598C909.061 968.382 908.302 968.28 907.533 968.292C906.556 968.304 905.548 968.478 904.509 968.814C903.511 969.15 902.472 969.63 901.391 970.254C900.31 970.878 899.468 971.484 898.866 972.072C898.304 972.66 898.013 973.236 897.993 973.8C897.951 974.688 898.689 975.57 900.206 976.446ZM915.43 987.79C913.829 986.866 912.759 985.876 912.219 984.82C911.72 983.765 911.772 982.703 912.375 981.635C912.977 980.567 914.12 979.547 915.804 978.575C917.384 977.663 919.098 977.033 920.948 976.685C922.84 976.337 924.71 976.301 926.56 976.577C928.452 976.853 930.187 977.447 931.767 978.359C933.326 979.259 934.334 980.249 934.791 981.329C935.29 982.409 935.228 983.489 934.604 984.568C934.001 985.66 932.921 986.656 931.362 987.556C929.74 988.492 927.984 989.134 926.093 989.482C924.222 989.818 922.351 989.842 920.481 989.554C918.652 989.266 916.968 988.678 915.43 987.79ZM917.644 986.512C919.182 987.4 920.772 987.814 922.414 987.754C923.349 987.718 924.305 987.538 925.282 987.214C926.28 986.878 927.298 986.41 928.337 985.81C930.499 984.562 931.621 983.411 931.705 982.355C931.767 981.407 931.05 980.501 929.553 979.637C928.784 979.193 928.015 978.869 927.246 978.665C926.498 978.449 925.739 978.347 924.97 978.359C923.993 978.371 922.985 978.545 921.946 978.881C920.948 979.217 919.909 979.697 918.828 980.321C917.747 980.945 916.906 981.551 916.303 982.139C915.742 982.727 915.451 983.303 915.43 983.867C915.388 984.754 916.126 985.636 917.644 986.512ZM931.62 997.137C929.729 996.045 928.606 994.869 928.253 993.609C927.9 992.349 928.648 991.197 930.498 990.153L933.304 991.485C932.202 992.097 931.693 992.799 931.776 993.591C931.88 994.371 932.545 995.115 933.771 995.823C935.039 996.555 936.203 996.987 937.263 997.119C938.344 997.239 939.3 997.059 940.132 996.579C940.568 996.327 940.755 996.015 940.693 995.643C940.651 995.283 940.443 994.911 940.069 994.527C939.737 994.143 939.259 993.663 938.635 993.087C938.469 992.943 938.303 992.799 938.136 992.655C937.991 992.499 937.835 992.349 937.669 992.205C936.858 991.425 936.255 990.753 935.86 990.189C935.507 989.625 935.393 989.043 935.517 988.443C935.642 987.843 936.182 987.267 937.139 986.716C938.157 986.128 939.279 985.792 940.506 985.708C941.753 985.636 942.969 985.762 944.154 986.086C945.38 986.41 946.481 986.854 947.458 987.417C949.267 988.461 950.358 989.559 950.732 990.711C951.106 991.863 950.483 993.003 948.861 994.131L945.837 992.853C946.897 992.217 947.365 991.539 947.24 990.819C947.115 990.099 946.44 989.385 945.214 988.677C944.382 988.197 943.457 987.891 942.439 987.759C941.441 987.615 940.61 987.735 939.945 988.119C939.342 988.467 939.186 988.893 939.477 989.397C939.768 989.901 940.339 990.555 941.192 991.359C941.212 991.395 941.254 991.431 941.316 991.467C941.379 991.503 941.42 991.539 941.441 991.575C941.483 991.623 941.514 991.665 941.535 991.701C941.597 991.737 941.659 991.773 941.722 991.809C942.782 992.733 943.561 993.507 944.06 994.131C944.58 994.743 944.798 995.385 944.715 996.057C944.632 996.729 944.039 997.383 942.938 998.019C941.192 999.027 939.321 999.399 937.326 999.135C935.351 998.859 933.449 998.193 931.62 997.137ZM947.437 1006.27C946.231 1005.57 945.348 1004.85 944.787 1004.09C944.225 1003.33 943.997 1002.54 944.101 1001.71C944.184 1000.92 944.558 1000.15 945.223 999.41C945.909 998.654 946.875 997.916 948.123 997.196C949.287 996.524 950.523 996.002 951.833 995.63C953.163 995.246 954.514 995.03 955.886 994.982C957.341 994.934 958.733 995.066 960.064 995.378C961.394 995.69 962.62 996.17 963.743 996.818C965.01 997.55 965.915 998.384 966.455 999.32C967.016 1000.24 967.11 1001.17 966.736 1002.11C966.465 1002.82 965.915 1003.54 965.083 1004.29C964.273 1005.02 963.285 1005.69 962.121 1006.29L950.305 999.464C948.621 1000.48 947.728 1001.44 947.624 1002.34C947.52 1003.24 948.195 1004.11 949.65 1004.95C950.98 1005.72 952.29 1006.15 953.579 1006.25C954.888 1006.33 956.229 1006.09 957.601 1005.51L960.095 1007.2C957.954 1008.06 955.803 1008.4 953.641 1008.23C951.5 1008.07 949.432 1007.42 947.437 1006.27ZM952.519 998.222L952.207 997.934L961.716 1003.42L961.435 1003.37C961.872 1003.12 962.277 1002.79 962.651 1002.38C963.067 1001.97 963.337 1001.59 963.462 1001.23C963.649 1000.66 963.576 1000.13 963.244 999.626C962.932 999.134 962.35 998.642 961.498 998.15C960.646 997.658 959.741 997.316 958.785 997.124C957.85 996.92 956.967 996.878 956.135 996.998C954.93 997.166 953.797 997.532 952.737 998.096L952.519 998.222Z" fill="black"/>
</g>
</g>
</g>
<path d="M1518.35 666.466L738.042 215.996C708.866 199.152 661.561 199.152 632.385 215.996L112.758 515.976C83.5816 532.82 83.5816 560.129 112.758 576.972L893.064 1027.44C922.241 1044.29 969.545 1044.29 998.721 1027.44L1518.35 727.462C1547.52 710.619 1547.52 683.31 1518.35 666.466Z" stroke="black" stroke-width="2"/>
</g>
<g clip-path="url(#clip4_11_766430)">
<g clip-path="url(#clip5_11_766430)">
<path d="M630.197 32.2478C658.82 15.5509 705.227 15.5509 733.85 32.2478L1064.68 225.23C1093.3 241.927 1093.3 268.998 1064.68 285.695L862.553 403.601C833.93 420.298 787.523 420.298 758.9 403.601L428.072 210.618C399.449 193.921 399.449 166.85 428.072 150.154L630.197 32.2478Z" fill="white"/>
<mask id="path-7-inside-1_11_766430" fill="white">
<path d="M691.525 16.6277L771.511 63.2861L735.232 84.4487L655.246 37.7903L691.525 16.6277Z"/>
</mask>
<path d="M691.525 16.6277L771.511 63.2861L735.232 84.4487L655.246 37.7903L691.525 16.6277Z" fill="white"/>
<path d="M736.096 83.9449L656.11 37.2864L654.382 38.2941L734.368 84.9526L736.096 83.9449Z" fill="#7F7F7F" mask="url(#path-7-inside-1_11_766430)"/>
<mask id="path-9-inside-2_11_766430" fill="white">
<path d="M771.511 63.2861L851.497 109.945L815.218 131.107L735.232 84.4487L771.511 63.2861Z"/>
</mask>
<path d="M771.511 63.2861L851.497 109.945L815.218 131.107L735.232 84.4487L771.511 63.2861Z" fill="white"/>
<path d="M816.082 130.603L736.096 83.9448L734.368 84.9526L814.354 131.611L816.082 130.603Z" fill="#7F7F7F" mask="url(#path-9-inside-2_11_766430)"/>
<mask id="path-11-inside-3_11_766430" fill="white">
<path d="M851.497 109.945L931.483 156.603L895.204 177.766L815.218 131.107L851.497 109.945Z"/>
</mask>
<path d="M851.497 109.945L931.483 156.603L895.204 177.766L815.218 131.107L851.497 109.945Z" fill="white"/>
<path d="M896.068 177.262L816.082 130.603L814.354 131.611L894.34 178.269L896.068 177.262Z" fill="#7F7F7F" mask="url(#path-11-inside-3_11_766430)"/>
<mask id="path-13-inside-4_11_766430" fill="white">
<path d="M931.483 156.603L1011.47 203.261L975.19 224.424L895.204 177.766L931.483 156.603Z"/>
</mask>
<path d="M931.483 156.603L1011.47 203.261L975.19 224.424L895.204 177.766L931.483 156.603Z" fill="white"/>
<path d="M976.054 223.92L896.068 177.262L894.34 178.269L974.326 224.928L976.054 223.92Z" fill="#7F7F7F" mask="url(#path-13-inside-4_11_766430)"/>
<mask id="path-15-inside-5_11_766430" fill="white">
<path d="M1011.47 203.261L1091.45 249.92L1055.18 271.083L975.19 224.424L1011.47 203.261Z"/>
</mask>
<path d="M1011.47 203.261L1091.45 249.92L1055.18 271.083L975.19 224.424L1011.47 203.261Z" fill="white"/>
<path d="M1056.04 270.579L976.054 223.92L974.326 224.928L1054.31 271.586L1056.04 270.579Z" fill="#7F7F7F" mask="url(#path-15-inside-5_11_766430)"/>
<mask id="path-17-inside-6_11_766430" fill="white">
<path d="M655.246 37.7903L735.232 84.4487L698.953 105.611L618.967 58.9529L655.246 37.7903Z"/>
</mask>
<path d="M655.246 37.7903L735.232 84.4487L698.953 105.611L618.967 58.9529L655.246 37.7903Z" fill="white"/>
<path d="M699.817 105.107L619.831 58.449L618.104 59.4567L698.09 106.115L699.817 105.107Z" fill="#7F7F7F" mask="url(#path-17-inside-6_11_766430)"/>
<mask id="path-19-inside-7_11_766430" fill="white">
<path d="M735.232 84.4487L815.218 131.107L778.939 152.27L698.953 105.611L735.232 84.4487Z"/>
</mask>
<path d="M735.232 84.4487L815.218 131.107L778.939 152.27L698.953 105.611L735.232 84.4487Z" fill="white"/>
<path d="M779.803 151.766L699.817 105.107L698.089 106.115L778.075 152.774L779.803 151.766Z" fill="#7F7F7F" mask="url(#path-19-inside-7_11_766430)"/>
<mask id="path-21-inside-8_11_766430" fill="white">
<path d="M815.218 131.107L895.204 177.766L858.925 198.928L778.939 152.27L815.218 131.107Z"/>
</mask>
<path d="M815.218 131.107L895.204 177.766L858.925 198.928L778.939 152.27L815.218 131.107Z" fill="white"/>
<path d="M859.789 198.424L779.803 151.766L778.075 152.774L858.061 199.432L859.789 198.424Z" fill="#7F7F7F" mask="url(#path-21-inside-8_11_766430)"/>
<mask id="path-23-inside-9_11_766430" fill="white">
<path d="M895.204 177.766L975.19 224.424L938.911 245.587L858.925 198.928L895.204 177.766Z"/>
</mask>
<path d="M895.204 177.766L975.19 224.424L938.911 245.587L858.925 198.928L895.204 177.766Z" fill="white"/>
<path d="M939.775 245.083L859.789 198.424L858.062 199.432L938.048 246.091L939.775 245.083Z" fill="#7F7F7F" mask="url(#path-23-inside-9_11_766430)"/>
<mask id="path-25-inside-10_11_766430" fill="white">
<path d="M975.19 224.424L1055.18 271.083L1018.9 292.245L938.911 245.587L975.19 224.424Z"/>
</mask>
<path d="M975.19 224.424L1055.18 271.083L1018.9 292.245L938.911 245.587L975.19 224.424Z" fill="white"/>
<path d="M1019.76 291.741L939.775 245.083L938.047 246.091L1018.03 292.749L1019.76 291.741Z" fill="#7F7F7F" mask="url(#path-25-inside-10_11_766430)"/>
<mask id="path-27-inside-11_11_766430" fill="white">
<path d="M618.967 58.9529L698.953 105.611L662.675 126.774L582.689 80.1155L618.967 58.9529Z"/>
</mask>
<path d="M618.967 58.9529L698.953 105.611L662.675 126.774L582.689 80.1155L618.967 58.9529Z" fill="white"/>
<path d="M663.538 126.27L583.552 79.6116L581.825 80.6193L661.811 127.278L663.538 126.27Z" fill="#7F7F7F" mask="url(#path-27-inside-11_11_766430)"/>
<mask id="path-29-inside-12_11_766430" fill="white">
<path d="M698.953 105.611L778.939 152.27L742.66 173.432L662.674 126.774L698.953 105.611Z"/>
</mask>
<path d="M698.953 105.611L778.939 152.27L742.66 173.432L662.674 126.774L698.953 105.611Z" fill="white"/>
<path d="M743.524 172.928L663.538 126.27L661.811 127.278L741.797 173.936L743.524 172.928Z" fill="#7F7F7F" mask="url(#path-29-inside-12_11_766430)"/>
<mask id="path-31-inside-13_11_766430" fill="white">
<path d="M778.939 152.27L858.925 198.928L822.646 220.091L742.66 173.432L778.939 152.27Z"/>
</mask>
<path d="M778.939 152.27L858.925 198.928L822.646 220.091L742.66 173.432L778.939 152.27Z" fill="white"/>
<path d="M823.51 219.587L743.524 172.928L741.796 173.936L821.782 220.595L823.51 219.587Z" fill="#7F7F7F" mask="url(#path-31-inside-13_11_766430)"/>
<mask id="path-33-inside-14_11_766430" fill="white">
<path d="M858.925 198.928L938.911 245.587L902.633 266.749L822.647 220.091L858.925 198.928Z"/>
</mask>
<path d="M858.925 198.928L938.911 245.587L902.633 266.749L822.647 220.091L858.925 198.928Z" fill="white"/>
<path d="M903.496 266.245L823.51 219.587L821.783 220.595L901.769 267.253L903.496 266.245Z" fill="#7F7F7F" mask="url(#path-33-inside-14_11_766430)"/>
<mask id="path-35-inside-15_11_766430" fill="white">
<path d="M938.911 245.587L1018.9 292.245L982.618 313.408L902.632 266.749L938.911 245.587Z"/>
</mask>
<path d="M938.911 245.587L1018.9 292.245L982.618 313.408L902.632 266.749L938.911 245.587Z" fill="white"/>
<path d="M983.482 312.904L903.496 266.245L901.769 267.253L981.755 313.912L983.482 312.904Z" fill="#7F7F7F" mask="url(#path-35-inside-15_11_766430)"/>
<mask id="path-37-inside-16_11_766430" fill="white">
<path d="M582.688 80.1155L662.674 126.774L626.396 147.937L546.41 101.278L582.688 80.1155Z"/>
</mask>
<path d="M582.688 80.1155L662.674 126.774L626.396 147.937L546.41 101.278L582.688 80.1155Z" fill="white"/>
<path d="M627.259 147.433L547.274 100.774L545.546 101.782L625.532 148.44L627.259 147.433Z" fill="#7F7F7F" mask="url(#path-37-inside-16_11_766430)"/>
<mask id="path-39-inside-17_11_766430" fill="white">
<path d="M662.674 126.774L742.66 173.432L706.382 194.595L626.396 147.937L662.674 126.774Z"/>
</mask>
<path d="M662.674 126.774L742.66 173.432L706.382 194.595L626.396 147.937L662.674 126.774Z" fill="white"/>
<path d="M707.245 194.091L627.259 147.433L625.532 148.44L705.518 195.099L707.245 194.091Z" fill="#7F7F7F" mask="url(#path-39-inside-17_11_766430)"/>
<mask id="path-41-inside-18_11_766430" fill="white">
<path d="M742.66 173.432L822.646 220.091L786.367 241.253L706.381 194.595L742.66 173.432Z"/>
</mask>
<path d="M742.66 173.432L822.646 220.091L786.367 241.253L706.381 194.595L742.66 173.432Z" fill="white"/>
<path d="M787.231 240.75L707.245 194.091L705.518 195.099L785.504 241.757L787.231 240.75Z" fill="#7F7F7F" mask="url(#path-41-inside-18_11_766430)"/>
<mask id="path-43-inside-19_11_766430" fill="white">
<path d="M822.646 220.091L902.632 266.749L866.354 287.912L786.368 241.253L822.646 220.091Z"/>
</mask>
<path d="M822.646 220.091L902.632 266.749L866.354 287.912L786.368 241.253L822.646 220.091Z" fill="white"/>
<path d="M867.217 287.408L787.232 240.75L785.504 241.757L865.49 288.416L867.217 287.408Z" fill="#7F7F7F" mask="url(#path-43-inside-19_11_766430)"/>
<mask id="path-45-inside-20_11_766430" fill="white">
<path d="M902.632 266.749L982.618 313.408L946.34 334.57L866.354 287.912L902.632 266.749Z"/>
</mask>
<path d="M902.632 266.749L982.618 313.408L946.34 334.57L866.354 287.912L902.632 266.749Z" fill="white"/>
<path d="M947.203 334.066L867.217 287.408L865.49 288.416L945.476 335.074L947.203 334.066Z" fill="#7F7F7F" mask="url(#path-45-inside-20_11_766430)"/>
<mask id="path-47-inside-21_11_766430" fill="white">
<path d="M546.41 101.278L626.396 147.937L590.117 169.099L510.131 122.441L546.41 101.278Z"/>
</mask>
<path d="M546.41 101.278L626.396 147.937L590.117 169.099L510.131 122.441L546.41 101.278Z" fill="white"/>
<path d="M590.981 168.595L510.995 121.937L509.268 122.945L589.254 169.603L590.981 168.595Z" fill="#7F7F7F" mask="url(#path-47-inside-21_11_766430)"/>
<mask id="path-49-inside-22_11_766430" fill="white">
<path d="M626.396 147.937L706.382 194.595L670.103 215.758L590.117 169.099L626.396 147.937Z"/>
</mask>
<path d="M626.396 147.937L706.382 194.595L670.103 215.758L590.117 169.099L626.396 147.937Z" fill="white"/>
<path d="M670.967 215.254L590.981 168.595L589.253 169.603L669.239 216.261L670.967 215.254Z" fill="#7F7F7F" mask="url(#path-49-inside-22_11_766430)"/>
<mask id="path-51-inside-23_11_766430" fill="white">
<path d="M706.382 194.595L786.368 241.253L750.089 262.416L670.103 215.758L706.382 194.595Z"/>
</mask>
<path d="M706.382 194.595L786.368 241.253L750.089 262.416L670.103 215.758L706.382 194.595Z" fill="white"/>
<path d="M750.953 261.912L670.967 215.254L669.239 216.261L749.225 262.92L750.953 261.912Z" fill="#7F7F7F" mask="url(#path-51-inside-23_11_766430)"/>
<mask id="path-53-inside-24_11_766430" fill="white">
<path d="M786.368 241.253L866.354 287.912L830.075 309.074L750.089 262.416L786.368 241.253Z"/>
</mask>
<path d="M786.368 241.253L866.354 287.912L830.075 309.074L750.089 262.416L786.368 241.253Z" fill="white"/>
<path d="M830.939 308.571L750.953 261.912L749.226 262.92L829.212 309.578L830.939 308.571Z" fill="#7F7F7F" mask="url(#path-53-inside-24_11_766430)"/>
<mask id="path-55-inside-25_11_766430" fill="white">
<path d="M866.354 287.912L946.34 334.57L910.061 355.733L830.075 309.074L866.354 287.912Z"/>
</mask>
<path d="M866.354 287.912L946.34 334.57L910.061 355.733L830.075 309.074L866.354 287.912Z" fill="white"/>
<path d="M910.925 355.229L830.939 308.571L829.212 309.578L909.197 356.237L910.925 355.229Z" fill="#7F7F7F" mask="url(#path-55-inside-25_11_766430)"/>
<mask id="path-57-inside-26_11_766430" fill="white">
<path d="M510.131 122.441L590.117 169.099L553.839 190.262L473.853 143.603L510.131 122.441Z"/>
</mask>
<path d="M510.131 122.441L590.117 169.099L553.839 190.262L473.853 143.603L510.131 122.441Z" fill="white"/>
<path d="M554.702 189.758L474.716 143.099L472.989 144.107L552.975 190.766L554.702 189.758Z" fill="#7F7F7F" mask="url(#path-57-inside-26_11_766430)"/>
<mask id="path-59-inside-27_11_766430" fill="white">
<path d="M590.117 169.099L670.103 215.758L633.824 236.92L553.838 190.262L590.117 169.099Z"/>
</mask>
<path d="M590.117 169.099L670.103 215.758L633.824 236.92L553.838 190.262L590.117 169.099Z" fill="white"/>
<path d="M634.688 236.416L554.702 189.758L552.975 190.766L632.961 237.424L634.688 236.416Z" fill="#7F7F7F" mask="url(#path-59-inside-27_11_766430)"/>
<mask id="path-61-inside-28_11_766430" fill="white">
<path d="M670.103 215.758L750.089 262.416L713.81 283.579L633.824 236.92L670.103 215.758Z"/>
</mask>
<path d="M670.103 215.758L750.089 262.416L713.81 283.579L633.824 236.92L670.103 215.758Z" fill="white"/>
<path d="M714.674 283.075L634.688 236.416L632.961 237.424L712.946 284.082L714.674 283.075Z" fill="#7F7F7F" mask="url(#path-61-inside-28_11_766430)"/>
<mask id="path-63-inside-29_11_766430" fill="white">
<path d="M750.089 262.416L830.075 309.074L793.797 330.237L713.811 283.579L750.089 262.416Z"/>
</mask>
<path d="M750.089 262.416L830.075 309.074L793.797 330.237L713.811 283.579L750.089 262.416Z" fill="white"/>
<path d="M794.66 329.733L714.674 283.075L712.947 284.082L792.933 330.741L794.66 329.733Z" fill="#7F7F7F" mask="url(#path-63-inside-29_11_766430)"/>
<mask id="path-65-inside-30_11_766430" fill="white">
<path d="M830.075 309.074L910.061 355.733L873.782 376.895L793.796 330.237L830.075 309.074Z"/>
</mask>
<path d="M830.075 309.074L910.061 355.733L873.782 376.895L793.796 330.237L830.075 309.074Z" fill="white"/>
<path d="M874.646 376.392L794.66 329.733L792.933 330.741L872.919 377.399L874.646 376.392Z" fill="#7F7F7F" mask="url(#path-65-inside-30_11_766430)"/>
<mask id="path-67-inside-31_11_766430" fill="white">
<path d="M473.853 143.603L553.838 190.262L517.56 211.424L437.574 164.766L473.853 143.603Z"/>
</mask>
<path d="M473.853 143.603L553.838 190.262L517.56 211.424L437.574 164.766L473.853 143.603Z" fill="white"/>
<path d="M518.424 210.92L438.438 164.262L436.71 165.27L516.696 211.928L518.424 210.92Z" fill="#7F7F7F" mask="url(#path-67-inside-31_11_766430)"/>
<mask id="path-69-inside-32_11_766430" fill="white">
<path d="M553.838 190.262L633.824 236.92L597.546 258.083L517.56 211.424L553.838 190.262Z"/>
</mask>
<path d="M553.838 190.262L633.824 236.92L597.546 258.083L517.56 211.424L553.838 190.262Z" fill="white"/>
<path d="M598.409 257.579L518.423 210.92L516.696 211.928L596.682 258.587L598.409 257.579Z" fill="#7F7F7F" mask="url(#path-69-inside-32_11_766430)"/>
<mask id="path-71-inside-33_11_766430" fill="white">
<path d="M633.824 236.92L713.81 283.579L677.531 304.741L597.546 258.083L633.824 236.92Z"/>
</mask>
<path d="M633.824 236.92L713.81 283.579L677.531 304.741L597.546 258.083L633.824 236.92Z" fill="white"/>
<path d="M678.395 304.237L598.409 257.579L596.682 258.587L676.668 305.245L678.395 304.237Z" fill="#7F7F7F" mask="url(#path-71-inside-33_11_766430)"/>
<mask id="path-73-inside-34_11_766430" fill="white">
<path d="M713.811 283.579L793.796 330.237L757.518 351.4L677.532 304.741L713.811 283.579Z"/>
</mask>
<path d="M713.811 283.579L793.796 330.237L757.518 351.4L677.532 304.741L713.811 283.579Z" fill="white"/>
<path d="M758.382 350.896L678.396 304.237L676.668 305.245L756.654 351.904L758.382 350.896Z" fill="#7F7F7F" mask="url(#path-73-inside-34_11_766430)"/>
<mask id="path-75-inside-35_11_766430" fill="white">
<path d="M793.796 330.237L873.782 376.896L837.504 398.058L757.518 351.4L793.796 330.237Z"/>
</mask>
<path d="M793.796 330.237L873.782 376.896L837.504 398.058L757.518 351.4L793.796 330.237Z" fill="white"/>
<path d="M838.367 397.554L758.381 350.896L756.654 351.904L836.64 398.562L838.367 397.554Z" fill="#7F7F7F" mask="url(#path-75-inside-35_11_766430)"/>
<rect width="92.6" height="42" transform="matrix(0.863779 0.503871 -0.863779 0.503871 437.574 164.766)" fill="white"/>
<rect width="92.6" height="42" transform="matrix(0.863779 0.503871 -0.863779 0.503871 517.56 211.424)" fill="white"/>
<rect width="92.6" height="42" transform="matrix(0.863779 0.503871 -0.863779 0.503871 597.545 258.083)" fill="white"/>
<rect width="92.6" height="42" transform="matrix(0.863779 0.503871 -0.863779 0.503871 677.532 304.741)" fill="white"/>
<rect width="92.6" height="42" transform="matrix(0.863779 0.503871 -0.863779 0.503871 757.518 351.4)" fill="white"/>
</g>
<path d="M1065.54 224.726L734.714 31.7439C705.614 14.7688 658.433 14.7688 629.333 31.7439L427.209 149.65C398.108 166.625 398.108 194.147 427.209 211.122L758.036 404.105C787.136 421.08 834.317 421.08 863.417 404.105L1065.54 286.199C1094.64 269.224 1094.64 241.702 1065.54 224.726Z" stroke="black" stroke-width="2"/>
<path d="M516.758 123.614L514.177 129.115C511.597 134.616 506.437 145.617 508.693 152.292C510.95 158.967 520.624 161.315 535.647 160.543C550.669 159.771 571.04 155.879 579.206 159.107C587.372 162.334 583.333 172.682 583.504 180.574C583.674 188.465 588.054 193.902 595.928 197.3C603.801 200.698 615.169 202.058 630.285 201.232C645.4 200.406 664.263 197.394 681.047 195.594C697.831 193.795 712.537 193.208 715.282 199.597C718.027 205.987 708.813 219.354 716.631 222.784C724.449 226.215 749.3 219.71 757.938 222.662C766.575 225.615 759 238.025 759.699 245.609C760.398 253.192 769.372 255.948 782.645 256.197C795.917 256.446 813.487 254.188 832.728 250.956C851.968 247.723 872.879 243.516 888.614 242.329C904.349 241.142 914.907 242.974 923.883 245.729C932.858 248.485 940.251 252.163 940.681 259.904C941.111 267.645 934.576 279.447 941.7 283.283C948.824 287.119 969.605 282.988 984.604 282.23C999.602 281.472 1008.82 284.087 1013.43 285.395L1018.03 286.703" stroke="white" stroke-width="2"/>
<g clip-path="url(#clip6_11_766430)">
<path d="M1094.05 302.827C1122.67 286.13 1169.08 286.13 1197.7 302.826L1528.53 495.809C1557.15 512.506 1557.15 539.577 1528.53 556.274L1326.4 674.179C1297.78 690.876 1251.37 690.876 1222.75 674.179L891.922 481.197C863.298 464.5 863.298 437.429 891.922 420.732L1094.05 302.827Z" fill="white"/>
<mask id="path-80-inside-36_11_766430" fill="white">
<path d="M1155.37 287.206L1235.36 333.865L1199.08 355.027L1119.1 308.369L1155.37 287.206Z"/>
</mask>
<path d="M1155.37 287.206L1235.36 333.865L1199.08 355.027L1119.1 308.369L1155.37 287.206Z" fill="white"/>
<path d="M1199.95 354.524L1119.96 307.865L1118.23 308.873L1198.22 355.531L1199.95 354.524Z" fill="#7F7F7F" mask="url(#path-80-inside-36_11_766430)"/>
<mask id="path-82-inside-37_11_766430" fill="white">
<path d="M1235.36 333.865L1315.35 380.523L1279.07 401.686L1199.08 355.027L1235.36 333.865Z"/>
</mask>
<path d="M1235.36 333.865L1315.35 380.523L1279.07 401.686L1199.08 355.027L1235.36 333.865Z" fill="white"/>
<path d="M1279.93 401.182L1199.94 354.524L1198.22 355.531L1278.2 402.19L1279.93 401.182Z" fill="#7F7F7F" mask="url(#path-82-inside-37_11_766430)"/>
<mask id="path-84-inside-38_11_766430" fill="white">
<path d="M1315.35 380.523L1395.33 427.182L1359.05 448.344L1279.07 401.686L1315.35 380.523Z"/>
</mask>
<path d="M1315.35 380.523L1395.33 427.182L1359.05 448.344L1279.07 401.686L1315.35 380.523Z" fill="white"/>
<path d="M1359.92 447.841L1279.93 401.182L1278.2 402.19L1358.19 448.848L1359.92 447.841Z" fill="#7F7F7F" mask="url(#path-84-inside-38_11_766430)"/>
<mask id="path-86-inside-39_11_766430" fill="white">
<path d="M1395.33 427.182L1475.32 473.84L1439.04 495.003L1359.05 448.344L1395.33 427.182Z"/>
</mask>
<path d="M1395.33 427.182L1475.32 473.84L1439.04 495.003L1359.05 448.344L1395.33 427.182Z" fill="white"/>
<path d="M1439.9 494.499L1359.92 447.841L1358.19 448.848L1438.18 495.507L1439.9 494.499Z" fill="#7F7F7F" mask="url(#path-86-inside-39_11_766430)"/>
<mask id="path-88-inside-40_11_766430" fill="white">
<path d="M1475.32 473.84L1555.3 520.499L1519.03 541.661L1439.04 495.003L1475.32 473.84Z"/>
</mask>
<path d="M1475.32 473.84L1555.3 520.499L1519.03 541.661L1439.04 495.003L1475.32 473.84Z" fill="white"/>
<path d="M1519.89 541.157L1439.9 494.499L1438.18 495.507L1518.16 542.165L1519.89 541.157Z" fill="#7F7F7F" mask="url(#path-88-inside-40_11_766430)"/>
<mask id="path-90-inside-41_11_766430" fill="white">
<path d="M1119.1 308.369L1199.08 355.027L1162.8 376.19L1082.82 329.532L1119.1 308.369Z"/>
</mask>
<path d="M1119.1 308.369L1199.08 355.027L1162.8 376.19L1082.82 329.532L1119.1 308.369Z" fill="white"/>
<path d="M1163.67 375.686L1083.68 329.028L1081.95 330.035L1161.94 376.694L1163.67 375.686Z" fill="#7F7F7F" mask="url(#path-90-inside-41_11_766430)"/>
<mask id="path-92-inside-42_11_766430" fill="white">
<path d="M1199.08 355.027L1279.07 401.686L1242.79 422.849L1162.8 376.19L1199.08 355.027Z"/>
</mask>
<path d="M1199.08 355.027L1279.07 401.686L1242.79 422.849L1162.8 376.19L1199.08 355.027Z" fill="white"/>
<path d="M1243.65 422.345L1163.67 375.686L1161.94 376.694L1241.92 423.352L1243.65 422.345Z" fill="#7F7F7F" mask="url(#path-92-inside-42_11_766430)"/>
<mask id="path-94-inside-43_11_766430" fill="white">
<path d="M1279.07 401.686L1359.05 448.344L1322.77 469.507L1242.79 422.849L1279.07 401.686Z"/>
</mask>
<path d="M1279.07 401.686L1359.05 448.344L1322.77 469.507L1242.79 422.849L1279.07 401.686Z" fill="white"/>
<path d="M1323.64 469.003L1243.65 422.345L1241.92 423.352L1321.91 470.011L1323.64 469.003Z" fill="#7F7F7F" mask="url(#path-94-inside-43_11_766430)"/>
<mask id="path-96-inside-44_11_766430" fill="white">
<path d="M1359.05 448.344L1439.04 495.003L1402.76 516.166L1322.77 469.507L1359.05 448.344Z"/>
</mask>
<path d="M1359.05 448.344L1439.04 495.003L1402.76 516.166L1322.77 469.507L1359.05 448.344Z" fill="white"/>
<path d="M1403.62 515.662L1323.64 469.003L1321.91 470.011L1401.9 516.669L1403.62 515.662Z" fill="#7F7F7F" mask="url(#path-96-inside-44_11_766430)"/>
<mask id="path-98-inside-45_11_766430" fill="white">
<path d="M1439.04 495.003L1519.02 541.661L1482.75 562.824L1402.76 516.166L1439.04 495.003Z"/>
</mask>
<path d="M1439.04 495.003L1519.02 541.661L1482.75 562.824L1402.76 516.166L1439.04 495.003Z" fill="white"/>
<path d="M1483.61 562.32L1403.62 515.662L1401.9 516.669L1481.88 563.328L1483.61 562.32Z" fill="#7F7F7F" mask="url(#path-98-inside-45_11_766430)"/>
<mask id="path-100-inside-46_11_766430" fill="white">
<path d="M1082.82 329.532L1162.8 376.19L1126.52 397.353L1046.54 350.694L1082.82 329.532Z"/>
</mask>
<path d="M1082.82 329.532L1162.8 376.19L1126.52 397.353L1046.54 350.694L1082.82 329.532Z" fill="white"/>
<path d="M1127.39 396.849L1047.4 350.19L1045.67 351.198L1125.66 397.857L1127.39 396.849Z" fill="#7F7F7F" mask="url(#path-100-inside-46_11_766430)"/>
<mask id="path-102-inside-47_11_766430" fill="white">
<path d="M1162.8 376.19L1242.79 422.849L1206.51 444.011L1126.52 397.353L1162.8 376.19Z"/>
</mask>
<path d="M1162.8 376.19L1242.79 422.849L1206.51 444.011L1126.52 397.353L1162.8 376.19Z" fill="white"/>
<path d="M1207.37 443.507L1127.39 396.849L1125.66 397.857L1205.65 444.515L1207.37 443.507Z" fill="#7F7F7F" mask="url(#path-102-inside-47_11_766430)"/>
<mask id="path-104-inside-48_11_766430" fill="white">
<path d="M1242.79 422.849L1322.77 469.507L1286.5 490.67L1206.51 444.011L1242.79 422.849Z"/>
</mask>
<path d="M1242.79 422.849L1322.77 469.507L1286.5 490.67L1206.51 444.011L1242.79 422.849Z" fill="white"/>
<path d="M1287.36 490.166L1207.37 443.507L1205.65 444.515L1285.63 491.174L1287.36 490.166Z" fill="#7F7F7F" mask="url(#path-104-inside-48_11_766430)"/>
<mask id="path-106-inside-49_11_766430" fill="white">
<path d="M1322.77 469.507L1402.76 516.166L1366.48 537.328L1286.5 490.67L1322.77 469.507Z"/>
</mask>
<path d="M1322.77 469.507L1402.76 516.166L1366.48 537.328L1286.5 490.67L1322.77 469.507Z" fill="white"/>
<path d="M1367.35 536.824L1287.36 490.166L1285.63 491.174L1365.62 537.832L1367.35 536.824Z" fill="#7F7F7F" mask="url(#path-106-inside-49_11_766430)"/>
<mask id="path-108-inside-50_11_766430" fill="white">
<path d="M1402.76 516.166L1482.75 562.824L1446.47 583.987L1366.48 537.328L1402.76 516.166Z"/>
</mask>
<path d="M1402.76 516.166L1482.75 562.824L1446.47 583.987L1366.48 537.328L1402.76 516.166Z" fill="white"/>
<path d="M1447.33 583.483L1367.35 536.824L1365.62 537.832L1445.6 584.49L1447.33 583.483Z" fill="#7F7F7F" mask="url(#path-108-inside-50_11_766430)"/>
<mask id="path-110-inside-51_11_766430" fill="white">
<path d="M1046.54 350.694L1126.52 397.353L1090.24 418.515L1010.26 371.857L1046.54 350.694Z"/>
</mask>
<path d="M1046.54 350.694L1126.52 397.353L1090.24 418.515L1010.26 371.857L1046.54 350.694Z" fill="white"/>
<path d="M1091.11 418.011L1011.12 371.353L1009.4 372.361L1089.38 419.019L1091.11 418.011Z" fill="#7F7F7F" mask="url(#path-110-inside-51_11_766430)"/>
<mask id="path-112-inside-52_11_766430" fill="white">
<path d="M1126.52 397.353L1206.51 444.011L1170.23 465.174L1090.24 418.515L1126.52 397.353Z"/>
</mask>
<path d="M1126.52 397.353L1206.51 444.011L1170.23 465.174L1090.24 418.515L1126.52 397.353Z" fill="white"/>
<path d="M1171.09 464.67L1091.11 418.011L1089.38 419.019L1169.37 465.678L1171.09 464.67Z" fill="#7F7F7F" mask="url(#path-112-inside-52_11_766430)"/>
<mask id="path-114-inside-53_11_766430" fill="white">
<path d="M1206.51 444.011L1286.5 490.67L1250.22 511.832L1170.23 465.174L1206.51 444.011Z"/>
</mask>
<path d="M1206.51 444.011L1286.5 490.67L1250.22 511.832L1170.23 465.174L1206.51 444.011Z" fill="white"/>
<path d="M1251.08 511.328L1171.09 464.67L1169.37 465.678L1249.35 512.336L1251.08 511.328Z" fill="#7F7F7F" mask="url(#path-114-inside-53_11_766430)"/>
<mask id="path-116-inside-54_11_766430" fill="white">
<path d="M1286.5 490.67L1366.48 537.328L1330.2 558.491L1250.22 511.832L1286.5 490.67Z"/>
</mask>
<path d="M1286.5 490.67L1366.48 537.328L1330.2 558.491L1250.22 511.832L1286.5 490.67Z" fill="white"/>
<path d="M1331.07 557.987L1251.08 511.328L1249.35 512.336L1329.34 558.995L1331.07 557.987Z" fill="#7F7F7F" mask="url(#path-116-inside-54_11_766430)"/>
<mask id="path-118-inside-55_11_766430" fill="white">
<path d="M1366.48 537.328L1446.47 583.987L1410.19 605.149L1330.2 558.491L1366.48 537.328Z"/>
</mask>
<path d="M1366.48 537.328L1446.47 583.987L1410.19 605.149L1330.2 558.491L1366.48 537.328Z" fill="white"/>
<path d="M1411.05 604.645L1331.07 557.987L1329.34 558.995L1409.32 605.653L1411.05 604.645Z" fill="#7F7F7F" mask="url(#path-118-inside-55_11_766430)"/>
<mask id="path-120-inside-56_11_766430" fill="white">
<path d="M1010.26 371.857L1090.25 418.515L1053.97 439.678L973.981 393.019L1010.26 371.857Z"/>
</mask>
<path d="M1010.26 371.857L1090.25 418.515L1053.97 439.678L973.981 393.019L1010.26 371.857Z" fill="white"/>
<path d="M1054.83 439.174L974.844 392.516L973.117 393.523L1053.1 440.182L1054.83 439.174Z" fill="#7F7F7F" mask="url(#path-120-inside-56_11_766430)"/>
<mask id="path-122-inside-57_11_766430" fill="white">
<path d="M1090.25 418.515L1170.23 465.174L1133.95 486.336L1053.97 439.678L1090.25 418.515Z"/>
</mask>
<path d="M1090.25 418.515L1170.23 465.174L1133.95 486.336L1053.97 439.678L1090.25 418.515Z" fill="white"/>
<path d="M1134.82 485.833L1054.83 439.174L1053.1 440.182L1133.09 486.84L1134.82 485.833Z" fill="#7F7F7F" mask="url(#path-122-inside-57_11_766430)"/>
<mask id="path-124-inside-58_11_766430" fill="white">
<path d="M1170.23 465.174L1250.22 511.832L1213.94 532.995L1133.95 486.336L1170.23 465.174Z"/>
</mask>
<path d="M1170.23 465.174L1250.22 511.832L1213.94 532.995L1133.95 486.336L1170.23 465.174Z" fill="white"/>
<path d="M1214.8 532.491L1134.82 485.833L1133.09 486.84L1213.07 533.499L1214.8 532.491Z" fill="#7F7F7F" mask="url(#path-124-inside-58_11_766430)"/>
<mask id="path-126-inside-59_11_766430" fill="white">
<path d="M1250.22 511.832L1330.2 558.491L1293.92 579.653L1213.94 532.995L1250.22 511.832Z"/>
</mask>
<path d="M1250.22 511.832L1330.2 558.491L1293.92 579.653L1213.94 532.995L1250.22 511.832Z" fill="white"/>
<path d="M1294.79 579.149L1214.8 532.491L1213.07 533.499L1293.06 580.157L1294.79 579.149Z" fill="#7F7F7F" mask="url(#path-126-inside-59_11_766430)"/>
<mask id="path-128-inside-60_11_766430" fill="white">
<path d="M1330.2 558.491L1410.19 605.149L1373.91 626.312L1293.92 579.653L1330.2 558.491Z"/>
</mask>
<path d="M1330.2 558.491L1410.19 605.149L1373.91 626.312L1293.92 579.653L1330.2 558.491Z" fill="white"/>
<path d="M1374.77 625.808L1294.79 579.149L1293.06 580.157L1373.05 626.816L1374.77 625.808Z" fill="#7F7F7F" mask="url(#path-128-inside-60_11_766430)"/>
<mask id="path-130-inside-61_11_766430" fill="white">
<path d="M973.98 393.019L1053.97 439.678L1017.69 460.84L937.702 414.182L973.98 393.019Z"/>
</mask>
<path d="M973.98 393.019L1053.97 439.678L1017.69 460.84L937.702 414.182L973.98 393.019Z" fill="white"/>
<path d="M1018.55 460.336L938.566 413.678L936.838 414.686L1016.82 461.344L1018.55 460.336Z" fill="#7F7F7F" mask="url(#path-130-inside-61_11_766430)"/>
<mask id="path-132-inside-62_11_766430" fill="white">
<path d="M1053.97 439.678L1133.95 486.336L1097.67 507.499L1017.69 460.84L1053.97 439.678Z"/>
</mask>
<path d="M1053.97 439.678L1133.95 486.336L1097.67 507.499L1017.69 460.84L1053.97 439.678Z" fill="white"/>
<path d="M1098.54 506.995L1018.55 460.336L1016.82 461.344L1096.81 508.003L1098.54 506.995Z" fill="#7F7F7F" mask="url(#path-132-inside-62_11_766430)"/>
<mask id="path-134-inside-63_11_766430" fill="white">
<path d="M1133.95 486.336L1213.94 532.995L1177.66 554.157L1097.67 507.499L1133.95 486.336Z"/>
</mask>
<path d="M1133.95 486.336L1213.94 532.995L1177.66 554.157L1097.67 507.499L1133.95 486.336Z" fill="white"/>
<path d="M1178.52 553.653L1098.54 506.995L1096.81 508.003L1176.8 554.661L1178.52 553.653Z" fill="#7F7F7F" mask="url(#path-134-inside-63_11_766430)"/>
<mask id="path-136-inside-64_11_766430" fill="white">
<path d="M1213.94 532.995L1293.92 579.653L1257.65 600.816L1177.66 554.157L1213.94 532.995Z"/>
</mask>
<path d="M1213.94 532.995L1293.92 579.653L1257.65 600.816L1177.66 554.157L1213.94 532.995Z" fill="white"/>
<path d="M1258.51 600.312L1178.52 553.653L1176.8 554.661L1256.78 601.32L1258.51 600.312Z" fill="#7F7F7F" mask="url(#path-136-inside-64_11_766430)"/>
<mask id="path-138-inside-65_11_766430" fill="white">
<path d="M1293.92 579.653L1373.91 626.312L1337.63 647.474L1257.65 600.816L1293.92 579.653Z"/>
</mask>
<path d="M1293.92 579.653L1373.91 626.312L1337.63 647.474L1257.65 600.816L1293.92 579.653Z" fill="white"/>
<path d="M1338.5 646.97L1258.51 600.312L1256.78 601.32L1336.77 647.978L1338.5 646.97Z" fill="#7F7F7F" mask="url(#path-138-inside-65_11_766430)"/>
<mask id="path-140-inside-66_11_766430" fill="white">
<path d="M937.702 414.182L1017.69 460.84L981.409 482.003L901.423 435.344L937.702 414.182Z"/>
</mask>
<path d="M937.702 414.182L1017.69 460.84L981.409 482.003L901.423 435.344L937.702 414.182Z" fill="white"/>
<path d="M982.273 481.499L902.287 434.841L900.559 435.848L980.545 482.507L982.273 481.499Z" fill="#7F7F7F" mask="url(#path-140-inside-66_11_766430)"/>
<mask id="path-142-inside-67_11_766430" fill="white">
<path d="M1017.69 460.84L1097.67 507.499L1061.39 528.661L981.409 482.003L1017.69 460.84Z"/>
</mask>
<path d="M1017.69 460.84L1097.67 507.499L1061.39 528.661L981.409 482.003L1017.69 460.84Z" fill="white"/>
<path d="M1062.26 528.158L982.273 481.499L980.545 482.507L1060.53 529.165L1062.26 528.158Z" fill="#7F7F7F" mask="url(#path-142-inside-67_11_766430)"/>
<mask id="path-144-inside-68_11_766430" fill="white">
<path d="M1097.67 507.499L1177.66 554.157L1141.38 575.32L1061.39 528.661L1097.67 507.499Z"/>
</mask>
<path d="M1097.67 507.499L1177.66 554.157L1141.38 575.32L1061.39 528.661L1097.67 507.499Z" fill="white"/>
<path d="M1142.24 574.816L1062.26 528.157L1060.53 529.165L1140.52 575.824L1142.24 574.816Z" fill="#7F7F7F" mask="url(#path-144-inside-68_11_766430)"/>
<mask id="path-146-inside-69_11_766430" fill="white">
<path d="M1177.66 554.157L1257.65 600.816L1221.37 621.978L1141.38 575.32L1177.66 554.157Z"/>
</mask>
<path d="M1177.66 554.157L1257.65 600.816L1221.37 621.978L1141.38 575.32L1177.66 554.157Z" fill="white"/>
<path d="M1222.23 621.474L1142.24 574.816L1140.52 575.824L1220.5 622.482L1222.23 621.474Z" fill="#7F7F7F" mask="url(#path-146-inside-69_11_766430)"/>
<mask id="path-148-inside-70_11_766430" fill="white">
<path d="M1257.65 600.816L1337.63 647.474L1301.35 668.637L1221.37 621.978L1257.65 600.816Z"/>
</mask>
<path d="M1257.65 600.816L1337.63 647.474L1301.35 668.637L1221.37 621.978L1257.65 600.816Z" fill="white"/>
<path d="M1302.22 668.133L1222.23 621.474L1220.5 622.482L1300.49 669.141L1302.22 668.133Z" fill="#7F7F7F" mask="url(#path-148-inside-70_11_766430)"/>
<rect width="92.6" height="42" transform="matrix(0.863779 0.503871 -0.863779 0.503871 901.423 435.344)" fill="white"/>
<rect width="92.6" height="42" transform="matrix(0.863779 0.503871 -0.863779 0.503871 981.409 482.003)" fill="white"/>
<rect width="92.6" height="42" transform="matrix(0.863779 0.503871 -0.863779 0.503871 1061.39 528.661)" fill="white"/>
<rect width="92.6" height="42" transform="matrix(0.863779 0.503871 -0.863779 0.503871 1141.38 575.32)" fill="white"/>
<rect width="92.6" height="42" transform="matrix(0.863779 0.503871 -0.863779 0.503871 1221.37 621.978)" fill="white"/>
</g>
<path d="M1529.39 495.305L1198.56 302.323C1169.46 285.348 1122.28 285.348 1093.18 302.323L891.058 420.228C861.958 437.204 861.958 464.726 891.058 481.701L1221.89 674.683C1250.99 691.658 1298.17 691.658 1327.27 674.683L1529.39 556.777C1558.49 539.802 1558.49 512.28 1529.39 495.305Z" stroke="black" stroke-width="2"/>
<path opacity="0.3" d="M1367.02 488.755C1367.02 500.733 1362.97 512.593 1355.11 523.66C1347.26 534.726 1335.74 544.781 1321.22 553.25C1306.7 561.72 1289.46 568.439 1270.49 573.022C1251.52 577.606 1231.19 579.965 1210.66 579.965C1190.12 579.965 1169.79 577.606 1150.82 573.022C1131.85 568.439 1114.61 561.72 1100.09 553.25C1085.57 544.781 1074.06 534.726 1066.2 523.66C1058.34 512.594 1054.3 500.733 1054.3 488.755C1054.3 476.777 1058.34 464.916 1066.2 453.85C1074.06 442.784 1085.57 432.729 1100.09 424.259C1114.61 415.79 1131.85 409.071 1150.82 404.488C1169.79 399.904 1190.12 397.545 1210.66 397.545C1231.19 397.545 1251.52 399.904 1270.49 404.488C1289.46 409.071 1306.7 415.79 1321.22 424.259C1335.74 432.729 1347.26 442.784 1355.11 453.85C1362.97 464.916 1367.02 476.777 1367.02 488.755L1367.02 488.755Z" stroke="black" stroke-width="2"/>
<path d="M1210.66 579.965C1179.73 579.965 1149.5 574.616 1123.79 564.594C1098.07 554.571 1078.03 540.326 1066.2 523.66C1054.36 506.993 1051.27 488.654 1057.3 470.961C1063.33 453.268 1078.22 437.015 1100.09 424.259C1121.96 411.503 1149.82 402.817 1180.15 399.297C1210.48 395.778 1241.92 397.584 1270.49 404.488C1299.06 411.391 1323.48 423.082 1340.66 438.081C1357.85 453.081 1367.02 470.715 1367.02 488.755" stroke="black" stroke-width="2"/>
<g clip-path="url(#clip7_11_766430)">
<path d="M298.506 225.734C327.129 209.037 373.536 209.037 402.159 225.734L1196.84 689.296C1225.46 705.992 1225.46 733.063 1196.84 749.76L1010.26 858.596C981.637 875.293 935.229 875.293 906.606 858.596L111.929 395.035C83.3064 378.338 83.3064 351.267 111.93 334.57L298.506 225.734Z" fill="white"/>
<mask id="path-154-inside-71_11_766430" fill="white">
<path d="M367.608 205.579L540.364 306.354L504.085 327.516L331.329 226.742L367.608 205.579Z"/>
</mask>
<path d="M367.608 205.579L540.364 306.354L504.085 327.516L331.329 226.742L367.608 205.579Z" fill="white"/>
<path d="M504.949 327.012L332.193 226.238L330.465 227.246L503.221 328.02L504.949 327.012Z" fill="#7F7F7F" mask="url(#path-154-inside-71_11_766430)"/>
<mask id="path-156-inside-72_11_766430" fill="white">
<path d="M540.364 306.354L713.12 407.128L676.841 428.29L504.085 327.516L540.364 306.354Z"/>
</mask>
<path d="M540.364 306.354L713.12 407.128L676.841 428.29L504.085 327.516L540.364 306.354Z" fill="white"/>
<path d="M677.705 427.786L504.949 327.012L503.221 328.02L675.977 428.794L677.705 427.786Z" fill="#7F7F7F" mask="url(#path-156-inside-72_11_766430)"/>
<mask id="path-158-inside-73_11_766430" fill="white">
<path d="M713.12 407.128L885.875 507.902L849.597 529.064L676.841 428.29L713.12 407.128Z"/>
</mask>
<path d="M713.12 407.128L885.875 507.902L849.597 529.064L676.841 428.29L713.12 407.128Z" fill="white"/>
<path d="M850.46 528.561L677.705 427.786L675.977 428.794L848.733 529.568L850.46 528.561Z" fill="#7F7F7F" mask="url(#path-158-inside-73_11_766430)"/>
<mask id="path-160-inside-74_11_766430" fill="white">
<path d="M885.875 507.902L1058.63 608.676L1022.35 629.839L849.597 529.064L885.875 507.902Z"/>
</mask>
<path d="M885.875 507.902L1058.63 608.676L1022.35 629.839L849.597 529.064L885.875 507.902Z" fill="white"/>
<path d="M1023.22 629.335L850.461 528.561L848.733 529.568L1021.49 630.343L1023.22 629.335Z" fill="#7F7F7F" mask="url(#path-160-inside-74_11_766430)"/>
<mask id="path-162-inside-75_11_766430" fill="white">
<path d="M1058.63 608.676L1231.39 709.45L1195.11 730.613L1022.35 629.839L1058.63 608.676Z"/>
</mask>
<path d="M1058.63 608.676L1231.39 709.45L1195.11 730.613L1022.35 629.839L1058.63 608.676Z" fill="white"/>
<path d="M1195.97 730.109L1023.22 629.335L1021.49 630.343L1194.24 731.117L1195.97 730.109Z" fill="#7F7F7F" mask="url(#path-162-inside-75_11_766430)"/>
<mask id="path-164-inside-76_11_766430" fill="white">
<path d="M331.329 226.742L504.085 327.516L467.806 348.679L295.05 247.905L331.329 226.742Z"/>
</mask>
<path d="M331.329 226.742L504.085 327.516L467.806 348.679L295.05 247.905L331.329 226.742Z" fill="white"/>
<path d="M468.67 348.175L295.914 247.401L294.187 248.408L466.942 349.183L468.67 348.175Z" fill="#7F7F7F" mask="url(#path-164-inside-76_11_766430)"/>
<mask id="path-166-inside-77_11_766430" fill="white">
<path d="M504.085 327.516L676.841 428.29L640.562 449.453L467.806 348.679L504.085 327.516Z"/>
</mask>
<path d="M504.085 327.516L676.841 428.29L640.562 449.453L467.806 348.679L504.085 327.516Z" fill="white"/>
<path d="M641.426 448.949L468.67 348.175L466.942 349.183L639.698 449.957L641.426 448.949Z" fill="#7F7F7F" mask="url(#path-166-inside-77_11_766430)"/>
<mask id="path-168-inside-78_11_766430" fill="white">
<path d="M676.841 428.29L849.597 529.064L813.318 550.227L640.562 449.453L676.841 428.29Z"/>
</mask>
<path d="M676.841 428.29L849.597 529.064L813.318 550.227L640.562 449.453L676.841 428.29Z" fill="white"/>
<path d="M814.182 549.723L641.426 448.949L639.698 449.957L812.454 550.731L814.182 549.723Z" fill="#7F7F7F" mask="url(#path-168-inside-78_11_766430)"/>
<mask id="path-170-inside-79_11_766430" fill="white">
<path d="M849.597 529.064L1022.35 629.839L986.074 651.001L813.318 550.227L849.597 529.064Z"/>
</mask>
<path d="M849.597 529.064L1022.35 629.839L986.074 651.001L813.318 550.227L849.597 529.064Z" fill="white"/>
<path d="M986.938 650.497L814.182 549.723L812.454 550.731L985.21 651.505L986.938 650.497Z" fill="#7F7F7F" mask="url(#path-170-inside-79_11_766430)"/>
<mask id="path-172-inside-80_11_766430" fill="white">
<path d="M1022.35 629.839L1195.11 730.613L1158.83 751.776L986.074 651.001L1022.35 629.839Z"/>
</mask>
<path d="M1022.35 629.839L1195.11 730.613L1158.83 751.776L986.074 651.001L1022.35 629.839Z" fill="white"/>
<path d="M1159.69 751.272L986.938 650.498L985.21 651.505L1157.97 752.28L1159.69 751.272Z" fill="#7F7F7F" mask="url(#path-172-inside-80_11_766430)"/>
<mask id="path-174-inside-81_11_766430" fill="white">
<path d="M295.05 247.905L467.806 348.679L431.527 369.841L258.772 269.067L295.05 247.905Z"/>
</mask>
<path d="M295.05 247.905L467.806 348.679L431.527 369.841L258.772 269.067L295.05 247.905Z" fill="white"/>
<path d="M432.391 369.337L259.635 268.563L257.908 269.571L430.664 370.345L432.391 369.337Z" fill="#7F7F7F" mask="url(#path-174-inside-81_11_766430)"/>
<mask id="path-176-inside-82_11_766430" fill="white">
<path d="M467.806 348.679L640.562 449.453L604.283 470.615L431.527 369.841L467.806 348.679Z"/>
</mask>
<path d="M467.806 348.679L640.562 449.453L604.283 470.615L431.527 369.841L467.806 348.679Z" fill="white"/>
<path d="M605.147 470.112L432.391 369.337L430.664 370.345L603.419 471.119L605.147 470.112Z" fill="#7F7F7F" mask="url(#path-176-inside-82_11_766430)"/>
<mask id="path-178-inside-83_11_766430" fill="white">
<path d="M640.562 449.453L813.318 550.227L777.039 571.39L604.283 470.615L640.562 449.453Z"/>
</mask>
<path d="M640.562 449.453L813.318 550.227L777.039 571.39L604.283 470.615L640.562 449.453Z" fill="white"/>
<path d="M777.903 570.886L605.147 470.112L603.42 471.119L776.175 571.894L777.903 570.886Z" fill="#7F7F7F" mask="url(#path-178-inside-83_11_766430)"/>
<mask id="path-180-inside-84_11_766430" fill="white">
<path d="M813.318 550.227L986.074 651.001L949.795 672.164L777.039 571.39L813.318 550.227Z"/>
</mask>
<path d="M813.318 550.227L986.074 651.001L949.795 672.164L777.039 571.39L813.318 550.227Z" fill="white"/>
<path d="M950.659 671.66L777.903 570.886L776.175 571.894L948.931 672.668L950.659 671.66Z" fill="#7F7F7F" mask="url(#path-180-inside-84_11_766430)"/>
<mask id="path-182-inside-85_11_766430" fill="white">
<path d="M986.074 651.001L1158.83 751.776L1122.55 772.938L949.795 672.164L986.074 651.001Z"/>
</mask>
<path d="M986.074 651.001L1158.83 751.776L1122.55 772.938L949.795 672.164L986.074 651.001Z" fill="white"/>
<path d="M1123.41 772.434L950.659 671.66L948.931 672.668L1121.69 773.442L1123.41 772.434Z" fill="#7F7F7F" mask="url(#path-182-inside-85_11_766430)"/>
<mask id="path-184-inside-86_11_766430" fill="white">
<path d="M258.772 269.067L431.528 369.841L395.249 391.004L222.493 290.23L258.772 269.067Z"/>
</mask>
<path d="M258.772 269.067L431.528 369.841L395.249 391.004L222.493 290.23L258.772 269.067Z" fill="white"/>
<path d="M396.113 390.5L223.357 289.726L221.629 290.734L394.385 391.508L396.113 390.5Z" fill="#7F7F7F" mask="url(#path-184-inside-86_11_766430)"/>
<mask id="path-186-inside-87_11_766430" fill="white">
<path d="M431.528 369.841L604.284 470.616L568.005 491.778L395.249 391.004L431.528 369.841Z"/>
</mask>
<path d="M431.528 369.841L604.284 470.616L568.005 491.778L395.249 391.004L431.528 369.841Z" fill="white"/>
<path d="M568.869 491.274L396.113 390.5L394.385 391.508L567.141 492.282L568.869 491.274Z" fill="#7F7F7F" mask="url(#path-186-inside-87_11_766430)"/>
<mask id="path-188-inside-88_11_766430" fill="white">
<path d="M604.284 470.615L777.039 571.39L740.761 592.552L568.005 491.778L604.284 470.615Z"/>
</mask>
<path d="M604.284 470.615L777.039 571.39L740.761 592.552L568.005 491.778L604.284 470.615Z" fill="white"/>
<path d="M741.625 592.048L568.869 491.274L567.141 492.282L739.897 593.056L741.625 592.048Z" fill="#7F7F7F" mask="url(#path-188-inside-88_11_766430)"/>
<mask id="path-190-inside-89_11_766430" fill="white">
<path d="M777.04 571.39L949.795 672.164L913.517 693.326L740.761 592.552L777.04 571.39Z"/>
</mask>
<path d="M777.04 571.39L949.795 672.164L913.517 693.326L740.761 592.552L777.04 571.39Z" fill="white"/>
<path d="M914.38 692.823L741.625 592.048L739.897 593.056L912.653 693.83L914.38 692.823Z" fill="#7F7F7F" mask="url(#path-190-inside-89_11_766430)"/>
<mask id="path-192-inside-90_11_766430" fill="white">
<path d="M949.795 672.164L1122.55 772.938L1086.27 794.101L913.517 693.327L949.795 672.164Z"/>
</mask>
<path d="M949.795 672.164L1122.55 772.938L1086.27 794.101L913.517 693.327L949.795 672.164Z" fill="white"/>
<path d="M1087.14 793.597L914.38 692.823L912.653 693.831L1085.41 794.605L1087.14 793.597Z" fill="#7F7F7F" mask="url(#path-192-inside-90_11_766430)"/>
<mask id="path-194-inside-91_11_766430" fill="white">
<path d="M222.493 290.23L395.249 391.004L358.97 412.167L186.214 311.392L222.493 290.23Z"/>
</mask>
<path d="M222.493 290.23L395.249 391.004L358.97 412.167L186.214 311.392L222.493 290.23Z" fill="white"/>
<path d="M359.834 411.663L187.078 310.888L185.351 311.896L358.106 412.67L359.834 411.663Z" fill="#7F7F7F" mask="url(#path-194-inside-91_11_766430)"/>
<mask id="path-196-inside-92_11_766430" fill="white">
<path d="M395.249 391.004L568.005 491.778L531.726 512.941L358.97 412.166L395.249 391.004Z"/>
</mask>
<path d="M395.249 391.004L568.005 491.778L531.726 512.941L358.97 412.166L395.249 391.004Z" fill="white"/>
<path d="M532.59 512.437L359.834 411.663L358.107 412.67L530.862 513.445L532.59 512.437Z" fill="#7F7F7F" mask="url(#path-196-inside-92_11_766430)"/>
<mask id="path-198-inside-93_11_766430" fill="white">
<path d="M568.005 491.778L740.761 592.552L704.482 613.715L531.726 512.941L568.005 491.778Z"/>
</mask>
<path d="M568.005 491.778L740.761 592.552L704.482 613.715L531.726 512.941L568.005 491.778Z" fill="white"/>
<path d="M705.346 613.211L532.59 512.437L530.862 513.445L703.618 614.219L705.346 613.211Z" fill="#7F7F7F" mask="url(#path-198-inside-93_11_766430)"/>
<mask id="path-200-inside-94_11_766430" fill="white">
<path d="M740.761 592.552L913.517 693.326L877.238 714.489L704.482 613.715L740.761 592.552Z"/>
</mask>
<path d="M740.761 592.552L913.517 693.326L877.238 714.489L704.482 613.715L740.761 592.552Z" fill="white"/>
<path d="M878.102 713.985L705.346 613.211L703.618 614.219L876.374 714.993L878.102 713.985Z" fill="#7F7F7F" mask="url(#path-200-inside-94_11_766430)"/>
<mask id="path-202-inside-95_11_766430" fill="white">
<path d="M913.517 693.327L1086.27 794.101L1049.99 815.263L877.238 714.489L913.517 693.327Z"/>
</mask>
<path d="M913.517 693.327L1086.27 794.101L1049.99 815.263L877.238 714.489L913.517 693.327Z" fill="white"/>
<path d="M1050.86 814.76L878.102 713.985L876.374 714.993L1049.13 815.767L1050.86 814.76Z" fill="#7F7F7F" mask="url(#path-202-inside-95_11_766430)"/>
<mask id="path-204-inside-96_11_766430" fill="white">
<path d="M186.214 311.392L358.97 412.166L322.691 433.329L149.936 332.555L186.214 311.392Z"/>
</mask>
<path d="M186.214 311.392L358.97 412.166L322.691 433.329L149.936 332.555L186.214 311.392Z" fill="white"/>
<path d="M323.555 432.825L150.799 332.051L149.072 333.059L321.828 433.833L323.555 432.825Z" fill="#7F7F7F" mask="url(#path-204-inside-96_11_766430)"/>
<mask id="path-206-inside-97_11_766430" fill="white">
<path d="M358.97 412.167L531.726 512.941L495.447 534.103L322.691 433.329L358.97 412.167Z"/>
</mask>
<path d="M358.97 412.167L531.726 512.941L495.447 534.103L322.691 433.329L358.97 412.167Z" fill="white"/>
<path d="M496.311 533.599L323.555 432.825L321.828 433.833L494.584 534.607L496.311 533.599Z" fill="#7F7F7F" mask="url(#path-206-inside-97_11_766430)"/>
<mask id="path-208-inside-98_11_766430" fill="white">
<path d="M531.726 512.941L704.482 613.715L668.203 634.877L495.447 534.103L531.726 512.941Z"/>
</mask>
<path d="M531.726 512.941L704.482 613.715L668.203 634.877L495.447 534.103L531.726 512.941Z" fill="white"/>
<path d="M669.067 634.374L496.311 533.599L494.584 534.607L667.339 635.381L669.067 634.374Z" fill="#7F7F7F" mask="url(#path-208-inside-98_11_766430)"/>
<mask id="path-210-inside-99_11_766430" fill="white">
<path d="M704.482 613.715L877.238 714.489L840.959 735.652L668.203 634.877L704.482 613.715Z"/>
</mask>
<path d="M704.482 613.715L877.238 714.489L840.959 735.652L668.203 634.877L704.482 613.715Z" fill="white"/>
<path d="M841.823 735.148L669.067 634.374L667.339 635.381L840.095 736.156L841.823 735.148Z" fill="#7F7F7F" mask="url(#path-210-inside-99_11_766430)"/>
<mask id="path-212-inside-100_11_766430" fill="white">
<path d="M877.238 714.489L1049.99 815.263L1013.71 836.426L840.959 735.652L877.238 714.489Z"/>
</mask>
<path d="M877.238 714.489L1049.99 815.263L1013.71 836.426L840.959 735.652L877.238 714.489Z" fill="white"/>
<path d="M1014.58 835.922L841.823 735.148L840.095 736.155L1012.85 836.93L1014.58 835.922Z" fill="#7F7F7F" mask="url(#path-212-inside-100_11_766430)"/>
<mask id="path-214-inside-101_11_766430" fill="white">
<path d="M149.936 332.555L322.691 433.329L286.413 454.492L113.657 353.717L149.936 332.555Z"/>
</mask>
<path d="M149.936 332.555L322.691 433.329L286.413 454.492L113.657 353.717L149.936 332.555Z" fill="white"/>
<path d="M287.276 453.988L114.521 353.214L112.793 354.221L285.549 454.995L287.276 453.988Z" fill="#7F7F7F" mask="url(#path-214-inside-101_11_766430)"/>
<mask id="path-216-inside-102_11_766430" fill="white">
<path d="M322.691 433.329L495.447 534.103L459.168 555.266L286.413 454.492L322.691 433.329Z"/>
</mask>
<path d="M322.691 433.329L495.447 534.103L459.168 555.266L286.413 454.492L322.691 433.329Z" fill="white"/>
<path d="M460.032 554.762L287.276 453.988L285.549 454.996L458.305 555.77L460.032 554.762Z" fill="#7F7F7F" mask="url(#path-216-inside-102_11_766430)"/>
<mask id="path-218-inside-103_11_766430" fill="white">
<path d="M495.447 534.103L668.203 634.877L631.924 656.04L459.169 555.266L495.447 534.103Z"/>
</mask>
<path d="M495.447 534.103L668.203 634.877L631.924 656.04L459.169 555.266L495.447 534.103Z" fill="white"/>
<path d="M632.788 655.536L460.032 554.762L458.305 555.77L631.061 656.544L632.788 655.536Z" fill="#7F7F7F" mask="url(#path-218-inside-103_11_766430)"/>
<mask id="path-220-inside-104_11_766430" fill="white">
<path d="M668.203 634.877L840.959 735.652L804.68 756.814L631.924 656.04L668.203 634.877Z"/>
</mask>
<path d="M668.203 634.877L840.959 735.652L804.68 756.814L631.924 656.04L668.203 634.877Z" fill="white"/>
<path d="M805.544 756.31L632.788 655.536L631.061 656.544L803.816 757.318L805.544 756.31Z" fill="#7F7F7F" mask="url(#path-220-inside-104_11_766430)"/>
<mask id="path-222-inside-105_11_766430" fill="white">
<path d="M840.959 735.652L1013.71 836.426L977.436 857.588L804.68 756.814L840.959 735.652Z"/>
</mask>
<path d="M840.959 735.652L1013.71 836.426L977.436 857.588L804.68 756.814L840.959 735.652Z" fill="white"/>
<path d="M978.3 857.085L805.544 756.31L803.816 757.318L976.572 858.092L978.3 857.085Z" fill="#7F7F7F" mask="url(#path-222-inside-105_11_766430)"/>
<rect width="200" height="42" transform="matrix(0.863779 0.503871 -0.863779 0.503871 113.657 353.717)" fill="white"/>
<rect width="200" height="42" transform="matrix(0.863779 0.503871 -0.863779 0.503871 286.413 454.492)" fill="white"/>
<rect width="200" height="42" transform="matrix(0.863779 0.503871 -0.863779 0.503871 459.168 555.266)" fill="white"/>
<rect width="200" height="42" transform="matrix(0.863779 0.503871 -0.863779 0.503871 631.924 656.04)" fill="white"/>
<rect width="200" height="42" transform="matrix(0.863779 0.503871 -0.863779 0.503871 804.68 756.814)" fill="white"/>
</g>
<path d="M1197.7 688.792L403.023 225.23C373.923 208.255 326.742 208.255 297.642 225.23L111.066 334.066C81.9656 351.042 81.9655 378.564 111.066 395.539L905.742 859.1C934.843 876.075 982.023 876.075 1011.12 859.1L1197.7 750.264C1226.8 733.289 1226.8 705.767 1197.7 688.792Z" stroke="black" stroke-width="2"/>
</g>
<defs>
<clipPath id="clip0_11_766430">
<rect width="1079" height="800" fill="white" transform="matrix(0.866044 0.499967 -0.866044 0.499967 693.008 153)"/>
</clipPath>
<clipPath id="clip1_11_766430">
<path d="M633.251 216.496C661.949 199.928 708.478 199.928 737.176 216.496L1517.48 666.966C1546.18 683.534 1546.18 710.395 1517.48 726.963L997.855 1026.94C969.157 1043.51 922.628 1043.51 893.93 1026.94L113.624 576.472C84.9259 559.905 84.9259 533.044 113.624 516.476L633.251 216.496Z" fill="white"/>
</clipPath>
<clipPath id="clip2_11_766430">
<rect width="188.2" height="70" fill="white" transform="matrix(0.866044 0.499967 -0.866044 0.499967 833.134 893.852)"/>
</clipPath>
<clipPath id="clip3_11_766430">
<rect width="188.2" height="50" fill="white" transform="matrix(0.866044 0.499967 -0.866044 0.499967 824.473 898.851)"/>
</clipPath>
<clipPath id="clip4_11_766430">
<rect width="1044" height="724" fill="white" transform="matrix(0.863779 0.503871 -0.863779 0.503871 682.023 0)"/>
</clipPath>
<clipPath id="clip5_11_766430">
<path d="M630.197 32.2478C658.82 15.5509 705.227 15.5509 733.85 32.2478L1064.68 225.23C1093.3 241.927 1093.3 268.998 1064.68 285.695L862.553 403.601C833.93 420.298 787.523 420.298 758.9 403.601L428.072 210.618C399.449 193.921 399.449 166.85 428.072 150.154L630.197 32.2478Z" fill="white"/>
</clipPath>
<clipPath id="clip6_11_766430">
<path d="M1094.05 302.827C1122.67 286.13 1169.08 286.13 1197.7 302.826L1528.53 495.809C1557.15 512.506 1557.15 539.577 1528.53 556.274L1326.4 674.179C1297.78 690.876 1251.37 690.876 1222.75 674.179L891.922 481.197C863.298 464.5 863.298 437.429 891.922 420.732L1094.05 302.827Z" fill="white"/>
</clipPath>
<clipPath id="clip7_11_766430">
<path d="M298.506 225.734C327.129 209.037 373.536 209.037 402.159 225.734L1196.84 689.296C1225.46 705.992 1225.46 733.063 1196.84 749.76L1010.26 858.596C981.637 875.293 935.229 875.293 906.606 858.596L111.929 395.035C83.3064 378.338 83.3064 351.267 111.93 334.57L298.506 225.734Z" fill="white"/>
</clipPath>
</defs>
</svg>
