<svg width="1628" height="1093" viewBox="0 0 1628 1093" fill="none" xmlns="http://www.w3.org/2000/svg">
<g clip-path="url(#clip0_1_1276)">
<g clip-path="url(#clip1_1_1276)">
<path d="M633.252 216.496C661.95 199.929 708.479 199.929 737.178 216.496L1517.48 666.967C1546.18 683.534 1546.18 710.395 1517.48 726.963L997.857 1026.94C969.159 1043.51 922.63 1043.51 893.932 1026.94L113.626 576.473C84.9274 559.905 84.9274 533.044 113.626 516.477L633.252 216.496Z" fill="black"/>
<rect width="188.2" height="42" transform="matrix(0.866044 0.499967 -0.866044 0.499967 156.928 531.476)" fill="black"/>
<rect width="188.2" height="42" transform="matrix(0.866044 0.499967 -0.866044 0.499967 319.917 625.569)" fill="black"/>
<rect width="188.2" height="42" transform="matrix(0.866044 0.499967 -0.866044 0.499967 482.907 719.663)" fill="black"/>
<rect width="188.2" height="42" transform="matrix(0.866044 0.499967 -0.866044 0.499967 645.896 813.757)" fill="black"/>
<g clip-path="url(#clip2_1_1276)">
<rect width="188.2" height="70" transform="matrix(0.866044 0.499967 -0.866044 0.499967 833.135 893.852)" fill="black"/>
<g clip-path="url(#clip3_1_1276)">
<rect width="188.2" height="50" transform="matrix(0.866044 0.499967 -0.866044 0.499967 824.475 898.852)" fill="black"/>
<path d="M864.816 958.139L880.405 949.139L883.18 950.741L879.501 952.865L880.062 952.325C880.582 952.145 881.101 952.013 881.621 951.929C882.141 951.845 882.775 951.827 883.523 951.875C884.292 951.911 885.071 952.037 885.861 952.253C886.693 952.469 887.524 952.817 888.355 953.297C889.748 954.101 890.527 954.983 890.694 955.943C890.86 956.903 890.423 957.839 889.384 958.75L888.823 958.462C889.654 958.175 890.444 957.971 891.193 957.851C891.941 957.731 892.762 957.689 893.656 957.725C894.466 957.761 895.256 957.881 896.025 958.085C896.794 958.289 897.615 958.642 898.488 959.146C899.652 959.818 900.411 960.508 900.764 961.216C901.138 961.936 901.097 962.668 900.639 963.412C900.182 964.156 899.309 964.9 898.02 965.644L887.919 971.476L885.051 969.82L894.217 964.528C895.173 963.976 895.859 963.52 896.274 963.16C896.711 962.788 896.919 962.368 896.898 961.9C896.898 961.468 896.721 961.09 896.368 960.766C896.015 960.442 895.609 960.148 895.152 959.884C894.238 959.356 893.188 959.074 892.003 959.038C891.151 959.026 890.278 959.122 889.384 959.326C888.511 959.542 887.503 959.98 886.36 960.64L877.755 965.608L874.887 963.952L884.053 958.66L884.178 958.588C885.071 958.073 885.726 957.635 886.142 957.275C886.578 956.903 886.776 956.489 886.734 956.033C886.734 955.601 886.557 955.223 886.204 954.899C885.851 954.575 885.445 954.281 884.988 954.017C884.531 953.753 884.032 953.549 883.492 953.405C882.951 953.261 882.4 953.183 881.839 953.171C880.987 953.159 880.114 953.255 879.22 953.459C878.347 953.675 877.339 954.113 876.196 954.773L867.591 959.74L864.816 958.139ZM897.994 977.724C896.394 976.8 895.323 975.81 894.783 974.754C894.284 973.698 894.336 972.637 894.939 971.569C895.542 970.501 896.685 969.481 898.368 968.509C899.948 967.597 901.663 966.967 903.513 966.619C905.404 966.271 907.275 966.235 909.125 966.511C911.016 966.787 912.752 967.381 914.331 968.293C915.89 969.193 916.898 970.183 917.356 971.263C917.854 972.343 917.792 973.422 917.169 974.502C916.566 975.594 915.485 976.59 913.926 977.49C912.305 978.426 910.549 979.068 908.657 979.416C906.786 979.752 904.916 979.776 903.045 979.488C901.216 979.2 899.532 978.612 897.994 977.724ZM900.208 976.446C901.746 977.334 903.336 977.748 904.978 977.688C905.913 977.652 906.87 977.472 907.846 977.148C908.844 976.812 909.863 976.344 910.902 975.744C913.064 974.496 914.186 973.344 914.269 972.289C914.331 971.341 913.614 970.435 912.118 969.571C911.349 969.127 910.58 968.803 909.811 968.599C909.062 968.383 908.304 968.281 907.535 968.293C906.558 968.305 905.55 968.479 904.51 968.815C903.513 969.151 902.474 969.631 901.393 970.255C900.312 970.879 899.47 971.485 898.867 972.073C898.306 972.661 898.015 973.236 897.994 973.8C897.953 974.688 898.691 975.57 900.208 976.446ZM915.432 987.791C913.831 986.867 912.761 985.877 912.22 984.821C911.721 983.765 911.773 982.703 912.376 981.635C912.979 980.567 914.122 979.547 915.806 978.575C917.385 977.663 919.1 977.033 920.95 976.685C922.842 976.337 924.712 976.301 926.562 976.577C928.453 976.853 930.189 977.447 931.769 978.359C933.328 979.259 934.336 980.249 934.793 981.329C935.292 982.409 935.229 983.489 934.606 984.569C934.003 985.661 932.922 986.657 931.363 987.557C929.742 988.493 927.986 989.135 926.094 989.483C924.224 989.819 922.353 989.843 920.482 989.555C918.653 989.267 916.97 988.679 915.432 987.791ZM917.645 986.513C919.183 987.401 920.773 987.815 922.415 987.755C923.351 987.719 924.307 987.539 925.284 987.215C926.281 986.879 927.3 986.411 928.339 985.811C930.501 984.563 931.623 983.411 931.706 982.355C931.769 981.407 931.052 980.501 929.555 979.637C928.786 979.193 928.017 978.869 927.248 978.665C926.5 978.449 925.741 978.347 924.972 978.359C923.995 978.371 922.987 978.545 921.948 978.881C920.95 979.217 919.911 979.697 918.83 980.321C917.749 980.945 916.907 981.551 916.305 982.139C915.743 982.727 915.452 983.303 915.432 983.867C915.39 984.755 916.128 985.637 917.645 986.513ZM931.622 997.137C929.73 996.045 928.608 994.869 928.255 993.61C927.901 992.35 928.65 991.198 930.499 990.154L933.305 991.486C932.204 992.098 931.695 992.8 931.778 993.592C931.882 994.372 932.547 995.115 933.773 995.823C935.041 996.555 936.205 996.987 937.265 997.119C938.346 997.239 939.302 997.059 940.133 996.579C940.57 996.327 940.757 996.015 940.694 995.643C940.653 995.283 940.445 994.911 940.071 994.528C939.738 994.144 939.26 993.664 938.637 993.088C938.47 992.944 938.304 992.8 938.138 992.656C937.992 992.5 937.837 992.35 937.67 992.206C936.86 991.426 936.257 990.754 935.862 990.19C935.509 989.626 935.394 989.044 935.519 988.444C935.644 987.844 936.184 987.268 937.14 986.716C938.159 986.128 939.281 985.792 940.507 985.708C941.755 985.636 942.97 985.762 944.155 986.086C945.382 986.41 946.483 986.854 947.46 987.418C949.268 988.462 950.36 989.56 950.734 990.712C951.108 991.864 950.484 993.004 948.863 994.132L945.839 992.854C946.899 992.218 947.367 991.54 947.242 990.82C947.117 990.1 946.442 989.386 945.215 988.678C944.384 988.198 943.459 987.892 942.44 987.76C941.443 987.616 940.611 987.736 939.946 988.12C939.343 988.468 939.188 988.894 939.479 989.398C939.77 989.902 940.341 990.556 941.193 991.36C941.214 991.396 941.256 991.432 941.318 991.468C941.38 991.504 941.422 991.54 941.443 991.576C941.484 991.624 941.516 991.666 941.536 991.702C941.599 991.738 941.661 991.774 941.723 991.81C942.783 992.734 943.563 993.508 944.062 994.132C944.581 994.743 944.8 995.385 944.716 996.057C944.633 996.729 944.041 997.383 942.939 998.019C941.193 999.027 939.323 999.399 937.327 999.135C935.353 998.859 933.451 998.193 931.622 997.137ZM947.438 1006.27C946.233 1005.57 945.349 1004.85 944.788 1004.09C944.227 1003.33 943.998 1002.54 944.102 1001.71C944.185 1000.92 944.56 1000.15 945.225 999.411C945.911 998.655 946.877 997.917 948.124 997.197C949.288 996.525 950.525 996.003 951.834 995.631C953.165 995.247 954.516 995.031 955.887 994.983C957.342 994.935 958.735 995.067 960.065 995.379C961.396 995.691 962.622 996.171 963.744 996.819C965.012 997.551 965.916 998.385 966.457 999.321C967.018 1000.24 967.111 1001.17 966.737 1002.11C966.467 1002.82 965.916 1003.54 965.085 1004.29C964.274 1005.02 963.287 1005.69 962.123 1006.29L950.307 999.465C948.623 1000.48 947.729 1001.44 947.625 1002.34C947.521 1003.24 948.197 1004.11 949.652 1004.95C950.982 1005.72 952.292 1006.15 953.58 1006.25C954.89 1006.33 956.23 1006.09 957.602 1005.51L960.096 1007.2C957.956 1008.06 955.804 1008.4 953.643 1008.23C951.502 1008.07 949.434 1007.42 947.438 1006.27ZM952.52 998.223L952.209 997.935L961.718 1003.42L961.437 1003.37C961.874 1003.12 962.279 1002.79 962.653 1002.38C963.069 1001.97 963.339 1001.59 963.464 1001.23C963.651 1000.66 963.578 1000.13 963.245 999.627C962.934 999.135 962.352 998.643 961.499 998.151C960.647 997.659 959.743 997.317 958.787 997.125C957.852 996.921 956.968 996.879 956.137 996.999C954.931 997.167 953.799 997.533 952.739 998.097L952.52 998.223Z" fill="white"/>
</g>
</g>
</g>
<path d="M738.044 215.996C708.867 199.153 661.563 199.153 632.386 215.996L112.76 515.977C83.583 532.82 83.583 560.129 112.76 576.973L893.065 1027.44C922.242 1044.29 969.546 1044.29 998.723 1027.44L1518.35 727.463C1547.53 710.619 1547.53 683.31 1518.35 666.467L738.044 215.996Z" stroke="white" stroke-width="2"/>
</g>
<g clip-path="url(#clip4_1_1276)">
<g clip-path="url(#clip5_1_1276)">
<path d="M630.198 32.2476C658.821 15.5508 705.229 15.5508 733.852 32.2476L1064.68 225.23C1093.3 241.927 1093.3 268.998 1064.68 285.695L862.555 403.601C833.932 420.297 787.524 420.297 758.901 403.601L428.074 210.618C399.451 193.921 399.451 166.85 428.074 150.153L630.198 32.2476Z" fill="black"/>
<mask id="path-7-inside-1_1_1276" fill="white">
<path d="M663.022 33.2554L743.008 79.9138L706.729 101.076L626.743 54.418L663.022 33.2554Z"/>
</mask>
<path d="M663.022 33.2554L743.008 79.9138L706.729 101.076L626.743 54.418L663.022 33.2554Z" fill="black"/>
<path d="M707.593 100.573L627.607 53.9141L625.879 54.9218L705.865 101.58L707.593 100.573Z" fill="#7F7F7F" mask="url(#path-7-inside-1_1_1276)"/>
<mask id="path-9-inside-2_1_1276" fill="white">
<path d="M743.008 79.9141L822.994 126.573L786.715 147.735L706.729 101.077L743.008 79.9141Z"/>
</mask>
<path d="M743.008 79.9141L822.994 126.573L786.715 147.735L706.729 101.077L743.008 79.9141Z" fill="black"/>
<path d="M787.579 147.231L707.593 100.573L705.865 101.581L785.851 148.239L787.579 147.231Z" fill="#7F7F7F" mask="url(#path-9-inside-2_1_1276)"/>
<mask id="path-11-inside-3_1_1276" fill="white">
<path d="M822.994 126.572L902.98 173.231L866.701 194.393L786.715 147.735L822.994 126.572Z"/>
</mask>
<path d="M822.994 126.572L902.98 173.231L866.701 194.393L786.715 147.735L822.994 126.572Z" fill="black"/>
<path d="M867.565 193.889L787.579 147.231L785.851 148.239L865.837 194.897L867.565 193.889Z" fill="#7F7F7F" mask="url(#path-11-inside-3_1_1276)"/>
<mask id="path-13-inside-4_1_1276" fill="white">
<path d="M902.979 173.231L982.965 219.889L946.687 241.052L866.701 194.394L902.979 173.231Z"/>
</mask>
<path d="M902.979 173.231L982.965 219.889L946.687 241.052L866.701 194.394L902.979 173.231Z" fill="black"/>
<path d="M947.55 240.548L867.565 193.89L865.837 194.897L945.823 241.556L947.55 240.548Z" fill="#7F7F7F" mask="url(#path-13-inside-4_1_1276)"/>
<mask id="path-15-inside-5_1_1276" fill="white">
<path d="M982.965 219.889L1062.95 266.548L1026.67 287.71L946.687 241.052L982.965 219.889Z"/>
</mask>
<path d="M982.965 219.889L1062.95 266.548L1026.67 287.71L946.687 241.052L982.965 219.889Z" fill="black"/>
<path d="M1027.54 287.206L947.55 240.548L945.823 241.556L1025.81 288.214L1027.54 287.206Z" fill="#7F7F7F" mask="url(#path-15-inside-5_1_1276)"/>
<mask id="path-17-inside-6_1_1276" fill="white">
<path d="M590.464 75.5806L670.45 122.239L634.172 143.402L554.186 96.7431L590.464 75.5806Z"/>
</mask>
<path d="M590.464 75.5806L670.45 122.239L634.172 143.402L554.186 96.7431L590.464 75.5806Z" fill="black"/>
<path d="M635.035 142.898L555.049 96.2393L553.322 97.247L633.308 143.905L635.035 142.898Z" fill="#7F7F7F" mask="url(#path-17-inside-6_1_1276)"/>
<mask id="path-19-inside-7_1_1276" fill="white">
<path d="M670.45 122.239L750.436 168.898L714.157 190.06L634.171 143.402L670.45 122.239Z"/>
</mask>
<path d="M670.45 122.239L750.436 168.898L714.157 190.06L634.171 143.402L670.45 122.239Z" fill="black"/>
<path d="M715.021 189.556L635.035 142.898L633.308 143.906L713.294 190.564L715.021 189.556Z" fill="#7F7F7F" mask="url(#path-19-inside-7_1_1276)"/>
<mask id="path-21-inside-8_1_1276" fill="white">
<path d="M750.436 168.897L830.422 215.556L794.143 236.718L714.158 190.06L750.436 168.897Z"/>
</mask>
<path d="M750.436 168.897L830.422 215.556L794.143 236.718L714.158 190.06L750.436 168.897Z" fill="black"/>
<path d="M795.007 236.215L715.021 189.556L713.294 190.564L793.28 237.222L795.007 236.215Z" fill="#7F7F7F" mask="url(#path-21-inside-8_1_1276)"/>
<mask id="path-23-inside-9_1_1276" fill="white">
<path d="M830.422 215.556L910.408 262.215L874.129 283.377L794.143 236.719L830.422 215.556Z"/>
</mask>
<path d="M830.422 215.556L910.408 262.215L874.129 283.377L794.143 236.719L830.422 215.556Z" fill="black"/>
<path d="M874.993 282.873L795.007 236.215L793.28 237.223L873.266 283.881L874.993 282.873Z" fill="#7F7F7F" mask="url(#path-23-inside-9_1_1276)"/>
<mask id="path-25-inside-10_1_1276" fill="white">
<path d="M910.408 262.214L990.394 308.873L954.115 330.035L874.129 283.377L910.408 262.214Z"/>
</mask>
<path d="M910.408 262.214L990.394 308.873L954.115 330.035L874.129 283.377L910.408 262.214Z" fill="black"/>
<path d="M954.979 329.532L874.993 282.873L873.265 283.881L953.251 330.539L954.979 329.532Z" fill="#7F7F7F" mask="url(#path-25-inside-10_1_1276)"/>
<mask id="path-27-inside-11_1_1276" fill="white">
<path d="M517.907 117.906L597.893 164.564L561.614 185.727L481.628 139.068L517.907 117.906Z"/>
</mask>
<path d="M517.907 117.906L597.893 164.564L561.614 185.727L481.628 139.068L517.907 117.906Z" fill="black"/>
<path d="M562.478 185.223L482.492 138.564L480.764 139.572L560.75 186.231L562.478 185.223Z" fill="#7F7F7F" mask="url(#path-27-inside-11_1_1276)"/>
<mask id="path-29-inside-12_1_1276" fill="white">
<path d="M597.893 164.564L677.879 211.223L641.6 232.385L561.614 185.727L597.893 164.564Z"/>
</mask>
<path d="M597.893 164.564L677.879 211.223L641.6 232.385L561.614 185.727L597.893 164.564Z" fill="black"/>
<path d="M642.464 231.882L562.478 185.223L560.75 186.231L640.736 232.889L642.464 231.882Z" fill="#7F7F7F" mask="url(#path-29-inside-12_1_1276)"/>
<mask id="path-31-inside-13_1_1276" fill="white">
<path d="M677.879 211.223L757.865 257.881L721.586 279.044L641.6 232.385L677.879 211.223Z"/>
</mask>
<path d="M677.879 211.223L757.865 257.881L721.586 279.044L641.6 232.385L677.879 211.223Z" fill="black"/>
<path d="M722.45 278.54L642.464 231.881L640.736 232.889L720.722 279.548L722.45 278.54Z" fill="#7F7F7F" mask="url(#path-31-inside-13_1_1276)"/>
<mask id="path-33-inside-14_1_1276" fill="white">
<path d="M757.865 257.881L837.851 304.54L801.572 325.702L721.586 279.044L757.865 257.881Z"/>
</mask>
<path d="M757.865 257.881L837.851 304.54L801.572 325.702L721.586 279.044L757.865 257.881Z" fill="black"/>
<path d="M802.436 325.199L722.45 278.54L720.722 279.548L800.708 326.206L802.436 325.199Z" fill="#7F7F7F" mask="url(#path-33-inside-14_1_1276)"/>
<mask id="path-35-inside-15_1_1276" fill="white">
<path d="M837.851 304.54L917.837 351.198L881.558 372.361L801.572 325.702L837.851 304.54Z"/>
</mask>
<path d="M837.851 304.54L917.837 351.198L881.558 372.361L801.572 325.702L837.851 304.54Z" fill="black"/>
<path d="M882.422 371.857L802.436 325.198L800.708 326.206L880.694 372.864L882.422 371.857Z" fill="#7F7F7F" mask="url(#path-35-inside-15_1_1276)"/>
</g>
<path d="M734.715 31.7438C705.615 14.7687 658.435 14.7687 629.334 31.7438L427.21 149.65C398.11 166.625 398.11 194.147 427.21 211.122L758.037 404.104C787.138 421.08 834.318 421.08 863.418 404.104L1065.54 286.199C1094.64 269.224 1094.64 241.701 1065.54 224.726L734.715 31.7438Z" stroke="white" stroke-width="2"/>
<g clip-path="url(#clip6_1_1276)">
<path d="M1094.05 302.826C1122.67 286.13 1169.08 286.13 1197.7 302.826L1528.53 495.809C1557.15 512.506 1557.15 539.577 1528.53 556.274L1326.4 674.179C1297.78 690.876 1251.37 690.876 1222.75 674.179L891.923 481.197C863.3 464.5 863.3 437.429 891.923 420.732L1094.05 302.826Z" fill="black"/>
<mask id="path-39-inside-16_1_1276" fill="white">
<path d="M1155.38 287.207L1235.36 333.865L1199.08 355.028L1119.1 308.369L1155.38 287.207Z"/>
</mask>
<path d="M1155.38 287.207L1235.36 333.865L1199.08 355.028L1119.1 308.369L1155.38 287.207Z" fill="black"/>
<path d="M1199.95 354.524L1119.96 307.865L1118.23 308.873L1198.22 355.531L1199.95 354.524Z" fill="#7F7F7F" mask="url(#path-39-inside-16_1_1276)"/>
<mask id="path-41-inside-17_1_1276" fill="white">
<path d="M1235.36 333.865L1315.35 380.524L1279.07 401.686L1199.08 355.028L1235.36 333.865Z"/>
</mask>
<path d="M1235.36 333.865L1315.35 380.524L1279.07 401.686L1199.08 355.028L1235.36 333.865Z" fill="black"/>
<path d="M1279.93 401.182L1199.95 354.524L1198.22 355.532L1278.21 402.19L1279.93 401.182Z" fill="#7F7F7F" mask="url(#path-41-inside-17_1_1276)"/>
<mask id="path-43-inside-18_1_1276" fill="white">
<path d="M1315.35 380.523L1395.33 427.182L1359.06 448.344L1279.07 401.686L1315.35 380.523Z"/>
</mask>
<path d="M1315.35 380.523L1395.33 427.182L1359.06 448.344L1279.07 401.686L1315.35 380.523Z" fill="black"/>
<path d="M1359.92 447.841L1279.93 401.182L1278.21 402.19L1358.19 448.848L1359.92 447.841Z" fill="#7F7F7F" mask="url(#path-43-inside-18_1_1276)"/>
<mask id="path-45-inside-19_1_1276" fill="white">
<path d="M1395.33 427.182L1475.32 473.841L1439.04 495.003L1359.06 448.345L1395.33 427.182Z"/>
</mask>
<path d="M1395.33 427.182L1475.32 473.841L1439.04 495.003L1359.06 448.345L1395.33 427.182Z" fill="black"/>
<path d="M1439.9 494.499L1359.92 447.841L1358.19 448.849L1438.18 495.507L1439.9 494.499Z" fill="#7F7F7F" mask="url(#path-45-inside-19_1_1276)"/>
<mask id="path-47-inside-20_1_1276" fill="white">
<path d="M1475.32 473.84L1555.31 520.499L1519.03 541.661L1439.04 495.003L1475.32 473.84Z"/>
</mask>
<path d="M1475.32 473.84L1555.31 520.499L1519.03 541.661L1439.04 495.003L1475.32 473.84Z" fill="black"/>
<path d="M1519.89 541.157L1439.9 494.499L1438.18 495.507L1518.16 542.165L1519.89 541.157Z" fill="#7F7F7F" mask="url(#path-47-inside-20_1_1276)"/>
<mask id="path-49-inside-21_1_1276" fill="white">
<path d="M1119.1 308.369L1199.08 355.028L1162.8 376.19L1082.82 329.532L1119.1 308.369Z"/>
</mask>
<path d="M1119.1 308.369L1199.08 355.028L1162.8 376.19L1082.82 329.532L1119.1 308.369Z" fill="black"/>
<path d="M1163.67 375.686L1083.68 329.028L1081.95 330.036L1161.94 376.694L1163.67 375.686Z" fill="#7F7F7F" mask="url(#path-49-inside-21_1_1276)"/>
<mask id="path-51-inside-22_1_1276" fill="white">
<path d="M1199.08 355.028L1279.07 401.686L1242.79 422.849L1162.8 376.19L1199.08 355.028Z"/>
</mask>
<path d="M1199.08 355.028L1279.07 401.686L1242.79 422.849L1162.8 376.19L1199.08 355.028Z" fill="black"/>
<path d="M1243.65 422.345L1163.67 375.687L1161.94 376.694L1241.93 423.353L1243.65 422.345Z" fill="#7F7F7F" mask="url(#path-51-inside-22_1_1276)"/>
<mask id="path-53-inside-23_1_1276" fill="white">
<path d="M1279.07 401.686L1359.06 448.344L1322.78 469.507L1242.79 422.849L1279.07 401.686Z"/>
</mask>
<path d="M1279.07 401.686L1359.06 448.344L1322.78 469.507L1242.79 422.849L1279.07 401.686Z" fill="black"/>
<path d="M1323.64 469.003L1243.65 422.345L1241.93 423.352L1321.91 470.011L1323.64 469.003Z" fill="#7F7F7F" mask="url(#path-53-inside-23_1_1276)"/>
<mask id="path-55-inside-24_1_1276" fill="white">
<path d="M1359.05 448.345L1439.04 495.003L1402.76 516.166L1322.78 469.507L1359.05 448.345Z"/>
</mask>
<path d="M1359.05 448.345L1439.04 495.003L1402.76 516.166L1322.78 469.507L1359.05 448.345Z" fill="black"/>
<path d="M1403.63 515.662L1323.64 469.003L1321.91 470.011L1401.9 516.67L1403.63 515.662Z" fill="#7F7F7F" mask="url(#path-55-inside-24_1_1276)"/>
<mask id="path-57-inside-25_1_1276" fill="white">
<path d="M1439.04 495.003L1519.03 541.661L1482.75 562.824L1402.76 516.166L1439.04 495.003Z"/>
</mask>
<path d="M1439.04 495.003L1519.03 541.661L1482.75 562.824L1402.76 516.166L1439.04 495.003Z" fill="black"/>
<path d="M1483.61 562.32L1403.63 515.662L1401.9 516.669L1481.88 563.328L1483.61 562.32Z" fill="#7F7F7F" mask="url(#path-57-inside-25_1_1276)"/>
<mask id="path-59-inside-26_1_1276" fill="white">
<path d="M1082.82 329.532L1162.8 376.19L1126.53 397.353L1046.54 350.694L1082.82 329.532Z"/>
</mask>
<path d="M1082.82 329.532L1162.8 376.19L1126.53 397.353L1046.54 350.694L1082.82 329.532Z" fill="black"/>
<path d="M1127.39 396.849L1047.4 350.19L1045.68 351.198L1125.66 397.857L1127.39 396.849Z" fill="#7F7F7F" mask="url(#path-59-inside-26_1_1276)"/>
<mask id="path-61-inside-27_1_1276" fill="white">
<path d="M1162.8 376.19L1242.79 422.849L1206.51 444.011L1126.53 397.353L1162.8 376.19Z"/>
</mask>
<path d="M1162.8 376.19L1242.79 422.849L1206.51 444.011L1126.53 397.353L1162.8 376.19Z" fill="black"/>
<path d="M1207.38 443.508L1127.39 396.849L1125.66 397.857L1205.65 444.515L1207.38 443.508Z" fill="#7F7F7F" mask="url(#path-61-inside-27_1_1276)"/>
<mask id="path-63-inside-28_1_1276" fill="white">
<path d="M1242.79 422.849L1322.78 469.507L1286.5 490.67L1206.51 444.011L1242.79 422.849Z"/>
</mask>
<path d="M1242.79 422.849L1322.78 469.507L1286.5 490.67L1206.51 444.011L1242.79 422.849Z" fill="black"/>
<path d="M1287.36 490.166L1207.38 443.507L1205.65 444.515L1285.63 491.174L1287.36 490.166Z" fill="#7F7F7F" mask="url(#path-63-inside-28_1_1276)"/>
<mask id="path-65-inside-29_1_1276" fill="white">
<path d="M1322.78 469.507L1402.76 516.166L1366.48 537.328L1286.5 490.67L1322.78 469.507Z"/>
</mask>
<path d="M1322.78 469.507L1402.76 516.166L1366.48 537.328L1286.5 490.67L1322.78 469.507Z" fill="black"/>
<path d="M1367.35 536.824L1287.36 490.166L1285.63 491.174L1365.62 537.832L1367.35 536.824Z" fill="#7F7F7F" mask="url(#path-65-inside-29_1_1276)"/>
<mask id="path-67-inside-30_1_1276" fill="white">
<path d="M1402.76 516.166L1482.75 562.824L1446.47 583.987L1366.48 537.328L1402.76 516.166Z"/>
</mask>
<path d="M1402.76 516.166L1482.75 562.824L1446.47 583.987L1366.48 537.328L1402.76 516.166Z" fill="black"/>
<path d="M1447.33 583.483L1367.35 536.824L1365.62 537.832L1445.61 584.49L1447.33 583.483Z" fill="#7F7F7F" mask="url(#path-67-inside-30_1_1276)"/>
<mask id="path-69-inside-31_1_1276" fill="white">
<path d="M1046.54 350.694L1126.53 397.353L1090.25 418.515L1010.26 371.857L1046.54 350.694Z"/>
</mask>
<path d="M1046.54 350.694L1126.53 397.353L1090.25 418.515L1010.26 371.857L1046.54 350.694Z" fill="black"/>
<path d="M1091.11 418.012L1011.12 371.353L1009.4 372.361L1089.38 419.019L1091.11 418.012Z" fill="#7F7F7F" mask="url(#path-69-inside-31_1_1276)"/>
<mask id="path-71-inside-32_1_1276" fill="white">
<path d="M1126.53 397.353L1206.51 444.011L1170.23 465.174L1090.25 418.516L1126.53 397.353Z"/>
</mask>
<path d="M1126.53 397.353L1206.51 444.011L1170.23 465.174L1090.25 418.516L1126.53 397.353Z" fill="black"/>
<path d="M1171.1 464.67L1091.11 418.012L1089.38 419.019L1169.37 465.678L1171.1 464.67Z" fill="#7F7F7F" mask="url(#path-71-inside-32_1_1276)"/>
<mask id="path-73-inside-33_1_1276" fill="white">
<path d="M1206.51 444.011L1286.5 490.67L1250.22 511.832L1170.23 465.174L1206.51 444.011Z"/>
</mask>
<path d="M1206.51 444.011L1286.5 490.67L1250.22 511.832L1170.23 465.174L1206.51 444.011Z" fill="black"/>
<path d="M1251.08 511.328L1171.1 464.67L1169.37 465.678L1249.36 512.336L1251.08 511.328Z" fill="#7F7F7F" mask="url(#path-73-inside-33_1_1276)"/>
<mask id="path-75-inside-34_1_1276" fill="white">
<path d="M1286.5 490.67L1366.48 537.328L1330.2 558.491L1250.22 511.833L1286.5 490.67Z"/>
</mask>
<path d="M1286.5 490.67L1366.48 537.328L1330.2 558.491L1250.22 511.833L1286.5 490.67Z" fill="black"/>
<path d="M1331.07 557.987L1251.08 511.329L1249.36 512.336L1329.34 558.995L1331.07 557.987Z" fill="#7F7F7F" mask="url(#path-75-inside-34_1_1276)"/>
<mask id="path-77-inside-35_1_1276" fill="white">
<path d="M1366.48 537.328L1446.47 583.987L1410.19 605.149L1330.2 558.491L1366.48 537.328Z"/>
</mask>
<path d="M1366.48 537.328L1446.47 583.987L1410.19 605.149L1330.2 558.491L1366.48 537.328Z" fill="black"/>
<path d="M1411.05 604.645L1331.07 557.987L1329.34 558.995L1409.33 605.653L1411.05 604.645Z" fill="#7F7F7F" mask="url(#path-77-inside-35_1_1276)"/>
<mask id="path-79-inside-36_1_1276" fill="white">
<path d="M1010.26 371.857L1090.25 418.515L1053.97 439.678L973.982 393.02L1010.26 371.857Z"/>
</mask>
<path d="M1010.26 371.857L1090.25 418.515L1053.97 439.678L973.982 393.02L1010.26 371.857Z" fill="black"/>
<path d="M1054.83 439.174L974.846 392.516L973.118 393.523L1053.1 440.182L1054.83 439.174Z" fill="#7F7F7F" mask="url(#path-79-inside-36_1_1276)"/>
<mask id="path-81-inside-37_1_1276" fill="white">
<path d="M1090.25 418.516L1170.23 465.174L1133.95 486.337L1053.97 439.678L1090.25 418.516Z"/>
</mask>
<path d="M1090.25 418.516L1170.23 465.174L1133.95 486.337L1053.97 439.678L1090.25 418.516Z" fill="black"/>
<path d="M1134.82 485.833L1054.83 439.174L1053.1 440.182L1133.09 486.841L1134.82 485.833Z" fill="#7F7F7F" mask="url(#path-81-inside-37_1_1276)"/>
<mask id="path-83-inside-38_1_1276" fill="white">
<path d="M1170.23 465.174L1250.22 511.832L1213.94 532.995L1133.95 486.336L1170.23 465.174Z"/>
</mask>
<path d="M1170.23 465.174L1250.22 511.832L1213.94 532.995L1133.95 486.336L1170.23 465.174Z" fill="black"/>
<path d="M1214.8 532.491L1134.82 485.833L1133.09 486.84L1213.08 533.499L1214.8 532.491Z" fill="#7F7F7F" mask="url(#path-83-inside-38_1_1276)"/>
<mask id="path-85-inside-39_1_1276" fill="white">
<path d="M1250.22 511.833L1330.2 558.491L1293.93 579.654L1213.94 532.995L1250.22 511.833Z"/>
</mask>
<path d="M1250.22 511.833L1330.2 558.491L1293.93 579.654L1213.94 532.995L1250.22 511.833Z" fill="black"/>
<path d="M1294.79 579.15L1214.8 532.491L1213.08 533.499L1293.06 580.157L1294.79 579.15Z" fill="#7F7F7F" mask="url(#path-85-inside-39_1_1276)"/>
<mask id="path-87-inside-40_1_1276" fill="white">
<path d="M1330.2 558.491L1410.19 605.149L1373.91 626.312L1293.93 579.653L1330.2 558.491Z"/>
</mask>
<path d="M1330.2 558.491L1410.19 605.149L1373.91 626.312L1293.93 579.653L1330.2 558.491Z" fill="black"/>
<path d="M1374.78 625.808L1294.79 579.149L1293.06 580.157L1373.05 626.816L1374.78 625.808Z" fill="#7F7F7F" mask="url(#path-87-inside-40_1_1276)"/>
<mask id="path-89-inside-41_1_1276" fill="white">
<path d="M973.982 393.02L1053.97 439.678L1017.69 460.841L937.703 414.182L973.982 393.02Z"/>
</mask>
<path d="M973.982 393.02L1053.97 439.678L1017.69 460.841L937.703 414.182L973.982 393.02Z" fill="black"/>
<path d="M1018.55 460.337L938.567 413.678L936.84 414.686L1016.83 461.344L1018.55 460.337Z" fill="#7F7F7F" mask="url(#path-89-inside-41_1_1276)"/>
<mask id="path-91-inside-42_1_1276" fill="white">
<path d="M1053.97 439.678L1133.95 486.337L1097.68 507.499L1017.69 460.841L1053.97 439.678Z"/>
</mask>
<path d="M1053.97 439.678L1133.95 486.337L1097.68 507.499L1017.69 460.841L1053.97 439.678Z" fill="black"/>
<path d="M1098.54 506.995L1018.55 460.337L1016.83 461.345L1096.81 508.003L1098.54 506.995Z" fill="#7F7F7F" mask="url(#path-91-inside-42_1_1276)"/>
<mask id="path-93-inside-43_1_1276" fill="white">
<path d="M1133.95 486.336L1213.94 532.995L1177.66 554.157L1097.68 507.499L1133.95 486.336Z"/>
</mask>
<path d="M1133.95 486.336L1213.94 532.995L1177.66 554.157L1097.68 507.499L1133.95 486.336Z" fill="black"/>
<path d="M1178.53 553.654L1098.54 506.995L1096.81 508.003L1176.8 554.661L1178.53 553.654Z" fill="#7F7F7F" mask="url(#path-93-inside-43_1_1276)"/>
<mask id="path-95-inside-44_1_1276" fill="white">
<path d="M1213.94 532.995L1293.93 579.654L1257.65 600.816L1177.66 554.158L1213.94 532.995Z"/>
</mask>
<path d="M1213.94 532.995L1293.93 579.654L1257.65 600.816L1177.66 554.158L1213.94 532.995Z" fill="black"/>
<path d="M1258.51 600.312L1178.53 553.654L1176.8 554.662L1256.78 601.32L1258.51 600.312Z" fill="#7F7F7F" mask="url(#path-95-inside-44_1_1276)"/>
<mask id="path-97-inside-45_1_1276" fill="white">
<path d="M1293.93 579.653L1373.91 626.312L1337.63 647.474L1257.65 600.816L1293.93 579.653Z"/>
</mask>
<path d="M1293.93 579.653L1373.91 626.312L1337.63 647.474L1257.65 600.816L1293.93 579.653Z" fill="black"/>
<path d="M1338.5 646.97L1258.51 600.312L1256.78 601.32L1336.77 647.978L1338.5 646.97Z" fill="#7F7F7F" mask="url(#path-97-inside-45_1_1276)"/>
<mask id="path-99-inside-46_1_1276" fill="white">
<path d="M937.704 414.182L1017.69 460.841L981.411 482.003L901.425 435.345L937.704 414.182Z"/>
</mask>
<path d="M937.704 414.182L1017.69 460.841L981.411 482.003L901.425 435.345L937.704 414.182Z" fill="black"/>
<path d="M982.275 481.499L902.289 434.841L900.561 435.849L980.547 482.507L982.275 481.499Z" fill="#7F7F7F" mask="url(#path-99-inside-46_1_1276)"/>
<mask id="path-101-inside-47_1_1276" fill="white">
<path d="M1017.69 460.841L1097.68 507.499L1061.4 528.662L981.411 482.003L1017.69 460.841Z"/>
</mask>
<path d="M1017.69 460.841L1097.68 507.499L1061.4 528.662L981.411 482.003L1017.69 460.841Z" fill="black"/>
<path d="M1062.26 528.158L982.275 481.5L980.547 482.507L1060.53 529.166L1062.26 528.158Z" fill="#7F7F7F" mask="url(#path-101-inside-47_1_1276)"/>
<mask id="path-103-inside-48_1_1276" fill="white">
<path d="M1097.68 507.499L1177.66 554.157L1141.38 575.32L1061.4 528.662L1097.68 507.499Z"/>
</mask>
<path d="M1097.68 507.499L1177.66 554.157L1141.38 575.32L1061.4 528.662L1097.68 507.499Z" fill="black"/>
<path d="M1142.25 574.816L1062.26 528.158L1060.53 529.165L1140.52 575.824L1142.25 574.816Z" fill="#7F7F7F" mask="url(#path-103-inside-48_1_1276)"/>
<mask id="path-105-inside-49_1_1276" fill="white">
<path d="M1177.66 554.158L1257.65 600.816L1221.37 621.979L1141.38 575.32L1177.66 554.158Z"/>
</mask>
<path d="M1177.66 554.158L1257.65 600.816L1221.37 621.979L1141.38 575.32L1177.66 554.158Z" fill="black"/>
<path d="M1222.23 621.475L1142.25 574.816L1140.52 575.824L1220.5 622.483L1222.23 621.475Z" fill="#7F7F7F" mask="url(#path-105-inside-49_1_1276)"/>
<mask id="path-107-inside-50_1_1276" fill="white">
<path d="M1257.65 600.816L1337.63 647.474L1301.35 668.637L1221.37 621.979L1257.65 600.816Z"/>
</mask>
<path d="M1257.65 600.816L1337.63 647.474L1301.35 668.637L1221.37 621.979L1257.65 600.816Z" fill="black"/>
<path d="M1302.22 668.133L1222.23 621.475L1220.5 622.482L1300.49 669.141L1302.22 668.133Z" fill="#7F7F7F" mask="url(#path-107-inside-50_1_1276)"/>
<rect width="92.6" height="42" transform="matrix(0.863779 0.503871 -0.863779 0.503871 901.425 435.345)" fill="black"/>
<rect width="92.6" height="42" transform="matrix(0.863779 0.503871 -0.863779 0.503871 981.411 482.003)" fill="black"/>
<rect width="92.6" height="42" transform="matrix(0.863779 0.503871 -0.863779 0.503871 1061.4 528.662)" fill="black"/>
<rect width="92.6" height="42" transform="matrix(0.863779 0.503871 -0.863779 0.503871 1141.38 575.32)" fill="black"/>
<rect width="92.6" height="42" transform="matrix(0.863779 0.503871 -0.863779 0.503871 1221.37 621.979)" fill="black"/>
<rect y="1.00774" width="85" height="40" rx="9" transform="matrix(0.863779 0.503871 -0.863779 0.503871 1129.47 418.209)" fill="black"/>
<rect y="1.00774" width="85" height="40" rx="9" transform="matrix(0.863779 0.503871 -0.863779 0.503871 1129.47 418.209)" stroke="white" stroke-width="2"/>
<rect y="1.00774" width="85" height="40" rx="9" transform="matrix(0.863779 0.503871 -0.863779 0.503871 1257.31 492.782)" fill="black"/>
<rect y="1.00774" width="85" height="40" rx="9" transform="matrix(0.863779 0.503871 -0.863779 0.503871 1257.31 492.782)" stroke="white" stroke-width="2"/>
<rect width="87" height="42" transform="matrix(0.863779 0.503871 -0.863779 0.503871 1189.06 531.584)" fill="black"/>
<rect y="1.00774" width="85" height="40" rx="9" transform="matrix(0.863779 0.503871 -0.863779 0.503871 1189.93 532.084)" fill="black"/>
<rect y="1.00774" width="85" height="40" rx="9" transform="matrix(0.863779 0.503871 -0.863779 0.503871 1189.93 532.084)" stroke="white" stroke-width="2"/>
<rect y="1.00774" width="85" height="40" rx="9" transform="matrix(0.863779 0.503871 -0.863779 0.503871 1324.68 453.48)" fill="black"/>
<rect y="1.00774" width="85" height="40" rx="9" transform="matrix(0.863779 0.503871 -0.863779 0.503871 1324.68 453.48)" stroke="white" stroke-width="2"/>
<line y1="-1" x2="61" y2="-1" transform="matrix(0.863779 0.503871 -0.863779 0.503871 1183.88 474.143)" stroke="white" stroke-width="2"/>
<path d="M1166.08 480.672C1157.49 488.234 1152.43 517.799 1181.81 537.652" stroke="white" stroke-width="2"/>
<path d="M1199.39 461.241C1212.36 456.227 1263.04 453.275 1297.07 470.417" stroke="white" stroke-width="2"/>
</g>
<path d="M1198.56 302.323C1169.46 285.348 1122.28 285.348 1093.18 302.323L891.059 420.228C861.959 437.204 861.959 464.726 891.059 481.701L1221.89 674.683C1250.99 691.658 1298.17 691.658 1327.27 674.683L1529.39 556.777C1558.49 539.802 1558.49 512.28 1529.39 495.305L1198.56 302.323Z" stroke="white" stroke-width="2"/>
<g clip-path="url(#clip7_1_1276)">
<path d="M298.507 225.734C327.13 209.037 373.537 209.037 402.16 225.734L1196.84 689.296C1225.46 705.992 1225.46 733.063 1196.84 749.76L1010.26 858.596C981.638 875.293 935.231 875.293 906.607 858.596L111.931 395.035C83.3076 378.338 83.3076 351.267 111.931 334.57L298.507 225.734Z" fill="black"/>
<mask id="path-118-inside-51_1_1276" fill="white">
<path d="M367.609 205.58L540.365 306.354L504.086 327.516L331.331 226.742L367.609 205.58Z"/>
</mask>
<path d="M367.609 205.58L540.365 306.354L504.086 327.516L331.331 226.742L367.609 205.58Z" fill="black"/>
<path d="M504.95 327.013L332.194 226.238L330.467 227.246L503.223 328.02L504.95 327.013Z" fill="#7F7F7F" mask="url(#path-118-inside-51_1_1276)"/>
<mask id="path-120-inside-52_1_1276" fill="white">
<path d="M540.365 306.354L713.121 407.128L676.842 428.291L504.087 327.517L540.365 306.354Z"/>
</mask>
<path d="M540.365 306.354L713.121 407.128L676.842 428.291L504.087 327.517L540.365 306.354Z" fill="black"/>
<path d="M677.706 427.787L504.95 327.013L503.223 328.02L675.979 428.795L677.706 427.787Z" fill="#7F7F7F" mask="url(#path-120-inside-52_1_1276)"/>
<mask id="path-122-inside-53_1_1276" fill="white">
<path d="M713.121 407.128L885.877 507.902L849.598 529.065L676.842 428.291L713.121 407.128Z"/>
</mask>
<path d="M713.121 407.128L885.877 507.902L849.598 529.065L676.842 428.291L713.121 407.128Z" fill="black"/>
<path d="M850.462 528.561L677.706 427.787L675.979 428.794L848.734 529.569L850.462 528.561Z" fill="#7F7F7F" mask="url(#path-122-inside-53_1_1276)"/>
<mask id="path-124-inside-54_1_1276" fill="white">
<path d="M885.877 507.902L1058.63 608.677L1022.35 629.839L849.598 529.065L885.877 507.902Z"/>
</mask>
<path d="M885.877 507.902L1058.63 608.677L1022.35 629.839L849.598 529.065L885.877 507.902Z" fill="black"/>
<path d="M1023.22 629.335L850.462 528.561L848.734 529.569L1021.49 630.343L1023.22 629.335Z" fill="#7F7F7F" mask="url(#path-124-inside-54_1_1276)"/>
<mask id="path-126-inside-55_1_1276" fill="white">
<path d="M1058.63 608.676L1231.39 709.45L1195.11 730.613L1022.35 629.839L1058.63 608.676Z"/>
</mask>
<path d="M1058.63 608.676L1231.39 709.45L1195.11 730.613L1022.35 629.839L1058.63 608.676Z" fill="black"/>
<path d="M1195.97 730.109L1023.22 629.335L1021.49 630.343L1194.25 731.117L1195.97 730.109Z" fill="#7F7F7F" mask="url(#path-126-inside-55_1_1276)"/>
<mask id="path-128-inside-56_1_1276" fill="white">
<path d="M331.331 226.742L504.086 327.516L467.808 348.679L295.052 247.905L331.331 226.742Z"/>
</mask>
<path d="M331.331 226.742L504.086 327.516L467.808 348.679L295.052 247.905L331.331 226.742Z" fill="black"/>
<path d="M468.671 348.175L295.916 247.401L294.188 248.409L466.944 349.183L468.671 348.175Z" fill="#7F7F7F" mask="url(#path-128-inside-56_1_1276)"/>
<mask id="path-130-inside-57_1_1276" fill="white">
<path d="M504.086 327.517L676.842 428.291L640.564 449.453L467.808 348.679L504.086 327.517Z"/>
</mask>
<path d="M504.086 327.517L676.842 428.291L640.564 449.453L467.808 348.679L504.086 327.517Z" fill="black"/>
<path d="M641.427 448.95L468.671 348.175L466.944 349.183L639.7 449.957L641.427 448.95Z" fill="#7F7F7F" mask="url(#path-130-inside-57_1_1276)"/>
<mask id="path-132-inside-58_1_1276" fill="white">
<path d="M676.842 428.291L849.598 529.065L813.319 550.227L640.564 449.453L676.842 428.291Z"/>
</mask>
<path d="M676.842 428.291L849.598 529.065L813.319 550.227L640.564 449.453L676.842 428.291Z" fill="black"/>
<path d="M814.183 549.723L641.427 448.949L639.7 449.957L812.456 550.731L814.183 549.723Z" fill="#7F7F7F" mask="url(#path-132-inside-58_1_1276)"/>
<mask id="path-134-inside-59_1_1276" fill="white">
<path d="M849.598 529.065L1022.35 629.839L986.075 651.002L813.319 550.228L849.598 529.065Z"/>
</mask>
<path d="M849.598 529.065L1022.35 629.839L986.075 651.002L813.319 550.228L849.598 529.065Z" fill="black"/>
<path d="M986.939 650.498L814.183 549.724L812.455 550.731L985.211 651.506L986.939 650.498Z" fill="#7F7F7F" mask="url(#path-134-inside-59_1_1276)"/>
<mask id="path-136-inside-60_1_1276" fill="white">
<path d="M1022.35 629.839L1195.11 730.613L1158.83 751.776L986.075 651.001L1022.35 629.839Z"/>
</mask>
<path d="M1022.35 629.839L1195.11 730.613L1158.83 751.776L986.075 651.001L1022.35 629.839Z" fill="black"/>
<path d="M1159.69 751.272L986.939 650.498L985.211 651.505L1157.97 752.28L1159.69 751.272Z" fill="#7F7F7F" mask="url(#path-136-inside-60_1_1276)"/>
<mask id="path-138-inside-61_1_1276" fill="white">
<path d="M295.052 247.905L467.808 348.679L431.529 369.842L258.773 269.067L295.052 247.905Z"/>
</mask>
<path d="M295.052 247.905L467.808 348.679L431.529 369.842L258.773 269.067L295.052 247.905Z" fill="black"/>
<path d="M432.393 369.338L259.637 268.563L257.91 269.571L430.665 370.345L432.393 369.338Z" fill="#7F7F7F" mask="url(#path-138-inside-61_1_1276)"/>
<mask id="path-140-inside-62_1_1276" fill="white">
<path d="M467.808 348.679L640.564 449.453L604.285 470.616L431.529 369.842L467.808 348.679Z"/>
</mask>
<path d="M467.808 348.679L640.564 449.453L604.285 470.616L431.529 369.842L467.808 348.679Z" fill="black"/>
<path d="M605.149 470.112L432.393 369.338L430.665 370.346L603.421 471.12L605.149 470.112Z" fill="#7F7F7F" mask="url(#path-140-inside-62_1_1276)"/>
<mask id="path-142-inside-63_1_1276" fill="white">
<path d="M640.564 449.453L813.32 550.227L777.041 571.39L604.285 470.616L640.564 449.453Z"/>
</mask>
<path d="M640.564 449.453L813.32 550.227L777.041 571.39L604.285 470.616L640.564 449.453Z" fill="black"/>
<path d="M777.905 570.886L605.149 470.112L603.421 471.12L776.177 571.894L777.905 570.886Z" fill="#7F7F7F" mask="url(#path-142-inside-63_1_1276)"/>
<mask id="path-144-inside-64_1_1276" fill="white">
<path d="M813.319 550.228L986.075 651.002L949.796 672.164L777.041 571.39L813.319 550.228Z"/>
</mask>
<path d="M813.319 550.228L986.075 651.002L949.796 672.164L777.041 571.39L813.319 550.228Z" fill="black"/>
<path d="M950.66 671.66L777.904 570.886L776.177 571.894L948.933 672.668L950.66 671.66Z" fill="#7F7F7F" mask="url(#path-144-inside-64_1_1276)"/>
<mask id="path-146-inside-65_1_1276" fill="white">
<path d="M986.075 651.001L1158.83 751.776L1122.55 772.938L949.796 672.164L986.075 651.001Z"/>
</mask>
<path d="M986.075 651.001L1158.83 751.776L1122.55 772.938L949.796 672.164L986.075 651.001Z" fill="black"/>
<path d="M1123.42 772.434L950.66 671.66L948.933 672.668L1121.69 773.442L1123.42 772.434Z" fill="#7F7F7F" mask="url(#path-146-inside-65_1_1276)"/>
<mask id="path-148-inside-66_1_1276" fill="white">
<path d="M258.773 269.067L431.529 369.842L395.25 391.004L222.494 290.23L258.773 269.067Z"/>
</mask>
<path d="M258.773 269.067L431.529 369.842L395.25 391.004L222.494 290.23L258.773 269.067Z" fill="black"/>
<path d="M396.114 390.5L223.358 289.726L221.631 290.734L394.386 391.508L396.114 390.5Z" fill="#7F7F7F" mask="url(#path-148-inside-66_1_1276)"/>
<mask id="path-150-inside-67_1_1276" fill="white">
<path d="M431.529 369.842L604.285 470.616L568.006 491.779L395.25 391.004L431.529 369.842Z"/>
</mask>
<path d="M431.529 369.842L604.285 470.616L568.006 491.779L395.25 391.004L431.529 369.842Z" fill="black"/>
<path d="M568.87 491.275L396.114 390.501L394.387 391.508L567.142 492.282L568.87 491.275Z" fill="#7F7F7F" mask="url(#path-150-inside-67_1_1276)"/>
<mask id="path-152-inside-68_1_1276" fill="white">
<path d="M604.285 470.616L777.041 571.39L740.762 592.553L568.006 491.778L604.285 470.616Z"/>
</mask>
<path d="M604.285 470.616L777.041 571.39L740.762 592.553L568.006 491.778L604.285 470.616Z" fill="black"/>
<path d="M741.626 592.049L568.87 491.274L567.142 492.282L739.898 593.056L741.626 592.049Z" fill="#7F7F7F" mask="url(#path-152-inside-68_1_1276)"/>
<mask id="path-154-inside-69_1_1276" fill="white">
<path d="M777.041 571.39L949.796 672.164L913.518 693.327L740.762 592.553L777.041 571.39Z"/>
</mask>
<path d="M777.041 571.39L949.796 672.164L913.518 693.327L740.762 592.553L777.041 571.39Z" fill="black"/>
<path d="M914.381 692.823L741.626 592.049L739.898 593.057L912.654 693.831L914.381 692.823Z" fill="#7F7F7F" mask="url(#path-154-inside-69_1_1276)"/>
<mask id="path-156-inside-70_1_1276" fill="white">
<path d="M949.796 672.164L1122.55 772.938L1086.27 794.101L913.518 693.327L949.796 672.164Z"/>
</mask>
<path d="M949.796 672.164L1122.55 772.938L1086.27 794.101L913.518 693.327L949.796 672.164Z" fill="black"/>
<path d="M1087.14 793.597L914.381 692.823L912.654 693.831L1085.41 794.605L1087.14 793.597Z" fill="#7F7F7F" mask="url(#path-156-inside-70_1_1276)"/>
<mask id="path-158-inside-71_1_1276" fill="white">
<path d="M222.494 290.23L395.25 391.004L358.971 412.167L186.216 311.393L222.494 290.23Z"/>
</mask>
<path d="M222.494 290.23L395.25 391.004L358.971 412.167L186.216 311.393L222.494 290.23Z" fill="black"/>
<path d="M359.835 411.663L187.079 310.889L185.352 311.896L358.108 412.671L359.835 411.663Z" fill="#7F7F7F" mask="url(#path-158-inside-71_1_1276)"/>
<mask id="path-160-inside-72_1_1276" fill="white">
<path d="M395.25 391.004L568.006 491.779L531.727 512.941L358.972 412.167L395.25 391.004Z"/>
</mask>
<path d="M395.25 391.004L568.006 491.779L531.727 512.941L358.972 412.167L395.25 391.004Z" fill="black"/>
<path d="M532.591 512.437L359.835 411.663L358.108 412.671L530.864 513.445L532.591 512.437Z" fill="#7F7F7F" mask="url(#path-160-inside-72_1_1276)"/>
<mask id="path-162-inside-73_1_1276" fill="white">
<path d="M568.006 491.778L740.762 592.553L704.483 613.715L531.727 512.941L568.006 491.778Z"/>
</mask>
<path d="M568.006 491.778L740.762 592.553L704.483 613.715L531.727 512.941L568.006 491.778Z" fill="black"/>
<path d="M705.347 613.211L532.591 512.437L530.864 513.445L703.619 614.219L705.347 613.211Z" fill="#7F7F7F" mask="url(#path-162-inside-73_1_1276)"/>
<mask id="path-164-inside-74_1_1276" fill="white">
<path d="M740.762 592.553L913.518 693.327L877.239 714.49L704.483 613.715L740.762 592.553Z"/>
</mask>
<path d="M740.762 592.553L913.518 693.327L877.239 714.49L704.483 613.715L740.762 592.553Z" fill="black"/>
<path d="M878.103 713.986L705.347 613.211L703.619 614.219L876.375 714.993L878.103 713.986Z" fill="#7F7F7F" mask="url(#path-164-inside-74_1_1276)"/>
<mask id="path-166-inside-75_1_1276" fill="white">
<path d="M913.518 693.327L1086.27 794.101L1049.99 815.263L877.239 714.489L913.518 693.327Z"/>
</mask>
<path d="M913.518 693.327L1086.27 794.101L1049.99 815.263L877.239 714.489L913.518 693.327Z" fill="black"/>
<path d="M1050.86 814.76L878.103 713.985L876.375 714.993L1049.13 815.767L1050.86 814.76Z" fill="#7F7F7F" mask="url(#path-166-inside-75_1_1276)"/>
<mask id="path-168-inside-76_1_1276" fill="white">
<path d="M186.216 311.393L358.972 412.167L322.693 433.329L149.937 332.555L186.216 311.393Z"/>
</mask>
<path d="M186.216 311.393L358.972 412.167L322.693 433.329L149.937 332.555L186.216 311.393Z" fill="black"/>
<path d="M323.557 432.825L150.801 332.051L149.073 333.059L321.829 433.833L323.557 432.825Z" fill="#7F7F7F" mask="url(#path-168-inside-76_1_1276)"/>
<mask id="path-170-inside-77_1_1276" fill="white">
<path d="M358.972 412.167L531.727 512.941L495.449 534.104L322.693 433.33L358.972 412.167Z"/>
</mask>
<path d="M358.972 412.167L531.727 512.941L495.449 534.104L322.693 433.33L358.972 412.167Z" fill="black"/>
<path d="M496.313 533.6L323.557 432.826L321.829 433.833L494.585 534.608L496.313 533.6Z" fill="#7F7F7F" mask="url(#path-170-inside-77_1_1276)"/>
<mask id="path-172-inside-78_1_1276" fill="white">
<path d="M531.728 512.941L704.483 613.715L668.205 634.878L495.449 534.104L531.728 512.941Z"/>
</mask>
<path d="M531.728 512.941L704.483 613.715L668.205 634.878L495.449 534.104L531.728 512.941Z" fill="black"/>
<path d="M669.068 634.374L496.313 533.6L494.585 534.607L667.341 635.382L669.068 634.374Z" fill="#7F7F7F" mask="url(#path-172-inside-78_1_1276)"/>
<mask id="path-174-inside-79_1_1276" fill="white">
<path d="M704.483 613.715L877.239 714.49L840.96 735.652L668.204 634.878L704.483 613.715Z"/>
</mask>
<path d="M704.483 613.715L877.239 714.49L840.96 735.652L668.204 634.878L704.483 613.715Z" fill="black"/>
<path d="M841.824 735.148L669.068 634.374L667.341 635.382L840.096 736.156L841.824 735.148Z" fill="#7F7F7F" mask="url(#path-174-inside-79_1_1276)"/>
<mask id="path-176-inside-80_1_1276" fill="white">
<path d="M877.239 714.489L1049.99 815.263L1013.72 836.426L840.96 735.652L877.239 714.489Z"/>
</mask>
<path d="M877.239 714.489L1049.99 815.263L1013.72 836.426L840.96 735.652L877.239 714.489Z" fill="black"/>
<path d="M1014.58 835.922L841.824 735.148L840.097 736.156L1012.85 836.93L1014.58 835.922Z" fill="#7F7F7F" mask="url(#path-176-inside-80_1_1276)"/>
<mask id="path-178-inside-81_1_1276" fill="white">
<path d="M149.937 332.555L322.693 433.329L286.414 454.492L113.658 353.718L149.937 332.555Z"/>
</mask>
<path d="M149.937 332.555L322.693 433.329L286.414 454.492L113.658 353.718L149.937 332.555Z" fill="black"/>
<path d="M287.278 453.988L114.522 353.214L112.795 354.222L285.55 454.996L287.278 453.988Z" fill="#7F7F7F" mask="url(#path-178-inside-81_1_1276)"/>
<mask id="path-180-inside-82_1_1276" fill="white">
<path d="M322.693 433.33L495.449 534.104L459.17 555.266L286.414 454.492L322.693 433.33Z"/>
</mask>
<path d="M322.693 433.33L495.449 534.104L459.17 555.266L286.414 454.492L322.693 433.33Z" fill="black"/>
<path d="M460.034 554.763L287.278 453.988L285.55 454.996L458.306 555.77L460.034 554.763Z" fill="#7F7F7F" mask="url(#path-180-inside-82_1_1276)"/>
<mask id="path-182-inside-83_1_1276" fill="white">
<path d="M495.449 534.104L668.205 634.878L631.926 656.04L459.17 555.266L495.449 534.104Z"/>
</mask>
<path d="M495.449 534.104L668.205 634.878L631.926 656.04L459.17 555.266L495.449 534.104Z" fill="black"/>
<path d="M632.79 655.536L460.034 554.762L458.306 555.77L631.062 656.544L632.79 655.536Z" fill="#7F7F7F" mask="url(#path-182-inside-83_1_1276)"/>
<mask id="path-184-inside-84_1_1276" fill="white">
<path d="M668.204 634.878L840.96 735.652L804.681 756.815L631.926 656.041L668.204 634.878Z"/>
</mask>
<path d="M668.204 634.878L840.96 735.652L804.681 756.815L631.926 656.041L668.204 634.878Z" fill="black"/>
<path d="M805.545 756.311L632.789 655.537L631.062 656.544L803.818 757.319L805.545 756.311Z" fill="#7F7F7F" mask="url(#path-184-inside-84_1_1276)"/>
<mask id="path-186-inside-85_1_1276" fill="white">
<path d="M840.96 735.652L1013.72 836.426L977.437 857.589L804.681 756.814L840.96 735.652Z"/>
</mask>
<path d="M840.96 735.652L1013.72 836.426L977.437 857.589L804.681 756.814L840.96 735.652Z" fill="black"/>
<path d="M978.301 857.085L805.545 756.311L803.818 757.318L976.574 858.093L978.301 857.085Z" fill="#7F7F7F" mask="url(#path-186-inside-85_1_1276)"/>
<rect width="200" height="42" transform="matrix(0.863779 0.503871 -0.863779 0.503871 113.658 353.718)" fill="black"/>
<rect width="200" height="42" transform="matrix(0.863779 0.503871 -0.863779 0.503871 286.414 454.492)" fill="black"/>
<rect width="200" height="42" transform="matrix(0.863779 0.503871 -0.863779 0.503871 459.17 555.266)" fill="black"/>
<rect width="200" height="42" transform="matrix(0.863779 0.503871 -0.863779 0.503871 631.926 656.041)" fill="black"/>
<rect width="200" height="42" transform="matrix(0.863779 0.503871 -0.863779 0.503871 804.682 756.814)" fill="black"/>
</g>
<path d="M403.024 225.23C373.924 208.255 326.743 208.255 297.643 225.23L111.067 334.066C81.9668 351.042 81.9668 378.564 111.067 395.539L905.744 859.1C934.844 876.075 982.025 876.075 1011.12 859.1L1197.7 750.264C1226.8 733.289 1226.8 705.767 1197.7 688.792L403.024 225.23Z" stroke="white" stroke-width="2"/>
</g>
<defs>
<clipPath id="clip0_1_1276">
<rect width="1079" height="800" fill="white" transform="matrix(0.866044 0.499967 -0.866044 0.499967 693.009 153)"/>
</clipPath>
<clipPath id="clip1_1_1276">
<path d="M633.252 216.496C661.95 199.929 708.479 199.929 737.178 216.496L1517.48 666.967C1546.18 683.534 1546.18 710.395 1517.48 726.963L997.857 1026.94C969.159 1043.51 922.63 1043.51 893.932 1026.94L113.626 576.473C84.9274 559.905 84.9274 533.044 113.626 516.477L633.252 216.496Z" fill="white"/>
</clipPath>
<clipPath id="clip2_1_1276">
<rect width="188.2" height="70" fill="white" transform="matrix(0.866044 0.499967 -0.866044 0.499967 833.135 893.852)"/>
</clipPath>
<clipPath id="clip3_1_1276">
<rect width="188.2" height="50" fill="white" transform="matrix(0.866044 0.499967 -0.866044 0.499967 824.475 898.852)"/>
</clipPath>
<clipPath id="clip4_1_1276">
<rect width="1044" height="724" fill="white" transform="matrix(0.863779 0.503871 -0.863779 0.503871 682.025 0)"/>
</clipPath>
<clipPath id="clip5_1_1276">
<path d="M630.198 32.2476C658.821 15.5508 705.229 15.5508 733.852 32.2476L1064.68 225.23C1093.3 241.927 1093.3 268.998 1064.68 285.695L862.555 403.601C833.932 420.297 787.524 420.297 758.901 403.601L428.074 210.618C399.451 193.921 399.451 166.85 428.074 150.153L630.198 32.2476Z" fill="white"/>
</clipPath>
<clipPath id="clip6_1_1276">
<path d="M1094.05 302.826C1122.67 286.13 1169.08 286.13 1197.7 302.826L1528.53 495.809C1557.15 512.506 1557.15 539.577 1528.53 556.274L1326.4 674.179C1297.78 690.876 1251.37 690.876 1222.75 674.179L891.923 481.197C863.3 464.5 863.3 437.429 891.923 420.732L1094.05 302.826Z" fill="white"/>
</clipPath>
<clipPath id="clip7_1_1276">
<path d="M298.507 225.734C327.13 209.037 373.537 209.037 402.16 225.734L1196.84 689.296C1225.46 705.992 1225.46 733.063 1196.84 749.76L1010.26 858.596C981.638 875.293 935.231 875.293 906.607 858.596L111.931 395.035C83.3076 378.338 83.3076 351.267 111.931 334.57L298.507 225.734Z" fill="white"/>
</clipPath>
</defs>
</svg>
