<svg width="1628" height="1093" viewBox="0 0 1628 1093" fill="none" xmlns="http://www.w3.org/2000/svg">
<g clip-path="url(#clip0_1_1282)">
<g clip-path="url(#clip1_1_1282)">
<path d="M633.25 216.496C661.949 199.928 708.478 199.928 737.176 216.496L1517.48 666.966C1546.18 683.534 1546.18 710.395 1517.48 726.963L997.855 1026.94C969.157 1043.51 922.628 1043.51 893.93 1026.94L113.624 576.472C84.9257 559.905 84.9257 533.044 113.624 516.476L633.25 216.496Z" fill="black"/>
<rect width="188.2" height="42" transform="matrix(0.866044 0.499967 -0.866044 0.499967 156.926 531.475)" fill="black"/>
<rect width="188.2" height="42" transform="matrix(0.866044 0.499967 -0.866044 0.499967 319.916 625.569)" fill="black"/>
<rect width="188.2" height="42" transform="matrix(0.866044 0.499967 -0.866044 0.499967 482.905 719.663)" fill="black"/>
<rect width="188.2" height="42" transform="matrix(0.866044 0.499967 -0.866044 0.499967 645.895 813.757)" fill="black"/>
<g clip-path="url(#clip2_1_1282)">
<rect width="188.2" height="70" transform="matrix(0.866044 0.499967 -0.866044 0.499967 833.134 893.852)" fill="black"/>
<g clip-path="url(#clip3_1_1282)">
<rect width="188.2" height="50" transform="matrix(0.866044 0.499967 -0.866044 0.499967 824.473 898.851)" fill="black"/>
<path d="M864.815 958.138L880.403 949.139L883.178 950.741L879.499 952.864L880.06 952.324C880.58 952.144 881.1 952.012 881.619 951.928C882.139 951.844 882.773 951.826 883.521 951.874C884.29 951.91 885.07 952.036 885.859 952.252C886.691 952.468 887.522 952.816 888.354 953.296C889.746 954.1 890.526 954.982 890.692 955.942C890.858 956.902 890.422 957.838 889.382 958.75L888.821 958.462C889.653 958.174 890.443 957.97 891.191 957.85C891.939 957.73 892.76 957.688 893.654 957.724C894.464 957.76 895.254 957.88 896.023 958.084C896.792 958.288 897.613 958.642 898.486 959.146C899.65 959.818 900.409 960.508 900.762 961.216C901.136 961.936 901.095 962.668 900.638 963.412C900.18 964.156 899.307 964.9 898.019 965.644L887.917 971.475L885.049 969.819L894.215 964.528C895.171 963.976 895.857 963.52 896.273 963.16C896.709 962.788 896.917 962.368 896.896 961.9C896.896 961.468 896.72 961.09 896.366 960.766C896.013 960.442 895.608 960.148 895.15 959.884C894.236 959.356 893.186 959.074 892.001 959.038C891.149 959.026 890.276 959.122 889.382 959.326C888.51 959.542 887.501 959.98 886.358 960.64L877.753 965.608L874.885 963.952L884.051 958.66L884.176 958.588C885.07 958.072 885.724 957.634 886.14 957.274C886.577 956.902 886.774 956.488 886.732 956.032C886.732 955.6 886.556 955.222 886.202 954.898C885.849 954.574 885.444 954.28 884.986 954.016C884.529 953.752 884.03 953.548 883.49 953.404C882.95 953.26 882.399 953.182 881.838 953.17C880.985 953.158 880.112 953.254 879.219 953.458C878.346 953.674 877.338 954.112 876.194 954.772L867.589 959.74L864.815 958.138ZM897.993 977.724C896.392 976.8 895.322 975.81 894.781 974.754C894.282 973.698 894.334 972.636 894.937 971.568C895.54 970.5 896.683 969.48 898.367 968.508C899.946 967.596 901.661 966.966 903.511 966.618C905.403 966.27 907.273 966.234 909.123 966.51C911.014 966.786 912.75 967.38 914.33 968.292C915.889 969.192 916.897 970.182 917.354 971.262C917.853 972.342 917.79 973.422 917.167 974.502C916.564 975.594 915.483 976.59 913.924 977.49C912.303 978.426 910.547 979.068 908.655 979.416C906.785 979.752 904.914 979.776 903.043 979.488C901.214 979.2 899.531 978.612 897.993 977.724ZM900.206 976.446C901.744 977.334 903.334 977.748 904.976 977.688C905.912 977.652 906.868 977.472 907.845 977.148C908.842 976.812 909.861 976.344 910.9 975.744C913.062 974.496 914.184 973.344 914.267 972.288C914.33 971.34 913.613 970.434 912.116 969.57C911.347 969.126 910.578 968.802 909.809 968.598C909.061 968.382 908.302 968.28 907.533 968.292C906.556 968.304 905.548 968.478 904.509 968.814C903.511 969.15 902.472 969.63 901.391 970.254C900.31 970.878 899.468 971.484 898.866 972.072C898.304 972.66 898.013 973.236 897.993 973.8C897.951 974.688 898.689 975.57 900.206 976.446ZM915.43 987.79C913.829 986.866 912.759 985.876 912.219 984.82C911.72 983.765 911.772 982.703 912.375 981.635C912.977 980.567 914.12 979.547 915.804 978.575C917.384 977.663 919.098 977.033 920.948 976.685C922.84 976.337 924.71 976.301 926.56 976.577C928.452 976.853 930.187 977.447 931.767 978.359C933.326 979.259 934.334 980.249 934.791 981.329C935.29 982.409 935.228 983.489 934.604 984.568C934.001 985.66 932.921 986.656 931.362 987.556C929.74 988.492 927.984 989.134 926.093 989.482C924.222 989.818 922.351 989.842 920.481 989.554C918.652 989.266 916.968 988.678 915.43 987.79ZM917.644 986.512C919.182 987.4 920.772 987.814 922.414 987.754C923.349 987.718 924.305 987.538 925.282 987.214C926.28 986.878 927.298 986.41 928.337 985.81C930.499 984.562 931.621 983.411 931.705 982.355C931.767 981.407 931.05 980.501 929.553 979.637C928.784 979.193 928.015 978.869 927.246 978.665C926.498 978.449 925.739 978.347 924.97 978.359C923.993 978.371 922.985 978.545 921.946 978.881C920.948 979.217 919.909 979.697 918.828 980.321C917.747 980.945 916.906 981.551 916.303 982.139C915.742 982.727 915.451 983.303 915.43 983.867C915.388 984.754 916.126 985.636 917.644 986.512ZM931.62 997.137C929.729 996.045 928.606 994.869 928.253 993.609C927.9 992.349 928.648 991.197 930.498 990.153L933.304 991.485C932.202 992.097 931.693 992.799 931.776 993.591C931.88 994.371 932.545 995.115 933.771 995.823C935.039 996.555 936.203 996.987 937.263 997.119C938.344 997.239 939.3 997.059 940.132 996.579C940.568 996.327 940.755 996.015 940.693 995.643C940.651 995.283 940.443 994.911 940.069 994.527C939.737 994.143 939.259 993.663 938.635 993.087C938.469 992.943 938.303 992.799 938.136 992.655C937.991 992.499 937.835 992.349 937.669 992.205C936.858 991.425 936.255 990.753 935.86 990.189C935.507 989.625 935.393 989.043 935.517 988.443C935.642 987.843 936.182 987.267 937.139 986.716C938.157 986.128 939.279 985.792 940.506 985.708C941.753 985.636 942.969 985.762 944.154 986.086C945.38 986.41 946.481 986.854 947.458 987.417C949.267 988.461 950.358 989.559 950.732 990.711C951.106 991.863 950.483 993.003 948.861 994.131L945.837 992.853C946.897 992.217 947.365 991.539 947.24 990.819C947.115 990.099 946.44 989.385 945.214 988.677C944.382 988.197 943.457 987.891 942.439 987.759C941.441 987.615 940.61 987.735 939.945 988.119C939.342 988.467 939.186 988.893 939.477 989.397C939.768 989.901 940.339 990.555 941.192 991.359C941.212 991.395 941.254 991.431 941.316 991.467C941.379 991.503 941.42 991.539 941.441 991.575C941.483 991.623 941.514 991.665 941.535 991.701C941.597 991.737 941.659 991.773 941.722 991.809C942.782 992.733 943.561 993.507 944.06 994.131C944.58 994.743 944.798 995.385 944.715 996.057C944.632 996.729 944.039 997.383 942.938 998.019C941.192 999.027 939.321 999.399 937.326 999.135C935.351 998.859 933.449 998.193 931.62 997.137ZM947.437 1006.27C946.231 1005.57 945.348 1004.85 944.787 1004.09C944.225 1003.33 943.997 1002.54 944.101 1001.71C944.184 1000.92 944.558 1000.15 945.223 999.41C945.909 998.654 946.875 997.916 948.123 997.196C949.287 996.524 950.523 996.002 951.833 995.63C953.163 995.246 954.514 995.03 955.886 994.982C957.341 994.934 958.733 995.066 960.064 995.378C961.394 995.69 962.62 996.17 963.743 996.818C965.01 997.55 965.915 998.384 966.455 999.32C967.016 1000.24 967.11 1001.17 966.736 1002.11C966.465 1002.82 965.915 1003.54 965.083 1004.29C964.273 1005.02 963.285 1005.69 962.121 1006.29L950.305 999.464C948.621 1000.48 947.728 1001.44 947.624 1002.34C947.52 1003.24 948.195 1004.11 949.65 1004.95C950.98 1005.72 952.29 1006.15 953.579 1006.25C954.888 1006.33 956.229 1006.09 957.601 1005.51L960.095 1007.2C957.954 1008.06 955.803 1008.4 953.641 1008.23C951.5 1008.07 949.432 1007.42 947.437 1006.27ZM952.519 998.222L952.207 997.934L961.716 1003.42L961.435 1003.37C961.872 1003.12 962.277 1002.79 962.651 1002.38C963.067 1001.97 963.337 1001.59 963.462 1001.23C963.649 1000.66 963.576 1000.13 963.244 999.626C962.932 999.134 962.35 998.642 961.498 998.15C960.646 997.658 959.741 997.316 958.785 997.124C957.85 996.92 956.967 996.878 956.135 996.998C954.93 997.166 953.797 997.532 952.737 998.096L952.519 998.222Z" fill="white"/>
</g>
</g>
</g>
<path d="M738.042 215.996C708.865 199.152 661.561 199.152 632.384 215.996L112.758 515.976C83.5813 532.82 83.5813 560.129 112.758 576.972L893.064 1027.44C922.24 1044.29 969.545 1044.29 998.721 1027.44L1518.35 727.462C1547.52 710.619 1547.52 683.31 1518.35 666.466L738.042 215.996Z" stroke="white" stroke-width="2"/>
</g>
<g clip-path="url(#clip4_1_1282)">
<path d="M734.714 31.7439C705.614 14.7688 658.433 14.7688 629.333 31.7439L427.208 149.65C398.108 166.625 398.108 194.147 427.208 211.122L758.036 404.105C787.136 421.08 834.317 421.08 863.417 404.105L1065.54 286.199C1094.64 269.224 1094.64 241.702 1065.54 224.726L734.714 31.7439Z" fill="black"/>
<path d="M734.714 31.7439C705.614 14.7688 658.433 14.7688 629.333 31.7439L427.208 149.65C398.108 166.625 398.108 194.147 427.208 211.122L758.036 404.105C787.136 421.08 834.317 421.08 863.417 404.105L1065.54 286.199C1094.64 269.224 1094.64 241.702 1065.54 224.726L734.714 31.7439Z" stroke="white" stroke-width="2"/>
<path d="M516.758 123.614L514.177 129.115C511.597 134.616 506.436 145.617 508.693 152.292C510.95 158.967 520.624 161.315 535.646 160.543C550.669 159.771 571.04 155.879 579.206 159.107C587.372 162.334 583.333 172.682 583.503 180.574C583.674 188.465 588.053 193.902 595.927 197.3C603.801 200.698 615.169 202.058 630.284 201.232C645.4 200.406 664.262 197.394 681.047 195.594C697.831 193.795 712.536 193.208 715.282 199.597C718.027 205.987 708.812 219.354 716.631 222.784C724.449 226.215 749.3 219.71 757.938 222.662C766.575 225.615 758.999 238.025 759.699 245.609C760.398 253.192 769.372 255.948 782.644 256.197C795.917 256.446 813.487 254.188 832.727 250.956C851.968 247.723 872.879 243.516 888.614 242.329C904.348 241.142 914.907 242.974 923.882 245.729C932.858 248.485 940.251 252.163 940.681 259.904C941.11 267.645 934.576 279.447 941.7 283.283C948.823 287.119 969.605 282.988 984.603 282.23C999.602 281.472 1008.82 284.087 1013.43 285.395L1018.03 286.703" stroke="white" stroke-width="2"/>
<path d="M1198.56 302.323C1169.46 285.348 1122.28 285.348 1093.18 302.323L891.058 420.228C861.958 437.204 861.958 464.726 891.058 481.701L1221.89 674.683C1250.99 691.658 1298.17 691.658 1327.27 674.683L1529.39 556.777C1558.49 539.802 1558.49 512.28 1529.39 495.305L1198.56 302.323Z" fill="black"/>
<path d="M1198.56 302.323C1169.46 285.348 1122.28 285.348 1093.18 302.323L891.058 420.228C861.958 437.204 861.958 464.726 891.058 481.701L1221.89 674.683C1250.99 691.658 1298.17 691.658 1327.27 674.683L1529.39 556.777C1558.49 539.802 1558.49 512.28 1529.39 495.305L1198.56 302.323Z" stroke="white" stroke-width="2"/>
<path opacity="0.3" d="M1367.02 488.755C1367.02 500.733 1362.97 512.593 1355.11 523.66C1347.26 534.726 1335.74 544.781 1321.22 553.25C1306.7 561.72 1289.46 568.439 1270.49 573.022C1251.52 577.606 1231.19 579.965 1210.66 579.965C1190.12 579.965 1169.79 577.606 1150.82 573.022C1131.85 568.439 1114.61 561.72 1100.09 553.25C1085.57 544.781 1074.06 534.726 1066.2 523.66C1058.34 512.594 1054.3 500.733 1054.3 488.755C1054.3 476.777 1058.34 464.916 1066.2 453.85C1074.06 442.784 1085.57 432.729 1100.09 424.259C1114.61 415.79 1131.85 409.071 1150.82 404.488C1169.79 399.904 1190.12 397.545 1210.66 397.545C1231.19 397.545 1251.52 399.904 1270.49 404.488C1289.46 409.071 1306.7 415.79 1321.22 424.259C1335.74 432.729 1347.26 442.784 1355.11 453.85C1362.97 464.916 1367.02 476.777 1367.02 488.755L1367.02 488.755Z" stroke="white" stroke-width="2"/>
<path d="M1210.66 579.965C1179.73 579.965 1149.5 574.616 1123.79 564.594C1098.07 554.571 1078.03 540.326 1066.2 523.66C1054.36 506.993 1051.27 488.654 1057.3 470.961C1063.33 453.268 1078.22 437.015 1100.09 424.259C1121.96 411.503 1149.82 402.817 1180.15 399.297C1210.48 395.778 1241.92 397.584 1270.49 404.488C1299.06 411.391 1323.48 423.082 1340.67 438.081C1357.85 453.081 1367.02 470.715 1367.02 488.755" stroke="white" stroke-width="2"/>
<path d="M403.023 225.23C373.922 208.255 326.742 208.255 297.642 225.23L111.065 334.066C81.9651 351.042 81.9651 378.564 111.065 395.539L905.742 859.1C934.842 876.075 982.023 876.075 1011.12 859.1L1197.7 750.264C1226.8 733.289 1226.8 705.767 1197.7 688.792L403.023 225.23Z" fill="black"/>
<path d="M403.023 225.23C373.922 208.255 326.742 208.255 297.642 225.23L111.065 334.066C81.9651 351.042 81.9651 378.564 111.065 395.539L905.742 859.1C934.842 876.075 982.023 876.075 1011.12 859.1L1197.7 750.264C1226.8 733.289 1226.8 705.767 1197.7 688.792L403.023 225.23Z" stroke="white" stroke-width="2"/>
</g>
<defs>
<clipPath id="clip0_1_1282">
<rect width="1079" height="800" fill="white" transform="matrix(0.866044 0.499967 -0.866044 0.499967 693.008 153)"/>
</clipPath>
<clipPath id="clip1_1_1282">
<path d="M633.25 216.496C661.949 199.928 708.478 199.928 737.176 216.496L1517.48 666.966C1546.18 683.534 1546.18 710.395 1517.48 726.963L997.855 1026.94C969.157 1043.51 922.628 1043.51 893.93 1026.94L113.624 576.472C84.9257 559.905 84.9257 533.044 113.624 516.476L633.25 216.496Z" fill="white"/>
</clipPath>
<clipPath id="clip2_1_1282">
<rect width="188.2" height="70" fill="white" transform="matrix(0.866044 0.499967 -0.866044 0.499967 833.134 893.852)"/>
</clipPath>
<clipPath id="clip3_1_1282">
<rect width="188.2" height="50" fill="white" transform="matrix(0.866044 0.499967 -0.866044 0.499967 824.473 898.851)"/>
</clipPath>
<clipPath id="clip4_1_1282">
<rect width="1044" height="724" fill="white" transform="matrix(0.863779 0.503871 -0.863779 0.503871 682.023 0)"/>
</clipPath>
</defs>
</svg>
