<svg width="1780" height="1175" viewBox="0 0 1780 1175" fill="none" xmlns="http://www.w3.org/2000/svg">
<g clip-path="url(#clip0_7654_2078308)">
<g clip-path="url(#clip1_7654_2078308)">
<rect width="1176" height="720" rx="60" transform="matrix(0.866044 0.499967 -0.866044 0.499967 694.215 186.498)" fill="white"/>
<rect width="216" height="42" transform="matrix(0.866044 0.499967 -0.866044 0.499967 197.105 521.476)" fill="white"/>
<rect width="216" height="42" transform="matrix(0.866044 0.499967 -0.866044 0.499967 384.172 629.469)" fill="white"/>
<rect width="216" height="42" transform="matrix(0.866044 0.499967 -0.866044 0.499967 571.238 737.462)" fill="white"/>
<rect width="216" height="42" transform="matrix(0.866044 0.499967 -0.866044 0.499967 758.301 845.455)" fill="white"/>
<g clip-path="url(#clip2_7654_2078308)">
<rect width="216" height="70" transform="matrix(0.866044 0.499967 -0.866044 0.499967 945.367 953.448)" fill="white"/>
<g clip-path="url(#clip3_7654_2078308)">
<rect width="216" height="50" transform="matrix(0.866044 0.499967 -0.866044 0.499967 936.707 958.448)" fill="white"/>
<path d="M1001.12 1031.63L1016.71 1022.63L1019.49 1024.24L1015.81 1026.36L1016.37 1025.82C1016.89 1025.64 1017.41 1025.51 1017.93 1025.42C1018.45 1025.34 1019.08 1025.32 1019.83 1025.37C1020.6 1025.41 1021.38 1025.53 1022.17 1025.75C1023 1025.96 1023.83 1026.31 1024.66 1026.79C1026.06 1027.6 1026.84 1028.48 1027 1029.44C1027.17 1030.4 1026.73 1031.33 1025.69 1032.25L1025.13 1031.96C1025.96 1031.67 1026.75 1031.47 1027.5 1031.35C1028.25 1031.23 1029.07 1031.18 1029.96 1031.22C1030.77 1031.26 1031.56 1031.38 1032.33 1031.58C1033.1 1031.78 1033.92 1032.14 1034.8 1032.64C1035.96 1033.31 1036.72 1034 1037.07 1034.71C1037.45 1035.43 1037.4 1036.16 1036.95 1036.91C1036.49 1037.65 1035.62 1038.39 1034.33 1039.14L1024.23 1044.97L1021.36 1043.31L1030.52 1038.02C1031.48 1037.47 1032.17 1037.01 1032.58 1036.65C1033.02 1036.28 1033.23 1035.86 1033.21 1035.4C1033.21 1034.96 1033.03 1034.59 1032.68 1034.26C1032.32 1033.94 1031.92 1033.64 1031.46 1033.38C1030.55 1032.85 1029.5 1032.57 1028.31 1032.53C1027.46 1032.52 1026.59 1032.62 1025.69 1032.82C1024.82 1033.04 1023.81 1033.48 1022.67 1034.14L1014.06 1039.1L1011.19 1037.45L1020.36 1032.16L1020.49 1032.08C1021.38 1031.57 1022.03 1031.13 1022.45 1030.77C1022.89 1030.4 1023.08 1029.98 1023.04 1029.53C1023.04 1029.1 1022.87 1028.72 1022.51 1028.39C1022.16 1028.07 1021.75 1027.78 1021.3 1027.51C1020.84 1027.25 1020.34 1027.04 1019.8 1026.9C1019.26 1026.76 1018.71 1026.68 1018.15 1026.67C1017.29 1026.65 1016.42 1026.75 1015.53 1026.95C1014.66 1027.17 1013.65 1027.61 1012.5 1028.27L1003.9 1033.24L1001.12 1031.63ZM1034.3 1051.22C1032.7 1050.3 1031.63 1049.31 1031.09 1048.25C1030.59 1047.19 1030.64 1046.13 1031.25 1045.06C1031.85 1044 1032.99 1042.98 1034.68 1042C1036.26 1041.09 1037.97 1040.46 1039.82 1040.11C1041.71 1039.77 1043.58 1039.73 1045.43 1040.01C1047.32 1040.28 1049.06 1040.88 1050.64 1041.79C1052.2 1042.69 1053.21 1043.68 1053.66 1044.76C1054.16 1045.84 1054.1 1046.92 1053.48 1048C1052.87 1049.09 1051.79 1050.09 1050.23 1050.99C1048.61 1051.92 1046.86 1052.56 1044.96 1052.91C1043.09 1053.25 1041.22 1053.27 1039.35 1052.98C1037.52 1052.69 1035.84 1052.11 1034.3 1051.22ZM1036.52 1049.94C1038.05 1050.83 1039.64 1051.24 1041.29 1051.18C1042.22 1051.15 1043.18 1050.97 1044.15 1050.64C1045.15 1050.31 1046.17 1049.84 1047.21 1049.24C1049.37 1047.99 1050.49 1046.84 1050.58 1045.78C1050.64 1044.84 1049.92 1043.93 1048.43 1043.07C1047.66 1042.62 1046.89 1042.3 1046.12 1042.09C1045.37 1041.88 1044.61 1041.78 1043.84 1041.79C1042.87 1041.8 1041.86 1041.97 1040.82 1042.31C1039.82 1042.65 1038.78 1043.13 1037.7 1043.75C1036.62 1044.37 1035.78 1044.98 1035.18 1045.57C1034.61 1046.16 1034.32 1046.73 1034.3 1047.3C1034.26 1048.18 1035 1049.07 1036.52 1049.94ZM1051.74 1061.29C1050.14 1060.36 1049.07 1059.37 1048.53 1058.32C1048.03 1057.26 1048.08 1056.2 1048.68 1055.13C1049.29 1054.06 1050.43 1053.04 1052.11 1052.07C1053.69 1051.16 1055.41 1050.53 1057.26 1050.18C1059.15 1049.83 1061.02 1049.8 1062.87 1050.07C1064.76 1050.35 1066.5 1050.94 1068.08 1051.85C1069.64 1052.75 1070.64 1053.74 1071.1 1054.82C1071.6 1055.9 1071.54 1056.98 1070.91 1058.06C1070.31 1059.16 1069.23 1060.15 1067.67 1061.05C1066.05 1061.99 1064.29 1062.63 1062.4 1062.98C1060.53 1063.31 1058.66 1063.34 1056.79 1063.05C1054.96 1062.76 1053.28 1062.17 1051.74 1061.29ZM1053.95 1060.01C1055.49 1060.9 1057.08 1061.31 1058.72 1061.25C1059.66 1061.21 1060.61 1061.03 1061.59 1060.71C1062.59 1060.37 1063.61 1059.91 1064.65 1059.31C1066.81 1058.06 1067.93 1056.91 1068.01 1055.85C1068.08 1054.9 1067.36 1054 1065.86 1053.13C1065.09 1052.69 1064.32 1052.36 1063.56 1052.16C1062.81 1051.94 1062.05 1051.84 1061.28 1051.85C1060.3 1051.87 1059.29 1052.04 1058.26 1052.38C1057.26 1052.71 1056.22 1053.19 1055.14 1053.82C1054.06 1054.44 1053.22 1055.05 1052.61 1055.63C1052.05 1056.22 1051.76 1056.8 1051.74 1057.36C1051.7 1058.25 1052.44 1059.13 1053.95 1060.01ZM1067.93 1070.63C1066.04 1069.54 1064.92 1068.36 1064.56 1067.1C1064.21 1065.84 1064.96 1064.69 1066.81 1063.65L1069.61 1064.98C1068.51 1065.59 1068 1066.29 1068.09 1067.09C1068.19 1067.87 1068.85 1068.61 1070.08 1069.32C1071.35 1070.05 1072.51 1070.48 1073.57 1070.61C1074.65 1070.73 1075.61 1070.55 1076.44 1070.07C1076.88 1069.82 1077.06 1069.51 1077 1069.14C1076.96 1068.78 1076.75 1068.41 1076.38 1068.02C1076.05 1067.64 1075.57 1067.16 1074.94 1066.58C1074.78 1066.44 1074.61 1066.29 1074.45 1066.15C1074.3 1065.99 1074.14 1065.84 1073.98 1065.7C1073.17 1064.92 1072.56 1064.25 1072.17 1063.68C1071.82 1063.12 1071.7 1062.54 1071.83 1061.94C1071.95 1061.34 1072.49 1060.76 1073.45 1060.21C1074.47 1059.62 1075.59 1059.29 1076.82 1059.2C1078.06 1059.13 1079.28 1059.26 1080.46 1059.58C1081.69 1059.9 1082.79 1060.35 1083.77 1060.91C1085.58 1061.96 1086.67 1063.05 1087.04 1064.21C1087.42 1065.36 1086.79 1066.5 1085.17 1067.63L1082.15 1066.35C1083.21 1065.71 1083.67 1065.03 1083.55 1064.31C1083.42 1063.59 1082.75 1062.88 1081.52 1062.17C1080.69 1061.69 1079.77 1061.39 1078.75 1061.25C1077.75 1061.11 1076.92 1061.23 1076.25 1061.61C1075.65 1061.96 1075.5 1062.39 1075.79 1062.89C1076.08 1063.4 1076.65 1064.05 1077.5 1064.85C1077.52 1064.89 1077.56 1064.93 1077.63 1064.96C1077.69 1065 1077.73 1065.03 1077.75 1065.07C1077.79 1065.12 1077.82 1065.16 1077.84 1065.2C1077.91 1065.23 1077.97 1065.27 1078.03 1065.3C1079.09 1066.23 1079.87 1067 1080.37 1067.63C1080.89 1068.24 1081.11 1068.88 1081.02 1069.55C1080.94 1070.22 1080.35 1070.88 1079.25 1071.51C1077.5 1072.52 1075.63 1072.89 1073.64 1072.63C1071.66 1072.35 1069.76 1071.69 1067.93 1070.63ZM1083.75 1079.76C1082.54 1079.07 1081.66 1078.34 1081.1 1077.59C1080.53 1076.83 1080.31 1076.04 1080.41 1075.21C1080.49 1074.42 1080.87 1073.65 1081.53 1072.91C1082.22 1072.15 1083.18 1071.41 1084.43 1070.69C1085.6 1070.02 1086.83 1069.5 1088.14 1069.13C1089.47 1068.74 1090.82 1068.53 1092.2 1068.48C1093.65 1068.43 1095.04 1068.56 1096.37 1068.87C1097.7 1069.19 1098.93 1069.67 1100.05 1070.31C1101.32 1071.05 1102.22 1071.88 1102.76 1072.82C1103.33 1073.74 1103.42 1074.67 1103.05 1075.61C1102.77 1076.31 1102.22 1077.04 1101.39 1077.78C1100.58 1078.52 1099.59 1079.18 1098.43 1079.78L1086.61 1072.96C1084.93 1073.98 1084.04 1074.94 1083.93 1075.84C1083.83 1076.74 1084.5 1077.61 1085.96 1078.45C1087.29 1079.22 1088.6 1079.65 1089.89 1079.75C1091.2 1079.83 1092.54 1079.58 1093.91 1079.01L1096.4 1080.7C1094.26 1081.55 1092.11 1081.89 1089.95 1081.72C1087.81 1081.57 1085.74 1080.91 1083.75 1079.76ZM1088.83 1071.72L1088.52 1071.43L1098.03 1076.92L1097.74 1076.87C1098.18 1076.61 1098.59 1076.28 1098.96 1075.88C1099.38 1075.47 1099.65 1075.08 1099.77 1074.72C1099.96 1074.16 1099.89 1073.63 1099.55 1073.12C1099.24 1072.63 1098.66 1072.14 1097.81 1071.65C1096.95 1071.15 1096.05 1070.81 1095.09 1070.62C1094.16 1070.42 1093.28 1070.37 1092.44 1070.49C1091.24 1070.66 1090.11 1071.03 1089.05 1071.59L1088.83 1071.72Z" fill="black"/>
</g>
</g>
</g>
<rect y="-0.499967" width="1177" height="721" rx="60.5" transform="matrix(0.866044 0.499967 -0.866044 0.499967 693.782 186.248)" stroke="black"/>
</g>
<g clip-path="url(#clip4_7654_2078308)">
<g clip-path="url(#clip5_7654_2078308)">
<rect width="571" height="354" rx="60" transform="matrix(0.863779 0.503871 -0.863779 0.503871 683.25 33.7593)" fill="white"/>
<g clip-path="url(#clip6_7654_2078308)">
<path d="M665.974 43.8367C675.515 38.2711 690.985 38.2711 700.526 43.8367L1159.19 311.392C1168.73 316.958 1168.73 325.981 1159.19 331.547L887.966 489.763C878.425 495.328 862.956 495.328 853.414 489.763L394.748 222.207C385.207 216.641 385.207 207.618 394.748 202.052L665.974 43.8367Z" fill="white"/>
<mask id="path-9-inside-1_7654_2078308" fill="white">
<path d="M692.754 48.3716L784.487 101.883L748.209 123.045L656.475 69.5342L692.754 48.3716Z"/>
</mask>
<path d="M692.754 48.3716L784.487 101.883L748.209 123.045L656.475 69.5342L692.754 48.3716Z" fill="white"/>
<path d="M749.072 122.541L657.339 69.0303L655.611 70.038L747.345 123.549L749.072 122.541Z" fill="#7F7F7F" mask="url(#path-9-inside-1_7654_2078308)"/>
<mask id="path-11-inside-2_7654_2078308" fill="white">
<path d="M784.488 101.883L876.222 155.394L839.943 176.556L748.21 123.045L784.488 101.883Z"/>
</mask>
<path d="M784.488 101.883L876.222 155.394L839.943 176.556L748.21 123.045L784.488 101.883Z" fill="white"/>
<path d="M840.807 176.052L749.073 122.541L747.346 123.549L839.079 177.06L840.807 176.052Z" fill="#7F7F7F" mask="url(#path-11-inside-2_7654_2078308)"/>
<mask id="path-13-inside-3_7654_2078308" fill="white">
<path d="M876.219 155.394L967.952 208.905L931.673 230.067L839.94 176.556L876.219 155.394Z"/>
</mask>
<path d="M876.219 155.394L967.952 208.905L931.673 230.067L839.94 176.556L876.219 155.394Z" fill="white"/>
<path d="M932.537 229.564L840.804 176.053L839.076 177.06L930.81 230.571L932.537 229.564Z" fill="#7F7F7F" mask="url(#path-13-inside-3_7654_2078308)"/>
<mask id="path-15-inside-4_7654_2078308" fill="white">
<path d="M967.953 208.905L1059.69 262.416L1023.41 283.578L931.674 230.067L967.953 208.905Z"/>
</mask>
<path d="M967.953 208.905L1059.69 262.416L1023.41 283.578L931.674 230.067L967.953 208.905Z" fill="white"/>
<path d="M1024.27 283.075L932.538 229.563L930.811 230.571L1022.54 284.082L1024.27 283.075Z" fill="#7F7F7F" mask="url(#path-15-inside-4_7654_2078308)"/>
<mask id="path-17-inside-5_7654_2078308" fill="white">
<path d="M1059.69 262.416L1151.42 315.927L1115.14 337.09L1023.41 283.579L1059.69 262.416Z"/>
</mask>
<path d="M1059.69 262.416L1151.42 315.927L1115.14 337.09L1023.41 283.579L1059.69 262.416Z" fill="white"/>
<path d="M1116.01 336.586L1024.27 283.075L1022.55 284.082L1114.28 337.594L1116.01 336.586Z" fill="#7F7F7F" mask="url(#path-17-inside-5_7654_2078308)"/>
<mask id="path-19-inside-6_7654_2078308" fill="white">
<path d="M656.477 69.5342L748.21 123.045L711.931 144.208L620.198 90.6968L656.477 69.5342Z"/>
</mask>
<path d="M656.477 69.5342L748.21 123.045L711.931 144.208L620.198 90.6968L656.477 69.5342Z" fill="white"/>
<path d="M712.795 143.704L621.062 90.1929L619.334 91.2006L711.067 144.712L712.795 143.704Z" fill="#7F7F7F" mask="url(#path-19-inside-6_7654_2078308)"/>
<mask id="path-21-inside-7_7654_2078308" fill="white">
<path d="M748.211 123.045L839.944 176.556L803.666 197.719L711.932 144.208L748.211 123.045Z"/>
</mask>
<path d="M748.211 123.045L839.944 176.556L803.666 197.719L711.932 144.208L748.211 123.045Z" fill="white"/>
<path d="M804.529 197.215L712.796 143.704L711.068 144.712L802.802 198.223L804.529 197.215Z" fill="#7F7F7F" mask="url(#path-21-inside-7_7654_2078308)"/>
<mask id="path-23-inside-8_7654_2078308" fill="white">
<path d="M839.941 176.556L931.675 230.067L895.396 251.23L803.663 197.719L839.941 176.556Z"/>
</mask>
<path d="M839.941 176.556L931.675 230.067L895.396 251.23L803.663 197.719L839.941 176.556Z" fill="white"/>
<path d="M896.26 250.726L804.526 197.215L802.799 198.223L894.532 251.734L896.26 250.726Z" fill="#7F7F7F" mask="url(#path-23-inside-8_7654_2078308)"/>
<mask id="path-25-inside-9_7654_2078308" fill="white">
<path d="M931.676 230.067L1023.41 283.578L987.13 304.741L895.397 251.23L931.676 230.067Z"/>
</mask>
<path d="M931.676 230.067L1023.41 283.578L987.13 304.741L895.397 251.23L931.676 230.067Z" fill="white"/>
<path d="M987.994 304.237L896.261 250.726L894.533 251.734L986.267 305.245L987.994 304.237Z" fill="#7F7F7F" mask="url(#path-25-inside-9_7654_2078308)"/>
<mask id="path-27-inside-10_7654_2078308" fill="white">
<path d="M1023.41 283.579L1115.14 337.09L1078.86 358.252L987.131 304.741L1023.41 283.579Z"/>
</mask>
<path d="M1023.41 283.579L1115.14 337.09L1078.86 358.252L987.131 304.741L1023.41 283.579Z" fill="white"/>
<path d="M1079.73 357.748L987.995 304.237L986.268 305.245L1078 358.756L1079.73 357.748Z" fill="#7F7F7F" mask="url(#path-27-inside-10_7654_2078308)"/>
<mask id="path-29-inside-11_7654_2078308" fill="white">
<path d="M620.195 90.6968L711.929 144.208L675.65 165.37L583.917 111.859L620.195 90.6968Z"/>
</mask>
<path d="M620.195 90.6968L711.929 144.208L675.65 165.37L583.917 111.859L620.195 90.6968Z" fill="white"/>
<path d="M676.514 164.867L584.78 111.355L583.053 112.363L674.786 165.874L676.514 164.867Z" fill="#7F7F7F" mask="url(#path-29-inside-11_7654_2078308)"/>
<mask id="path-31-inside-12_7654_2078308" fill="white">
<path d="M711.93 144.208L803.663 197.719L767.384 218.881L675.651 165.37L711.93 144.208Z"/>
</mask>
<path d="M711.93 144.208L803.663 197.719L767.384 218.881L675.651 165.37L711.93 144.208Z" fill="white"/>
<path d="M768.248 218.378L676.515 164.866L674.787 165.874L766.521 219.385L768.248 218.378Z" fill="#7F7F7F" mask="url(#path-31-inside-12_7654_2078308)"/>
<mask id="path-33-inside-13_7654_2078308" fill="white">
<path d="M803.66 197.719L895.393 251.23L859.115 272.393L767.381 218.882L803.66 197.719Z"/>
</mask>
<path d="M803.66 197.719L895.393 251.23L859.115 272.393L767.381 218.882L803.66 197.719Z" fill="white"/>
<path d="M859.979 271.889L768.245 218.378L766.518 219.385L858.251 272.897L859.979 271.889Z" fill="#7F7F7F" mask="url(#path-33-inside-13_7654_2078308)"/>
<mask id="path-35-inside-14_7654_2078308" fill="white">
<path d="M895.395 251.23L987.128 304.741L950.849 325.904L859.116 272.393L895.395 251.23Z"/>
</mask>
<path d="M895.395 251.23L987.128 304.741L950.849 325.904L859.116 272.393L895.395 251.23Z" fill="white"/>
<path d="M951.713 325.4L859.98 271.889L858.252 272.896L949.985 326.408L951.713 325.4Z" fill="#7F7F7F" mask="url(#path-35-inside-14_7654_2078308)"/>
<mask id="path-37-inside-15_7654_2078308" fill="white">
<path d="M987.129 304.741L1078.86 358.252L1042.58 379.415L950.85 325.904L987.129 304.741Z"/>
</mask>
<path d="M987.129 304.741L1078.86 358.252L1042.58 379.415L950.85 325.904L987.129 304.741Z" fill="white"/>
<path d="M1043.45 378.911L951.714 325.4L949.986 326.408L1041.72 379.919L1043.45 378.911Z" fill="#7F7F7F" mask="url(#path-37-inside-15_7654_2078308)"/>
<mask id="path-39-inside-16_7654_2078308" fill="white">
<path d="M583.918 111.859L675.651 165.37L639.373 186.533L547.639 133.022L583.918 111.859Z"/>
</mask>
<path d="M583.918 111.859L675.651 165.37L639.373 186.533L547.639 133.022L583.918 111.859Z" fill="white"/>
<path d="M640.236 186.029L548.503 132.518L546.775 133.526L638.509 187.037L640.236 186.029Z" fill="#7F7F7F" mask="url(#path-39-inside-16_7654_2078308)"/>
<mask id="path-41-inside-17_7654_2078308" fill="white">
<path d="M675.652 165.37L767.386 218.881L731.107 240.044L639.374 186.533L675.652 165.37Z"/>
</mask>
<path d="M675.652 165.37L767.386 218.881L731.107 240.044L639.374 186.533L675.652 165.37Z" fill="white"/>
<path d="M731.971 239.54L640.237 186.029L638.51 187.037L730.243 240.548L731.971 239.54Z" fill="#7F7F7F" mask="url(#path-41-inside-17_7654_2078308)"/>
<mask id="path-43-inside-18_7654_2078308" fill="white">
<path d="M767.383 218.882L859.116 272.393L822.837 293.555L731.104 240.044L767.383 218.882Z"/>
</mask>
<path d="M767.383 218.882L859.116 272.393L822.837 293.555L731.104 240.044L767.383 218.882Z" fill="white"/>
<path d="M823.701 293.051L731.968 239.54L730.24 240.548L821.974 294.059L823.701 293.051Z" fill="#7F7F7F" mask="url(#path-43-inside-18_7654_2078308)"/>
<mask id="path-45-inside-19_7654_2078308" fill="white">
<path d="M859.117 272.393L950.851 325.904L914.572 347.066L822.838 293.555L859.117 272.393Z"/>
</mask>
<path d="M859.117 272.393L950.851 325.904L914.572 347.066L822.838 293.555L859.117 272.393Z" fill="white"/>
<path d="M915.436 346.562L823.702 293.051L821.975 294.059L913.708 347.57L915.436 346.562Z" fill="#7F7F7F" mask="url(#path-45-inside-19_7654_2078308)"/>
<mask id="path-47-inside-20_7654_2078308" fill="white">
<path d="M950.852 325.904L1042.58 379.415L1006.31 400.577L914.573 347.066L950.852 325.904Z"/>
</mask>
<path d="M950.852 325.904L1042.58 379.415L1006.31 400.577L914.573 347.066L950.852 325.904Z" fill="white"/>
<path d="M1007.17 400.074L915.437 346.563L913.709 347.57L1005.44 401.081L1007.17 400.074Z" fill="#7F7F7F" mask="url(#path-47-inside-20_7654_2078308)"/>
<mask id="path-49-inside-21_7654_2078308" fill="white">
<path d="M547.637 133.022L639.37 186.533L603.091 207.695L511.358 154.184L547.637 133.022Z"/>
</mask>
<path d="M547.637 133.022L639.37 186.533L603.091 207.695L511.358 154.184L547.637 133.022Z" fill="white"/>
<path d="M603.955 207.192L512.222 153.68L510.494 154.688L602.228 208.199L603.955 207.192Z" fill="#7F7F7F" mask="url(#path-49-inside-21_7654_2078308)"/>
<mask id="path-51-inside-22_7654_2078308" fill="white">
<path d="M639.371 186.533L731.104 240.044L694.826 261.206L603.092 207.695L639.371 186.533Z"/>
</mask>
<path d="M639.371 186.533L731.104 240.044L694.826 261.206L603.092 207.695L639.371 186.533Z" fill="white"/>
<path d="M695.689 260.703L603.956 207.191L602.229 208.199L693.962 261.71L695.689 260.703Z" fill="#7F7F7F" mask="url(#path-51-inside-22_7654_2078308)"/>
<mask id="path-53-inside-23_7654_2078308" fill="white">
<path d="M731.102 240.044L822.835 293.555L786.556 314.718L694.823 261.207L731.102 240.044Z"/>
</mask>
<path d="M731.102 240.044L822.835 293.555L786.556 314.718L694.823 261.207L731.102 240.044Z" fill="white"/>
<path d="M787.42 314.214L695.687 260.703L693.959 261.71L785.692 315.221L787.42 314.214Z" fill="#7F7F7F" mask="url(#path-53-inside-23_7654_2078308)"/>
<mask id="path-55-inside-24_7654_2078308" fill="white">
<path d="M822.836 293.555L914.569 347.066L878.291 368.229L786.557 314.718L822.836 293.555Z"/>
</mask>
<path d="M822.836 293.555L914.569 347.066L878.291 368.229L786.557 314.718L822.836 293.555Z" fill="white"/>
<path d="M879.154 367.725L787.421 314.214L785.693 315.221L877.427 368.732L879.154 367.725Z" fill="#7F7F7F" mask="url(#path-55-inside-24_7654_2078308)"/>
<mask id="path-57-inside-25_7654_2078308" fill="white">
<path d="M914.57 347.066L1006.3 400.577L970.025 421.74L878.292 368.229L914.57 347.066Z"/>
</mask>
<path d="M914.57 347.066L1006.3 400.577L970.025 421.74L878.292 368.229L914.57 347.066Z" fill="white"/>
<path d="M970.889 421.236L879.155 367.725L877.428 368.733L969.161 422.244L970.889 421.236Z" fill="#7F7F7F" mask="url(#path-57-inside-25_7654_2078308)"/>
<mask id="path-59-inside-26_7654_2078308" fill="white">
<path d="M511.359 154.184L603.093 207.695L566.814 228.858L475.081 175.347L511.359 154.184Z"/>
</mask>
<path d="M511.359 154.184L603.093 207.695L566.814 228.858L475.081 175.347L511.359 154.184Z" fill="white"/>
<path d="M567.678 228.354L475.944 174.843L474.217 175.851L565.95 229.362L567.678 228.354Z" fill="#7F7F7F" mask="url(#path-59-inside-26_7654_2078308)"/>
<mask id="path-61-inside-27_7654_2078308" fill="white">
<path d="M603.094 207.695L694.827 261.206L658.548 282.369L566.815 228.858L603.094 207.695Z"/>
</mask>
<path d="M603.094 207.695L694.827 261.206L658.548 282.369L566.815 228.858L603.094 207.695Z" fill="white"/>
<path d="M659.412 281.865L567.679 228.354L565.951 229.362L657.685 282.873L659.412 281.865Z" fill="#7F7F7F" mask="url(#path-61-inside-27_7654_2078308)"/>
<mask id="path-63-inside-28_7654_2078308" fill="white">
<path d="M694.824 261.207L786.558 314.718L750.279 335.88L658.546 282.369L694.824 261.207Z"/>
</mask>
<path d="M694.824 261.207L786.558 314.718L750.279 335.88L658.546 282.369L694.824 261.207Z" fill="white"/>
<path d="M751.143 335.376L659.409 281.865L657.682 282.873L749.415 336.384L751.143 335.376Z" fill="#7F7F7F" mask="url(#path-63-inside-28_7654_2078308)"/>
<mask id="path-65-inside-29_7654_2078308" fill="white">
<path d="M786.559 314.718L878.292 368.229L842.013 389.391L750.28 335.88L786.559 314.718Z"/>
</mask>
<path d="M786.559 314.718L878.292 368.229L842.013 389.391L750.28 335.88L786.559 314.718Z" fill="white"/>
<path d="M842.877 388.887L751.144 335.376L749.416 336.384L841.149 389.895L842.877 388.887Z" fill="#7F7F7F" mask="url(#path-65-inside-29_7654_2078308)"/>
<mask id="path-67-inside-30_7654_2078308" fill="white">
<path d="M878.293 368.229L970.026 421.74L933.748 442.902L842.014 389.391L878.293 368.229Z"/>
</mask>
<path d="M878.293 368.229L970.026 421.74L933.748 442.902L842.014 389.391L878.293 368.229Z" fill="white"/>
<path d="M934.611 442.399L842.878 388.887L841.15 389.895L932.884 443.406L934.611 442.399Z" fill="#7F7F7F" mask="url(#path-67-inside-30_7654_2078308)"/>
<mask id="path-69-inside-31_7654_2078308" fill="white">
<path d="M475.082 175.347L566.815 228.858L530.537 250.021L438.803 196.51L475.082 175.347Z"/>
</mask>
<path d="M475.082 175.347L566.815 228.858L530.537 250.021L438.803 196.51L475.082 175.347Z" fill="white"/>
<path d="M531.4 249.517L439.667 196.006L437.94 197.013L529.673 250.524L531.4 249.517Z" fill="#7F7F7F" mask="url(#path-69-inside-31_7654_2078308)"/>
<mask id="path-71-inside-32_7654_2078308" fill="white">
<path d="M566.816 228.858L658.55 282.369L622.271 303.532L530.538 250.02L566.816 228.858Z"/>
</mask>
<path d="M566.816 228.858L658.55 282.369L622.271 303.532L530.538 250.02L566.816 228.858Z" fill="white"/>
<path d="M623.135 303.028L531.401 249.517L529.674 250.524L621.407 304.035L623.135 303.028Z" fill="#7F7F7F" mask="url(#path-71-inside-32_7654_2078308)"/>
<mask id="path-73-inside-33_7654_2078308" fill="white">
<path d="M658.547 282.369L750.28 335.88L714.001 357.043L622.268 303.532L658.547 282.369Z"/>
</mask>
<path d="M658.547 282.369L750.28 335.88L714.001 357.043L622.268 303.532L658.547 282.369Z" fill="white"/>
<path d="M714.865 356.539L623.132 303.028L621.404 304.036L713.138 357.547L714.865 356.539Z" fill="#7F7F7F" mask="url(#path-73-inside-33_7654_2078308)"/>
<mask id="path-75-inside-34_7654_2078308" fill="white">
<path d="M750.281 335.88L842.015 389.391L805.736 410.554L714.003 357.043L750.281 335.88Z"/>
</mask>
<path d="M750.281 335.88L842.015 389.391L805.736 410.554L714.003 357.043L750.281 335.88Z" fill="white"/>
<path d="M806.6 410.05L714.866 356.539L713.139 357.547L804.872 411.058L806.6 410.05Z" fill="#7F7F7F" mask="url(#path-75-inside-34_7654_2078308)"/>
<mask id="path-77-inside-35_7654_2078308" fill="white">
<path d="M842.016 389.391L933.749 442.902L897.47 464.065L805.737 410.554L842.016 389.391Z"/>
</mask>
<path d="M842.016 389.391L933.749 442.902L897.47 464.065L805.737 410.554L842.016 389.391Z" fill="white"/>
<path d="M898.334 463.561L806.601 410.05L804.873 411.058L896.606 464.569L898.334 463.561Z" fill="#7F7F7F" mask="url(#path-77-inside-35_7654_2078308)"/>
<rect width="106.2" height="42" transform="matrix(0.863779 0.503871 -0.863779 0.503871 438.801 196.51)" fill="white"/>
<rect width="106.2" height="42" transform="matrix(0.863779 0.503871 -0.863779 0.503871 530.535 250.021)" fill="white"/>
<rect width="106.2" height="42" transform="matrix(0.863779 0.503871 -0.863779 0.503871 622.266 303.532)" fill="white"/>
<rect width="106.2" height="42" transform="matrix(0.863779 0.503871 -0.863779 0.503871 714 357.043)" fill="white"/>
<rect width="106.2" height="42" transform="matrix(0.863779 0.503871 -0.863779 0.503871 805.734 410.554)" fill="white"/>
</g>
<path d="M1159.62 311.14L700.957 43.5848C691.178 37.88 675.322 37.88 665.543 43.5848L394.316 201.8C384.536 207.505 384.536 216.754 394.316 222.459L852.983 490.014C862.762 495.719 878.618 495.719 888.398 490.014L1159.62 331.799C1169.4 326.094 1169.4 316.845 1159.62 311.14Z" stroke="black"/>
<path d="M517.984 155.358L515.919 161.159C513.854 166.961 509.724 178.563 513.011 185.839C516.298 193.115 527.003 196.064 543.056 195.893C559.109 195.723 580.511 192.432 589.707 196.261C598.903 200.089 595.895 211.038 597.096 219.531C598.297 228.024 603.707 234.061 612.611 238.06C621.516 242.06 633.914 244.021 650.06 243.796C666.206 243.571 686.099 241.16 703.913 239.962C721.728 238.763 737.464 238.777 741.24 245.768C745.016 252.759 736.831 266.726 745.68 270.758C754.529 274.79 780.41 268.886 790.079 272.439C799.747 275.993 793.201 289.005 794.931 297.189C796.661 305.374 806.666 308.731 820.968 309.581C835.271 310.431 853.872 308.774 874.143 306.143C894.414 303.512 916.355 299.906 933.121 299.32C949.886 298.733 961.474 301.167 971.48 304.523C981.487 307.88 989.91 312.159 991.37 320.501C992.83 328.843 987.327 341.247 995.481 345.684C1003.63 350.121 1025.45 346.59 1041.48 346.434C1057.5 346.277 1067.75 349.493 1072.87 351.101L1078 352.71" stroke="black"/>
</g>
<rect y="-0.503871" width="572" height="355" rx="60.5" transform="matrix(0.863779 0.503871 -0.863779 0.503871 682.815 33.5093)" stroke="black"/>
<g clip-path="url(#clip7_7654_2078308)">
<rect width="571" height="354" rx="60" transform="matrix(0.863779 0.503871 -0.863779 0.503871 1205.84 338.601)" fill="white"/>
<g clip-path="url(#clip8_7654_2078308)">
<path d="M1188.56 348.679C1198.1 343.113 1213.57 343.113 1223.11 348.679L1681.78 616.234C1691.32 621.8 1691.32 630.823 1681.78 636.389L1410.55 794.605C1401.01 800.17 1385.54 800.17 1376 794.605L917.334 527.049C907.793 521.483 907.793 512.46 917.334 506.894L1188.56 348.679Z" fill="white"/>
<mask id="path-84-inside-36_7654_2078308" fill="white">
<path d="M1215.34 353.214L1307.07 406.725L1270.79 427.887L1179.06 374.376L1215.34 353.214Z"/>
</mask>
<path d="M1215.34 353.214L1307.07 406.725L1270.79 427.887L1179.06 374.376L1215.34 353.214Z" fill="white"/>
<path d="M1271.66 427.383L1179.92 373.872L1178.2 374.88L1269.93 428.391L1271.66 427.383Z" fill="#7F7F7F" mask="url(#path-84-inside-36_7654_2078308)"/>
<mask id="path-86-inside-37_7654_2078308" fill="white">
<path d="M1307.07 406.725L1398.81 460.236L1362.53 481.398L1270.8 427.887L1307.07 406.725Z"/>
</mask>
<path d="M1307.07 406.725L1398.81 460.236L1362.53 481.398L1270.8 427.887L1307.07 406.725Z" fill="white"/>
<path d="M1363.39 480.894L1271.66 427.383L1269.93 428.391L1361.67 481.902L1363.39 480.894Z" fill="#7F7F7F" mask="url(#path-86-inside-37_7654_2078308)"/>
<mask id="path-88-inside-38_7654_2078308" fill="white">
<path d="M1398.8 460.236L1490.54 513.747L1454.26 534.91L1362.53 481.398L1398.8 460.236Z"/>
</mask>
<path d="M1398.8 460.236L1490.54 513.747L1454.26 534.91L1362.53 481.398L1398.8 460.236Z" fill="white"/>
<path d="M1455.12 534.406L1363.39 480.895L1361.66 481.902L1453.4 535.413L1455.12 534.406Z" fill="#7F7F7F" mask="url(#path-88-inside-38_7654_2078308)"/>
<mask id="path-90-inside-39_7654_2078308" fill="white">
<path d="M1490.54 513.747L1582.27 567.258L1545.99 588.421L1454.26 534.909L1490.54 513.747Z"/>
</mask>
<path d="M1490.54 513.747L1582.27 567.258L1545.99 588.421L1454.26 534.909L1490.54 513.747Z" fill="white"/>
<path d="M1546.86 587.917L1455.12 534.406L1453.4 535.413L1545.13 588.924L1546.86 587.917Z" fill="#7F7F7F" mask="url(#path-90-inside-39_7654_2078308)"/>
<mask id="path-92-inside-40_7654_2078308" fill="white">
<path d="M1582.27 567.258L1674.01 620.769L1637.73 641.932L1545.99 588.421L1582.27 567.258Z"/>
</mask>
<path d="M1582.27 567.258L1674.01 620.769L1637.73 641.932L1545.99 588.421L1582.27 567.258Z" fill="white"/>
<path d="M1638.59 641.428L1546.86 587.917L1545.13 588.925L1636.86 642.436L1638.59 641.428Z" fill="#7F7F7F" mask="url(#path-92-inside-40_7654_2078308)"/>
<mask id="path-94-inside-41_7654_2078308" fill="white">
<path d="M1179.06 374.376L1270.8 427.887L1234.52 449.05L1142.78 395.539L1179.06 374.376Z"/>
</mask>
<path d="M1179.06 374.376L1270.8 427.887L1234.52 449.05L1142.78 395.539L1179.06 374.376Z" fill="white"/>
<path d="M1235.38 448.546L1143.65 395.035L1141.92 396.043L1233.65 449.554L1235.38 448.546Z" fill="#7F7F7F" mask="url(#path-94-inside-41_7654_2078308)"/>
<mask id="path-96-inside-42_7654_2078308" fill="white">
<path d="M1270.8 427.887L1362.53 481.398L1326.25 502.561L1234.52 449.05L1270.8 427.887Z"/>
</mask>
<path d="M1270.8 427.887L1362.53 481.398L1326.25 502.561L1234.52 449.05L1270.8 427.887Z" fill="white"/>
<path d="M1327.12 502.057L1235.38 448.546L1233.65 449.554L1325.39 503.065L1327.12 502.057Z" fill="#7F7F7F" mask="url(#path-96-inside-42_7654_2078308)"/>
<mask id="path-98-inside-43_7654_2078308" fill="white">
<path d="M1362.53 481.398L1454.26 534.91L1417.98 556.072L1326.25 502.561L1362.53 481.398Z"/>
</mask>
<path d="M1362.53 481.398L1454.26 534.91L1417.98 556.072L1326.25 502.561L1362.53 481.398Z" fill="white"/>
<path d="M1418.85 555.568L1327.11 502.057L1325.38 503.065L1417.12 556.576L1418.85 555.568Z" fill="#7F7F7F" mask="url(#path-98-inside-43_7654_2078308)"/>
<mask id="path-100-inside-44_7654_2078308" fill="white">
<path d="M1454.26 534.909L1546 588.421L1509.72 609.583L1417.98 556.072L1454.26 534.909Z"/>
</mask>
<path d="M1454.26 534.909L1546 588.421L1509.72 609.583L1417.98 556.072L1454.26 534.909Z" fill="white"/>
<path d="M1510.58 609.079L1418.85 555.568L1417.12 556.576L1508.85 610.087L1510.58 609.079Z" fill="#7F7F7F" mask="url(#path-100-inside-44_7654_2078308)"/>
<mask id="path-102-inside-45_7654_2078308" fill="white">
<path d="M1546 588.421L1637.73 641.932L1601.45 663.094L1509.72 609.583L1546 588.421Z"/>
</mask>
<path d="M1546 588.421L1637.73 641.932L1601.45 663.094L1509.72 609.583L1546 588.421Z" fill="white"/>
<path d="M1602.31 662.59L1510.58 609.079L1508.85 610.087L1600.59 663.598L1602.31 662.59Z" fill="#7F7F7F" mask="url(#path-102-inside-45_7654_2078308)"/>
<mask id="path-104-inside-46_7654_2078308" fill="white">
<path d="M1142.78 395.539L1234.51 449.05L1198.24 470.213L1106.5 416.701L1142.78 395.539Z"/>
</mask>
<path d="M1142.78 395.539L1234.51 449.05L1198.24 470.213L1106.5 416.701L1142.78 395.539Z" fill="white"/>
<path d="M1199.1 469.709L1107.37 416.198L1105.64 417.205L1197.37 470.716L1199.1 469.709Z" fill="#7F7F7F" mask="url(#path-104-inside-46_7654_2078308)"/>
<mask id="path-106-inside-47_7654_2078308" fill="white">
<path d="M1234.52 449.05L1326.25 502.561L1289.97 523.723L1198.24 470.212L1234.52 449.05Z"/>
</mask>
<path d="M1234.52 449.05L1326.25 502.561L1289.97 523.723L1198.24 470.212L1234.52 449.05Z" fill="white"/>
<path d="M1290.83 523.22L1199.1 469.709L1197.37 470.716L1289.11 524.227L1290.83 523.22Z" fill="#7F7F7F" mask="url(#path-106-inside-47_7654_2078308)"/>
<mask id="path-108-inside-48_7654_2078308" fill="white">
<path d="M1326.25 502.561L1417.98 556.072L1381.7 577.235L1289.97 523.724L1326.25 502.561Z"/>
</mask>
<path d="M1326.25 502.561L1417.98 556.072L1381.7 577.235L1289.97 523.724L1326.25 502.561Z" fill="white"/>
<path d="M1382.56 576.731L1290.83 523.22L1289.1 524.227L1380.84 577.739L1382.56 576.731Z" fill="#7F7F7F" mask="url(#path-108-inside-48_7654_2078308)"/>
<mask id="path-110-inside-49_7654_2078308" fill="white">
<path d="M1417.98 556.072L1509.71 609.583L1473.44 630.746L1381.7 577.235L1417.98 556.072Z"/>
</mask>
<path d="M1417.98 556.072L1509.71 609.583L1473.44 630.746L1381.7 577.235L1417.98 556.072Z" fill="white"/>
<path d="M1474.3 630.242L1382.57 576.731L1380.84 577.738L1472.57 631.25L1474.3 630.242Z" fill="#7F7F7F" mask="url(#path-110-inside-49_7654_2078308)"/>
<mask id="path-112-inside-50_7654_2078308" fill="white">
<path d="M1509.71 609.583L1601.45 663.094L1565.17 684.257L1473.44 630.746L1509.71 609.583Z"/>
</mask>
<path d="M1509.71 609.583L1601.45 663.094L1565.17 684.257L1473.44 630.746L1509.71 609.583Z" fill="white"/>
<path d="M1566.03 683.753L1474.3 630.242L1472.57 631.25L1564.31 684.761L1566.03 683.753Z" fill="#7F7F7F" mask="url(#path-112-inside-50_7654_2078308)"/>
<mask id="path-114-inside-51_7654_2078308" fill="white">
<path d="M1106.5 416.701L1198.24 470.213L1161.96 491.375L1070.23 437.864L1106.5 416.701Z"/>
</mask>
<path d="M1106.5 416.701L1198.24 470.213L1161.96 491.375L1070.23 437.864L1106.5 416.701Z" fill="white"/>
<path d="M1162.82 490.871L1071.09 437.36L1069.36 438.368L1161.09 491.879L1162.82 490.871Z" fill="#7F7F7F" mask="url(#path-114-inside-51_7654_2078308)"/>
<mask id="path-116-inside-52_7654_2078308" fill="white">
<path d="M1198.24 470.212L1289.97 523.724L1253.69 544.886L1161.96 491.375L1198.24 470.212Z"/>
</mask>
<path d="M1198.24 470.212L1289.97 523.724L1253.69 544.886L1161.96 491.375L1198.24 470.212Z" fill="white"/>
<path d="M1254.56 544.382L1162.82 490.871L1161.1 491.879L1252.83 545.39L1254.56 544.382Z" fill="#7F7F7F" mask="url(#path-116-inside-52_7654_2078308)"/>
<mask id="path-118-inside-53_7654_2078308" fill="white">
<path d="M1289.97 523.724L1381.7 577.235L1345.42 598.397L1253.69 544.886L1289.97 523.724Z"/>
</mask>
<path d="M1289.97 523.724L1381.7 577.235L1345.42 598.397L1253.69 544.886L1289.97 523.724Z" fill="white"/>
<path d="M1346.29 597.893L1254.55 544.382L1252.83 545.39L1344.56 598.901L1346.29 597.893Z" fill="#7F7F7F" mask="url(#path-118-inside-53_7654_2078308)"/>
<mask id="path-120-inside-54_7654_2078308" fill="white">
<path d="M1381.7 577.235L1473.44 630.746L1437.16 651.908L1345.42 598.397L1381.7 577.235Z"/>
</mask>
<path d="M1381.7 577.235L1473.44 630.746L1437.16 651.908L1345.42 598.397L1381.7 577.235Z" fill="white"/>
<path d="M1438.02 651.404L1346.29 597.893L1344.56 598.901L1436.29 652.412L1438.02 651.404Z" fill="#7F7F7F" mask="url(#path-120-inside-54_7654_2078308)"/>
<mask id="path-122-inside-55_7654_2078308" fill="white">
<path d="M1473.44 630.746L1565.17 684.257L1528.89 705.42L1437.16 651.908L1473.44 630.746Z"/>
</mask>
<path d="M1473.44 630.746L1565.17 684.257L1528.89 705.42L1437.16 651.908L1473.44 630.746Z" fill="white"/>
<path d="M1529.76 704.916L1438.02 651.405L1436.3 652.412L1528.03 705.923L1529.76 704.916Z" fill="#7F7F7F" mask="url(#path-122-inside-55_7654_2078308)"/>
<mask id="path-124-inside-56_7654_2078308" fill="white">
<path d="M1070.22 437.864L1161.96 491.375L1125.68 512.537L1033.94 459.026L1070.22 437.864Z"/>
</mask>
<path d="M1070.22 437.864L1161.96 491.375L1125.68 512.537L1033.94 459.026L1070.22 437.864Z" fill="white"/>
<path d="M1126.54 512.034L1034.81 458.522L1033.08 459.53L1124.81 513.041L1126.54 512.034Z" fill="#7F7F7F" mask="url(#path-124-inside-56_7654_2078308)"/>
<mask id="path-126-inside-57_7654_2078308" fill="white">
<path d="M1161.96 491.375L1253.69 544.886L1217.41 566.048L1125.68 512.537L1161.96 491.375Z"/>
</mask>
<path d="M1161.96 491.375L1253.69 544.886L1217.41 566.048L1125.68 512.537L1161.96 491.375Z" fill="white"/>
<path d="M1218.28 565.545L1126.54 512.033L1124.81 513.041L1216.55 566.552L1218.28 565.545Z" fill="#7F7F7F" mask="url(#path-126-inside-57_7654_2078308)"/>
<mask id="path-128-inside-58_7654_2078308" fill="white">
<path d="M1253.69 544.886L1345.42 598.397L1309.14 619.56L1217.41 566.049L1253.69 544.886Z"/>
</mask>
<path d="M1253.69 544.886L1345.42 598.397L1309.14 619.56L1217.41 566.049L1253.69 544.886Z" fill="white"/>
<path d="M1310.01 619.056L1218.27 565.545L1216.55 566.552L1308.28 620.064L1310.01 619.056Z" fill="#7F7F7F" mask="url(#path-128-inside-58_7654_2078308)"/>
<mask id="path-130-inside-59_7654_2078308" fill="white">
<path d="M1345.42 598.397L1437.16 651.908L1400.88 673.071L1309.14 619.56L1345.42 598.397Z"/>
</mask>
<path d="M1345.42 598.397L1437.16 651.908L1400.88 673.071L1309.14 619.56L1345.42 598.397Z" fill="white"/>
<path d="M1401.74 672.567L1310.01 619.056L1308.28 620.063L1400.01 673.575L1401.74 672.567Z" fill="#7F7F7F" mask="url(#path-130-inside-59_7654_2078308)"/>
<mask id="path-132-inside-60_7654_2078308" fill="white">
<path d="M1437.16 651.908L1528.89 705.419L1492.61 726.582L1400.88 673.071L1437.16 651.908Z"/>
</mask>
<path d="M1437.16 651.908L1528.89 705.419L1492.61 726.582L1400.88 673.071L1437.16 651.908Z" fill="white"/>
<path d="M1493.47 726.078L1401.74 672.567L1400.01 673.575L1491.75 727.086L1493.47 726.078Z" fill="#7F7F7F" mask="url(#path-132-inside-60_7654_2078308)"/>
<mask id="path-134-inside-61_7654_2078308" fill="white">
<path d="M1033.95 459.026L1125.68 512.537L1089.4 533.7L997.667 480.189L1033.95 459.026Z"/>
</mask>
<path d="M1033.95 459.026L1125.68 512.537L1089.4 533.7L997.667 480.189L1033.95 459.026Z" fill="white"/>
<path d="M1090.26 533.196L998.53 479.685L996.803 480.693L1088.54 534.204L1090.26 533.196Z" fill="#7F7F7F" mask="url(#path-134-inside-61_7654_2078308)"/>
<mask id="path-136-inside-62_7654_2078308" fill="white">
<path d="M1125.68 512.537L1217.41 566.048L1181.13 587.211L1089.4 533.7L1125.68 512.537Z"/>
</mask>
<path d="M1125.68 512.537L1217.41 566.048L1181.13 587.211L1089.4 533.7L1125.68 512.537Z" fill="white"/>
<path d="M1182 586.707L1090.26 533.196L1088.54 534.204L1180.27 587.715L1182 586.707Z" fill="#7F7F7F" mask="url(#path-136-inside-62_7654_2078308)"/>
<mask id="path-138-inside-63_7654_2078308" fill="white">
<path d="M1217.41 566.049L1309.14 619.56L1272.86 640.722L1181.13 587.211L1217.41 566.049Z"/>
</mask>
<path d="M1217.41 566.049L1309.14 619.56L1272.86 640.722L1181.13 587.211L1217.41 566.049Z" fill="white"/>
<path d="M1273.73 640.218L1182 586.707L1180.27 587.715L1272 641.226L1273.73 640.218Z" fill="#7F7F7F" mask="url(#path-138-inside-63_7654_2078308)"/>
<mask id="path-140-inside-64_7654_2078308" fill="white">
<path d="M1309.14 619.56L1400.88 673.071L1364.6 694.233L1272.87 640.722L1309.14 619.56Z"/>
</mask>
<path d="M1309.14 619.56L1400.88 673.071L1364.6 694.233L1272.87 640.722L1309.14 619.56Z" fill="white"/>
<path d="M1365.46 693.729L1273.73 640.218L1272 641.226L1363.74 694.737L1365.46 693.729Z" fill="#7F7F7F" mask="url(#path-140-inside-64_7654_2078308)"/>
<mask id="path-142-inside-65_7654_2078308" fill="white">
<path d="M1400.88 673.071L1492.61 726.582L1456.33 747.744L1364.6 694.233L1400.88 673.071Z"/>
</mask>
<path d="M1400.88 673.071L1492.61 726.582L1456.33 747.744L1364.6 694.233L1400.88 673.071Z" fill="white"/>
<path d="M1457.2 747.241L1365.46 693.73L1363.74 694.737L1455.47 748.248L1457.2 747.241Z" fill="#7F7F7F" mask="url(#path-142-inside-65_7654_2078308)"/>
<mask id="path-144-inside-66_7654_2078308" fill="white">
<path d="M997.668 480.189L1089.4 533.7L1053.12 554.863L961.389 501.352L997.668 480.189Z"/>
</mask>
<path d="M997.668 480.189L1089.4 533.7L1053.12 554.863L961.389 501.352L997.668 480.189Z" fill="white"/>
<path d="M1053.99 554.359L962.253 500.848L960.525 501.855L1052.26 555.367L1053.99 554.359Z" fill="#7F7F7F" mask="url(#path-144-inside-66_7654_2078308)"/>
<mask id="path-146-inside-67_7654_2078308" fill="white">
<path d="M1089.4 533.7L1181.14 587.211L1144.86 608.374L1053.12 554.863L1089.4 533.7Z"/>
</mask>
<path d="M1089.4 533.7L1181.14 587.211L1144.86 608.374L1053.12 554.863L1089.4 533.7Z" fill="white"/>
<path d="M1145.72 607.87L1053.99 554.359L1052.26 555.366L1143.99 608.878L1145.72 607.87Z" fill="#7F7F7F" mask="url(#path-146-inside-67_7654_2078308)"/>
<mask id="path-148-inside-68_7654_2078308" fill="white">
<path d="M1181.13 587.211L1272.87 640.722L1236.59 661.885L1144.85 608.374L1181.13 587.211Z"/>
</mask>
<path d="M1181.13 587.211L1272.87 640.722L1236.59 661.885L1144.85 608.374L1181.13 587.211Z" fill="white"/>
<path d="M1237.45 661.381L1145.72 607.87L1143.99 608.878L1235.72 662.389L1237.45 661.381Z" fill="#7F7F7F" mask="url(#path-148-inside-68_7654_2078308)"/>
<mask id="path-150-inside-69_7654_2078308" fill="white">
<path d="M1272.87 640.722L1364.6 694.233L1328.32 715.396L1236.59 661.885L1272.87 640.722Z"/>
</mask>
<path d="M1272.87 640.722L1364.6 694.233L1328.32 715.396L1236.59 661.885L1272.87 640.722Z" fill="white"/>
<path d="M1329.19 714.892L1237.45 661.381L1235.72 662.389L1327.46 715.9L1329.19 714.892Z" fill="#7F7F7F" mask="url(#path-150-inside-69_7654_2078308)"/>
<mask id="path-152-inside-70_7654_2078308" fill="white">
<path d="M1364.6 694.233L1456.33 747.744L1420.06 768.907L1328.32 715.396L1364.6 694.233Z"/>
</mask>
<path d="M1364.6 694.233L1456.33 747.744L1420.06 768.907L1328.32 715.396L1364.6 694.233Z" fill="white"/>
<path d="M1420.92 768.403L1329.19 714.892L1327.46 715.9L1419.19 769.411L1420.92 768.403Z" fill="#7F7F7F" mask="url(#path-152-inside-70_7654_2078308)"/>
<rect width="106.2" height="42" transform="matrix(0.863779 0.503871 -0.863779 0.503871 961.387 501.352)" fill="white"/>
<rect width="106.2" height="42" transform="matrix(0.863779 0.503871 -0.863779 0.503871 1053.12 554.863)" fill="white"/>
<rect width="106.2" height="42" transform="matrix(0.863779 0.503871 -0.863779 0.503871 1144.85 608.374)" fill="white"/>
<rect width="106.2" height="42" transform="matrix(0.863779 0.503871 -0.863779 0.503871 1236.59 661.885)" fill="white"/>
<rect width="106.2" height="42" transform="matrix(0.863779 0.503871 -0.863779 0.503871 1328.32 715.396)" fill="white"/>
</g>
<path d="M1682.21 615.982L1223.54 348.427C1213.76 342.722 1197.91 342.722 1188.13 348.427L916.902 506.642C907.122 512.347 907.122 521.596 916.902 527.301L1375.57 794.857C1385.35 800.561 1401.2 800.561 1410.98 794.857L1682.21 636.641C1691.99 630.936 1691.99 621.687 1682.21 615.982Z" stroke="black"/>
<path opacity="0.5" d="M1456.96 571.893C1456.96 583.918 1452.9 595.825 1445.01 606.935C1437.12 618.044 1425.56 628.138 1410.98 636.641C1396.41 645.144 1379.1 651.888 1360.06 656.49C1341.01 661.092 1320.6 663.46 1299.99 663.46C1279.37 663.46 1258.96 661.092 1239.92 656.49C1220.87 651.888 1203.57 645.144 1188.99 636.641C1174.42 628.138 1162.85 618.044 1154.97 606.935C1147.08 595.825 1143.02 583.918 1143.02 571.894C1143.02 559.869 1147.08 547.962 1154.97 536.852C1162.85 525.743 1174.42 515.649 1188.99 507.146C1203.57 498.643 1220.87 491.899 1239.92 487.297C1258.96 482.695 1279.37 480.327 1299.99 480.327C1320.6 480.327 1341.01 482.695 1360.06 487.297C1379.1 491.899 1396.41 498.643 1410.98 507.146C1425.56 515.649 1437.12 525.743 1445.01 536.852C1452.9 547.962 1456.96 559.869 1456.96 571.894L1456.96 571.893Z" stroke="black"/>
<path d="M1299.99 663.46C1268.94 663.46 1238.59 658.09 1212.78 648.028C1186.97 637.967 1166.85 623.666 1154.97 606.935C1143.08 590.203 1139.98 571.792 1146.03 554.03C1152.09 536.268 1167.04 519.952 1188.99 507.146C1210.95 494.34 1238.92 485.619 1269.36 482.086C1299.81 478.553 1331.38 480.366 1360.06 487.297C1388.74 494.227 1413.26 505.964 1430.51 521.022C1447.75 536.08 1456.96 553.783 1456.96 571.893" stroke="black"/>
</g>
<rect y="-0.503871" width="572" height="355" rx="60.5" transform="matrix(0.863779 0.503871 -0.863779 0.503871 1205.4 338.351)" stroke="black"/>
<g clip-path="url(#clip9_7654_2078308)">
<rect width="1176" height="336" rx="60" transform="matrix(0.863779 0.503871 -0.863779 0.503871 351.559 227.246)" fill="white"/>
<mask id="path-158-inside-71_7654_2078308" fill="white">
<path d="M368.836 237.323L565.087 351.803L528.808 372.965L332.557 258.486L368.836 237.323Z"/>
</mask>
<path d="M368.836 237.323L565.087 351.803L528.808 372.965L332.557 258.486L368.836 237.323Z" fill="white"/>
<path d="M529.672 372.461L333.421 257.982L331.693 258.99L527.944 373.469L529.672 372.461Z" fill="#7F7F7F" mask="url(#path-158-inside-71_7654_2078308)"/>
<mask id="path-160-inside-72_7654_2078308" fill="white">
<path d="M565.086 351.803L761.337 466.282L725.058 487.445L528.807 372.965L565.086 351.803Z"/>
</mask>
<path d="M565.086 351.803L761.337 466.282L725.058 487.445L528.807 372.965L565.086 351.803Z" fill="white"/>
<path d="M725.922 486.941L529.671 372.461L527.943 373.469L724.194 487.949L725.922 486.941Z" fill="#7F7F7F" mask="url(#path-160-inside-72_7654_2078308)"/>
<mask id="path-162-inside-73_7654_2078308" fill="white">
<path d="M761.336 466.282L957.587 580.762L921.308 601.924L725.057 487.445L761.336 466.282Z"/>
</mask>
<path d="M761.336 466.282L957.587 580.762L921.308 601.924L725.057 487.445L761.336 466.282Z" fill="white"/>
<path d="M922.172 601.42L725.921 486.941L724.193 487.949L920.444 602.428L922.172 601.42Z" fill="#7F7F7F" mask="url(#path-162-inside-73_7654_2078308)"/>
<mask id="path-164-inside-74_7654_2078308" fill="white">
<path d="M957.586 580.762L1153.84 695.241L1117.56 716.404L921.307 601.924L957.586 580.762Z"/>
</mask>
<path d="M957.586 580.762L1153.84 695.241L1117.56 716.404L921.307 601.924L957.586 580.762Z" fill="white"/>
<path d="M1118.42 715.9L922.171 601.42L920.443 602.428L1116.69 716.908L1118.42 715.9Z" fill="#7F7F7F" mask="url(#path-164-inside-74_7654_2078308)"/>
<mask id="path-166-inside-75_7654_2078308" fill="white">
<path d="M1153.84 695.241L1350.09 809.721L1313.81 830.883L1117.56 716.404L1153.84 695.241Z"/>
</mask>
<path d="M1153.84 695.241L1350.09 809.721L1313.81 830.883L1117.56 716.404L1153.84 695.241Z" fill="white"/>
<path d="M1314.68 830.379L1118.42 715.9L1116.7 716.908L1312.95 831.387L1314.68 830.379Z" fill="#7F7F7F" mask="url(#path-166-inside-75_7654_2078308)"/>
<mask id="path-168-inside-76_7654_2078308" fill="white">
<path d="M332.559 258.486L528.809 372.965L492.53 394.128L296.28 279.648L332.559 258.486Z"/>
</mask>
<path d="M332.559 258.486L528.809 372.965L492.53 394.128L296.28 279.648L332.559 258.486Z" fill="white"/>
<path d="M493.394 393.624L297.144 279.145L295.416 280.152L491.667 394.632L493.394 393.624Z" fill="#7F7F7F" mask="url(#path-168-inside-76_7654_2078308)"/>
<mask id="path-170-inside-77_7654_2078308" fill="white">
<path d="M528.809 372.965L725.059 487.445L688.78 508.607L492.53 394.128L528.809 372.965Z"/>
</mask>
<path d="M528.809 372.965L725.059 487.445L688.78 508.607L492.53 394.128L528.809 372.965Z" fill="white"/>
<path d="M689.644 508.104L493.394 393.624L491.666 394.632L687.917 509.111L689.644 508.104Z" fill="#7F7F7F" mask="url(#path-170-inside-77_7654_2078308)"/>
<mask id="path-172-inside-78_7654_2078308" fill="white">
<path d="M725.059 487.445L921.309 601.924L885.03 623.087L688.78 508.607L725.059 487.445Z"/>
</mask>
<path d="M725.059 487.445L921.309 601.924L885.03 623.087L688.78 508.607L725.059 487.445Z" fill="white"/>
<path d="M885.894 622.583L689.644 508.104L687.916 509.111L884.167 623.591L885.894 622.583Z" fill="#7F7F7F" mask="url(#path-172-inside-78_7654_2078308)"/>
<mask id="path-174-inside-79_7654_2078308" fill="white">
<path d="M921.309 601.924L1117.56 716.404L1081.28 737.566L885.03 623.087L921.309 601.924Z"/>
</mask>
<path d="M921.309 601.924L1117.56 716.404L1081.28 737.566L885.03 623.087L921.309 601.924Z" fill="white"/>
<path d="M1082.14 737.063L885.894 622.583L884.166 623.591L1080.42 738.07L1082.14 737.063Z" fill="#7F7F7F" mask="url(#path-174-inside-79_7654_2078308)"/>
<mask id="path-176-inside-80_7654_2078308" fill="white">
<path d="M1117.56 716.404L1313.81 830.883L1277.53 852.046L1081.28 737.566L1117.56 716.404Z"/>
</mask>
<path d="M1117.56 716.404L1313.81 830.883L1277.53 852.046L1081.28 737.566L1117.56 716.404Z" fill="white"/>
<path d="M1278.4 851.542L1082.15 737.063L1080.42 738.07L1276.67 852.55L1278.4 851.542Z" fill="#7F7F7F" mask="url(#path-176-inside-80_7654_2078308)"/>
<mask id="path-178-inside-81_7654_2078308" fill="white">
<path d="M296.277 279.648L492.528 394.128L456.249 415.291L259.999 300.811L296.277 279.648Z"/>
</mask>
<path d="M296.277 279.648L492.528 394.128L456.249 415.291L259.999 300.811L296.277 279.648Z" fill="white"/>
<path d="M457.113 414.787L260.862 300.307L259.135 301.315L455.385 415.794L457.113 414.787Z" fill="#7F7F7F" mask="url(#path-178-inside-81_7654_2078308)"/>
<mask id="path-180-inside-82_7654_2078308" fill="white">
<path d="M492.527 394.128L688.778 508.607L652.499 529.77L456.249 415.291L492.527 394.128Z"/>
</mask>
<path d="M492.527 394.128L688.778 508.607L652.499 529.77L456.249 415.291L492.527 394.128Z" fill="white"/>
<path d="M653.363 529.266L457.112 414.787L455.385 415.794L651.635 530.274L653.363 529.266Z" fill="#7F7F7F" mask="url(#path-180-inside-82_7654_2078308)"/>
<mask id="path-182-inside-83_7654_2078308" fill="white">
<path d="M688.777 508.607L885.028 623.087L848.749 644.249L652.499 529.77L688.777 508.607Z"/>
</mask>
<path d="M688.777 508.607L885.028 623.087L848.749 644.249L652.499 529.77L688.777 508.607Z" fill="white"/>
<path d="M849.613 643.746L653.362 529.266L651.635 530.274L847.885 644.753L849.613 643.746Z" fill="#7F7F7F" mask="url(#path-182-inside-83_7654_2078308)"/>
<mask id="path-184-inside-84_7654_2078308" fill="white">
<path d="M885.027 623.087L1081.28 737.566L1045 758.729L848.749 644.249L885.027 623.087Z"/>
</mask>
<path d="M885.027 623.087L1081.28 737.566L1045 758.729L848.749 644.249L885.027 623.087Z" fill="white"/>
<path d="M1045.86 758.225L849.612 643.746L847.885 644.753L1044.14 759.233L1045.86 758.225Z" fill="#7F7F7F" mask="url(#path-184-inside-84_7654_2078308)"/>
<mask id="path-186-inside-85_7654_2078308" fill="white">
<path d="M1081.28 737.566L1277.53 852.046L1241.25 873.208L1045 758.729L1081.28 737.566Z"/>
</mask>
<path d="M1081.28 737.566L1277.53 852.046L1241.25 873.208L1045 758.729L1081.28 737.566Z" fill="white"/>
<path d="M1242.12 872.705L1045.87 758.225L1044.14 759.233L1240.39 873.712L1242.12 872.705Z" fill="#7F7F7F" mask="url(#path-186-inside-85_7654_2078308)"/>
<mask id="path-188-inside-86_7654_2078308" fill="white">
<path d="M260 300.811L456.251 415.291L419.972 436.453L223.721 321.974L260 300.811Z"/>
</mask>
<path d="M260 300.811L456.251 415.291L419.972 436.453L223.721 321.974L260 300.811Z" fill="white"/>
<path d="M420.836 435.949L224.585 321.47L222.858 322.477L419.108 436.957L420.836 435.949Z" fill="#7F7F7F" mask="url(#path-188-inside-86_7654_2078308)"/>
<mask id="path-190-inside-87_7654_2078308" fill="white">
<path d="M456.25 415.291L652.501 529.77L616.222 550.933L419.971 436.453L456.25 415.291Z"/>
</mask>
<path d="M456.25 415.291L652.501 529.77L616.222 550.933L419.971 436.453L456.25 415.291Z" fill="white"/>
<path d="M617.086 550.429L420.835 435.949L419.108 436.957L615.358 551.436L617.086 550.429Z" fill="#7F7F7F" mask="url(#path-190-inside-87_7654_2078308)"/>
<mask id="path-192-inside-88_7654_2078308" fill="white">
<path d="M652.5 529.77L848.751 644.25L812.472 665.412L616.221 550.933L652.5 529.77Z"/>
</mask>
<path d="M652.5 529.77L848.751 644.25L812.472 665.412L616.221 550.933L652.5 529.77Z" fill="white"/>
<path d="M813.336 664.908L617.085 550.429L615.358 551.436L811.608 665.916L813.336 664.908Z" fill="#7F7F7F" mask="url(#path-192-inside-88_7654_2078308)"/>
<mask id="path-194-inside-89_7654_2078308" fill="white">
<path d="M848.75 644.25L1045 758.729L1008.72 779.892L812.471 665.412L848.75 644.25Z"/>
</mask>
<path d="M848.75 644.25L1045 758.729L1008.72 779.892L812.471 665.412L848.75 644.25Z" fill="white"/>
<path d="M1009.59 779.388L813.335 664.908L811.608 665.916L1007.86 780.395L1009.59 779.388Z" fill="#7F7F7F" mask="url(#path-194-inside-89_7654_2078308)"/>
<mask id="path-196-inside-90_7654_2078308" fill="white">
<path d="M1045 758.729L1241.25 873.208L1204.98 894.371L1008.73 779.892L1045 758.729Z"/>
</mask>
<path d="M1045 758.729L1241.25 873.208L1204.98 894.371L1008.73 779.892L1045 758.729Z" fill="white"/>
<path d="M1205.84 893.867L1009.59 779.388L1007.86 780.395L1204.11 894.875L1205.84 893.867Z" fill="#7F7F7F" mask="url(#path-196-inside-90_7654_2078308)"/>
<mask id="path-198-inside-91_7654_2078308" fill="white">
<path d="M223.723 321.974L419.973 436.453L383.695 457.616L187.444 343.136L223.723 321.974Z"/>
</mask>
<path d="M223.723 321.974L419.973 436.453L383.695 457.616L187.444 343.136L223.723 321.974Z" fill="white"/>
<path d="M384.558 457.112L188.308 342.632L186.58 343.64L382.831 458.12L384.558 457.112Z" fill="#7F7F7F" mask="url(#path-198-inside-91_7654_2078308)"/>
<mask id="path-200-inside-92_7654_2078308" fill="white">
<path d="M419.973 436.453L616.223 550.933L579.945 572.095L383.694 457.616L419.973 436.453Z"/>
</mask>
<path d="M419.973 436.453L616.223 550.933L579.945 572.095L383.694 457.616L419.973 436.453Z" fill="white"/>
<path d="M580.808 571.591L384.558 457.112L382.83 458.12L579.081 572.599L580.808 571.591Z" fill="#7F7F7F" mask="url(#path-200-inside-92_7654_2078308)"/>
<mask id="path-202-inside-93_7654_2078308" fill="white">
<path d="M616.223 550.933L812.473 665.412L776.195 686.575L579.944 572.095L616.223 550.933Z"/>
</mask>
<path d="M616.223 550.933L812.473 665.412L776.195 686.575L579.944 572.095L616.223 550.933Z" fill="white"/>
<path d="M777.058 686.071L580.808 571.591L579.08 572.599L775.331 687.079L777.058 686.071Z" fill="#7F7F7F" mask="url(#path-202-inside-93_7654_2078308)"/>
<mask id="path-204-inside-94_7654_2078308" fill="white">
<path d="M812.473 665.412L1008.72 779.892L972.445 801.054L776.194 686.575L812.473 665.412Z"/>
</mask>
<path d="M812.473 665.412L1008.72 779.892L972.445 801.054L776.194 686.575L812.473 665.412Z" fill="white"/>
<path d="M973.308 800.55L777.058 686.071L775.33 687.079L971.581 801.558L973.308 800.55Z" fill="#7F7F7F" mask="url(#path-204-inside-94_7654_2078308)"/>
<mask id="path-206-inside-95_7654_2078308" fill="white">
<path d="M1008.73 779.892L1204.98 894.371L1168.7 915.534L972.448 801.054L1008.73 779.892Z"/>
</mask>
<path d="M1008.73 779.892L1204.98 894.371L1168.7 915.534L972.448 801.054L1008.73 779.892Z" fill="white"/>
<path d="M1169.56 915.03L973.312 800.55L971.584 801.558L1167.83 916.038L1169.56 915.03Z" fill="#7F7F7F" mask="url(#path-206-inside-95_7654_2078308)"/>
<mask id="path-208-inside-96_7654_2078308" fill="white">
<path d="M187.441 343.136L383.692 457.616L347.413 478.778L151.163 364.299L187.441 343.136Z"/>
</mask>
<path d="M187.441 343.136L383.692 457.616L347.413 478.778L151.163 364.299L187.441 343.136Z" fill="white"/>
<path d="M348.277 478.274L152.026 363.795L150.299 364.803L346.549 479.282L348.277 478.274Z" fill="#7F7F7F" mask="url(#path-208-inside-96_7654_2078308)"/>
<mask id="path-210-inside-97_7654_2078308" fill="white">
<path d="M383.691 457.616L579.942 572.095L543.663 593.258L347.413 478.778L383.691 457.616Z"/>
</mask>
<path d="M383.691 457.616L579.942 572.095L543.663 593.258L347.413 478.778L383.691 457.616Z" fill="white"/>
<path d="M544.527 592.754L348.276 478.274L346.549 479.282L542.799 593.762L544.527 592.754Z" fill="#7F7F7F" mask="url(#path-210-inside-97_7654_2078308)"/>
<mask id="path-212-inside-98_7654_2078308" fill="white">
<path d="M579.941 572.095L776.192 686.575L739.913 707.737L543.663 593.258L579.941 572.095Z"/>
</mask>
<path d="M579.941 572.095L776.192 686.575L739.913 707.737L543.663 593.258L579.941 572.095Z" fill="white"/>
<path d="M740.777 707.233L544.526 592.754L542.799 593.762L739.049 708.241L740.777 707.233Z" fill="#7F7F7F" mask="url(#path-212-inside-98_7654_2078308)"/>
<mask id="path-214-inside-99_7654_2078308" fill="white">
<path d="M776.191 686.575L972.442 801.054L936.163 822.217L739.913 707.737L776.191 686.575Z"/>
</mask>
<path d="M776.191 686.575L972.442 801.054L936.163 822.217L739.913 707.737L776.191 686.575Z" fill="white"/>
<path d="M937.027 821.713L740.776 707.233L739.049 708.241L935.299 822.721L937.027 821.713Z" fill="#7F7F7F" mask="url(#path-214-inside-99_7654_2078308)"/>
<mask id="path-216-inside-100_7654_2078308" fill="white">
<path d="M972.445 801.054L1168.7 915.534L1132.42 936.696L936.167 822.217L972.445 801.054Z"/>
</mask>
<path d="M972.445 801.054L1168.7 915.534L1132.42 936.696L936.167 822.217L972.445 801.054Z" fill="white"/>
<path d="M1133.28 936.192L937.03 821.713L935.303 822.721L1131.55 937.2L1133.28 936.192Z" fill="#7F7F7F" mask="url(#path-216-inside-100_7654_2078308)"/>
<mask id="path-218-inside-101_7654_2078308" fill="white">
<path d="M151.164 364.299L347.415 478.778L311.136 499.941L114.885 385.461L151.164 364.299Z"/>
</mask>
<path d="M151.164 364.299L347.415 478.778L311.136 499.941L114.885 385.461L151.164 364.299Z" fill="white"/>
<path d="M312 499.437L115.749 384.958L114.022 385.965L310.272 500.445L312 499.437Z" fill="#7F7F7F" mask="url(#path-218-inside-101_7654_2078308)"/>
<mask id="path-220-inside-102_7654_2078308" fill="white">
<path d="M347.414 478.778L543.665 593.258L507.386 614.42L311.135 499.941L347.414 478.778Z"/>
</mask>
<path d="M347.414 478.778L543.665 593.258L507.386 614.42L311.135 499.941L347.414 478.778Z" fill="white"/>
<path d="M508.25 613.917L311.999 499.437L310.272 500.445L506.522 614.924L508.25 613.917Z" fill="#7F7F7F" mask="url(#path-220-inside-102_7654_2078308)"/>
<mask id="path-222-inside-103_7654_2078308" fill="white">
<path d="M543.664 593.258L739.915 707.737L703.636 728.9L507.385 614.42L543.664 593.258Z"/>
</mask>
<path d="M543.664 593.258L739.915 707.737L703.636 728.9L507.385 614.42L543.664 593.258Z" fill="white"/>
<path d="M704.5 728.396L508.249 613.917L506.522 614.924L702.772 729.404L704.5 728.396Z" fill="#7F7F7F" mask="url(#path-222-inside-103_7654_2078308)"/>
<mask id="path-224-inside-104_7654_2078308" fill="white">
<path d="M739.914 707.737L936.165 822.217L899.886 843.379L703.635 728.9L739.914 707.737Z"/>
</mask>
<path d="M739.914 707.737L936.165 822.217L899.886 843.379L703.635 728.9L739.914 707.737Z" fill="white"/>
<path d="M900.75 842.876L704.499 728.396L702.772 729.404L899.022 843.883L900.75 842.876Z" fill="#7F7F7F" mask="url(#path-224-inside-104_7654_2078308)"/>
<mask id="path-226-inside-105_7654_2078308" fill="white">
<path d="M936.168 822.217L1132.42 936.696L1096.14 957.859L899.889 843.379L936.168 822.217Z"/>
</mask>
<path d="M936.168 822.217L1132.42 936.696L1096.14 957.859L899.889 843.379L936.168 822.217Z" fill="white"/>
<path d="M1097 957.355L900.753 842.876L899.025 843.883L1095.28 958.363L1097 957.355Z" fill="#7F7F7F" mask="url(#path-226-inside-105_7654_2078308)"/>
<rect width="227.2" height="42" transform="matrix(0.863779 0.503871 -0.863779 0.503871 114.887 385.461)" fill="white"/>
<rect width="227.2" height="42" transform="matrix(0.863779 0.503871 -0.863779 0.503871 311.137 499.941)" fill="white"/>
<rect width="227.2" height="42" transform="matrix(0.863779 0.503871 -0.863779 0.503871 507.387 614.42)" fill="white"/>
<rect width="227.2" height="42" transform="matrix(0.863779 0.503871 -0.863779 0.503871 703.637 728.9)" fill="white"/>
<rect width="227.2" height="42" transform="matrix(0.863779 0.503871 -0.863779 0.503871 899.891 843.379)" fill="white"/>
</g>
<rect y="-0.503871" width="1177" height="337" rx="60.5" transform="matrix(0.863779 0.503871 -0.863779 0.503871 351.123 226.996)" stroke="black"/>
</g>
<defs>
<clipPath id="clip0_7654_2078308">
<rect width="1244.04" height="799.789" fill="white" transform="matrix(0.866044 0.499967 -0.866044 0.499967 702.008 153)"/>
</clipPath>
<clipPath id="clip1_7654_2078308">
<rect width="1176" height="720" rx="60" transform="matrix(0.866044 0.499967 -0.866044 0.499967 694.215 186.498)" fill="white"/>
</clipPath>
<clipPath id="clip2_7654_2078308">
<rect width="216" height="70" fill="white" transform="matrix(0.866044 0.499967 -0.866044 0.499967 945.367 953.448)"/>
</clipPath>
<clipPath id="clip3_7654_2078308">
<rect width="216" height="50" fill="white" transform="matrix(0.866044 0.499967 -0.866044 0.499967 936.707 958.448)"/>
</clipPath>
<clipPath id="clip4_7654_2078308">
<rect width="1234" height="800" fill="white" transform="matrix(0.863779 0.503871 -0.863779 0.503871 691.023 0)"/>
</clipPath>
<clipPath id="clip5_7654_2078308">
<rect width="571" height="354" rx="60" transform="matrix(0.863779 0.503871 -0.863779 0.503871 683.25 33.7593)" fill="white"/>
</clipPath>
<clipPath id="clip6_7654_2078308">
<path d="M665.974 43.8367C675.515 38.2711 690.985 38.2711 700.526 43.8367L1159.19 311.392C1168.73 316.958 1168.73 325.981 1159.19 331.547L887.966 489.763C878.425 495.328 862.956 495.328 853.414 489.763L394.748 222.207C385.207 216.641 385.207 207.618 394.748 202.052L665.974 43.8367Z" fill="white"/>
</clipPath>
<clipPath id="clip7_7654_2078308">
<rect width="571" height="354" rx="60" transform="matrix(0.863779 0.503871 -0.863779 0.503871 1205.84 338.601)" fill="white"/>
</clipPath>
<clipPath id="clip8_7654_2078308">
<path d="M1188.56 348.679C1198.1 343.113 1213.57 343.113 1223.11 348.679L1681.78 616.234C1691.32 621.8 1691.32 630.823 1681.78 636.389L1410.55 794.605C1401.01 800.17 1385.54 800.17 1376 794.605L917.334 527.049C907.793 521.483 907.793 512.46 917.334 506.894L1188.56 348.679Z" fill="white"/>
</clipPath>
<clipPath id="clip9_7654_2078308">
<rect width="1176" height="336" rx="60" transform="matrix(0.863779 0.503871 -0.863779 0.503871 351.559 227.246)" fill="white"/>
</clipPath>
</defs>
</svg>
