<svg width="1628" height="1093" viewBox="0 0 1628 1093" fill="none" xmlns="http://www.w3.org/2000/svg">
<g clip-path="url(#clip0_11_770743)">
<g clip-path="url(#clip1_11_770743)">
<path d="M633.252 216.496C661.95 199.929 708.479 199.929 737.178 216.496L1517.48 666.967C1546.18 683.534 1546.18 710.395 1517.48 726.963L997.857 1026.94C969.159 1043.51 922.63 1043.51 893.932 1026.94L113.626 576.473C84.9274 559.905 84.9274 533.044 113.626 516.477L633.252 216.496Z" fill="white"/>
<rect width="188.2" height="42" transform="matrix(0.866044 0.499967 -0.866044 0.499967 156.928 531.476)" fill="white"/>
<rect width="188.2" height="42" transform="matrix(0.866044 0.499967 -0.866044 0.499967 319.917 625.569)" fill="white"/>
<rect width="188.2" height="42" transform="matrix(0.866044 0.499967 -0.866044 0.499967 482.907 719.663)" fill="white"/>
<rect width="188.2" height="42" transform="matrix(0.866044 0.499967 -0.866044 0.499967 645.896 813.757)" fill="white"/>
<g clip-path="url(#clip2_11_770743)">
<rect width="188.2" height="70" transform="matrix(0.866044 0.499967 -0.866044 0.499967 833.135 893.852)" fill="white"/>
<g clip-path="url(#clip3_11_770743)">
<rect width="188.2" height="50" transform="matrix(0.866044 0.499967 -0.866044 0.499967 824.475 898.852)" fill="white"/>
<path d="M864.816 958.139L880.405 949.139L883.18 950.741L879.501 952.865L880.062 952.325C880.581 952.145 881.101 952.013 881.621 951.929C882.14 951.845 882.774 951.827 883.523 951.875C884.292 951.911 885.071 952.037 885.861 952.253C886.692 952.469 887.524 952.817 888.355 953.297C889.748 954.101 890.527 954.983 890.693 955.943C890.86 956.903 890.423 957.839 889.384 958.75L888.823 958.462C889.654 958.175 890.444 957.971 891.192 957.851C891.941 957.731 892.762 957.689 893.655 957.725C894.466 957.761 895.256 957.881 896.025 958.085C896.794 958.289 897.615 958.642 898.488 959.146C899.652 959.818 900.41 960.508 900.764 961.216C901.138 961.936 901.096 962.668 900.639 963.412C900.182 964.156 899.309 964.9 898.02 965.644L887.919 971.476L885.05 969.82L894.216 964.528C895.173 963.976 895.859 963.52 896.274 963.16C896.711 962.788 896.919 962.368 896.898 961.9C896.898 961.468 896.721 961.09 896.368 960.766C896.014 960.442 895.609 960.148 895.152 959.884C894.237 959.356 893.188 959.074 892.003 959.038C891.151 959.026 890.278 959.122 889.384 959.326C888.511 959.542 887.503 959.98 886.36 960.64L877.755 965.608L874.886 963.952L884.053 958.66L884.177 958.588C885.071 958.073 885.726 957.635 886.141 957.275C886.578 956.903 886.775 956.489 886.734 956.033C886.734 955.601 886.557 955.223 886.204 954.899C885.851 954.575 885.445 954.281 884.988 954.017C884.531 953.753 884.032 953.549 883.491 953.405C882.951 953.261 882.4 953.183 881.839 953.171C880.987 953.159 880.114 953.255 879.22 953.459C878.347 953.675 877.339 954.113 876.196 954.773L867.591 959.74L864.816 958.139ZM897.994 977.724C896.394 976.8 895.323 975.81 894.783 974.754C894.284 973.698 894.336 972.637 894.939 971.569C895.541 970.501 896.685 969.481 898.368 968.509C899.948 967.597 901.663 966.967 903.513 966.619C905.404 966.271 907.275 966.235 909.124 966.511C911.016 966.787 912.751 967.381 914.331 968.293C915.89 969.193 916.898 970.183 917.355 971.263C917.854 972.343 917.792 973.422 917.168 974.502C916.566 975.594 915.485 976.59 913.926 977.49C912.305 978.426 910.548 979.068 908.657 979.416C906.786 979.752 904.916 979.776 903.045 979.488C901.216 979.2 899.532 978.612 897.994 977.724ZM900.208 976.446C901.746 977.334 903.336 977.748 904.978 977.688C905.913 977.652 906.869 977.472 907.846 977.148C908.844 976.812 909.862 976.344 910.902 975.744C913.063 974.496 914.186 973.344 914.269 972.289C914.331 971.341 913.614 970.435 912.118 969.571C911.348 969.127 910.579 968.803 909.81 968.599C909.062 968.383 908.303 968.281 907.534 968.293C906.558 968.305 905.549 968.479 904.51 968.815C903.513 969.151 902.473 969.631 901.392 970.255C900.312 970.879 899.47 971.485 898.867 972.073C898.306 972.661 898.015 973.236 897.994 973.8C897.953 974.688 898.69 975.57 900.208 976.446ZM915.431 987.791C913.831 986.867 912.761 985.877 912.22 984.821C911.721 983.765 911.773 982.703 912.376 981.635C912.979 980.567 914.122 979.547 915.806 978.575C917.385 977.663 919.1 977.033 920.95 976.685C922.841 976.337 924.712 976.301 926.562 976.577C928.453 976.853 930.189 977.447 931.768 978.359C933.327 979.259 934.335 980.249 934.793 981.329C935.292 982.409 935.229 983.489 934.606 984.569C934.003 985.661 932.922 986.657 931.363 987.557C929.742 988.493 927.986 989.135 926.094 989.483C924.223 989.819 922.353 989.843 920.482 989.555C918.653 989.267 916.969 988.679 915.431 987.791ZM917.645 986.513C919.183 987.401 920.773 987.815 922.415 987.755C923.35 987.719 924.307 987.539 925.284 987.215C926.281 986.879 927.3 986.411 928.339 985.811C930.501 984.563 931.623 983.411 931.706 982.355C931.768 981.407 931.051 980.501 929.555 979.637C928.786 979.193 928.017 978.869 927.248 978.665C926.499 978.449 925.741 978.347 924.972 978.359C923.995 978.371 922.987 978.545 921.947 978.881C920.95 979.217 919.911 979.697 918.83 980.321C917.749 980.945 916.907 981.551 916.304 982.139C915.743 982.727 915.452 983.303 915.431 983.867C915.39 984.755 916.128 985.637 917.645 986.513ZM931.622 997.137C929.73 996.045 928.608 994.869 928.254 993.61C927.901 992.35 928.649 991.198 930.499 990.154L933.305 991.486C932.204 992.098 931.694 992.8 931.777 993.592C931.881 994.372 932.547 995.115 933.773 995.823C935.041 996.555 936.205 996.987 937.265 997.119C938.346 997.239 939.302 997.059 940.133 996.579C940.57 996.327 940.757 996.015 940.694 995.643C940.653 995.283 940.445 994.911 940.071 994.528C939.738 994.144 939.26 993.664 938.637 993.088C938.47 992.944 938.304 992.8 938.138 992.656C937.992 992.5 937.836 992.35 937.67 992.206C936.859 991.426 936.257 990.754 935.862 990.19C935.508 989.626 935.394 989.044 935.519 988.444C935.643 987.844 936.184 987.268 937.14 986.716C938.158 986.128 939.281 985.792 940.507 985.708C941.754 985.636 942.97 985.762 944.155 986.086C945.381 986.41 946.483 986.854 947.46 987.418C949.268 988.462 950.359 989.56 950.733 990.712C951.108 991.864 950.484 993.004 948.863 994.132L945.839 992.854C946.899 992.218 947.366 991.54 947.242 990.82C947.117 990.1 946.441 989.386 945.215 988.678C944.384 988.198 943.459 987.892 942.44 987.76C941.443 987.616 940.611 987.736 939.946 988.12C939.343 988.468 939.187 988.894 939.478 989.398C939.769 989.902 940.341 990.556 941.193 991.36C941.214 991.396 941.255 991.432 941.318 991.468C941.38 991.504 941.422 991.54 941.443 991.576C941.484 991.624 941.515 991.666 941.536 991.702C941.598 991.738 941.661 991.774 941.723 991.81C942.783 992.734 943.563 993.508 944.061 994.132C944.581 994.743 944.799 995.385 944.716 996.057C944.633 996.729 944.041 997.383 942.939 998.019C941.193 999.027 939.322 999.399 937.327 999.135C935.352 998.859 933.451 998.193 931.622 997.137ZM947.438 1006.27C946.233 1005.57 945.349 1004.85 944.788 1004.09C944.227 1003.33 943.998 1002.54 944.102 1001.71C944.185 1000.92 944.559 1000.15 945.224 999.411C945.91 998.655 946.877 997.917 948.124 997.197C949.288 996.525 950.525 996.003 951.834 995.631C953.164 995.247 954.515 995.031 955.887 994.983C957.342 994.935 958.735 995.067 960.065 995.379C961.395 995.691 962.622 996.171 963.744 996.819C965.012 997.551 965.916 998.385 966.456 999.321C967.018 1000.24 967.111 1001.17 966.737 1002.11C966.467 1002.82 965.916 1003.54 965.085 1004.29C964.274 1005.02 963.287 1005.69 962.123 1006.29L950.306 999.465C948.623 1000.48 947.729 1001.44 947.625 1002.34C947.521 1003.24 948.197 1004.11 949.652 1004.95C950.982 1005.72 952.291 1006.15 953.58 1006.25C954.89 1006.33 956.23 1006.09 957.602 1005.51L960.096 1007.2C957.955 1008.06 955.804 1008.4 953.642 1008.23C951.502 1008.07 949.433 1007.42 947.438 1006.27ZM952.52 998.223L952.208 997.935L961.717 1003.42L961.437 1003.37C961.873 1003.12 962.279 1002.79 962.653 1002.38C963.068 1001.97 963.339 1001.59 963.463 1001.23C963.65 1000.66 963.578 1000.13 963.245 999.627C962.933 999.135 962.351 998.643 961.499 998.151C960.647 997.659 959.743 997.317 958.787 997.125C957.851 996.921 956.968 996.879 956.137 996.999C954.931 997.167 953.798 997.533 952.738 998.097L952.52 998.223Z" fill="black"/>
</g>
</g>
</g>
<path d="M738.044 215.996C708.867 199.153 661.563 199.153 632.386 215.996L112.76 515.977C83.583 532.82 83.583 560.129 112.76 576.973L893.065 1027.44C922.242 1044.29 969.546 1044.29 998.723 1027.44L1518.35 727.463C1547.53 710.619 1547.53 683.31 1518.35 666.467L738.044 215.996Z" stroke="black" stroke-width="2"/>
</g>
<g clip-path="url(#clip4_11_770743)">
<path d="M734.715 31.7438C705.615 14.7687 658.435 14.7687 629.334 31.7438L427.21 149.65C398.11 166.625 398.11 194.147 427.21 211.122L758.037 404.104C787.138 421.08 834.318 421.08 863.418 404.104L1065.54 286.199C1094.64 269.224 1094.64 241.701 1065.54 224.726L734.715 31.7438Z" fill="white"/>
<path d="M734.715 31.7438C705.615 14.7687 658.435 14.7687 629.334 31.7438L427.21 149.65C398.11 166.625 398.11 194.147 427.21 211.122L758.037 404.104C787.138 421.08 834.318 421.08 863.418 404.104L1065.54 286.199C1094.64 269.224 1094.64 241.701 1065.54 224.726L734.715 31.7438Z" stroke="black" stroke-width="2"/>
<g clip-path="url(#clip5_11_770743)">
<path d="M1094.05 302.826C1122.67 286.13 1169.08 286.13 1197.7 302.826L1528.53 495.809C1557.15 512.506 1557.15 539.577 1528.53 556.274L1326.4 674.179C1297.78 690.876 1251.37 690.876 1222.75 674.179L891.923 481.197C863.3 464.5 863.3 437.429 891.923 420.732L1094.05 302.826Z" fill="white"/>
<rect y="1.00774" width="85" height="40" rx="9" transform="matrix(0.863779 0.503871 -0.863779 0.503871 1119.1 412.162)" fill="white"/>
<rect y="1.00774" width="85" height="40" rx="9" transform="matrix(0.863779 0.503871 -0.863779 0.503871 1119.1 412.162)" stroke="black" stroke-width="2"/>
<rect y="1.00774" width="85" height="40" rx="9" transform="matrix(0.863779 0.503871 -0.863779 0.503871 1246.94 486.735)" fill="white"/>
<rect y="1.00774" width="85" height="40" rx="9" transform="matrix(0.863779 0.503871 -0.863779 0.503871 1246.94 486.735)" stroke="black" stroke-width="2"/>
<rect width="87" height="42" transform="matrix(0.863779 0.503871 -0.863779 0.503871 1178.7 525.537)" fill="white"/>
<rect y="1.00774" width="85" height="40" rx="9" transform="matrix(0.863779 0.503871 -0.863779 0.503871 1179.57 526.037)" fill="white"/>
<rect y="1.00774" width="85" height="40" rx="9" transform="matrix(0.863779 0.503871 -0.863779 0.503871 1179.57 526.037)" stroke="black" stroke-width="2"/>
<rect y="1.00774" width="85" height="40" rx="9" transform="matrix(0.863779 0.503871 -0.863779 0.503871 1314.32 447.434)" fill="white"/>
<rect y="1.00774" width="85" height="40" rx="9" transform="matrix(0.863779 0.503871 -0.863779 0.503871 1314.32 447.434)" stroke="black" stroke-width="2"/>
<line y1="-1" x2="61" y2="-1" transform="matrix(0.863779 0.503871 -0.863779 0.503871 1173.51 468.096)" stroke="black" stroke-width="2"/>
<path d="M1155.72 474.625C1147.12 482.187 1142.06 511.752 1171.45 531.606" stroke="black" stroke-width="2"/>
<path d="M1189.03 455.194C1201.99 450.18 1252.67 447.229 1286.71 464.37" stroke="black" stroke-width="2"/>
</g>
<path d="M1198.56 302.323C1169.46 285.348 1122.28 285.348 1093.18 302.323L891.059 420.228C861.959 437.204 861.959 464.726 891.059 481.701L1221.89 674.683C1250.99 691.658 1298.17 691.658 1327.27 674.683L1529.39 556.777C1558.49 539.802 1558.49 512.28 1529.39 495.305L1198.56 302.323Z" stroke="black" stroke-width="2"/>
<path d="M403.025 225.23C373.924 208.255 326.744 208.255 297.643 225.23L111.067 334.066C81.967 351.042 81.967 378.564 111.067 395.539L905.744 859.1C934.844 876.075 982.025 876.075 1011.12 859.1L1197.7 750.264C1226.8 733.289 1226.8 705.767 1197.7 688.792L403.025 225.23Z" fill="white"/>
<path d="M403.025 225.23C373.924 208.255 326.744 208.255 297.643 225.23L111.067 334.066C81.967 351.042 81.967 378.564 111.067 395.539L905.744 859.1C934.844 876.075 982.025 876.075 1011.12 859.1L1197.7 750.264C1226.8 733.289 1226.8 705.767 1197.7 688.792L403.025 225.23Z" stroke="black" stroke-width="2"/>
</g>
<defs>
<clipPath id="clip0_11_770743">
<rect width="1079" height="800" fill="white" transform="matrix(0.866044 0.499967 -0.866044 0.499967 693.009 153)"/>
</clipPath>
<clipPath id="clip1_11_770743">
<path d="M633.252 216.496C661.95 199.929 708.479 199.929 737.178 216.496L1517.48 666.967C1546.18 683.534 1546.18 710.395 1517.48 726.963L997.857 1026.94C969.159 1043.51 922.63 1043.51 893.932 1026.94L113.626 576.473C84.9274 559.905 84.9274 533.044 113.626 516.477L633.252 216.496Z" fill="white"/>
</clipPath>
<clipPath id="clip2_11_770743">
<rect width="188.2" height="70" fill="white" transform="matrix(0.866044 0.499967 -0.866044 0.499967 833.135 893.852)"/>
</clipPath>
<clipPath id="clip3_11_770743">
<rect width="188.2" height="50" fill="white" transform="matrix(0.866044 0.499967 -0.866044 0.499967 824.475 898.852)"/>
</clipPath>
<clipPath id="clip4_11_770743">
<rect width="1044" height="724" fill="white" transform="matrix(0.863779 0.503871 -0.863779 0.503871 682.025 0)"/>
</clipPath>
<clipPath id="clip5_11_770743">
<path d="M1094.05 302.826C1122.67 286.13 1169.08 286.13 1197.7 302.826L1528.53 495.809C1557.15 512.506 1557.15 539.577 1528.53 556.274L1326.4 674.179C1297.78 690.876 1251.37 690.876 1222.75 674.179L891.923 481.197C863.3 464.5 863.3 437.429 891.923 420.732L1094.05 302.826Z" fill="white"/>
</clipPath>
</defs>
</svg>
