<svg width="108" height="108" viewBox="0 0 108 108" fill="none" xmlns="http://www.w3.org/2000/svg">
<g clip-path="url(#clip0_2086_25589)">
<path fill-rule="evenodd" clip-rule="evenodd" d="M107.273 37.755C107.273 48.3099 98.717 56.8665 88.162 56.8665L66.4267 56.8665C61.1492 56.8665 56.8709 61.1447 56.8709 66.4222L56.8709 87.9226C56.8709 98.4776 48.3144 107.034 37.7594 107.034H20.0812C9.52624 107.034 0.969726 98.4776 0.969727 87.9226L0.969727 70.2445C0.969728 59.6895 9.52626 51.133 20.0812 51.133H41.8166C47.0941 51.133 51.3723 46.8547 51.3723 41.5772V20.0768C51.3723 9.52184 59.9288 0.965332 70.4838 0.965332L88.162 0.965333C98.717 0.965333 107.273 9.52185 107.273 20.0768V37.755Z" fill="white"/>
</g>
<defs>
<clipPath id="clip0_2086_25589">
<rect width="106.547" height="106.069" fill="white" transform="translate(0.726807 0.965332)"/>
</clipPath>
</defs>
</svg>
