<svg width="172" height="117" viewBox="0 0 172 117" fill="none" xmlns="http://www.w3.org/2000/svg">
<g clip-path="url(#clip0_2643_13705)">
<path fill-rule="evenodd" clip-rule="evenodd" d="M94.9917 61.4278C106.486 61.4278 115.804 52.1097 115.804 40.6154V21.3639C115.804 9.86949 106.486 0.551454 94.9918 0.551453L75.7402 0.551453C64.2458 0.551452 54.9278 9.86949 54.9278 21.3639V44.7789C54.9278 50.5261 50.2688 55.1851 44.5216 55.1851H20.8535C9.35907 55.1851 0.041017 64.5031 0.0410165 75.9975L0.0410156 95.249C0.0410151 106.743 9.35905 116.061 20.8534 116.061H40.105C51.5993 116.061 60.9174 106.743 60.9174 95.249L60.9174 71.834C60.9174 66.0868 65.5764 61.4278 71.3236 61.4278L94.9917 61.4278ZM171.154 95.3975C171.154 106.809 161.903 116.06 150.491 116.06H130.941C119.529 116.06 110.278 106.809 110.278 95.3975V75.8468C110.278 64.4351 119.529 55.184 130.941 55.184H150.491C161.903 55.184 171.154 64.4351 171.154 75.8468V95.3975Z" fill="white"/>
</g>
<defs>
<clipPath id="clip0_2643_13705">
<rect width="171.279" height="116.616" fill="white"/>
</clipPath>
</defs>
</svg>
