<svg width="1080" height="623" viewBox="0 0 1080 623" fill="none" xmlns="http://www.w3.org/2000/svg">
<rect width="706" height="540" rx="40" transform="matrix(0.866044 0.499967 -0.866044 0.499967 467.838 0)" fill="white"/>
<rect y="-0.499967" width="677" height="248.5" rx="30.5" transform="matrix(0.866044 0.499967 -0.866044 0.499967 467.405 14.75)" fill="white"/>
<rect y="-0.499967" width="677" height="248.5" rx="30.5" transform="matrix(0.866044 0.499967 -0.866044 0.499967 467.405 14.75)" stroke="#0A0A0A"/>
<path d="M447.33 141.905L473.145 127.002L463.46 121.411L466.744 119.515L489.898 132.882L486.614 134.778L476.928 129.186L451.113 144.089L447.33 141.905ZM459.449 148.901L480.234 136.902L483.975 139.062L478.488 142.23L479.278 141.63C480.026 141.166 481.037 140.886 482.312 140.79C483.642 140.694 485.056 140.79 486.552 141.078C488.104 141.366 489.545 141.846 490.876 142.518C491.042 142.582 491.222 142.67 491.416 142.782C491.638 142.91 491.846 143.03 492.04 143.142C492.095 143.174 492.137 143.198 492.164 143.214C492.22 143.246 492.275 143.278 492.331 143.31L488.714 145.302C488.575 145.19 488.271 144.998 487.799 144.726C486.331 143.878 484.903 143.294 483.518 142.974C482.132 142.654 480.566 142.662 478.82 142.998C477.102 143.35 475.176 144.142 473.042 145.374L463.19 151.061L459.449 148.901ZM478.4 160.418C476.488 159.314 475.352 158.066 474.991 156.674C474.686 155.282 475.49 154.034 477.402 152.93C478.788 152.131 480.243 151.675 481.767 151.563C483.347 151.451 484.843 151.563 486.257 151.899C487.726 152.235 489.25 152.714 490.83 153.338L499.019 156.53C499.074 156.498 499.13 156.466 499.185 156.434C499.268 156.386 499.338 156.346 499.393 156.314C500.252 155.818 500.876 155.394 501.264 155.042C501.707 154.69 501.984 154.322 502.095 153.938C502.206 153.522 502.053 153.05 501.638 152.522C501.222 151.995 500.571 151.475 499.684 150.963C497.883 149.923 496.22 149.379 494.696 149.331C493.227 149.283 491.703 149.715 490.123 150.627L486.964 148.227C488.238 147.523 489.541 147.043 490.871 146.787C492.229 146.515 493.587 146.451 494.945 146.595C496.192 146.739 497.481 147.051 498.811 147.531C500.169 147.995 501.513 148.611 502.843 149.379C504.589 150.387 505.781 151.379 506.418 152.354C507.083 153.314 507.194 154.258 506.751 155.186C506.335 156.13 505.379 157.034 503.883 157.898L493.947 163.634C493.338 163.986 492.977 164.258 492.866 164.45C492.783 164.658 493.019 164.922 493.573 165.242C493.906 165.434 494.363 165.634 494.945 165.842L491.952 167.665C491.148 167.33 490.317 166.914 489.458 166.418C488.238 165.714 487.629 164.994 487.629 164.258C487.629 163.522 488.252 162.794 489.499 162.074L490.539 162.002C488.515 162.626 486.479 162.81 484.428 162.554C482.432 162.298 480.423 161.586 478.4 160.418ZM481.975 159.026C484.137 160.274 486.215 160.914 488.211 160.946C490.261 160.978 492.09 160.53 493.698 159.602L498.021 157.106L498.354 158.93L488.585 155.306L488.211 155.186C486.742 154.658 485.467 154.37 484.386 154.322C483.333 154.258 482.294 154.522 481.268 155.114C480.326 155.658 479.938 156.298 480.104 157.034C480.298 157.754 480.922 158.418 481.975 159.026ZM494.947 169.394L515.732 157.395L519.473 159.555L514.485 162.435L514.734 161.811C516.757 161.155 518.725 160.915 520.637 161.091C522.605 161.267 524.517 161.891 526.374 162.963C527.732 163.747 528.715 164.539 529.325 165.339C529.99 166.139 530.295 166.986 530.24 167.882C530.184 168.714 529.713 169.498 528.826 170.234C527.967 170.954 526.775 171.754 525.251 172.634L512.905 179.762L509.039 177.53L521.177 170.522C521.205 170.506 521.233 170.49 521.26 170.474C521.288 170.458 521.316 170.442 521.344 170.426C522.535 169.738 523.408 169.154 523.963 168.674C524.517 168.194 524.78 167.642 524.752 167.018C524.752 166.411 524.531 165.899 524.087 165.483C523.644 165.067 523.034 164.635 522.258 164.187C520.9 163.403 519.182 162.955 517.103 162.843C515.08 162.731 512.766 163.427 510.161 164.931L498.688 171.554L494.947 169.394ZM524.652 187.119C522.13 185.664 520.634 184.096 520.163 182.416C519.692 180.736 520.689 179.2 523.156 177.808L526.897 179.584C525.428 180.4 524.749 181.336 524.86 182.392C524.999 183.432 525.886 184.424 527.521 185.368C529.211 186.343 530.763 186.919 532.177 187.095C533.618 187.255 534.892 187.015 536.001 186.375C536.583 186.039 536.832 185.624 536.749 185.128C536.694 184.648 536.417 184.152 535.918 183.64C535.474 183.128 534.837 182.488 534.006 181.72C533.784 181.528 533.562 181.336 533.341 181.144C533.147 180.936 532.939 180.736 532.717 180.544C531.636 179.504 530.832 178.608 530.306 177.856C529.835 177.104 529.682 176.328 529.849 175.528C530.015 174.728 530.735 173.96 532.01 173.224C533.368 172.44 534.865 171.992 536.5 171.88C538.163 171.784 539.784 171.952 541.364 172.384C542.999 172.816 544.467 173.408 545.77 174.16C548.181 175.552 549.636 177.016 550.135 178.552C550.634 180.088 549.802 181.608 547.641 183.112L543.608 181.408C545.022 180.56 545.645 179.656 545.479 178.696C545.313 177.736 544.412 176.784 542.777 175.84C541.668 175.2 540.435 174.792 539.077 174.616C537.747 174.424 536.638 174.584 535.752 175.096C534.948 175.56 534.74 176.128 535.128 176.8C535.516 177.472 536.278 178.344 537.414 179.416C537.442 179.464 537.498 179.512 537.581 179.56C537.664 179.608 537.719 179.656 537.747 179.704C537.802 179.768 537.844 179.824 537.872 179.872C537.955 179.92 538.038 179.968 538.121 180.016C539.534 181.248 540.574 182.28 541.239 183.112C541.932 183.928 542.223 184.784 542.112 185.68C542.001 186.575 541.211 187.447 539.742 188.295C537.414 189.639 534.92 190.135 532.26 189.783C529.627 189.415 527.091 188.527 524.652 187.119ZM542.831 197.614C540.919 196.51 539.783 195.262 539.422 193.87C539.118 192.478 539.921 191.23 541.833 190.127C543.219 189.327 544.674 188.871 546.198 188.759C547.778 188.647 549.275 188.759 550.688 189.095C552.157 189.431 553.681 189.911 555.261 190.535L563.45 193.726C563.505 193.694 563.561 193.662 563.616 193.63C563.699 193.582 563.769 193.542 563.824 193.51C564.683 193.014 565.307 192.59 565.695 192.238C566.138 191.886 566.415 191.518 566.526 191.134C566.637 190.718 566.485 190.247 566.069 189.719C565.653 189.191 565.002 188.671 564.115 188.159C562.314 187.119 560.651 186.575 559.127 186.527C557.658 186.479 556.134 186.911 554.554 187.823L551.395 185.423C552.669 184.719 553.972 184.239 555.302 183.983C556.66 183.711 558.018 183.647 559.376 183.791C560.623 183.935 561.912 184.247 563.242 184.727C564.6 185.191 565.944 185.807 567.274 186.575C569.02 187.583 570.212 188.575 570.849 189.551C571.515 190.511 571.625 191.454 571.182 192.382C570.766 193.326 569.81 194.23 568.314 195.094L558.378 200.83C557.769 201.182 557.408 201.454 557.298 201.646C557.214 201.854 557.45 202.118 558.004 202.438C558.337 202.63 558.794 202.83 559.376 203.038L556.383 204.862C555.579 204.526 554.748 204.11 553.889 203.614C552.669 202.91 552.06 202.19 552.06 201.454C552.06 200.718 552.683 199.99 553.93 199.27L554.97 199.198C552.947 199.822 550.91 200.006 548.859 199.75C546.863 199.494 544.854 198.782 542.831 197.614ZM546.406 196.222C548.568 197.47 550.646 198.11 552.642 198.142C554.693 198.174 556.522 197.726 558.129 196.798L562.452 194.302L562.785 196.126L553.016 192.502L552.642 192.382C551.173 191.854 549.898 191.566 548.817 191.518C547.764 191.454 546.725 191.718 545.7 192.31C544.757 192.854 544.369 193.494 544.536 194.23C544.73 194.95 545.353 195.614 546.406 196.222ZM567.941 212.11C565.835 210.894 564.435 209.59 563.743 208.198C563.077 206.79 563.147 205.374 563.95 203.951C564.754 202.527 566.278 201.167 568.523 199.871C570.657 198.639 572.957 197.791 575.424 197.327C577.918 196.847 580.398 196.791 582.865 197.159C585.359 197.543 587.645 198.335 589.724 199.535C592.246 200.991 593.618 202.551 593.839 204.215C594.089 205.862 593.382 207.422 591.719 208.894L587.562 207.262C588.615 206.206 589.156 205.19 589.183 204.215C589.239 203.223 588.421 202.239 586.731 201.263C585.567 200.591 584.431 200.127 583.322 199.871C582.214 199.615 581.091 199.527 579.955 199.607C578.791 199.703 577.599 199.975 576.38 200.423C575.188 200.887 573.941 201.495 572.639 202.247C570.061 203.735 568.537 205.126 568.066 206.422C567.622 207.702 568.579 209.022 570.934 210.382C572.542 211.31 574.121 211.838 575.673 211.966C577.225 212.094 578.943 211.838 580.828 211.198L583.987 213.454C582.352 214.11 580.578 214.494 578.666 214.606C576.809 214.718 574.953 214.558 573.096 214.126C571.267 213.71 569.549 213.038 567.941 212.11ZM587.49 223.059C585.55 221.939 584.524 220.899 584.413 219.94C584.302 218.98 585.092 218.012 586.783 217.036L599.794 209.524L596.801 207.796L599.919 205.996L602.912 207.724L608.69 204.389L612.39 206.524L606.612 209.86L610.852 212.308L607.734 214.108L603.494 211.66L590.607 219.1C589.942 219.484 589.651 219.828 589.734 220.132C589.873 220.435 590.344 220.819 591.148 221.283C591.674 221.587 592.381 221.915 593.268 222.267L589.984 224.259C589.097 223.907 588.265 223.507 587.49 223.059ZM617.904 211.867L622.31 209.324L626.052 211.483L621.645 214.027L617.904 211.867ZM593.211 226.122L613.996 214.123L617.738 216.283L596.953 228.282L593.211 226.122ZM593.211 226.122L596.371 224.299L600.112 226.458L596.953 228.282L593.211 226.122ZM610.837 215.947L613.996 214.123L617.738 216.283L614.578 218.107L610.837 215.947ZM610.574 236.722C608.44 235.49 607.013 234.17 606.293 232.762C605.627 231.354 605.697 229.939 606.5 228.515C607.304 227.091 608.828 225.731 611.073 224.435C613.179 223.219 615.466 222.379 617.932 221.915C620.454 221.451 622.948 221.403 625.415 221.771C627.937 222.139 630.251 222.931 632.357 224.147C634.435 225.347 635.78 226.667 636.389 228.107C637.054 229.547 636.971 230.986 636.14 232.426C635.336 233.882 633.895 235.21 631.817 236.41C629.655 237.658 627.313 238.514 624.791 238.978C622.297 239.426 619.803 239.458 617.309 239.074C614.87 238.69 612.625 237.906 610.574 236.722ZM613.526 235.018C615.577 236.202 617.697 236.754 619.886 236.674C621.133 236.626 622.408 236.386 623.71 235.954C625.041 235.506 626.399 234.882 627.784 234.082C630.666 232.418 632.163 230.882 632.274 229.475C632.357 228.211 631.401 227.003 629.406 225.851C628.38 225.259 627.355 224.827 626.329 224.555C625.332 224.267 624.32 224.131 623.295 224.147C621.992 224.163 620.648 224.395 619.262 224.843C617.932 225.291 616.546 225.931 615.105 226.763C613.664 227.595 612.542 228.403 611.738 229.187C610.99 229.971 610.602 230.739 610.574 231.49C610.519 232.674 611.503 233.85 613.526 235.018ZM625.177 244.577L645.962 232.577L649.704 234.737L644.715 237.617L644.965 236.993C646.988 236.337 648.955 236.097 650.868 236.273C652.835 236.449 654.748 237.073 656.604 238.145C657.962 238.929 658.946 239.721 659.556 240.521C660.221 241.321 660.526 242.169 660.47 243.065C660.415 243.897 659.944 244.681 659.057 245.416C658.198 246.136 657.006 246.936 655.482 247.816L643.136 254.944L639.27 252.712L651.408 245.704C651.436 245.688 651.464 245.672 651.491 245.656C651.519 245.64 651.547 245.624 651.574 245.608C652.766 244.921 653.639 244.337 654.193 243.857C654.748 243.377 655.011 242.825 654.983 242.201C654.983 241.593 654.761 241.081 654.318 240.665C653.875 240.249 653.265 239.817 652.489 239.369C651.131 238.585 649.413 238.137 647.334 238.025C645.311 237.913 642.997 238.609 640.392 240.113L628.919 246.736L625.177 244.577ZM653.303 261.39C651.391 260.286 650.255 259.038 649.895 257.646C649.59 256.254 650.394 255.006 652.306 253.902C653.691 253.102 655.146 252.646 656.671 252.534C658.25 252.422 659.747 252.534 661.16 252.87C662.629 253.206 664.153 253.686 665.733 254.31L673.922 257.502C673.978 257.47 674.033 257.438 674.089 257.406C674.172 257.358 674.241 257.318 674.296 257.286C675.156 256.79 675.779 256.366 676.167 256.014C676.61 255.662 676.888 255.294 676.998 254.91C677.109 254.494 676.957 254.022 676.541 253.494C676.125 252.966 675.474 252.446 674.587 251.934C672.786 250.894 671.123 250.35 669.599 250.302C668.13 250.254 666.606 250.686 665.026 251.598L661.867 249.198C663.142 248.495 664.444 248.015 665.775 247.759C667.132 247.487 668.49 247.423 669.848 247.567C671.095 247.711 672.384 248.023 673.714 248.503C675.072 248.967 676.416 249.582 677.747 250.35C679.493 251.358 680.684 252.35 681.322 253.326C681.987 254.286 682.098 255.23 681.654 256.158C681.239 257.102 680.282 258.006 678.786 258.87L668.851 264.605C668.241 264.957 667.881 265.229 667.77 265.421C667.687 265.629 667.922 265.893 668.477 266.213C668.809 266.405 669.266 266.605 669.848 266.813L666.855 268.637C666.052 268.301 665.22 267.885 664.361 267.389C663.142 266.685 662.532 265.965 662.532 265.229C662.532 264.494 663.156 263.766 664.403 263.046L665.442 262.974C663.419 263.598 661.382 263.782 659.331 263.526C657.336 263.27 655.327 262.558 653.303 261.39ZM656.879 259.998C659.04 261.246 661.119 261.886 663.114 261.918C665.165 261.95 666.994 261.502 668.601 260.574L672.925 258.078L673.257 259.902L663.488 256.278L663.114 256.158C661.645 255.63 660.37 255.342 659.29 255.294C658.236 255.23 657.197 255.494 656.172 256.086C655.23 256.63 654.842 257.27 655.008 258.006C655.202 258.726 655.825 259.39 656.879 259.998ZM669.85 270.366L698.949 253.567L702.69 255.727L673.591 272.526L669.85 270.366ZM669.85 270.366L673.009 268.542L676.751 270.702L673.591 272.526L669.85 270.366ZM695.79 255.391L698.949 253.567L700.944 254.719L697.785 256.543L695.79 255.391ZM688.071 280.885L717.17 264.086L727.313 269.942C729.419 271.157 731.054 272.309 732.218 273.397C733.438 274.485 733.978 275.661 733.839 276.925C733.729 278.205 732.523 279.509 730.223 280.837C728.615 281.765 726.786 282.325 724.736 282.517C722.712 282.693 720.717 282.517 718.749 281.989L719.373 281.293C720.953 282.845 721.659 284.229 721.493 285.445C721.355 286.676 720.274 287.876 718.251 289.044C715.895 290.404 713.581 291.1 711.308 291.132C709.036 291.164 706.916 290.804 704.948 290.052C702.981 289.3 700.833 288.252 698.505 286.908L688.071 280.885ZM701.706 285.061C703.535 286.117 705.045 286.908 706.237 287.436C707.456 287.948 708.773 288.212 710.186 288.228C711.627 288.228 713.096 287.796 714.592 286.932C716.2 286.005 716.976 285.093 716.92 284.197C716.865 283.301 716.394 282.501 715.507 281.797C714.648 281.077 713.456 280.277 711.932 279.397L705.031 275.413L695.013 281.197L701.706 285.061ZM714.343 277.045C715.95 277.973 717.336 278.677 718.5 279.157C719.692 279.653 720.967 279.909 722.324 279.925C723.71 279.957 725.124 279.557 726.565 278.725C728.033 277.877 728.74 277.053 728.685 276.253C728.685 275.453 728.255 274.709 727.396 274.021C726.565 273.349 725.359 272.557 723.779 271.645L717.669 268.118L708.274 273.541L714.343 277.045ZM719.671 299.704C717.759 298.6 716.623 297.352 716.263 295.96C715.958 294.568 716.762 293.32 718.674 292.216C720.059 291.416 721.514 290.961 723.039 290.849C724.618 290.737 726.115 290.849 727.528 291.185C728.997 291.52 730.521 292 732.101 292.624L740.29 295.816C740.346 295.784 740.401 295.752 740.457 295.72C740.54 295.672 740.609 295.632 740.664 295.6C741.524 295.104 742.147 294.68 742.535 294.328C742.978 293.976 743.256 293.608 743.366 293.224C743.477 292.808 743.325 292.336 742.909 291.808C742.493 291.28 741.842 290.761 740.955 290.249C739.154 289.209 737.491 288.665 735.967 288.617C734.498 288.569 732.974 289.001 731.394 289.913L728.235 287.513C729.51 286.809 730.812 286.329 732.143 286.073C733.5 285.801 734.858 285.737 736.216 285.881C737.463 286.025 738.752 286.337 740.082 286.817C741.44 287.281 742.784 287.897 744.115 288.665C745.861 289.673 747.052 290.665 747.69 291.64C748.355 292.6 748.466 293.544 748.022 294.472C747.607 295.416 746.65 296.32 745.154 297.184L735.219 302.92C734.609 303.272 734.249 303.544 734.138 303.736C734.055 303.944 734.29 304.208 734.845 304.528C735.177 304.72 735.634 304.92 736.216 305.128L733.223 306.951C732.42 306.615 731.588 306.2 730.729 305.704C729.51 305 728.9 304.28 728.9 303.544C728.9 302.808 729.524 302.08 730.771 301.36L731.81 301.288C729.787 301.912 727.75 302.096 725.699 301.84C723.704 301.584 721.695 300.872 719.671 299.704ZM723.247 298.312C725.408 299.56 727.487 300.2 729.482 300.232C731.533 300.264 733.362 299.816 734.969 298.888L739.293 296.392L739.625 298.216L729.856 294.592L729.482 294.472C728.013 293.944 726.738 293.656 725.658 293.608C724.604 293.544 723.565 293.808 722.54 294.4C721.598 294.944 721.21 295.584 721.376 296.32C721.57 297.04 722.193 297.704 723.247 298.312ZM744.781 314.2C742.675 312.984 741.276 311.68 740.583 310.288C739.918 308.88 739.987 307.464 740.791 306.04C741.594 304.617 743.119 303.257 745.363 301.961C747.497 300.729 749.798 299.881 752.264 299.417C754.758 298.937 757.239 298.881 759.705 299.249C762.199 299.633 764.486 300.425 766.564 301.625C769.086 303.081 770.458 304.641 770.68 306.304C770.929 307.952 770.222 309.512 768.56 310.984L764.403 309.352C765.456 308.296 765.996 307.28 766.024 306.304C766.079 305.313 765.262 304.329 763.571 303.353C762.407 302.681 761.271 302.217 760.162 301.961C759.054 301.705 757.931 301.617 756.795 301.697C755.631 301.793 754.44 302.065 753.22 302.513C752.029 302.977 750.781 303.585 749.479 304.337C746.902 305.824 745.377 307.216 744.906 308.512C744.463 309.792 745.419 311.112 747.775 312.472C749.382 313.4 750.962 313.928 752.514 314.056C754.065 314.184 755.784 313.928 757.668 313.288L760.828 315.544C759.192 316.2 757.419 316.584 755.507 316.696C753.65 316.808 751.793 316.648 749.936 316.216C748.107 315.8 746.389 315.128 744.781 314.2ZM757.803 321.141L786.902 304.343L790.644 306.502L761.545 323.301L757.803 321.141ZM768.528 318.694L772.81 316.27L791.018 316.318L796.089 319.246L778.796 318.862L776.842 318.838L768.528 318.694ZM771.314 328.941L775.346 318.31L780.417 318.406L775.678 331.461L771.314 328.941ZM785.307 337.596C783.7 336.668 782.522 335.7 781.774 334.692C781.026 333.684 780.721 332.628 780.859 331.524C780.97 330.468 781.469 329.444 782.356 328.452C783.27 327.444 784.559 326.46 786.222 325.5C787.774 324.604 789.423 323.908 791.169 323.413C792.942 322.901 794.744 322.613 796.573 322.549C798.513 322.485 800.37 322.661 802.143 323.077C803.917 323.493 805.552 324.132 807.049 324.996C808.739 325.972 809.945 327.084 810.665 328.332C811.413 329.564 811.538 330.804 811.039 332.052C810.679 332.996 809.945 333.964 808.836 334.956C807.755 335.932 806.439 336.82 804.887 337.62L789.132 328.524C786.887 329.884 785.695 331.164 785.557 332.364C785.418 333.564 786.319 334.724 788.259 335.844C790.033 336.868 791.779 337.444 793.497 337.572C795.243 337.684 797.03 337.356 798.859 336.588L802.185 338.844C799.33 339.979 796.462 340.435 793.58 340.211C790.725 340.003 787.968 339.131 785.307 337.596ZM792.083 326.868L791.668 326.484L804.347 333.804L803.972 333.732C804.554 333.396 805.095 332.956 805.594 332.412C806.148 331.868 806.508 331.356 806.674 330.876C806.924 330.124 806.827 329.412 806.383 328.74C805.968 328.084 805.192 327.428 804.056 326.772C802.919 326.116 801.714 325.66 800.439 325.404C799.192 325.132 798.014 325.076 796.905 325.236C795.298 325.46 793.788 325.948 792.374 326.7L792.083 326.868ZM799.35 345.126L820.135 333.127L823.876 335.287L818.888 338.167L819.137 337.543C821.16 336.887 823.128 336.647 825.04 336.823C827.008 336.999 828.92 337.623 830.777 338.695C832.135 339.479 833.119 340.271 833.729 341.071C834.394 341.871 834.698 342.719 834.643 343.615C834.588 344.446 834.117 345.23 833.23 345.966C832.371 346.686 831.179 347.486 829.655 348.366L817.308 355.494L813.442 353.262L825.581 346.254C825.608 346.238 825.636 346.222 825.664 346.206C825.692 346.19 825.719 346.174 825.747 346.158C826.939 345.47 827.812 344.886 828.366 344.406C828.92 343.926 829.184 343.375 829.156 342.751C829.156 342.143 828.934 341.631 828.491 341.215C828.047 340.799 827.438 340.367 826.662 339.919C825.304 339.135 823.585 338.687 821.507 338.575C819.484 338.463 817.17 339.159 814.565 340.663L803.091 347.286L799.35 345.126ZM829.929 363.355C828.072 362.284 826.853 361.084 826.271 359.756C825.716 358.412 825.841 357.028 826.645 355.604C827.504 354.18 829.042 352.828 831.259 351.548C833.421 350.3 835.707 349.428 838.118 348.932C840.585 348.436 842.968 348.34 845.268 348.644C847.624 348.948 849.73 349.636 851.587 350.708C853.277 351.684 854.386 352.724 854.912 353.828C855.439 354.932 855.356 356.132 854.663 357.428L853.291 357.452L866.095 350.06L869.836 352.22L840.737 369.019L836.996 366.859L841.818 364.075L841.859 364.819C839.559 365.283 837.384 365.387 835.333 365.131C833.338 364.875 831.536 364.283 829.929 363.355ZM833.545 362.036C834.404 362.532 835.291 362.9 836.206 363.139C837.148 363.395 838.118 363.523 839.116 363.523C840.391 363.523 841.735 363.307 843.148 362.876C844.561 362.444 846.003 361.804 847.471 360.956C849.827 359.596 851.324 358.252 851.961 356.924C852.598 355.596 851.767 354.268 849.467 352.94C848.414 352.332 847.361 351.9 846.307 351.644C845.282 351.372 844.229 351.26 843.148 351.308C841.929 351.372 840.668 351.62 839.365 352.052C838.09 352.5 836.76 353.124 835.374 353.924C833.656 354.916 832.395 355.852 831.592 356.732C830.788 357.612 830.511 358.492 830.76 359.372C831.037 360.236 831.966 361.124 833.545 362.036Z" fill="black"/>
<rect y="-0.167989" width="676.336" height="247.836" rx="14.168" transform="matrix(0.866044 0.499967 -0.866044 0.499967 240.355 146.158)" fill="black" fill-opacity="0.1"/>
<rect y="-0.167989" width="676.336" height="247.836" rx="14.168" transform="matrix(0.866044 0.499967 -0.866044 0.499967 240.355 146.158)" stroke="#F5F5F5" stroke-width="0.336"/>
<path d="M151.349 315.258L180.448 298.459L189.385 303.618C192.434 305.378 194.415 307.21 195.33 309.114C196.272 311.002 196.161 312.874 194.997 314.73C193.889 316.586 191.838 318.378 188.845 320.105C185.963 321.769 182.914 322.937 179.699 323.609C176.512 324.265 173.256 324.353 169.93 323.873C166.632 323.377 163.445 322.241 160.369 320.465L151.349 315.258ZM161.99 318.954C164.346 320.313 166.591 321.241 168.725 321.737C170.914 322.233 172.896 322.401 174.669 322.241C176.692 322.033 178.605 321.649 180.406 321.089C182.207 320.529 184.106 319.673 186.101 318.522C188.097 317.37 189.579 316.274 190.549 315.234C191.547 314.21 192.198 313.114 192.503 311.946C192.836 310.858 192.517 309.682 191.547 308.418C190.605 307.138 189.039 305.866 186.849 304.602L180.78 301.099L155.921 315.45L161.99 318.954ZM183.998 334.682C181.975 333.514 180.839 332.25 180.589 330.89C180.368 329.547 181.143 328.363 182.917 327.339C184.164 326.619 185.467 326.187 186.825 326.043C188.21 325.915 189.596 325.995 190.982 326.283C192.367 326.571 193.822 327.011 195.347 327.603L204.825 331.298C204.908 331.25 204.991 331.202 205.074 331.154C205.157 331.106 205.226 331.066 205.282 331.034C206.418 330.379 207.25 329.803 207.776 329.307C208.358 328.811 208.635 328.299 208.607 327.771C208.607 327.259 208.344 326.723 207.818 326.163C207.319 325.619 206.584 325.067 205.614 324.507C203.564 323.323 201.679 322.699 199.961 322.635C198.27 322.555 196.497 323.051 194.64 324.123L192.603 322.563C193.684 321.907 194.862 321.435 196.136 321.147C197.467 320.859 198.769 320.763 200.044 320.859C201.319 320.955 202.594 321.227 203.868 321.675C205.199 322.123 206.474 322.699 207.693 323.403C209.383 324.379 210.547 325.339 211.185 326.283C211.878 327.227 212.002 328.163 211.559 329.091C211.143 330.003 210.146 330.914 208.566 331.826L197.675 338.114C197.065 338.466 196.718 338.746 196.635 338.954C196.608 339.162 196.871 339.426 197.425 339.746C197.896 340.018 198.492 340.282 199.213 340.538L197.259 341.714C196.427 341.394 195.693 341.05 195.056 340.682C193.919 340.026 193.393 339.37 193.476 338.714C193.559 338.058 194.377 337.314 195.929 336.482L196.427 336.482C194.515 337.01 192.478 337.146 190.317 336.89C188.183 336.618 186.076 335.882 183.998 334.682ZM186.409 333.77C188.654 335.066 190.94 335.746 193.268 335.81C195.624 335.89 197.758 335.378 199.67 334.274L204.159 331.682L204.409 332.882L193.725 328.875L193.31 328.731C191.675 328.139 190.247 327.827 189.028 327.795C187.836 327.747 186.672 328.051 185.536 328.707C184.261 329.443 183.721 330.267 183.915 331.178C184.137 332.074 184.968 332.938 186.409 333.77ZM205.132 346.547C203.663 345.699 202.901 344.891 202.845 344.123C202.79 343.355 203.455 342.571 204.841 341.771L219.681 333.204L216.48 331.356L218.517 330.18L221.718 332.028L227.455 328.716L229.866 330.108L224.129 333.42L228.411 335.892L226.374 337.067L222.092 334.596L207.21 343.187C206.518 343.587 206.199 343.947 206.254 344.267C206.337 344.571 206.739 344.931 207.46 345.347C208.125 345.731 208.942 346.107 209.912 346.475L207.751 347.771C206.781 347.403 205.908 346.995 205.132 346.547ZM216.451 353.418C214.428 352.25 213.292 350.986 213.043 349.626C212.821 348.282 213.597 347.098 215.37 346.074C216.618 345.354 217.92 344.922 219.278 344.778C220.664 344.65 222.049 344.73 223.435 345.018C224.821 345.306 226.276 345.746 227.8 346.338L237.278 350.034C237.361 349.986 237.444 349.938 237.527 349.89C237.61 349.842 237.68 349.802 237.735 349.77C238.871 349.114 239.703 348.538 240.229 348.042C240.811 347.546 241.088 347.034 241.061 346.506C241.061 345.994 240.797 345.458 240.271 344.898C239.772 344.354 239.038 343.802 238.068 343.242C236.017 342.058 234.132 341.434 232.414 341.37C230.724 341.29 228.95 341.786 227.093 342.858L225.056 341.298C226.137 340.642 227.315 340.17 228.59 339.882C229.92 339.594 231.223 339.498 232.497 339.594C233.772 339.69 235.047 339.962 236.322 340.41C237.652 340.858 238.927 341.434 240.146 342.138C241.837 343.114 243.001 344.074 243.638 345.018C244.331 345.962 244.456 346.898 244.012 347.826C243.597 348.738 242.599 349.65 241.019 350.562L230.128 356.849C229.518 357.201 229.172 357.481 229.089 357.689C229.061 357.897 229.324 358.161 229.878 358.481C230.35 358.753 230.945 359.017 231.666 359.273L229.712 360.449C228.881 360.129 228.146 359.785 227.509 359.417C226.373 358.761 225.846 358.105 225.929 357.449C226.012 356.793 226.83 356.049 228.382 355.217L228.881 355.217C226.969 355.745 224.932 355.881 222.77 355.625C220.636 355.353 218.53 354.617 216.451 353.418ZM218.862 352.506C221.107 353.801 223.393 354.481 225.721 354.545C228.077 354.625 230.211 354.113 232.123 353.01L236.613 350.418L236.862 351.618L226.179 347.61L225.763 347.466C224.128 346.874 222.701 346.562 221.481 346.53C220.29 346.482 219.126 346.786 217.989 347.442C216.715 348.178 216.174 349.002 216.368 349.914C216.59 350.81 217.421 351.674 218.862 352.506ZM249.106 372.221C247.138 371.085 245.877 369.893 245.323 368.645C244.769 367.397 244.769 366.229 245.323 365.141C245.877 364.054 246.764 363.158 247.983 362.454C249.48 361.59 251.101 361.022 252.847 360.75C254.621 360.494 256.478 360.446 258.418 360.606C260.358 360.766 262.588 361.078 265.11 361.542L264.154 362.478C264.21 362.254 264.251 362.038 264.279 361.83C264.334 361.606 264.362 361.382 264.362 361.158C264.556 360.086 264.75 359.222 264.944 358.566C265.138 357.91 265.457 357.294 265.9 356.718C266.371 356.158 267.023 355.638 267.854 355.158C268.907 354.55 270.154 354.15 271.595 353.958C273.092 353.766 274.602 353.806 276.126 354.078C277.678 354.366 279.092 354.878 280.367 355.614C281.586 356.318 282.431 357.094 282.902 357.942C283.401 358.806 283.484 359.654 283.152 360.486C282.819 361.318 282.057 362.078 280.865 362.766C279.729 363.422 278.399 363.854 276.875 364.062C275.35 364.27 273.715 364.318 271.969 364.206C270.224 364.094 268.325 363.862 266.274 363.51L267.272 362.598L265.817 372.701L264.986 372.269C266.177 372.061 267.549 371.701 269.101 371.189C270.653 370.677 272.094 370.069 273.424 369.365L275.337 370.901C273.674 371.701 272.053 372.349 270.473 372.845C268.921 373.325 267.258 373.741 265.485 374.093C265.401 374.109 265.318 374.125 265.235 374.141C265.18 374.141 265.11 374.149 265.027 374.165L265.734 373.229L264.819 380.764L261.66 378.941L262.491 373.757L263.198 374.405C260.732 374.741 258.237 374.741 255.716 374.405C253.221 374.053 251.018 373.325 249.106 372.221ZM251.268 371.069C253.013 372.077 254.995 372.677 257.212 372.869C259.485 373.061 261.799 372.941 264.154 372.509L262.45 373.877L264.279 362.262L265.443 363.318L264.154 363.102C262.048 362.718 260.247 362.462 258.75 362.334C257.309 362.206 255.91 362.246 254.552 362.454C253.194 362.662 251.933 363.102 250.769 363.774C249.577 364.462 248.801 365.229 248.441 366.077C248.108 366.941 248.177 367.813 248.649 368.693C249.147 369.557 250.02 370.349 251.268 371.069ZM266.815 361.902C267.009 361.918 267.189 361.942 267.355 361.974C267.577 362.006 267.799 362.038 268.02 362.07C270.265 362.406 272.247 362.558 273.965 362.526C275.738 362.494 277.221 362.15 278.413 361.494C279.632 360.854 280.256 360.094 280.283 359.214C280.367 358.334 279.729 357.502 278.371 356.718C277.096 355.982 275.711 355.598 274.214 355.566C272.718 355.534 271.401 355.846 270.265 356.502C269.572 356.902 269.032 357.39 268.644 357.966C268.256 358.542 267.951 359.294 267.729 360.222C267.508 361.246 267.383 362.118 267.355 362.838L266.815 361.902ZM271.468 384.603L312.124 374.476L314.535 375.867L296.992 399.338L294.457 397.874L307.177 381.219C307.399 380.931 307.621 380.627 307.842 380.307C308.092 380.003 308.341 379.683 308.59 379.347C308.951 378.915 309.311 378.467 309.671 378.003C310.059 377.555 310.42 377.091 310.752 376.611L310.711 376.587C310.018 376.795 309.297 376.987 308.549 377.163C307.856 377.339 307.163 377.531 306.47 377.739C305.861 377.899 305.251 378.059 304.641 378.219C304.032 378.379 303.408 378.531 302.771 378.675L274.046 386.091L271.468 384.603ZM285.976 382.179L288.969 381.411L302.771 389.379L301.44 391.106L285.976 382.179ZM299.777 400.945L320.437 389.018L322.848 390.41L317.776 393.338L317.984 392.93C320.007 392.242 322.072 391.994 324.178 392.186C326.285 392.378 328.308 393.034 330.248 394.154C331.522 394.89 332.451 395.65 333.033 396.434C333.67 397.218 333.989 398.009 333.989 398.809C333.961 399.657 333.518 400.457 332.659 401.209C331.827 401.945 330.705 402.721 329.291 403.537L316.779 410.761L314.285 409.321L326.382 402.337C326.409 402.321 326.437 402.305 326.465 402.289C326.492 402.273 326.52 402.257 326.548 402.241C327.795 401.521 328.751 400.889 329.416 400.345C330.081 399.801 330.442 399.193 330.497 398.521C330.58 397.865 330.358 397.258 329.832 396.698C329.305 396.138 328.543 395.57 327.545 394.994C325.966 394.082 323.97 393.554 321.559 393.41C319.204 393.266 316.599 394.018 313.744 395.666L302.188 402.337L299.777 400.945ZM327.329 417.428C325.306 416.26 324.17 414.996 323.921 413.636C323.699 412.292 324.475 411.108 326.249 410.084C327.496 409.364 328.798 408.932 330.156 408.788C331.542 408.66 332.928 408.74 334.313 409.028C335.699 409.316 337.154 409.756 338.678 410.348L348.156 414.044C348.239 413.996 348.322 413.948 348.406 413.9C348.489 413.852 348.558 413.812 348.613 413.78C349.75 413.124 350.581 412.548 351.108 412.052C351.69 411.556 351.967 411.044 351.939 410.516C351.939 410.004 351.676 409.468 351.149 408.908C350.65 408.364 349.916 407.812 348.946 407.252C346.895 406.068 345.011 405.444 343.292 405.38C341.602 405.3 339.828 405.796 337.971 406.868L335.935 405.308C337.015 404.652 338.193 404.18 339.468 403.892C340.798 403.604 342.101 403.508 343.376 403.604C344.65 403.7 345.925 403.972 347.2 404.42C348.53 404.868 349.805 405.444 351.024 406.148C352.715 407.124 353.879 408.084 354.516 409.028C355.209 409.972 355.334 410.908 354.89 411.836C354.475 412.748 353.477 413.66 351.897 414.572L341.006 420.859C340.396 421.211 340.05 421.491 339.967 421.699C339.939 421.907 340.202 422.171 340.757 422.491C341.228 422.763 341.824 423.027 342.544 423.283L340.59 424.459C339.759 424.139 339.025 423.795 338.387 423.427C337.251 422.771 336.724 422.115 336.807 421.459C336.891 420.803 337.708 420.059 339.26 419.227L339.759 419.227C337.847 419.755 335.81 419.891 333.648 419.635C331.514 419.363 329.408 418.627 327.329 417.428ZM329.741 416.516C331.985 417.811 334.272 418.491 336.6 418.555C338.955 418.635 341.089 418.123 343.001 417.02L347.491 414.428L347.74 415.628L337.057 411.62L336.641 411.476C335.006 410.884 333.579 410.572 332.359 410.54C331.168 410.492 330.004 410.796 328.868 411.452C327.593 412.188 327.052 413.012 327.246 413.924C327.468 414.82 328.299 415.684 329.741 416.516ZM343.556 426.219L372.655 409.42L375.066 410.812L345.967 427.611L343.556 426.219ZM343.556 426.219L345.593 425.043L348.004 426.435L345.967 427.611L343.556 426.219ZM370.618 410.596L372.655 409.42L373.985 410.188L371.949 411.364L370.618 410.596ZM345.14 436.973C344.669 436.701 344.239 436.405 343.851 436.085C343.491 435.781 343.145 435.453 342.812 435.101L345.182 433.829C345.431 434.133 345.722 434.429 346.055 434.717C346.387 435.037 346.747 435.309 347.135 435.533C347.662 435.837 348.23 436.005 348.84 436.037C349.477 436.085 350.295 436.013 351.292 435.821C352.262 435.645 353.731 435.293 355.699 434.765C356.087 434.669 356.489 434.565 356.904 434.453C357.292 434.357 357.708 434.245 358.151 434.117L355.99 435.317L369.625 417.414L372.202 418.902L363.181 430.205C362.96 430.493 362.71 430.781 362.433 431.069C362.212 431.357 361.976 431.669 361.727 432.005C361.422 432.341 361.117 432.693 360.812 433.061C360.535 433.413 360.258 433.765 359.981 434.117L359.399 433.973C360.175 433.749 360.881 433.533 361.519 433.325C362.212 433.117 362.863 432.933 363.472 432.773C363.916 432.645 364.359 432.517 364.803 432.389C365.302 432.261 365.8 432.133 366.299 432.005L385.712 426.702L388.248 428.166L355.782 436.781C353.87 437.277 352.29 437.613 351.043 437.789C349.824 437.981 348.743 438.013 347.801 437.885C346.886 437.773 345.999 437.469 345.14 436.973ZM375.517 444.91C374.049 444.062 373.286 443.255 373.231 442.487C373.176 441.719 373.841 440.935 375.226 440.135L390.067 431.567L386.866 429.719L388.903 428.543L392.104 430.391L397.841 427.08L400.252 428.471L394.515 431.783L398.797 434.255L396.76 435.431L392.478 432.959L377.596 441.551C376.903 441.951 376.584 442.311 376.64 442.631C376.723 442.935 377.125 443.295 377.845 443.71C378.51 444.094 379.328 444.47 380.298 444.838L378.136 446.134C377.166 445.766 376.293 445.358 375.517 444.91ZM406.79 433.686L410.573 431.502L412.984 432.894L409.202 435.078L406.79 433.686ZM381.641 448.205L402.301 436.278L404.712 437.67L384.052 449.597L381.641 448.205ZM381.641 448.205L383.677 447.029L386.089 448.421L384.052 449.597L381.641 448.205ZM400.264 437.454L402.301 436.278L404.712 437.67L402.675 438.846L400.264 437.454ZM397.774 458.047C395.64 456.815 394.268 455.511 393.659 454.135C393.077 452.775 393.215 451.416 394.074 450.056C394.961 448.68 396.485 447.368 398.647 446.12C400.725 444.92 402.97 444.072 405.381 443.576C407.82 443.096 410.245 443.024 412.656 443.36C415.095 443.68 417.326 444.424 419.349 445.592C421.76 446.984 423.062 448.472 423.256 450.056C423.478 451.624 422.758 453.159 421.095 454.663L418.31 453.583C419.64 452.367 420.277 451.2 420.222 450.08C420.166 448.96 419.183 447.848 417.27 446.744C415.968 445.992 414.624 445.472 413.238 445.184C411.908 444.896 410.55 444.816 409.164 444.944C407.889 445.04 406.573 445.32 405.215 445.784C403.885 446.264 402.568 446.88 401.266 447.632C398.495 449.232 396.915 450.8 396.527 452.335C396.139 453.871 397.234 455.383 399.811 456.871C401.668 457.943 403.538 458.559 405.423 458.719C407.307 458.879 409.33 458.559 411.492 457.759L413.529 459.223C411.866 459.863 410.12 460.247 408.291 460.375C406.49 460.519 404.675 460.399 402.846 460.015C401.044 459.615 399.354 458.959 397.774 458.047ZM417.825 469.623C415.22 468.119 413.737 466.543 413.377 464.895C413.072 463.247 414.084 461.767 416.412 460.455L418.906 461.655C417.132 462.647 416.37 463.759 416.62 464.991C416.897 466.239 417.991 467.415 419.904 468.519C421.733 469.575 423.492 470.191 425.183 470.367C426.901 470.559 428.412 470.279 429.714 469.527C430.573 469.031 430.989 468.471 430.961 467.847C430.934 467.223 430.629 466.599 430.047 465.975C429.492 465.367 428.661 464.583 427.552 463.623C427.414 463.479 427.275 463.351 427.137 463.239C426.998 463.127 426.86 462.999 426.721 462.855C425.529 461.783 424.67 460.855 424.144 460.071C423.617 459.287 423.437 458.527 423.603 457.791C423.797 457.071 424.449 456.391 425.557 455.752C426.693 455.096 428.01 454.704 429.506 454.576C431.031 454.432 432.569 454.552 434.121 454.936C435.728 455.32 437.252 455.927 438.693 456.759C440.993 458.087 442.324 459.495 442.684 460.983C443.072 462.455 442.31 463.887 440.398 465.279L437.737 464.175C439.206 463.167 439.857 462.119 439.691 461.031C439.552 459.927 438.569 458.847 436.739 457.791C435.271 456.943 433.746 456.431 432.167 456.255C430.587 456.079 429.243 456.311 428.134 456.951C427.081 457.559 426.693 458.247 426.97 459.015C427.303 459.783 428.19 460.823 429.631 462.135C429.714 462.215 429.811 462.287 429.922 462.351C430.033 462.415 430.116 462.479 430.171 462.543C430.199 462.591 430.241 462.647 430.296 462.711C430.379 462.759 430.449 462.799 430.504 462.831C431.834 463.983 432.818 464.967 433.455 465.783C434.148 466.599 434.425 467.431 434.287 468.279C434.204 469.127 433.497 469.935 432.167 470.703C430.144 471.87 427.843 472.334 425.266 472.094C422.744 471.854 420.264 471.031 417.825 469.623ZM450.151 488.333C447.962 487.069 446.327 485.709 445.246 484.253C444.193 482.781 443.874 481.301 444.29 479.813C444.733 478.341 446.05 476.973 448.239 475.709L451.149 477.053C448.461 478.605 447.283 480.293 447.616 482.117C447.976 483.925 449.514 485.613 452.23 487.181C453.976 488.189 455.722 488.925 457.468 489.389C459.241 489.836 460.96 489.996 462.622 489.868C464.341 489.74 465.893 489.277 467.278 488.477C468.581 487.725 469.232 486.933 469.232 486.101C469.26 485.285 468.872 484.469 468.068 483.653C467.32 482.837 466.128 481.749 464.493 480.389C464.299 480.213 464.077 480.037 463.828 479.861C463.606 479.669 463.412 479.477 463.246 479.285C461.555 477.861 460.308 476.581 459.505 475.445C458.701 474.309 458.382 473.198 458.549 472.11C458.743 471.038 459.643 470.038 461.251 469.11C462.969 468.118 464.867 467.55 466.946 467.406C469.08 467.262 471.186 467.454 473.264 467.982C475.398 468.51 477.352 469.286 479.126 470.31C482.313 472.15 484.17 474.07 484.696 476.069C485.25 478.053 484.059 480.069 481.121 482.117L478.128 480.917C480.595 479.429 481.675 477.861 481.371 476.213C481.093 474.549 479.652 472.966 477.047 471.462C475.772 470.726 474.345 470.158 472.766 469.758C471.214 469.342 469.648 469.174 468.068 469.254C466.516 469.35 465.117 469.758 463.87 470.478C462.65 471.182 462.068 471.982 462.124 472.878C462.179 473.774 462.636 474.709 463.495 475.685C464.382 476.645 465.657 477.797 467.32 479.141C467.32 479.173 467.334 479.197 467.361 479.213C467.417 479.245 467.472 479.277 467.528 479.309C469.468 480.877 470.895 482.213 471.809 483.317C472.724 484.421 473.07 485.517 472.849 486.605C472.682 487.693 471.699 488.757 469.897 489.796C468.04 490.868 465.99 491.508 463.745 491.716C461.5 491.924 459.228 491.732 456.927 491.14C454.627 490.548 452.368 489.613 450.151 488.333ZM471.01 500.038C469.541 499.19 468.779 498.382 468.723 497.614C468.668 496.846 469.333 496.062 470.719 495.262L485.559 486.695L482.358 484.847L484.395 483.671L487.596 485.519L493.333 482.207L495.744 483.599L490.007 486.911L494.289 489.383L492.252 490.559L487.97 488.087L473.088 496.678C472.395 497.078 472.077 497.438 472.132 497.758C472.215 498.062 472.617 498.422 473.338 498.838C474.003 499.222 474.82 499.598 475.79 499.966L473.629 501.262C472.659 500.894 471.786 500.486 471.01 500.038ZM482.329 506.909C480.306 505.741 479.17 504.477 478.921 503.117C478.699 501.773 479.475 500.589 481.248 499.565C482.496 498.845 483.798 498.413 485.156 498.269C486.542 498.141 487.927 498.221 489.313 498.509C490.699 498.797 492.154 499.237 493.678 499.829L503.156 503.525C503.239 503.477 503.322 503.429 503.405 503.381C503.488 503.333 503.558 503.293 503.613 503.261C504.749 502.605 505.581 502.029 506.107 501.533C506.689 501.037 506.966 500.525 506.939 499.997C506.939 499.485 506.675 498.949 506.149 498.389C505.65 497.845 504.916 497.293 503.946 496.734C501.895 495.55 500.01 494.926 498.292 494.862C496.602 494.782 494.828 495.278 492.971 496.35L490.934 494.79C492.015 494.134 493.193 493.662 494.468 493.374C495.798 493.086 497.101 492.99 498.375 493.086C499.65 493.182 500.925 493.454 502.2 493.902C503.53 494.35 504.805 494.926 506.024 495.63C507.715 496.606 508.879 497.565 509.516 498.509C510.209 499.453 510.334 500.389 509.89 501.317C509.475 502.229 508.477 503.141 506.897 504.053L496.006 510.341C495.396 510.693 495.05 510.973 494.967 511.181C494.939 511.389 495.202 511.653 495.756 511.973C496.228 512.245 496.823 512.509 497.544 512.764L495.59 513.94C494.759 513.62 494.024 513.276 493.387 512.908C492.251 512.253 491.724 511.597 491.807 510.941C491.89 510.285 492.708 509.541 494.26 508.709L494.759 508.709C492.846 509.237 490.81 509.373 488.648 509.117C486.514 508.845 484.408 508.109 482.329 506.909ZM484.74 505.997C486.985 507.293 489.271 507.973 491.599 508.037C493.955 508.117 496.089 507.605 498.001 506.501L502.491 503.909L502.74 505.109L492.057 501.101L491.641 500.957C490.006 500.365 488.579 500.053 487.359 500.021C486.168 499.973 485.004 500.277 483.867 500.933C482.593 501.669 482.052 502.493 482.246 503.405C482.468 504.301 483.299 505.165 484.74 505.997ZM506.704 520.932C504.57 519.7 503.198 518.396 502.588 517.02C502.006 515.661 502.145 514.301 503.004 512.941C503.891 511.565 505.415 510.253 507.577 509.005C509.655 507.805 511.9 506.957 514.311 506.461C516.75 505.981 519.175 505.909 521.586 506.245C524.025 506.565 526.255 507.309 528.279 508.477C530.69 509.869 531.992 511.357 532.186 512.941C532.408 514.509 531.687 516.045 530.024 517.548L527.239 516.469C528.57 515.253 529.207 514.085 529.152 512.965C529.096 511.845 528.112 510.733 526.2 509.629C524.898 508.877 523.553 508.357 522.168 508.069C520.837 507.781 519.48 507.701 518.094 507.829C516.819 507.925 515.503 508.205 514.145 508.669C512.814 509.149 511.498 509.765 510.196 510.517C507.424 512.117 505.845 513.685 505.457 515.221C505.069 516.756 506.163 518.268 508.741 519.756C510.597 520.828 512.468 521.444 514.353 521.604C516.237 521.764 518.26 521.444 520.422 520.644L522.459 522.108C520.796 522.748 519.05 523.132 517.221 523.26C515.42 523.404 513.604 523.284 511.775 522.9C509.974 522.5 508.283 521.844 506.704 520.932ZM519.979 528.068L549.078 511.269L551.489 512.661L522.39 529.46L519.979 528.068ZM529.914 524.828L532.699 523.268L553.734 523.7L556.935 525.548L540.514 525.092H538.852L529.914 524.828ZM533.905 536.107L538.02 524.852L541.304 524.876L536.69 537.715L533.905 536.107Z" fill="black"/>
</svg>
