<svg width="1080" height="733" viewBox="0 0 1080 733" fill="none" xmlns="http://www.w3.org/2000/svg">
<rect width="706" height="540" rx="40" transform="matrix(0.866044 0.499967 -0.866044 0.499967 467.838 110)" fill="black"/>
<rect y="-0.499967" width="677" height="248.5" rx="30.5" transform="matrix(0.866044 0.499967 -0.866044 0.499967 467.405 124.75)" fill="black"/>
<rect y="-0.499967" width="677" height="248.5" rx="30.5" transform="matrix(0.866044 0.499967 -0.866044 0.499967 467.405 124.75)" stroke="#FAFAFA"/>
<path d="M447.33 251.905L473.145 237.002L463.46 231.411L466.744 229.515L489.898 242.882L486.614 244.778L476.928 239.186L451.113 254.089L447.33 251.905ZM459.449 258.901L480.234 246.902L483.975 249.062L478.488 252.23L479.278 251.63C480.026 251.166 481.037 250.886 482.312 250.79C483.642 250.694 485.056 250.79 486.552 251.078C488.104 251.366 489.545 251.846 490.876 252.518C491.042 252.582 491.222 252.67 491.416 252.782C491.638 252.91 491.846 253.03 492.04 253.142C492.095 253.174 492.137 253.198 492.164 253.214C492.22 253.246 492.275 253.278 492.331 253.31L488.714 255.302C488.575 255.19 488.271 254.998 487.799 254.726C486.331 253.878 484.903 253.294 483.518 252.974C482.132 252.654 480.566 252.662 478.82 252.998C477.102 253.35 475.176 254.142 473.042 255.374L463.19 261.061L459.449 258.901ZM478.4 270.418C476.488 269.314 475.352 268.066 474.991 266.674C474.686 265.282 475.49 264.034 477.402 262.93C478.788 262.131 480.243 261.675 481.767 261.563C483.347 261.451 484.843 261.563 486.257 261.899C487.726 262.235 489.25 262.714 490.83 263.338L499.019 266.53C499.074 266.498 499.13 266.466 499.185 266.434C499.268 266.386 499.338 266.346 499.393 266.314C500.252 265.818 500.876 265.394 501.264 265.042C501.707 264.69 501.984 264.322 502.095 263.938C502.206 263.522 502.053 263.05 501.638 262.522C501.222 261.995 500.571 261.475 499.684 260.963C497.883 259.923 496.22 259.379 494.696 259.331C493.227 259.283 491.703 259.715 490.123 260.627L486.964 258.227C488.238 257.523 489.541 257.043 490.871 256.787C492.229 256.515 493.587 256.451 494.945 256.595C496.192 256.739 497.481 257.051 498.811 257.531C500.169 257.995 501.513 258.611 502.843 259.379C504.589 260.387 505.781 261.379 506.418 262.354C507.083 263.314 507.194 264.258 506.751 265.186C506.335 266.13 505.379 267.034 503.883 267.898L493.947 273.634C493.338 273.986 492.977 274.258 492.866 274.45C492.783 274.658 493.019 274.922 493.573 275.242C493.906 275.434 494.363 275.634 494.945 275.842L491.952 277.665C491.148 277.33 490.317 276.914 489.458 276.418C488.238 275.714 487.629 274.994 487.629 274.258C487.629 273.522 488.252 272.794 489.499 272.074L490.539 272.002C488.515 272.626 486.479 272.81 484.428 272.554C482.432 272.298 480.423 271.586 478.4 270.418ZM481.975 269.026C484.137 270.274 486.215 270.914 488.211 270.946C490.261 270.978 492.09 270.53 493.698 269.602L498.021 267.106L498.354 268.93L488.585 265.306L488.211 265.186C486.742 264.658 485.467 264.37 484.386 264.322C483.333 264.258 482.294 264.522 481.268 265.114C480.326 265.658 479.938 266.298 480.104 267.034C480.298 267.754 480.922 268.418 481.975 269.026ZM494.947 279.394L515.732 267.395L519.473 269.555L514.485 272.435L514.734 271.811C516.757 271.155 518.725 270.915 520.637 271.091C522.605 271.267 524.517 271.891 526.374 272.963C527.732 273.747 528.715 274.539 529.325 275.339C529.99 276.139 530.295 276.986 530.24 277.882C530.184 278.714 529.713 279.498 528.826 280.234C527.967 280.954 526.775 281.754 525.251 282.634L512.905 289.762L509.039 287.53L521.177 280.522C521.205 280.506 521.233 280.49 521.26 280.474C521.288 280.458 521.316 280.442 521.344 280.426C522.535 279.738 523.408 279.154 523.963 278.674C524.517 278.194 524.78 277.642 524.752 277.018C524.752 276.411 524.531 275.899 524.087 275.483C523.644 275.067 523.034 274.635 522.258 274.187C520.9 273.403 519.182 272.955 517.103 272.843C515.08 272.731 512.766 273.427 510.161 274.931L498.688 281.554L494.947 279.394ZM524.652 297.119C522.13 295.664 520.634 294.096 520.163 292.416C519.692 290.736 520.689 289.2 523.156 287.808L526.897 289.584C525.428 290.4 524.749 291.336 524.86 292.392C524.999 293.432 525.886 294.424 527.521 295.368C529.211 296.343 530.763 296.919 532.177 297.095C533.618 297.255 534.892 297.015 536.001 296.375C536.583 296.039 536.832 295.624 536.749 295.128C536.694 294.648 536.417 294.152 535.918 293.64C535.474 293.128 534.837 292.488 534.006 291.72C533.784 291.528 533.562 291.336 533.341 291.144C533.147 290.936 532.939 290.736 532.717 290.544C531.636 289.504 530.832 288.608 530.306 287.856C529.835 287.104 529.682 286.328 529.849 285.528C530.015 284.728 530.735 283.96 532.01 283.224C533.368 282.44 534.865 281.992 536.5 281.88C538.163 281.784 539.784 281.952 541.364 282.384C542.999 282.816 544.467 283.408 545.77 284.16C548.181 285.552 549.636 287.016 550.135 288.552C550.634 290.088 549.802 291.608 547.641 293.112L543.608 291.408C545.022 290.56 545.645 289.656 545.479 288.696C545.313 287.736 544.412 286.784 542.777 285.84C541.668 285.2 540.435 284.792 539.077 284.616C537.747 284.424 536.638 284.584 535.752 285.096C534.948 285.56 534.74 286.128 535.128 286.8C535.516 287.472 536.278 288.344 537.414 289.416C537.442 289.464 537.498 289.512 537.581 289.56C537.664 289.608 537.719 289.656 537.747 289.704C537.802 289.768 537.844 289.824 537.872 289.872C537.955 289.92 538.038 289.968 538.121 290.016C539.534 291.248 540.574 292.28 541.239 293.112C541.932 293.928 542.223 294.784 542.112 295.68C542.001 296.575 541.211 297.447 539.742 298.295C537.414 299.639 534.92 300.135 532.26 299.783C529.627 299.415 527.091 298.527 524.652 297.119ZM542.831 307.614C540.919 306.51 539.783 305.262 539.422 303.87C539.118 302.478 539.921 301.23 541.833 300.127C543.219 299.327 544.674 298.871 546.198 298.759C547.778 298.647 549.275 298.759 550.688 299.095C552.157 299.431 553.681 299.911 555.261 300.535L563.45 303.726C563.505 303.694 563.561 303.662 563.616 303.63C563.699 303.582 563.769 303.542 563.824 303.51C564.683 303.014 565.307 302.59 565.695 302.238C566.138 301.886 566.415 301.518 566.526 301.134C566.637 300.718 566.485 300.247 566.069 299.719C565.653 299.191 565.002 298.671 564.115 298.159C562.314 297.119 560.651 296.575 559.127 296.527C557.658 296.479 556.134 296.911 554.554 297.823L551.395 295.423C552.669 294.719 553.972 294.239 555.302 293.983C556.66 293.711 558.018 293.647 559.376 293.791C560.623 293.935 561.912 294.247 563.242 294.727C564.6 295.191 565.944 295.807 567.274 296.575C569.02 297.583 570.212 298.575 570.849 299.551C571.515 300.511 571.625 301.454 571.182 302.382C570.766 303.326 569.81 304.23 568.314 305.094L558.378 310.83C557.769 311.182 557.408 311.454 557.298 311.646C557.214 311.854 557.45 312.118 558.004 312.438C558.337 312.63 558.794 312.83 559.376 313.038L556.383 314.862C555.579 314.526 554.748 314.11 553.889 313.614C552.669 312.91 552.06 312.19 552.06 311.454C552.06 310.718 552.683 309.99 553.93 309.27L554.97 309.198C552.947 309.822 550.91 310.006 548.859 309.75C546.863 309.494 544.854 308.782 542.831 307.614ZM546.406 306.222C548.568 307.47 550.646 308.11 552.642 308.142C554.693 308.174 556.522 307.726 558.129 306.798L562.452 304.302L562.785 306.126L553.016 302.502L552.642 302.382C551.173 301.854 549.898 301.566 548.817 301.518C547.764 301.454 546.725 301.718 545.7 302.31C544.757 302.854 544.369 303.494 544.536 304.23C544.73 304.95 545.353 305.614 546.406 306.222ZM567.941 322.11C565.835 320.894 564.435 319.59 563.743 318.198C563.077 316.79 563.147 315.374 563.95 313.951C564.754 312.527 566.278 311.167 568.523 309.871C570.657 308.639 572.957 307.791 575.424 307.327C577.918 306.847 580.398 306.791 582.865 307.159C585.359 307.543 587.645 308.335 589.724 309.535C592.246 310.991 593.618 312.551 593.839 314.215C594.089 315.862 593.382 317.422 591.719 318.894L587.562 317.262C588.615 316.206 589.156 315.19 589.183 314.215C589.239 313.223 588.421 312.239 586.731 311.263C585.567 310.591 584.431 310.127 583.322 309.871C582.214 309.615 581.091 309.527 579.955 309.607C578.791 309.703 577.599 309.975 576.38 310.423C575.188 310.887 573.941 311.495 572.639 312.247C570.061 313.735 568.537 315.126 568.066 316.422C567.622 317.702 568.579 319.022 570.934 320.382C572.542 321.31 574.121 321.838 575.673 321.966C577.225 322.094 578.943 321.838 580.828 321.198L583.987 323.454C582.352 324.11 580.578 324.494 578.666 324.606C576.809 324.718 574.953 324.558 573.096 324.126C571.267 323.71 569.549 323.038 567.941 322.11ZM587.49 333.059C585.55 331.939 584.524 330.899 584.413 329.94C584.302 328.98 585.092 328.012 586.783 327.036L599.794 319.524L596.801 317.796L599.919 315.996L602.912 317.724L608.69 314.389L612.39 316.524L606.612 319.86L610.852 322.308L607.734 324.108L603.494 321.66L590.607 329.1C589.942 329.484 589.651 329.828 589.734 330.132C589.873 330.435 590.344 330.819 591.148 331.283C591.674 331.587 592.381 331.915 593.268 332.267L589.984 334.259C589.097 333.907 588.265 333.507 587.49 333.059ZM617.904 321.867L622.31 319.324L626.052 321.483L621.645 324.027L617.904 321.867ZM593.211 336.122L613.996 324.123L617.738 326.283L596.953 338.282L593.211 336.122ZM593.211 336.122L596.371 334.299L600.112 336.458L596.953 338.282L593.211 336.122ZM610.837 325.947L613.996 324.123L617.738 326.283L614.578 328.107L610.837 325.947ZM610.574 346.722C608.44 345.49 607.013 344.17 606.293 342.762C605.627 341.354 605.697 339.939 606.5 338.515C607.304 337.091 608.828 335.731 611.073 334.435C613.179 333.219 615.466 332.379 617.932 331.915C620.454 331.451 622.948 331.403 625.415 331.771C627.937 332.139 630.251 332.931 632.357 334.147C634.435 335.347 635.78 336.667 636.389 338.107C637.054 339.547 636.971 340.986 636.14 342.426C635.336 343.882 633.895 345.21 631.817 346.41C629.655 347.658 627.313 348.514 624.791 348.978C622.297 349.426 619.803 349.458 617.309 349.074C614.87 348.69 612.625 347.906 610.574 346.722ZM613.526 345.018C615.577 346.202 617.697 346.754 619.886 346.674C621.133 346.626 622.408 346.386 623.71 345.954C625.041 345.506 626.399 344.882 627.784 344.082C630.666 342.418 632.163 340.882 632.274 339.475C632.357 338.211 631.401 337.003 629.406 335.851C628.38 335.259 627.355 334.827 626.329 334.555C625.332 334.267 624.32 334.131 623.295 334.147C621.992 334.163 620.648 334.395 619.262 334.843C617.932 335.291 616.546 335.931 615.105 336.763C613.664 337.595 612.542 338.403 611.738 339.187C610.99 339.971 610.602 340.739 610.574 341.49C610.519 342.674 611.503 343.85 613.526 345.018ZM625.177 354.577L645.962 342.577L649.704 344.737L644.715 347.617L644.965 346.993C646.988 346.337 648.955 346.097 650.868 346.273C652.835 346.449 654.748 347.073 656.604 348.145C657.962 348.929 658.946 349.721 659.556 350.521C660.221 351.321 660.526 352.169 660.47 353.065C660.415 353.897 659.944 354.681 659.057 355.416C658.198 356.136 657.006 356.936 655.482 357.816L643.136 364.944L639.27 362.712L651.408 355.704C651.436 355.688 651.464 355.672 651.491 355.656C651.519 355.64 651.547 355.624 651.574 355.608C652.766 354.921 653.639 354.337 654.193 353.857C654.748 353.377 655.011 352.825 654.983 352.201C654.983 351.593 654.761 351.081 654.318 350.665C653.875 350.249 653.265 349.817 652.489 349.369C651.131 348.585 649.413 348.137 647.334 348.025C645.311 347.913 642.997 348.609 640.392 350.113L628.919 356.736L625.177 354.577ZM653.303 371.39C651.391 370.286 650.255 369.038 649.895 367.646C649.59 366.254 650.394 365.006 652.306 363.902C653.691 363.102 655.146 362.646 656.671 362.534C658.25 362.422 659.747 362.534 661.16 362.87C662.629 363.206 664.153 363.686 665.733 364.31L673.922 367.502C673.978 367.47 674.033 367.438 674.089 367.406C674.172 367.358 674.241 367.318 674.296 367.286C675.156 366.79 675.779 366.366 676.167 366.014C676.61 365.662 676.888 365.294 676.998 364.91C677.109 364.494 676.957 364.022 676.541 363.494C676.125 362.966 675.474 362.446 674.587 361.934C672.786 360.894 671.123 360.35 669.599 360.302C668.13 360.254 666.606 360.686 665.026 361.598L661.867 359.198C663.142 358.495 664.444 358.015 665.775 357.759C667.132 357.487 668.49 357.423 669.848 357.567C671.095 357.711 672.384 358.023 673.714 358.503C675.072 358.967 676.416 359.582 677.747 360.35C679.493 361.358 680.684 362.35 681.322 363.326C681.987 364.286 682.098 365.23 681.654 366.158C681.239 367.102 680.282 368.006 678.786 368.87L668.851 374.605C668.241 374.957 667.881 375.229 667.77 375.421C667.687 375.629 667.922 375.893 668.477 376.213C668.809 376.405 669.266 376.605 669.848 376.813L666.855 378.637C666.052 378.301 665.22 377.885 664.361 377.389C663.142 376.685 662.532 375.965 662.532 375.229C662.532 374.494 663.156 373.766 664.403 373.046L665.442 372.974C663.419 373.598 661.382 373.782 659.331 373.526C657.336 373.27 655.327 372.558 653.303 371.39ZM656.879 369.998C659.04 371.246 661.119 371.886 663.114 371.918C665.165 371.95 666.994 371.502 668.601 370.574L672.925 368.078L673.257 369.902L663.488 366.278L663.114 366.158C661.645 365.63 660.37 365.342 659.29 365.294C658.236 365.23 657.197 365.494 656.172 366.086C655.23 366.63 654.842 367.27 655.008 368.006C655.202 368.726 655.825 369.39 656.879 369.998ZM669.85 380.366L698.949 363.567L702.69 365.727L673.591 382.526L669.85 380.366ZM669.85 380.366L673.009 378.542L676.751 380.702L673.591 382.526L669.85 380.366ZM695.79 365.391L698.949 363.567L700.944 364.719L697.785 366.543L695.79 365.391ZM688.071 390.885L717.17 374.086L727.313 379.942C729.419 381.157 731.054 382.309 732.218 383.397C733.438 384.485 733.978 385.661 733.839 386.925C733.729 388.205 732.523 389.509 730.223 390.837C728.615 391.765 726.786 392.325 724.736 392.517C722.712 392.693 720.717 392.517 718.749 391.989L719.373 391.293C720.953 392.845 721.659 394.229 721.493 395.445C721.355 396.676 720.274 397.876 718.251 399.044C715.895 400.404 713.581 401.1 711.308 401.132C709.036 401.164 706.916 400.804 704.948 400.052C702.981 399.3 700.833 398.252 698.505 396.908L688.071 390.885ZM701.706 395.061C703.535 396.117 705.045 396.908 706.237 397.436C707.456 397.948 708.773 398.212 710.186 398.228C711.627 398.228 713.096 397.796 714.592 396.932C716.2 396.005 716.976 395.093 716.92 394.197C716.865 393.301 716.394 392.501 715.507 391.797C714.648 391.077 713.456 390.277 711.932 389.397L705.031 385.413L695.013 391.197L701.706 395.061ZM714.343 387.045C715.95 387.973 717.336 388.677 718.5 389.157C719.692 389.653 720.967 389.909 722.324 389.925C723.71 389.957 725.124 389.557 726.565 388.725C728.033 387.877 728.74 387.053 728.685 386.253C728.685 385.453 728.255 384.709 727.396 384.021C726.565 383.349 725.359 382.557 723.779 381.645L717.669 378.118L708.274 383.541L714.343 387.045ZM719.671 409.704C717.759 408.6 716.623 407.352 716.263 405.96C715.958 404.568 716.762 403.32 718.674 402.216C720.059 401.416 721.514 400.961 723.039 400.849C724.618 400.737 726.115 400.849 727.528 401.185C728.997 401.52 730.521 402 732.101 402.624L740.29 405.816C740.346 405.784 740.401 405.752 740.457 405.72C740.54 405.672 740.609 405.632 740.664 405.6C741.524 405.104 742.147 404.68 742.535 404.328C742.978 403.976 743.256 403.608 743.366 403.224C743.477 402.808 743.325 402.336 742.909 401.808C742.493 401.28 741.842 400.761 740.955 400.249C739.154 399.209 737.491 398.665 735.967 398.617C734.498 398.569 732.974 399.001 731.394 399.913L728.235 397.513C729.51 396.809 730.812 396.329 732.143 396.073C733.5 395.801 734.858 395.737 736.216 395.881C737.463 396.025 738.752 396.337 740.082 396.817C741.44 397.281 742.784 397.897 744.115 398.665C745.861 399.673 747.052 400.665 747.69 401.64C748.355 402.6 748.466 403.544 748.022 404.472C747.607 405.416 746.65 406.32 745.154 407.184L735.219 412.92C734.609 413.272 734.249 413.544 734.138 413.736C734.055 413.944 734.29 414.208 734.845 414.528C735.177 414.72 735.634 414.92 736.216 415.128L733.223 416.951C732.42 416.615 731.588 416.2 730.729 415.704C729.51 415 728.9 414.28 728.9 413.544C728.9 412.808 729.524 412.08 730.771 411.36L731.81 411.288C729.787 411.912 727.75 412.096 725.699 411.84C723.704 411.584 721.695 410.872 719.671 409.704ZM723.247 408.312C725.408 409.56 727.487 410.2 729.482 410.232C731.533 410.264 733.362 409.816 734.969 408.888L739.293 406.392L739.625 408.216L729.856 404.592L729.482 404.472C728.013 403.944 726.738 403.656 725.658 403.608C724.604 403.544 723.565 403.808 722.54 404.4C721.598 404.944 721.21 405.584 721.376 406.32C721.57 407.04 722.193 407.704 723.247 408.312ZM744.781 424.2C742.675 422.984 741.276 421.68 740.583 420.288C739.918 418.88 739.987 417.464 740.791 416.04C741.594 414.617 743.119 413.257 745.363 411.961C747.497 410.729 749.798 409.881 752.264 409.417C754.758 408.937 757.239 408.881 759.705 409.249C762.199 409.633 764.486 410.425 766.564 411.625C769.086 413.081 770.458 414.641 770.68 416.304C770.929 417.952 770.222 419.512 768.56 420.984L764.403 419.352C765.456 418.296 765.996 417.28 766.024 416.304C766.079 415.313 765.262 414.329 763.571 413.353C762.407 412.681 761.271 412.217 760.162 411.961C759.054 411.705 757.931 411.617 756.795 411.697C755.631 411.793 754.44 412.065 753.22 412.513C752.029 412.977 750.781 413.585 749.479 414.337C746.902 415.824 745.377 417.216 744.906 418.512C744.463 419.792 745.419 421.112 747.775 422.472C749.382 423.4 750.962 423.928 752.514 424.056C754.065 424.184 755.784 423.928 757.668 423.288L760.828 425.544C759.192 426.2 757.419 426.584 755.507 426.696C753.65 426.808 751.793 426.648 749.936 426.216C748.107 425.8 746.389 425.128 744.781 424.2ZM757.803 431.141L786.902 414.343L790.644 416.502L761.545 433.301L757.803 431.141ZM768.528 428.694L772.81 426.27L791.018 426.318L796.089 429.246L778.796 428.862L776.842 428.838L768.528 428.694ZM771.314 438.941L775.346 428.31L780.417 428.406L775.678 441.461L771.314 438.941ZM785.307 447.596C783.7 446.668 782.522 445.7 781.774 444.692C781.026 443.684 780.721 442.628 780.859 441.524C780.97 440.468 781.469 439.444 782.356 438.452C783.27 437.444 784.559 436.46 786.222 435.5C787.774 434.604 789.423 433.908 791.169 433.413C792.942 432.901 794.744 432.613 796.573 432.549C798.513 432.485 800.37 432.661 802.143 433.077C803.917 433.493 805.552 434.132 807.049 434.996C808.739 435.972 809.945 437.084 810.665 438.332C811.413 439.564 811.538 440.804 811.039 442.052C810.679 442.996 809.945 443.964 808.836 444.956C807.755 445.932 806.439 446.82 804.887 447.62L789.132 438.524C786.887 439.884 785.695 441.164 785.557 442.364C785.418 443.564 786.319 444.724 788.259 445.844C790.033 446.868 791.779 447.444 793.497 447.572C795.243 447.684 797.03 447.356 798.859 446.588L802.185 448.844C799.33 449.979 796.462 450.435 793.58 450.211C790.725 450.003 787.968 449.131 785.307 447.596ZM792.083 436.868L791.668 436.484L804.347 443.804L803.972 443.732C804.554 443.396 805.095 442.956 805.594 442.412C806.148 441.868 806.508 441.356 806.674 440.876C806.924 440.124 806.827 439.412 806.383 438.74C805.968 438.084 805.192 437.428 804.056 436.772C802.919 436.116 801.714 435.66 800.439 435.404C799.192 435.132 798.014 435.076 796.905 435.236C795.298 435.46 793.788 435.948 792.374 436.7L792.083 436.868ZM799.35 455.126L820.135 443.127L823.876 445.287L818.888 448.167L819.137 447.543C821.16 446.887 823.128 446.647 825.04 446.823C827.008 446.999 828.92 447.623 830.777 448.695C832.135 449.479 833.119 450.271 833.729 451.071C834.394 451.871 834.698 452.719 834.643 453.615C834.588 454.446 834.117 455.23 833.23 455.966C832.371 456.686 831.179 457.486 829.655 458.366L817.308 465.494L813.442 463.262L825.581 456.254C825.608 456.238 825.636 456.222 825.664 456.206C825.692 456.19 825.719 456.174 825.747 456.158C826.939 455.47 827.812 454.886 828.366 454.406C828.92 453.926 829.184 453.375 829.156 452.751C829.156 452.143 828.934 451.631 828.491 451.215C828.047 450.799 827.438 450.367 826.662 449.919C825.304 449.135 823.585 448.687 821.507 448.575C819.484 448.463 817.17 449.159 814.565 450.663L803.091 457.286L799.35 455.126ZM829.929 473.355C828.072 472.284 826.853 471.084 826.271 469.756C825.716 468.412 825.841 467.028 826.645 465.604C827.504 464.18 829.042 462.828 831.259 461.548C833.421 460.3 835.707 459.428 838.118 458.932C840.585 458.436 842.968 458.34 845.268 458.644C847.624 458.948 849.73 459.636 851.587 460.708C853.277 461.684 854.386 462.724 854.912 463.828C855.439 464.932 855.356 466.132 854.663 467.428L853.291 467.452L866.095 460.06L869.836 462.22L840.737 479.019L836.996 476.859L841.818 474.075L841.859 474.819C839.559 475.283 837.384 475.387 835.333 475.131C833.338 474.875 831.536 474.283 829.929 473.355ZM833.545 472.036C834.404 472.532 835.291 472.9 836.206 473.139C837.148 473.395 838.118 473.523 839.116 473.523C840.391 473.523 841.735 473.307 843.148 472.876C844.561 472.444 846.003 471.804 847.471 470.956C849.827 469.596 851.324 468.252 851.961 466.924C852.598 465.596 851.767 464.268 849.467 462.94C848.414 462.332 847.361 461.9 846.307 461.644C845.282 461.372 844.229 461.26 843.148 461.308C841.929 461.372 840.668 461.62 839.365 462.052C838.09 462.5 836.76 463.124 835.374 463.924C833.656 464.916 832.395 465.852 831.592 466.732C830.788 467.612 830.511 468.492 830.76 469.372C831.037 470.236 831.966 471.124 833.545 472.036Z" fill="#FAFAFA"/>
<rect y="-0.167989" width="676.336" height="247.836" rx="14.168" transform="matrix(0.866044 0.499967 -0.866044 0.499967 240.355 256.158)" fill="white" fill-opacity="0.1"/>
<rect y="-0.167989" width="676.336" height="247.836" rx="14.168" transform="matrix(0.866044 0.499967 -0.866044 0.499967 240.355 256.158)" stroke="#262626" stroke-width="0.336"/>
<path d="M151.349 425.258L180.448 408.459L189.385 413.618C192.434 415.378 194.415 417.21 195.33 419.114C196.272 421.002 196.161 422.874 194.997 424.73C193.889 426.586 191.838 428.378 188.845 430.105C185.963 431.769 182.914 432.937 179.699 433.609C176.512 434.265 173.256 434.353 169.93 433.873C166.632 433.377 163.445 432.241 160.369 430.465L151.349 425.258ZM161.99 428.954C164.346 430.313 166.591 431.241 168.725 431.737C170.914 432.233 172.896 432.401 174.669 432.241C176.692 432.033 178.605 431.649 180.406 431.089C182.207 430.529 184.106 429.673 186.101 428.522C188.097 427.37 189.579 426.274 190.549 425.234C191.547 424.21 192.198 423.114 192.503 421.946C192.836 420.858 192.517 419.682 191.547 418.418C190.605 417.138 189.039 415.866 186.849 414.602L180.78 411.099L155.921 425.45L161.99 428.954ZM183.998 444.682C181.975 443.514 180.839 442.25 180.589 440.89C180.368 439.547 181.143 438.363 182.917 437.339C184.164 436.619 185.467 436.187 186.825 436.043C188.21 435.915 189.596 435.995 190.982 436.283C192.367 436.571 193.822 437.011 195.347 437.603L204.825 441.298C204.908 441.25 204.991 441.202 205.074 441.154C205.157 441.106 205.226 441.066 205.282 441.034C206.418 440.379 207.25 439.803 207.776 439.307C208.358 438.811 208.635 438.299 208.607 437.771C208.607 437.259 208.344 436.723 207.818 436.163C207.319 435.619 206.584 435.067 205.614 434.507C203.564 433.323 201.679 432.699 199.961 432.635C198.27 432.555 196.497 433.051 194.64 434.123L192.603 432.563C193.684 431.907 194.862 431.435 196.136 431.147C197.467 430.859 198.769 430.763 200.044 430.859C201.319 430.955 202.594 431.227 203.868 431.675C205.199 432.123 206.474 432.699 207.693 433.403C209.383 434.379 210.547 435.339 211.185 436.283C211.878 437.227 212.002 438.163 211.559 439.091C211.143 440.003 210.146 440.914 208.566 441.826L197.675 448.114C197.065 448.466 196.718 448.746 196.635 448.954C196.608 449.162 196.871 449.426 197.425 449.746C197.896 450.018 198.492 450.282 199.213 450.538L197.259 451.714C196.427 451.394 195.693 451.05 195.056 450.682C193.919 450.026 193.393 449.37 193.476 448.714C193.559 448.058 194.377 447.314 195.929 446.482L196.427 446.482C194.515 447.01 192.478 447.146 190.317 446.89C188.183 446.618 186.076 445.882 183.998 444.682ZM186.409 443.77C188.654 445.066 190.94 445.746 193.268 445.81C195.624 445.89 197.758 445.378 199.67 444.274L204.159 441.682L204.409 442.882L193.725 438.875L193.31 438.731C191.675 438.139 190.247 437.827 189.028 437.795C187.836 437.747 186.672 438.051 185.536 438.707C184.261 439.443 183.721 440.267 183.915 441.178C184.137 442.074 184.968 442.938 186.409 443.77ZM205.132 456.547C203.663 455.699 202.901 454.891 202.845 454.123C202.79 453.355 203.455 452.571 204.841 451.771L219.681 443.204L216.48 441.356L218.517 440.18L221.718 442.028L227.455 438.716L229.866 440.108L224.129 443.42L228.411 445.892L226.374 447.067L222.092 444.596L207.21 453.187C206.518 453.587 206.199 453.947 206.254 454.267C206.337 454.571 206.739 454.931 207.46 455.347C208.125 455.731 208.942 456.107 209.912 456.475L207.751 457.771C206.781 457.403 205.908 456.995 205.132 456.547ZM216.451 463.418C214.428 462.25 213.292 460.986 213.043 459.626C212.821 458.282 213.597 457.098 215.37 456.074C216.618 455.354 217.92 454.922 219.278 454.778C220.664 454.65 222.049 454.73 223.435 455.018C224.821 455.306 226.276 455.746 227.8 456.338L237.278 460.034C237.361 459.986 237.444 459.938 237.527 459.89C237.61 459.842 237.68 459.802 237.735 459.77C238.871 459.114 239.703 458.538 240.229 458.042C240.811 457.546 241.088 457.034 241.061 456.506C241.061 455.994 240.797 455.458 240.271 454.898C239.772 454.354 239.038 453.802 238.068 453.242C236.017 452.058 234.132 451.434 232.414 451.37C230.724 451.29 228.95 451.786 227.093 452.858L225.056 451.298C226.137 450.642 227.315 450.17 228.59 449.882C229.92 449.594 231.223 449.498 232.497 449.594C233.772 449.69 235.047 449.962 236.322 450.41C237.652 450.858 238.927 451.434 240.146 452.138C241.837 453.114 243.001 454.074 243.638 455.018C244.331 455.962 244.456 456.898 244.012 457.826C243.597 458.738 242.599 459.65 241.019 460.562L230.128 466.849C229.518 467.201 229.172 467.481 229.089 467.689C229.061 467.897 229.324 468.161 229.878 468.481C230.35 468.753 230.945 469.017 231.666 469.273L229.712 470.449C228.881 470.129 228.146 469.785 227.509 469.417C226.373 468.761 225.846 468.105 225.929 467.449C226.012 466.793 226.83 466.049 228.382 465.217L228.881 465.217C226.969 465.745 224.932 465.881 222.77 465.625C220.636 465.353 218.53 464.617 216.451 463.418ZM218.862 462.506C221.107 463.801 223.393 464.481 225.721 464.545C228.077 464.625 230.211 464.113 232.123 463.01L236.613 460.418L236.862 461.618L226.179 457.61L225.763 457.466C224.128 456.874 222.701 456.562 221.481 456.53C220.29 456.482 219.126 456.786 217.989 457.442C216.715 458.178 216.174 459.002 216.368 459.914C216.59 460.81 217.421 461.674 218.862 462.506ZM249.106 482.221C247.138 481.085 245.877 479.893 245.323 478.645C244.769 477.397 244.769 476.229 245.323 475.141C245.877 474.054 246.764 473.158 247.983 472.454C249.48 471.59 251.101 471.022 252.847 470.75C254.621 470.494 256.478 470.446 258.418 470.606C260.358 470.766 262.588 471.078 265.11 471.542L264.154 472.478C264.21 472.254 264.251 472.038 264.279 471.83C264.334 471.606 264.362 471.382 264.362 471.158C264.556 470.086 264.75 469.222 264.944 468.566C265.138 467.91 265.457 467.294 265.9 466.718C266.371 466.158 267.023 465.638 267.854 465.158C268.907 464.55 270.154 464.15 271.595 463.958C273.092 463.766 274.602 463.806 276.126 464.078C277.678 464.366 279.092 464.878 280.367 465.614C281.586 466.318 282.431 467.094 282.902 467.942C283.401 468.806 283.484 469.654 283.152 470.486C282.819 471.318 282.057 472.078 280.865 472.766C279.729 473.422 278.399 473.854 276.875 474.062C275.35 474.27 273.715 474.318 271.969 474.206C270.224 474.094 268.325 473.862 266.274 473.51L267.272 472.598L265.817 482.701L264.986 482.269C266.177 482.061 267.549 481.701 269.101 481.189C270.653 480.677 272.094 480.069 273.424 479.365L275.337 480.901C273.674 481.701 272.053 482.349 270.473 482.845C268.921 483.325 267.258 483.741 265.485 484.093C265.401 484.109 265.318 484.125 265.235 484.141C265.18 484.141 265.11 484.149 265.027 484.165L265.734 483.229L264.819 490.764L261.66 488.941L262.491 483.757L263.198 484.405C260.732 484.741 258.237 484.741 255.716 484.405C253.221 484.053 251.018 483.325 249.106 482.221ZM251.268 481.069C253.013 482.077 254.995 482.677 257.212 482.869C259.485 483.061 261.799 482.941 264.154 482.509L262.45 483.877L264.279 472.262L265.443 473.318L264.154 473.102C262.048 472.718 260.247 472.462 258.75 472.334C257.309 472.206 255.91 472.246 254.552 472.454C253.194 472.662 251.933 473.102 250.769 473.774C249.577 474.462 248.801 475.229 248.441 476.077C248.108 476.941 248.177 477.813 248.649 478.693C249.147 479.557 250.02 480.349 251.268 481.069ZM266.815 471.902C267.009 471.918 267.189 471.942 267.355 471.974C267.577 472.006 267.799 472.038 268.02 472.07C270.265 472.406 272.247 472.558 273.965 472.526C275.738 472.494 277.221 472.15 278.413 471.494C279.632 470.854 280.256 470.094 280.283 469.214C280.367 468.334 279.729 467.502 278.371 466.718C277.096 465.982 275.711 465.598 274.214 465.566C272.718 465.534 271.401 465.846 270.265 466.502C269.572 466.902 269.032 467.39 268.644 467.966C268.256 468.542 267.951 469.294 267.729 470.222C267.508 471.246 267.383 472.118 267.355 472.838L266.815 471.902ZM271.468 494.603L312.124 484.476L314.535 485.867L296.992 509.338L294.457 507.874L307.177 491.219C307.399 490.931 307.621 490.627 307.842 490.307C308.092 490.003 308.341 489.683 308.59 489.347C308.951 488.915 309.311 488.467 309.671 488.003C310.059 487.555 310.42 487.091 310.752 486.611L310.711 486.587C310.018 486.795 309.297 486.987 308.549 487.163C307.856 487.339 307.163 487.531 306.47 487.739C305.861 487.899 305.251 488.059 304.641 488.219C304.032 488.379 303.408 488.531 302.771 488.675L274.046 496.091L271.468 494.603ZM285.976 492.179L288.969 491.411L302.771 499.379L301.44 501.106L285.976 492.179ZM299.777 510.945L320.437 499.018L322.848 500.41L317.776 503.338L317.984 502.93C320.007 502.242 322.072 501.994 324.178 502.186C326.285 502.378 328.308 503.034 330.248 504.154C331.522 504.89 332.451 505.65 333.033 506.434C333.67 507.218 333.989 508.009 333.989 508.809C333.961 509.657 333.518 510.457 332.659 511.209C331.827 511.945 330.705 512.721 329.291 513.537L316.779 520.761L314.285 519.321L326.382 512.337C326.409 512.321 326.437 512.305 326.465 512.289C326.492 512.273 326.52 512.257 326.548 512.241C327.795 511.521 328.751 510.889 329.416 510.345C330.081 509.801 330.442 509.193 330.497 508.521C330.58 507.865 330.358 507.258 329.832 506.698C329.305 506.138 328.543 505.57 327.545 504.994C325.966 504.082 323.97 503.554 321.559 503.41C319.204 503.266 316.599 504.018 313.744 505.666L302.188 512.337L299.777 510.945ZM327.329 527.428C325.306 526.26 324.17 524.996 323.921 523.636C323.699 522.292 324.475 521.108 326.249 520.084C327.496 519.364 328.798 518.932 330.156 518.788C331.542 518.66 332.928 518.74 334.313 519.028C335.699 519.316 337.154 519.756 338.678 520.348L348.156 524.044C348.239 523.996 348.322 523.948 348.406 523.9C348.489 523.852 348.558 523.812 348.613 523.78C349.75 523.124 350.581 522.548 351.108 522.052C351.69 521.556 351.967 521.044 351.939 520.516C351.939 520.004 351.676 519.468 351.149 518.908C350.65 518.364 349.916 517.812 348.946 517.252C346.895 516.068 345.011 515.444 343.292 515.38C341.602 515.3 339.828 515.796 337.971 516.868L335.935 515.308C337.015 514.652 338.193 514.18 339.468 513.892C340.798 513.604 342.101 513.508 343.376 513.604C344.65 513.7 345.925 513.972 347.2 514.42C348.53 514.868 349.805 515.444 351.024 516.148C352.715 517.124 353.879 518.084 354.516 519.028C355.209 519.972 355.334 520.908 354.89 521.836C354.475 522.748 353.477 523.66 351.897 524.572L341.006 530.859C340.396 531.211 340.05 531.491 339.967 531.699C339.939 531.907 340.202 532.171 340.757 532.491C341.228 532.763 341.824 533.027 342.544 533.283L340.59 534.459C339.759 534.139 339.025 533.795 338.387 533.427C337.251 532.771 336.724 532.115 336.807 531.459C336.891 530.803 337.708 530.059 339.26 529.227L339.759 529.227C337.847 529.755 335.81 529.891 333.648 529.635C331.514 529.363 329.408 528.627 327.329 527.428ZM329.741 526.516C331.985 527.811 334.272 528.491 336.6 528.555C338.955 528.635 341.089 528.123 343.001 527.02L347.491 524.428L347.74 525.628L337.057 521.62L336.641 521.476C335.006 520.884 333.579 520.572 332.359 520.54C331.168 520.492 330.004 520.796 328.868 521.452C327.593 522.188 327.052 523.012 327.246 523.924C327.468 524.82 328.299 525.684 329.741 526.516ZM343.556 536.219L372.655 519.42L375.066 520.812L345.967 537.611L343.556 536.219ZM343.556 536.219L345.593 535.043L348.004 536.435L345.967 537.611L343.556 536.219ZM370.618 520.596L372.655 519.42L373.985 520.188L371.949 521.364L370.618 520.596ZM345.14 546.973C344.669 546.701 344.239 546.405 343.851 546.085C343.491 545.781 343.145 545.453 342.812 545.101L345.182 543.829C345.431 544.133 345.722 544.429 346.055 544.717C346.387 545.037 346.747 545.309 347.135 545.533C347.662 545.837 348.23 546.005 348.84 546.037C349.477 546.085 350.295 546.013 351.292 545.821C352.262 545.645 353.731 545.293 355.699 544.765C356.087 544.669 356.489 544.565 356.904 544.453C357.292 544.357 357.708 544.245 358.151 544.117L355.99 545.317L369.625 527.414L372.202 528.902L363.181 540.205C362.96 540.493 362.71 540.781 362.433 541.069C362.212 541.357 361.976 541.669 361.727 542.005C361.422 542.341 361.117 542.693 360.812 543.061C360.535 543.413 360.258 543.765 359.981 544.117L359.399 543.973C360.175 543.749 360.881 543.533 361.519 543.325C362.212 543.117 362.863 542.933 363.472 542.773C363.916 542.645 364.359 542.517 364.803 542.389C365.302 542.261 365.8 542.133 366.299 542.005L385.712 536.702L388.248 538.166L355.782 546.781C353.87 547.277 352.29 547.613 351.043 547.789C349.824 547.981 348.743 548.013 347.801 547.885C346.886 547.773 345.999 547.469 345.14 546.973ZM375.517 554.91C374.049 554.062 373.286 553.255 373.231 552.487C373.176 551.719 373.841 550.935 375.226 550.135L390.067 541.567L386.866 539.719L388.903 538.543L392.104 540.391L397.841 537.08L400.252 538.471L394.515 541.783L398.797 544.255L396.76 545.431L392.478 542.959L377.596 551.551C376.903 551.951 376.584 552.311 376.64 552.631C376.723 552.935 377.125 553.295 377.845 553.71C378.51 554.094 379.328 554.47 380.298 554.838L378.136 556.134C377.166 555.766 376.293 555.358 375.517 554.91ZM406.79 543.686L410.573 541.502L412.984 542.894L409.202 545.078L406.79 543.686ZM381.641 558.205L402.301 546.278L404.712 547.67L384.052 559.597L381.641 558.205ZM381.641 558.205L383.677 557.029L386.089 558.421L384.052 559.597L381.641 558.205ZM400.264 547.454L402.301 546.278L404.712 547.67L402.675 548.846L400.264 547.454ZM397.774 568.047C395.64 566.815 394.268 565.511 393.659 564.135C393.077 562.775 393.215 561.416 394.074 560.056C394.961 558.68 396.485 557.368 398.647 556.12C400.725 554.92 402.97 554.072 405.381 553.576C407.82 553.096 410.245 553.024 412.656 553.36C415.095 553.68 417.326 554.424 419.349 555.592C421.76 556.984 423.062 558.472 423.256 560.056C423.478 561.624 422.758 563.159 421.095 564.663L418.31 563.583C419.64 562.367 420.277 561.2 420.222 560.08C420.166 558.96 419.183 557.848 417.27 556.744C415.968 555.992 414.624 555.472 413.238 555.184C411.908 554.896 410.55 554.816 409.164 554.944C407.889 555.04 406.573 555.32 405.215 555.784C403.885 556.264 402.568 556.88 401.266 557.632C398.495 559.232 396.915 560.8 396.527 562.335C396.139 563.871 397.234 565.383 399.811 566.871C401.668 567.943 403.538 568.559 405.423 568.719C407.307 568.879 409.33 568.559 411.492 567.759L413.529 569.223C411.866 569.863 410.12 570.247 408.291 570.375C406.49 570.519 404.675 570.399 402.846 570.015C401.044 569.615 399.354 568.959 397.774 568.047ZM417.825 579.623C415.22 578.119 413.737 576.543 413.377 574.895C413.072 573.247 414.084 571.767 416.412 570.455L418.906 571.655C417.132 572.647 416.37 573.759 416.62 574.991C416.897 576.239 417.991 577.415 419.904 578.519C421.733 579.575 423.492 580.191 425.183 580.367C426.901 580.559 428.412 580.279 429.714 579.527C430.573 579.031 430.989 578.471 430.961 577.847C430.934 577.223 430.629 576.599 430.047 575.975C429.492 575.367 428.661 574.583 427.552 573.623C427.414 573.479 427.275 573.351 427.137 573.239C426.998 573.127 426.86 572.999 426.721 572.855C425.529 571.783 424.67 570.855 424.144 570.071C423.617 569.287 423.437 568.527 423.603 567.791C423.797 567.071 424.449 566.391 425.557 565.752C426.693 565.096 428.01 564.704 429.506 564.576C431.031 564.432 432.569 564.552 434.121 564.936C435.728 565.32 437.252 565.927 438.693 566.759C440.993 568.087 442.324 569.495 442.684 570.983C443.072 572.455 442.31 573.887 440.398 575.279L437.737 574.175C439.206 573.167 439.857 572.119 439.691 571.031C439.552 569.927 438.569 568.847 436.739 567.791C435.271 566.943 433.746 566.431 432.167 566.255C430.587 566.079 429.243 566.311 428.134 566.951C427.081 567.559 426.693 568.247 426.97 569.015C427.303 569.783 428.19 570.823 429.631 572.135C429.714 572.215 429.811 572.287 429.922 572.351C430.033 572.415 430.116 572.479 430.171 572.543C430.199 572.591 430.241 572.647 430.296 572.711C430.379 572.759 430.449 572.799 430.504 572.831C431.834 573.983 432.818 574.967 433.455 575.783C434.148 576.599 434.425 577.431 434.287 578.279C434.204 579.127 433.497 579.935 432.167 580.703C430.144 581.87 427.843 582.334 425.266 582.094C422.744 581.854 420.264 581.031 417.825 579.623ZM450.151 598.333C447.962 597.069 446.327 595.709 445.246 594.253C444.193 592.781 443.874 591.301 444.29 589.813C444.733 588.341 446.05 586.973 448.239 585.709L451.149 587.053C448.461 588.605 447.283 590.293 447.616 592.117C447.976 593.925 449.514 595.613 452.23 597.181C453.976 598.189 455.722 598.925 457.468 599.389C459.241 599.836 460.96 599.996 462.622 599.868C464.341 599.74 465.893 599.277 467.278 598.477C468.581 597.725 469.232 596.933 469.232 596.101C469.26 595.285 468.872 594.469 468.068 593.653C467.32 592.837 466.128 591.749 464.493 590.389C464.299 590.213 464.077 590.037 463.828 589.861C463.606 589.669 463.412 589.477 463.246 589.285C461.555 587.861 460.308 586.581 459.505 585.445C458.701 584.309 458.382 583.198 458.549 582.11C458.743 581.038 459.643 580.038 461.251 579.11C462.969 578.118 464.867 577.55 466.946 577.406C469.08 577.262 471.186 577.454 473.264 577.982C475.398 578.51 477.352 579.286 479.126 580.31C482.313 582.15 484.17 584.07 484.696 586.069C485.25 588.053 484.059 590.069 481.121 592.117L478.128 590.917C480.595 589.429 481.675 587.861 481.371 586.213C481.093 584.549 479.652 582.966 477.047 581.462C475.772 580.726 474.345 580.158 472.766 579.758C471.214 579.342 469.648 579.174 468.068 579.254C466.516 579.35 465.117 579.758 463.87 580.478C462.65 581.182 462.068 581.982 462.124 582.878C462.179 583.774 462.636 584.709 463.495 585.685C464.382 586.645 465.657 587.797 467.32 589.141C467.32 589.173 467.334 589.197 467.361 589.213C467.417 589.245 467.472 589.277 467.528 589.309C469.468 590.877 470.895 592.213 471.809 593.317C472.724 594.421 473.07 595.517 472.849 596.605C472.682 597.693 471.699 598.757 469.897 599.796C468.04 600.868 465.99 601.508 463.745 601.716C461.5 601.924 459.228 601.732 456.927 601.14C454.627 600.548 452.368 599.613 450.151 598.333ZM471.01 610.038C469.541 609.19 468.779 608.382 468.723 607.614C468.668 606.846 469.333 606.062 470.719 605.262L485.559 596.695L482.358 594.847L484.395 593.671L487.596 595.519L493.333 592.207L495.744 593.599L490.007 596.911L494.289 599.383L492.252 600.559L487.97 598.087L473.088 606.678C472.395 607.078 472.077 607.438 472.132 607.758C472.215 608.062 472.617 608.422 473.338 608.838C474.003 609.222 474.82 609.598 475.79 609.966L473.629 611.262C472.659 610.894 471.786 610.486 471.01 610.038ZM482.329 616.909C480.306 615.741 479.17 614.477 478.921 613.117C478.699 611.773 479.475 610.589 481.248 609.565C482.496 608.845 483.798 608.413 485.156 608.269C486.542 608.141 487.927 608.221 489.313 608.509C490.699 608.797 492.154 609.237 493.678 609.829L503.156 613.525C503.239 613.477 503.322 613.429 503.405 613.381C503.488 613.333 503.558 613.293 503.613 613.261C504.749 612.605 505.581 612.029 506.107 611.533C506.689 611.037 506.966 610.525 506.939 609.997C506.939 609.485 506.675 608.949 506.149 608.389C505.65 607.845 504.916 607.293 503.946 606.734C501.895 605.55 500.01 604.926 498.292 604.862C496.602 604.782 494.828 605.278 492.971 606.35L490.934 604.79C492.015 604.134 493.193 603.662 494.468 603.374C495.798 603.086 497.101 602.99 498.375 603.086C499.65 603.182 500.925 603.454 502.2 603.902C503.53 604.35 504.805 604.926 506.024 605.63C507.715 606.606 508.879 607.565 509.516 608.509C510.209 609.453 510.334 610.389 509.89 611.317C509.475 612.229 508.477 613.141 506.897 614.053L496.006 620.341C495.396 620.693 495.05 620.973 494.967 621.181C494.939 621.389 495.202 621.653 495.756 621.973C496.228 622.245 496.823 622.509 497.544 622.764L495.59 623.94C494.759 623.62 494.024 623.276 493.387 622.908C492.251 622.253 491.724 621.597 491.807 620.941C491.89 620.285 492.708 619.541 494.26 618.709L494.759 618.709C492.846 619.237 490.81 619.373 488.648 619.117C486.514 618.845 484.408 618.109 482.329 616.909ZM484.74 615.997C486.985 617.293 489.271 617.973 491.599 618.037C493.955 618.117 496.089 617.605 498.001 616.501L502.491 613.909L502.74 615.109L492.057 611.101L491.641 610.957C490.006 610.365 488.579 610.053 487.359 610.021C486.168 609.973 485.004 610.277 483.867 610.933C482.593 611.669 482.052 612.493 482.246 613.405C482.468 614.301 483.299 615.165 484.74 615.997ZM506.704 630.932C504.57 629.7 503.198 628.396 502.588 627.02C502.006 625.661 502.145 624.301 503.004 622.941C503.891 621.565 505.415 620.253 507.577 619.005C509.655 617.805 511.9 616.957 514.311 616.461C516.75 615.981 519.175 615.909 521.586 616.245C524.025 616.565 526.255 617.309 528.279 618.477C530.69 619.869 531.992 621.357 532.186 622.941C532.408 624.509 531.687 626.045 530.024 627.548L527.239 626.469C528.57 625.253 529.207 624.085 529.152 622.965C529.096 621.845 528.112 620.733 526.2 619.629C524.898 618.877 523.553 618.357 522.168 618.069C520.837 617.781 519.48 617.701 518.094 617.829C516.819 617.925 515.503 618.205 514.145 618.669C512.814 619.149 511.498 619.765 510.196 620.517C507.424 622.117 505.845 623.685 505.457 625.221C505.069 626.756 506.163 628.268 508.741 629.756C510.597 630.828 512.468 631.444 514.353 631.604C516.237 631.764 518.26 631.444 520.422 630.644L522.459 632.108C520.796 632.748 519.05 633.132 517.221 633.26C515.42 633.404 513.604 633.284 511.775 632.9C509.974 632.5 508.283 631.844 506.704 630.932ZM519.979 638.068L549.078 621.269L551.489 622.661L522.39 639.46L519.979 638.068ZM529.914 634.828L532.699 633.268L553.734 633.7L556.935 635.548L540.514 635.092H538.852L529.914 634.828ZM533.905 646.107L538.02 634.852L541.304 634.876L536.69 647.715L533.905 646.107Z" fill="#FAFAFA"/>
<rect width="706" height="540" rx="40" transform="matrix(0.866044 0.499967 -0.866044 0.499967 467.838 0)" fill="black"/>
<rect y="-0.499967" width="677" height="43" rx="21.5" transform="matrix(0.866044 0.499967 -0.866044 0.499967 467.405 14.75)" fill="black"/>
<rect y="-0.499967" width="677" height="43" rx="21.5" transform="matrix(0.866044 0.499967 -0.866044 0.499967 467.405 14.75)" stroke="#FAFAFA"/>
<rect width="333" height="260" rx="24" transform="matrix(0.866044 0.499967 -0.866044 0.499967 418.474 43.5)" fill="white" fill-opacity="0.1"/>
<path d="M303.712 134.754L302.734 137.792C301.756 140.83 299.799 146.907 301.697 150.758C303.595 154.61 309.348 156.236 317.879 156.257C326.411 156.279 337.722 154.696 342.691 156.775C347.659 158.854 346.286 164.594 347.099 169.071C347.913 173.548 350.914 176.763 355.731 178.929C360.548 181.095 367.181 182.213 375.761 182.207C384.341 182.201 394.868 181.071 404.315 180.564C413.762 180.057 422.129 180.174 424.281 183.878C426.433 187.583 422.37 194.876 427.158 197.059C431.946 199.242 445.585 196.315 450.799 198.252C456.012 200.189 452.801 206.99 453.889 211.309C454.978 215.628 460.367 217.464 467.989 218.01C475.611 218.557 485.467 217.815 496.19 216.571C506.914 215.327 518.506 213.582 527.408 213.39C536.309 213.198 542.521 214.559 547.911 216.395C553.3 218.231 557.867 220.541 558.816 224.941C559.764 229.34 557.094 235.829 561.521 238.22C565.948 240.612 577.472 238.906 585.991 238.935C594.511 238.963 600.025 240.727 602.782 241.609L605.539 242.491" stroke="#FAFAFA"/>
<rect width="333" height="260" rx="24" transform="matrix(0.866044 0.499967 -0.866044 0.499967 715.527 214.992)" fill="white" fill-opacity="0.1"/>
<line y1="-0.5" x2="23" y2="-0.5" transform="matrix(0.866044 -0.499967 0.866044 0.499967 534.061 350.219)" stroke="#FAFAFA"/>
<line y1="-0.5" x2="47" y2="-0.5" transform="matrix(0.866044 -0.499967 0.866044 0.499967 552.186 360.68)" stroke="#FAFAFA"/>
<line y1="-0.5" x2="47" y2="-0.5" transform="matrix(0.866044 -0.499967 0.866044 0.499967 570.311 371.141)" stroke="#FAFAFA"/>
<line y1="-0.5" x2="88.005" y2="-0.5" transform="matrix(0.856769 -0.505265 0.875221 0.494613 588.842 381.844)" stroke="#FAFAFA"/>
<line y1="-0.5" x2="116" y2="-0.5" transform="matrix(0.866044 -0.499967 0.866044 0.499967 606.561 392.07)" stroke="#FAFAFA"/>
<line y1="-0.5" x2="77" y2="-0.5" transform="matrix(0.866044 -0.499967 0.866044 0.499967 624.686 402.531)" stroke="#FAFAFA"/>
<line y1="-0.5" x2="147" y2="-0.5" transform="matrix(0.866044 -0.499967 0.866044 0.499967 642.811 413)" stroke="#FAFAFA"/>
<line y1="-0.5" x2="149" y2="-0.5" transform="matrix(0.866044 -0.499967 0.866044 0.499967 660.936 423.461)" stroke="#FAFAFA"/>
<line y1="-0.5" x2="129" y2="-0.5" transform="matrix(0.866044 -0.499967 0.866044 0.499967 679.061 433.922)" stroke="#FAFAFA"/>
<line y1="-0.5" x2="109.005" y2="-0.5" transform="matrix(0.857562 -0.504817 0.874445 0.49507 697.646 444.656)" stroke="#FAFAFA"/>
<line y1="-0.5" x2="47" y2="-0.5" transform="matrix(0.866044 -0.499967 0.866044 0.499967 715.311 454.852)" stroke="#FAFAFA"/>
<line y1="-0.5" x2="47" y2="-0.5" transform="matrix(0.866044 -0.499967 0.866044 0.499967 733.436 465.312)" stroke="#FAFAFA"/>
<line y1="-0.5" x2="47" y2="-0.5" transform="matrix(0.866044 -0.499967 0.866044 0.499967 751.561 475.781)" stroke="#FAFAFA"/>
<line y1="-0.5" x2="26" y2="-0.5" transform="matrix(0.866044 -0.499967 0.866044 0.499967 769.686 486.242)" stroke="#FAFAFA"/>
<rect y="-0.499967" width="677" height="179" rx="30.5" transform="matrix(0.866044 0.499967 -0.866044 0.499967 179.879 180.742)" fill="black"/>
<rect y="-0.499967" width="677" height="179" rx="30.5" transform="matrix(0.866044 0.499967 -0.866044 0.499967 179.879 180.742)" stroke="#FAFAFA"/>
</svg>
