<svg width="1080" height="730" viewBox="0 0 1080 730" fill="none" xmlns="http://www.w3.org/2000/svg">
<g clip-path="url(#clip0_4434_223784)">
<rect width="706" height="540" rx="40" transform="matrix(0.866044 0.499967 -0.866044 0.499967 467.838 107)" fill="white"/>
<rect y="-0.167989" width="676.336" height="510.336" rx="14.168" transform="matrix(0.866044 0.499967 -0.866044 0.499967 467.692 121.916)" fill="black" fill-opacity="0.1"/>
<rect y="-0.167989" width="676.336" height="510.336" rx="14.168" transform="matrix(0.866044 0.499967 -0.866044 0.499967 467.692 121.916)" stroke="#F5F5F5" stroke-width="0.336"/>
<path d="M151.349 422.258L180.448 405.459L189.385 410.618C192.434 412.378 194.415 414.21 195.33 416.114C196.272 418.002 196.161 419.874 194.997 421.73C193.889 423.586 191.838 425.378 188.845 427.105C185.963 428.769 182.914 429.937 179.699 430.609C176.512 431.265 173.256 431.353 169.93 430.873C166.632 430.377 163.445 429.241 160.369 427.465L151.349 422.258ZM161.99 425.954C164.346 427.313 166.591 428.241 168.725 428.737C170.914 429.233 172.896 429.401 174.669 429.241C176.692 429.033 178.605 428.649 180.406 428.089C182.207 427.529 184.106 426.673 186.101 425.522C188.097 424.37 189.579 423.274 190.549 422.234C191.547 421.21 192.198 420.114 192.503 418.946C192.836 417.858 192.517 416.682 191.547 415.418C190.605 414.138 189.039 412.866 186.849 411.602L180.78 408.099L155.921 422.45L161.99 425.954ZM183.998 441.682C181.975 440.514 180.839 439.25 180.589 437.89C180.368 436.547 181.143 435.363 182.917 434.339C184.164 433.619 185.467 433.187 186.825 433.043C188.21 432.915 189.596 432.995 190.982 433.283C192.367 433.571 193.822 434.011 195.347 434.603L204.825 438.298C204.908 438.25 204.991 438.202 205.074 438.154C205.157 438.106 205.226 438.066 205.282 438.034C206.418 437.379 207.25 436.803 207.776 436.307C208.358 435.811 208.635 435.299 208.607 434.771C208.607 434.259 208.344 433.723 207.818 433.163C207.319 432.619 206.584 432.067 205.614 431.507C203.564 430.323 201.679 429.699 199.961 429.635C198.27 429.555 196.497 430.051 194.64 431.123L192.603 429.563C193.684 428.907 194.862 428.435 196.136 428.147C197.467 427.859 198.769 427.763 200.044 427.859C201.319 427.955 202.594 428.227 203.868 428.675C205.199 429.123 206.474 429.699 207.693 430.403C209.383 431.379 210.547 432.339 211.185 433.283C211.878 434.227 212.002 435.163 211.559 436.091C211.143 437.003 210.146 437.914 208.566 438.826L197.675 445.114C197.065 445.466 196.718 445.746 196.635 445.954C196.608 446.162 196.871 446.426 197.425 446.746C197.896 447.018 198.492 447.282 199.213 447.538L197.259 448.714C196.427 448.394 195.693 448.05 195.056 447.682C193.919 447.026 193.393 446.37 193.476 445.714C193.559 445.058 194.377 444.314 195.929 443.482L196.427 443.482C194.515 444.01 192.478 444.146 190.317 443.89C188.183 443.618 186.076 442.882 183.998 441.682ZM186.409 440.77C188.654 442.066 190.94 442.746 193.268 442.81C195.624 442.89 197.758 442.378 199.67 441.274L204.159 438.682L204.409 439.882L193.725 435.875L193.31 435.731C191.675 435.139 190.247 434.827 189.028 434.795C187.836 434.747 186.672 435.051 185.536 435.707C184.261 436.443 183.721 437.267 183.915 438.178C184.137 439.074 184.968 439.938 186.409 440.77ZM205.132 453.547C203.663 452.699 202.901 451.891 202.845 451.123C202.79 450.355 203.455 449.571 204.841 448.771L219.681 440.204L216.48 438.356L218.517 437.18L221.718 439.028L227.455 435.716L229.866 437.108L224.129 440.42L228.411 442.892L226.374 444.067L222.092 441.596L207.21 450.187C206.518 450.587 206.199 450.947 206.254 451.267C206.337 451.571 206.739 451.931 207.46 452.347C208.125 452.731 208.942 453.107 209.912 453.475L207.751 454.771C206.781 454.403 205.908 453.995 205.132 453.547ZM216.451 460.418C214.428 459.25 213.292 457.986 213.043 456.626C212.821 455.282 213.597 454.098 215.37 453.074C216.618 452.354 217.92 451.922 219.278 451.778C220.664 451.65 222.049 451.73 223.435 452.018C224.821 452.306 226.276 452.746 227.8 453.338L237.278 457.034C237.361 456.986 237.444 456.938 237.527 456.89C237.61 456.842 237.68 456.802 237.735 456.77C238.871 456.114 239.703 455.538 240.229 455.042C240.811 454.546 241.088 454.034 241.061 453.506C241.061 452.994 240.797 452.458 240.271 451.898C239.772 451.354 239.038 450.802 238.068 450.242C236.017 449.058 234.132 448.434 232.414 448.37C230.724 448.29 228.95 448.786 227.093 449.858L225.056 448.298C226.137 447.642 227.315 447.17 228.59 446.882C229.92 446.594 231.223 446.498 232.497 446.594C233.772 446.69 235.047 446.962 236.322 447.41C237.652 447.858 238.927 448.434 240.146 449.138C241.837 450.114 243.001 451.074 243.638 452.018C244.331 452.962 244.456 453.898 244.012 454.826C243.597 455.738 242.599 456.65 241.019 457.562L230.128 463.849C229.518 464.201 229.172 464.481 229.089 464.689C229.061 464.897 229.324 465.161 229.878 465.481C230.35 465.753 230.945 466.017 231.666 466.273L229.712 467.449C228.881 467.129 228.146 466.785 227.509 466.417C226.373 465.761 225.846 465.105 225.929 464.449C226.012 463.793 226.83 463.049 228.382 462.217L228.881 462.217C226.969 462.745 224.932 462.881 222.77 462.625C220.636 462.353 218.53 461.617 216.451 460.418ZM218.862 459.506C221.107 460.801 223.393 461.481 225.721 461.545C228.077 461.625 230.211 461.113 232.123 460.01L236.613 457.418L236.862 458.618L226.179 454.61L225.763 454.466C224.128 453.874 222.701 453.562 221.481 453.53C220.29 453.482 219.126 453.786 217.989 454.442C216.715 455.178 216.174 456.002 216.368 456.914C216.59 457.81 217.421 458.674 218.862 459.506ZM249.106 479.221C247.138 478.085 245.877 476.893 245.323 475.645C244.769 474.397 244.769 473.229 245.323 472.141C245.877 471.054 246.764 470.158 247.983 469.454C249.48 468.59 251.101 468.022 252.847 467.75C254.621 467.494 256.478 467.446 258.418 467.606C260.358 467.766 262.588 468.078 265.11 468.542L264.154 469.478C264.21 469.254 264.251 469.038 264.279 468.83C264.334 468.606 264.362 468.382 264.362 468.158C264.556 467.086 264.75 466.222 264.944 465.566C265.138 464.91 265.457 464.294 265.9 463.718C266.371 463.158 267.023 462.638 267.854 462.158C268.907 461.55 270.154 461.15 271.595 460.958C273.092 460.766 274.602 460.806 276.126 461.078C277.678 461.366 279.092 461.878 280.367 462.614C281.586 463.318 282.431 464.094 282.902 464.942C283.401 465.806 283.484 466.654 283.152 467.486C282.819 468.318 282.057 469.078 280.865 469.766C279.729 470.422 278.399 470.854 276.875 471.062C275.35 471.27 273.715 471.318 271.969 471.206C270.224 471.094 268.325 470.862 266.274 470.51L267.272 469.598L265.817 479.701L264.986 479.269C266.177 479.061 267.549 478.701 269.101 478.189C270.653 477.677 272.094 477.069 273.424 476.365L275.337 477.901C273.674 478.701 272.053 479.349 270.473 479.845C268.921 480.325 267.258 480.741 265.485 481.093C265.401 481.109 265.318 481.125 265.235 481.141C265.18 481.141 265.11 481.149 265.027 481.165L265.734 480.229L264.819 487.764L261.66 485.941L262.491 480.757L263.198 481.405C260.732 481.741 258.237 481.741 255.716 481.405C253.221 481.053 251.018 480.325 249.106 479.221ZM251.268 478.069C253.013 479.077 254.995 479.677 257.212 479.869C259.485 480.061 261.799 479.941 264.154 479.509L262.45 480.877L264.279 469.262L265.443 470.318L264.154 470.102C262.048 469.718 260.247 469.462 258.75 469.334C257.309 469.206 255.91 469.246 254.552 469.454C253.194 469.662 251.933 470.102 250.769 470.774C249.577 471.462 248.801 472.229 248.441 473.077C248.108 473.941 248.177 474.813 248.649 475.693C249.147 476.557 250.02 477.349 251.268 478.069ZM266.815 468.902C267.009 468.918 267.189 468.942 267.355 468.974C267.577 469.006 267.799 469.038 268.02 469.07C270.265 469.406 272.247 469.558 273.965 469.526C275.738 469.494 277.221 469.15 278.413 468.494C279.632 467.854 280.256 467.094 280.283 466.214C280.367 465.334 279.729 464.502 278.371 463.718C277.096 462.982 275.711 462.598 274.214 462.566C272.718 462.534 271.401 462.846 270.265 463.502C269.572 463.902 269.032 464.39 268.644 464.966C268.256 465.542 267.951 466.294 267.729 467.222C267.508 468.246 267.383 469.118 267.355 469.838L266.815 468.902ZM271.468 491.603L312.124 481.476L314.535 482.867L296.992 506.338L294.457 504.874L307.177 488.219C307.399 487.931 307.621 487.627 307.842 487.307C308.092 487.003 308.341 486.683 308.59 486.347C308.951 485.915 309.311 485.467 309.671 485.003C310.059 484.555 310.42 484.091 310.752 483.611L310.711 483.587C310.018 483.795 309.297 483.987 308.549 484.163C307.856 484.339 307.163 484.531 306.47 484.739C305.861 484.899 305.251 485.059 304.641 485.219C304.032 485.379 303.408 485.531 302.771 485.675L274.046 493.091L271.468 491.603ZM285.976 489.179L288.969 488.411L302.771 496.379L301.44 498.106L285.976 489.179ZM299.777 507.945L320.437 496.018L322.848 497.41L317.776 500.338L317.984 499.93C320.007 499.242 322.072 498.994 324.178 499.186C326.285 499.378 328.308 500.034 330.248 501.154C331.522 501.89 332.451 502.65 333.033 503.434C333.67 504.218 333.989 505.009 333.989 505.809C333.961 506.657 333.518 507.457 332.659 508.209C331.827 508.945 330.705 509.721 329.291 510.537L316.779 517.761L314.285 516.321L326.382 509.337C326.409 509.321 326.437 509.305 326.465 509.289C326.492 509.273 326.52 509.257 326.548 509.241C327.795 508.521 328.751 507.889 329.416 507.345C330.081 506.801 330.442 506.193 330.497 505.521C330.58 504.865 330.358 504.258 329.832 503.698C329.305 503.138 328.543 502.57 327.545 501.994C325.966 501.082 323.97 500.554 321.559 500.41C319.204 500.266 316.599 501.018 313.744 502.666L302.188 509.337L299.777 507.945ZM327.329 524.428C325.306 523.26 324.17 521.996 323.921 520.636C323.699 519.292 324.475 518.108 326.249 517.084C327.496 516.364 328.798 515.932 330.156 515.788C331.542 515.66 332.928 515.74 334.313 516.028C335.699 516.316 337.154 516.756 338.678 517.348L348.156 521.044C348.239 520.996 348.322 520.948 348.406 520.9C348.489 520.852 348.558 520.812 348.613 520.78C349.75 520.124 350.581 519.548 351.108 519.052C351.69 518.556 351.967 518.044 351.939 517.516C351.939 517.004 351.676 516.468 351.149 515.908C350.65 515.364 349.916 514.812 348.946 514.252C346.895 513.068 345.011 512.444 343.292 512.38C341.602 512.3 339.828 512.796 337.971 513.868L335.935 512.308C337.015 511.652 338.193 511.18 339.468 510.892C340.798 510.604 342.101 510.508 343.376 510.604C344.65 510.7 345.925 510.972 347.2 511.42C348.53 511.868 349.805 512.444 351.024 513.148C352.715 514.124 353.879 515.084 354.516 516.028C355.209 516.972 355.334 517.908 354.89 518.836C354.475 519.748 353.477 520.66 351.897 521.572L341.006 527.859C340.396 528.211 340.05 528.491 339.967 528.699C339.939 528.907 340.202 529.171 340.757 529.491C341.228 529.763 341.824 530.027 342.544 530.283L340.59 531.459C339.759 531.139 339.025 530.795 338.387 530.427C337.251 529.771 336.724 529.115 336.807 528.459C336.891 527.803 337.708 527.059 339.26 526.227L339.759 526.227C337.847 526.755 335.81 526.891 333.648 526.635C331.514 526.363 329.408 525.627 327.329 524.428ZM329.741 523.516C331.985 524.811 334.272 525.491 336.6 525.555C338.955 525.635 341.089 525.123 343.001 524.02L347.491 521.428L347.74 522.628L337.057 518.62L336.641 518.476C335.006 517.884 333.579 517.572 332.359 517.54C331.168 517.492 330.004 517.796 328.868 518.452C327.593 519.188 327.052 520.012 327.246 520.924C327.468 521.82 328.299 522.684 329.741 523.516ZM343.556 533.219L372.655 516.42L375.066 517.812L345.967 534.611L343.556 533.219ZM343.556 533.219L345.593 532.043L348.004 533.435L345.967 534.611L343.556 533.219ZM370.618 517.596L372.655 516.42L373.985 517.188L371.949 518.364L370.618 517.596ZM345.14 543.973C344.669 543.701 344.239 543.405 343.851 543.085C343.491 542.781 343.145 542.453 342.812 542.101L345.182 540.829C345.431 541.133 345.722 541.429 346.055 541.717C346.387 542.037 346.747 542.309 347.135 542.533C347.662 542.837 348.23 543.005 348.84 543.037C349.477 543.085 350.295 543.013 351.292 542.821C352.262 542.645 353.731 542.293 355.699 541.765C356.087 541.669 356.489 541.565 356.904 541.453C357.292 541.357 357.708 541.245 358.151 541.117L355.99 542.317L369.625 524.414L372.202 525.902L363.181 537.205C362.96 537.493 362.71 537.781 362.433 538.069C362.212 538.357 361.976 538.669 361.727 539.005C361.422 539.341 361.117 539.693 360.812 540.061C360.535 540.413 360.258 540.765 359.981 541.117L359.399 540.973C360.175 540.749 360.881 540.533 361.519 540.325C362.212 540.117 362.863 539.933 363.472 539.773C363.916 539.645 364.359 539.517 364.803 539.389C365.302 539.261 365.8 539.133 366.299 539.005L385.712 533.702L388.248 535.166L355.782 543.781C353.87 544.277 352.29 544.613 351.043 544.789C349.824 544.981 348.743 545.013 347.801 544.885C346.886 544.773 345.999 544.469 345.14 543.973ZM375.517 551.91C374.049 551.062 373.286 550.255 373.231 549.487C373.176 548.719 373.841 547.935 375.226 547.135L390.067 538.567L386.866 536.719L388.903 535.543L392.104 537.391L397.841 534.08L400.252 535.471L394.515 538.783L398.797 541.255L396.76 542.431L392.478 539.959L377.596 548.551C376.903 548.951 376.584 549.311 376.64 549.631C376.723 549.935 377.125 550.295 377.845 550.71C378.51 551.094 379.328 551.47 380.298 551.838L378.136 553.134C377.166 552.766 376.293 552.358 375.517 551.91ZM406.79 540.686L410.573 538.502L412.984 539.894L409.202 542.078L406.79 540.686ZM381.641 555.205L402.301 543.278L404.712 544.67L384.052 556.597L381.641 555.205ZM381.641 555.205L383.677 554.029L386.089 555.421L384.052 556.597L381.641 555.205ZM400.264 544.454L402.301 543.278L404.712 544.67L402.675 545.846L400.264 544.454ZM397.774 565.047C395.64 563.815 394.268 562.511 393.659 561.135C393.077 559.775 393.215 558.416 394.074 557.056C394.961 555.68 396.485 554.368 398.647 553.12C400.725 551.92 402.97 551.072 405.381 550.576C407.82 550.096 410.245 550.024 412.656 550.36C415.095 550.68 417.326 551.424 419.349 552.592C421.76 553.984 423.062 555.472 423.256 557.056C423.478 558.624 422.758 560.159 421.095 561.663L418.31 560.583C419.64 559.367 420.277 558.2 420.222 557.08C420.166 555.96 419.183 554.848 417.27 553.744C415.968 552.992 414.624 552.472 413.238 552.184C411.908 551.896 410.55 551.816 409.164 551.944C407.889 552.04 406.573 552.32 405.215 552.784C403.885 553.264 402.568 553.88 401.266 554.632C398.495 556.232 396.915 557.8 396.527 559.335C396.139 560.871 397.234 562.383 399.811 563.871C401.668 564.943 403.538 565.559 405.423 565.719C407.307 565.879 409.33 565.559 411.492 564.759L413.529 566.223C411.866 566.863 410.12 567.247 408.291 567.375C406.49 567.519 404.675 567.399 402.846 567.015C401.044 566.615 399.354 565.959 397.774 565.047ZM417.825 576.623C415.22 575.119 413.737 573.543 413.377 571.895C413.072 570.247 414.084 568.767 416.412 567.455L418.906 568.655C417.132 569.647 416.37 570.759 416.62 571.991C416.897 573.239 417.991 574.415 419.904 575.519C421.733 576.575 423.492 577.191 425.183 577.367C426.901 577.559 428.412 577.279 429.714 576.527C430.573 576.031 430.989 575.471 430.961 574.847C430.934 574.223 430.629 573.599 430.047 572.975C429.492 572.367 428.661 571.583 427.552 570.623C427.414 570.479 427.275 570.351 427.137 570.239C426.998 570.127 426.86 569.999 426.721 569.855C425.529 568.783 424.67 567.855 424.144 567.071C423.617 566.287 423.437 565.527 423.603 564.791C423.797 564.071 424.449 563.391 425.557 562.752C426.693 562.096 428.01 561.704 429.506 561.576C431.031 561.432 432.569 561.552 434.121 561.936C435.728 562.32 437.252 562.927 438.693 563.759C440.993 565.087 442.324 566.495 442.684 567.983C443.072 569.455 442.31 570.887 440.398 572.279L437.737 571.175C439.206 570.167 439.857 569.119 439.691 568.031C439.552 566.927 438.569 565.847 436.739 564.791C435.271 563.943 433.746 563.431 432.167 563.255C430.587 563.079 429.243 563.311 428.134 563.951C427.081 564.559 426.693 565.247 426.97 566.015C427.303 566.783 428.19 567.823 429.631 569.135C429.714 569.215 429.811 569.287 429.922 569.351C430.033 569.415 430.116 569.479 430.171 569.543C430.199 569.591 430.241 569.647 430.296 569.711C430.379 569.759 430.449 569.799 430.504 569.831C431.834 570.983 432.818 571.967 433.455 572.783C434.148 573.599 434.425 574.431 434.287 575.279C434.204 576.127 433.497 576.935 432.167 577.703C430.144 578.87 427.843 579.334 425.266 579.094C422.744 578.854 420.264 578.031 417.825 576.623ZM450.151 595.333C447.962 594.069 446.327 592.709 445.246 591.253C444.193 589.781 443.874 588.301 444.29 586.813C444.733 585.341 446.05 583.973 448.239 582.709L451.149 584.053C448.461 585.605 447.283 587.293 447.616 589.117C447.976 590.925 449.514 592.613 452.23 594.181C453.976 595.189 455.722 595.925 457.468 596.389C459.241 596.836 460.96 596.996 462.622 596.868C464.341 596.74 465.893 596.277 467.278 595.477C468.581 594.725 469.232 593.933 469.232 593.101C469.26 592.285 468.872 591.469 468.068 590.653C467.32 589.837 466.128 588.749 464.493 587.389C464.299 587.213 464.077 587.037 463.828 586.861C463.606 586.669 463.412 586.477 463.246 586.285C461.555 584.861 460.308 583.581 459.505 582.445C458.701 581.309 458.382 580.198 458.549 579.11C458.743 578.038 459.643 577.038 461.251 576.11C462.969 575.118 464.867 574.55 466.946 574.406C469.08 574.262 471.186 574.454 473.264 574.982C475.398 575.51 477.352 576.286 479.126 577.31C482.313 579.15 484.17 581.07 484.696 583.069C485.25 585.053 484.059 587.069 481.121 589.117L478.128 587.917C480.595 586.429 481.675 584.861 481.371 583.213C481.093 581.549 479.652 579.966 477.047 578.462C475.772 577.726 474.345 577.158 472.766 576.758C471.214 576.342 469.648 576.174 468.068 576.254C466.516 576.35 465.117 576.758 463.87 577.478C462.65 578.182 462.068 578.982 462.124 579.878C462.179 580.774 462.636 581.709 463.495 582.685C464.382 583.645 465.657 584.797 467.32 586.141C467.32 586.173 467.334 586.197 467.361 586.213C467.417 586.245 467.472 586.277 467.528 586.309C469.468 587.877 470.895 589.213 471.809 590.317C472.724 591.421 473.07 592.517 472.849 593.605C472.682 594.693 471.699 595.757 469.897 596.796C468.04 597.868 465.99 598.508 463.745 598.716C461.5 598.924 459.228 598.732 456.927 598.14C454.627 597.548 452.368 596.613 450.151 595.333ZM471.01 607.038C469.541 606.19 468.779 605.382 468.723 604.614C468.668 603.846 469.333 603.062 470.719 602.262L485.559 593.695L482.358 591.847L484.395 590.671L487.596 592.519L493.333 589.207L495.744 590.599L490.007 593.911L494.289 596.383L492.252 597.559L487.97 595.087L473.088 603.678C472.395 604.078 472.077 604.438 472.132 604.758C472.215 605.062 472.617 605.422 473.338 605.838C474.003 606.222 474.82 606.598 475.79 606.966L473.629 608.262C472.659 607.894 471.786 607.486 471.01 607.038ZM482.329 613.909C480.306 612.741 479.17 611.477 478.921 610.117C478.699 608.773 479.475 607.589 481.248 606.565C482.496 605.845 483.798 605.413 485.156 605.269C486.542 605.141 487.927 605.221 489.313 605.509C490.699 605.797 492.154 606.237 493.678 606.829L503.156 610.525C503.239 610.477 503.322 610.429 503.405 610.381C503.488 610.333 503.558 610.293 503.613 610.261C504.749 609.605 505.581 609.029 506.107 608.533C506.689 608.037 506.966 607.525 506.939 606.997C506.939 606.485 506.675 605.949 506.149 605.389C505.65 604.845 504.916 604.293 503.946 603.734C501.895 602.55 500.01 601.926 498.292 601.862C496.602 601.782 494.828 602.278 492.971 603.35L490.934 601.79C492.015 601.134 493.193 600.662 494.468 600.374C495.798 600.086 497.101 599.99 498.375 600.086C499.65 600.182 500.925 600.454 502.2 600.902C503.53 601.35 504.805 601.926 506.024 602.63C507.715 603.606 508.879 604.565 509.516 605.509C510.209 606.453 510.334 607.389 509.89 608.317C509.475 609.229 508.477 610.141 506.897 611.053L496.006 617.341C495.396 617.693 495.05 617.973 494.967 618.181C494.939 618.389 495.202 618.653 495.756 618.973C496.228 619.245 496.823 619.509 497.544 619.764L495.59 620.94C494.759 620.62 494.024 620.276 493.387 619.908C492.251 619.253 491.724 618.597 491.807 617.941C491.89 617.285 492.708 616.541 494.26 615.709L494.759 615.709C492.846 616.237 490.81 616.373 488.648 616.117C486.514 615.845 484.408 615.109 482.329 613.909ZM484.74 612.997C486.985 614.293 489.271 614.973 491.599 615.037C493.955 615.117 496.089 614.605 498.001 613.501L502.491 610.909L502.74 612.109L492.057 608.101L491.641 607.957C490.006 607.365 488.579 607.053 487.359 607.021C486.168 606.973 485.004 607.277 483.867 607.933C482.593 608.669 482.052 609.493 482.246 610.405C482.468 611.301 483.299 612.165 484.74 612.997ZM506.704 627.932C504.57 626.7 503.198 625.396 502.588 624.02C502.006 622.661 502.145 621.301 503.004 619.941C503.891 618.565 505.415 617.253 507.577 616.005C509.655 614.805 511.9 613.957 514.311 613.461C516.75 612.981 519.175 612.909 521.586 613.245C524.025 613.565 526.255 614.309 528.279 615.477C530.69 616.869 531.992 618.357 532.186 619.941C532.408 621.509 531.687 623.045 530.024 624.548L527.239 623.469C528.57 622.253 529.207 621.085 529.152 619.965C529.096 618.845 528.112 617.733 526.2 616.629C524.898 615.877 523.553 615.357 522.168 615.069C520.837 614.781 519.48 614.701 518.094 614.829C516.819 614.925 515.503 615.205 514.145 615.669C512.814 616.149 511.498 616.765 510.196 617.517C507.424 619.117 505.845 620.685 505.457 622.221C505.069 623.756 506.163 625.268 508.741 626.756C510.597 627.828 512.468 628.444 514.353 628.604C516.237 628.764 518.26 628.444 520.422 627.644L522.459 629.108C520.796 629.748 519.05 630.132 517.221 630.26C515.42 630.404 513.604 630.284 511.775 629.9C509.974 629.5 508.283 628.844 506.704 627.932ZM519.979 635.068L549.078 618.269L551.489 619.661L522.39 636.46L519.979 635.068ZM529.914 631.828L532.699 630.268L553.734 630.7L556.935 632.548L540.514 632.092H538.852L529.914 631.828ZM533.905 643.107L538.02 631.852L541.304 631.876L536.69 644.715L533.905 643.107Z" fill="black"/>
</g>
<rect width="706" height="540" rx="40" transform="matrix(0.866044 0.499967 -0.866044 0.499967 467.838 0)" fill="white"/>
<rect width="331" height="160" rx="24" transform="matrix(0.866044 0.499967 -0.866044 0.499967 467.838 15)" fill="black" fill-opacity="0.1"/>
<line y1="-0.5" x2="21" y2="-0.5" transform="matrix(0.866044 -0.499967 0.866044 0.499967 363.912 94.9922)" stroke="black"/>
<line y1="-0.5" x2="50" y2="-0.5" transform="matrix(0.866044 -0.499967 0.866044 0.499967 384.914 107.117)" stroke="black"/>
<line y1="-0.5" x2="55" y2="-0.5" transform="matrix(0.866044 -0.499967 0.866044 0.499967 405.916 119.242)" stroke="black"/>
<line y1="-0.5" x2="79" y2="-0.5" transform="matrix(0.866044 -0.499967 0.866044 0.499967 426.918 131.367)" stroke="black"/>
<line y1="-0.5" x2="79" y2="-0.5" transform="matrix(0.866044 -0.499967 0.866044 0.499967 447.918 143.492)" stroke="black"/>
<line y1="-0.5" x2="79" y2="-0.5" transform="matrix(0.866044 -0.499967 0.866044 0.499967 468.92 155.617)" stroke="black"/>
<line y1="-0.5" x2="59" y2="-0.5" transform="matrix(0.866044 -0.499967 0.866044 0.499967 489.922 167.742)" stroke="black"/>
<line y1="-0.5" x2="70" y2="-0.5" transform="matrix(0.866044 -0.499967 0.866044 0.499967 510.924 179.867)" stroke="black"/>
<line y1="-0.5" x2="59" y2="-0.5" transform="matrix(0.866044 -0.499967 0.866044 0.499967 531.926 191.992)" stroke="black"/>
<line y1="-0.5" x2="101" y2="-0.5" transform="matrix(0.866044 -0.499967 0.866044 0.499967 552.926 204.109)" stroke="black"/>
<line y1="-0.5" x2="89" y2="-0.5" transform="matrix(0.866044 -0.499967 0.866044 0.499967 573.928 216.234)" stroke="black"/>
<line y1="-0.5" x2="70" y2="-0.5" transform="matrix(0.866044 -0.499967 0.866044 0.499967 594.93 228.359)" stroke="black"/>
<line y1="-0.5" x2="30" y2="-0.5" transform="matrix(0.866044 -0.499967 0.866044 0.499967 615.932 240.484)" stroke="black"/>
<rect width="331" height="160" rx="24" transform="matrix(0.866044 0.499967 -0.866044 0.499967 766.623 187.492)" fill="black" fill-opacity="0.1"/>
<path d="M683.906 257.246L683.003 260.328C682.101 263.41 680.296 269.574 682.346 273.514C684.396 277.453 690.301 279.167 698.984 279.276C707.668 279.385 719.131 277.89 724.251 280.057C729.372 282.223 728.15 288.051 729.116 292.616C730.082 297.181 733.235 300.483 738.204 302.737C743.173 304.991 749.957 306.196 758.689 306.278C767.421 306.36 778.1 305.317 787.699 304.898C797.298 304.479 805.817 304.683 808.121 308.476C810.425 312.268 806.513 319.649 811.453 321.919C816.393 324.19 830.184 321.351 835.55 323.376C840.916 325.401 837.856 332.289 839.097 336.696C840.337 341.102 845.878 343.026 853.652 343.66C861.426 344.295 871.434 343.64 882.309 342.484C893.185 341.328 904.929 339.671 913.982 339.567C923.036 339.462 929.4 340.911 934.941 342.834C940.482 344.758 945.202 347.156 946.302 351.643C947.402 356.13 944.884 362.707 949.463 365.186C954.042 367.665 965.718 366.047 974.389 366.163C983.06 366.28 988.727 368.131 991.56 369.057L994.393 369.983" stroke="black"/>
<rect width="331" height="160" rx="24" transform="matrix(0.866044 0.499967 -0.866044 0.499967 316.279 102.492)" fill="black" fill-opacity="0.1"/>
<path d="M414.012 263.518C400.752 266.252 386.376 266.629 372.742 264.599C359.108 262.569 346.84 258.227 337.523 252.132C328.207 246.037 322.268 238.47 320.475 230.408C318.682 222.346 321.117 214.158 327.464 206.902C333.812 199.646 343.781 193.656 356.085 189.704C368.389 185.751 382.463 184.019 396.49 184.731C410.516 185.442 423.851 188.564 434.773 193.695C445.695 198.825 453.702 205.727 457.761 213.511" stroke="black"/>
<rect width="160" height="331" rx="24" transform="matrix(-0.866044 0.499967 -0.866044 -0.499967 901.725 440.469)" fill="black" fill-opacity="0.1"/>
<line y1="-0.5" x2="39" y2="-0.5" transform="matrix(0.866044 0.499967 -0.866044 0.499967 615.064 294.977)" stroke="black"/>
<line y1="-0.5" x2="149" y2="-0.5" transform="matrix(0.866044 0.499967 -0.866044 0.499967 594.279 306.977)" stroke="black"/>
<line y1="-0.5" x2="111" y2="-0.5" transform="matrix(0.866044 0.499967 -0.866044 0.499967 573.494 318.977)" stroke="black"/>
<line y1="-0.5" x2="168" y2="-0.5" transform="matrix(0.866044 0.499967 -0.866044 0.499967 552.709 330.977)" stroke="black"/>
<line y1="-0.5" x2="132" y2="-0.5" transform="matrix(0.866044 0.499967 -0.866044 0.499967 531.924 342.977)" stroke="black"/>
<line y1="-0.5" x2="57" y2="-0.5" transform="matrix(0.866044 0.499967 -0.866044 0.499967 511.139 354.977)" stroke="black"/>
<rect width="676" height="160" rx="24" transform="matrix(0.866044 0.499967 -0.866044 0.499967 164.723 189.992)" fill="black" fill-opacity="0.1"/>
<line y1="-0.5" x2="50" y2="-0.5" transform="matrix(0.866044 -0.499967 0.866044 0.499967 60.7969 269.984)" stroke="black"/>
<line y1="-0.5" x2="60" y2="-0.5" transform="matrix(0.866044 -0.499967 0.866044 0.499967 89.7871 286.727)" stroke="black"/>
<line y1="-0.5" x2="101" y2="-0.5" transform="matrix(0.866044 -0.499967 0.866044 0.499967 118.777 303.461)" stroke="black"/>
<line y1="-0.5" x2="79" y2="-0.5" transform="matrix(0.866044 -0.499967 0.866044 0.499967 147.766 320.195)" stroke="black"/>
<line y1="-0.5" x2="79" y2="-0.5" transform="matrix(0.866044 -0.499967 0.866044 0.499967 176.756 336.93)" stroke="black"/>
<line y1="-0.5" x2="79" y2="-0.5" transform="matrix(0.866044 -0.499967 0.866044 0.499967 205.746 353.664)" stroke="black"/>
<line y1="-0.5" x2="101" y2="-0.5" transform="matrix(0.866044 -0.499967 0.866044 0.499967 234.736 370.398)" stroke="black"/>
<line y1="-0.5" x2="101" y2="-0.5" transform="matrix(0.866044 -0.499967 0.866044 0.499967 263.725 387.141)" stroke="black"/>
<line y1="-0.5" x2="101" y2="-0.5" transform="matrix(0.866044 -0.499967 0.866044 0.499967 292.715 403.875)" stroke="black"/>
<line y1="-0.5" x2="101" y2="-0.5" transform="matrix(0.866044 -0.499967 0.866044 0.499967 321.705 420.609)" stroke="black"/>
<line y1="-0.5" x2="79" y2="-0.5" transform="matrix(0.866044 -0.499967 0.866044 0.499967 350.693 437.344)" stroke="black"/>
<line y1="-0.5" x2="50" y2="-0.5" transform="matrix(0.866044 -0.499967 0.866044 0.499967 379.684 454.078)" stroke="black"/>
<line y1="-0.5" x2="101" y2="-0.5" transform="matrix(0.866044 -0.499967 0.866044 0.499967 408.674 470.812)" stroke="black"/>
<line y1="-0.5" x2="101" y2="-0.5" transform="matrix(0.866044 -0.499967 0.866044 0.499967 437.664 487.555)" stroke="black"/>
<line y1="-0.5" x2="101" y2="-0.5" transform="matrix(0.866044 -0.499967 0.866044 0.499967 466.652 504.289)" stroke="black"/>
<line y1="-0.5" x2="101" y2="-0.5" transform="matrix(0.866044 -0.499967 0.866044 0.499967 495.643 521.023)" stroke="black"/>
<line y1="-0.5" x2="60" y2="-0.5" transform="matrix(0.866044 -0.499967 0.866044 0.499967 524.633 537.758)" stroke="black"/>
<line y1="-0.5" x2="60" y2="-0.5" transform="matrix(0.866044 -0.499967 0.866044 0.499967 553.623 554.492)" stroke="black"/>
<line y1="-0.5" x2="70" y2="-0.5" transform="matrix(0.866044 -0.499967 0.866044 0.499967 582.611 571.234)" stroke="black"/>
<line y1="-0.5" x2="30" y2="-0.5" transform="matrix(0.866044 -0.499967 0.866044 0.499967 611.602 587.969)" stroke="black"/>
<defs>
<clipPath id="clip0_4434_223784">
<rect width="706" height="540" rx="40" transform="matrix(0.866044 0.499967 -0.866044 0.499967 467.838 107)" fill="white"/>
</clipPath>
</defs>
</svg>
