<svg width="1081" height="726" viewBox="0 0 1081 726" fill="none" xmlns="http://www.w3.org/2000/svg">
<rect y="-0.499967" width="707" height="541" rx="40.5" transform="matrix(0.866044 0.499967 -0.866044 0.499967 468.405 102.75)" fill="black"/>
<rect y="-0.499967" width="707" height="541" rx="40.5" transform="matrix(0.866044 0.499967 -0.866044 0.499967 468.405 102.75)" stroke="#FAFAFA"/>
<rect width="676" height="510" rx="20" transform="matrix(0.866044 0.499967 -0.866044 0.499967 468.838 118)" fill="black"/>
<path d="M160.989 416.247L187.968 400.672L178.282 395.08L180.402 393.856L202.268 406.479L200.148 407.703L190.462 402.112L163.483 417.687L160.989 416.247ZM172.3 422.776L192.96 410.849L195.371 412.241L189.51 415.625L189.801 415.265C191.048 414.673 192.364 414.297 193.75 414.137C195.163 413.961 196.563 414.001 197.948 414.257C199.362 414.497 200.72 414.913 202.022 415.505C202.244 415.601 202.452 415.705 202.646 415.817C202.867 415.945 203.075 416.065 203.269 416.177C203.325 416.209 203.38 416.241 203.436 416.273C203.519 416.321 203.602 416.369 203.685 416.417L201.274 417.713C201.052 417.553 200.664 417.313 200.11 416.993C198.78 416.225 197.366 415.713 195.87 415.457C194.401 415.217 192.738 415.313 190.881 415.745C189.052 416.193 187.029 417.057 184.812 418.336L174.711 424.168L172.3 422.776ZM190.231 433.704C188.208 432.536 187.072 431.272 186.822 429.912C186.601 428.568 187.377 427.385 189.15 426.361C190.397 425.641 191.7 425.209 193.058 425.065C194.444 424.937 195.829 425.017 197.215 425.305C198.601 425.593 200.056 426.033 201.58 426.625L211.058 430.32C211.141 430.272 211.224 430.224 211.307 430.176C211.39 430.128 211.46 430.088 211.515 430.056C212.651 429.4 213.483 428.824 214.009 428.328C214.591 427.832 214.868 427.321 214.841 426.793C214.841 426.281 214.577 425.745 214.051 425.185C213.552 424.641 212.818 424.089 211.848 423.529C209.797 422.345 207.912 421.721 206.194 421.657C204.504 421.577 202.73 422.073 200.873 423.145L198.836 421.585C199.917 420.929 201.095 420.457 202.37 420.169C203.7 419.881 205.002 419.785 206.277 419.881C207.552 419.977 208.827 420.249 210.102 420.697C211.432 421.145 212.707 421.721 213.926 422.425C215.617 423.401 216.781 424.361 217.418 425.305C218.111 426.249 218.236 427.185 217.792 428.112C217.377 429.024 216.379 429.936 214.799 430.848L203.908 437.136C203.298 437.488 202.952 437.768 202.869 437.976C202.841 438.184 203.104 438.448 203.658 438.768C204.129 439.04 204.725 439.304 205.446 439.56L203.492 440.736C202.661 440.416 201.926 440.072 201.289 439.704C200.153 439.048 199.626 438.392 199.709 437.736C199.792 437.08 200.61 436.336 202.162 435.504L202.661 435.504C200.748 436.032 198.712 436.168 196.55 435.912C194.416 435.64 192.31 434.904 190.231 433.704ZM192.642 432.792C194.887 434.088 197.173 434.768 199.501 434.832C201.857 434.912 203.991 434.4 205.903 433.296L210.393 430.704L210.642 431.904L199.959 427.896L199.543 427.752C197.908 427.161 196.481 426.849 195.261 426.817C194.07 426.769 192.906 427.073 191.769 427.728C190.494 428.464 189.954 429.288 190.148 430.2C190.37 431.096 191.201 431.96 192.642 432.792ZM206.458 442.496L227.118 430.569L229.529 431.96L224.458 434.888L224.666 434.48C226.689 433.792 228.753 433.544 230.86 433.736C232.966 433.928 234.989 434.584 236.929 435.704C238.204 436.44 239.132 437.2 239.714 437.984C240.351 438.768 240.67 439.56 240.67 440.36C240.642 441.208 240.199 442.008 239.34 442.76C238.508 443.496 237.386 444.272 235.973 445.088L223.46 452.311L220.966 450.871L233.063 443.888C233.09 443.872 233.118 443.856 233.146 443.84C233.174 443.824 233.201 443.808 233.229 443.792C234.476 443.072 235.432 442.44 236.097 441.896C236.762 441.352 237.123 440.744 237.178 440.072C237.261 439.416 237.04 438.808 236.513 438.248C235.987 437.688 235.224 437.12 234.227 436.544C232.647 435.632 230.652 435.104 228.241 434.96C225.885 434.816 223.28 435.568 220.425 437.216L208.869 443.888L206.458 442.496ZM235.59 459.842C232.985 458.338 231.503 456.762 231.142 455.114C230.838 453.466 231.849 451.986 234.177 450.675L236.671 451.874C234.898 452.866 234.135 453.978 234.385 455.21C234.662 456.458 235.757 457.634 237.669 458.738C239.498 459.794 241.258 460.41 242.948 460.586C244.667 460.778 246.177 460.498 247.479 459.746C248.339 459.25 248.754 458.69 248.727 458.066C248.699 457.442 248.394 456.818 247.812 456.194C247.258 455.586 246.426 454.802 245.318 453.842C245.179 453.698 245.041 453.57 244.902 453.458C244.764 453.346 244.625 453.218 244.486 453.074C243.295 452.002 242.436 451.075 241.909 450.291C241.382 449.507 241.202 448.747 241.369 448.011C241.563 447.291 242.214 446.611 243.322 445.971C244.459 445.315 245.775 444.923 247.272 444.795C248.796 444.651 250.334 444.771 251.886 445.155C253.493 445.539 255.017 446.147 256.459 446.979C258.759 448.307 260.089 449.715 260.449 451.203C260.837 452.674 260.075 454.106 258.163 455.498L255.502 454.394C256.971 453.386 257.623 452.338 257.456 451.251C257.318 450.147 256.334 449.067 254.505 448.011C253.036 447.163 251.512 446.651 249.932 446.475C248.352 446.299 247.008 446.531 245.9 447.171C244.847 447.779 244.459 448.467 244.736 449.235C245.068 450.003 245.955 451.043 247.396 452.354C247.479 452.434 247.576 452.506 247.687 452.57C247.798 452.634 247.881 452.698 247.937 452.762C247.964 452.81 248.006 452.866 248.061 452.93C248.145 452.978 248.214 453.018 248.269 453.05C249.6 454.202 250.583 455.186 251.221 456.002C251.914 456.818 252.191 457.65 252.052 458.498C251.969 459.346 251.262 460.154 249.932 460.922C247.909 462.09 245.609 462.554 243.031 462.314C240.51 462.074 238.029 461.25 235.59 459.842ZM253.526 470.244C251.503 469.076 250.366 467.812 250.117 466.452C249.895 465.108 250.671 463.924 252.445 462.9C253.692 462.181 254.994 461.749 256.352 461.605C257.738 461.477 259.124 461.557 260.509 461.845C261.895 462.133 263.35 462.572 264.874 463.164L274.352 466.86C274.435 466.812 274.519 466.764 274.602 466.716C274.685 466.668 274.754 466.628 274.81 466.596C275.946 465.94 276.777 465.364 277.304 464.868C277.886 464.372 278.163 463.86 278.135 463.332C278.135 462.82 277.872 462.284 277.345 461.725C276.846 461.181 276.112 460.629 275.142 460.069C273.091 458.885 271.207 458.261 269.489 458.197C267.798 458.117 266.024 458.613 264.168 459.685L262.131 458.125C263.211 457.469 264.389 456.997 265.664 456.709C266.994 456.421 268.297 456.325 269.572 456.421C270.847 456.517 272.121 456.789 273.396 457.237C274.726 457.685 276.001 458.261 277.221 458.965C278.911 459.941 280.075 460.901 280.713 461.845C281.405 462.788 281.53 463.724 281.087 464.652C280.671 465.564 279.673 466.476 278.094 467.388L267.202 473.676C266.593 474.028 266.246 474.308 266.163 474.516C266.135 474.724 266.399 474.988 266.953 475.308C267.424 475.58 268.02 475.844 268.74 476.1L266.787 477.276C265.955 476.956 265.221 476.612 264.583 476.244C263.447 475.588 262.92 474.932 263.004 474.276C263.087 473.62 263.904 472.876 265.456 472.044L265.955 472.044C264.043 472.572 262.006 472.708 259.844 472.452C257.71 472.18 255.604 471.444 253.526 470.244ZM255.937 469.332C258.181 470.628 260.468 471.308 262.796 471.372C265.151 471.452 267.285 470.94 269.198 469.836L273.687 467.244L273.937 468.444L263.253 464.436L262.837 464.292C261.202 463.7 259.775 463.388 258.556 463.356C257.364 463.308 256.2 463.612 255.064 464.268C253.789 465.004 253.249 465.828 253.442 466.74C253.664 467.636 254.496 468.5 255.937 469.332ZM277.9 484.267C275.766 483.035 274.394 481.731 273.785 480.356C273.203 478.996 273.341 477.636 274.2 476.276C275.087 474.9 276.611 473.588 278.773 472.34C280.851 471.14 283.096 470.292 285.507 469.796C287.946 469.316 290.371 469.244 292.782 469.58C295.221 469.9 297.452 470.644 299.475 471.812C301.886 473.204 303.189 474.692 303.383 476.276C303.604 477.844 302.884 479.38 301.221 480.884L298.436 479.804C299.766 478.588 300.403 477.42 300.348 476.3C300.292 475.18 299.309 474.068 297.396 472.964C296.094 472.212 294.75 471.692 293.364 471.404C292.034 471.116 290.676 471.036 289.29 471.164C288.015 471.26 286.699 471.54 285.341 472.004C284.011 472.484 282.694 473.1 281.392 473.852C278.621 475.452 277.041 477.02 276.653 478.556C276.265 480.092 277.36 481.603 279.937 483.091C281.794 484.163 283.664 484.779 285.549 484.939C287.433 485.099 289.457 484.779 291.618 483.979L293.655 485.443C291.992 486.083 290.246 486.467 288.417 486.595C286.616 486.739 284.801 486.619 282.972 486.235C281.17 485.835 279.48 485.179 277.9 484.267ZM296.164 494.523C294.695 493.675 293.933 492.867 293.877 492.099C293.822 491.331 294.487 490.547 295.873 489.747L310.713 481.18L307.512 479.332L309.549 478.156L312.75 480.004L318.487 476.692L320.898 478.084L315.161 481.396L319.443 483.868L317.406 485.044L313.124 482.572L298.242 491.163C297.549 491.563 297.231 491.923 297.286 492.243C297.369 492.547 297.771 492.907 298.492 493.323C299.157 493.707 299.974 494.083 300.944 494.451L298.783 495.747C297.813 495.379 296.94 494.971 296.164 494.523ZM327.437 483.299L331.22 481.115L333.631 482.507L329.848 484.691L327.437 483.299ZM302.287 497.818L322.947 485.891L325.358 487.282L304.698 499.21L302.287 497.818ZM302.287 497.818L304.324 496.642L306.735 498.034L304.698 499.21L302.287 497.818ZM320.91 487.066L322.947 485.891L325.358 487.282L323.321 488.458L320.91 487.066ZM318.503 507.708C316.425 506.508 315.067 505.228 314.429 503.868C313.82 502.492 313.917 501.108 314.72 499.716C315.552 498.34 317.076 497.012 319.293 495.732C321.344 494.548 323.589 493.717 326.027 493.237C328.466 492.757 330.905 492.677 333.344 492.997C335.81 493.333 338.055 494.084 340.078 495.252C342.157 496.452 343.487 497.748 344.069 499.14C344.679 500.516 344.554 501.9 343.695 503.292C342.863 504.7 341.381 506.02 339.247 507.252C337.141 508.468 334.868 509.315 332.429 509.795C330.018 510.259 327.593 510.315 325.155 509.963C322.743 509.627 320.526 508.876 318.503 507.708ZM320.457 506.532C322.868 507.924 325.362 508.564 327.94 508.452C329.409 508.372 330.863 508.108 332.305 507.66C333.801 507.212 335.256 506.58 336.669 505.764C339.718 504.004 341.27 502.276 341.325 500.58C341.408 499.092 340.355 497.716 338.166 496.452C336.974 495.764 335.741 495.26 334.466 494.94C333.219 494.636 331.958 494.5 330.683 494.532C329.215 494.58 327.732 494.828 326.235 495.276C324.794 495.724 323.339 496.372 321.87 497.22C320.429 498.052 319.293 498.9 318.462 499.764C317.686 500.628 317.242 501.476 317.131 502.308C316.993 503.764 318.101 505.172 320.457 506.532ZM333.197 515.663L353.858 503.735L356.269 505.127L351.197 508.055L351.405 507.647C353.428 506.959 355.493 506.711 357.599 506.903C359.705 507.095 361.728 507.751 363.668 508.871C364.943 509.607 365.872 510.367 366.453 511.151C367.091 511.935 367.41 512.727 367.41 513.527C367.382 514.375 366.938 515.175 366.079 515.926C365.248 516.662 364.126 517.438 362.712 518.254L350.2 525.478L347.705 524.038L359.802 517.054C359.83 517.038 359.858 517.022 359.885 517.006C359.913 516.99 359.941 516.974 359.969 516.958C361.216 516.238 362.172 515.607 362.837 515.063C363.502 514.519 363.862 513.911 363.918 513.239C364.001 512.583 363.779 511.975 363.253 511.415C362.726 510.855 361.964 510.287 360.966 509.711C359.387 508.799 357.391 508.271 354.98 508.127C352.624 507.983 350.019 508.735 347.165 510.383L335.608 517.054L333.197 515.663ZM360.75 532.145C358.727 530.977 357.591 529.713 357.342 528.353C357.12 527.009 357.896 525.825 359.669 524.801C360.917 524.081 362.219 523.649 363.577 523.505C364.963 523.377 366.348 523.457 367.734 523.745C369.12 524.033 370.575 524.473 372.099 525.065L381.577 528.761C381.66 528.713 381.743 528.665 381.826 528.617C381.909 528.569 381.979 528.529 382.034 528.497C383.17 527.841 384.002 527.265 384.528 526.769C385.11 526.273 385.387 525.761 385.36 525.233C385.36 524.721 385.097 524.185 384.57 523.625C384.071 523.081 383.337 522.529 382.367 521.969C380.316 520.786 378.431 520.162 376.713 520.098C375.023 520.018 373.249 520.514 371.392 521.585L369.355 520.026C370.436 519.37 371.614 518.898 372.889 518.61C374.219 518.322 375.522 518.226 376.796 518.322C378.071 518.418 379.346 518.69 380.621 519.138C381.951 519.586 383.226 520.162 384.445 520.865C386.136 521.841 387.3 522.801 387.937 523.745C388.63 524.689 388.755 525.625 388.311 526.553C387.896 527.465 386.898 528.377 385.318 529.289L374.427 535.577C373.817 535.929 373.471 536.208 373.388 536.416C373.36 536.624 373.623 536.888 374.177 537.208C374.649 537.48 375.244 537.744 375.965 538L374.011 539.176C373.18 538.856 372.445 538.512 371.808 538.144C370.672 537.488 370.145 536.832 370.228 536.176C370.311 535.521 371.129 534.777 372.681 533.945L373.18 533.945C371.268 534.473 369.231 534.609 367.069 534.353C364.935 534.081 362.829 533.345 360.75 532.145ZM363.161 531.233C365.406 532.529 367.692 533.209 370.02 533.273C372.376 533.353 374.51 532.841 376.422 531.737L380.912 529.145L381.161 530.345L370.478 526.337L370.062 526.193C368.427 525.601 367 525.289 365.78 525.257C364.589 525.209 363.425 525.513 362.288 526.169C361.014 526.905 360.473 527.729 360.667 528.641C360.889 529.537 361.72 530.401 363.161 531.233ZM376.977 540.936L406.076 524.138L408.487 525.529L379.388 542.328L376.977 540.936ZM376.977 540.936L379.014 539.761L381.425 541.152L379.388 542.328L376.977 540.936ZM404.039 525.313L406.076 524.138L407.406 524.905L405.369 526.081L404.039 525.313ZM395.321 551.527L424.42 534.728L434.813 540.727C436.836 541.895 438.305 543.015 439.219 544.087C440.162 545.175 440.48 546.287 440.175 547.423C439.898 548.543 438.776 549.671 436.808 550.807C435.09 551.799 433.178 552.375 431.072 552.535C428.993 552.679 426.928 552.399 424.878 551.695L425.252 551.287C427.053 552.807 427.885 554.214 427.746 555.51C427.607 556.806 426.499 558.054 424.42 559.254C422.453 560.39 420.457 561.046 418.434 561.222C416.439 561.382 414.416 561.158 412.365 560.55C410.342 559.926 408.139 558.926 405.755 557.55L395.321 551.527ZM407.876 556.374C409.815 557.494 411.506 558.294 412.947 558.774C414.416 559.27 415.885 559.462 417.353 559.35C418.878 559.238 420.416 558.734 421.968 557.838C423.658 556.862 424.545 555.902 424.628 554.958C424.739 553.999 424.323 553.103 423.381 552.271C422.467 551.423 421.136 550.495 419.39 549.487L411.575 544.975L399.852 551.743L407.876 556.374ZM421.095 548.023C423.007 549.127 424.67 549.895 426.083 550.327C427.552 550.759 428.952 550.911 430.282 550.783C431.64 550.639 433.012 550.167 434.397 549.367C435.866 548.519 436.697 547.687 436.891 546.871C437.113 546.039 436.85 545.231 436.102 544.447C435.353 543.663 434.162 542.799 432.527 541.855L424.753 537.368L413.695 543.751L421.095 548.023ZM426.306 569.99C424.283 568.822 423.147 567.558 422.898 566.199C422.676 564.855 423.452 563.671 425.226 562.647C426.473 561.927 427.775 561.495 429.133 561.351C430.519 561.223 431.904 561.303 433.29 561.591C434.676 561.879 436.131 562.319 437.655 562.911L447.133 566.607C447.216 566.559 447.299 566.511 447.382 566.463C447.466 566.415 447.535 566.375 447.59 566.343C448.727 565.687 449.558 565.111 450.084 564.615C450.666 564.119 450.944 563.607 450.916 563.079C450.916 562.567 450.653 562.031 450.126 561.471C449.627 560.927 448.893 560.375 447.923 559.815C445.872 558.631 443.988 558.007 442.269 557.943C440.579 557.863 438.805 558.359 436.948 559.431L434.911 557.871C435.992 557.215 437.17 556.743 438.445 556.455C439.775 556.167 441.078 556.071 442.352 556.167C443.627 556.263 444.902 556.535 446.177 556.983C447.507 557.431 448.782 558.007 450.001 558.711C451.692 559.687 452.856 560.647 453.493 561.591C454.186 562.535 454.311 563.471 453.867 564.399C453.452 565.311 452.454 566.223 450.874 567.134L439.983 573.422C439.373 573.774 439.027 574.054 438.944 574.262C438.916 574.47 439.179 574.734 439.733 575.054C440.205 575.326 440.8 575.59 441.521 575.846L439.567 577.022C438.736 576.702 438.001 576.358 437.364 575.99C436.228 575.334 435.701 574.678 435.784 574.022C435.867 573.366 436.685 572.622 438.237 571.79L438.736 571.79C436.824 572.318 434.787 572.454 432.625 572.198C430.491 571.926 428.385 571.19 426.306 569.99ZM428.717 569.078C430.962 570.374 433.249 571.054 435.576 571.118C437.932 571.198 440.066 570.686 441.978 569.582L446.468 566.99L446.717 568.19L436.034 564.183L435.618 564.039C433.983 563.447 432.556 563.135 431.336 563.103C430.145 563.055 428.981 563.359 427.844 564.015C426.57 564.751 426.029 565.575 426.223 566.487C426.445 567.382 427.276 568.246 428.717 569.078ZM450.681 584.014C448.547 582.782 447.175 581.478 446.565 580.102C445.983 578.742 446.122 577.382 446.981 576.022C447.868 574.646 449.392 573.334 451.554 572.086C453.632 570.886 455.877 570.039 458.288 569.543C460.727 569.063 463.152 568.991 465.563 569.327C468.002 569.647 470.233 570.391 472.256 571.558C474.667 572.95 475.969 574.438 476.163 576.022C476.385 577.59 475.664 579.126 474.002 580.63L471.216 579.55C472.547 578.334 473.184 577.166 473.129 576.046C473.073 574.926 472.089 573.814 470.177 572.71C468.875 571.958 467.531 571.438 466.145 571.15C464.815 570.862 463.457 570.782 462.071 570.91C460.796 571.006 459.48 571.286 458.122 571.75C456.792 572.23 455.475 572.846 454.173 573.598C451.401 575.198 449.822 576.766 449.434 578.302C449.046 579.838 450.14 581.35 452.718 582.838C454.574 583.91 456.445 584.526 458.33 584.686C460.214 584.846 462.237 584.526 464.399 583.726L466.436 585.19C464.773 585.83 463.027 586.213 461.198 586.341C459.397 586.485 457.581 586.365 455.752 585.981C453.951 585.582 452.26 584.926 450.681 584.014ZM463.956 591.149L493.055 574.351L495.466 575.742L466.367 592.541L463.956 591.149ZM473.891 587.91L476.676 586.35L497.711 586.782L500.912 588.63L484.492 588.174H482.829L473.891 587.91ZM477.882 599.189L481.997 587.934L485.281 587.958L480.667 600.797L477.882 599.189ZM490.558 607.083C489.117 606.251 488.022 605.363 487.274 604.419C486.554 603.491 486.221 602.531 486.276 601.539C486.304 600.467 486.748 599.411 487.607 598.371C488.521 597.331 489.879 596.292 491.681 595.252C493.399 594.26 495.186 593.5 497.043 592.972C498.928 592.46 500.826 592.196 502.738 592.18C504.456 592.18 506.105 592.38 507.685 592.78C509.292 593.196 510.747 593.78 512.05 594.532C513.602 595.428 514.697 596.428 515.334 597.531C515.971 598.635 516.096 599.779 515.708 600.963C515.431 601.891 514.794 602.835 513.796 603.795C512.826 604.739 511.606 605.603 510.138 606.387L493.842 596.98C490.932 598.691 489.436 600.291 489.353 601.779C489.297 603.283 490.392 604.683 492.637 605.979C494.549 607.083 496.517 607.691 498.54 607.803C500.59 607.899 502.6 607.555 504.567 606.771L506.604 608.235C503.971 609.275 501.242 609.699 498.415 609.507C495.644 609.315 493.025 608.507 490.558 607.083ZM495.463 596.092L495.214 595.516L510.179 604.155L509.348 604.059C510.179 603.547 510.9 602.955 511.509 602.283C512.119 601.611 512.549 600.963 512.798 600.339C513.103 599.459 512.992 598.627 512.466 597.843C511.994 597.06 511.177 596.332 510.013 595.66C508.96 595.052 507.824 594.604 506.604 594.316C505.44 594.028 504.262 593.908 503.071 593.956C500.715 594.036 498.359 594.644 496.004 595.78L495.463 596.092ZM504.528 614.572L525.189 602.645L527.6 604.037L522.528 606.964L522.736 606.556C524.759 605.868 526.824 605.62 528.93 605.812C531.036 606.004 533.059 606.66 534.999 607.78C536.274 608.516 537.202 609.276 537.784 610.06C538.422 610.844 538.741 611.636 538.741 612.436C538.713 613.284 538.269 614.084 537.41 614.836C536.579 615.572 535.457 616.348 534.043 617.164L521.531 624.387L519.036 622.947L531.133 615.964C531.161 615.948 531.189 615.932 531.216 615.916C531.244 615.9 531.272 615.884 531.299 615.868C532.547 615.148 533.503 614.516 534.168 613.972C534.833 613.428 535.193 612.82 535.249 612.148C535.332 611.492 535.11 610.884 534.584 610.324C534.057 609.764 533.295 609.196 532.297 608.62C530.718 607.708 528.722 607.18 526.311 607.036C523.955 606.892 521.35 607.644 518.496 609.292L506.939 615.964L504.528 614.572ZM534.617 632.47C532.816 631.43 531.61 630.254 531 628.942C530.418 627.646 530.515 626.294 531.291 624.887C532.067 623.479 533.605 622.111 535.906 620.783C538.15 619.487 540.52 618.615 543.014 618.167C545.508 617.719 547.892 617.671 550.164 618.023C552.464 618.359 554.474 619.023 556.192 620.015C558.049 621.087 559.199 622.231 559.642 623.447C560.113 624.679 559.947 625.894 559.143 627.094L558.27 627.166L571.407 619.583L573.859 620.999L544.76 637.798L542.307 636.382L547.379 633.454L547.337 633.91C545.093 634.47 542.862 634.638 540.645 634.414C538.455 634.174 536.446 633.526 534.617 632.47ZM536.903 631.486C537.956 632.094 539.037 632.542 540.146 632.83C541.282 633.134 542.446 633.278 543.638 633.262C545.107 633.246 546.603 632.99 548.127 632.494C549.679 632.014 551.259 631.31 552.866 630.382C555.693 628.75 557.259 627.174 557.564 625.654C557.896 624.151 556.899 622.727 554.571 621.383C553.462 620.743 552.284 620.271 551.037 619.967C549.818 619.679 548.557 619.559 547.254 619.607C545.813 619.671 544.358 619.935 542.889 620.399C541.421 620.863 539.98 621.503 538.566 622.319C536.682 623.407 535.351 624.479 534.575 625.534C533.827 626.606 533.633 627.646 533.993 628.654C534.409 629.662 535.379 630.606 536.903 631.486Z" fill="#FAFAFA"/>
<rect width="706" height="540" rx="40" transform="matrix(0.866422 0.499313 -0.866422 0.499313 468.838 0)" fill="black"/>
<rect y="-0.499313" width="677" height="43" rx="21.5" transform="matrix(0.866422 0.499313 -0.866422 0.499313 468.405 14.7266)" fill="black"/>
<rect y="-0.499313" width="677" height="43" rx="21.5" transform="matrix(0.866422 0.499313 -0.866422 0.499313 468.405 14.7266)" stroke="#FAFAFA"/>
<rect y="-0.499313" width="216.333" height="220" rx="30.5" transform="matrix(0.866422 0.499313 -0.866422 0.499313 419.02 43.1875)" fill="black"/>
<rect y="-0.499313" width="216.333" height="220" rx="30.5" transform="matrix(0.866422 0.499313 -0.866422 0.499313 419.02 43.1875)" stroke="#FAFAFA"/>
<rect y="-0.499313" width="216.333" height="220" rx="30.5" transform="matrix(0.866422 0.499313 -0.866422 0.499313 618.585 158.195)" fill="black"/>
<rect y="-0.499313" width="216.333" height="220" rx="30.5" transform="matrix(0.866422 0.499313 -0.866422 0.499313 618.585 158.195)" stroke="#FAFAFA"/>
<rect y="-0.499313" width="216.333" height="220" rx="30.5" transform="matrix(0.866422 0.499313 -0.866422 0.499313 818.151 273.203)" fill="black"/>
<rect y="-0.499313" width="216.333" height="220" rx="30.5" transform="matrix(0.866422 0.499313 -0.866422 0.499313 818.151 273.203)" stroke="#FAFAFA"/>
<rect y="-0.499313" width="216.333" height="220" rx="30.5" transform="matrix(0.866422 0.499313 -0.866422 0.499313 216.276 160.023)" fill="black"/>
<rect y="-0.499313" width="216.333" height="220" rx="30.5" transform="matrix(0.866422 0.499313 -0.866422 0.499313 216.276 160.023)" stroke="#FAFAFA"/>
<rect y="-0.499313" width="216.333" height="220" rx="30.5" transform="matrix(0.866422 0.499313 -0.866422 0.499313 415.842 275.031)" fill="black"/>
<rect y="-0.499313" width="216.333" height="220" rx="30.5" transform="matrix(0.866422 0.499313 -0.866422 0.499313 415.842 275.031)" stroke="#FAFAFA"/>
<rect y="-0.499313" width="216.333" height="220" rx="30.5" transform="matrix(0.866422 0.499313 -0.866422 0.499313 615.408 390.039)" fill="black"/>
<rect y="-0.499313" width="216.333" height="220" rx="30.5" transform="matrix(0.866422 0.499313 -0.866422 0.499313 615.408 390.039)" stroke="#FAFAFA"/>
</svg>
