<svg width="1081" height="623" viewBox="0 0 1081 623" fill="none" xmlns="http://www.w3.org/2000/svg">
<rect width="706" height="540" rx="40" transform="matrix(0.866422 0.499313 -0.866422 0.499313 468.838 0)" fill="white"/>
<rect y="-0.499313" width="677" height="43" rx="21.5" transform="matrix(0.866422 0.499313 -0.866422 0.499313 468.405 14.7266)" fill="white"/>
<rect y="-0.499313" width="677" height="43" rx="21.5" transform="matrix(0.866422 0.499313 -0.866422 0.499313 468.405 14.7266)" stroke="#0A0A0A"/>
<rect y="-0.499313" width="216.333" height="220" rx="30.5" transform="matrix(0.866422 0.499313 -0.866422 0.499313 419.02 43.1875)" fill="white"/>
<rect y="-0.499313" width="216.333" height="220" rx="30.5" transform="matrix(0.866422 0.499313 -0.866422 0.499313 419.02 43.1875)" stroke="#0A0A0A"/>
<rect y="-0.499313" width="216.333" height="220" rx="30.5" transform="matrix(0.866422 0.499313 -0.866422 0.499313 618.585 158.195)" fill="white"/>
<rect y="-0.499313" width="216.333" height="220" rx="30.5" transform="matrix(0.866422 0.499313 -0.866422 0.499313 618.585 158.195)" stroke="#0A0A0A"/>
<rect y="-0.499313" width="216.333" height="220" rx="30.5" transform="matrix(0.866422 0.499313 -0.866422 0.499313 818.151 273.203)" fill="white"/>
<rect y="-0.499313" width="216.333" height="220" rx="30.5" transform="matrix(0.866422 0.499313 -0.866422 0.499313 818.151 273.203)" stroke="#0A0A0A"/>
<rect y="-0.499313" width="216.333" height="220" rx="30.5" transform="matrix(0.866422 0.499313 -0.866422 0.499313 216.276 160.023)" fill="white"/>
<rect y="-0.499313" width="216.333" height="220" rx="30.5" transform="matrix(0.866422 0.499313 -0.866422 0.499313 216.276 160.023)" stroke="#0A0A0A"/>
<rect y="-0.499313" width="216.333" height="220" rx="30.5" transform="matrix(0.866422 0.499313 -0.866422 0.499313 415.842 275.031)" fill="white"/>
<rect y="-0.499313" width="216.333" height="220" rx="30.5" transform="matrix(0.866422 0.499313 -0.866422 0.499313 415.842 275.031)" stroke="#0A0A0A"/>
<rect y="-0.499313" width="216.333" height="220" rx="30.5" transform="matrix(0.866422 0.499313 -0.866422 0.499313 615.408 390.039)" fill="white"/>
<rect y="-0.499313" width="216.333" height="220" rx="30.5" transform="matrix(0.866422 0.499313 -0.866422 0.499313 615.408 390.039)" stroke="#0A0A0A"/>
</svg>
